<?xml version="1.0" encoding="UTF-8" standalone="no"?>
<svg width="100px" height="72px" viewBox="0 0 100 72" version="1.1" xmlns="http://www.w3.org/2000/svg" xmlns:xlink="http://www.w3.org/1999/xlink">
    <!-- Generator: Sketch 3.8.1 (29687) - http://www.bohemiancoding.com/sketch -->
    <title>account-icon-outline-round</title>
    <desc>Created with Sketch.</desc>
    <defs>
        <rect id="path-1" x="0" y="0" width="100" height="71.4285714" rx="4"></rect>
        <mask id="mask-2" maskContentUnits="userSpaceOnUse" maskUnits="objectBoundingBox" x="0" y="0" width="100" height="71.4285714" fill="white">
            <use xlink:href="#path-1"></use>
        </mask>
        <mask id="mask-4" maskContentUnits="userSpaceOnUse" maskUnits="objectBoundingBox" x="0" y="0" width="100" height="71.4285714" fill="white">
            <use xlink:href="#path-1"></use>
        </mask>
        <rect id="path-5" x="23.3075435" y="8.28125" width="52.9293346" height="53.4462226" rx="8"></rect>
        <mask id="mask-6" maskContentUnits="userSpaceOnUse" maskUnits="objectBoundingBox" x="0" y="0" width="52.9293346" height="53.4462226" fill="white">
            <use xlink:href="#path-5"></use>
        </mask>
    </defs>
    <g id="Page-1" stroke="none" stroke-width="1" fill="none" fill-rule="evenodd">
        <g id="account-icon-outline-round">
            <mask id="mask-3" fill="white">
                <use xlink:href="#path-1"></use>
            </mask>
            <g id="Mask" stroke="#3498DB" mask="url(#mask-2)" stroke-width="2" fill-opacity="0.01" fill="#00A0D2">
                <use mask="url(#mask-4)" xlink:href="#path-1"></use>
            </g>
            <path d="M53.7678983,38.7490625 C53.7678983,38.7490625 56.3053983,36.2582292 56.8581066,32.9084375 C58.3456066,32.9084375 59.2643566,29.3471875 57.7768566,28.0944792 C57.8395649,26.7761458 59.6887316,17.7417708 50.3218566,17.7417708 C40.9549816,17.7417708 42.8041483,26.7761458 42.8668566,28.0944792 C41.3793566,29.3471875 42.2981066,32.9084375 43.7856066,32.9084375 C44.3383149,36.2582292 46.8772733,38.7490625 46.8772733,38.7490625 C46.8772733,38.7490625 46.8568566,41.1042708 45.9935233,41.2398958 C43.2110233,41.6788542 32.8218566,46.2215625 32.8218566,51.2032292 L67.8218566,51.2032292 C67.8218566,46.2215625 57.4326899,41.6788542 54.6516483,41.2398958 C53.7883149,41.1042708 53.7678983,38.7490625 53.7678983,38.7490625 Z" id="Path" fill="#3498DB" mask="url(#mask-3)"></path>
            <g id="Rectangle-166-Copy-4" mask="url(#mask-3)" stroke="#3498DB" stroke-width="2" fill="#3498DB" fill-opacity="0.127858922">
                <use mask="url(#mask-6)" xlink:href="#path-5"></use>
            </g>
        </g>
    </g>
</svg>