<?xml version="1.0" encoding="UTF-8" standalone="no"?>
<svg width="70px" height="70px" viewBox="0 0 70 70" version="1.1" xmlns="http://www.w3.org/2000/svg" xmlns:xlink="http://www.w3.org/1999/xlink">
    <!-- Generator: Sketch 3.8.1 (29687) - http://www.bohemiancoding.com/sketch -->
    <title>cart-icon-cart</title>
    <desc>Created with Sketch.</desc>
    <defs>
        <rect id="path-1" x="0" y="0" width="70" height="70" rx="4"></rect>
        <mask id="mask-2" maskContentUnits="userSpaceOnUse" maskUnits="objectBoundingBox" x="0" y="0" width="70" height="70" fill="white">
            <use xlink:href="#path-1"></use>
        </mask>
        <mask id="mask-4" maskContentUnits="userSpaceOnUse" maskUnits="objectBoundingBox" x="0" y="0" width="70" height="70" fill="white">
            <use xlink:href="#path-1"></use>
        </mask>
    </defs>
    <g id="Page-1" stroke="none" stroke-width="1" fill="none" fill-rule="evenodd">
        <g id="cart-icon-cart">
            <mask id="mask-3" fill="white">
                <use xlink:href="#path-1"></use>
            </mask>
            <g id="Mask" stroke="#3498DB" mask="url(#mask-2)" stroke-width="2" fill-opacity="0.01" fill="#00A0D2">
                <use mask="url(#mask-4)" xlink:href="#path-1"></use>
            </g>
            <g id="shopping-cart" mask="url(#mask-3)">
                <g transform="translate(17.000000, 22.000000)" id="Group">
                    <g>
                        <path d="M12,27 C12,28.657 10.657,30 9,30 C7.343,30 6,28.657 6,27 C6,25.343 7.343,24 9,24 C10.657,24 12,25.343 12,27 L12,27 Z" id="Shape" fill="#3498DB"></path>
                        <path d="M32,27 C32,28.657 30.657,30 29,30 C27.343,30 26,28.657 26,27 C26,25.343 27.343,24 29,24 C30.657,24 32,25.343 32,27 L32,27 Z" id="Shape" fill="#3498DB"></path>
                        <path d="M32,14 L32,2 L8,2 C8,0.895 7.105,0 6,0 L0,0 L0,2 L4,2 L5.502,14.877 C4.587,15.61 4,16.736 4,18 C4,20.209 5.791,22 8,22 L32,22 L32,20 L8,20 C6.895,20 6,19.105 6,18 L6,17.98 L32,14 L32,14 Z" id="Shape" fill="#3498DB"></path>
                    </g>
                </g>
            </g>
        </g>
    </g>
</svg>