<?xml version="1.0" encoding="UTF-8" standalone="no"?>
<svg width="100px" height="72px" viewBox="0 0 100 72" version="1.1" xmlns="http://www.w3.org/2000/svg" xmlns:xlink="http://www.w3.org/1999/xlink">
    <!-- Generator: Sketch 3.8.1 (29687) - http://www.bohemiancoding.com/sketch -->
    <title>cart-icon-default</title>
    <desc>Created with Sketch.</desc>
    <defs>
        <rect id="path-1" x="0" y="0" width="100" height="71.4285714" rx="4"></rect>
        <mask id="mask-2" maskContentUnits="userSpaceOnUse" maskUnits="objectBoundingBox" x="0" y="0" width="100" height="71.4285714" fill="white">
            <use xlink:href="#path-1"></use>
        </mask>
        <mask id="mask-4" maskContentUnits="userSpaceOnUse" maskUnits="objectBoundingBox" x="0" y="0" width="100" height="71.4285714" fill="white">
            <use xlink:href="#path-1"></use>
        </mask>
        <rect id="path-5" x="0" y="0" width="43.8620144" height="37.6804865" rx="1"></rect>
        <mask id="mask-6" maskContentUnits="userSpaceOnUse" maskUnits="objectBoundingBox" x="0" y="0" width="43.8620144" height="37.6804865" fill="white">
            <use xlink:href="#path-5"></use>
        </mask>
        <mask id="mask-8" maskContentUnits="userSpaceOnUse" maskUnits="objectBoundingBox" x="0" y="0" width="43.8620144" height="37.6804865" fill="white">
            <use xlink:href="#path-5"></use>
        </mask>
        <rect id="path-9" x="0" y="0" width="26.3172087" height="17.3909938" rx="1"></rect>
        <path d="M12.32,23.2984004 C18.152127,23.2984004 22.88,19.386757 22.88,14.5615003 C22.88,9.73624355 18.152127,5.82460011 12.32,5.82460011 C6.48787304,5.82460011 1.76,9.73624355 1.76,14.5615003 C1.76,19.386757 6.48787304,23.2984004 12.32,23.2984004 Z" id="path-11"></path>
        <mask id="mask-12" maskContentUnits="userSpaceOnUse" maskUnits="objectBoundingBox" x="0" y="0" width="21.12" height="17.4738003" fill="white">
            <use xlink:href="#path-11"></use>
        </mask>
    </defs>
    <g id="Page-1" stroke="none" stroke-width="1" fill="none" fill-rule="evenodd">
        <g id="cart-icon-default">
            <mask id="mask-3" fill="white">
                <use xlink:href="#path-1"></use>
            </mask>
            <g id="Mask" stroke="#3498DB" mask="url(#mask-2)" stroke-width="2" fill-opacity="0.01" fill="#00A0D2">
                <use mask="url(#mask-4)" xlink:href="#path-1"></use>
            </g>
            <g id="cart-default" mask="url(#mask-3)">
                <g transform="translate(27.000000, 5.000000)">
                    <g id="mobile-header-copy" stroke-width="1" fill="none">
                        <g id="contact-copy-2" transform="translate(0.000000, 16.017650)">
                            <mask id="mask-7" fill="white">
                                <use xlink:href="#path-5"></use>
                            </mask>
                            <g id="Mask" stroke="#3498DB" mask="url(#mask-6)" stroke-width="2" fill-opacity="0.01" fill="#00A0D2">
                                <use mask="url(#mask-8)" xlink:href="#path-5"></use>
                            </g>
                        </g>
                        <g id="contact-copy-4" transform="translate(8.800000, 0.000000)">
                            <mask id="mask-10" fill="white">
                                <use xlink:href="#path-9"></use>
                            </mask>
                            <g id="Mask"></g>
                            <g id="Oval-9" mask="url(#mask-10)" stroke="#3498DB" stroke-width="2" fill="#00A0D2" fill-opacity="0.01">
                                <use mask="url(#mask-12)" xlink:href="#path-11"></use>
                            </g>
                        </g>
                    </g>
                    <path d="M8.76841026,40.0097959 L12.2432821,40.0097959 L12.2432821,30.9347959 C12.2432821,30.4903039 12.2556922,30.0252405 12.2805128,29.5395918 L10.2328205,31.2311224 C10.1004438,31.3381298 9.96806904,31.4142685 9.83569231,31.4595408 C9.70331558,31.5048132 9.57507754,31.527449 9.45097436,31.527449 C9.23586217,31.527449 9.04350512,31.4801195 8.87389744,31.3854592 C8.70428975,31.2907988 8.57812007,31.1899665 8.49538462,31.0829592 L7.27917949,29.4778571 L12.9134359,24.7736735 L16.0904615,24.7736735 L16.0904615,40.0097959 L19.0689231,40.0097959 L19.0689231,42.7755102 L8.76841026,42.7755102 L8.76841026,40.0097959 Z M33.9364103,33.7745918 C33.9364103,35.3467766 33.7668051,36.7090419 33.4275897,37.8614286 C33.0883744,39.0138153 32.6188577,39.9686357 32.0190256,40.7259184 C31.4191936,41.4832011 30.7076793,42.047039 29.8844615,42.417449 C29.0612437,42.787859 28.1697826,42.9730612 27.2100513,42.9730612 C26.25032,42.9730612 25.3629955,42.787859 24.5480513,42.417449 C23.733107,42.047039 23.0277979,41.4832011 22.4321026,40.7259184 C21.8364073,39.9686357 21.3710273,39.0138153 21.0359487,37.8614286 C20.7008701,36.7090419 20.5333333,35.3467766 20.5333333,33.7745918 C20.5333333,32.2024071 20.7008701,30.8401418 21.0359487,29.6877551 C21.3710273,28.5353684 21.8364073,27.580548 22.4321026,26.8232653 C23.0277979,26.0659826 23.733107,25.5042025 24.5480513,25.1379082 C25.3629955,24.7716138 26.25032,24.5884694 27.2100513,24.5884694 C28.1697826,24.5884694 29.0612437,24.7716138 29.8844615,25.1379082 C30.7076793,25.5042025 31.4191936,26.0659826 32.0190256,26.8232653 C32.6188577,27.580548 33.0883744,28.5353684 33.4275897,29.6877551 C33.7668051,30.8401418 33.9364103,32.2024071 33.9364103,33.7745918 L33.9364103,33.7745918 Z M29.9651282,33.7745918 C29.9651282,32.5316605 29.8865307,31.5130482 29.7293333,30.7187245 C29.572136,29.9244008 29.3632321,29.3008866 29.1026154,28.8481633 C28.8419987,28.3954399 28.5462239,28.0847117 28.2152821,27.9159694 C27.8843402,27.747227 27.5492667,27.6628571 27.2100513,27.6628571 C26.8708359,27.6628571 26.5378307,27.747227 26.2110256,27.9159694 C25.8842206,28.0847117 25.5946508,28.3954399 25.3423077,28.8481633 C25.0899646,29.3008866 24.8872657,29.9244008 24.7342051,30.7187245 C24.5811445,31.5130482 24.5046154,32.5316605 24.5046154,33.7745918 C24.5046154,35.0257546 24.5811445,36.0464246 24.7342051,36.8366327 C24.8872657,37.6268407 25.0899646,38.2503549 25.3423077,38.7071939 C25.5946508,39.1640329 25.8842206,39.4768189 26.2110256,39.6455612 C26.5378307,39.8143036 26.8708359,39.8986735 27.2100513,39.8986735 C27.5492667,39.8986735 27.8843402,39.8143036 28.2152821,39.6455612 C28.5462239,39.4768189 28.8419987,39.1640329 29.1026154,38.7071939 C29.3632321,38.2503549 29.572136,37.6268407 29.7293333,36.8366327 C29.8865307,36.0464246 29.9651282,35.0257546 29.9651282,33.7745918 L29.9651282,33.7745918 Z" id="10" fill="#3498DB"></path>
                </g>
            </g>
        </g>
    </g>
</svg>