<?xml version="1.0" encoding="UTF-8" standalone="no"?>
<svg width="100px" height="72px" viewBox="0 0 100 72" version="1.1" xmlns="http://www.w3.org/2000/svg" xmlns:xlink="http://www.w3.org/1999/xlink">
    <!-- Generator: Sketch 3.8.1 (29687) - http://www.bohemiancoding.com/sketch -->
    <title>cart-icon-fill-round</title>
    <desc>Created with Sketch.</desc>
    <defs>
        <rect id="path-1" x="0" y="0" width="100" height="71.4285714" rx="4"></rect>
        <mask id="mask-2" maskContentUnits="userSpaceOnUse" maskUnits="objectBoundingBox" x="0" y="0" width="100" height="71.4285714" fill="white">
            <use xlink:href="#path-1"></use>
        </mask>
        <mask id="mask-4" maskContentUnits="userSpaceOnUse" maskUnits="objectBoundingBox" x="0" y="0" width="100" height="71.4285714" fill="white">
            <use xlink:href="#path-1"></use>
        </mask>
    </defs>
    <g id="Page-1" stroke="none" stroke-width="1" fill="none" fill-rule="evenodd">
        <g id="cart-icon-fill-round">
            <mask id="mask-3" fill="white">
                <use xlink:href="#path-1"></use>
            </mask>
            <g id="Mask" stroke="#3498DB" mask="url(#mask-2)" stroke-width="2" fill-opacity="0.01" fill="#00A0D2">
                <use mask="url(#mask-4)" xlink:href="#path-1"></use>
            </g>
            <rect id="Rectangle-166-Copy-4" fill="#3498DB" mask="url(#mask-3)" x="24.3075435" y="8.28125" width="52.9293346" height="53.4462226" rx="7"></rect>
            <g id="shopping-basket" mask="url(#mask-3)" fill="#FFFFFF">
                <g transform="translate(36.000000, 22.000000)" id="Shape">
                    <path d="M29.0625,11.4916256 C29.59725,11.4916256 30.0538542,11.6786837 30.4323125,12.0528 C30.8107708,12.4269163 31,12.8782818 31,13.4068966 C31,13.9355113 30.8107708,14.3868768 30.4323125,14.7609931 C30.0538542,15.1351094 29.59725,15.3221675 29.0625,15.3221675 L28.8358125,15.3221675 L27.0949687,25.2279488 C27.0142396,25.6869754 26.7920729,26.066199 26.4284688,26.3656197 C26.0648646,26.6650404 25.6512083,26.8147507 25.1875,26.8147507 L5.8125,26.8147507 C5.34814583,26.8147507 4.93448958,26.6650404 4.57153125,26.3656197 C4.20857292,26.066199 3.98640625,25.6869754 3.90503125,25.2279488 L2.1641875,15.3221675 L1.9375,15.3221675 C1.40275,15.3221675 0.946145833,15.1351094 0.5676875,14.7609931 C0.189229167,14.3868768 -7.17019037e-17,13.9355113 0,13.4068966 C7.17019037e-17,12.8782818 0.189229167,12.4269163 0.5676875,12.0528 C0.946145833,11.6786837 1.40275,11.4916256 1.9375,11.4916256 L29.0625,11.4916256 L29.0625,11.4916256 Z M7.3411875,23.462069 C7.60339583,23.4422778 7.82297917,23.3299153 7.9999375,23.1249813 C8.17689583,22.9200473 8.25504167,22.6879803 8.234375,22.4287803 L7.75,16.2041498 C7.72997917,15.9449498 7.6163125,15.7278857 7.409,15.5529576 C7.2016875,15.3780296 6.96692708,15.3007803 6.70471875,15.3212099 C6.44251042,15.3416394 6.22292708,15.454002 6.04596875,15.6582975 C5.86901042,15.8625931 5.79086458,16.0946601 5.81153125,16.3544985 L6.29590625,22.5791291 C6.31592708,22.8287527 6.41926042,23.0381557 6.60590625,23.2073379 C6.79255208,23.3765202 7.01213542,23.4614305 7.26465625,23.462069 L7.34021875,23.462069 L7.3411875,23.462069 Z M13.5625,22.5044335 L13.5625,16.279803 C13.5625,16.020603 13.4665937,15.796197 13.2747813,15.6065852 C13.0829687,15.4169734 12.8559583,15.3221675 12.59375,15.3221675 C12.3315417,15.3221675 12.1045313,15.4169734 11.9127187,15.6065852 C11.7209063,15.796197 11.625,16.020603 11.625,16.279803 L11.625,22.5044335 C11.625,22.7636335 11.7209063,22.9880394 11.9127187,23.1776512 C12.1045313,23.3672631 12.3315417,23.462069 12.59375,23.462069 C12.8559583,23.462069 13.0829687,23.3672631 13.2747813,23.1776512 C13.4665937,22.9880394 13.5625,22.7636335 13.5625,22.5044335 L13.5625,22.5044335 Z M19.375,22.5044335 L19.375,16.279803 C19.375,16.020603 19.2790938,15.796197 19.0872813,15.6065852 C18.8954687,15.4169734 18.6684583,15.3221675 18.40625,15.3221675 C18.1440417,15.3221675 17.9170313,15.4169734 17.7252187,15.6065852 C17.5334062,15.796197 17.4375,16.020603 17.4375,16.279803 L17.4375,22.5044335 C17.4375,22.7636335 17.5334062,22.9880394 17.7252187,23.1776512 C17.9170313,23.3672631 18.1440417,23.462069 18.40625,23.462069 C18.6684583,23.462069 18.8954687,23.3672631 19.0872813,23.1776512 C19.2790938,22.9880394 19.375,22.7636335 19.375,22.5044335 L19.375,22.5044335 Z M24.703125,22.5791291 L25.1875,16.3544985 C25.2075208,16.0952985 25.129375,15.8632315 24.9530625,15.6582975 C24.77675,15.4533635 24.5571667,15.341001 24.2943125,15.3212099 C24.0314583,15.3014187 23.7966979,15.378668 23.5900313,15.5529576 C23.3833646,15.7272473 23.2696979,15.9443113 23.2490313,16.2041498 L22.7646563,22.4287803 C22.7446354,22.6879803 22.8227813,22.9200473 22.9990938,23.1249813 C23.1754063,23.3299153 23.3949896,23.4422778 23.6578438,23.462069 L23.7334063,23.462069 C23.9859271,23.462069 24.2055104,23.3771586 24.3921563,23.2073379 C24.5788021,23.0375172 24.6821354,22.8281143 24.7021563,22.5791291 L24.703125,22.5791291 Z M7.2055625,4.368733 L5.79796875,10.5339901 L3.7994375,10.5339901 L5.328125,3.93492414 C5.5199375,3.05709163 5.96911458,2.34141872 6.67565625,1.78790542 C7.38219792,1.23439212 8.18948958,0.957635468 9.09753125,0.957635468 L11.625,0.957635468 C11.625,0.698435468 11.7209062,0.474029557 11.9127187,0.284417734 C12.1045312,0.0948059113 12.3315417,9.09507828e-17 12.59375,5.55111512e-17 L18.40625,5.55111512e-17 C18.6684583,5.55111512e-17 18.8954687,0.0948059113 19.0872812,0.284417734 C19.2790937,0.474029557 19.375,0.698435468 19.375,0.957635468 L21.9024687,0.957635468 C22.8105104,0.957635468 23.6178021,1.23439212 24.3243437,1.78790542 C25.0308854,2.34141872 25.4800625,3.05709163 25.671875,3.93492414 L27.2005625,10.5339901 L25.2020312,10.5339901 L23.7944375,4.368733 C23.6833542,3.92949754 23.4537604,3.57038424 23.1056562,3.2913931 C22.7575521,3.01240197 22.3564896,2.87258719 21.9024687,2.87194877 L19.375,2.87194877 C19.375,3.13114877 19.2790937,3.35555468 19.0872812,3.5451665 C18.8954687,3.73477833 18.6684583,3.82958424 18.40625,3.82958424 L12.59375,3.82958424 C12.3315417,3.82958424 12.1045312,3.73477833 11.9127187,3.5451665 C11.7209062,3.35555468 11.625,3.13114877 11.625,2.87194877 L9.09753125,2.87194877 C8.64351042,2.87194877 8.24244792,3.01176355 7.89434375,3.2913931 C7.54623958,3.57102266 7.31664583,3.93013596 7.2055625,4.368733 L7.2055625,4.368733 Z"></path>
                </g>
            </g>
        </g>
    </g>
</svg>