<?xml version="1.0" encoding="UTF-8" standalone="no"?>
<svg width="100px" height="72px" viewBox="0 0 100 72" version="1.1" xmlns="http://www.w3.org/2000/svg" xmlns:xlink="http://www.w3.org/1999/xlink">
    <!-- Generator: Sketch 3.8.1 (29687) - http://www.bohemiancoding.com/sketch -->
    <title>cart-icon-outline</title>
    <desc>Created with Sketch.</desc>
    <defs>
        <rect id="path-1" x="0" y="0" width="100" height="71.4285714" rx="4"></rect>
        <mask id="mask-2" maskContentUnits="userSpaceOnUse" maskUnits="objectBoundingBox" x="0" y="0" width="100" height="71.4285714" fill="white">
            <use xlink:href="#path-1"></use>
        </mask>
        <mask id="mask-4" maskContentUnits="userSpaceOnUse" maskUnits="objectBoundingBox" x="0" y="0" width="100" height="71.4285714" fill="white">
            <use xlink:href="#path-1"></use>
        </mask>
        <rect id="path-5" x="23.3075435" y="8.28125" width="52.9293346" height="53.4462226" rx="26.4646673"></rect>
        <mask id="mask-6" maskContentUnits="userSpaceOnUse" maskUnits="objectBoundingBox" x="0" y="0" width="52.9293346" height="53.4462226" fill="white">
            <use xlink:href="#path-5"></use>
        </mask>
    </defs>
    <g id="Page-1" stroke="none" stroke-width="1" fill="none" fill-rule="evenodd">
        <g id="cart-icon-outline">
            <mask id="mask-3" fill="white">
                <use xlink:href="#path-1"></use>
            </mask>
            <g id="Mask" stroke="#3498DB" mask="url(#mask-2)" stroke-width="2" fill-opacity="0.01" fill="#00A0D2">
                <use mask="url(#mask-4)" xlink:href="#path-1"></use>
            </g>
            <g id="Rectangle-166-Copy-4" mask="url(#mask-3)" stroke="#3498DB" stroke-width="2" fill="#3498DB" fill-opacity="0.127858922">
                <use mask="url(#mask-6)" xlink:href="#path-5"></use>
            </g>
            <g id="shopping-basket" mask="url(#mask-3)" fill="#3498DB">
                <g transform="translate(34.000000, 21.000000)" id="Shape">
                    <path d="M30,11.9172414 C30.552,11.9172414 31.0233333,12.1112276 31.414,12.4992 C31.8046667,12.8871724 32,13.3552552 32,13.9034483 C32,14.4516414 31.8046667,14.9197241 31.414,15.3076966 C31.0233333,15.695669 30.552,15.8896552 30,15.8896552 L29.766,15.8896552 L27.969,26.1623172 C27.8856667,26.6383448 27.6563333,27.0316138 27.281,27.3421241 C26.9056667,27.6526345 26.4786667,27.8078897 26,27.8078897 L6,27.8078897 C5.52066667,27.8078897 5.09366667,27.6526345 4.719,27.3421241 C4.34433333,27.0316138 4.115,26.6383448 4.031,26.1623172 L2.234,15.8896552 L2,15.8896552 C1.448,15.8896552 0.976666667,15.695669 0.586,15.3076966 C0.195333333,14.9197241 -7.40148683e-17,14.4516414 0,13.9034483 C7.40148683e-17,13.3552552 0.195333333,12.8871724 0.586,12.4992 C0.976666667,12.1112276 1.448,11.9172414 2,11.9172414 L30,11.9172414 L30,11.9172414 Z M7.578,24.3310345 C7.84866667,24.3105103 8.07533333,24.1939862 8.258,23.9814621 C8.44066667,23.7689379 8.52133333,23.5282759 8.5,23.2594759 L8,16.8043034 C7.97933333,16.5355034 7.862,16.3104 7.648,16.1289931 C7.434,15.9475862 7.19166667,15.8674759 6.921,15.8886621 C6.65033333,15.9098483 6.42366667,16.0263724 6.241,16.2382345 C6.05833333,16.4500966 5.97766667,16.6907586 5.999,16.9602207 L6.499,23.4153931 C6.51966667,23.6742621 6.62633333,23.8914207 6.819,24.066869 C7.01166667,24.2423172 7.23833333,24.3303724 7.499,24.3310345 L7.577,24.3310345 L7.578,24.3310345 Z M14,23.337931 L14,16.8827586 C14,16.6139586 13.901,16.3812414 13.703,16.1846069 C13.505,15.9879724 13.2706667,15.8896552 13,15.8896552 C12.7293333,15.8896552 12.495,15.9879724 12.297,16.1846069 C12.099,16.3812414 12,16.6139586 12,16.8827586 L12,23.337931 C12,23.606731 12.099,23.8394483 12.297,24.0360828 C12.495,24.2327172 12.7293333,24.3310345 13,24.3310345 C13.2706667,24.3310345 13.505,24.2327172 13.703,24.0360828 C13.901,23.8394483 14,23.606731 14,23.337931 L14,23.337931 Z M20,23.337931 L20,16.8827586 C20,16.6139586 19.901,16.3812414 19.703,16.1846069 C19.505,15.9879724 19.2706667,15.8896552 19,15.8896552 C18.7293333,15.8896552 18.495,15.9879724 18.297,16.1846069 C18.099,16.3812414 18,16.6139586 18,16.8827586 L18,23.337931 C18,23.606731 18.099,23.8394483 18.297,24.0360828 C18.495,24.2327172 18.7293333,24.3310345 19,24.3310345 C19.2706667,24.3310345 19.505,24.2327172 19.703,24.0360828 C19.901,23.8394483 20,23.606731 20,23.337931 L20,23.337931 Z M25.5,23.4153931 L26,16.9602207 C26.0206667,16.6914207 25.94,16.4507586 25.758,16.2382345 C25.576,16.0257103 25.3493333,15.9091862 25.078,15.8886621 C24.8066667,15.8681379 24.5643333,15.9482483 24.351,16.1289931 C24.1376667,16.3097379 24.0203333,16.5348414 23.999,16.8043034 L23.499,23.2594759 C23.4783333,23.5282759 23.559,23.7689379 23.741,23.9814621 C23.923,24.1939862 24.1496667,24.3105103 24.421,24.3310345 L24.499,24.3310345 C24.7596667,24.3310345 24.9863333,24.2429793 25.179,24.066869 C25.3716667,23.8907586 25.4783333,23.6736 25.499,23.4153931 L25.5,23.4153931 Z M7.438,4.53053793 L5.985,10.9241379 L3.922,10.9241379 L5.5,4.08066207 C5.698,3.17031724 6.16166667,2.42813793 6.891,1.85412414 C7.62033333,1.28011034 8.45366667,0.993103448 9.391,0.993103448 L12,0.993103448 C12,0.724303448 12.099,0.491586207 12.297,0.294951724 C12.495,0.0983172414 12.7293333,9.22633617e-17 13,5.55111512e-17 L19,5.55111512e-17 C19.2706667,5.55111512e-17 19.505,0.0983172414 19.703,0.294951724 C19.901,0.491586207 20,0.724303448 20,0.993103448 L22.609,0.993103448 C23.5463333,0.993103448 24.3796667,1.28011034 25.109,1.85412414 C25.8383333,2.42813793 26.302,3.17031724 26.5,4.08066207 L28.078,10.9241379 L26.015,10.9241379 L24.562,4.53053793 C24.4473333,4.07503448 24.2103333,3.70262069 23.851,3.41329655 C23.4916667,3.12397241 23.0776667,2.97897931 22.609,2.97831724 L20,2.97831724 C20,3.24711724 19.901,3.47983448 19.703,3.67646897 C19.505,3.87310345 19.2706667,3.97142069 19,3.97142069 L13,3.97142069 C12.7293333,3.97142069 12.495,3.87310345 12.297,3.67646897 C12.099,3.47983448 12,3.24711724 12,2.97831724 L9.391,2.97831724 C8.92233333,2.97831724 8.50833333,3.12331034 8.149,3.41329655 C7.78966667,3.70328276 7.55266667,4.07569655 7.438,4.53053793 L7.438,4.53053793 Z"></path>
                </g>
            </g>
        </g>
    </g>
</svg>