<?xml version="1.0" encoding="UTF-8" standalone="no"?>
<svg width="72px" height="52px" viewBox="0 0 72 52" version="1.1" xmlns="http://www.w3.org/2000/svg" xmlns:xlink="http://www.w3.org/1999/xlink">
    <!-- Generator: Sketch 3.7.2 (28276) - http://www.bohemiancoding.com/sketch -->
    <title>category-title-center</title>
    <desc>Created with Sketch.</desc>
    <defs>
        <rect id="path-1" x="3.12638804e-13" y="0" width="70" height="50" rx="4"></rect>
    </defs>
    <g id="Page-1" stroke="none" stroke-width="1" fill="none" fill-rule="evenodd">
        <g id="category-title-center" transform="translate(1.000000, 0.767750)">
            <mask id="mask-2" fill="white">
                <use xlink:href="#path-1"></use>
            </mask>
            <use id="Mask" stroke="#00A0D2" stroke-linecap="square" xlink:href="#path-1"></use>
            <path d="M27.505,7.18 L27.505,13 L29.075,13 L29.075,7.18 L31.215,7.18 L31.215,5.86 L25.365,5.86 L25.365,7.18 L27.505,7.18 Z M33.345,7.03 L33.345,5.86 L31.925,5.86 L31.925,7.03 L33.345,7.03 Z M31.925,7.83 L31.925,13 L33.345,13 L33.345,7.83 L31.925,7.83 Z M36.265,7.83 L36.265,6.28 L34.845,6.28 L34.845,7.83 L33.985,7.83 L33.985,8.78 L34.845,8.78 L34.845,11.83 C34.845,12.0900013 34.8883329,12.2999992 34.975,12.46 C35.0616671,12.6200008 35.1799993,12.7433329 35.33,12.83 C35.4800008,12.9166671 35.6533324,12.9749998 35.85,13.005 C36.0466677,13.0350001 36.2549989,13.05 36.475,13.05 C36.6150007,13.05 36.7583326,13.0466667 36.905,13.04 C37.0516674,13.0333333 37.1849994,13.0200001 37.305,13 L37.305,11.9 C37.238333,11.9133334 37.1683337,11.9233333 37.095,11.93 C37.0216663,11.9366667 36.9450004,11.94 36.865,11.94 C36.6249988,11.94 36.4650004,11.9000004 36.385,11.82 C36.3049996,11.7399996 36.265,11.5800012 36.265,11.34 L36.265,8.78 L37.305,8.78 L37.305,7.83 L36.265,7.83 Z M38.025,5.86 L38.025,13 L39.445,13 L39.445,5.86 L38.025,5.86 Z M44.045,9.86 L41.735,9.86 C41.7416667,9.7599995 41.7633332,9.6466673 41.8,9.52 C41.8366669,9.3933327 41.8999996,9.2733339 41.99,9.16 C42.0800005,9.0466661 42.1999993,8.95166705 42.35,8.875 C42.5000008,8.79833295 42.6883322,8.76 42.915,8.76 C43.2616684,8.76 43.5199992,8.8533324 43.69,9.04 C43.8600009,9.2266676 43.978333,9.4999982 44.045,9.86 L44.045,9.86 Z M41.735,10.76 L45.465,10.76 C45.4916668,10.359998 45.4583338,9.9766685 45.365,9.61 C45.2716662,9.2433315 45.1200011,8.9166681 44.91,8.63 C44.699999,8.3433319 44.4316683,8.11500085 44.105,7.945 C43.7783317,7.77499915 43.3950022,7.69 42.955,7.69 C42.5616647,7.69 42.203335,7.7599993 41.88,7.9 C41.5566651,8.0400007 41.2783345,8.23166545 41.045,8.475 C40.8116655,8.71833455 40.6316673,9.006665 40.505,9.34 C40.3783327,9.673335 40.315,10.0333314 40.315,10.42 C40.315,10.820002 40.3766661,11.186665 40.5,11.52 C40.623334,11.853335 40.7983322,12.1399988 41.025,12.38 C41.2516678,12.6200012 41.5283317,12.8049993 41.855,12.935 C42.1816683,13.0650006 42.5483313,13.13 42.955,13.13 C43.5416696,13.13 44.0416646,12.996668 44.455,12.73 C44.8683354,12.463332 45.174999,12.0200031 45.375,11.4 L44.125,11.4 C44.0783331,11.5600008 43.9516677,11.7116659 43.745,11.855 C43.5383323,11.998334 43.2916681,12.07 43.005,12.07 C42.604998,12.07 42.2983344,11.9666677 42.085,11.76 C41.8716656,11.5533323 41.7550001,11.2200023 41.735,10.76 L41.735,10.76 Z" id="Title" fill="#3498DB" mask="url(#mask-2)"></path>
            <rect id="Rectangle-502" fill="#3498DB" opacity="0.2" mask="url(#mask-2)" x="-4" y="26" width="86" height="54"></rect>
            <path d="M18,17.1030097 L18,21.4294182 L18.5756426,21.4294182 L18.5756426,19.4479958 L20.8539753,19.4479958 L20.8539753,21.4294182 L21.4296179,21.4294182 L21.4296179,17.1030097 L20.8539753,17.1030097 L20.8539753,18.9632442 L18.5756426,18.9632442 L18.5756426,17.1030097 L18,17.1030097 Z M22.7081504,19.266214 C22.7081504,19.0480746 22.7364273,18.8329682 22.7929819,18.6208883 C22.8495366,18.4088084 22.9384068,18.2179394 23.0595953,18.0482754 C23.1807839,17.8786115 23.3363068,17.7422765 23.5261688,17.6392662 C23.7160308,17.536256 23.942246,17.4847516 24.2048211,17.4847516 C24.4673962,17.4847516 24.6936114,17.536256 24.8834734,17.6392662 C25.0733354,17.7422765 25.2288584,17.8786115 25.3500469,18.0482754 C25.4712354,18.2179394 25.5601057,18.4088084 25.6166603,18.6208883 C25.6732149,18.8329682 25.7014918,19.0480746 25.7014918,19.266214 C25.7014918,19.4843533 25.6732149,19.6994597 25.6166603,19.9115396 C25.5601057,20.1236195 25.4712354,20.3144886 25.3500469,20.4841525 C25.2288584,20.6538164 25.0733354,20.7901514 24.8834734,20.8931617 C24.6936114,20.9961719 24.4673962,21.0476763 24.2048211,21.0476763 C23.942246,21.0476763 23.7160308,20.9961719 23.5261688,20.8931617 C23.3363068,20.7901514 23.1807839,20.6538164 23.0595953,20.4841525 C22.9384068,20.3144886 22.8495366,20.1236195 22.7929819,19.9115396 C22.7364273,19.6994597 22.7081504,19.4843533 22.7081504,19.266214 L22.7081504,19.266214 Z M22.1325078,19.266214 C22.1325078,19.561106 22.175933,19.8448849 22.2627848,20.117559 C22.3496366,20.3902332 22.4799123,20.6315967 22.6536158,20.8416568 C22.8273194,21.0517169 23.0434357,21.2183486 23.3019712,21.341557 C23.5605067,21.4647653 23.8614536,21.5263685 24.2048211,21.5263685 C24.5481886,21.5263685 24.8491356,21.4647653 25.1076711,21.341557 C25.3662066,21.2183486 25.5823229,21.0517169 25.7560264,20.8416568 C25.9297299,20.6315967 26.0600056,20.3902332 26.1468574,20.117559 C26.2337092,19.8448849 26.2771344,19.561106 26.2771344,19.266214 C26.2771344,18.9713219 26.2337092,18.687543 26.1468574,18.4148689 C26.0600056,18.1421947 25.9297299,17.9008312 25.7560264,17.6907711 C25.5823229,17.480711 25.3662066,17.3130694 25.1076711,17.1878413 C24.8491356,17.0626131 24.5481886,17 24.2048211,17 C23.8614536,17 23.5605067,17.0626131 23.3019712,17.1878413 C23.0434357,17.3130694 22.8273194,17.480711 22.6536158,17.6907711 C22.4799123,17.9008312 22.3496366,18.1421947 22.2627848,18.4148689 C22.175933,18.687543 22.1325078,18.9713219 22.1325078,19.266214 L22.1325078,19.266214 Z M26.9921431,17.1030097 L26.9921431,21.4294182 L27.5374887,21.4294182 L27.5374887,17.8301372 L27.5496075,17.8301372 L28.9008527,21.4294182 L29.3916638,21.4294182 L30.742909,17.8301372 L30.7550278,17.8301372 L30.7550278,21.4294182 L31.3003734,21.4294182 L31.3003734,17.1030097 L30.512652,17.1030097 L29.1432286,20.7386471 L27.7798645,17.1030097 L26.9921431,17.1030097 Z M32.2577579,17.1030097 L32.2577579,21.4294182 L35.2632181,21.4294182 L35.2632181,20.9446666 L32.8334005,20.9446666 L32.8334005,19.4479958 L35.0814363,19.4479958 L35.0814363,18.9632442 L32.8334005,18.9632442 L32.8334005,17.5877614 L35.2450399,17.5877614 L35.2450399,17.1030097 L32.2577579,17.1030097 Z M38.8564397,17 L37.068918,21.5263685 L37.5051945,21.5263685 L39.2987756,17 L38.8564397,17 Z M41.3407919,17.1030097 L41.3407919,21.4294182 L41.8861375,21.4294182 L41.8861375,17.9573845 L41.8982563,17.9573845 L44.1584109,21.4294182 L44.7885881,21.4294182 L44.7885881,17.1030097 L44.2432424,17.1030097 L44.2432424,20.6113998 L44.2311237,20.6113998 L41.9527909,17.1030097 L41.3407919,17.1030097 Z M46.4670406,19.6418965 L47.2002275,17.6241177 L47.2123463,17.6241177 L47.9334144,19.6418965 L46.4670406,19.6418965 Z M46.8972577,17.1030097 L45.2127457,21.4294182 L45.8005071,21.4294182 L46.2852588,20.1266481 L48.1151962,20.1266481 L48.5878291,21.4294182 L49.2240656,21.4294182 L47.5334943,17.1030097 L46.8972577,17.1030097 Z M51.3509135,21.4294182 L52.89,17.1030097 L52.2901198,17.1030097 L51.0418843,20.8537756 L51.0297655,20.8537756 L49.7936488,17.1030097 L49.1755905,17.1030097 L50.6964988,21.4294182 L51.3509135,21.4294182 Z" id="HOME-/-NAV" fill="#3498DB" mask="url(#mask-2)"></path>
        </g>
    </g>
</svg>