<?xml version="1.0" encoding="UTF-8" standalone="no"?>
<svg width="70px" height="70px" viewBox="0 0 70 70" version="1.1" xmlns="http://www.w3.org/2000/svg" xmlns:xlink="http://www.w3.org/1999/xlink">
    <!-- Generator: Sketch 3.7.2 (28276) - http://www.bohemiancoding.com/sketch -->
    <title>category-box</title>
    <desc>Created with Sketch.</desc>
    <defs>
        <rect id="path-1" x="0" y="0" width="70" height="70" rx="4"></rect>
        <mask id="mask-2" maskContentUnits="userSpaceOnUse" maskUnits="objectBoundingBox" x="0" y="0" width="70" height="70" fill="white">
            <use xlink:href="#path-1"></use>
        </mask>
        <mask id="mask-4" maskContentUnits="userSpaceOnUse" maskUnits="objectBoundingBox" x="0" y="0" width="70" height="70" fill="white">
            <use xlink:href="#path-1"></use>
        </mask>
        <rect id="path-5" x="10" y="-4" width="50.7281105" height="50"></rect>
        <mask id="mask-6" maskContentUnits="userSpaceOnUse" maskUnits="objectBoundingBox" x="0" y="0" width="50.7281105" height="50" fill="white">
            <use xlink:href="#path-5"></use>
        </mask>
    </defs>
    <g id="Page-1" stroke="none" stroke-width="1" fill="none" fill-rule="evenodd">
        <g id="category-box">
            <mask id="mask-3" fill="white">
                <use xlink:href="#path-1"></use>
            </mask>
            <g id="Mask" stroke="#3498DB" mask="url(#mask-2)" stroke-width="2" fill-opacity="0.01" fill="#00A0D2">
                <use mask="url(#mask-4)" xlink:href="#path-1"></use>
            </g>
            <g id="Rectangle-5" mask="url(#mask-3)" stroke="#3498DB" stroke-width="2" fill="#3498DB" fill-opacity="0.127858922">
                <use mask="url(#mask-6)" xlink:href="#path-5"></use>
            </g>
            <path d="M22.736,54.816 C22.7786669,54.816 22.8173332,54.8333332 22.852,54.868 L23.156,55.2 C22.9213322,55.4720014 22.6366683,55.6839992 22.302,55.836 C21.9673317,55.9880008 21.5640024,56.064 21.092,56.064 C20.6786646,56.064 20.3040017,55.9926674 19.968,55.85 C19.6319983,55.7073326 19.3453345,55.5073346 19.108,55.25 C18.8706655,54.9926654 18.6866673,54.6840018 18.556,54.324 C18.4253327,53.9639982 18.36,53.5680022 18.36,53.136 C18.36,52.7039978 18.4299993,52.3080018 18.57,51.948 C18.7100007,51.5879982 18.9066654,51.278668 19.16,51.02 C19.4133346,50.761332 19.7166649,50.5606674 20.07,50.418 C20.4233351,50.2753326 20.8133312,50.204 21.24,50.204 C21.6613354,50.204 22.0246651,50.2693327 22.33,50.4 C22.6353349,50.5306673 22.9066655,50.7079989 23.144,50.932 L22.892,51.288 C22.8733332,51.3146668 22.8520001,51.3366666 22.828,51.354 C22.8039999,51.3713334 22.7693336,51.38 22.724,51.38 C22.6893332,51.38 22.6526669,51.3673335 22.614,51.342 C22.5753331,51.3166665 22.5293336,51.2853335 22.476,51.248 C22.4226664,51.2106665 22.3600004,51.1706669 22.288,51.128 C22.2159996,51.0853331 22.1306672,51.0453335 22.032,51.008 C21.9333328,50.9706665 21.8186673,50.9393335 21.688,50.914 C21.5573327,50.8886665 21.4066675,50.876 21.236,50.876 C20.9293318,50.876 20.6486679,50.9286661 20.394,51.034 C20.1393321,51.1393339 19.9200009,51.2893324 19.736,51.484 C19.5519991,51.6786676 19.4086672,51.9159986 19.306,52.196 C19.2033328,52.4760014 19.152,52.7893316 19.152,53.136 C19.152,53.4933351 19.2033328,53.8119986 19.306,54.092 C19.4086672,54.3720014 19.5486658,54.6086657 19.726,54.802 C19.9033342,54.9953343 20.1133321,55.1426662 20.356,55.244 C20.5986679,55.3453338 20.8599986,55.396 21.14,55.396 C21.3106675,55.396 21.4639993,55.3860001 21.6,55.366 C21.7360007,55.3459999 21.8619994,55.3146669 21.978,55.272 C22.0940006,55.2293331 22.2019995,55.1753337 22.302,55.11 C22.4020005,55.0446663 22.5026662,54.9666671 22.604,54.876 C22.6493336,54.8359998 22.6933331,54.816 22.736,54.816 L22.736,54.816 Z M27.04,56 L26.724,56 C26.6546663,56 26.5986669,55.9893334 26.556,55.968 C26.5133331,55.9466666 26.4853334,55.9013337 26.472,55.832 L26.392,55.456 C26.2853328,55.5520005 26.1813338,55.6379996 26.08,55.714 C25.9786662,55.7900004 25.8720006,55.8539997 25.76,55.906 C25.6479994,55.9580003 25.5286673,55.9973332 25.402,56.024 C25.2753327,56.0506668 25.1346674,56.064 24.98,56.064 C24.8226659,56.064 24.675334,56.0420002 24.538,55.998 C24.400666,55.9539998 24.2813338,55.8880004 24.18,55.8 C24.0786662,55.7119996 23.9980003,55.6006673 23.938,55.466 C23.8779997,55.3313327 23.848,55.1720009 23.848,54.988 C23.848,54.8279992 23.8919996,54.6740007 23.98,54.526 C24.0680004,54.3779993 24.209999,54.2466672 24.406,54.132 C24.602001,54.0173328 24.8586651,53.9233337 25.176,53.85 C25.4933349,53.7766663 25.881331,53.7346667 26.34,53.724 L26.34,53.408 C26.34,53.0933318 26.2726673,52.8553341 26.138,52.694 C26.0033327,52.5326659 25.8040013,52.452 25.54,52.452 C25.3666658,52.452 25.2206673,52.4739998 25.102,52.518 C24.9833327,52.5620002 24.8806671,52.6113331 24.794,52.666 C24.7073329,52.7206669 24.632667,52.7699998 24.57,52.814 C24.507333,52.8580002 24.4453336,52.88 24.384,52.88 C24.3359998,52.88 24.2940002,52.8673335 24.258,52.842 C24.2219998,52.8166665 24.1933334,52.7853335 24.172,52.748 L24.044,52.52 C24.2680011,52.3039989 24.509332,52.1426672 24.768,52.036 C25.026668,51.9293328 25.3133318,51.876 25.628,51.876 C25.8546678,51.876 26.0559991,51.913333 26.232,51.988 C26.4080009,52.062667 26.5559994,52.166666 26.676,52.3 C26.7960006,52.433334 26.8866664,52.5946657 26.948,52.784 C27.0093336,52.9733343 27.04,53.1813322 27.04,53.408 L27.04,56 Z M25.192,55.564 C25.317334,55.564 25.4319995,55.5513335 25.536,55.526 C25.6400005,55.5006665 25.7379995,55.4646669 25.83,55.418 C25.9220005,55.3713331 26.0099996,55.314667 26.094,55.248 C26.1780004,55.181333 26.2599996,55.1053338 26.34,55.02 L26.34,54.176 C26.0119984,54.1866667 25.7333345,54.2126665 25.504,54.254 C25.2746655,54.2953335 25.0880007,54.349333 24.944,54.416 C24.7999993,54.482667 24.6953337,54.5613329 24.63,54.652 C24.5646663,54.7426671 24.532,54.8439994 24.532,54.956 C24.532,55.0626672 24.5493332,55.1546663 24.584,55.232 C24.6186668,55.3093337 24.665333,55.3726664 24.724,55.422 C24.782667,55.4713336 24.8519996,55.5073332 24.932,55.53 C25.0120004,55.5526668 25.0986662,55.564 25.192,55.564 L25.192,55.564 Z M29.348,56.064 C29.0279984,56.064 28.7820009,55.9746676 28.61,55.796 C28.4379991,55.6173324 28.352,55.3600017 28.352,55.024 L28.352,52.544 L27.864,52.544 C27.8213331,52.544 27.7853335,52.5313335 27.756,52.506 C27.7266665,52.4806665 27.712,52.4413336 27.712,52.388 L27.712,52.104 L28.376,52.02 L28.54,50.768 C28.5453334,50.7279998 28.5626665,50.6953335 28.592,50.67 C28.6213335,50.6446665 28.6586664,50.632 28.704,50.632 L29.064,50.632 L29.064,52.028 L30.224,52.028 L30.224,52.544 L29.064,52.544 L29.064,54.976 C29.064,55.1466675 29.1053329,55.2733329 29.188,55.356 C29.2706671,55.4386671 29.3773327,55.48 29.508,55.48 C29.582667,55.48 29.6473331,55.4700001 29.702,55.45 C29.7566669,55.4299999 29.8039998,55.4080001 29.844,55.384 C29.8840002,55.3599999 29.9179999,55.3380001 29.946,55.318 C29.9740001,55.2979999 29.9986666,55.288 30.02,55.288 C30.0573335,55.288 30.0906665,55.3106664 30.12,55.356 L30.328,55.696 C30.2053327,55.8106672 30.0573342,55.9006663 29.884,55.966 C29.7106658,56.0313337 29.5320009,56.064 29.348,56.064 L29.348,56.064 Z M32.708,51.884 C32.9506679,51.884 33.1746656,51.9246663 33.38,52.006 C33.5853344,52.0873337 33.7626659,52.2046659 33.912,52.358 C34.0613341,52.5113341 34.1779996,52.7006655 34.262,52.926 C34.3460004,53.1513345 34.388,53.4079986 34.388,53.696 C34.388,53.8080006 34.3760001,53.8826665 34.352,53.92 C34.3279999,53.9573335 34.282667,53.976 34.216,53.976 L31.52,53.976 C31.5253334,54.2320013 31.5599997,54.4546657 31.624,54.644 C31.6880003,54.8333343 31.7759994,54.9913327 31.888,55.118 C32.0000006,55.2446673 32.1333326,55.339333 32.288,55.402 C32.4426674,55.464667 32.615999,55.496 32.808,55.496 C32.9866676,55.496 33.140666,55.4753335 33.27,55.434 C33.399334,55.3926665 33.5106662,55.3480002 33.604,55.3 C33.6973338,55.2519998 33.775333,55.2073335 33.838,55.166 C33.900667,55.1246665 33.9546664,55.104 34,55.104 C34.058667,55.104 34.1039998,55.1266664 34.136,55.172 L34.336,55.432 C34.2479996,55.5386672 34.1426673,55.6313329 34.02,55.71 C33.8973327,55.7886671 33.7660007,55.8533331 33.626,55.904 C33.4859993,55.9546669 33.3413341,55.9926665 33.192,56.018 C33.0426659,56.0433335 32.8946674,56.056 32.748,56.056 C32.4679986,56.056 32.2100012,56.0086671 31.974,55.914 C31.7379988,55.8193329 31.5340009,55.6806676 31.362,55.498 C31.1899991,55.3153324 31.0560005,55.0893347 30.96,54.82 C30.8639995,54.5506653 30.816,54.2413351 30.816,53.892 C30.816,53.6093319 30.8593329,53.3453346 30.946,53.1 C31.0326671,52.8546654 31.1573325,52.6420009 31.32,52.462 C31.4826675,52.2819991 31.6813322,52.1406672 31.916,52.038 C32.1506678,51.9353328 32.4146652,51.884 32.708,51.884 L32.708,51.884 Z M32.724,52.408 C32.3799983,52.408 32.1093343,52.5073323 31.912,52.706 C31.7146657,52.9046677 31.5920002,53.1799982 31.544,53.532 L33.748,53.532 C33.748,53.3666658 33.7253336,53.215334 33.68,53.078 C33.6346664,52.940666 33.5680004,52.8220005 33.48,52.722 C33.3919996,52.6219995 33.2846673,52.5446669 33.158,52.49 C33.0313327,52.4353331 32.8866675,52.408 32.724,52.408 L32.724,52.408 Z M36.66,51.88 C36.8360009,51.88 37.0006659,51.8993331 37.154,51.938 C37.3073341,51.9766669 37.446666,52.033333 37.572,52.108 L38.672,52.108 L38.672,52.372 C38.672,52.4600004 38.6160006,52.5159999 38.504,52.54 L38.044,52.604 C38.1346671,52.7773342 38.18,52.9706656 38.18,53.184 C38.18,53.3813343 38.1420004,53.5606659 38.066,53.722 C37.9899996,53.8833341 37.8846673,54.0213328 37.75,54.136 C37.6153327,54.2506672 37.4553343,54.3386664 37.27,54.4 C37.0846657,54.4613336 36.8813344,54.492 36.66,54.492 C36.4706657,54.492 36.2920008,54.4693336 36.124,54.424 C36.0386662,54.4773336 35.9740002,54.5346664 35.93,54.596 C35.8859998,54.6573336 35.864,54.717333 35.864,54.776 C35.864,54.8720005 35.9026663,54.9446664 35.98,54.994 C36.0573337,55.0433336 36.1599994,55.0786666 36.288,55.1 C36.4160006,55.1213334 36.5613325,55.1346666 36.724,55.14 C36.8866675,55.1453334 37.0526658,55.1539999 37.222,55.166 C37.3913342,55.1780001 37.5573325,55.1986665 37.72,55.228 C37.8826675,55.2573335 38.0279994,55.305333 38.156,55.372 C38.2840006,55.438667 38.3866663,55.5306661 38.464,55.648 C38.5413337,55.7653339 38.58,55.9173324 38.58,56.104 C38.58,56.2773342 38.5366671,56.4453325 38.45,56.608 C38.3633329,56.7706675 38.2386675,56.9153327 38.076,57.042 C37.9133325,57.1686673 37.7146678,57.2699996 37.48,57.346 C37.2453322,57.4220004 36.9800015,57.46 36.684,57.46 C36.3879985,57.46 36.1286678,57.430667 35.906,57.372 C35.6833322,57.313333 35.4986674,57.2346672 35.352,57.136 C35.2053326,57.0373328 35.0953337,56.923334 35.022,56.794 C34.9486663,56.664666 34.912,56.529334 34.912,56.388 C34.912,56.187999 34.9753327,56.0180007 35.102,55.878 C35.2286673,55.7379993 35.4026656,55.6266671 35.624,55.544 C35.5093328,55.4906664 35.4180003,55.4193338 35.35,55.33 C35.2819997,55.2406662 35.248,55.1213341 35.248,54.972 C35.248,54.913333 35.2586666,54.852667 35.28,54.79 C35.3013334,54.727333 35.3339998,54.6653336 35.378,54.604 C35.4220002,54.5426664 35.4759997,54.4840003 35.54,54.428 C35.6040003,54.3719997 35.6786662,54.3226669 35.764,54.28 C35.563999,54.1679994 35.4073339,54.0193343 35.294,53.834 C35.1806661,53.6486657 35.124,53.4320012 35.124,53.184 C35.124,52.9866657 35.1619996,52.8073341 35.238,52.646 C35.3140004,52.4846659 35.4199993,52.3473339 35.556,52.234 C35.6920007,52.1206661 35.8539991,52.0333336 36.042,51.972 C36.2300009,51.9106664 36.4359989,51.88 36.66,51.88 L36.66,51.88 Z M37.924,56.22 C37.924,56.1186662 37.8960003,56.0373336 37.84,55.976 C37.7839997,55.9146664 37.7080005,55.8673335 37.612,55.834 C37.5159995,55.8006665 37.405334,55.7760001 37.28,55.76 C37.154666,55.7439999 37.0226674,55.7326667 36.884,55.726 C36.7453326,55.7193333 36.6040007,55.712 36.46,55.704 C36.3159993,55.696 36.1786673,55.6813334 36.048,55.66 C35.8959992,55.7320004 35.7726671,55.8199995 35.678,55.924 C35.5833329,56.0280005 35.536,56.1519993 35.536,56.296 C35.536,56.3866671 35.5593331,56.4713329 35.606,56.55 C35.6526669,56.6286671 35.7239995,56.6966664 35.82,56.754 C35.9160005,56.8113336 36.0366659,56.8566665 36.182,56.89 C36.3273341,56.9233335 36.4986657,56.94 36.696,56.94 C36.888001,56.94 37.0599992,56.9226668 37.212,56.888 C37.3640008,56.8533332 37.4926661,56.8040003 37.598,56.74 C37.7033339,56.6759997 37.7839997,56.6000004 37.84,56.512 C37.8960003,56.4239996 37.924,56.3266672 37.924,56.22 L37.924,56.22 Z M36.66,54.02 C36.8040007,54.02 36.9313328,54.0000002 37.042,53.96 C37.1526672,53.9199998 37.245333,53.8640004 37.32,53.792 C37.394667,53.7199996 37.4506665,53.6340005 37.488,53.534 C37.5253335,53.4339995 37.544,53.3240006 37.544,53.204 C37.544,52.9559988 37.4686674,52.7586674 37.318,52.612 C37.1673326,52.4653326 36.9480014,52.392 36.66,52.392 C36.3746652,52.392 36.1566674,52.4653326 36.006,52.612 C35.8553326,52.7586674 35.78,52.9559988 35.78,53.204 C35.78,53.3240006 35.7993331,53.4339995 35.838,53.534 C35.8766669,53.6340005 35.933333,53.7199996 36.008,53.792 C36.082667,53.8640004 36.1746661,53.9199998 36.284,53.96 C36.3933339,54.0000002 36.518666,54.02 36.66,54.02 L36.66,54.02 Z M41.024,51.884 C41.3200015,51.884 41.5873321,51.9333328 41.826,52.032 C42.0646679,52.1306672 42.2673325,52.2706658 42.434,52.452 C42.6006675,52.6333342 42.7286662,52.8526654 42.818,53.11 C42.9073338,53.3673346 42.952,53.6546651 42.952,53.972 C42.952,54.2920016 42.9073338,54.5799987 42.818,54.836 C42.7286662,55.0920013 42.6006675,55.3106658 42.434,55.492 C42.2673325,55.6733342 42.0646679,55.8126662 41.826,55.91 C41.5873321,56.0073338 41.3200015,56.056 41.024,56.056 C40.7279985,56.056 40.4606679,56.0073338 40.222,55.91 C39.9833321,55.8126662 39.7800008,55.6733342 39.612,55.492 C39.4439992,55.3106658 39.3146671,55.0920013 39.224,54.836 C39.1333329,54.5799987 39.088,54.2920016 39.088,53.972 C39.088,53.6546651 39.1333329,53.3673346 39.224,53.11 C39.3146671,52.8526654 39.4439992,52.6333342 39.612,52.452 C39.7800008,52.2706658 39.9833321,52.1306672 40.222,52.032 C40.4606679,51.9333328 40.7279985,51.884 41.024,51.884 L41.024,51.884 Z M41.024,55.5 C41.424002,55.5 41.7226657,55.3660013 41.92,55.098 C42.1173343,54.8299987 42.216,54.4560024 42.216,53.976 C42.216,53.4933309 42.1173343,53.1173347 41.92,52.848 C41.7226657,52.5786653 41.424002,52.444 41.024,52.444 C40.8213323,52.444 40.6453341,52.4786663 40.496,52.548 C40.3466659,52.6173337 40.2220005,52.7173327 40.122,52.848 C40.0219995,52.9786673 39.9473336,53.1393324 39.898,53.33 C39.8486664,53.5206676 39.824,53.7359988 39.824,53.976 C39.824,54.2160012 39.8486664,54.4306657 39.898,54.62 C39.9473336,54.8093343 40.0219995,54.968666 40.122,55.098 C40.2220005,55.227334 40.3466659,55.3266663 40.496,55.396 C40.6453341,55.4653337 40.8213323,55.5 41.024,55.5 L41.024,55.5 Z M43.832,56 L43.832,51.948 L44.24,51.948 C44.3173337,51.948 44.3706665,51.9626665 44.4,51.992 C44.4293335,52.0213335 44.4493333,52.0719996 44.46,52.144 L44.508,52.776 C44.6466674,52.4933319 44.817999,52.2726675 45.022,52.114 C45.226001,51.9553325 45.465332,51.876 45.74,51.876 C45.8520006,51.876 45.9533329,51.8886665 46.044,51.914 C46.1346671,51.9393335 46.2186663,51.9746664 46.296,52.02 L46.204,52.552 C46.1853332,52.618667 46.1440003,52.652 46.08,52.652 C46.0426665,52.652 45.9853337,52.6393335 45.908,52.614 C45.8306663,52.5886665 45.7226674,52.576 45.584,52.576 C45.3359988,52.576 45.1286675,52.6479993 44.962,52.792 C44.7953325,52.9360007 44.6560006,53.145332 44.544,53.42 L44.544,56 L43.832,56 Z M48.244,57.196 C48.2199999,57.2493336 48.1900002,57.2919998 48.154,57.324 C48.1179998,57.3560002 48.062667,57.372 47.988,57.372 L47.46,57.372 L48.2,55.764 L46.528,51.948 L47.144,51.948 C47.2053336,51.948 47.2533332,51.9633332 47.288,51.994 C47.3226668,52.0246668 47.3479999,52.0586665 47.364,52.096 L48.448,54.648 C48.4720001,54.706667 48.4926666,54.765333 48.51,54.824 C48.5273334,54.882667 48.5426666,54.9426664 48.556,55.004 C48.5746668,54.9426664 48.5933332,54.882667 48.612,54.824 C48.6306668,54.765333 48.6519999,54.7053336 48.676,54.644 L49.728,52.096 C49.7440001,52.0533331 49.7713331,52.0180001 49.81,51.99 C49.8486669,51.9619999 49.8906664,51.948 49.936,51.948 L50.504,51.948 L48.244,57.196 Z" id="Category" fill="#3498DB" mask="url(#mask-3)"></path>
        </g>
    </g>
</svg>