<?xml version="1.0" encoding="UTF-8" standalone="no"?>
<svg width="70px" height="70px" viewBox="0 0 70 70" version="1.1" xmlns="http://www.w3.org/2000/svg" xmlns:xlink="http://www.w3.org/1999/xlink">
    <!-- Generator: Sketch 39.1 (31720) - http://www.bohemiancoding.com/sketch -->
    <title>category-box-label</title>
    <desc>Created with Sketch.</desc>
    <defs>
        <rect id="path-1" x="0" y="0" width="70" height="70" rx="4"></rect>
        <mask id="mask-2" maskContentUnits="userSpaceOnUse" maskUnits="objectBoundingBox" x="0" y="0" width="70" height="70" fill="white">
            <use xlink:href="#path-1"></use>
        </mask>
        <mask id="mask-4" maskContentUnits="userSpaceOnUse" maskUnits="objectBoundingBox" x="0" y="0" width="70" height="70" fill="white">
            <use xlink:href="#path-1"></use>
        </mask>
        <rect id="path-5" x="10" y="0" width="50.7281105" height="61.46"></rect>
        <mask id="mask-6" maskContentUnits="userSpaceOnUse" maskUnits="objectBoundingBox" x="0" y="0" width="50.7281105" height="61.46" fill="white">
            <use xlink:href="#path-5"></use>
        </mask>
        <rect id="path-7" x="17" y="42.204" width="36" height="11.796"></rect>
        <mask id="mask-8" maskContentUnits="userSpaceOnUse" maskUnits="objectBoundingBox" x="0" y="0" width="36" height="11.796" fill="white">
            <use xlink:href="#path-7"></use>
        </mask>
    </defs>
    <g id="Page-1" stroke="none" stroke-width="1" fill="none" fill-rule="evenodd">
        <g id="category-box-label">
            <mask id="mask-3" fill="white">
                <use xlink:href="#path-1"></use>
            </mask>
            <g id="Mask" stroke="#3498DB" mask="url(#mask-2)" stroke-width="2" fill-opacity="0.01" fill="#00A0D2">
                <use mask="url(#mask-4)" xlink:href="#path-1"></use>
            </g>
            <g id="Rectangle-5" mask="url(#mask-3)" stroke="#3498DB" stroke-width="2" fill="#3498DB" fill-opacity="0.127858922">
                <use mask="url(#mask-6)" xlink:href="#path-5"></use>
            </g>
            <g id="Rectangle-5" mask="url(#mask-3)" stroke="#3498DB" stroke-width="2" fill="#FFFFFF" fill-opacity="0.639605978">
                <use mask="url(#mask-8)" xlink:href="#path-7"></use>
            </g>
            <path d="M25.1228372,49.169769 C25.1595257,49.169769 25.192774,49.1846735 25.2225834,49.2144828 L25.4839871,49.4999632 C25.2822007,49.7338518 25.0374239,49.9161447 24.7496491,50.0468472 C24.4618743,50.1775497 24.1150593,50.2429 23.7091936,50.2429 C23.3537746,50.2429 23.0316092,50.1815624 22.7426879,50.0588855 C22.4537666,49.9362086 22.20727,49.7642342 22.0031906,49.5429572 C21.7991113,49.3216802 21.6408949,49.0562664 21.5285366,48.7467078 C21.4161783,48.4371493 21.36,48.09664 21.36,47.7251697 C21.36,47.3536995 21.420191,47.0131902 21.5405749,46.7036317 C21.6609588,46.3940731 21.8300669,46.1280861 22.0479044,45.9056625 C22.2657419,45.683239 22.5265697,45.5106913 22.8303957,45.3880144 C23.1342217,45.2653375 23.4695718,45.204 23.8364559,45.204 C24.1987541,45.204 24.5111742,45.2601783 24.7737257,45.3725366 C25.0362772,45.4848949 25.2695892,45.6373788 25.4736685,45.829993 L25.2569786,46.1361105 C25.2409274,46.1590408 25.2225835,46.1779579 25.2019462,46.1928626 C25.181309,46.2077673 25.1515001,46.2152195 25.1125187,46.2152195 C25.0827093,46.2152195 25.0511807,46.2043278 25.0179318,46.1825441 C24.9846829,46.1607603 24.9451288,46.1338176 24.8992683,46.1017153 C24.8534078,46.0696129 24.7995225,46.035218 24.7376108,45.9985296 C24.675699,45.9618412 24.6023233,45.9274463 24.5174813,45.895344 C24.4326394,45.8632416 24.3340407,45.8362989 24.2216824,45.8145152 C24.1093241,45.7927314 23.9797701,45.7818397 23.8330164,45.7818397 C23.5693184,45.7818397 23.327981,45.8271263 23.108997,45.9177008 C22.890013,46.0082754 22.7014144,46.1372562 22.5431956,46.3046471 C22.3849768,46.472038 22.2617285,46.6761143 22.173447,46.916882 C22.0851655,47.1576498 22.0410254,47.4270763 22.0410254,47.7251697 C22.0410254,48.0324353 22.0851655,48.3064478 22.173447,48.5472155 C22.2617285,48.7879833 22.3821106,48.9914863 22.5345968,49.1577307 C22.6870831,49.3239751 22.8676562,49.4506629 23.0763216,49.5377979 C23.2849869,49.6249329 23.5097001,49.6684998 23.7504679,49.6684998 C23.8972216,49.6684998 24.0290686,49.659901 24.1460129,49.6427033 C24.2629573,49.6255056 24.3713011,49.598563 24.4710478,49.5618746 C24.5707944,49.5251861 24.6636606,49.4787531 24.7496491,49.4225739 C24.8356376,49.3663948 24.922198,49.2993248 25.009333,49.2213619 C25.0483144,49.1869665 25.0861488,49.169769 25.1228372,49.169769 L25.1228372,49.169769 Z M28.8237631,50.1878676 L28.5520408,50.1878676 C28.4924221,50.1878676 28.4442693,50.1786956 28.4075809,50.1603514 C28.3708925,50.1420072 28.3468161,50.1030263 28.3353509,50.0434077 L28.2665605,49.7200926 C28.1748394,49.8026415 28.0854127,49.8765905 27.9982778,49.9419418 C27.9111428,50.007293 27.8194231,50.0623248 27.723116,50.1070388 C27.6268089,50.1517528 27.5241975,50.1855745 27.4152787,50.2085047 C27.30636,50.231435 27.1854047,50.2429 27.0524092,50.2429 C26.9171206,50.2429 26.7904328,50.2239828 26.672342,50.1861478 C26.5542511,50.1483129 26.4516397,50.0915614 26.3645047,50.0158915 C26.2773697,49.9402216 26.2080067,49.8444892 26.1564136,49.7286914 C26.1048205,49.6128936 26.0790244,49.4758873 26.0790244,49.3176685 C26.0790244,49.1800869 26.1168588,49.0476666 26.1925286,48.9204037 C26.2681985,48.7931407 26.3903003,48.6802109 26.5588377,48.5816108 C26.7273752,48.4830106 26.9480756,48.4021827 27.2209457,48.3391244 C27.4938159,48.2760662 27.8274462,48.2399516 28.2218467,48.2307795 L28.2218467,47.9590572 C28.2218467,47.6884801 28.1639486,47.4838306 28.0481508,47.3451025 C27.932353,47.2063745 27.7609519,47.1370114 27.5339423,47.1370114 C27.3848956,47.1370114 27.2593543,47.1559286 27.1573146,47.1937636 C27.0552749,47.2315985 26.9669947,47.2740188 26.8924714,47.3210259 C26.817948,47.3680329 26.7537443,47.4104533 26.6998581,47.4482882 C26.645972,47.4861231 26.59266,47.5050403 26.5399204,47.5050403 C26.4986459,47.5050403 26.4625313,47.4941486 26.4315754,47.4723649 C26.4006196,47.4505811 26.3759699,47.4236385 26.3576257,47.3915361 L26.247561,47.1954833 C26.4401752,47.0097482 26.6476909,46.8710222 26.8701145,46.7793011 C27.092538,46.6875801 27.3390347,46.6417203 27.6096117,46.6417203 C27.804519,46.6417203 27.9776399,46.6738221 28.1289796,46.7380269 C28.2803193,46.8022316 28.4075804,46.8916583 28.5107666,47.0063096 C28.6139527,47.1209609 28.6919145,47.2596869 28.7446541,47.4224918 C28.7973937,47.5852966 28.8237631,47.76415 28.8237631,47.9590572 L28.8237631,50.1878676 Z M27.2347038,49.8129597 C27.3424761,49.8129597 27.4410747,49.802068 27.5305027,49.7802842 C27.6199308,49.7585005 27.7041982,49.7275451 27.7833076,49.6874171 C27.862417,49.6472892 27.9380858,49.5985631 28.0103161,49.5412374 C28.0825464,49.4839118 28.1530559,49.4185615 28.2218467,49.3451847 L28.2218467,48.6194455 C27.9398045,48.6286176 27.7001868,48.6509743 27.5029866,48.6865162 C27.3057863,48.7220581 27.1452769,48.7684912 27.0214535,48.8258168 C26.89763,48.8831425 26.8076301,48.9507857 26.751451,49.0287486 C26.6952718,49.1067115 26.6671827,49.1938452 26.6671827,49.2901523 C26.6671827,49.3818734 26.6820871,49.4609816 26.7118965,49.5274793 C26.7417058,49.5939771 26.7818332,49.6484357 26.8322797,49.6908566 C26.8827263,49.7332776 26.9423441,49.764233 27.0111349,49.7837237 C27.0799257,49.8032145 27.1544479,49.8129597 27.2347038,49.8129597 L27.2347038,49.8129597 Z M30.8083673,50.2429 C30.5332042,50.2429 30.3216757,50.1660847 30.1737755,50.012452 C30.0258753,49.8588192 29.9519263,49.6375455 29.9519263,49.3486242 L29.9519263,47.2161205 L29.5323046,47.2161205 C29.4956162,47.2161205 29.4646608,47.2052287 29.4394375,47.183445 C29.4142142,47.1616612 29.4016028,47.1278396 29.4016028,47.0819791 L29.4016028,46.837773 L29.9725635,46.7655431 L30.1135839,45.6889726 C30.1181699,45.6545772 30.1330744,45.6264881 30.1582977,45.6047043 C30.1835209,45.5829206 30.2156228,45.5720289 30.2546043,45.5720289 L30.5641613,45.5720289 L30.5641613,46.7724221 L31.5616227,46.7724221 L31.5616227,47.2161205 L30.5641613,47.2161205 L30.5641613,49.3073499 C30.5641613,49.4541036 30.5997026,49.5630207 30.6707865,49.6341045 C30.7418703,49.7051883 30.8335899,49.7407297 30.9459482,49.7407297 C31.010153,49.7407297 31.065758,49.732131 31.1127651,49.7149333 C31.1597721,49.6977356 31.2004727,49.6788184 31.2348681,49.6581812 C31.2692635,49.6375439 31.2984991,49.6186268 31.3225759,49.6014291 C31.3466527,49.5842314 31.3678629,49.5756327 31.3862071,49.5756327 C31.4183094,49.5756327 31.4469718,49.5951231 31.4721951,49.6341045 L31.6510503,49.9264639 C31.5455711,50.025064 31.41831,50.1024525 31.2692633,50.1586317 C31.1202166,50.2148108 30.9665862,50.2429 30.8083673,50.2429 L30.8083673,50.2429 Z M33.697566,46.6485993 C33.9062313,46.6485993 34.0988427,46.6835674 34.2754057,46.7535047 C34.4519687,46.823442 34.6044527,46.9243337 34.7328621,47.0561827 C34.8612716,47.1880317 34.96159,47.3508341 35.0338203,47.5445948 C35.1060506,47.7383555 35.1421653,47.959056 35.1421653,48.2067028 C35.1421653,48.3030099 35.1318468,48.3672137 35.1112096,48.3993161 C35.0905723,48.4314184 35.0515915,48.4474694 34.9942658,48.4474694 L32.6760279,48.4474694 C32.6806139,48.6675999 32.7104228,48.8590647 32.7654555,49.0218696 C32.8204881,49.1846744 32.8961568,49.3205342 32.9924639,49.429453 C33.088771,49.5383717 33.2034206,49.6197729 33.3364161,49.673659 C33.4694116,49.7275452 33.6184561,49.7544878 33.783554,49.7544878 C33.9371868,49.7544878 34.069607,49.7367171 34.1808188,49.7011752 C34.2920306,49.6656333 34.387763,49.6272257 34.4680189,49.5859512 C34.5482748,49.5446767 34.6153448,49.5062691 34.669231,49.4707272 C34.7231171,49.4351853 34.7695502,49.4174146 34.8085316,49.4174146 C34.8589782,49.4174146 34.897959,49.4369051 34.9254754,49.4758865 L35.0974515,49.6994555 C35.0217816,49.7911765 34.9312084,49.870858 34.8257292,49.9385022 C34.72025,50.0061465 34.6073202,50.0617516 34.4869363,50.1053191 C34.3665524,50.1488866 34.2421576,50.1815617 34.1137481,50.2033454 C33.9853387,50.2251292 33.8580776,50.2360209 33.7319612,50.2360209 C33.4911934,50.2360209 33.2693465,50.1953203 33.0664136,50.1139179 C32.8634808,50.0325154 32.6880669,49.9132799 32.5401667,49.7562076 C32.3922666,49.5991353 32.2770437,49.4048042 32.1944948,49.1732086 C32.1119458,48.9416129 32.070672,48.6756259 32.070672,48.3752394 C32.070672,48.1321786 32.1079331,47.9051725 32.1824564,47.694214 C32.2569798,47.4832556 32.3641772,47.3003895 32.5040518,47.1456103 C32.6439264,46.990831 32.8147543,46.8693024 33.0165406,46.7810209 C33.2183269,46.6927394 33.4453331,46.6485993 33.697566,46.6485993 L33.697566,46.6485993 Z M33.711324,47.0991767 C33.4155237,47.0991767 33.182785,47.1845907 33.013101,47.3554211 C32.8434171,47.5262516 32.7379395,47.763003 32.696665,48.0656824 L34.5918417,48.0656824 C34.5918417,47.9235148 34.5723513,47.7933875 34.5333698,47.6752967 C34.4943884,47.5572058 34.4370636,47.4551677 34.3613937,47.3691792 C34.2857239,47.2831907 34.1934309,47.2166939 34.0845122,47.1696869 C33.9755934,47.1226799 33.8511986,47.0991767 33.711324,47.0991767 L33.711324,47.0991767 Z M37.0958138,46.6451598 C37.2471536,46.6451598 37.3887458,46.661784 37.5205948,46.6950329 C37.6524438,46.7282817 37.7722527,46.7770078 37.8800249,46.8412125 L38.8258935,46.8412125 L38.8258935,47.068221 C38.8258935,47.1438909 38.7777407,47.1920437 38.6814335,47.2126809 L38.2858885,47.2677133 C38.3638514,47.41676 38.4028323,47.5830019 38.4028323,47.766444 C38.4028323,47.9361279 38.3701571,48.0903316 38.3048059,48.2290597 C38.2394546,48.3677878 38.1488814,48.4864501 38.0330836,48.5850503 C37.9172858,48.6836504 37.7797063,48.7593191 37.620341,48.8120587 C37.4609756,48.8647983 37.286135,48.8911677 37.0958138,48.8911677 C36.933009,48.8911677 36.7793785,48.8716773 36.6349179,48.8326959 C36.561541,48.8785564 36.505936,48.9278557 36.468101,48.9805953 C36.4302661,49.0333349 36.4113489,49.0849272 36.4113489,49.1353738 C36.4113489,49.2179228 36.4445973,49.2804068 36.5110951,49.3228278 C36.5775928,49.3652488 36.665873,49.3956309 36.7759383,49.4139751 C36.8860035,49.4323193 37.0109716,49.4437843 37.1508462,49.4483703 C37.2907208,49.4529564 37.4334595,49.4604086 37.5790667,49.4707272 C37.7246739,49.4810458 37.8674126,49.4988165 38.0072872,49.5240398 C38.1471618,49.5492631 38.2721299,49.590537 38.3821951,49.6478626 C38.4922604,49.7051883 38.5805406,49.7842965 38.6470383,49.8851896 C38.7135361,49.9860828 38.7467845,50.1167833 38.7467845,50.2772952 C38.7467845,50.4263419 38.7095234,50.5708004 38.635,50.710675 C38.5604766,50.8505496 38.4532793,50.9749444 38.3134047,51.0838631 C38.1735301,51.1927819 38.0027022,51.2799156 37.8009159,51.3452668 C37.5991296,51.410618 37.3709769,51.4432932 37.116451,51.4432932 C36.8619251,51.4432932 36.6389316,51.4180703 36.4474639,51.3676237 C36.2559962,51.3171771 36.0972065,51.2495339 35.9710901,51.1646919 C35.8449737,51.0798499 35.7503877,50.9818245 35.6873295,50.8706127 C35.6242713,50.759401 35.5927427,50.6430316 35.5927427,50.5215012 C35.5927427,50.3495243 35.6472012,50.203346 35.75612,50.0829622 C35.8650387,49.9625783 36.0146564,49.8668459 36.2049776,49.7957621 C36.1063775,49.7499015 36.0278425,49.688564 35.9693703,49.6117476 C35.9108982,49.5349313 35.8816625,49.4323199 35.8816625,49.3039104 C35.8816625,49.2534638 35.8908345,49.2012983 35.9091787,49.1474121 C35.9275229,49.093526 35.9556121,49.040214 35.993447,48.9874744 C36.0312819,48.9347348 36.077715,48.8842889 36.1327476,48.8361354 C36.1877803,48.7879818 36.251984,48.7455615 36.3253609,48.7088731 C36.1533839,48.612566 36.0186706,48.4847317 35.921217,48.3253664 C35.8237634,48.166001 35.7750373,47.9796954 35.7750373,47.766444 C35.7750373,47.5967601 35.8077125,47.4425564 35.8730637,47.3038283 C35.938415,47.1651002 36.0295614,47.0470111 36.1465057,46.9495575 C36.2634501,46.8521039 36.4027493,46.7770084 36.5644077,46.7242688 C36.726066,46.6715292 36.9031996,46.6451598 37.0958138,46.6451598 L37.0958138,46.6451598 Z M38.1827028,50.3770413 C38.1827028,50.2899063 38.1586264,50.2199701 38.1104729,50.1672305 C38.0623193,50.1144909 37.9969691,50.0737903 37.9144201,50.0451274 C37.8318712,50.0164646 37.736712,49.9952544 37.6289398,49.9814963 C37.5211675,49.9677381 37.4076644,49.9579929 37.2884271,49.9522603 C37.1691897,49.9465278 37.0476611,49.940222 36.9238377,49.933343 C36.8000143,49.9264639 36.6819252,49.9138524 36.5695669,49.8955082 C36.4388645,49.9574199 36.3328136,50.0330887 36.2514111,50.1225167 C36.1700087,50.2119447 36.1293081,50.3185688 36.1293081,50.4423922 C36.1293081,50.5203551 36.1493718,50.5931576 36.1894998,50.6608019 C36.2296277,50.7284462 36.2909652,50.7869175 36.3735142,50.8362175 C36.4560631,50.8855176 36.559821,50.9244984 36.6847909,50.9531613 C36.8097609,50.9818241 36.9570856,50.9961553 37.1267695,50.9961553 C37.2918674,50.9961553 37.4397654,50.9812509 37.5704679,50.9514415 C37.7011704,50.9216322 37.8118072,50.8792118 37.9023818,50.8241792 C37.9929563,50.7691466 38.0623193,50.7037963 38.1104729,50.6281264 C38.1586264,50.5524566 38.1827028,50.4687624 38.1827028,50.3770413 L38.1827028,50.3770413 Z M37.0958138,48.4853041 C37.2196373,48.4853041 37.3291276,48.4681067 37.4242882,48.4337113 C37.5194488,48.3993159 37.5991303,48.3511631 37.663335,48.2892514 C37.7275397,48.2273397 37.7756926,48.1533907 37.8077949,48.0674022 C37.8398973,47.9814137 37.8559482,47.8868278 37.8559482,47.7836416 C37.8559482,47.5703902 37.7911712,47.4007088 37.6616152,47.2745923 C37.5320592,47.1484759 37.3434607,47.0854186 37.0958138,47.0854186 C36.85046,47.0854186 36.6630079,47.1484759 36.533452,47.2745923 C36.403896,47.4007088 36.339119,47.5703902 36.339119,47.7836416 C36.339119,47.8868278 36.3557432,47.9814137 36.388992,48.0674022 C36.4222409,48.1533907 36.470967,48.2273397 36.5351717,48.2892514 C36.5993765,48.3511631 36.6784847,48.3993159 36.7724988,48.4337113 C36.8665128,48.4681067 36.9742834,48.4853041 37.0958138,48.4853041 L37.0958138,48.4853041 Z M40.8483325,46.6485993 C41.1028584,46.6485993 41.3327308,46.6910197 41.5379567,46.7758616 C41.7431825,46.8607036 41.9174499,46.9810857 42.0607641,47.1370114 C42.2040782,47.2929372 42.3141418,47.4815358 42.3909582,47.7028128 C42.4677746,47.9240899 42.5061822,48.1711597 42.5061822,48.4440299 C42.5061822,48.719193 42.4677746,48.9668361 42.3909582,49.1869667 C42.3141418,49.4070972 42.2040782,49.5951225 42.0607641,49.7510483 C41.9174499,49.9069741 41.7431825,50.0267829 41.5379567,50.1104783 C41.3327308,50.1941738 41.1028584,50.2360209 40.8483325,50.2360209 C40.5938066,50.2360209 40.3639342,50.1941738 40.1587083,50.1104783 C39.9534825,50.0267829 39.7786418,49.9069741 39.6341812,49.7510483 C39.4897205,49.5951225 39.3785104,49.4070972 39.3005475,49.1869667 C39.2225846,48.9668361 39.1836038,48.719193 39.1836038,48.4440299 C39.1836038,48.1711597 39.2225846,47.9240899 39.3005475,47.7028128 C39.3785104,47.4815358 39.4897205,47.2929372 39.6341812,47.1370114 C39.7786418,46.9810857 39.9534825,46.8607036 40.1587083,46.7758616 C40.3639342,46.6910197 40.5938066,46.6485993 40.8483325,46.6485993 L40.8483325,46.6485993 Z M40.8483325,49.7579273 C41.1922864,49.7579273 41.4491015,49.6427045 41.6187855,49.4122554 C41.7884694,49.1818062 41.8733101,48.8602141 41.8733101,48.4474694 C41.8733101,48.0324316 41.7884694,47.7091198 41.6187855,47.4775241 C41.4491015,47.2459285 41.1922864,47.1301324 40.8483325,47.1301324 C40.6740625,47.1301324 40.522725,47.1599413 40.3943156,47.21956 C40.2659061,47.2791787 40.1587087,47.3651659 40.0727203,47.4775241 C39.9867318,47.5898824 39.922528,47.7280352 39.880107,47.8919866 C39.837686,48.0559379 39.8164759,48.241097 39.8164759,48.4474694 C39.8164759,48.6538417 39.837686,48.8384276 39.880107,49.0012325 C39.922528,49.1640373 39.9867318,49.3010436 40.0727203,49.4122554 C40.1587087,49.5234671 40.2659061,49.6088811 40.3943156,49.6684998 C40.522725,49.7281184 40.6740625,49.7579273 40.8483325,49.7579273 L40.8483325,49.7579273 Z M43.2628771,50.1878676 L43.2628771,46.7036317 L43.6137083,46.7036317 C43.6802061,46.7036317 43.7260659,46.7162431 43.7512892,46.7414664 C43.7765125,46.7666897 43.7937099,46.8102565 43.802882,46.8721682 L43.8441563,47.4156127 C43.9633937,47.172552 44.1107184,46.9828069 44.2861349,46.8463718 C44.4615514,46.7099368 44.6673474,46.6417203 44.9035291,46.6417203 C44.9998362,46.6417203 45.0869699,46.652612 45.1649328,46.6743957 C45.2428957,46.6961795 45.3151249,46.7265616 45.3816227,46.7655431 L45.3025137,47.2229995 C45.2864625,47.2803252 45.2509211,47.3089876 45.1958885,47.3089876 C45.1637861,47.3089876 45.1144868,47.2980958 45.047989,47.2763121 C44.9814913,47.2545283 44.8886251,47.2436366 44.7693878,47.2436366 C44.5561363,47.2436366 44.3778562,47.3055474 44.2345421,47.4293708 C44.0912279,47.5531942 43.9714191,47.7331941 43.875112,47.9693758 L43.875112,50.1878676 L43.2628771,50.1878676 Z M47.05667,51.2162847 C47.0360327,51.2621452 47.0102366,51.2988331 46.9792807,51.3263494 C46.9483249,51.3538657 46.9007453,51.3676237 46.8365406,51.3676237 L46.3825236,51.3676237 L47.0188352,49.9849358 L45.581115,46.7036317 L46.1108014,46.7036317 C46.163541,46.7036317 46.2048149,46.7168164 46.2346242,46.7431862 C46.2644335,46.769556 46.286217,46.7987916 46.2999751,46.830894 L47.2320856,49.0253091 C47.2527229,49.0757557 47.2704935,49.1262015 47.2853982,49.1766481 C47.3003029,49.2270947 47.3134876,49.278687 47.3249527,49.3314266 C47.3410039,49.278687 47.3570548,49.2270947 47.373106,49.1766481 C47.3891572,49.1262015 47.4075011,49.0746092 47.4281384,49.0218696 L48.3327327,46.830894 C48.3464909,46.7942056 48.369994,46.7638234 48.4032429,46.7397466 C48.4364918,46.7156699 48.4726064,46.7036317 48.5115879,46.7036317 L49,46.7036317 L47.05667,51.2162847 Z" id="Category" fill="#3498DB" mask="url(#mask-3)"></path>
        </g>
    </g>
</svg>