<?xml version="1.0" encoding="UTF-8" standalone="no"?>
<svg width="70px" height="51px" viewBox="0 0 70 51" version="1.1" xmlns="http://www.w3.org/2000/svg" xmlns:xlink="http://www.w3.org/1999/xlink">
    <!-- Generator: Sketch 3.7.2 (28276) - http://www.bohemiancoding.com/sketch -->
    <title>category-title-featured-center</title>
    <desc>Created with Sketch.</desc>
    <defs>
        <rect id="path-1" x="1.13686838e-13" y="0" width="70" height="50" rx="4"></rect>
        <mask id="mask-2" maskContentUnits="userSpaceOnUse" maskUnits="objectBoundingBox" x="0" y="0" width="70" height="50" fill="white">
            <use xlink:href="#path-1"></use>
        </mask>
        <mask id="mask-4" maskContentUnits="userSpaceOnUse" maskUnits="objectBoundingBox" x="0" y="0" width="70" height="50" fill="white">
            <use xlink:href="#path-1"></use>
        </mask>
    </defs>
    <g id="Page-1" stroke="none" stroke-width="1" fill="none" fill-rule="evenodd">
        <g id="category-title-featured-center" transform="translate(0.000000, 0.855750)">
            <mask id="mask-3" fill="white">
                <use xlink:href="#path-1"></use>
            </mask>
            <g id="Mask" stroke="#3498DB" mask="url(#mask-2)" stroke-width="2" fill-opacity="0.01" fill="#00A0D2">
                <use mask="url(#mask-4)" xlink:href="#path-1"></use>
            </g>
            <rect id="Rectangle-502" fill="#3498DB" mask="url(#mask-3)" x="1.13686838e-13" y="-7" width="70" height="29"></rect>
            <rect id="Rectangle-502" fill="#3498DB" opacity="0.2" mask="url(#mask-3)" x="4" y="26" width="62" height="54"></rect>
            <path d="M18,10.1030097 L18,14.4294182 L18.5756426,14.4294182 L18.5756426,12.4479958 L20.8539753,12.4479958 L20.8539753,14.4294182 L21.4296179,14.4294182 L21.4296179,10.1030097 L20.8539753,10.1030097 L20.8539753,11.9632442 L18.5756426,11.9632442 L18.5756426,10.1030097 L18,10.1030097 Z M22.7081504,12.266214 C22.7081504,12.0480746 22.7364273,11.8329682 22.7929819,11.6208883 C22.8495366,11.4088084 22.9384068,11.2179394 23.0595953,11.0482754 C23.1807839,10.8786115 23.3363068,10.7422765 23.5261688,10.6392662 C23.7160308,10.536256 23.942246,10.4847516 24.2048211,10.4847516 C24.4673962,10.4847516 24.6936114,10.536256 24.8834734,10.6392662 C25.0733354,10.7422765 25.2288584,10.8786115 25.3500469,11.0482754 C25.4712354,11.2179394 25.5601057,11.4088084 25.6166603,11.6208883 C25.6732149,11.8329682 25.7014918,12.0480746 25.7014918,12.266214 C25.7014918,12.4843533 25.6732149,12.6994597 25.6166603,12.9115396 C25.5601057,13.1236195 25.4712354,13.3144886 25.3500469,13.4841525 C25.2288584,13.6538164 25.0733354,13.7901514 24.8834734,13.8931617 C24.6936114,13.9961719 24.4673962,14.0476763 24.2048211,14.0476763 C23.942246,14.0476763 23.7160308,13.9961719 23.5261688,13.8931617 C23.3363068,13.7901514 23.1807839,13.6538164 23.0595953,13.4841525 C22.9384068,13.3144886 22.8495366,13.1236195 22.7929819,12.9115396 C22.7364273,12.6994597 22.7081504,12.4843533 22.7081504,12.266214 L22.7081504,12.266214 Z M22.1325078,12.266214 C22.1325078,12.561106 22.175933,12.8448849 22.2627848,13.117559 C22.3496366,13.3902332 22.4799123,13.6315967 22.6536158,13.8416568 C22.8273194,14.0517169 23.0434357,14.2183486 23.3019712,14.341557 C23.5605067,14.4647653 23.8614536,14.5263685 24.2048211,14.5263685 C24.5481886,14.5263685 24.8491356,14.4647653 25.1076711,14.341557 C25.3662066,14.2183486 25.5823229,14.0517169 25.7560264,13.8416568 C25.9297299,13.6315967 26.0600056,13.3902332 26.1468574,13.117559 C26.2337092,12.8448849 26.2771344,12.561106 26.2771344,12.266214 C26.2771344,11.9713219 26.2337092,11.687543 26.1468574,11.4148689 C26.0600056,11.1421947 25.9297299,10.9008312 25.7560264,10.6907711 C25.5823229,10.480711 25.3662066,10.3130694 25.1076711,10.1878413 C24.8491356,10.0626131 24.5481886,10 24.2048211,10 C23.8614536,10 23.5605067,10.0626131 23.3019712,10.1878413 C23.0434357,10.3130694 22.8273194,10.480711 22.6536158,10.6907711 C22.4799123,10.9008312 22.3496366,11.1421947 22.2627848,11.4148689 C22.175933,11.687543 22.1325078,11.9713219 22.1325078,12.266214 L22.1325078,12.266214 Z M26.9921431,10.1030097 L26.9921431,14.4294182 L27.5374887,14.4294182 L27.5374887,10.8301372 L27.5496075,10.8301372 L28.9008527,14.4294182 L29.3916638,14.4294182 L30.742909,10.8301372 L30.7550278,10.8301372 L30.7550278,14.4294182 L31.3003734,14.4294182 L31.3003734,10.1030097 L30.512652,10.1030097 L29.1432286,13.7386471 L27.7798645,10.1030097 L26.9921431,10.1030097 Z M32.2577579,10.1030097 L32.2577579,14.4294182 L35.2632181,14.4294182 L35.2632181,13.9446666 L32.8334005,13.9446666 L32.8334005,12.4479958 L35.0814363,12.4479958 L35.0814363,11.9632442 L32.8334005,11.9632442 L32.8334005,10.5877614 L35.2450399,10.5877614 L35.2450399,10.1030097 L32.2577579,10.1030097 Z M38.8564397,10 L37.068918,14.5263685 L37.5051945,14.5263685 L39.2987756,10 L38.8564397,10 Z M41.3407919,10.1030097 L41.3407919,14.4294182 L41.8861375,14.4294182 L41.8861375,10.9573845 L41.8982563,10.9573845 L44.1584109,14.4294182 L44.7885881,14.4294182 L44.7885881,10.1030097 L44.2432424,10.1030097 L44.2432424,13.6113998 L44.2311237,13.6113998 L41.9527909,10.1030097 L41.3407919,10.1030097 Z M46.4670406,12.6418965 L47.2002275,10.6241177 L47.2123463,10.6241177 L47.9334144,12.6418965 L46.4670406,12.6418965 Z M46.8972577,10.1030097 L45.2127457,14.4294182 L45.8005071,14.4294182 L46.2852588,13.1266481 L48.1151962,13.1266481 L48.5878291,14.4294182 L49.2240656,14.4294182 L47.5334943,10.1030097 L46.8972577,10.1030097 Z M51.3509135,14.4294182 L52.89,10.1030097 L52.2901198,10.1030097 L51.0418843,13.8537756 L51.0297655,13.8537756 L49.7936488,10.1030097 L49.1755905,10.1030097 L50.6964988,14.4294182 L51.3509135,14.4294182 Z" id="HOME-/-NAV" fill="#FFFFFF" mask="url(#mask-3)"></path>
        </g>
    </g>
</svg>