<?xml version="1.0" encoding="UTF-8" standalone="no"?>
<svg width="70px" height="51px" viewBox="0 0 70 51" version="1.1" xmlns="http://www.w3.org/2000/svg" xmlns:xlink="http://www.w3.org/1999/xlink">
    <!-- Generator: Sketch 3.7.2 (28276) - http://www.bohemiancoding.com/sketch -->
    <title>category-featured-title</title>
    <desc>Created with Sketch.</desc>
    <defs>
        <rect id="path-1" x="0" y="0" width="70" height="50" rx="4"></rect>
        <mask id="mask-2" maskContentUnits="userSpaceOnUse" maskUnits="objectBoundingBox" x="0" y="0" width="70" height="50" fill="white">
            <use xlink:href="#path-1"></use>
        </mask>
        <mask id="mask-4" maskContentUnits="userSpaceOnUse" maskUnits="objectBoundingBox" x="0" y="0" width="70" height="50" fill="white">
            <use xlink:href="#path-1"></use>
        </mask>
    </defs>
    <g id="Page-1" stroke="none" stroke-width="1" fill="none" fill-rule="evenodd">
        <g id="category-featured-title" transform="translate(0.000000, 0.767750)">
            <mask id="mask-3" fill="white">
                <use xlink:href="#path-1"></use>
            </mask>
            <g id="Mask" stroke="#3498DB" mask="url(#mask-2)" stroke-width="2" fill-opacity="0.01" fill="#00A0D2">
                <use mask="url(#mask-4)" xlink:href="#path-1"></use>
            </g>
            <rect id="Rectangle-502" fill="#3498DB" mask="url(#mask-3)" x="0" y="-2" width="70" height="29"></rect>
            <text id="Title" mask="url(#mask-3)" font-family="HelveticaNeue-Bold, Helvetica Neue" font-size="10" font-weight="bold" fill="#FFFFFF">
                <tspan x="6.235" y="13">Title</tspan>
            </text>
            <rect id="Rectangle-502" fill="#3498DB" opacity="0.2" mask="url(#mask-3)" x="6" y="33" width="76" height="54"></rect>
            <path d="M7,17.1030097 L7,21.4294182 L7.57564258,21.4294182 L7.57564258,19.4479958 L9.85397534,19.4479958 L9.85397534,21.4294182 L10.4296179,21.4294182 L10.4296179,17.1030097 L9.85397534,17.1030097 L9.85397534,18.9632442 L7.57564258,18.9632442 L7.57564258,17.1030097 L7,17.1030097 Z M11.7081504,19.266214 C11.7081504,19.0480746 11.7364273,18.8329682 11.7929819,18.6208883 C11.8495366,18.4088084 11.9384068,18.2179394 12.0595953,18.0482754 C12.1807839,17.8786115 12.3363068,17.7422765 12.5261688,17.6392662 C12.7160308,17.536256 12.942246,17.4847516 13.2048211,17.4847516 C13.4673962,17.4847516 13.6936114,17.536256 13.8834734,17.6392662 C14.0733354,17.7422765 14.2288584,17.8786115 14.3500469,18.0482754 C14.4712354,18.2179394 14.5601057,18.4088084 14.6166603,18.6208883 C14.6732149,18.8329682 14.7014918,19.0480746 14.7014918,19.266214 C14.7014918,19.4843533 14.6732149,19.6994597 14.6166603,19.9115396 C14.5601057,20.1236195 14.4712354,20.3144886 14.3500469,20.4841525 C14.2288584,20.6538164 14.0733354,20.7901514 13.8834734,20.8931617 C13.6936114,20.9961719 13.4673962,21.0476763 13.2048211,21.0476763 C12.942246,21.0476763 12.7160308,20.9961719 12.5261688,20.8931617 C12.3363068,20.7901514 12.1807839,20.6538164 12.0595953,20.4841525 C11.9384068,20.3144886 11.8495366,20.1236195 11.7929819,19.9115396 C11.7364273,19.6994597 11.7081504,19.4843533 11.7081504,19.266214 L11.7081504,19.266214 Z M11.1325078,19.266214 C11.1325078,19.561106 11.175933,19.8448849 11.2627848,20.117559 C11.3496366,20.3902332 11.4799123,20.6315967 11.6536158,20.8416568 C11.8273194,21.0517169 12.0434357,21.2183486 12.3019712,21.341557 C12.5605067,21.4647653 12.8614536,21.5263685 13.2048211,21.5263685 C13.5481886,21.5263685 13.8491356,21.4647653 14.1076711,21.341557 C14.3662066,21.2183486 14.5823229,21.0517169 14.7560264,20.8416568 C14.9297299,20.6315967 15.0600056,20.3902332 15.1468574,20.117559 C15.2337092,19.8448849 15.2771344,19.561106 15.2771344,19.266214 C15.2771344,18.9713219 15.2337092,18.687543 15.1468574,18.4148689 C15.0600056,18.1421947 14.9297299,17.9008312 14.7560264,17.6907711 C14.5823229,17.480711 14.3662066,17.3130694 14.1076711,17.1878413 C13.8491356,17.0626131 13.5481886,17 13.2048211,17 C12.8614536,17 12.5605067,17.0626131 12.3019712,17.1878413 C12.0434357,17.3130694 11.8273194,17.480711 11.6536158,17.6907711 C11.4799123,17.9008312 11.3496366,18.1421947 11.2627848,18.4148689 C11.175933,18.687543 11.1325078,18.9713219 11.1325078,19.266214 L11.1325078,19.266214 Z M15.9921431,17.1030097 L15.9921431,21.4294182 L16.5374887,21.4294182 L16.5374887,17.8301372 L16.5496075,17.8301372 L17.9008527,21.4294182 L18.3916638,21.4294182 L19.742909,17.8301372 L19.7550278,17.8301372 L19.7550278,21.4294182 L20.3003734,21.4294182 L20.3003734,17.1030097 L19.512652,17.1030097 L18.1432286,20.7386471 L16.7798645,17.1030097 L15.9921431,17.1030097 Z M21.2577579,17.1030097 L21.2577579,21.4294182 L24.2632181,21.4294182 L24.2632181,20.9446666 L21.8334005,20.9446666 L21.8334005,19.4479958 L24.0814363,19.4479958 L24.0814363,18.9632442 L21.8334005,18.9632442 L21.8334005,17.5877614 L24.2450399,17.5877614 L24.2450399,17.1030097 L21.2577579,17.1030097 Z M27.8564397,17 L26.068918,21.5263685 L26.5051945,21.5263685 L28.2987756,17 L27.8564397,17 Z M30.3407919,17.1030097 L30.3407919,21.4294182 L30.8861375,21.4294182 L30.8861375,17.9573845 L30.8982563,17.9573845 L33.1584109,21.4294182 L33.7885881,21.4294182 L33.7885881,17.1030097 L33.2432424,17.1030097 L33.2432424,20.6113998 L33.2311237,20.6113998 L30.9527909,17.1030097 L30.3407919,17.1030097 Z M35.4670406,19.6418965 L36.2002275,17.6241177 L36.2123463,17.6241177 L36.9334144,19.6418965 L35.4670406,19.6418965 Z M35.8972577,17.1030097 L34.2127457,21.4294182 L34.8005071,21.4294182 L35.2852588,20.1266481 L37.1151962,20.1266481 L37.5878291,21.4294182 L38.2240656,21.4294182 L36.5334943,17.1030097 L35.8972577,17.1030097 Z M40.3509135,21.4294182 L41.89,17.1030097 L41.2901198,17.1030097 L40.0418843,20.8537756 L40.0297655,20.8537756 L38.7936488,17.1030097 L38.1755905,17.1030097 L39.6964988,21.4294182 L40.3509135,21.4294182 Z" id="HOME-/-NAV" fill="#FFFFFF" mask="url(#mask-3)"></path>
        </g>
    </g>
</svg>