<?xml version="1.0" encoding="UTF-8" standalone="no"?>
<svg width="70px" height="51px" viewBox="0 0 70 51" version="1.1" xmlns="http://www.w3.org/2000/svg" xmlns:xlink="http://www.w3.org/1999/xlink">
    <!-- Generator: Sketch 3.7.2 (28276) - http://www.bohemiancoding.com/sketch -->
    <title>category-featured</title>
    <desc>Created with Sketch.</desc>
    <defs>
        <rect id="path-1" x="0" y="0" width="70" height="50" rx="4"></rect>
        <mask id="mask-2" maskContentUnits="userSpaceOnUse" maskUnits="objectBoundingBox" x="0" y="0" width="70" height="50" fill="white">
            <use xlink:href="#path-1"></use>
        </mask>
        <mask id="mask-4" maskContentUnits="userSpaceOnUse" maskUnits="objectBoundingBox" x="0" y="0" width="70" height="50" fill="white">
            <use xlink:href="#path-1"></use>
        </mask>
    </defs>
    <g id="Page-1" stroke="none" stroke-width="1" fill="none" fill-rule="evenodd">
        <g id="category-featured" transform="translate(0.000000, 0.767750)">
            <mask id="mask-3" fill="white">
                <use xlink:href="#path-1"></use>
            </mask>
            <g id="Mask" stroke="#3498DB" mask="url(#mask-2)" stroke-width="2" fill-opacity="0.01" fill="#00A0D2">
                <use mask="url(#mask-4)" xlink:href="#path-1"></use>
            </g>
            <rect id="Rectangle-502" fill="#3498DB" opacity="0.2" mask="url(#mask-3)" x="6" y="26" width="76" height="54"></rect>
            <rect id="Rectangle-502" fill="#3498DB" mask="url(#mask-3)" x="0" y="-2" width="70" height="23"></rect>
            <path d="M7,9.10300973 L7,13.4294182 L7.57564258,13.4294182 L7.57564258,11.4479958 L9.85397534,11.4479958 L9.85397534,13.4294182 L10.4296179,13.4294182 L10.4296179,9.10300973 L9.85397534,9.10300973 L9.85397534,10.9632442 L7.57564258,10.9632442 L7.57564258,9.10300973 L7,9.10300973 Z M11.7081504,11.266214 C11.7081504,11.0480746 11.7364273,10.8329682 11.7929819,10.6208883 C11.8495366,10.4088084 11.9384068,10.2179394 12.0595953,10.0482754 C12.1807839,9.87861152 12.3363068,9.74227648 12.5261688,9.63926624 C12.7160308,9.536256 12.942246,9.48475165 13.2048211,9.48475165 C13.4673962,9.48475165 13.6936114,9.536256 13.8834734,9.63926624 C14.0733354,9.74227648 14.2288584,9.87861152 14.3500469,10.0482754 C14.4712354,10.2179394 14.5601057,10.4088084 14.6166603,10.6208883 C14.6732149,10.8329682 14.7014918,11.0480746 14.7014918,11.266214 C14.7014918,11.4843533 14.6732149,11.6994597 14.6166603,11.9115396 C14.5601057,12.1236195 14.4712354,12.3144886 14.3500469,12.4841525 C14.2288584,12.6538164 14.0733354,12.7901514 13.8834734,12.8931617 C13.6936114,12.9961719 13.4673962,13.0476763 13.2048211,13.0476763 C12.942246,13.0476763 12.7160308,12.9961719 12.5261688,12.8931617 C12.3363068,12.7901514 12.1807839,12.6538164 12.0595953,12.4841525 C11.9384068,12.3144886 11.8495366,12.1236195 11.7929819,11.9115396 C11.7364273,11.6994597 11.7081504,11.4843533 11.7081504,11.266214 L11.7081504,11.266214 Z M11.1325078,11.266214 C11.1325078,11.561106 11.175933,11.8448849 11.2627848,12.117559 C11.3496366,12.3902332 11.4799123,12.6315967 11.6536158,12.8416568 C11.8273194,13.0517169 12.0434357,13.2183486 12.3019712,13.341557 C12.5605067,13.4647653 12.8614536,13.5263685 13.2048211,13.5263685 C13.5481886,13.5263685 13.8491356,13.4647653 14.1076711,13.341557 C14.3662066,13.2183486 14.5823229,13.0517169 14.7560264,12.8416568 C14.9297299,12.6315967 15.0600056,12.3902332 15.1468574,12.117559 C15.2337092,11.8448849 15.2771344,11.561106 15.2771344,11.266214 C15.2771344,10.9713219 15.2337092,10.687543 15.1468574,10.4148689 C15.0600056,10.1421947 14.9297299,9.9008312 14.7560264,9.6907711 C14.5823229,9.480711 14.3662066,9.3130694 14.1076711,9.18784126 C13.8491356,9.06261313 13.5481886,9 13.2048211,9 C12.8614536,9 12.5605067,9.06261313 12.3019712,9.18784126 C12.0434357,9.3130694 11.8273194,9.480711 11.6536158,9.6907711 C11.4799123,9.9008312 11.3496366,10.1421947 11.2627848,10.4148689 C11.175933,10.687543 11.1325078,10.9713219 11.1325078,11.266214 L11.1325078,11.266214 Z M15.9921431,9.10300973 L15.9921431,13.4294182 L16.5374887,13.4294182 L16.5374887,9.8301372 L16.5496075,9.8301372 L17.9008527,13.4294182 L18.3916638,13.4294182 L19.742909,9.8301372 L19.7550278,9.8301372 L19.7550278,13.4294182 L20.3003734,13.4294182 L20.3003734,9.10300973 L19.512652,9.10300973 L18.1432286,12.7386471 L16.7798645,9.10300973 L15.9921431,9.10300973 Z M21.2577579,9.10300973 L21.2577579,13.4294182 L24.2632181,13.4294182 L24.2632181,12.9446666 L21.8334005,12.9446666 L21.8334005,11.4479958 L24.0814363,11.4479958 L24.0814363,10.9632442 L21.8334005,10.9632442 L21.8334005,9.58776138 L24.2450399,9.58776138 L24.2450399,9.10300973 L21.2577579,9.10300973 Z M27.8564397,9 L26.068918,13.5263685 L26.5051945,13.5263685 L28.2987756,9 L27.8564397,9 Z M30.3407919,9.10300973 L30.3407919,13.4294182 L30.8861375,13.4294182 L30.8861375,9.95738451 L30.8982563,9.95738451 L33.1584109,13.4294182 L33.7885881,13.4294182 L33.7885881,9.10300973 L33.2432424,9.10300973 L33.2432424,12.6113998 L33.2311237,12.6113998 L30.9527909,9.10300973 L30.3407919,9.10300973 Z M35.4670406,11.6418965 L36.2002275,9.62411775 L36.2123463,9.62411775 L36.9334144,11.6418965 L35.4670406,11.6418965 Z M35.8972577,9.10300973 L34.2127457,13.4294182 L34.8005071,13.4294182 L35.2852588,12.1266481 L37.1151962,12.1266481 L37.5878291,13.4294182 L38.2240656,13.4294182 L36.5334943,9.10300973 L35.8972577,9.10300973 Z M40.3509135,13.4294182 L41.89,9.10300973 L41.2901198,9.10300973 L40.0418843,12.8537756 L40.0297655,12.8537756 L38.7936488,9.10300973 L38.1755905,9.10300973 L39.6964988,13.4294182 L40.3509135,13.4294182 Z" id="HOME-/-NAV" fill="#FFFFFF" mask="url(#mask-3)"></path>
        </g>
    </g>
</svg>