<?xml version="1.0" encoding="UTF-8" standalone="no"?>
<svg width="70px" height="51px" viewBox="0 0 70 51" version="1.1" xmlns="http://www.w3.org/2000/svg" xmlns:xlink="http://www.w3.org/1999/xlink">
    <!-- Generator: Sketch 3.7.2 (28276) - http://www.bohemiancoding.com/sketch -->
    <title>category-title-title</title>
    <desc>Created with Sketch.</desc>
    <defs>
        <rect id="path-1" x="0" y="0" width="70" height="50" rx="4"></rect>
        <mask id="mask-2" maskContentUnits="userSpaceOnUse" maskUnits="objectBoundingBox" x="0" y="0" width="70" height="50" fill="white">
            <use xlink:href="#path-1"></use>
        </mask>
        <mask id="mask-4" maskContentUnits="userSpaceOnUse" maskUnits="objectBoundingBox" x="0" y="0" width="70" height="50" fill="white">
            <use xlink:href="#path-1"></use>
        </mask>
    </defs>
    <g id="Page-1" stroke="none" stroke-width="1" fill="none" fill-rule="evenodd">
        <g id="category-title-title" transform="translate(0.000000, 0.767750)">
            <mask id="mask-3" fill="white">
                <use xlink:href="#path-1"></use>
            </mask>
            <g id="Mask" stroke="#3498DB" mask="url(#mask-2)" stroke-width="2" fill-opacity="0.01" fill="#00A0D2">
                <use mask="url(#mask-4)" xlink:href="#path-1"></use>
            </g>
            <path d="M8.505,7.18 L8.505,13 L10.075,13 L10.075,7.18 L12.215,7.18 L12.215,5.86 L6.365,5.86 L6.365,7.18 L8.505,7.18 Z M14.345,7.03 L14.345,5.86 L12.925,5.86 L12.925,7.03 L14.345,7.03 Z M12.925,7.83 L12.925,13 L14.345,13 L14.345,7.83 L12.925,7.83 Z M17.265,7.83 L17.265,6.28 L15.845,6.28 L15.845,7.83 L14.985,7.83 L14.985,8.78 L15.845,8.78 L15.845,11.83 C15.845,12.0900013 15.8883329,12.2999992 15.975,12.46 C16.0616671,12.6200008 16.1799993,12.7433329 16.33,12.83 C16.4800008,12.9166671 16.6533324,12.9749998 16.85,13.005 C17.0466677,13.0350001 17.2549989,13.05 17.475,13.05 C17.6150007,13.05 17.7583326,13.0466667 17.905,13.04 C18.0516674,13.0333333 18.1849994,13.0200001 18.305,13 L18.305,11.9 C18.238333,11.9133334 18.1683337,11.9233333 18.095,11.93 C18.0216663,11.9366667 17.9450004,11.94 17.865,11.94 C17.6249988,11.94 17.4650004,11.9000004 17.385,11.82 C17.3049996,11.7399996 17.265,11.5800012 17.265,11.34 L17.265,8.78 L18.305,8.78 L18.305,7.83 L17.265,7.83 Z M19.025,5.86 L19.025,13 L20.445,13 L20.445,5.86 L19.025,5.86 Z M25.045,9.86 L22.735,9.86 C22.7416667,9.7599995 22.7633332,9.6466673 22.8,9.52 C22.8366669,9.3933327 22.8999996,9.2733339 22.99,9.16 C23.0800005,9.0466661 23.1999993,8.95166705 23.35,8.875 C23.5000008,8.79833295 23.6883322,8.76 23.915,8.76 C24.2616684,8.76 24.5199992,8.8533324 24.69,9.04 C24.8600009,9.2266676 24.978333,9.4999982 25.045,9.86 L25.045,9.86 Z M22.735,10.76 L26.465,10.76 C26.4916668,10.359998 26.4583338,9.9766685 26.365,9.61 C26.2716662,9.2433315 26.1200011,8.9166681 25.91,8.63 C25.699999,8.3433319 25.4316683,8.11500085 25.105,7.945 C24.7783317,7.77499915 24.3950022,7.69 23.955,7.69 C23.5616647,7.69 23.203335,7.7599993 22.88,7.9 C22.5566651,8.0400007 22.2783345,8.23166545 22.045,8.475 C21.8116655,8.71833455 21.6316673,9.006665 21.505,9.34 C21.3783327,9.673335 21.315,10.0333314 21.315,10.42 C21.315,10.820002 21.3766661,11.186665 21.5,11.52 C21.623334,11.853335 21.7983322,12.1399988 22.025,12.38 C22.2516678,12.6200012 22.5283317,12.8049993 22.855,12.935 C23.1816683,13.0650006 23.5483313,13.13 23.955,13.13 C24.5416696,13.13 25.0416646,12.996668 25.455,12.73 C25.8683354,12.463332 26.174999,12.0200031 26.375,11.4 L25.125,11.4 C25.0783331,11.5600008 24.9516677,11.7116659 24.745,11.855 C24.5383323,11.998334 24.2916681,12.07 24.005,12.07 C23.604998,12.07 23.2983344,11.9666677 23.085,11.76 C22.8716656,11.5533323 22.7550001,11.2200023 22.735,10.76 L22.735,10.76 Z" id="Title" fill="#3498DB" mask="url(#mask-3)"></path>
            <rect id="Rectangle-502" fill="#3498DB" opacity="0.2" mask="url(#mask-3)" x="6" y="26" width="76" height="54"></rect>
            <path d="M7,17.1030097 L7,21.4294182 L7.57564258,21.4294182 L7.57564258,19.4479958 L9.85397534,19.4479958 L9.85397534,21.4294182 L10.4296179,21.4294182 L10.4296179,17.1030097 L9.85397534,17.1030097 L9.85397534,18.9632442 L7.57564258,18.9632442 L7.57564258,17.1030097 L7,17.1030097 Z M11.7081504,19.266214 C11.7081504,19.0480746 11.7364273,18.8329682 11.7929819,18.6208883 C11.8495366,18.4088084 11.9384068,18.2179394 12.0595953,18.0482754 C12.1807839,17.8786115 12.3363068,17.7422765 12.5261688,17.6392662 C12.7160308,17.536256 12.942246,17.4847516 13.2048211,17.4847516 C13.4673962,17.4847516 13.6936114,17.536256 13.8834734,17.6392662 C14.0733354,17.7422765 14.2288584,17.8786115 14.3500469,18.0482754 C14.4712354,18.2179394 14.5601057,18.4088084 14.6166603,18.6208883 C14.6732149,18.8329682 14.7014918,19.0480746 14.7014918,19.266214 C14.7014918,19.4843533 14.6732149,19.6994597 14.6166603,19.9115396 C14.5601057,20.1236195 14.4712354,20.3144886 14.3500469,20.4841525 C14.2288584,20.6538164 14.0733354,20.7901514 13.8834734,20.8931617 C13.6936114,20.9961719 13.4673962,21.0476763 13.2048211,21.0476763 C12.942246,21.0476763 12.7160308,20.9961719 12.5261688,20.8931617 C12.3363068,20.7901514 12.1807839,20.6538164 12.0595953,20.4841525 C11.9384068,20.3144886 11.8495366,20.1236195 11.7929819,19.9115396 C11.7364273,19.6994597 11.7081504,19.4843533 11.7081504,19.266214 L11.7081504,19.266214 Z M11.1325078,19.266214 C11.1325078,19.561106 11.175933,19.8448849 11.2627848,20.117559 C11.3496366,20.3902332 11.4799123,20.6315967 11.6536158,20.8416568 C11.8273194,21.0517169 12.0434357,21.2183486 12.3019712,21.341557 C12.5605067,21.4647653 12.8614536,21.5263685 13.2048211,21.5263685 C13.5481886,21.5263685 13.8491356,21.4647653 14.1076711,21.341557 C14.3662066,21.2183486 14.5823229,21.0517169 14.7560264,20.8416568 C14.9297299,20.6315967 15.0600056,20.3902332 15.1468574,20.117559 C15.2337092,19.8448849 15.2771344,19.561106 15.2771344,19.266214 C15.2771344,18.9713219 15.2337092,18.687543 15.1468574,18.4148689 C15.0600056,18.1421947 14.9297299,17.9008312 14.7560264,17.6907711 C14.5823229,17.480711 14.3662066,17.3130694 14.1076711,17.1878413 C13.8491356,17.0626131 13.5481886,17 13.2048211,17 C12.8614536,17 12.5605067,17.0626131 12.3019712,17.1878413 C12.0434357,17.3130694 11.8273194,17.480711 11.6536158,17.6907711 C11.4799123,17.9008312 11.3496366,18.1421947 11.2627848,18.4148689 C11.175933,18.687543 11.1325078,18.9713219 11.1325078,19.266214 L11.1325078,19.266214 Z M15.9921431,17.1030097 L15.9921431,21.4294182 L16.5374887,21.4294182 L16.5374887,17.8301372 L16.5496075,17.8301372 L17.9008527,21.4294182 L18.3916638,21.4294182 L19.742909,17.8301372 L19.7550278,17.8301372 L19.7550278,21.4294182 L20.3003734,21.4294182 L20.3003734,17.1030097 L19.512652,17.1030097 L18.1432286,20.7386471 L16.7798645,17.1030097 L15.9921431,17.1030097 Z M21.2577579,17.1030097 L21.2577579,21.4294182 L24.2632181,21.4294182 L24.2632181,20.9446666 L21.8334005,20.9446666 L21.8334005,19.4479958 L24.0814363,19.4479958 L24.0814363,18.9632442 L21.8334005,18.9632442 L21.8334005,17.5877614 L24.2450399,17.5877614 L24.2450399,17.1030097 L21.2577579,17.1030097 Z M27.8564397,17 L26.068918,21.5263685 L26.5051945,21.5263685 L28.2987756,17 L27.8564397,17 Z M30.3407919,17.1030097 L30.3407919,21.4294182 L30.8861375,21.4294182 L30.8861375,17.9573845 L30.8982563,17.9573845 L33.1584109,21.4294182 L33.7885881,21.4294182 L33.7885881,17.1030097 L33.2432424,17.1030097 L33.2432424,20.6113998 L33.2311237,20.6113998 L30.9527909,17.1030097 L30.3407919,17.1030097 Z M35.4670406,19.6418965 L36.2002275,17.6241177 L36.2123463,17.6241177 L36.9334144,19.6418965 L35.4670406,19.6418965 Z M35.8972577,17.1030097 L34.2127457,21.4294182 L34.8005071,21.4294182 L35.2852588,20.1266481 L37.1151962,20.1266481 L37.5878291,21.4294182 L38.2240656,21.4294182 L36.5334943,17.1030097 L35.8972577,17.1030097 Z M40.3509135,21.4294182 L41.89,17.1030097 L41.2901198,17.1030097 L40.0418843,20.8537756 L40.0297655,20.8537756 L38.7936488,17.1030097 L38.1755905,17.1030097 L39.6964988,21.4294182 L40.3509135,21.4294182 Z" id="HOME-/-NAV" fill="#3498DB" mask="url(#mask-3)"></path>
        </g>
    </g>
</svg>