<?xml version="1.0" encoding="UTF-8" standalone="no"?>
<svg width="70px" height="70px" viewBox="0 0 70 70" version="1.1" xmlns="http://www.w3.org/2000/svg" xmlns:xlink="http://www.w3.org/1999/xlink">
    <!-- Generator: Sketch 3.7.2 (28276) - http://www.bohemiancoding.com/sketch -->
    <title>category-box-push</title>
    <desc>Created with Sketch.</desc>
    <defs>
        <rect id="path-1" x="0" y="0" width="70" height="70" rx="4"></rect>
        <mask id="mask-2" maskContentUnits="userSpaceOnUse" maskUnits="objectBoundingBox" x="0" y="0" width="70" height="70" fill="white">
            <use xlink:href="#path-1"></use>
        </mask>
        <mask id="mask-4" maskContentUnits="userSpaceOnUse" maskUnits="objectBoundingBox" x="0" y="0" width="70" height="70" fill="white">
            <use xlink:href="#path-1"></use>
        </mask>
        <path d="M56.9320276,57 L63.8640552,57 L63.8640552,-7 L6.86405523,-7 L6.86405523,57 L14.0679724,57 L14.0679724,48.04 L56.9320276,48.04 L56.9320276,57 Z" id="path-5"></path>
        <mask id="mask-6" maskContentUnits="userSpaceOnUse" maskUnits="objectBoundingBox" x="0" y="0" width="57" height="64" fill="white">
            <use xlink:href="#path-5"></use>
        </mask>
    </defs>
    <g id="Page-1" stroke="none" stroke-width="1" fill="none" fill-rule="evenodd">
        <g id="category-box-push">
            <mask id="mask-3" fill="white">
                <use xlink:href="#path-1"></use>
            </mask>
            <g id="Mask" stroke="#3498DB" mask="url(#mask-2)" stroke-width="2" fill-opacity="0.01" fill="#00A0D2">
                <use mask="url(#mask-4)" xlink:href="#path-1"></use>
            </g>
            <g id="Combined-Shape" mask="url(#mask-3)" stroke="#3498DB" stroke-width="2" fill="#3498DB" fill-opacity="0.127858922">
                <use mask="url(#mask-6)" xlink:href="#path-5"></use>
            </g>
            <path d="M23.736,57.816 C23.7786669,57.816 23.8173332,57.8333332 23.852,57.868 L24.156,58.2 C23.9213322,58.4720014 23.6366683,58.6839992 23.302,58.836 C22.9673317,58.9880008 22.5640024,59.064 22.092,59.064 C21.6786646,59.064 21.3040017,58.9926674 20.968,58.85 C20.6319983,58.7073326 20.3453345,58.5073346 20.108,58.25 C19.8706655,57.9926654 19.6866673,57.6840018 19.556,57.324 C19.4253327,56.9639982 19.36,56.5680022 19.36,56.136 C19.36,55.7039978 19.4299993,55.3080018 19.57,54.948 C19.7100007,54.5879982 19.9066654,54.278668 20.16,54.02 C20.4133346,53.761332 20.7166649,53.5606674 21.07,53.418 C21.4233351,53.2753326 21.8133312,53.204 22.24,53.204 C22.6613354,53.204 23.0246651,53.2693327 23.33,53.4 C23.6353349,53.5306673 23.9066655,53.7079989 24.144,53.932 L23.892,54.288 C23.8733332,54.3146668 23.8520001,54.3366666 23.828,54.354 C23.8039999,54.3713334 23.7693336,54.38 23.724,54.38 C23.6893332,54.38 23.6526669,54.3673335 23.614,54.342 C23.5753331,54.3166665 23.5293336,54.2853335 23.476,54.248 C23.4226664,54.2106665 23.3600004,54.1706669 23.288,54.128 C23.2159996,54.0853331 23.1306672,54.0453335 23.032,54.008 C22.9333328,53.9706665 22.8186673,53.9393335 22.688,53.914 C22.5573327,53.8886665 22.4066675,53.876 22.236,53.876 C21.9293318,53.876 21.6486679,53.9286661 21.394,54.034 C21.1393321,54.1393339 20.9200009,54.2893324 20.736,54.484 C20.5519991,54.6786676 20.4086672,54.9159986 20.306,55.196 C20.2033328,55.4760014 20.152,55.7893316 20.152,56.136 C20.152,56.4933351 20.2033328,56.8119986 20.306,57.092 C20.4086672,57.3720014 20.5486658,57.6086657 20.726,57.802 C20.9033342,57.9953343 21.1133321,58.1426662 21.356,58.244 C21.5986679,58.3453338 21.8599986,58.396 22.14,58.396 C22.3106675,58.396 22.4639993,58.3860001 22.6,58.366 C22.7360007,58.3459999 22.8619994,58.3146669 22.978,58.272 C23.0940006,58.2293331 23.2019995,58.1753337 23.302,58.11 C23.4020005,58.0446663 23.5026662,57.9666671 23.604,57.876 C23.6493336,57.8359998 23.6933331,57.816 23.736,57.816 L23.736,57.816 Z M28.04,59 L27.724,59 C27.6546663,59 27.5986669,58.9893334 27.556,58.968 C27.5133331,58.9466666 27.4853334,58.9013337 27.472,58.832 L27.392,58.456 C27.2853328,58.5520005 27.1813338,58.6379996 27.08,58.714 C26.9786662,58.7900004 26.8720006,58.8539997 26.76,58.906 C26.6479994,58.9580003 26.5286673,58.9973332 26.402,59.024 C26.2753327,59.0506668 26.1346674,59.064 25.98,59.064 C25.8226659,59.064 25.675334,59.0420002 25.538,58.998 C25.400666,58.9539998 25.2813338,58.8880004 25.18,58.8 C25.0786662,58.7119996 24.9980003,58.6006673 24.938,58.466 C24.8779997,58.3313327 24.848,58.1720009 24.848,57.988 C24.848,57.8279992 24.8919996,57.6740007 24.98,57.526 C25.0680004,57.3779993 25.209999,57.2466672 25.406,57.132 C25.602001,57.0173328 25.8586651,56.9233337 26.176,56.85 C26.4933349,56.7766663 26.881331,56.7346667 27.34,56.724 L27.34,56.408 C27.34,56.0933318 27.2726673,55.8553341 27.138,55.694 C27.0033327,55.5326659 26.8040013,55.452 26.54,55.452 C26.3666658,55.452 26.2206673,55.4739998 26.102,55.518 C25.9833327,55.5620002 25.8806671,55.6113331 25.794,55.666 C25.7073329,55.7206669 25.632667,55.7699998 25.57,55.814 C25.507333,55.8580002 25.4453336,55.88 25.384,55.88 C25.3359998,55.88 25.2940002,55.8673335 25.258,55.842 C25.2219998,55.8166665 25.1933334,55.7853335 25.172,55.748 L25.044,55.52 C25.2680011,55.3039989 25.509332,55.1426672 25.768,55.036 C26.026668,54.9293328 26.3133318,54.876 26.628,54.876 C26.8546678,54.876 27.0559991,54.913333 27.232,54.988 C27.4080009,55.062667 27.5559994,55.166666 27.676,55.3 C27.7960006,55.433334 27.8866664,55.5946657 27.948,55.784 C28.0093336,55.9733343 28.04,56.1813322 28.04,56.408 L28.04,59 Z M26.192,58.564 C26.317334,58.564 26.4319995,58.5513335 26.536,58.526 C26.6400005,58.5006665 26.7379995,58.4646669 26.83,58.418 C26.9220005,58.3713331 27.0099996,58.314667 27.094,58.248 C27.1780004,58.181333 27.2599996,58.1053338 27.34,58.02 L27.34,57.176 C27.0119984,57.1866667 26.7333345,57.2126665 26.504,57.254 C26.2746655,57.2953335 26.0880007,57.349333 25.944,57.416 C25.7999993,57.482667 25.6953337,57.5613329 25.63,57.652 C25.5646663,57.7426671 25.532,57.8439994 25.532,57.956 C25.532,58.0626672 25.5493332,58.1546663 25.584,58.232 C25.6186668,58.3093337 25.665333,58.3726664 25.724,58.422 C25.782667,58.4713336 25.8519996,58.5073332 25.932,58.53 C26.0120004,58.5526668 26.0986662,58.564 26.192,58.564 L26.192,58.564 Z M30.348,59.064 C30.0279984,59.064 29.7820009,58.9746676 29.61,58.796 C29.4379991,58.6173324 29.352,58.3600017 29.352,58.024 L29.352,55.544 L28.864,55.544 C28.8213331,55.544 28.7853335,55.5313335 28.756,55.506 C28.7266665,55.4806665 28.712,55.4413336 28.712,55.388 L28.712,55.104 L29.376,55.02 L29.54,53.768 C29.5453334,53.7279998 29.5626665,53.6953335 29.592,53.67 C29.6213335,53.6446665 29.6586664,53.632 29.704,53.632 L30.064,53.632 L30.064,55.028 L31.224,55.028 L31.224,55.544 L30.064,55.544 L30.064,57.976 C30.064,58.1466675 30.1053329,58.2733329 30.188,58.356 C30.2706671,58.4386671 30.3773327,58.48 30.508,58.48 C30.582667,58.48 30.6473331,58.4700001 30.702,58.45 C30.7566669,58.4299999 30.8039998,58.4080001 30.844,58.384 C30.8840002,58.3599999 30.9179999,58.3380001 30.946,58.318 C30.9740001,58.2979999 30.9986666,58.288 31.02,58.288 C31.0573335,58.288 31.0906665,58.3106664 31.12,58.356 L31.328,58.696 C31.2053327,58.8106672 31.0573342,58.9006663 30.884,58.966 C30.7106658,59.0313337 30.5320009,59.064 30.348,59.064 L30.348,59.064 Z M33.708,54.884 C33.9506679,54.884 34.1746656,54.9246663 34.38,55.006 C34.5853344,55.0873337 34.7626659,55.2046659 34.912,55.358 C35.0613341,55.5113341 35.1779996,55.7006655 35.262,55.926 C35.3460004,56.1513345 35.388,56.4079986 35.388,56.696 C35.388,56.8080006 35.3760001,56.8826665 35.352,56.92 C35.3279999,56.9573335 35.282667,56.976 35.216,56.976 L32.52,56.976 C32.5253334,57.2320013 32.5599997,57.4546657 32.624,57.644 C32.6880003,57.8333343 32.7759994,57.9913327 32.888,58.118 C33.0000006,58.2446673 33.1333326,58.339333 33.288,58.402 C33.4426674,58.464667 33.615999,58.496 33.808,58.496 C33.9866676,58.496 34.140666,58.4753335 34.27,58.434 C34.399334,58.3926665 34.5106662,58.3480002 34.604,58.3 C34.6973338,58.2519998 34.775333,58.2073335 34.838,58.166 C34.900667,58.1246665 34.9546664,58.104 35,58.104 C35.058667,58.104 35.1039998,58.1266664 35.136,58.172 L35.336,58.432 C35.2479996,58.5386672 35.1426673,58.6313329 35.02,58.71 C34.8973327,58.7886671 34.7660007,58.8533331 34.626,58.904 C34.4859993,58.9546669 34.3413341,58.9926665 34.192,59.018 C34.0426659,59.0433335 33.8946674,59.056 33.748,59.056 C33.4679986,59.056 33.2100012,59.0086671 32.974,58.914 C32.7379988,58.8193329 32.5340009,58.6806676 32.362,58.498 C32.1899991,58.3153324 32.0560005,58.0893347 31.96,57.82 C31.8639995,57.5506653 31.816,57.2413351 31.816,56.892 C31.816,56.6093319 31.8593329,56.3453346 31.946,56.1 C32.0326671,55.8546654 32.1573325,55.6420009 32.32,55.462 C32.4826675,55.2819991 32.6813322,55.1406672 32.916,55.038 C33.1506678,54.9353328 33.4146652,54.884 33.708,54.884 L33.708,54.884 Z M33.724,55.408 C33.3799983,55.408 33.1093343,55.5073323 32.912,55.706 C32.7146657,55.9046677 32.5920002,56.1799982 32.544,56.532 L34.748,56.532 C34.748,56.3666658 34.7253336,56.215334 34.68,56.078 C34.6346664,55.940666 34.5680004,55.8220005 34.48,55.722 C34.3919996,55.6219995 34.2846673,55.5446669 34.158,55.49 C34.0313327,55.4353331 33.8866675,55.408 33.724,55.408 L33.724,55.408 Z M37.66,54.88 C37.8360009,54.88 38.0006659,54.8993331 38.154,54.938 C38.3073341,54.9766669 38.446666,55.033333 38.572,55.108 L39.672,55.108 L39.672,55.372 C39.672,55.4600004 39.6160006,55.5159999 39.504,55.54 L39.044,55.604 C39.1346671,55.7773342 39.18,55.9706656 39.18,56.184 C39.18,56.3813343 39.1420004,56.5606659 39.066,56.722 C38.9899996,56.8833341 38.8846673,57.0213328 38.75,57.136 C38.6153327,57.2506672 38.4553343,57.3386664 38.27,57.4 C38.0846657,57.4613336 37.8813344,57.492 37.66,57.492 C37.4706657,57.492 37.2920008,57.4693336 37.124,57.424 C37.0386662,57.4773336 36.9740002,57.5346664 36.93,57.596 C36.8859998,57.6573336 36.864,57.717333 36.864,57.776 C36.864,57.8720005 36.9026663,57.9446664 36.98,57.994 C37.0573337,58.0433336 37.1599994,58.0786666 37.288,58.1 C37.4160006,58.1213334 37.5613325,58.1346666 37.724,58.14 C37.8866675,58.1453334 38.0526658,58.1539999 38.222,58.166 C38.3913342,58.1780001 38.5573325,58.1986665 38.72,58.228 C38.8826675,58.2573335 39.0279994,58.305333 39.156,58.372 C39.2840006,58.438667 39.3866663,58.5306661 39.464,58.648 C39.5413337,58.7653339 39.58,58.9173324 39.58,59.104 C39.58,59.2773342 39.5366671,59.4453325 39.45,59.608 C39.3633329,59.7706675 39.2386675,59.9153327 39.076,60.042 C38.9133325,60.1686673 38.7146678,60.2699996 38.48,60.346 C38.2453322,60.4220004 37.9800015,60.46 37.684,60.46 C37.3879985,60.46 37.1286678,60.430667 36.906,60.372 C36.6833322,60.313333 36.4986674,60.2346672 36.352,60.136 C36.2053326,60.0373328 36.0953337,59.923334 36.022,59.794 C35.9486663,59.664666 35.912,59.529334 35.912,59.388 C35.912,59.187999 35.9753327,59.0180007 36.102,58.878 C36.2286673,58.7379993 36.4026656,58.6266671 36.624,58.544 C36.5093328,58.4906664 36.4180003,58.4193338 36.35,58.33 C36.2819997,58.2406662 36.248,58.1213341 36.248,57.972 C36.248,57.913333 36.2586666,57.852667 36.28,57.79 C36.3013334,57.727333 36.3339998,57.6653336 36.378,57.604 C36.4220002,57.5426664 36.4759997,57.4840003 36.54,57.428 C36.6040003,57.3719997 36.6786662,57.3226669 36.764,57.28 C36.563999,57.1679994 36.4073339,57.0193343 36.294,56.834 C36.1806661,56.6486657 36.124,56.4320012 36.124,56.184 C36.124,55.9866657 36.1619996,55.8073341 36.238,55.646 C36.3140004,55.4846659 36.4199993,55.3473339 36.556,55.234 C36.6920007,55.1206661 36.8539991,55.0333336 37.042,54.972 C37.2300009,54.9106664 37.4359989,54.88 37.66,54.88 L37.66,54.88 Z M38.924,59.22 C38.924,59.1186662 38.8960003,59.0373336 38.84,58.976 C38.7839997,58.9146664 38.7080005,58.8673335 38.612,58.834 C38.5159995,58.8006665 38.405334,58.7760001 38.28,58.76 C38.154666,58.7439999 38.0226674,58.7326667 37.884,58.726 C37.7453326,58.7193333 37.6040007,58.712 37.46,58.704 C37.3159993,58.696 37.1786673,58.6813334 37.048,58.66 C36.8959992,58.7320004 36.7726671,58.8199995 36.678,58.924 C36.5833329,59.0280005 36.536,59.1519993 36.536,59.296 C36.536,59.3866671 36.5593331,59.4713329 36.606,59.55 C36.6526669,59.6286671 36.7239995,59.6966664 36.82,59.754 C36.9160005,59.8113336 37.0366659,59.8566665 37.182,59.89 C37.3273341,59.9233335 37.4986657,59.94 37.696,59.94 C37.888001,59.94 38.0599992,59.9226668 38.212,59.888 C38.3640008,59.8533332 38.4926661,59.8040003 38.598,59.74 C38.7033339,59.6759997 38.7839997,59.6000004 38.84,59.512 C38.8960003,59.4239996 38.924,59.3266672 38.924,59.22 L38.924,59.22 Z M37.66,57.02 C37.8040007,57.02 37.9313328,57.0000002 38.042,56.96 C38.1526672,56.9199998 38.245333,56.8640004 38.32,56.792 C38.394667,56.7199996 38.4506665,56.6340005 38.488,56.534 C38.5253335,56.4339995 38.544,56.3240006 38.544,56.204 C38.544,55.9559988 38.4686674,55.7586674 38.318,55.612 C38.1673326,55.4653326 37.9480014,55.392 37.66,55.392 C37.3746652,55.392 37.1566674,55.4653326 37.006,55.612 C36.8553326,55.7586674 36.78,55.9559988 36.78,56.204 C36.78,56.3240006 36.7993331,56.4339995 36.838,56.534 C36.8766669,56.6340005 36.933333,56.7199996 37.008,56.792 C37.082667,56.8640004 37.1746661,56.9199998 37.284,56.96 C37.3933339,57.0000002 37.518666,57.02 37.66,57.02 L37.66,57.02 Z M42.024,54.884 C42.3200015,54.884 42.5873321,54.9333328 42.826,55.032 C43.0646679,55.1306672 43.2673325,55.2706658 43.434,55.452 C43.6006675,55.6333342 43.7286662,55.8526654 43.818,56.11 C43.9073338,56.3673346 43.952,56.6546651 43.952,56.972 C43.952,57.2920016 43.9073338,57.5799987 43.818,57.836 C43.7286662,58.0920013 43.6006675,58.3106658 43.434,58.492 C43.2673325,58.6733342 43.0646679,58.8126662 42.826,58.91 C42.5873321,59.0073338 42.3200015,59.056 42.024,59.056 C41.7279985,59.056 41.4606679,59.0073338 41.222,58.91 C40.9833321,58.8126662 40.7800008,58.6733342 40.612,58.492 C40.4439992,58.3106658 40.3146671,58.0920013 40.224,57.836 C40.1333329,57.5799987 40.088,57.2920016 40.088,56.972 C40.088,56.6546651 40.1333329,56.3673346 40.224,56.11 C40.3146671,55.8526654 40.4439992,55.6333342 40.612,55.452 C40.7800008,55.2706658 40.9833321,55.1306672 41.222,55.032 C41.4606679,54.9333328 41.7279985,54.884 42.024,54.884 L42.024,54.884 Z M42.024,58.5 C42.424002,58.5 42.7226657,58.3660013 42.92,58.098 C43.1173343,57.8299987 43.216,57.4560024 43.216,56.976 C43.216,56.4933309 43.1173343,56.1173347 42.92,55.848 C42.7226657,55.5786653 42.424002,55.444 42.024,55.444 C41.8213323,55.444 41.6453341,55.4786663 41.496,55.548 C41.3466659,55.6173337 41.2220005,55.7173327 41.122,55.848 C41.0219995,55.9786673 40.9473336,56.1393324 40.898,56.33 C40.8486664,56.5206676 40.824,56.7359988 40.824,56.976 C40.824,57.2160012 40.8486664,57.4306657 40.898,57.62 C40.9473336,57.8093343 41.0219995,57.968666 41.122,58.098 C41.2220005,58.227334 41.3466659,58.3266663 41.496,58.396 C41.6453341,58.4653337 41.8213323,58.5 42.024,58.5 L42.024,58.5 Z M44.832,59 L44.832,54.948 L45.24,54.948 C45.3173337,54.948 45.3706665,54.9626665 45.4,54.992 C45.4293335,55.0213335 45.4493333,55.0719996 45.46,55.144 L45.508,55.776 C45.6466674,55.4933319 45.817999,55.2726675 46.022,55.114 C46.226001,54.9553325 46.465332,54.876 46.74,54.876 C46.8520006,54.876 46.9533329,54.8886665 47.044,54.914 C47.1346671,54.9393335 47.2186663,54.9746664 47.296,55.02 L47.204,55.552 C47.1853332,55.618667 47.1440003,55.652 47.08,55.652 C47.0426665,55.652 46.9853337,55.6393335 46.908,55.614 C46.8306663,55.5886665 46.7226674,55.576 46.584,55.576 C46.3359988,55.576 46.1286675,55.6479993 45.962,55.792 C45.7953325,55.9360007 45.6560006,56.145332 45.544,56.42 L45.544,59 L44.832,59 Z M49.244,60.196 C49.2199999,60.2493336 49.1900002,60.2919998 49.154,60.324 C49.1179998,60.3560002 49.062667,60.372 48.988,60.372 L48.46,60.372 L49.2,58.764 L47.528,54.948 L48.144,54.948 C48.2053336,54.948 48.2533332,54.9633332 48.288,54.994 C48.3226668,55.0246668 48.3479999,55.0586665 48.364,55.096 L49.448,57.648 C49.4720001,57.706667 49.4926666,57.765333 49.51,57.824 C49.5273334,57.882667 49.5426666,57.9426664 49.556,58.004 C49.5746668,57.9426664 49.5933332,57.882667 49.612,57.824 C49.6306668,57.765333 49.6519999,57.7053336 49.676,57.644 L50.728,55.096 C50.7440001,55.0533331 50.7713331,55.0180001 50.81,54.99 C50.8486669,54.9619999 50.8906664,54.948 50.936,54.948 L51.504,54.948 L49.244,60.196 Z" id="Category" fill="#3498DB" mask="url(#mask-3)"></path>
        </g>
    </g>
</svg>