<?xml version="1.0" encoding="UTF-8" standalone="no"?>
<svg width="42px" height="43px" viewBox="0 0 42 43" version="1.1" xmlns="http://www.w3.org/2000/svg" xmlns:xlink="http://www.w3.org/1999/xlink">
    <!-- Generator: Sketch 3.7.1 (28215) - http://www.bohemiancoding.com/sketch -->
    <title>nav-divided</title>
    <desc>Created with Sketch.</desc>
    <defs>
        <rect id="path-1" x="0.617058501" y="0.185392157" width="39.2156863" height="39.2156863" rx="4"></rect>
        <mask id="mask-3" maskContentUnits="userSpaceOnUse" maskUnits="objectBoundingBox" x="-1" y="-1" width="41.2156863" height="41.2156863">
            <rect x="-0.382941499" y="-0.814607843" width="41.2156863" height="41.2156863" fill="white"></rect>
            <use xlink:href="#path-1" fill="black"></use>
        </mask>
    </defs>
    <g id="Page-1" stroke="none" stroke-width="1" fill="none" fill-rule="evenodd">
        <g id="nav-divided" transform="translate(1.000000, 1.796000)">
            <mask id="mask-2" fill="white">
                <use xlink:href="#path-1"></use>
            </mask>
            <g id="Mask">
                <use fill-opacity="0.01" fill="#00A0D2" fill-rule="evenodd" xlink:href="#path-1"></use>
                <use stroke="#3498DB" mask="url(#mask-3)" stroke-width="2" xlink:href="#path-1"></use>
            </g>
            <rect id="Rectangle-599" fill="#3498DB" opacity="0.420359142" mask="url(#mask-2)" x="28" y="10" width="1" height="20"></rect>
            <path d="M0.722,15.324 C0.79400036,15.324 0.85399976,15.327 0.902,15.333 C0.95000024,15.339 0.99299981,15.3509999 1.031,15.369 C1.06900019,15.3870001 1.10599982,15.4129998 1.142,15.447 C1.17800018,15.4810002 1.21799978,15.5259997 1.262,15.582 L5.816,21.384 C5.79999992,21.2439993 5.78900003,21.1070007 5.783,20.973 C5.77699997,20.8389993 5.774,20.7140006 5.774,20.598 L5.774,15.324 L7.196,15.324 L7.196,24 L6.362,24 C6.23399936,24 6.12800042,23.9800002 6.044,23.94 C5.95999958,23.8999998 5.8780004,23.8280005 5.798,23.724 L1.262,17.946 C1.27400006,18.0740006 1.28299997,18.2009994 1.289,18.327 C1.29500003,18.4530006 1.298,18.5679995 1.298,18.672 L1.298,24 L-0.124,24 L-0.124,15.324 L0.722,15.324 Z M16.574,24 L15.326,24 C15.1859993,24 15.0710004,23.9650003 14.981,23.895 C14.8909995,23.8249996 14.8260002,23.7380005 14.786,23.634 L14.138,21.864 L10.544,21.864 L9.896,23.634 C9.86399984,23.7260005 9.80100047,23.8099996 9.707,23.886 C9.61299953,23.9620004 9.49800068,24 9.362,24 L8.108,24 L11.516,15.324 L13.166,15.324 L16.574,24 Z M10.958,20.724 L13.724,20.724 L12.668,17.838 C12.6199998,17.7099994 12.5670003,17.5590009 12.509,17.385 C12.4509997,17.2109991 12.3940003,17.022001 12.338,16.818 C12.2819997,17.022001 12.2270003,17.2119991 12.173,17.388 C12.1189997,17.5640009 12.0660003,17.7179993 12.014,17.85 L10.958,20.724 Z M15.602,15.324 L16.904,15.324 C17.0440007,15.324 17.1579996,15.3579997 17.246,15.426 C17.3340004,15.4940003 17.3999998,15.5819995 17.444,15.69 L19.484,20.982 C19.5520003,21.1540009 19.6169997,21.342999 19.679,21.549 C19.7410003,21.755001 19.7999997,21.9719989 19.856,22.2 C19.9480005,21.7399977 20.0619993,21.3340018 20.198,20.982 L22.232,15.69 C22.2680002,15.5979995 22.3319995,15.5140004 22.424,15.438 C22.5160005,15.3619996 22.6299993,15.324 22.766,15.324 L24.068,15.324 L20.564,24 L19.106,24 L15.602,15.324 Z" id="NAV-Copy" fill="#3498DB" mask="url(#mask-2)"></path>
            <path d="M35.722,15.324 C35.7940004,15.324 35.8539998,15.327 35.902,15.333 C35.9500002,15.339 35.9929998,15.3509999 36.031,15.369 C36.0690002,15.3870001 36.1059998,15.4129998 36.142,15.447 C36.1780002,15.4810002 36.2179998,15.5259997 36.262,15.582 L40.816,21.384 C40.7999999,21.2439993 40.789,21.1070007 40.783,20.973 C40.777,20.8389993 40.774,20.7140006 40.774,20.598 L40.774,15.324 L42.196,15.324 L42.196,24 L41.362,24 C41.2339994,24 41.1280004,23.9800002 41.044,23.94 C40.9599996,23.8999998 40.8780004,23.8280005 40.798,23.724 L36.262,17.946 C36.2740001,18.0740006 36.283,18.2009994 36.289,18.327 C36.295,18.4530006 36.298,18.5679995 36.298,18.672 L36.298,24 L34.876,24 L34.876,15.324 L35.722,15.324 Z M51.574,24 L50.326,24 C50.1859993,24 50.0710004,23.9650003 49.981,23.895 C49.8909995,23.8249996 49.8260002,23.7380005 49.786,23.634 L49.138,21.864 L45.544,21.864 L44.896,23.634 C44.8639998,23.7260005 44.8010005,23.8099996 44.707,23.886 C44.6129995,23.9620004 44.4980007,24 44.362,24 L43.108,24 L46.516,15.324 L48.166,15.324 L51.574,24 Z M45.958,20.724 L48.724,20.724 L47.668,17.838 C47.6199998,17.7099994 47.5670003,17.5590009 47.509,17.385 C47.4509997,17.2109991 47.3940003,17.022001 47.338,16.818 C47.2819997,17.022001 47.2270003,17.2119991 47.173,17.388 C47.1189997,17.5640009 47.0660003,17.7179993 47.014,17.85 L45.958,20.724 Z M50.602,15.324 L51.904,15.324 C52.0440007,15.324 52.1579996,15.3579997 52.246,15.426 C52.3340004,15.4940003 52.3999998,15.5819995 52.444,15.69 L54.484,20.982 C54.5520003,21.1540009 54.6169997,21.342999 54.679,21.549 C54.7410003,21.755001 54.7999997,21.9719989 54.856,22.2 C54.9480005,21.7399977 55.0619993,21.3340018 55.198,20.982 L57.232,15.69 C57.2680002,15.5979995 57.3319995,15.5140004 57.424,15.438 C57.5160005,15.3619996 57.6299993,15.324 57.766,15.324 L59.068,15.324 L55.564,24 L54.106,24 L50.602,15.324 Z" id="NAV" fill="#3498DB" mask="url(#mask-2)"></path>
        </g>
    </g>
</svg>