<?xml version="1.0" encoding="UTF-8" standalone="no"?>
<svg width="70px" height="70px" viewBox="0 0 70 70" version="1.1" xmlns="http://www.w3.org/2000/svg" xmlns:xlink="http://www.w3.org/1999/xlink">
    <!-- Generator: Sketch 3.8.1 (29687) - http://www.bohemiancoding.com/sketch -->
    <title>portfolio-shade</title>
    <desc>Created with Sketch.</desc>
    <defs>
        <rect id="path-1" x="0" y="0" width="70" height="70" rx="4"></rect>
        <mask id="mask-2" maskContentUnits="userSpaceOnUse" maskUnits="objectBoundingBox" x="0" y="0" width="70" height="70" fill="white">
            <use xlink:href="#path-1"></use>
        </mask>
        <mask id="mask-4" maskContentUnits="userSpaceOnUse" maskUnits="objectBoundingBox" x="0" y="0" width="70" height="70" fill="white">
            <use xlink:href="#path-1"></use>
        </mask>
        <rect id="path-5" x="10" y="-4" width="50.7281105" height="61.46"></rect>
        <mask id="mask-6" maskContentUnits="userSpaceOnUse" maskUnits="objectBoundingBox" x="0" y="0" width="50.7281105" height="61.46" fill="white">
            <use xlink:href="#path-5"></use>
        </mask>
        <linearGradient x1="56.6361904%" y1="145.089286%" x2="56.6361904%" y2="56.8808727%" id="linearGradient-7">
            <stop stop-color="#0084B7" offset="0%"></stop>
            <stop stop-color="#2592D1" stop-opacity="0.375673048" offset="71.585546%"></stop>
            <stop stop-color="#3498DB" stop-opacity="0.127858922" offset="100%"></stop>
        </linearGradient>
    </defs>
    <g id="Page-1" stroke="none" stroke-width="1" fill="none" fill-rule="evenodd">
        <g id="portfolio-shade">
            <mask id="mask-3" fill="white">
                <use xlink:href="#path-1"></use>
            </mask>
            <g id="Mask" stroke="#3498DB" mask="url(#mask-2)" stroke-width="2" fill-opacity="0.01" fill="#00A0D2">
                <use mask="url(#mask-4)" xlink:href="#path-1"></use>
            </g>
            <g id="Rectangle-5" mask="url(#mask-3)" stroke="#3498DB" stroke-width="2" fill="#3498DB" fill-opacity="0.127858922">
                <use mask="url(#mask-6)" xlink:href="#path-5"></use>
            </g>
            <rect id="Rectangle-5" fill="url(#linearGradient-7)" mask="url(#mask-3)" x="10" y="-4" width="50.7281105" height="61.46"></rect>
            <path d="M16.1375515,48.2895608 L16.1375515,50.9869798 L14.712,50.9869798 L14.712,43.3239779 L17.20804,43.3239779 C17.7203226,43.3239779 18.1637053,43.3840377 18.5382015,43.5041592 C18.9126977,43.6242806 19.2218291,43.7920948 19.4656049,44.0076067 C19.7093808,44.2231187 19.8895602,44.4810226 20.0061486,44.7813261 C20.1227371,45.0816297 20.1810304,45.4101922 20.1810304,45.7670235 C20.1810304,46.1379867 20.1192041,46.4780312 19.9955497,46.7871672 C19.8718953,47.0963033 19.6864165,47.3621562 19.4391077,47.5847342 C19.1917989,47.8073121 18.8826675,47.9804257 18.5117043,48.1040801 C18.1407411,48.2277345 17.7061907,48.2895608 17.20804,48.2895608 L16.1375515,48.2895608 Z M16.1375515,47.1766767 L17.20804,47.1766767 C17.4694808,47.1766767 17.6973548,47.1439971 17.8916688,47.0786369 C18.0859829,47.0132767 18.2467312,46.9196541 18.3739186,46.7977661 C18.501106,46.6758782 18.5964951,46.5274952 18.6600888,46.3526125 C18.7236825,46.1777298 18.7554789,45.9825355 18.7554789,45.7670235 C18.7554789,45.5621105 18.7236825,45.3766316 18.6600888,45.2105814 C18.5964951,45.0445312 18.501106,44.903214 18.3739186,44.7866256 C18.2467312,44.6700372 18.0859829,44.5808307 17.8916688,44.5190035 C17.6973548,44.4571763 17.4694808,44.4262631 17.20804,44.4262631 L16.1375515,44.4262631 L16.1375515,47.1766767 Z M23.3765976,45.4649549 C23.7828907,45.4649549 24.1511986,45.5303142 24.4815325,45.6610345 C24.8118665,45.7917549 25.0936176,45.9772337 25.3267945,46.2174766 C25.5599714,46.4577194 25.7401508,46.7509526 25.8673382,47.097185 C25.9945256,47.4434173 26.0581183,47.8302731 26.0581183,48.2577641 C26.0581183,48.688788 25.9945256,49.0774103 25.8673382,49.4236427 C25.7401508,49.769875 25.5599714,50.0648747 25.3267945,50.3086505 C25.0936176,50.5524263 24.8118665,50.7396716 24.4815325,50.870392 C24.1511986,51.0011124 23.7828907,51.0664716 23.3765976,51.0664716 C22.9703046,51.0664716 22.6011134,51.0011124 22.269013,50.870392 C21.9369126,50.7396716 21.6533949,50.5524263 21.4184515,50.3086505 C21.1835082,50.0648747 21.0015623,49.769875 20.8726084,49.4236427 C20.7436545,49.0774103 20.6791785,48.688788 20.6791785,48.2577641 C20.6791785,47.8302731 20.7436545,47.4434173 20.8726084,47.097185 C21.0015623,46.7509526 21.1835082,46.4577194 21.4184515,46.2174766 C21.6533949,45.9772337 21.9369126,45.7917549 22.269013,45.6610345 C22.6011134,45.5303142 22.9703046,45.4649549 23.3765976,45.4649549 L23.3765976,45.4649549 Z M23.3765976,50.0595764 C23.8288194,50.0595764 24.1635646,49.9076604 24.380843,49.6038239 C24.5981215,49.2999874 24.7067591,48.8548382 24.7067591,48.268363 C24.7067591,47.6818878 24.5981215,47.2349721 24.380843,46.9276026 C24.1635646,46.6202331 23.8288194,46.4665506 23.3765976,46.4665506 C22.9173098,46.4665506 22.5781485,46.6211163 22.3591036,46.9302523 C22.1400586,47.2393884 22.0305378,47.6854208 22.0305378,48.268363 C22.0305378,48.8513052 22.1400586,49.2955711 22.3591036,49.6011742 C22.5781485,49.9067772 22.9173098,50.0595764 23.3765976,50.0595764 L23.3765976,50.0595764 Z M27.0809118,50.9869798 L27.0809118,45.5497461 L27.8493318,45.5497461 C27.9835851,45.5497461 28.0772078,45.5744766 28.1302025,45.6239384 C28.1831973,45.6734002 28.2185266,45.7581905 28.2361915,45.8783119 L28.3156832,46.5354435 C28.5099973,46.1998101 28.7378713,45.9348403 28.999312,45.7405262 C29.2607528,45.5462122 29.553986,45.4490566 29.8790204,45.4490566 C30.1475271,45.4490566 30.3701017,45.5108829 30.5467509,45.6345373 L30.3771685,46.6149352 C30.3665696,46.6785289 30.3436055,46.7235737 30.3082757,46.7500711 C30.2729459,46.7765685 30.2252513,46.789817 30.1651906,46.789817 C30.1121959,46.789817 30.0397708,46.7774517 29.9479132,46.7527208 C29.8560557,46.72799 29.7341696,46.7156247 29.5822513,46.7156247 C29.3102116,46.7156247 29.0770382,46.7906995 28.8827242,46.9408512 C28.6884101,47.091003 28.5241289,47.3109279 28.3898755,47.6006325 L28.3898755,50.9869798 L27.0809118,50.9869798 Z M33.1964749,51.071771 C32.7265882,51.071771 32.3644628,50.9384029 32.1100881,50.6716627 C31.8557133,50.4049225 31.7285278,50.0366145 31.7285278,49.5667278 L31.7285278,46.530144 L31.1773852,46.530144 C31.1067255,46.530144 31.0457825,46.50718 30.9945542,46.4612512 C30.943326,46.4153224 30.9177122,46.3464303 30.9177122,46.2545727 L30.9177122,45.7352268 L31.7921212,45.5921417 L32.0676925,44.1082962 C32.0818244,44.0376366 32.114504,43.9828762 32.1657323,43.9440133 C32.2169605,43.9051505 32.2814365,43.8857194 32.3591621,43.8857194 L33.0374915,43.8857194 L33.0374915,45.5974412 L34.4683424,45.5974412 L34.4683424,46.530144 L33.0374915,46.530144 L33.0374915,49.4766371 C33.0374915,49.6462203 33.0798866,49.7787052 33.1646782,49.8740958 C33.2494698,49.9694863 33.3625236,50.0171808 33.5038429,50.0171808 C33.5851015,50.0171808 33.6531104,50.0074653 33.7078716,49.9880339 C33.7626329,49.9686025 33.8103274,49.9482881 33.8509567,49.9270902 C33.8915861,49.9058923 33.9277986,49.885578 33.9595954,49.8661466 C33.9913923,49.8467152 34.0231886,49.8369996 34.0549855,49.8369996 C34.0938483,49.8369996 34.1256447,49.8467152 34.1503756,49.8661466 C34.1751064,49.885578 34.2016034,49.9147247 34.2298673,49.9535875 L34.6220264,50.5895212 C34.4312454,50.7485055 34.2122037,50.8686251 33.9648949,50.9498837 C33.7175861,51.0311423 33.4614486,51.071771 33.1964749,51.071771 L33.1964749,51.071771 Z M35.7455094,50.9869798 L35.7455094,46.5354435 L35.2738586,46.4612512 C35.171402,46.4435863 35.0892614,46.408257 35.0274342,46.3552622 C34.965607,46.3022675 34.9346939,46.2280759 34.9346939,46.1326854 L34.9346939,45.5974412 L35.7455094,45.5974412 L35.7455094,45.1946831 C35.7455094,44.8837806 35.7923208,44.6046791 35.8859448,44.3573703 C35.9795689,44.1100615 36.1138202,43.8998521 36.2887029,43.726736 C36.4635855,43.5536198 36.6764446,43.4211349 36.9272864,43.3292774 C37.1781282,43.2374198 37.4607626,43.1914917 37.775198,43.1914917 C38.0260398,43.1914917 38.2592132,43.2250546 38.4747252,43.2921812 L38.448228,43.9493128 C38.441162,44.0517693 38.3934674,44.115362 38.3051429,44.1400929 C38.2168183,44.1648238 38.1143633,44.1771891 37.9977749,44.1771891 C37.8423236,44.1771891 37.7036561,44.1939705 37.5817682,44.2275338 C37.4598803,44.2610972 37.3565421,44.3193905 37.2717505,44.4024156 C37.1869589,44.4854407 37.1224829,44.5949615 37.0783206,44.7309814 C37.0341583,44.8670012 37.0120775,45.0356986 37.0120775,45.2370787 L37.0120775,45.5974412 L38.4270302,45.5974412 L38.4270302,46.530144 L37.0544731,46.530144 L37.0544731,50.9869798 L35.7455094,50.9869798 Z M41.5484051,45.4649549 C41.9546981,45.4649549 42.3230061,45.5303142 42.65334,45.6610345 C42.9836739,45.7917549 43.2654251,45.9772337 43.498602,46.2174766 C43.7317789,46.4577194 43.9119583,46.7509526 44.0391457,47.097185 C44.1663331,47.4434173 44.2299258,47.8302731 44.2299258,48.2577641 C44.2299258,48.688788 44.1663331,49.0774103 44.0391457,49.4236427 C43.9119583,49.769875 43.7317789,50.0648747 43.498602,50.3086505 C43.2654251,50.5524263 42.9836739,50.7396716 42.65334,50.870392 C42.3230061,51.0011124 41.9546981,51.0664716 41.5484051,51.0664716 C41.142112,51.0664716 40.7729208,51.0011124 40.4408204,50.870392 C40.10872,50.7396716 39.8252024,50.5524263 39.590259,50.3086505 C39.3553156,50.0648747 39.1733697,49.769875 39.0444159,49.4236427 C38.915462,49.0774103 38.850986,48.688788 38.850986,48.2577641 C38.850986,47.8302731 38.915462,47.4434173 39.0444159,47.097185 C39.1733697,46.7509526 39.3553156,46.4577194 39.590259,46.2174766 C39.8252024,45.9772337 40.10872,45.7917549 40.4408204,45.6610345 C40.7729208,45.5303142 41.142112,45.4649549 41.5484051,45.4649549 L41.5484051,45.4649549 Z M41.5484051,50.0595764 C42.0006269,50.0595764 42.335372,49.9076604 42.5526505,49.6038239 C42.769929,49.2999874 42.8785666,48.8548382 42.8785666,48.268363 C42.8785666,47.6818878 42.769929,47.2349721 42.5526505,46.9276026 C42.335372,46.6202331 42.0006269,46.4665506 41.5484051,46.4665506 C41.0891173,46.4665506 40.749956,46.6211163 40.5309111,46.9302523 C40.3118661,47.2393884 40.2023453,47.6854208 40.2023453,48.268363 C40.2023453,48.8513052 40.3118661,49.2955711 40.5309111,49.6011742 C40.749956,49.9067772 41.0891173,50.0595764 41.5484051,50.0595764 L41.5484051,50.0595764 Z M46.6464741,43.112 L46.6464741,50.9869798 L45.3375105,50.9869798 L45.3375105,43.112 L46.6464741,43.112 Z M49.518775,45.5497461 L49.518775,50.9869798 L48.2098113,50.9869798 L48.2098113,45.5497461 L49.518775,45.5497461 Z M49.7148546,43.9652111 C49.7148546,44.0782666 49.6918905,44.1842545 49.6459618,44.283178 C49.600033,44.3821016 49.5390899,44.4686583 49.4631308,44.542851 C49.3871717,44.6170436 49.2979652,44.6762202 49.1955087,44.7203825 C49.0930522,44.7645448 48.9835313,44.7866256 48.8669429,44.7866256 C48.7538874,44.7866256 48.6470163,44.7645448 48.5463263,44.7203825 C48.4456363,44.6762202 48.3581962,44.6170436 48.2840036,44.542851 C48.2098109,44.4686583 48.1506344,44.3821016 48.1064721,44.283178 C48.0623098,44.1842545 48.040229,44.0782666 48.040229,43.9652111 C48.040229,43.8486227 48.0623098,43.7391019 48.1064721,43.6366454 C48.1506344,43.5341889 48.2098109,43.4458656 48.2840036,43.371673 C48.3581962,43.2974803 48.4456363,43.2383037 48.5463263,43.1941414 C48.6470163,43.1499792 48.7538874,43.1278983 48.8669429,43.1278983 C48.9835313,43.1278983 49.0930522,43.1499792 49.1955087,43.1941414 C49.2979652,43.2383037 49.3871717,43.2974803 49.4631308,43.371673 C49.5390899,43.4458656 49.600033,43.5341889 49.6459618,43.6366454 C49.6918905,43.7391019 49.7148546,43.8486227 49.7148546,43.9652111 L49.7148546,43.9652111 Z M53.3184793,45.4649549 C53.7247723,45.4649549 54.0930803,45.5303142 54.4234142,45.6610345 C54.7537481,45.7917549 55.0354993,45.9772337 55.2686762,46.2174766 C55.501853,46.4577194 55.6820325,46.7509526 55.8092199,47.097185 C55.9364073,47.4434173 56,47.8302731 56,48.2577641 C56,48.688788 55.9364073,49.0774103 55.8092199,49.4236427 C55.6820325,49.769875 55.501853,50.0648747 55.2686762,50.3086505 C55.0354993,50.5524263 54.7537481,50.7396716 54.4234142,50.870392 C54.0930803,51.0011124 53.7247723,51.0664716 53.3184793,51.0664716 C52.9121862,51.0664716 52.542995,51.0011124 52.2108946,50.870392 C51.8787942,50.7396716 51.5952766,50.5524263 51.3603332,50.3086505 C51.1253898,50.0648747 50.9434439,49.769875 50.8144901,49.4236427 C50.6855362,49.0774103 50.6210602,48.688788 50.6210602,48.2577641 C50.6210602,47.8302731 50.6855362,47.4434173 50.8144901,47.097185 C50.9434439,46.7509526 51.1253898,46.4577194 51.3603332,46.2174766 C51.5952766,45.9772337 51.8787942,45.7917549 52.2108946,45.6610345 C52.542995,45.5303142 52.9121862,45.4649549 53.3184793,45.4649549 L53.3184793,45.4649549 Z M53.3184793,50.0595764 C53.7707011,50.0595764 54.1054462,49.9076604 54.3227247,49.6038239 C54.5400031,49.2999874 54.6486407,48.8548382 54.6486407,48.268363 C54.6486407,47.6818878 54.5400031,47.2349721 54.3227247,46.9276026 C54.1054462,46.6202331 53.7707011,46.4665506 53.3184793,46.4665506 C52.8591915,46.4665506 52.5200302,46.6211163 52.3009852,46.9302523 C52.0819403,47.2393884 51.9724195,47.6854208 51.9724195,48.268363 C51.9724195,48.8513052 52.0819403,49.2955711 52.3009852,49.6011742 C52.5200302,49.9067772 52.8591915,50.0595764 53.3184793,50.0595764 L53.3184793,50.0595764 Z" id="Portfolio" fill="#FFFFFF" mask="url(#mask-3)"></path>
        </g>
    </g>
</svg>