<?xml version="1.0" encoding="UTF-8" standalone="no"?>
<svg width="70px" height="70px" viewBox="0 0 70 70" version="1.1" xmlns="http://www.w3.org/2000/svg" xmlns:xlink="http://www.w3.org/1999/xlink">
    <!-- Generator: Sketch 3.8.1 (29687) - http://www.bohemiancoding.com/sketch -->
    <title>portfolio-simple</title>
    <desc>Created with Sketch.</desc>
    <defs>
        <rect id="path-1" x="0" y="0" width="70" height="70" rx="4"></rect>
        <mask id="mask-2" maskContentUnits="userSpaceOnUse" maskUnits="objectBoundingBox" x="0" y="0" width="70" height="70" fill="white">
            <use xlink:href="#path-1"></use>
        </mask>
        <mask id="mask-4" maskContentUnits="userSpaceOnUse" maskUnits="objectBoundingBox" x="0" y="0" width="70" height="70" fill="white">
            <use xlink:href="#path-1"></use>
        </mask>
        <rect id="path-5" x="10" y="-4" width="50.7281105" height="50"></rect>
        <mask id="mask-6" maskContentUnits="userSpaceOnUse" maskUnits="objectBoundingBox" x="0" y="0" width="50.7281105" height="50" fill="white">
            <use xlink:href="#path-5"></use>
        </mask>
    </defs>
    <g id="Page-1" stroke="none" stroke-width="1" fill="none" fill-rule="evenodd">
        <g id="portfolio-simple">
            <mask id="mask-3" fill="white">
                <use xlink:href="#path-1"></use>
            </mask>
            <g id="Mask" stroke="#3498DB" mask="url(#mask-2)" stroke-width="2" fill-opacity="0.01" fill="#00A0D2">
                <use mask="url(#mask-4)" xlink:href="#path-1"></use>
            </g>
            <g id="Rectangle-5" mask="url(#mask-3)" stroke="#3498DB" stroke-width="2" fill="#3498DB" fill-opacity="0.127858922">
                <use mask="url(#mask-6)" xlink:href="#path-5"></use>
            </g>
            <path d="M13.3320295,55.9958991 L13.3320295,59.0613082 L11.712,59.0613082 L11.712,50.3528966 L14.5485573,50.3528966 C15.130727,50.3528966 15.6345973,50.4211499 16.0601834,50.5576587 C16.4857695,50.6941674 16.8370735,50.8848753 17.114106,51.1297881 C17.3911384,51.3747008 17.5958985,51.6677888 17.7283923,52.0090606 C17.860886,52.3503325 17.9271319,52.7237185 17.9271319,53.1292298 C17.9271319,53.5508009 17.8568711,53.9372353 17.7163474,54.2885446 C17.5758237,54.6398539 17.3650413,54.9419753 17.0839939,55.194918 C16.8029465,55.4478607 16.4516425,55.6445909 16.0300713,55.7851146 C15.6085002,55.9256383 15.1146671,55.9958991 14.5485573,55.9958991 L13.3320295,55.9958991 Z M13.3320295,54.7311921 L14.5485573,54.7311921 C14.8456646,54.7311921 15.1046258,54.6940542 15.3254488,54.6197774 C15.5462718,54.5455006 15.7289499,54.4391056 15.8734885,54.3005894 C16.0180272,54.1620732 16.1264296,53.9934472 16.1986989,53.7947066 C16.2709683,53.5959659 16.3071024,53.3741425 16.3071024,53.1292298 C16.3071024,52.8963619 16.2709683,52.6855795 16.1986989,52.4968762 C16.1264296,52.3081729 16.0180272,52.1475768 15.8734885,52.015083 C15.7289499,51.8825893 15.5462718,51.781213 15.3254488,51.7109511 C15.1046258,51.6406892 14.8456646,51.6055588 14.5485573,51.6055588 L13.3320295,51.6055588 L13.3320295,54.7311921 Z M21.558648,52.7859521 C22.0203688,52.7859521 22.4389224,52.8602278 22.8143214,53.0087815 C23.1897205,53.1573351 23.509909,53.3681175 23.7748966,53.641135 C24.0398842,53.9141525 24.2446442,54.2473894 24.3891829,54.6408558 C24.5337216,55.0343222 24.6059898,55.4739541 24.6059898,55.9597646 C24.6059898,56.4495902 24.5337216,56.8912295 24.3891829,57.2846959 C24.2446442,57.6781623 24.0398842,58.0134067 23.7748966,58.2904391 C23.509909,58.5674716 23.1897205,58.7802614 22.8143214,58.9288151 C22.4389224,59.0773687 22.0203688,59.1516444 21.558648,59.1516444 C21.0969272,59.1516444 20.6773699,59.0773687 20.2999633,58.9288151 C19.9225568,58.7802614 19.6003608,58.5674716 19.3333658,58.2904391 C19.0663707,58.0134067 18.8596032,57.6781623 18.7130571,57.2846959 C18.5665109,56.8912295 18.4932389,56.4495902 18.4932389,55.9597646 C18.4932389,55.4739541 18.5665109,55.0343222 18.7130571,54.6408558 C18.8596032,54.2473894 19.0663707,53.9141525 19.3333658,53.641135 C19.6003608,53.3681175 19.9225568,53.1573351 20.2999633,53.0087815 C20.6773699,52.8602278 21.0969272,52.7859521 21.558648,52.7859521 L21.558648,52.7859521 Z M21.558648,58.0073856 C22.0725633,58.0073856 22.4529753,57.8347448 22.6998956,57.489458 C22.9468158,57.1441711 23.0702741,56.6382934 23.0702741,55.9718095 C23.0702741,55.3053256 22.9468158,54.7974404 22.6998956,54.4481386 C22.4529753,54.0988368 22.0725633,53.9241885 21.558648,53.9241885 C21.0367028,53.9241885 20.6512721,54.0998405 20.4023444,54.4511498 C20.1534167,54.802459 20.0289547,55.3093405 20.0289547,55.9718095 C20.0289547,56.6342784 20.1534167,57.1391524 20.4023444,57.4864468 C20.6512721,57.8337411 21.0367028,58.0073856 21.558648,58.0073856 L21.558648,58.0073856 Z M25.7683158,59.0613082 L25.7683158,52.8823107 L26.641566,52.8823107 C26.7941346,52.8823107 26.9005295,52.9104151 26.9607539,52.9666246 C27.0209784,53.022834 27.0611274,53.1191917 27.0812022,53.2557005 L27.1715385,54.0024799 C27.3923614,53.6210584 27.6513227,53.3199407 27.94843,53.0991177 C28.2455372,52.8782947 28.5787742,52.7678849 28.9481508,52.7678849 C29.253288,52.7678849 29.5062269,52.8381457 29.706975,52.9786694 L29.5142578,54.0928161 C29.5022129,54.1650854 29.476116,54.2162754 29.4359664,54.2463877 C29.3958167,54.2764999 29.3416156,54.2915558 29.2733612,54.2915558 C29.2131367,54.2915558 29.1308312,54.2775036 29.0264422,54.2493989 C28.9220531,54.2212941 28.783539,54.207242 28.6108956,54.207242 C28.3017434,54.207242 28.0367598,54.2925587 27.8159368,54.4631946 C27.5951139,54.6338305 27.4084209,54.8837582 27.2558523,55.2129852 L27.2558523,59.0613082 L25.7683158,59.0613082 Z M32.7181824,59.1576668 C32.1841923,59.1576668 31.7726647,59.0061042 31.4835874,58.7029745 C31.19451,58.3998448 31.0499735,57.9812912 31.0499735,57.4473011 L31.0499735,53.9964575 L30.4236424,53.9964575 C30.3433431,53.9964575 30.274086,53.9703606 30.2158691,53.9181661 C30.1576521,53.8659716 30.1285441,53.7876809 30.1285441,53.6832919 L30.1285441,53.0930953 L31.1222425,52.9304901 L31.435408,51.244214 C31.4514679,51.1639147 31.4886058,51.1016837 31.5468227,51.0575191 C31.6050397,51.0133545 31.6783117,50.9912725 31.7666409,50.9912725 L32.5375099,50.9912725 L32.5375099,52.9365125 L34.1635619,52.9365125 L34.1635619,53.9964575 L32.5375099,53.9964575 L32.5375099,57.34492 C32.5375099,57.5376383 32.5856888,57.6881971 32.6820479,57.7966011 C32.778407,57.9050051 32.9068839,57.9592063 33.0674824,57.9592063 C33.1598266,57.9592063 33.2371135,57.9481653 33.2993454,57.926083 C33.3615773,57.9040007 33.4157785,57.880915 33.4619506,57.8568253 C33.5081227,57.8327355 33.5492754,57.8096498 33.5854101,57.7875675 C33.6215448,57.7654852 33.6576789,57.7544442 33.6938136,57.7544442 C33.7379781,57.7544442 33.7741123,57.7654852 33.802217,57.7875675 C33.8303218,57.8096498 33.8604335,57.8427727 33.8925532,57.8869373 L34.3382119,58.6096271 C34.1214039,58.7903004 33.8724799,58.9268071 33.5914325,59.0191513 C33.3103851,59.1114955 33.0193046,59.1576668 32.7181824,59.1576668 L32.7181824,59.1576668 Z M35.6149638,59.0613082 L35.6149638,54.0024799 L35.0789689,53.9181661 C34.962535,53.8980913 34.8691885,53.8579422 34.7989266,53.7977178 C34.7286648,53.7374933 34.6935344,53.6531804 34.6935344,53.5447764 L34.6935344,52.9365125 L35.6149638,52.9365125 L35.6149638,52.478809 C35.6149638,52.1254922 35.6681613,51.8083149 35.7745578,51.5272674 C35.8809543,51.24622 36.0335207,51.0073333 36.2322613,50.8106001 C36.431002,50.6138669 36.6728999,50.463308 36.9579623,50.358919 C37.2430247,50.25453 37.5642169,50.2023362 37.9215487,50.2023362 C38.206611,50.2023362 38.4715946,50.2404778 38.7165074,50.3167621 L38.6863953,51.0635415 C38.6783654,51.1799755 38.6241642,51.2522437 38.5237901,51.2803484 C38.423416,51.3084532 38.3069839,51.3225053 38.1744901,51.3225053 C37.9978317,51.3225053 37.8402467,51.3415761 37.7017305,51.3797183 C37.5632143,51.4178604 37.4457784,51.4841063 37.3494193,51.578458 C37.2530601,51.6728096 37.1797882,51.7972716 37.1296011,51.9518477 C37.0794141,52.1064238 37.0543209,52.2981354 37.0543209,52.5269883 L37.0543209,52.9365125 L38.6623057,52.9365125 L38.6623057,53.9964575 L37.1025003,53.9964575 L37.1025003,59.0613082 L35.6149638,59.0613082 Z M42.2095079,52.7859521 C42.6712287,52.7859521 43.0897823,52.8602278 43.4651814,53.0087815 C43.8405804,53.1573351 44.1607689,53.3681175 44.4257565,53.641135 C44.6907441,53.9141525 44.8955041,54.2473894 45.0400428,54.6408558 C45.1845815,55.0343222 45.2568497,55.4739541 45.2568497,55.9597646 C45.2568497,56.4495902 45.1845815,56.8912295 45.0400428,57.2846959 C44.8955041,57.6781623 44.6907441,58.0134067 44.4257565,58.2904391 C44.1607689,58.5674716 43.8405804,58.7802614 43.4651814,58.9288151 C43.0897823,59.0773687 42.6712287,59.1516444 42.2095079,59.1516444 C41.7477871,59.1516444 41.3282298,59.0773687 40.9508232,58.9288151 C40.5734167,58.7802614 40.2512207,58.5674716 39.9842257,58.2904391 C39.7172306,58.0134067 39.5104631,57.6781623 39.363917,57.2846959 C39.2173708,56.8912295 39.1440988,56.4495902 39.1440988,55.9597646 C39.1440988,55.4739541 39.2173708,55.0343222 39.363917,54.6408558 C39.5104631,54.2473894 39.7172306,53.9141525 39.9842257,53.641135 C40.2512207,53.3681175 40.5734167,53.1573351 40.9508232,53.0087815 C41.3282298,52.8602278 41.7477871,52.7859521 42.2095079,52.7859521 L42.2095079,52.7859521 Z M42.2095079,58.0073856 C42.7234232,58.0073856 43.1038352,57.8347448 43.3507555,57.489458 C43.5976757,57.1441711 43.721134,56.6382934 43.721134,55.9718095 C43.721134,55.3053256 43.5976757,54.7974404 43.3507555,54.4481386 C43.1038352,54.0988368 42.7234232,53.9241885 42.2095079,53.9241885 C41.6875627,53.9241885 41.302132,54.0998405 41.0532043,54.4511498 C40.8042766,54.802459 40.6798146,55.3093405 40.6798146,55.9718095 C40.6798146,56.6342784 40.8042766,57.1391524 41.0532043,57.4864468 C41.302132,57.8337411 41.6875627,58.0073856 42.2095079,58.0073856 L42.2095079,58.0073856 Z M48.0030708,50.112 L48.0030708,59.0613082 L46.5155344,59.0613082 L46.5155344,50.112 L48.0030708,50.112 Z M51.2672196,52.8823107 L51.2672196,59.0613082 L49.7796831,59.0613082 L49.7796831,52.8823107 L51.2672196,52.8823107 Z M51.4900489,51.0816088 C51.4900489,51.2100876 51.463952,51.3305347 51.4117575,51.4429536 C51.359563,51.5553726 51.2903059,51.6537377 51.2039842,51.738052 C51.1176625,51.8223662 51.0162862,51.8896158 50.8998523,51.9398029 C50.7834183,51.9899899 50.6589563,52.015083 50.5264626,52.015083 C50.3979837,52.015083 50.2765329,51.9899899 50.1621065,51.9398029 C50.04768,51.8896158 49.9483112,51.8223662 49.8639969,51.738052 C49.7796827,51.6537377 49.7124331,51.5553726 49.6622461,51.4429536 C49.612059,51.3305347 49.5869659,51.2100876 49.5869659,51.0816088 C49.5869659,50.949115 49.612059,50.824653 49.6622461,50.7082191 C49.7124331,50.5917851 49.7796827,50.4914125 49.8639969,50.4070983 C49.9483112,50.3227841 50.04768,50.2555345 50.1621065,50.2053474 C50.2765329,50.1551604 50.3979837,50.1300672 50.5264626,50.1300672 C50.6589563,50.1300672 50.7834183,50.1551604 50.8998523,50.2053474 C51.0162862,50.2555345 51.1176625,50.3227841 51.2039842,50.4070983 C51.2903059,50.4914125 51.359563,50.5917851 51.4117575,50.7082191 C51.463952,50.824653 51.4900489,50.949115 51.4900489,51.0816088 L51.4900489,51.0816088 Z M55.5852909,52.7859521 C56.0470116,52.7859521 56.4655653,52.8602278 56.8409643,53.0087815 C57.2163634,53.1573351 57.5365519,53.3681175 57.8015395,53.641135 C58.0665271,53.9141525 58.2712871,54.2473894 58.4158258,54.6408558 C58.5603645,55.0343222 58.6326327,55.4739541 58.6326327,55.9597646 C58.6326327,56.4495902 58.5603645,56.8912295 58.4158258,57.2846959 C58.2712871,57.6781623 58.0665271,58.0134067 57.8015395,58.2904391 C57.5365519,58.5674716 57.2163634,58.7802614 56.8409643,58.9288151 C56.4655653,59.0773687 56.0470116,59.1516444 55.5852909,59.1516444 C55.1235701,59.1516444 54.7040128,59.0773687 54.3266062,58.9288151 C53.9491997,58.7802614 53.6270037,58.5674716 53.3600087,58.2904391 C53.0930136,58.0134067 52.8862461,57.6781623 52.7396999,57.2846959 C52.5931538,56.8912295 52.5198818,56.4495902 52.5198818,55.9597646 C52.5198818,55.4739541 52.5931538,55.0343222 52.7396999,54.6408558 C52.8862461,54.2473894 53.0930136,53.9141525 53.3600087,53.641135 C53.6270037,53.3681175 53.9491997,53.1573351 54.3266062,53.0087815 C54.7040128,52.8602278 55.1235701,52.7859521 55.5852909,52.7859521 L55.5852909,52.7859521 Z M55.5852909,58.0073856 C56.0992062,58.0073856 56.4796182,57.8347448 56.7265385,57.489458 C56.9734587,57.1441711 57.096917,56.6382934 57.096917,55.9718095 C57.096917,55.3053256 56.9734587,54.7974404 56.7265385,54.4481386 C56.4796182,54.0988368 56.0992062,53.9241885 55.5852909,53.9241885 C55.0633457,53.9241885 54.677915,54.0998405 54.4289873,54.4511498 C54.1800595,54.802459 54.0555976,55.3093405 54.0555976,55.9718095 C54.0555976,56.6342784 54.1800595,57.1391524 54.4289873,57.4864468 C54.677915,57.8337411 55.0633457,58.0073856 55.5852909,58.0073856 L55.5852909,58.0073856 Z" id="Portfolio" fill="#3498DB" mask="url(#mask-3)"></path>
        </g>
    </g>
</svg>