<?xml version="1.0" encoding="UTF-8" standalone="no"?>
<svg width="70px" height="43px" viewBox="0 0 70 43" version="1.1" xmlns="http://www.w3.org/2000/svg" xmlns:xlink="http://www.w3.org/1999/xlink">
    <!-- Generator: Sketch 3.7.2 (28276) - http://www.bohemiancoding.com/sketch -->
    <title>portfolio-title</title>
    <desc>Created with Sketch.</desc>
    <defs>
        <rect id="path-1" x="0" y="0" width="70" height="42.5531915" rx="4"></rect>
        <mask id="mask-2" maskContentUnits="userSpaceOnUse" maskUnits="objectBoundingBox" x="0" y="0" width="70" height="42.5531915" fill="white">
            <use xlink:href="#path-1"></use>
        </mask>
        <mask id="mask-4" maskContentUnits="userSpaceOnUse" maskUnits="objectBoundingBox" x="0" y="0" width="70" height="42.5531915" fill="white">
            <use xlink:href="#path-1"></use>
        </mask>
        <rect id="path-5" x="31" y="5" width="50.7281105" height="45.1902419"></rect>
        <mask id="mask-6" maskContentUnits="userSpaceOnUse" maskUnits="objectBoundingBox" x="0" y="0" width="50.7281105" height="45.1902419" fill="white">
            <use xlink:href="#path-5"></use>
        </mask>
    </defs>
    <g id="Page-1" stroke="none" stroke-width="1" fill="none" fill-rule="evenodd">
        <g id="portfolio-title">
            <mask id="mask-3" fill="white">
                <use xlink:href="#path-1"></use>
            </mask>
            <g id="Mask" stroke="#3498DB" mask="url(#mask-2)" stroke-width="2" fill-opacity="0.01" fill="#00A0D2">
                <use mask="url(#mask-4)" xlink:href="#path-1"></use>
            </g>
            <path d="M13.1345,10.1914894 L13.1345,11.2494681 L11.177,11.2494681 L11.177,17.1138298 L9.9665,17.1138298 L9.9665,11.2494681 L8,11.2494681 L8,10.1914894 L13.1345,10.1914894 Z M15.0245,12.2021277 L15.0245,17.1138298 L13.913,17.1138298 L13.913,12.2021277 L15.0245,12.2021277 Z M15.191,10.7707447 C15.191,10.8728729 15.1715002,10.9686166 15.1325,11.0579787 C15.0934998,11.1473409 15.0417503,11.2255316 14.97725,11.2925532 C14.9127497,11.3595748 14.8370004,11.4130317 14.75,11.4529255 C14.6629996,11.4928193 14.5700005,11.512766 14.471,11.512766 C14.3749995,11.512766 14.2842504,11.4928193 14.19875,11.4529255 C14.1132496,11.4130317 14.0390003,11.3595748 13.976,11.2925532 C13.9129997,11.2255316 13.8627502,11.1473409 13.82525,11.0579787 C13.7877498,10.9686166 13.769,10.8728729 13.769,10.7707447 C13.769,10.665425 13.7877498,10.5664898 13.82525,10.4739362 C13.8627502,10.3813825 13.9129997,10.3015961 13.976,10.2345745 C14.0390003,10.1675529 14.1132496,10.1140959 14.19875,10.0742021 C14.2842504,10.0343083 14.3749995,10.0143617 14.471,10.0143617 C14.5700005,10.0143617 14.6629996,10.0343083 14.75,10.0742021 C14.8370004,10.1140959 14.9127497,10.1675529 14.97725,10.2345745 C15.0417503,10.3015961 15.0934998,10.3813825 15.1325,10.4739362 C15.1715002,10.5664898 15.191,10.665425 15.191,10.7707447 L15.191,10.7707447 Z M17.7965,17.1904255 C17.397498,17.1904255 17.0900011,17.069948 16.874,16.8289894 C16.6579989,16.5880307 16.55,16.2553213 16.55,15.8308511 L16.55,13.087766 L16.082,13.087766 C16.0219997,13.087766 15.9702502,13.0670215 15.92675,13.0255319 C15.8832498,12.9840423 15.8615,12.9218089 15.8615,12.8388298 L15.8615,12.3696809 L16.604,12.2404255 L16.838,10.9 C16.8500001,10.8361699 16.8777498,10.7867023 16.92125,10.7515957 C16.9647502,10.7164892 17.0194997,10.6989362 17.0855,10.6989362 L17.6615,10.6989362 L17.6615,12.2452128 L18.8765,12.2452128 L18.8765,13.087766 L17.6615,13.087766 L17.6615,15.7494681 C17.6615,15.9026603 17.6974996,16.02234 17.7695,16.1085106 C17.8415004,16.1946813 17.9374994,16.237766 18.0575,16.237766 C18.1265003,16.237766 18.1842498,16.2289894 18.23075,16.2114362 C18.2772502,16.1938829 18.3177498,16.175532 18.35225,16.156383 C18.3867502,16.1372339 18.4174999,16.1188831 18.4445,16.1013298 C18.4715001,16.0837765 18.4984999,16.075 18.5255,16.075 C18.5585002,16.075 18.5854999,16.0837765 18.6065,16.1013298 C18.6275001,16.1188831 18.6499999,16.1452126 18.674,16.1803191 L19.007,16.7547872 C18.8449992,16.898405 18.659001,17.0069145 18.449,17.0803191 C18.2389989,17.1537238 18.0215011,17.1904255 17.7965,17.1904255 L17.7965,17.1904255 Z M20.9465,10 L20.9465,17.1138298 L19.835,17.1138298 L19.835,10 L20.9465,10 Z M24.11,12.1255319 C24.4010015,12.1255319 24.6687488,12.1749995 24.91325,12.2739362 C25.1577512,12.3728728 25.3684991,12.5172863 25.5455,12.7071809 C25.7225009,12.8970754 25.8604995,13.1300518 25.9595,13.406117 C26.0585005,13.6821822 26.108,13.9973387 26.108,14.3515957 C26.108,14.4409579 26.10425,14.5151593 26.09675,14.5742021 C26.08925,14.633245 26.0757501,14.6795211 26.05625,14.7130319 C26.0367499,14.7465427 26.0105002,14.7704787 25.9775,14.7848404 C25.9444998,14.7992022 25.9025003,14.806383 25.8515,14.806383 L22.9985,14.806383 C23.0315002,15.3106408 23.1589989,15.6808499 23.381,15.9170213 C23.6030011,16.1531927 23.8969982,16.2712766 24.263,16.2712766 C24.4430009,16.2712766 24.5982493,16.2489364 24.72875,16.2042553 C24.8592507,16.1595742 24.9732495,16.1101067 25.07075,16.0558511 C25.1682505,16.0015955 25.2537496,15.9521279 25.32725,15.9074468 C25.4007504,15.8627657 25.4719997,15.8404255 25.541,15.8404255 C25.5860002,15.8404255 25.6249998,15.8499999 25.658,15.8691489 C25.6910002,15.888298 25.7194999,15.9154254 25.7435,15.9505319 L26.0675,16.381383 C25.9444994,16.5345752 25.8065008,16.6630314 25.6535,16.7667553 C25.5004992,16.8704792 25.3407508,16.9534571 25.17425,17.0156915 C25.0077492,17.0779258 24.8382509,17.1218084 24.66575,17.1473404 C24.4932491,17.1728725 24.3260008,17.1856383 24.164,17.1856383 C23.8429984,17.1856383 23.5445014,17.1289899 23.2685,17.0156915 C22.9924986,16.9023931 22.752501,16.7348415 22.5485,16.5130319 C22.344499,16.2912223 22.1840006,16.016757 22.067,15.6896277 C21.9499994,15.3624984 21.8915,14.9835128 21.8915,14.5526596 C21.8915,14.2175515 21.9424995,13.9023951 22.0445,13.6071809 C22.1465005,13.3119666 22.292749,13.0550543 22.48325,12.8364362 C22.673751,12.6178181 22.9062486,12.4446815 23.18075,12.3170213 C23.4552514,12.1893611 23.7649983,12.1255319 24.11,12.1255319 L24.11,12.1255319 Z M24.1325,12.9728723 C23.8084984,12.9728723 23.5550009,13.0702118 23.372,13.2648936 C23.1889991,13.4595754 23.0720003,13.7356365 23.021,14.0930851 L25.109,14.0930851 C25.109,13.9398929 25.0895002,13.7954794 25.0505,13.6598404 C25.0114998,13.5242014 24.9515004,13.4053197 24.8705,13.3031915 C24.7894996,13.2010633 24.6875006,13.120479 24.5645,13.0614362 C24.4414994,13.0023933 24.2975008,12.9728723 24.1325,12.9728723 L24.1325,12.9728723 Z" id="Title" fill="#3498DB" mask="url(#mask-3)"></path>
            <g id="Rectangle-5" mask="url(#mask-3)" stroke="#3498DB" stroke-width="2" fill="#3498DB" fill-opacity="0.127858922">
                <use mask="url(#mask-6)" xlink:href="#path-5"></use>
            </g>
        </g>
    </g>
</svg>