<?xml version="1.0" encoding="UTF-8" standalone="no"?>
<svg width="70px" height="43px" viewBox="0 0 70 43" version="1.1" xmlns="http://www.w3.org/2000/svg" xmlns:xlink="http://www.w3.org/1999/xlink">
    <!-- Generator: Sketch 3.7.2 (28276) - http://www.bohemiancoding.com/sketch -->
    <title>portfolio-title-featured</title>
    <desc>Created with Sketch.</desc>
    <defs>
        <rect id="path-1" x="0" y="0" width="70" height="42.5531915" rx="4"></rect>
        <mask id="mask-2" maskContentUnits="userSpaceOnUse" maskUnits="objectBoundingBox" x="0" y="0" width="70" height="42.5531915" fill="white">
            <use xlink:href="#path-1"></use>
        </mask>
        <mask id="mask-4" maskContentUnits="userSpaceOnUse" maskUnits="objectBoundingBox" x="0" y="0" width="70" height="42.5531915" fill="white">
            <use xlink:href="#path-1"></use>
        </mask>
        <rect id="path-5" x="10.249461" y="27.1428571" width="50.7281105" height="45.1902419"></rect>
        <mask id="mask-6" maskContentUnits="userSpaceOnUse" maskUnits="objectBoundingBox" x="0" y="0" width="50.7281105" height="45.1902419" fill="white">
            <use xlink:href="#path-5"></use>
        </mask>
    </defs>
    <g id="Page-1" stroke="none" stroke-width="1" fill="none" fill-rule="evenodd">
        <g id="portfolio-title-featured">
            <mask id="mask-3" fill="white">
                <use xlink:href="#path-1"></use>
            </mask>
            <g id="Mask" stroke="#3498DB" mask="url(#mask-2)" stroke-width="2" fill-opacity="0.01" fill="#00A0D2">
                <use mask="url(#mask-4)" xlink:href="#path-1"></use>
            </g>
            <g id="Rectangle-5" mask="url(#mask-3)" stroke="#3498DB" stroke-width="2" fill="#3498DB" fill-opacity="0.127858922">
                <use mask="url(#mask-6)" xlink:href="#path-5"></use>
            </g>
            <rect id="Rectangle-5" fill="#3498DB" mask="url(#mask-3)" x="-4.03625332" y="-24.2857143" width="89.750539" height="45.1902419"></rect>
            <path d="M29.6335283,7.54574468 L29.6335283,8.6037234 L27.6808498,8.6037234 L27.6808498,14.4680851 L26.4733313,14.4680851 L26.4733313,8.6037234 L24.5116749,8.6037234 L24.5116749,7.54574468 L29.6335283,7.54574468 Z M31.5188732,9.55638298 L31.5188732,14.4680851 L30.4101108,14.4680851 L30.4101108,9.55638298 L31.5188732,9.55638298 Z M31.6849631,8.125 C31.6849631,8.22712817 31.6655113,8.32287189 31.6266071,8.41223404 C31.587703,8.50159619 31.536081,8.5797869 31.4717395,8.64680851 C31.4073981,8.71383012 31.3318354,8.76728703 31.2450493,8.80718085 C31.1582631,8.84707467 31.0654931,8.86702128 30.9667365,8.86702128 C30.8709724,8.86702128 30.7804469,8.84707467 30.695157,8.80718085 C30.6098672,8.76728703 30.5358008,8.71383012 30.4729557,8.64680851 C30.4101105,8.5797869 30.3599848,8.50159619 30.322577,8.41223404 C30.2851691,8.32287189 30.2664655,8.22712817 30.2664655,8.125 C30.2664655,8.01968032 30.2851691,7.92074514 30.322577,7.82819149 C30.3599848,7.73563784 30.4101105,7.6558514 30.4729557,7.58882979 C30.5358008,7.52180818 30.6098672,7.46835126 30.695157,7.42845745 C30.7804469,7.38856363 30.8709724,7.36861702 30.9667365,7.36861702 C31.0654931,7.36861702 31.1582631,7.38856363 31.2450493,7.42845745 C31.3318354,7.46835126 31.4073981,7.52180818 31.4717395,7.58882979 C31.536081,7.6558514 31.587703,7.73563784 31.6266071,7.82819149 C31.6655113,7.92074514 31.6849631,8.01968032 31.6849631,8.125 L31.6849631,8.125 Z M34.2840456,14.5446809 C33.8860263,14.5446809 33.5792868,14.4242033 33.3638177,14.1832447 C33.1483487,13.942286 33.0406158,13.6095766 33.0406158,13.1851064 L33.0406158,10.4420213 L32.5737685,10.4420213 C32.513916,10.4420213 32.4622939,10.4212768 32.4189009,10.3797872 C32.3755078,10.3382977 32.3538116,10.2760642 32.3538116,10.1930851 L32.3538116,9.72393617 L33.0944828,9.59468085 L33.3279064,8.25425532 C33.3398769,8.19042521 33.3675583,8.14095762 33.4109514,8.10585106 C33.4543444,8.07074451 33.508959,8.05319149 33.5747968,8.05319149 L34.1493781,8.05319149 L34.1493781,9.59946809 L35.3613855,9.59946809 L35.3613855,10.4420213 L34.1493781,10.4420213 L34.1493781,13.1037234 C34.1493781,13.2569157 34.185289,13.3765953 34.2571121,13.462766 C34.3289351,13.5489366 34.4246977,13.5920213 34.5444027,13.5920213 C34.6132331,13.5920213 34.6708403,13.5832448 34.717226,13.5656915 C34.7636117,13.5481382 34.8040115,13.5297873 34.8384267,13.5106383 C34.8728419,13.4914893 34.9035159,13.4731384 34.9304495,13.4555851 C34.9573831,13.4380318 34.9843164,13.4292553 35.01125,13.4292553 C35.0441689,13.4292553 35.0711021,13.4380318 35.0920505,13.4555851 C35.1129989,13.4731384 35.1354432,13.4994679 35.1593842,13.5345745 L35.491564,14.1090426 C35.3299622,14.2526603 35.1444222,14.3611698 34.9349384,14.4345745 C34.7254546,14.5079791 34.5084925,14.5446809 34.2840456,14.5446809 L34.2840456,14.5446809 Z M37.4262869,7.35425532 L37.4262869,14.4680851 L36.3175246,14.4680851 L36.3175246,7.35425532 L37.4262869,7.35425532 Z M40.5819951,9.47978723 C40.8722798,9.47978723 41.1393676,9.52925482 41.3832666,9.62819149 C41.6271656,9.72712815 41.8373944,9.8715416 42.0139594,10.0614362 C42.1905243,10.2513307 42.328183,10.4843071 42.4269397,10.7603723 C42.5256963,11.0364376 42.5750739,11.351594 42.5750739,11.7058511 C42.5750739,11.7952132 42.5713332,11.8694146 42.5638516,11.9284574 C42.55637,11.9875003 42.5429034,12.0337764 42.5234514,12.0672872 C42.5039993,12.100798 42.4778142,12.124734 42.4448953,12.1390957 C42.4119764,12.1534575 42.3700803,12.1606383 42.3192057,12.1606383 L39.4732328,12.1606383 C39.5061516,12.6648961 39.6333363,13.0351052 39.8547906,13.2712766 C40.0762449,13.507448 40.3695179,13.6255319 40.7346182,13.6255319 C40.9141758,13.6255319 41.0690418,13.6031917 41.1992211,13.5585106 C41.3294003,13.5138296 41.4431184,13.464362 41.5403787,13.4101064 C41.637639,13.3558508 41.7229276,13.3063832 41.7962469,13.2617021 C41.8695663,13.2170211 41.94064,13.1946809 42.0094704,13.1946809 C42.0543598,13.1946809 42.0932634,13.2042552 42.1261823,13.2234043 C42.1591011,13.2425533 42.1875307,13.2696807 42.2114717,13.3047872 L42.5346736,13.7356383 C42.411976,13.8888306 42.2743173,14.0172867 42.1216933,14.1210106 C41.9690694,14.2247346 41.8097145,14.3077125 41.6436238,14.3699468 C41.477533,14.4321812 41.3084522,14.4760637 41.1363762,14.5015957 C40.9643002,14.5271278 40.7974639,14.5398936 40.6358621,14.5398936 C40.3156511,14.5398936 40.0178893,14.4832452 39.7425677,14.3699468 C39.4672462,14.2566484 39.2278397,14.0890969 39.0243411,13.8672872 C38.8208426,13.6454776 38.6607395,13.3710123 38.5440271,13.043883 C38.4273147,12.7167537 38.3689594,12.3377681 38.3689594,11.9069149 C38.3689594,11.5718068 38.4198332,11.2566504 38.5215825,10.9614362 C38.6233318,10.6662219 38.7692201,10.4093096 38.9592518,10.1906915 C39.1492836,9.97207337 39.3812086,9.79893681 39.6550339,9.6712766 C39.9288591,9.54361638 40.2378431,9.47978723 40.5819951,9.47978723 L40.5819951,9.47978723 Z M40.6044397,10.3271277 C40.2812361,10.3271277 40.028363,10.4244671 39.8458128,10.6191489 C39.6632626,10.8138308 39.546552,11.0898918 39.4956773,11.4473404 L41.5785345,11.4473404 C41.5785345,11.2941482 41.5590827,11.1497347 41.5201786,11.0140957 C41.4812744,10.8784568 41.4214228,10.759575 41.3406219,10.6574468 C41.259821,10.5553186 41.1580733,10.4747343 41.0353756,10.4156915 C40.912678,10.3566486 40.7690341,10.3271277 40.6044397,10.3271277 L40.6044397,10.3271277 Z" id="Title" fill="#FFFFFF" mask="url(#mask-3)"></path>
        </g>
    </g>
</svg>