<?xml version="1.0" encoding="UTF-8" standalone="no"?>
<svg width="70px" height="43px" viewBox="0 0 70 43" version="1.1" xmlns="http://www.w3.org/2000/svg" xmlns:xlink="http://www.w3.org/1999/xlink">
    <!-- Generator: Sketch 3.7.2 (28276) - http://www.bohemiancoding.com/sketch -->
    <title>portfolio-title-breadcrumbs</title>
    <desc>Created with Sketch.</desc>
    <defs>
        <rect id="path-1" x="0" y="0" width="70" height="42.5531915" rx="4"></rect>
        <mask id="mask-2" maskContentUnits="userSpaceOnUse" maskUnits="objectBoundingBox" x="0" y="0" width="70" height="42.5531915" fill="white">
            <use xlink:href="#path-1"></use>
        </mask>
        <mask id="mask-4" maskContentUnits="userSpaceOnUse" maskUnits="objectBoundingBox" x="0" y="0" width="70" height="42.5531915" fill="white">
            <use xlink:href="#path-1"></use>
        </mask>
        <rect id="path-5" x="10.249461" y="27.1428571" width="50.7281105" height="45.1902419"></rect>
        <mask id="mask-6" maskContentUnits="userSpaceOnUse" maskUnits="objectBoundingBox" x="0" y="0" width="50.7281105" height="45.1902419" fill="white">
            <use xlink:href="#path-5"></use>
        </mask>
        <rect id="path-7" x="-5.03625332" y="-24.2857143" width="89.750539" height="45.1902419"></rect>
        <mask id="mask-8" maskContentUnits="userSpaceOnUse" maskUnits="objectBoundingBox" x="0" y="0" width="89.750539" height="45.1902419" fill="white">
            <use xlink:href="#path-7"></use>
        </mask>
    </defs>
    <g id="Page-1" stroke="none" stroke-width="1" fill="none" fill-rule="evenodd">
        <g id="portfolio-title-breadcrumbs">
            <mask id="mask-3" fill="white">
                <use xlink:href="#path-1"></use>
            </mask>
            <g id="Mask" stroke="#3498DB" mask="url(#mask-2)" stroke-width="2" fill-opacity="0.01" fill="#00A0D2">
                <use mask="url(#mask-4)" xlink:href="#path-1"></use>
            </g>
            <g id="Rectangle-5" mask="url(#mask-3)" stroke="#3498DB" stroke-width="2" fill="#3498DB" fill-opacity="0.127858922">
                <use mask="url(#mask-6)" xlink:href="#path-5"></use>
            </g>
            <g id="Rectangle-5" mask="url(#mask-3)" stroke="#3498DB" stroke-width="2" fill="#00A0D2" fill-opacity="0.01">
                <use mask="url(#mask-8)" xlink:href="#path-7"></use>
            </g>
            <path d="M14.6335283,7.54574468 L14.6335283,8.6037234 L12.6808498,8.6037234 L12.6808498,14.4680851 L11.4733313,14.4680851 L11.4733313,8.6037234 L9.51167488,8.6037234 L9.51167488,7.54574468 L14.6335283,7.54574468 Z M16.5188732,9.55638298 L16.5188732,14.4680851 L15.4101108,14.4680851 L15.4101108,9.55638298 L16.5188732,9.55638298 Z M16.6849631,8.125 C16.6849631,8.22712817 16.6655113,8.32287189 16.6266071,8.41223404 C16.587703,8.50159619 16.536081,8.5797869 16.4717395,8.64680851 C16.4073981,8.71383012 16.3318354,8.76728703 16.2450493,8.80718085 C16.1582631,8.84707467 16.0654931,8.86702128 15.9667365,8.86702128 C15.8709724,8.86702128 15.7804469,8.84707467 15.695157,8.80718085 C15.6098672,8.76728703 15.5358008,8.71383012 15.4729557,8.64680851 C15.4101105,8.5797869 15.3599848,8.50159619 15.322577,8.41223404 C15.2851691,8.32287189 15.2664655,8.22712817 15.2664655,8.125 C15.2664655,8.01968032 15.2851691,7.92074514 15.322577,7.82819149 C15.3599848,7.73563784 15.4101105,7.6558514 15.4729557,7.58882979 C15.5358008,7.52180818 15.6098672,7.46835126 15.695157,7.42845745 C15.7804469,7.38856363 15.8709724,7.36861702 15.9667365,7.36861702 C16.0654931,7.36861702 16.1582631,7.38856363 16.2450493,7.42845745 C16.3318354,7.46835126 16.4073981,7.52180818 16.4717395,7.58882979 C16.536081,7.6558514 16.587703,7.73563784 16.6266071,7.82819149 C16.6655113,7.92074514 16.6849631,8.01968032 16.6849631,8.125 L16.6849631,8.125 Z M19.2840456,14.5446809 C18.8860263,14.5446809 18.5792868,14.4242033 18.3638177,14.1832447 C18.1483487,13.942286 18.0406158,13.6095766 18.0406158,13.1851064 L18.0406158,10.4420213 L17.5737685,10.4420213 C17.513916,10.4420213 17.4622939,10.4212768 17.4189009,10.3797872 C17.3755078,10.3382977 17.3538116,10.2760642 17.3538116,10.1930851 L17.3538116,9.72393617 L18.0944828,9.59468085 L18.3279064,8.25425532 C18.3398769,8.19042521 18.3675583,8.14095762 18.4109514,8.10585106 C18.4543444,8.07074451 18.508959,8.05319149 18.5747968,8.05319149 L19.1493781,8.05319149 L19.1493781,9.59946809 L20.3613855,9.59946809 L20.3613855,10.4420213 L19.1493781,10.4420213 L19.1493781,13.1037234 C19.1493781,13.2569157 19.185289,13.3765953 19.2571121,13.462766 C19.3289351,13.5489366 19.4246977,13.5920213 19.5444027,13.5920213 C19.6132331,13.5920213 19.6708403,13.5832448 19.717226,13.5656915 C19.7636117,13.5481382 19.8040115,13.5297873 19.8384267,13.5106383 C19.8728419,13.4914893 19.9035159,13.4731384 19.9304495,13.4555851 C19.9573831,13.4380318 19.9843164,13.4292553 20.01125,13.4292553 C20.0441689,13.4292553 20.0711021,13.4380318 20.0920505,13.4555851 C20.1129989,13.4731384 20.1354432,13.4994679 20.1593842,13.5345745 L20.491564,14.1090426 C20.3299622,14.2526603 20.1444222,14.3611698 19.9349384,14.4345745 C19.7254546,14.5079791 19.5084925,14.5446809 19.2840456,14.5446809 L19.2840456,14.5446809 Z M22.4262869,7.35425532 L22.4262869,14.4680851 L21.3175246,14.4680851 L21.3175246,7.35425532 L22.4262869,7.35425532 Z M25.5819951,9.47978723 C25.8722798,9.47978723 26.1393676,9.52925482 26.3832666,9.62819149 C26.6271656,9.72712815 26.8373944,9.8715416 27.0139594,10.0614362 C27.1905243,10.2513307 27.328183,10.4843071 27.4269397,10.7603723 C27.5256963,11.0364376 27.5750739,11.351594 27.5750739,11.7058511 C27.5750739,11.7952132 27.5713332,11.8694146 27.5638516,11.9284574 C27.55637,11.9875003 27.5429034,12.0337764 27.5234514,12.0672872 C27.5039993,12.100798 27.4778142,12.124734 27.4448953,12.1390957 C27.4119764,12.1534575 27.3700803,12.1606383 27.3192057,12.1606383 L24.4732328,12.1606383 C24.5061516,12.6648961 24.6333363,13.0351052 24.8547906,13.2712766 C25.0762449,13.507448 25.3695179,13.6255319 25.7346182,13.6255319 C25.9141758,13.6255319 26.0690418,13.6031917 26.1992211,13.5585106 C26.3294003,13.5138296 26.4431184,13.464362 26.5403787,13.4101064 C26.637639,13.3558508 26.7229276,13.3063832 26.7962469,13.2617021 C26.8695663,13.2170211 26.94064,13.1946809 27.0094704,13.1946809 C27.0543598,13.1946809 27.0932634,13.2042552 27.1261823,13.2234043 C27.1591011,13.2425533 27.1875307,13.2696807 27.2114717,13.3047872 L27.5346736,13.7356383 C27.411976,13.8888306 27.2743173,14.0172867 27.1216933,14.1210106 C26.9690694,14.2247346 26.8097145,14.3077125 26.6436238,14.3699468 C26.477533,14.4321812 26.3084522,14.4760637 26.1363762,14.5015957 C25.9643002,14.5271278 25.7974639,14.5398936 25.6358621,14.5398936 C25.3156511,14.5398936 25.0178893,14.4832452 24.7425677,14.3699468 C24.4672462,14.2566484 24.2278397,14.0890969 24.0243411,13.8672872 C23.8208426,13.6454776 23.6607395,13.3710123 23.5440271,13.043883 C23.4273147,12.7167537 23.3689594,12.3377681 23.3689594,11.9069149 C23.3689594,11.5718068 23.4198332,11.2566504 23.5215825,10.9614362 C23.6233318,10.6662219 23.7692201,10.4093096 23.9592518,10.1906915 C24.1492836,9.97207337 24.3812086,9.79893681 24.6550339,9.6712766 C24.9288591,9.54361638 25.2378431,9.47978723 25.5819951,9.47978723 L25.5819951,9.47978723 Z M25.6044397,10.3271277 C25.2812361,10.3271277 25.028363,10.4244671 24.8458128,10.6191489 C24.6632626,10.8138308 24.546552,11.0898918 24.4956773,11.4473404 L26.5785345,11.4473404 C26.5785345,11.2941482 26.5590827,11.1497347 26.5201786,11.0140957 C26.4812744,10.8784568 26.4214228,10.759575 26.3406219,10.6574468 C26.259821,10.5553186 26.1580733,10.4747343 26.0353756,10.4156915 C25.912678,10.3566486 25.7690341,10.3271277 25.6044397,10.3271277 L25.6044397,10.3271277 Z" id="Title" fill="#3498DB" mask="url(#mask-3)"></path>
            <path d="M38,13.6691256 L38,9.0510985 L39.5936345,9.0510985 C39.8959688,9.0510985 40.1541201,9.07984112 40.3680962,9.13732722 C40.5820722,9.19481332 40.7577216,9.27678302 40.8950495,9.38323876 C41.0323774,9.4896945 41.1329765,9.61850402 41.19685,9.76967118 C41.2607234,9.92083833 41.2926597,10.091165 41.2926597,10.2806562 C41.2926597,10.389241 41.2766916,10.4930338 41.2447548,10.5920377 C41.2128181,10.6910415 41.1633169,10.7836566 41.0962498,10.8698858 C41.0291827,10.9561149 40.9440194,11.0343587 40.8407573,11.1046195 C40.7374952,11.1748803 40.6145407,11.2344946 40.47189,11.2834643 C41.1063662,11.426115 41.4235996,11.7688973 41.4235996,12.3118216 C41.4235996,12.5077002 41.3863406,12.6886722 41.3118216,12.8547432 C41.2373026,13.0208142 41.1287194,13.163995 40.9860687,13.28429 C40.843418,13.404585 40.6677686,13.4987969 40.4591154,13.5669286 C40.2504621,13.6350602 40.0120048,13.6691256 39.7437364,13.6691256 L38,13.6691256 Z M38.8590936,11.6443474 L38.8590936,12.9984577 L39.7309617,12.9984577 C39.8906453,12.9984577 40.0242453,12.979296 40.1317656,12.9409719 C40.2392859,12.9026479 40.3255138,12.8515499 40.3904518,12.7876764 C40.4553898,12.723803 40.5022296,12.6492851 40.5309726,12.5641205 C40.5597157,12.4789559 40.574087,12.3884699 40.574087,12.2926597 C40.574087,12.1925913 40.5581189,12.1026375 40.5261822,12.0227957 C40.4942454,11.9429539 40.444212,11.8748233 40.3760803,11.8184017 C40.3079486,11.7619802 40.2206562,11.7188662 40.1142005,11.6890586 C40.0077448,11.659251 39.8789352,11.6443474 39.7277681,11.6443474 L38.8590936,11.6443474 Z M38.8590936,11.0503274 L39.5457297,11.0503274 C39.8374184,11.0503274 40.058843,10.9971003 40.2100102,10.8906446 C40.3611773,10.7841888 40.4367598,10.6149267 40.4367598,10.3828532 C40.4367598,10.1422632 40.3686291,9.97087204 40.2323658,9.86867452 C40.0961024,9.76647701 39.8831941,9.71537902 39.5936345,9.71537902 L38.8590936,9.71537902 L38.8590936,11.0503274 Z M43.0491707,11.8647097 L43.0491707,13.6691256 L42.1900771,13.6691256 L42.1900771,9.0510985 L43.5984796,9.0510985 C43.9135886,9.0510985 44.1834498,9.08356702 44.4080714,9.14850502 C44.6326931,9.21344302 44.8168587,9.30446132 44.960574,9.42156264 C45.1042892,9.53866395 45.2096788,9.67865116 45.276746,9.84152844 C45.3438131,10.0044057 45.3773461,10.183781 45.3773461,10.3796595 C45.3773461,10.5350849 45.3544585,10.6819916 45.3086825,10.8203841 C45.2629066,10.9587766 45.196905,11.0843925 45.1106758,11.1972356 C45.0244467,11.3100786 44.9179925,11.409081 44.7913102,11.4942456 C44.6646279,11.5794102 44.5203825,11.6475408 44.3585698,11.6986396 C44.4671546,11.7603839 44.5608343,11.8487409 44.6396115,11.9637131 L45.7957151,13.6691256 L45.0228503,13.6691256 C44.9483313,13.6691256 44.884991,13.654222 44.8328277,13.6244144 C44.7806644,13.5946068 44.7364859,13.5520251 44.700291,13.4966681 L43.7294195,12.0180052 C43.6932245,11.9626483 43.6533042,11.9232602 43.6096574,11.89984 C43.5660105,11.8764197 43.5016057,11.8647097 43.4164411,11.8647097 L43.0491707,11.8647097 Z M43.0491707,11.2483341 L43.5857049,11.2483341 C43.7475177,11.2483341 43.8885694,11.2281078 44.0088644,11.1876546 C44.1291594,11.1472014 44.2281617,11.091313 44.3058744,11.0199876 C44.3835871,10.9486623 44.4416046,10.8640312 44.4799287,10.766092 C44.5182528,10.6681527 44.5374145,10.560634 44.5374145,10.4435327 C44.5374145,10.20933 44.4602353,10.0294225 44.3058744,9.90380474 C44.1515136,9.77818697 43.9157177,9.71537902 43.5984796,9.71537902 L43.0491707,9.71537902 L43.0491707,11.2483341 Z M49.2576386,9.0510985 L49.2576386,9.73454096 L47.2105049,9.73454096 L47.2105049,11.0151971 L48.8233013,11.0151971 L48.8233013,11.676284 L47.2105049,11.676284 L47.2105049,12.9824895 L49.2576386,12.9824895 L49.2576386,13.6691256 L46.345024,13.6691256 L46.345024,9.0510985 L49.2576386,9.0510985 Z M54.0608977,13.6691256 L53.3966172,13.6691256 C53.3220982,13.6691256 53.260887,13.6504961 53.212982,13.6132366 C53.1650769,13.5759771 53.1304793,13.5296695 53.1091881,13.4743125 L52.7642732,12.5321839 L50.8512731,12.5321839 L50.5063582,13.4743125 C50.4893253,13.5232822 50.4557922,13.5679929 50.405758,13.6084461 C50.3557238,13.6488993 50.2945127,13.6691256 50.2221228,13.6691256 L49.5546486,13.6691256 L51.3686454,9.0510985 L52.2469009,9.0510985 L54.0608977,13.6691256 Z M51.0716354,11.9253892 L52.543911,11.9253892 L51.9818274,10.3892405 C51.9562781,10.3211088 51.9280677,10.2407359 51.8971955,10.1481195 C51.8663234,10.055503 51.835984,9.95490379 51.8061763,9.84631893 C51.7763687,9.95490379 51.7470938,10.0560352 51.7183508,10.1497163 C51.6896077,10.2433973 51.6613974,10.325367 51.6337189,10.3956278 L51.0716354,11.9253892 Z M58.6374072,11.360112 C58.6374072,11.6986413 58.5809865,12.0094874 58.4681435,12.2926597 C58.3553004,12.575832 58.1966837,12.819612 57.9922887,13.024007 C57.7878936,13.228402 57.5419846,13.3870187 57.2545541,13.4998618 C56.9671235,13.6127049 56.6488256,13.6691256 56.2996508,13.6691256 L54.5367525,13.6691256 L54.5367525,9.0510985 L56.2996508,9.0510985 C56.6488256,9.0510985 56.9671235,9.10805147 57.2545541,9.22195912 C57.5419846,9.33586676 57.7878936,9.49448344 57.9922887,9.69781391 C58.1966837,9.90114438 58.3553004,10.1443921 58.4681435,10.4275644 C58.5809865,10.7107367 58.6374072,11.0215828 58.6374072,11.360112 L58.6374072,11.360112 Z M57.7591518,11.360112 C57.7591518,11.1067474 57.7250864,10.8794678 57.6569548,10.6782664 C57.5888231,10.477065 57.4919498,10.3067384 57.366332,10.1672814 C57.2407142,10.0278244 57.0879525,9.92083795 56.9080423,9.84631893 C56.7281321,9.77179991 56.525337,9.73454096 56.2996508,9.73454096 L55.4022334,9.73454096 L55.4022334,12.9856831 L56.2996508,12.9856831 C56.525337,12.9856831 56.7281321,12.9484242 56.9080423,12.8739051 C57.0879525,12.7993861 57.2407142,12.6923997 57.366332,12.5529427 C57.4919498,12.4134857 57.5888231,12.243159 57.6569548,12.0419577 C57.7250864,11.8407563 57.7591518,11.6134767 57.7591518,11.360112 L57.7591518,11.360112 Z M62.4857631,12.5800888 C62.5326037,12.5800888 62.5730562,12.598186 62.6071221,12.6343809 L62.9456496,13.0016514 C62.7582875,13.2337249 62.5278143,13.4115033 62.254223,13.534992 C61.9806318,13.6584807 61.6522207,13.7202241 61.2689801,13.7202241 C60.9261926,13.7202241 60.6180078,13.6616743 60.3444166,13.544573 C60.0708253,13.4274716 59.8371584,13.2645968 59.643409,13.0559435 C59.4496595,12.8472903 59.301156,12.5981876 59.1978939,12.308628 C59.0946319,12.0190683 59.0430016,11.7028995 59.0430016,11.360112 C59.0430016,11.0130663 59.1004868,10.6953007 59.215459,10.4068056 C59.3304312,10.1183106 59.4922415,9.86974012 59.7008948,9.66108686 C59.9095481,9.4524336 60.159183,9.29009103 60.4498072,9.17405427 C60.7404314,9.05801751 61.0613906,9 61.4126946,9 C61.7554821,9 62.0551505,9.05482389 62.3117089,9.1644733 C62.5682672,9.27412272 62.788095,9.41943263 62.9711989,9.60040739 L62.6837698,9.99961443 C62.6667369,10.0251638 62.6449138,10.0475192 62.6182999,10.0666812 C62.5916859,10.0858433 62.5549593,10.0954241 62.5081187,10.0954241 C62.4591491,10.0954241 62.4091156,10.0762624 62.3580169,10.0379383 C62.3069181,9.99961424 62.2419811,9.95809712 62.1632038,9.91338571 C62.0844266,9.8686743 61.984892,9.82715718 61.864597,9.78883312 C61.744302,9.75050905 61.5915403,9.7313473 61.4063073,9.7313473 C61.1891376,9.7313473 60.989536,9.76913852 60.8074967,9.8447221 C60.6254574,9.92030568 60.4689698,10.0283566 60.3380292,10.1688782 C60.2070887,10.3093998 60.1048927,10.4802587 60.0314382,10.6814601 C59.9579838,10.8826614 59.9212571,11.1088765 59.9212571,11.360112 C59.9212571,11.619864 59.9579838,11.8508695 60.0314382,12.0531355 C60.1048927,12.2554014 60.2044273,12.425728 60.3300451,12.5641205 C60.4556629,12.7025129 60.6036341,12.8084348 60.7739633,12.8818893 C60.9442925,12.9553437 61.1273937,12.9920704 61.3232722,12.9920704 C61.4403735,12.9920704 61.5462954,12.9856832 61.641041,12.9729085 C61.7357866,12.9601338 61.823079,12.9399075 61.9029208,12.912229 C61.9827627,12.8845505 62.0583451,12.8488884 62.1296704,12.8052415 C62.2009958,12.7615947 62.2717878,12.7078353 62.3420486,12.6439619 C62.3633397,12.6247998 62.3856951,12.609364 62.4091154,12.5976539 C62.4325356,12.5859437 62.4580846,12.5800888 62.4857631,12.5800888 L62.4857631,12.5800888 Z M64.4817983,11.8647097 L64.4817983,13.6691256 L63.6227048,13.6691256 L63.6227048,9.0510985 L65.0311072,9.0510985 C65.3462162,9.0510985 65.6160775,9.08356702 65.8406991,9.14850502 C66.0653207,9.21344302 66.2494864,9.30446132 66.3932017,9.42156264 C66.5369169,9.53866395 66.6423065,9.67865116 66.7093736,9.84152844 C66.7764408,10.0044057 66.8099738,10.183781 66.8099738,10.3796595 C66.8099738,10.5350849 66.7870862,10.6819916 66.7413102,10.8203841 C66.6955342,10.9587766 66.6295327,11.0843925 66.5433035,11.1972356 C66.4570744,11.3100786 66.3506202,11.409081 66.2239379,11.4942456 C66.0972555,11.5794102 65.9530102,11.6475408 65.7911974,11.6986396 C65.8997823,11.7603839 65.9934619,11.8487409 66.0722392,11.9637131 L67.2283428,13.6691256 L66.455478,13.6691256 C66.3809589,13.6691256 66.3176187,13.654222 66.2654554,13.6244144 C66.2132921,13.5946068 66.1691136,13.5520251 66.1329187,13.4966681 L65.1620471,12.0180052 C65.1258522,11.9626483 65.0859319,11.9232602 65.042285,11.89984 C64.9986382,11.8764197 64.9342334,11.8647097 64.8490688,11.8647097 L64.4817983,11.8647097 Z M64.4817983,11.2483341 L65.0183326,11.2483341 C65.1801453,11.2483341 65.3211971,11.2281078 65.4414921,11.1876546 C65.5617871,11.1472014 65.6607894,11.091313 65.7385021,11.0199876 C65.8162148,10.9486623 65.8742323,10.8640312 65.9125564,10.766092 C65.9508804,10.6681527 65.9700422,10.560634 65.9700422,10.4435327 C65.9700422,10.20933 65.8928629,10.0294225 65.7385021,9.90380474 C65.5841413,9.77818697 65.3483453,9.71537902 65.0311072,9.71537902 L64.4817983,9.71537902 L64.4817983,11.2483341 Z M69.4734832,12.9761021 C69.6395542,12.9761021 69.7880577,12.9484241 69.9189983,12.8930671 C70.0499388,12.8377101 70.1606511,12.7599986 70.2511385,12.6599302 C70.3416259,12.5598618 70.4108211,12.438504 70.4587262,12.2958533 C70.5066313,12.1532026 70.5305834,11.9935214 70.5305834,11.8168049 L70.5305834,9.0510985 L71.389677,9.0510985 L71.389677,11.8168049 C71.389677,12.0914607 71.3454985,12.3453538 71.2571403,12.5784919 C71.168782,12.81163 71.0415693,13.0128283 70.8754983,13.182093 C70.7094274,13.3513576 70.508229,13.4833607 70.2718973,13.5781064 C70.0355655,13.672852 69.7694302,13.7202241 69.4734832,13.7202241 C69.1775362,13.7202241 68.9114009,13.672852 68.6750691,13.5781064 C68.4387374,13.4833607 68.2380713,13.3513576 68.0730649,13.182093 C67.9080585,13.0128283 67.7813781,12.81163 67.6930198,12.5784919 C67.6046615,12.3453538 67.560483,12.0914607 67.560483,11.8168049 L67.560483,9.0510985 L68.4195766,9.0510985 L68.4195766,11.8136112 C68.4195766,11.9903278 68.4435288,12.150009 68.4914339,12.2926597 C68.539339,12.4353104 68.6080019,12.5572004 68.6974247,12.6583333 C68.7868475,12.7594663 68.8970276,12.8377101 69.0279681,12.8930671 C69.1589087,12.9484241 69.3074122,12.9761021 69.4734832,12.9761021 L69.4734832,12.9761021 Z M74.5833333,11.7529318 C74.6195283,11.8210634 74.6530613,11.8918554 74.6839335,11.9653099 C74.7148057,12.0387644 74.7451451,12.11275 74.7749527,12.187269 C74.8047603,12.1106209 74.835632,12.0350384 74.8675687,11.9605194 C74.8995055,11.8860004 74.9335708,11.8146761 74.9697658,11.7465444 L76.3366507,9.18842572 C76.3536836,9.156489 76.3712485,9.13094001 76.389346,9.11177797 C76.4074435,9.09261594 76.4276698,9.0787769 76.4500255,9.07026044 C76.4723812,9.06174398 76.4973979,9.05642127 76.5250764,9.05429216 C76.5527549,9.05216304 76.5857557,9.0510985 76.6240797,9.0510985 L77.272392,9.0510985 L77.272392,13.6691256 L76.5154954,13.6691256 L76.5154954,10.6862505 C76.5154954,10.6308936 76.5170922,10.5702147 76.5202859,10.5042121 C76.5234796,10.4382096 76.52827,10.3711435 76.5346574,10.3030118 L75.1390295,12.92181 C75.1070928,12.9814252 75.0655757,13.0277328 75.0144769,13.060734 C74.9633782,13.0937353 74.9037639,13.1102357 74.8356322,13.1102357 L74.7174669,13.1102357 C74.6493352,13.1102357 74.5897209,13.0937353 74.5386221,13.060734 C74.4875234,13.0277328 74.4460063,12.9814252 74.4140695,12.92181 L72.9992798,10.2934308 C73.0077962,10.3636916 73.0136512,10.4323545 73.0168449,10.4994216 C73.0200386,10.5664888 73.0216354,10.6287644 73.0216354,10.6862505 L73.0216354,13.6691256 L72.2647388,13.6691256 L72.2647388,9.0510985 L72.9130511,9.0510985 C72.9513751,9.0510985 72.9843759,9.05216304 73.0120544,9.05429216 C73.0397329,9.05642127 73.0647496,9.06174398 73.0871053,9.07026044 C73.109461,9.0787769 73.1302196,9.09261594 73.1493816,9.11177797 C73.1685437,9.13094001 73.1866409,9.156489 73.2036738,9.18842572 L74.5833333,11.7529318 Z M78.2049396,13.6691256 L78.2049396,9.0510985 L79.7985741,9.0510985 C80.1009084,9.0510985 80.3590597,9.07984112 80.5730358,9.13732722 C80.7870118,9.19481332 80.9626612,9.27678302 81.0999891,9.38323876 C81.237317,9.4896945 81.3379162,9.61850402 81.4017896,9.76967118 C81.4656631,9.92083833 81.4975993,10.091165 81.4975993,10.2806562 C81.4975993,10.389241 81.4816312,10.4930338 81.4496945,10.5920377 C81.4177577,10.6910415 81.3682566,10.7836566 81.3011894,10.8698858 C81.2341223,10.9561149 81.148959,11.0343587 81.0456969,11.1046195 C80.9424349,11.1748803 80.8194803,11.2344946 80.6768296,11.2834643 C81.3113059,11.426115 81.6285392,11.7688973 81.6285392,12.3118216 C81.6285392,12.5077002 81.5912803,12.6886722 81.5167612,12.8547432 C81.4422422,13.0208142 81.333659,13.163995 81.1910083,13.28429 C81.0483576,13.404585 80.8727083,13.4987969 80.664055,13.5669286 C80.4554017,13.6350602 80.2169445,13.6691256 79.948676,13.6691256 L78.2049396,13.6691256 Z M79.0640332,11.6443474 L79.0640332,12.9984577 L79.9359014,12.9984577 C80.095585,12.9984577 80.2291849,12.979296 80.3367052,12.9409719 C80.4442255,12.9026479 80.5304534,12.8515499 80.5953914,12.7876764 C80.6603294,12.723803 80.7071692,12.6492851 80.7359123,12.5641205 C80.7646553,12.4789559 80.7790266,12.3884699 80.7790266,12.2926597 C80.7790266,12.1925913 80.7630585,12.1026375 80.7311218,12.0227957 C80.6991851,11.9429539 80.6491516,11.8748233 80.5810199,11.8184017 C80.5128883,11.7619802 80.4255959,11.7188662 80.3191401,11.6890586 C80.2126844,11.659251 80.0838749,11.6443474 79.9327077,11.6443474 L79.0640332,11.6443474 Z M79.0640332,11.0503274 L79.7506693,11.0503274 C80.042358,11.0503274 80.2637826,10.9971003 80.4149498,10.8906446 C80.566117,10.7841888 80.6416994,10.6149267 80.6416994,10.3828532 C80.6416994,10.1422632 80.5735687,9.97087204 80.4373054,9.86867452 C80.301042,9.76647701 80.0881338,9.71537902 79.7985741,9.71537902 L79.0640332,9.71537902 L79.0640332,11.0503274 Z" id="BREADCRUMB" fill="#3498DB" opacity="0.603603078" mask="url(#mask-3)"></path>
        </g>
    </g>
</svg>