<?xml version="1.0" encoding="UTF-8" standalone="no"?>
<svg width="70px" height="44px" viewBox="0 0 70 44" version="1.1" xmlns="http://www.w3.org/2000/svg" xmlns:xlink="http://www.w3.org/1999/xlink">
    <!-- Generator: Sketch 3.7.2 (28276) - http://www.bohemiancoding.com/sketch -->
    <title>product-page-title-featured-center</title>
    <desc>Created with Sketch.</desc>
    <defs>
        <rect id="path-1" x="0" y="0" width="70" height="42.5531915" rx="4"></rect>
        <mask id="mask-2" maskContentUnits="userSpaceOnUse" maskUnits="objectBoundingBox" x="0" y="0" width="70" height="42.5531915" fill="white">
            <use xlink:href="#path-1"></use>
        </mask>
        <mask id="mask-4" maskContentUnits="userSpaceOnUse" maskUnits="objectBoundingBox" x="0" y="0" width="70" height="42.5531915" fill="white">
            <use xlink:href="#path-1"></use>
        </mask>
        <rect id="path-5" x="10.249461" y="27.1428571" width="50.7281105" height="45.1902419"></rect>
        <mask id="mask-6" maskContentUnits="userSpaceOnUse" maskUnits="objectBoundingBox" x="0" y="0" width="50.7281105" height="45.1902419" fill="white">
            <use xlink:href="#path-5"></use>
        </mask>
    </defs>
    <g id="Page-1" stroke="none" stroke-width="1" fill="none" fill-rule="evenodd">
        <g id="product-page-title-featured-center" transform="translate(0.000000, 0.767750)">
            <mask id="mask-3" fill="white">
                <use xlink:href="#path-1"></use>
            </mask>
            <g id="Mask" stroke="#3498DB" mask="url(#mask-2)" stroke-width="2" fill-opacity="0.01" fill="#00A0D2">
                <use mask="url(#mask-4)" xlink:href="#path-1"></use>
            </g>
            <g id="Rectangle-5" mask="url(#mask-3)" stroke="#3498DB" stroke-width="2" fill="#3498DB" fill-opacity="0.127858922">
                <use mask="url(#mask-6)" xlink:href="#path-5"></use>
            </g>
            <rect id="Rectangle-5" fill="#3498DB" mask="url(#mask-3)" x="-4.03625332" y="-24.2857143" width="89.750539" height="45.1902419"></rect>
            <path d="M30.9192426,7.54574468 L30.9192426,8.6037234 L28.966564,8.6037234 L28.966564,14.4680851 L27.7590456,14.4680851 L27.7590456,8.6037234 L25.7973892,8.6037234 L25.7973892,7.54574468 L30.9192426,7.54574468 Z M32.8045874,9.55638298 L32.8045874,14.4680851 L31.6958251,14.4680851 L31.6958251,9.55638298 L32.8045874,9.55638298 Z M32.9706773,8.125 C32.9706773,8.22712817 32.9512256,8.32287189 32.9123214,8.41223404 C32.8734173,8.50159619 32.8217953,8.5797869 32.7574538,8.64680851 C32.6931124,8.71383012 32.6175497,8.76728703 32.5307635,8.80718085 C32.4439774,8.84707467 32.3512074,8.86702128 32.2524507,8.86702128 C32.1566867,8.86702128 32.0661611,8.84707467 31.9808713,8.80718085 C31.8955815,8.76728703 31.8215151,8.71383012 31.75867,8.64680851 C31.6958248,8.5797869 31.6456991,8.50159619 31.6082913,8.41223404 C31.5708834,8.32287189 31.5521798,8.22712817 31.5521798,8.125 C31.5521798,8.01968032 31.5708834,7.92074514 31.6082913,7.82819149 C31.6456991,7.73563784 31.6958248,7.6558514 31.75867,7.58882979 C31.8215151,7.52180818 31.8955815,7.46835126 31.9808713,7.42845745 C32.0661611,7.38856363 32.1566867,7.36861702 32.2524507,7.36861702 C32.3512074,7.36861702 32.4439774,7.38856363 32.5307635,7.42845745 C32.6175497,7.46835126 32.6931124,7.52180818 32.7574538,7.58882979 C32.8217953,7.6558514 32.8734173,7.73563784 32.9123214,7.82819149 C32.9512256,7.92074514 32.9706773,8.01968032 32.9706773,8.125 L32.9706773,8.125 Z M35.5697599,14.5446809 C35.1717406,14.5446809 34.8650011,14.4242033 34.649532,14.1832447 C34.434063,13.942286 34.32633,13.6095766 34.32633,13.1851064 L34.32633,10.4420213 L33.8594828,10.4420213 C33.7996302,10.4420213 33.7480082,10.4212768 33.7046151,10.3797872 C33.6612221,10.3382977 33.6395259,10.2760642 33.6395259,10.1930851 L33.6395259,9.72393617 L34.380197,9.59468085 L34.6136207,8.25425532 C34.6255912,8.19042521 34.6532726,8.14095762 34.6966656,8.10585106 C34.7400587,8.07074451 34.7946733,8.05319149 34.8605111,8.05319149 L35.4350924,8.05319149 L35.4350924,9.59946809 L36.6470998,9.59946809 L36.6470998,10.4420213 L35.4350924,10.4420213 L35.4350924,13.1037234 C35.4350924,13.2569157 35.4710033,13.3765953 35.5428264,13.462766 C35.6146494,13.5489366 35.710412,13.5920213 35.830117,13.5920213 C35.8989474,13.5920213 35.9565546,13.5832448 36.0029403,13.5656915 C36.049326,13.5481382 36.0897258,13.5297873 36.124141,13.5106383 C36.1585562,13.4914893 36.1892302,13.4731384 36.2161638,13.4555851 C36.2430974,13.4380318 36.2700307,13.4292553 36.2969643,13.4292553 C36.3298832,13.4292553 36.3568164,13.4380318 36.3777648,13.4555851 C36.3987132,13.4731384 36.4211575,13.4994679 36.4450985,13.5345745 L36.7772783,14.1090426 C36.6156765,14.2526603 36.4301365,14.3611698 36.2206527,14.4345745 C36.0111689,14.5079791 35.7942068,14.5446809 35.5697599,14.5446809 L35.5697599,14.5446809 Z M38.7120012,7.35425532 L38.7120012,14.4680851 L37.6032389,14.4680851 L37.6032389,7.35425532 L38.7120012,7.35425532 Z M41.8677094,9.47978723 C42.1579941,9.47978723 42.4250819,9.52925482 42.6689809,9.62819149 C42.9128799,9.72712815 43.1231087,9.8715416 43.2996736,10.0614362 C43.4762386,10.2513307 43.6138973,10.4843071 43.7126539,10.7603723 C43.8114106,11.0364376 43.8607882,11.351594 43.8607882,11.7058511 C43.8607882,11.7952132 43.8570475,11.8694146 43.8495659,11.9284574 C43.8420843,11.9875003 43.8286177,12.0337764 43.8091656,12.0672872 C43.7897136,12.100798 43.7635285,12.124734 43.7306096,12.1390957 C43.6976907,12.1534575 43.6557946,12.1606383 43.60492,12.1606383 L40.758947,12.1606383 C40.7918659,12.6648961 40.9190506,13.0351052 41.1405049,13.2712766 C41.3619592,13.507448 41.6552322,13.6255319 42.0203325,13.6255319 C42.1998901,13.6255319 42.3547561,13.6031917 42.4849353,13.5585106 C42.6151146,13.5138296 42.7288326,13.464362 42.826093,13.4101064 C42.9233533,13.3558508 43.0086419,13.3063832 43.0819612,13.2617021 C43.1552805,13.2170211 43.2263543,13.1946809 43.2951847,13.1946809 C43.3400741,13.1946809 43.3789777,13.2042552 43.4118966,13.2234043 C43.4448154,13.2425533 43.473245,13.2696807 43.497186,13.3047872 L43.8203879,13.7356383 C43.6976903,13.8888306 43.5600316,14.0172867 43.4074076,14.1210106 C43.2547837,14.2247346 43.0954288,14.3077125 42.9293381,14.3699468 C42.7632473,14.4321812 42.5941665,14.4760637 42.4220905,14.5015957 C42.2500145,14.5271278 42.0831781,14.5398936 41.9215764,14.5398936 C41.6013654,14.5398936 41.3036036,14.4832452 41.028282,14.3699468 C40.7529604,14.2566484 40.513554,14.0890969 40.3100554,13.8672872 C40.1065569,13.6454776 39.9464538,13.3710123 39.8297414,13.043883 C39.713029,12.7167537 39.6546736,12.3377681 39.6546736,11.9069149 C39.6546736,11.5718068 39.7055475,11.2566504 39.8072968,10.9614362 C39.9090461,10.6662219 40.0549344,10.4093096 40.2449661,10.1906915 C40.4349979,9.97207338 40.6669229,9.79893681 40.9407482,9.6712766 C41.2145734,9.54361638 41.5235574,9.47978723 41.8677094,9.47978723 L41.8677094,9.47978723 Z M41.8901539,10.3271277 C41.5669504,10.3271277 41.3140773,10.4244671 41.1315271,10.6191489 C40.9489769,10.8138308 40.8322663,11.0898918 40.7813916,11.4473404 L42.8642488,11.4473404 C42.8642488,11.2941482 42.844797,11.1497347 42.8058929,11.0140957 C42.7669887,10.8784568 42.7071371,10.759575 42.6263362,10.6574468 C42.5455353,10.5553186 42.4437876,10.4747343 42.3210899,10.4156915 C42.1983922,10.3566486 42.0547484,10.3271277 41.8901539,10.3271277 L41.8901539,10.3271277 Z" id="Title" fill="#FFFFFF" mask="url(#mask-3)"></path>
        </g>
    </g>
</svg>