<?xml version="1.0" encoding="UTF-8" standalone="no"?>
<svg width="70px" height="70px" viewBox="0 0 70 70" version="1.1" xmlns="http://www.w3.org/2000/svg" xmlns:xlink="http://www.w3.org/1999/xlink">
    <!-- Generator: Sketch 3.7.2 (28276) - http://www.bohemiancoding.com/sketch -->
    <title>product-box</title>
    <desc>Created with Sketch.</desc>
    <defs>
        <rect id="path-1" x="0" y="0" width="70" height="70" rx="4"></rect>
        <mask id="mask-2" maskContentUnits="userSpaceOnUse" maskUnits="objectBoundingBox" x="0" y="0" width="70" height="70" fill="white">
            <use xlink:href="#path-1"></use>
        </mask>
        <mask id="mask-4" maskContentUnits="userSpaceOnUse" maskUnits="objectBoundingBox" x="0" y="0" width="70" height="70" fill="white">
            <use xlink:href="#path-1"></use>
        </mask>
        <rect id="path-5" x="10" y="-8" width="50.7281105" height="45.1902419"></rect>
        <mask id="mask-6" maskContentUnits="userSpaceOnUse" maskUnits="objectBoundingBox" x="0" y="0" width="50.7281105" height="45.1902419" fill="white">
            <use xlink:href="#path-5"></use>
        </mask>
    </defs>
    <g id="Page-1" stroke="none" stroke-width="1" fill="none" fill-rule="evenodd">
        <g id="product-box">
            <mask id="mask-3" fill="white">
                <use xlink:href="#path-1"></use>
            </mask>
            <g id="Mask" stroke="#3498DB" mask="url(#mask-2)" stroke-width="2" fill-opacity="0.01" fill="#00A0D2">
                <use mask="url(#mask-4)" xlink:href="#path-1"></use>
            </g>
            <g id="Rectangle-5" mask="url(#mask-3)" stroke="#3498DB" stroke-width="2" fill="#3498DB" fill-opacity="0.127858922">
                <use mask="url(#mask-6)" xlink:href="#path-5"></use>
            </g>
            <path d="M13.1285,46.052 L13.1285,49 L12.067,49 L12.067,41.1185 L14.3935,41.1185 C14.8921692,41.1185 15.3257482,41.1762494 15.69425,41.29175 C16.0627518,41.4072506 16.3679988,41.5713323 16.61,41.784 C16.8520012,41.9966677 17.0325827,42.2533318 17.15175,42.554 C17.2709173,42.8546682 17.3305,43.1901648 17.3305,43.5605 C17.3305,43.9271685 17.266334,44.2626651 17.138,44.567 C17.009666,44.8713349 16.8217512,45.1334989 16.57425,45.3535 C16.3267488,45.5735011 16.0196685,45.7449161 15.653,45.86775 C15.2863315,45.9905839 14.8665024,46.052 14.3935,46.052 L13.1285,46.052 Z M13.1285,45.205 L14.3935,45.205 C14.6978349,45.205 14.9664155,45.1646671 15.19925,45.084 C15.4320845,45.0033329 15.6273325,44.8905841 15.785,44.74575 C15.9426675,44.6009159 16.0618329,44.4276677 16.1425,44.226 C16.2231671,44.0243323 16.2635,43.8025012 16.2635,43.5605 C16.2635,43.0581642 16.1085849,42.6658347 15.79875,42.3835 C15.4889151,42.1011653 15.0205031,41.96 14.3935,41.96 L13.1285,41.96 L13.1285,45.205 Z M18.524,49 L18.524,43.4285 L19.085,43.4285 C19.1913339,43.4285 19.2646665,43.4486665 19.305,43.489 C19.3453335,43.5293335 19.3728333,43.5989995 19.3875,43.698 L19.4535,44.567 C19.6441676,44.1783314 19.8797486,43.8749178 20.16025,43.65675 C20.4407514,43.4385822 20.7698314,43.3295 21.1475,43.3295 C21.3015008,43.3295 21.4408327,43.3469165 21.5655,43.38175 C21.6901673,43.4165835 21.8056661,43.4651664 21.912,43.5275 L21.7855,44.259 C21.7598332,44.3506671 21.7030004,44.3965 21.615,44.3965 C21.5636664,44.3965 21.4848339,44.3790835 21.3785,44.34425 C21.2721661,44.3094165 21.1236676,44.292 20.933,44.292 C20.5919983,44.292 20.3069178,44.390999 20.07775,44.589 C19.8485822,44.787001 19.6570008,45.0748314 19.503,45.4525 L19.503,49 L18.524,49 Z M25.212,43.3405 C25.619002,43.3405 25.9865817,43.4083327 26.31475,43.544 C26.6429183,43.6796673 26.9215822,43.8721654 27.15075,44.1215 C27.3799178,44.3708346 27.5559161,44.6724149 27.67875,45.02625 C27.8015839,45.3800851 27.863,45.7751645 27.863,46.2115 C27.863,46.6515022 27.8015839,47.0474982 27.67875,47.3995 C27.5559161,47.7515018 27.3799178,48.0521654 27.15075,48.3015 C26.9215822,48.5508346 26.6429183,48.742416 26.31475,48.87625 C25.9865817,49.010084 25.619002,49.077 25.212,49.077 C24.804998,49.077 24.4374183,49.010084 24.10925,48.87625 C23.7810817,48.742416 23.5015012,48.5508346 23.2705,48.3015 C23.0394988,48.0521654 22.8616673,47.7515018 22.737,47.3995 C22.6123327,47.0474982 22.55,46.6515022 22.55,46.2115 C22.55,45.7751645 22.6123327,45.3800851 22.737,45.02625 C22.8616673,44.6724149 23.0394988,44.3708346 23.2705,44.1215 C23.5015012,43.8721654 23.7810817,43.6796673 24.10925,43.544 C24.4374183,43.4083327 24.804998,43.3405 25.212,43.3405 L25.212,43.3405 Z M25.212,48.3125 C25.7620028,48.3125 26.1726653,48.1282518 26.444,47.75975 C26.7153347,47.3912482 26.851,46.8770033 26.851,46.217 C26.851,45.55333 26.7153347,45.0363352 26.444,44.666 C26.1726653,44.2956648 25.7620028,44.1105 25.212,44.1105 C24.9333319,44.1105 24.6913344,44.1581662 24.486,44.2535 C24.2806656,44.3488338 24.1092507,44.4863324 23.97175,44.666 C23.8342493,44.8456676 23.7315837,45.066582 23.66375,45.32875 C23.5959163,45.590918 23.562,45.8869983 23.562,46.217 C23.562,46.5470016 23.5959163,46.8421654 23.66375,47.1025 C23.7315837,47.3628346 23.8342493,47.5819158 23.97175,47.75975 C24.1092507,47.9375842 24.2806656,48.0741662 24.486,48.1695 C24.6913344,48.2648338 24.9333319,48.3125 25.212,48.3125 L25.212,48.3125 Z M32.9945,49 C32.855166,49 32.7671668,48.9321673 32.7305,48.7965 L32.6425,48.12 C32.4041655,48.4096681 32.1319182,48.6415825 31.82575,48.81575 C31.5195818,48.9899175 31.168502,49.077 30.7725,49.077 C30.4534984,49.077 30.1638346,49.0155839 29.9035,48.89275 C29.6431654,48.7699161 29.4213342,48.5893345 29.238,48.351 C29.0546657,48.1126655 28.9135005,47.8156684 28.8145,47.46 C28.7154995,47.1043316 28.666,46.6955023 28.666,46.2335 C28.666,45.8228313 28.7209995,45.4405851 28.831,45.08675 C28.9410005,44.7329149 29.0995823,44.4258346 29.30675,44.1655 C29.5139177,43.9051654 29.7659985,43.7007507 30.063,43.55225 C30.3600015,43.4037493 30.6973314,43.3295 31.075,43.3295 C31.4160017,43.3295 31.7074988,43.3872494 31.9495,43.50275 C32.1915012,43.6182506 32.4078324,43.780499 32.5985,43.9895 L32.5985,40.8985 L33.5775,40.8985 L33.5775,49 L32.9945,49 Z M31.097,48.285 C31.4160016,48.285 31.6955821,48.2116674 31.93575,48.065 C32.1759179,47.9183326 32.3968323,47.711168 32.5985,47.4435 L32.5985,44.7485 C32.4188324,44.5064988 32.2217511,44.3369172 32.00725,44.23975 C31.7927489,44.1425828 31.5553346,44.094 31.295,44.094 C30.7743307,44.094 30.3746681,44.2791648 30.096,44.6495 C29.8173319,45.0198352 29.678,45.5478299 29.678,46.2335 C29.678,46.5965018 29.7091664,46.9072487 29.7715,47.16575 C29.8338336,47.4242513 29.9254994,47.6369158 30.0465,47.80375 C30.1675006,47.9705842 30.3159991,48.0924996 30.492,48.1695 C30.6680009,48.2465004 30.8696655,48.285 31.097,48.285 L31.097,48.285 Z M36.069,43.4285 L36.069,46.9815 C36.069,47.4031688 36.1661657,47.7294988 36.3605,47.9605 C36.5548343,48.1915012 36.8481647,48.307 37.2405,48.307 C37.5265014,48.307 37.7959987,48.2391673 38.049,48.1035 C38.3020013,47.9678327 38.5348323,47.7790012 38.7475,47.537 L38.7475,43.4285 L39.7265,43.4285 L39.7265,49 L39.1435,49 C39.004166,49 38.9161668,48.9321673 38.8795,48.7965 L38.8025,48.197 C38.5604988,48.464668 38.2891682,48.6800825 37.9885,48.84325 C37.6878318,49.0064175 37.3431686,49.088 36.9545,49.088 C36.6501651,49.088 36.3815845,49.0375838 36.14875,48.93675 C35.9159155,48.8359162 35.7206675,48.6938342 35.563,48.5105 C35.4053325,48.3271657 35.2870837,48.1053346 35.20825,47.845 C35.1294163,47.5846654 35.09,47.2968349 35.09,46.9815 L35.09,43.4285 L36.069,43.4285 Z M45.1385,44.4185 C45.1091665,44.4588335 45.0798335,44.4899999 45.0505,44.512 C45.0211665,44.5340001 44.9790003,44.545 44.924,44.545 C44.8689997,44.545 44.809417,44.5220836 44.74525,44.47625 C44.681083,44.4304164 44.5995005,44.3800003 44.5005,44.325 C44.4014995,44.2699997 44.2814174,44.2195836 44.14025,44.17375 C43.9990826,44.1279164 43.8258344,44.105 43.6205,44.105 C43.3491653,44.105 43.109001,44.1535828 42.9,44.25075 C42.690999,44.3479172 42.5159174,44.4881657 42.37475,44.6715 C42.2335826,44.8548342 42.1272504,45.0766654 42.05575,45.337 C41.9842496,45.5973346 41.9485,45.8888317 41.9485,46.2115 C41.9485,46.548835 41.9869996,46.848582 42.064,47.11075 C42.1410004,47.372918 42.249166,47.5929158 42.3885,47.77075 C42.527834,47.9485842 42.6974157,48.0842495 42.89725,48.17775 C43.0970843,48.2712505 43.3216654,48.318 43.571,48.318 C43.8093345,48.318 44.0054992,48.2895836 44.1595,48.23275 C44.3135008,48.1759164 44.4418328,48.112667 44.5445,48.043 C44.6471672,47.973333 44.7314997,47.9100836 44.7975,47.85325 C44.8635003,47.7964164 44.9294997,47.768 44.9955,47.768 C45.0798338,47.768 45.1421665,47.7991664 45.1825,47.8615 L45.4575,48.219 C45.2154988,48.5160015 44.9130018,48.7332493 44.55,48.87075 C44.1869982,49.0082507 43.8038353,49.077 43.4005,49.077 C43.0521649,49.077 42.7285848,49.012834 42.42975,48.8845 C42.1309152,48.756166 41.8715011,48.5700846 41.6515,48.32625 C41.4314989,48.0824154 41.2582506,47.7826684 41.13175,47.427 C41.0052494,47.0713316 40.942,46.6661689 40.942,46.2115 C40.942,45.7971646 40.9997494,45.4140018 41.11525,45.062 C41.2307506,44.7099982 41.3994156,44.4065846 41.62125,44.15175 C41.8430844,43.8969154 42.117165,43.6980007 42.4435,43.555 C42.769835,43.4119993 43.1438312,43.3405 43.5655,43.3405 C43.9541686,43.3405 44.2988318,43.4037494 44.5995,43.53025 C44.9001682,43.6567506 45.1659988,43.8354988 45.397,44.0665 L45.1385,44.4185 Z M48.1635,49.088 C47.7234978,49.088 47.3852512,48.9651679 47.14875,48.7195 C46.9122488,48.4738321 46.794,48.1200023 46.794,47.658 L46.794,44.248 L46.123,44.248 C46.064333,44.248 46.0148335,44.2305835 45.9745,44.19575 C45.9341665,44.1609165 45.914,44.1068337 45.914,44.0335 L45.914,43.643 L46.827,43.5275 L47.0525,41.806 C47.0598334,41.7509997 47.0836665,41.7060835 47.124,41.67125 C47.1643335,41.6364165 47.2156664,41.619 47.278,41.619 L47.773,41.619 L47.773,43.5385 L49.368,43.5385 L49.368,44.248 L47.773,44.248 L47.773,47.592 C47.773,47.8266678 47.8298328,48.0008328 47.9435,48.1145 C48.0571672,48.2281672 48.2038324,48.285 48.3835,48.285 C48.4861672,48.285 48.575083,48.2712501 48.65025,48.24375 C48.725417,48.2162499 48.7904997,48.1860002 48.8455,48.153 C48.9005003,48.1199998 48.9472498,48.0897501 48.98575,48.06225 C49.0242502,48.0347499 49.0581665,48.021 49.0875,48.021 C49.1388336,48.021 49.1846665,48.0521664 49.225,48.1145 L49.511,48.582 C49.3423325,48.7396675 49.1388345,48.8634162 48.9005,48.95325 C48.6621655,49.0430838 48.4165013,49.088 48.1635,49.088 L48.1635,49.088 Z M12.4795,60.9825 L14.091,60.9825 L14.091,56.346 C14.091,56.1663324 14.0964999,55.977501 14.1075,55.7795 L12.9635,56.7365 C12.9158331,56.7768335 12.8672502,56.8043333 12.81775,56.819 C12.7682498,56.8336667 12.7196669,56.841 12.672,56.841 C12.5986663,56.841 12.5317503,56.8254168 12.47125,56.79425 C12.4107497,56.7630832 12.3658335,56.7273335 12.3365,56.687 L11.9075,56.0985 L14.333,54.036 L15.4495,54.036 L15.4495,60.9825 L16.8795,60.9825 L16.8795,62 L12.4795,62 L12.4795,60.9825 Z M20.295,58.8265 C20.0199986,58.8265 19.7505013,58.7788338 19.4865,58.6835 C19.2224987,58.5881662 18.9869177,58.444251 18.77975,58.25175 C18.5725823,58.059249 18.4066673,57.8209181 18.282,57.53675 C18.1573327,57.2525819 18.095,56.9198352 18.095,56.5385 C18.095,56.1828316 18.1609993,55.8491682 18.293,55.5375 C18.4250007,55.2258318 18.6101655,54.9526678 18.8485,54.718 C19.0868345,54.4833322 19.3728317,54.2981673 19.7065,54.1625 C20.0401683,54.0268327 20.4086646,53.959 20.812,53.959 C21.219002,53.959 21.5847484,54.023166 21.90925,54.1515 C22.2337516,54.279834 22.5105822,54.4594988 22.73975,54.6905 C22.9689178,54.9215012 23.1449161,55.1983317 23.26775,55.521 C23.3905839,55.8436683 23.452,56.1974981 23.452,56.5825 C23.452,56.8281679 23.4309169,57.0609989 23.38875,57.281 C23.3465831,57.5010011 23.2860837,57.712749 23.20725,57.91625 C23.1284163,58.119751 23.0340006,58.317749 22.924,58.51025 C22.8139994,58.702751 22.6911673,58.8961657 22.5555,59.0905 L20.735,61.6865 C20.6726664,61.7745004 20.5800839,61.8487497 20.45725,61.90925 C20.3344161,61.9697503 20.1941675,62 20.0365,62 L18.788,62 L21.2575,58.9145 C21.3198336,58.8374996 21.3784997,58.7623337 21.4335,58.689 C21.4885003,58.6156663 21.5416664,58.5423337 21.593,58.469 C21.4096657,58.5863339 21.2080011,58.6752497 20.988,58.73575 C20.7679989,58.7962503 20.5370012,58.8265 20.295,58.8265 L20.295,58.8265 Z M22.1485,56.445 C22.1485,56.2286656 22.1155003,56.0352509 22.0495,55.86475 C21.9834997,55.6942491 21.8900006,55.5503339 21.769,55.433 C21.6479994,55.3156661 21.5040842,55.2258336 21.33725,55.1635 C21.1704158,55.1011664 20.988001,55.07 20.79,55.07 C20.5846656,55.07 20.3995008,55.1039163 20.2345,55.17175 C20.0694992,55.2395837 19.9292506,55.3339994 19.81375,55.455 C19.6982494,55.5760006 19.6093336,55.7199158 19.547,55.88675 C19.4846664,56.0535842 19.4535,56.235999 19.4535,56.434 C19.4535,56.8776689 19.5680822,57.2159155 19.79725,57.44875 C20.0264178,57.6815845 20.3518312,57.798 20.7735,57.798 C20.9935011,57.798 21.1887491,57.763167 21.35925,57.6935 C21.5297509,57.623833 21.6736661,57.5285006 21.791,57.4075 C21.9083339,57.2864994 21.9972497,57.1435008 22.05775,56.9785 C22.1182503,56.8134992 22.1485,56.6356676 22.1485,56.445 L22.1485,56.445 Z M26.3065,62.0495 C25.8774979,61.990833 25.4750852,61.8735009 25.09925,61.6975 C24.7234148,61.5214991 24.4035013,61.3033346 24.1395,61.043 L24.5575,60.4215 C24.5941669,60.3664997 24.6427497,60.3215835 24.70325,60.28675 C24.7637503,60.2519165 24.8269997,60.2345 24.893,60.2345 C24.9736671,60.2345 25.0598329,60.2629164 25.1515,60.31975 C25.2431671,60.3765836 25.3476661,60.4434996 25.465,60.5205 C25.5823339,60.5975004 25.7161659,60.6744996 25.8665,60.7515 C26.0168341,60.8285004 26.1946656,60.8853331 26.4,60.922 L26.609,58.458 C26.3486654,58.3846663 26.0910846,58.2985005 25.83625,58.1995 C25.5814154,58.1004995 25.352251,57.9694175 25.14875,57.80625 C24.945249,57.6430825 24.7811673,57.4368346 24.6565,57.1875 C24.5318327,56.9381654 24.4695,56.6265019 24.4695,56.2525 C24.4695,55.9738319 24.5254161,55.7015847 24.63725,55.43575 C24.7490839,55.1699153 24.9113323,54.932501 25.124,54.7235 C25.3366677,54.514499 25.5988318,54.3421673 25.9105,54.2065 C26.2221682,54.0708327 26.5796646,53.9938334 26.983,53.9755 L27.0435,53.2825 C27.0508334,53.1944996 27.0874997,53.115667 27.1535,53.046 C27.2195003,52.976333 27.3056661,52.9415 27.412,52.9415 L27.9125,52.9415 L27.819,54.025 C28.2076686,54.0873336 28.5431653,54.1973325 28.8255,54.355 C29.1078347,54.5126675 29.353499,54.690499 29.5625,54.8885 L29.2325,55.389 C29.1811664,55.4623337 29.1298336,55.5173331 29.0785,55.554 C29.0271664,55.5906668 28.9648337,55.609 28.8915,55.609 C28.8364997,55.609 28.771417,55.5915835 28.69625,55.55675 C28.621083,55.5219165 28.5349172,55.4797502 28.43775,55.43025 C28.3405828,55.3807498 28.2333339,55.3303336 28.116,55.279 C27.9986661,55.2276664 27.8685007,55.1855002 27.7255,55.1525 L27.533,57.4295 C27.7970013,57.5101671 28.0582487,57.5990828 28.31675,57.69625 C28.5752513,57.7934172 28.8080823,57.9189992 29.01525,58.073 C29.2224177,58.2270008 29.390166,58.4185822 29.5185,58.64775 C29.646834,58.8769178 29.711,59.1638316 29.711,59.5085 C29.711,59.8495017 29.6541672,60.1694152 29.5405,60.46825 C29.4268328,60.7670848 29.2609178,61.0310822 29.04275,61.26025 C28.8245822,61.4894178 28.5560016,61.6754993 28.237,61.8185 C27.9179984,61.9615007 27.5531687,62.0476665 27.1425,62.077 L27.0765,62.8855 C27.0691666,62.9698338 27.0325003,63.0477496 26.9665,63.11925 C26.9004997,63.1907504 26.8143339,63.2265 26.708,63.2265 L26.2075,63.2265 L26.3065,62.0495 Z M28.424,59.7175 C28.424,59.578166 28.3992502,59.4562505 28.34975,59.35175 C28.3002498,59.2472495 28.2305838,59.1546671 28.14075,59.074 C28.0509162,58.9933329 27.9455006,58.923667 27.8245,58.865 C27.7034994,58.806333 27.5715007,58.7531669 27.4285,58.7055 L27.2415,60.9385 C27.6301686,60.8871664 27.9244157,60.7560844 28.12425,60.54525 C28.3240843,60.3344156 28.424,60.0585017 28.424,59.7175 L28.424,59.7175 Z M25.751,56.1205 C25.751,56.259834 25.7748331,56.3826661 25.8225,56.489 C25.8701669,56.5953339 25.9370829,56.6897496 26.02325,56.77225 C26.1094171,56.8547504 26.2111661,56.928083 26.3285,56.99225 C26.4458339,57.056417 26.574166,57.1141664 26.7135,57.1655 L26.884,55.1305 C26.6823323,55.1561668 26.5100007,55.1992497 26.367,55.25975 C26.2239993,55.3202503 26.1066671,55.3944996 26.015,55.4825 C25.9233329,55.5705004 25.8564169,55.6685828 25.81425,55.77675 C25.7720831,55.8849172 25.751,55.9994994 25.751,56.1205 L25.751,56.1205 Z" id="Product-19$" fill="#3498DB" mask="url(#mask-3)"></path>
        </g>
    </g>
</svg>