<?xml version="1.0" encoding="UTF-8" standalone="no"?>
<svg width="70px" height="71px" viewBox="0 0 70 71" version="1.1" xmlns="http://www.w3.org/2000/svg" xmlns:xlink="http://www.w3.org/1999/xlink">
    <!-- Generator: Sketch 3.7.2 (28276) - http://www.bohemiancoding.com/sketch -->
    <title>product-box-add-to-cart-tools</title>
    <desc>Created with Sketch.</desc>
    <defs>
        <rect id="path-1" x="0" y="0" width="70" height="70" rx="4"></rect>
        <mask id="mask-2" maskContentUnits="userSpaceOnUse" maskUnits="objectBoundingBox" x="0" y="0" width="70" height="70" fill="white">
            <use xlink:href="#path-1"></use>
        </mask>
        <mask id="mask-4" maskContentUnits="userSpaceOnUse" maskUnits="objectBoundingBox" x="0" y="0" width="70" height="70" fill="white">
            <use xlink:href="#path-1"></use>
        </mask>
        <rect id="path-5" x="10" y="-8" width="50.7281105" height="45.1902419"></rect>
        <mask id="mask-6" maskContentUnits="userSpaceOnUse" maskUnits="objectBoundingBox" x="0" y="0" width="50.7281105" height="45.1902419" fill="white">
            <use xlink:href="#path-5"></use>
        </mask>
    </defs>
    <g id="Page-1" stroke="none" stroke-width="1" fill="none" fill-rule="evenodd">
        <g id="product-box-add-to-cart-tools" transform="translate(0.000000, 0.912000)">
            <mask id="mask-3" fill="white">
                <use xlink:href="#path-1"></use>
            </mask>
            <g id="Mask" stroke="#3498DB" mask="url(#mask-2)" stroke-width="2" fill-opacity="0.01" fill="#00A0D2">
                <use mask="url(#mask-4)" xlink:href="#path-1"></use>
            </g>
            <g id="Rectangle-5" mask="url(#mask-3)" stroke="#3498DB" stroke-width="2" fill="#3498DB" fill-opacity="0.127858922">
                <use mask="url(#mask-6)" xlink:href="#path-5"></use>
            </g>
            <rect id="Rectangle-647" fill="#3498DB" mask="url(#mask-3)" x="10" y="27" width="51" height="10"></rect>
            <text id="+-Add" mask="url(#mask-3)" font-family="Lato-Regular, Lato" font-size="8" font-weight="normal" fill="#FFFFFF">
                <tspan x="23" y="35">+ Add</tspan>
            </text>
            <path d="M18.1285,46.052 L18.1285,49 L17.067,49 L17.067,41.1185 L19.3935,41.1185 C19.8921692,41.1185 20.3257482,41.1762494 20.69425,41.29175 C21.0627518,41.4072506 21.3679988,41.5713323 21.61,41.784 C21.8520012,41.9966677 22.0325827,42.2533318 22.15175,42.554 C22.2709173,42.8546682 22.3305,43.1901648 22.3305,43.5605 C22.3305,43.9271685 22.266334,44.2626651 22.138,44.567 C22.009666,44.8713349 21.8217512,45.1334989 21.57425,45.3535 C21.3267488,45.5735011 21.0196685,45.7449161 20.653,45.86775 C20.2863315,45.9905839 19.8665024,46.052 19.3935,46.052 L18.1285,46.052 Z M18.1285,45.205 L19.3935,45.205 C19.6978349,45.205 19.9664155,45.1646671 20.19925,45.084 C20.4320845,45.0033329 20.6273325,44.8905841 20.785,44.74575 C20.9426675,44.6009159 21.0618329,44.4276677 21.1425,44.226 C21.2231671,44.0243323 21.2635,43.8025012 21.2635,43.5605 C21.2635,43.0581642 21.1085849,42.6658347 20.79875,42.3835 C20.4889151,42.1011653 20.0205031,41.96 19.3935,41.96 L18.1285,41.96 L18.1285,45.205 Z M23.524,49 L23.524,43.4285 L24.085,43.4285 C24.1913339,43.4285 24.2646665,43.4486665 24.305,43.489 C24.3453335,43.5293335 24.3728333,43.5989995 24.3875,43.698 L24.4535,44.567 C24.6441676,44.1783314 24.8797486,43.8749178 25.16025,43.65675 C25.4407514,43.4385822 25.7698314,43.3295 26.1475,43.3295 C26.3015008,43.3295 26.4408327,43.3469165 26.5655,43.38175 C26.6901673,43.4165835 26.8056661,43.4651664 26.912,43.5275 L26.7855,44.259 C26.7598332,44.3506671 26.7030004,44.3965 26.615,44.3965 C26.5636664,44.3965 26.4848339,44.3790835 26.3785,44.34425 C26.2721661,44.3094165 26.1236676,44.292 25.933,44.292 C25.5919983,44.292 25.3069178,44.390999 25.07775,44.589 C24.8485822,44.787001 24.6570008,45.0748314 24.503,45.4525 L24.503,49 L23.524,49 Z M30.212,43.3405 C30.619002,43.3405 30.9865817,43.4083327 31.31475,43.544 C31.6429183,43.6796673 31.9215822,43.8721654 32.15075,44.1215 C32.3799178,44.3708346 32.5559161,44.6724149 32.67875,45.02625 C32.8015839,45.3800851 32.863,45.7751645 32.863,46.2115 C32.863,46.6515022 32.8015839,47.0474982 32.67875,47.3995 C32.5559161,47.7515018 32.3799178,48.0521654 32.15075,48.3015 C31.9215822,48.5508346 31.6429183,48.742416 31.31475,48.87625 C30.9865817,49.010084 30.619002,49.077 30.212,49.077 C29.804998,49.077 29.4374183,49.010084 29.10925,48.87625 C28.7810817,48.742416 28.5015012,48.5508346 28.2705,48.3015 C28.0394988,48.0521654 27.8616673,47.7515018 27.737,47.3995 C27.6123327,47.0474982 27.55,46.6515022 27.55,46.2115 C27.55,45.7751645 27.6123327,45.3800851 27.737,45.02625 C27.8616673,44.6724149 28.0394988,44.3708346 28.2705,44.1215 C28.5015012,43.8721654 28.7810817,43.6796673 29.10925,43.544 C29.4374183,43.4083327 29.804998,43.3405 30.212,43.3405 L30.212,43.3405 Z M30.212,48.3125 C30.7620028,48.3125 31.1726653,48.1282518 31.444,47.75975 C31.7153347,47.3912482 31.851,46.8770033 31.851,46.217 C31.851,45.55333 31.7153347,45.0363352 31.444,44.666 C31.1726653,44.2956648 30.7620028,44.1105 30.212,44.1105 C29.9333319,44.1105 29.6913344,44.1581662 29.486,44.2535 C29.2806656,44.3488338 29.1092507,44.4863324 28.97175,44.666 C28.8342493,44.8456676 28.7315837,45.066582 28.66375,45.32875 C28.5959163,45.590918 28.562,45.8869983 28.562,46.217 C28.562,46.5470016 28.5959163,46.8421654 28.66375,47.1025 C28.7315837,47.3628346 28.8342493,47.5819158 28.97175,47.75975 C29.1092507,47.9375842 29.2806656,48.0741662 29.486,48.1695 C29.6913344,48.2648338 29.9333319,48.3125 30.212,48.3125 L30.212,48.3125 Z M37.9945,49 C37.855166,49 37.7671669,48.9321673 37.7305,48.7965 L37.6425,48.12 C37.4041655,48.4096681 37.1319182,48.6415825 36.82575,48.81575 C36.5195818,48.9899175 36.168502,49.077 35.7725,49.077 C35.4534984,49.077 35.1638346,49.0155839 34.9035,48.89275 C34.6431654,48.7699161 34.4213343,48.5893345 34.238,48.351 C34.0546658,48.1126655 33.9135005,47.8156684 33.8145,47.46 C33.7154995,47.1043316 33.666,46.6955023 33.666,46.2335 C33.666,45.8228313 33.7209995,45.4405851 33.831,45.08675 C33.9410006,44.7329149 34.0995823,44.4258346 34.30675,44.1655 C34.5139177,43.9051654 34.7659985,43.7007507 35.063,43.55225 C35.3600015,43.4037493 35.6973314,43.3295 36.075,43.3295 C36.4160017,43.3295 36.7074988,43.3872494 36.9495,43.50275 C37.1915012,43.6182506 37.4078324,43.780499 37.5985,43.9895 L37.5985,40.8985 L38.5775,40.8985 L38.5775,49 L37.9945,49 Z M36.097,48.285 C36.4160016,48.285 36.6955821,48.2116674 36.93575,48.065 C37.1759179,47.9183326 37.3968323,47.711168 37.5985,47.4435 L37.5985,44.7485 C37.4188324,44.5064988 37.2217511,44.3369172 37.00725,44.23975 C36.7927489,44.1425828 36.5553346,44.094 36.295,44.094 C35.7743307,44.094 35.3746681,44.2791648 35.096,44.6495 C34.8173319,45.0198352 34.678,45.5478299 34.678,46.2335 C34.678,46.5965018 34.7091664,46.9072487 34.7715,47.16575 C34.8338336,47.4242513 34.9254994,47.6369158 35.0465,47.80375 C35.1675006,47.9705842 35.3159991,48.0924996 35.492,48.1695 C35.6680009,48.2465004 35.8696655,48.285 36.097,48.285 L36.097,48.285 Z M41.069,43.4285 L41.069,46.9815 C41.069,47.4031688 41.1661657,47.7294988 41.3605,47.9605 C41.5548343,48.1915012 41.8481647,48.307 42.2405,48.307 C42.5265014,48.307 42.7959987,48.2391673 43.049,48.1035 C43.3020013,47.9678327 43.5348323,47.7790012 43.7475,47.537 L43.7475,43.4285 L44.7265,43.4285 L44.7265,49 L44.1435,49 C44.004166,49 43.9161669,48.9321673 43.8795,48.7965 L43.8025,48.197 C43.5604988,48.464668 43.2891682,48.6800825 42.9885,48.84325 C42.6878318,49.0064175 42.3431686,49.088 41.9545,49.088 C41.6501651,49.088 41.3815845,49.0375838 41.14875,48.93675 C40.9159155,48.8359162 40.7206675,48.6938342 40.563,48.5105 C40.4053325,48.3271657 40.2870837,48.1053346 40.20825,47.845 C40.1294163,47.5846654 40.09,47.2968349 40.09,46.9815 L40.09,43.4285 L41.069,43.4285 Z M50.1385,44.4185 C50.1091665,44.4588335 50.0798335,44.4899999 50.0505,44.512 C50.0211665,44.5340001 49.9790003,44.545 49.924,44.545 C49.8689997,44.545 49.809417,44.5220836 49.74525,44.47625 C49.681083,44.4304164 49.5995005,44.3800003 49.5005,44.325 C49.4014995,44.2699997 49.2814174,44.2195836 49.14025,44.17375 C48.9990826,44.1279164 48.8258344,44.105 48.6205,44.105 C48.3491653,44.105 48.109001,44.1535828 47.9,44.25075 C47.690999,44.3479172 47.5159174,44.4881657 47.37475,44.6715 C47.2335826,44.8548342 47.1272504,45.0766654 47.05575,45.337 C46.9842496,45.5973346 46.9485,45.8888317 46.9485,46.2115 C46.9485,46.548835 46.9869996,46.848582 47.064,47.11075 C47.1410004,47.372918 47.249166,47.5929158 47.3885,47.77075 C47.527834,47.9485842 47.6974157,48.0842495 47.89725,48.17775 C48.0970843,48.2712505 48.3216654,48.318 48.571,48.318 C48.8093345,48.318 49.0054992,48.2895836 49.1595,48.23275 C49.3135008,48.1759164 49.4418328,48.112667 49.5445,48.043 C49.6471672,47.973333 49.7314997,47.9100836 49.7975,47.85325 C49.8635003,47.7964164 49.9294997,47.768 49.9955,47.768 C50.0798338,47.768 50.1421665,47.7991664 50.1825,47.8615 L50.4575,48.219 C50.2154988,48.5160015 49.9130018,48.7332493 49.55,48.87075 C49.1869982,49.0082507 48.8038354,49.077 48.4005,49.077 C48.0521649,49.077 47.7285848,49.012834 47.42975,48.8845 C47.1309152,48.756166 46.8715011,48.5700846 46.6515,48.32625 C46.4314989,48.0824154 46.2582506,47.7826684 46.13175,47.427 C46.0052494,47.0713316 45.942,46.6661689 45.942,46.2115 C45.942,45.7971646 45.9997494,45.4140018 46.11525,45.062 C46.2307506,44.7099982 46.3994156,44.4065846 46.62125,44.15175 C46.8430844,43.8969154 47.117165,43.6980007 47.4435,43.555 C47.769835,43.4119993 48.1438312,43.3405 48.5655,43.3405 C48.9541686,43.3405 49.2988318,43.4037494 49.5995,43.53025 C49.9001682,43.6567506 50.1659988,43.8354988 50.397,44.0665 L50.1385,44.4185 Z M53.1635,49.088 C52.7234978,49.088 52.3852512,48.9651679 52.14875,48.7195 C51.9122488,48.4738321 51.794,48.1200023 51.794,47.658 L51.794,44.248 L51.123,44.248 C51.064333,44.248 51.0148335,44.2305835 50.9745,44.19575 C50.9341665,44.1609165 50.914,44.1068337 50.914,44.0335 L50.914,43.643 L51.827,43.5275 L52.0525,41.806 C52.0598334,41.7509997 52.0836665,41.7060835 52.124,41.67125 C52.1643335,41.6364165 52.2156664,41.619 52.278,41.619 L52.773,41.619 L52.773,43.5385 L54.368,43.5385 L54.368,44.248 L52.773,44.248 L52.773,47.592 C52.773,47.8266678 52.8298328,48.0008328 52.9435,48.1145 C53.0571672,48.2281672 53.2038324,48.285 53.3835,48.285 C53.4861672,48.285 53.575083,48.2712501 53.65025,48.24375 C53.725417,48.2162499 53.7904997,48.1860002 53.8455,48.153 C53.9005003,48.1199998 53.9472498,48.0897501 53.98575,48.06225 C54.0242502,48.0347499 54.0581665,48.021 54.0875,48.021 C54.1388336,48.021 54.1846665,48.0521664 54.225,48.1145 L54.511,48.582 C54.3423325,48.7396675 54.1388345,48.8634162 53.9005,48.95325 C53.6621655,49.0430838 53.4165013,49.088 53.1635,49.088 L53.1635,49.088 Z M26.4795,60.9825 L28.091,60.9825 L28.091,56.346 C28.091,56.1663324 28.0964999,55.977501 28.1075,55.7795 L26.9635,56.7365 C26.9158331,56.7768335 26.8672502,56.8043333 26.81775,56.819 C26.7682498,56.8336667 26.7196669,56.841 26.672,56.841 C26.5986663,56.841 26.5317503,56.8254168 26.47125,56.79425 C26.4107497,56.7630832 26.3658335,56.7273335 26.3365,56.687 L25.9075,56.0985 L28.333,54.036 L29.4495,54.036 L29.4495,60.9825 L30.8795,60.9825 L30.8795,62 L26.4795,62 L26.4795,60.9825 Z M34.295,58.8265 C34.0199986,58.8265 33.7505013,58.7788338 33.4865,58.6835 C33.2224987,58.5881662 32.9869177,58.444251 32.77975,58.25175 C32.5725823,58.059249 32.4066673,57.8209181 32.282,57.53675 C32.1573327,57.2525819 32.095,56.9198352 32.095,56.5385 C32.095,56.1828316 32.1609993,55.8491682 32.293,55.5375 C32.4250007,55.2258318 32.6101655,54.9526678 32.8485,54.718 C33.0868345,54.4833322 33.3728317,54.2981673 33.7065,54.1625 C34.0401683,54.0268327 34.4086647,53.959 34.812,53.959 C35.219002,53.959 35.5847484,54.023166 35.90925,54.1515 C36.2337516,54.279834 36.5105822,54.4594988 36.73975,54.6905 C36.9689178,54.9215012 37.1449161,55.1983317 37.26775,55.521 C37.3905839,55.8436683 37.452,56.1974981 37.452,56.5825 C37.452,56.8281679 37.4309169,57.0609989 37.38875,57.281 C37.3465831,57.5010011 37.2860837,57.712749 37.20725,57.91625 C37.1284163,58.119751 37.0340006,58.317749 36.924,58.51025 C36.8139995,58.702751 36.6911673,58.8961657 36.5555,59.0905 L34.735,61.6865 C34.6726664,61.7745004 34.5800839,61.8487497 34.45725,61.90925 C34.3344161,61.9697503 34.1941675,62 34.0365,62 L32.788,62 L35.2575,58.9145 C35.3198336,58.8374996 35.3784997,58.7623337 35.4335,58.689 C35.4885003,58.6156663 35.5416664,58.5423337 35.593,58.469 C35.4096658,58.5863339 35.2080011,58.6752497 34.988,58.73575 C34.7679989,58.7962503 34.5370012,58.8265 34.295,58.8265 L34.295,58.8265 Z M36.1485,56.445 C36.1485,56.2286656 36.1155003,56.0352509 36.0495,55.86475 C35.9834997,55.6942491 35.8900006,55.5503339 35.769,55.433 C35.6479994,55.3156661 35.5040842,55.2258336 35.33725,55.1635 C35.1704158,55.1011664 34.988001,55.07 34.79,55.07 C34.5846656,55.07 34.3995008,55.1039163 34.2345,55.17175 C34.0694992,55.2395837 33.9292506,55.3339994 33.81375,55.455 C33.6982494,55.5760006 33.6093336,55.7199158 33.547,55.88675 C33.4846664,56.0535842 33.4535,56.235999 33.4535,56.434 C33.4535,56.8776689 33.5680822,57.2159155 33.79725,57.44875 C34.0264178,57.6815845 34.3518312,57.798 34.7735,57.798 C34.9935011,57.798 35.1887491,57.763167 35.35925,57.6935 C35.5297509,57.623833 35.6736661,57.5285006 35.791,57.4075 C35.9083339,57.2864994 35.9972497,57.1435008 36.05775,56.9785 C36.1182503,56.8134992 36.1485,56.6356676 36.1485,56.445 L36.1485,56.445 Z M40.3065,62.0495 C39.8774979,61.990833 39.4750852,61.8735009 39.09925,61.6975 C38.7234148,61.5214991 38.4035013,61.3033346 38.1395,61.043 L38.5575,60.4215 C38.5941669,60.3664997 38.6427497,60.3215835 38.70325,60.28675 C38.7637503,60.2519165 38.8269997,60.2345 38.893,60.2345 C38.9736671,60.2345 39.0598329,60.2629164 39.1515,60.31975 C39.2431671,60.3765836 39.3476661,60.4434996 39.465,60.5205 C39.5823339,60.5975004 39.7161659,60.6744996 39.8665,60.7515 C40.0168341,60.8285004 40.1946656,60.8853331 40.4,60.922 L40.609,58.458 C40.3486654,58.3846663 40.0910846,58.2985005 39.83625,58.1995 C39.5814154,58.1004995 39.352251,57.9694175 39.14875,57.80625 C38.945249,57.6430825 38.7811673,57.4368346 38.6565,57.1875 C38.5318327,56.9381654 38.4695,56.6265019 38.4695,56.2525 C38.4695,55.9738319 38.5254161,55.7015847 38.63725,55.43575 C38.7490839,55.1699153 38.9113323,54.932501 39.124,54.7235 C39.3366677,54.514499 39.5988318,54.3421673 39.9105,54.2065 C40.2221682,54.0708327 40.5796647,53.9938334 40.983,53.9755 L41.0435,53.2825 C41.0508334,53.1944996 41.0874997,53.115667 41.1535,53.046 C41.2195003,52.976333 41.3056661,52.9415 41.412,52.9415 L41.9125,52.9415 L41.819,54.025 C42.2076686,54.0873336 42.5431653,54.1973325 42.8255,54.355 C43.1078347,54.5126675 43.353499,54.690499 43.5625,54.8885 L43.2325,55.389 C43.1811664,55.4623337 43.1298336,55.5173331 43.0785,55.554 C43.0271664,55.5906668 42.9648337,55.609 42.8915,55.609 C42.8364997,55.609 42.771417,55.5915835 42.69625,55.55675 C42.621083,55.5219165 42.5349172,55.4797502 42.43775,55.43025 C42.3405828,55.3807498 42.2333339,55.3303336 42.116,55.279 C41.9986661,55.2276664 41.8685007,55.1855002 41.7255,55.1525 L41.533,57.4295 C41.7970013,57.5101671 42.0582487,57.5990828 42.31675,57.69625 C42.5752513,57.7934172 42.8080823,57.9189992 43.01525,58.073 C43.2224177,58.2270008 43.390166,58.4185822 43.5185,58.64775 C43.646834,58.8769178 43.711,59.1638316 43.711,59.5085 C43.711,59.8495017 43.6541672,60.1694152 43.5405,60.46825 C43.4268328,60.7670848 43.2609178,61.0310822 43.04275,61.26025 C42.8245822,61.4894178 42.5560016,61.6754993 42.237,61.8185 C41.9179984,61.9615007 41.5531687,62.0476665 41.1425,62.077 L41.0765,62.8855 C41.0691666,62.9698338 41.0325003,63.0477496 40.9665,63.11925 C40.9004997,63.1907504 40.8143339,63.2265 40.708,63.2265 L40.2075,63.2265 L40.3065,62.0495 Z M42.424,59.7175 C42.424,59.578166 42.3992502,59.4562505 42.34975,59.35175 C42.3002498,59.2472495 42.2305838,59.1546671 42.14075,59.074 C42.0509162,58.9933329 41.9455006,58.923667 41.8245,58.865 C41.7034994,58.806333 41.5715007,58.7531669 41.4285,58.7055 L41.2415,60.9385 C41.6301686,60.8871664 41.9244157,60.7560844 42.12425,60.54525 C42.3240843,60.3344156 42.424,60.0585017 42.424,59.7175 L42.424,59.7175 Z M39.751,56.1205 C39.751,56.259834 39.7748331,56.3826661 39.8225,56.489 C39.8701669,56.5953339 39.9370829,56.6897496 40.02325,56.77225 C40.1094171,56.8547504 40.2111661,56.928083 40.3285,56.99225 C40.4458339,57.056417 40.574166,57.1141664 40.7135,57.1655 L40.884,55.1305 C40.6823323,55.1561668 40.5100007,55.1992497 40.367,55.25975 C40.2239993,55.3202503 40.1066671,55.3944996 40.015,55.4825 C39.9233329,55.5705004 39.8564169,55.6685828 39.81425,55.77675 C39.7720831,55.8849172 39.751,55.9994994 39.751,56.1205 L39.751,56.1205 Z" id="Product-19$" fill="#3498DB" mask="url(#mask-3)"></path>
        </g>
    </g>
</svg>