<?xml version="1.0" encoding="UTF-8" standalone="no"?>
<svg width="70px" height="44px" viewBox="0 0 70 44" version="1.1" xmlns="http://www.w3.org/2000/svg" xmlns:xlink="http://www.w3.org/1999/xlink">
    <!-- Generator: Sketch 3.7.2 (28276) - http://www.bohemiancoding.com/sketch -->
    <title>product-page-title-top</title>
    <desc>Created with Sketch.</desc>
    <defs>
        <rect id="path-1" x="0" y="0" width="70" height="42.5531915" rx="4"></rect>
        <mask id="mask-2" maskContentUnits="userSpaceOnUse" maskUnits="objectBoundingBox" x="0" y="0" width="70" height="42.5531915" fill="white">
            <use xlink:href="#path-1"></use>
        </mask>
        <mask id="mask-4" maskContentUnits="userSpaceOnUse" maskUnits="objectBoundingBox" x="0" y="0" width="70" height="42.5531915" fill="white">
            <use xlink:href="#path-1"></use>
        </mask>
        <rect id="path-5" x="10.249461" y="17.1428571" width="50.7281105" height="45.1902419"></rect>
        <mask id="mask-6" maskContentUnits="userSpaceOnUse" maskUnits="objectBoundingBox" x="0" y="0" width="50.7281105" height="45.1902419" fill="white">
            <use xlink:href="#path-5"></use>
        </mask>
    </defs>
    <g id="Page-1" stroke="none" stroke-width="1" fill="none" fill-rule="evenodd">
        <g id="product-page-title-top" transform="translate(0.000000, 0.767750)">
            <mask id="mask-3" fill="white">
                <use xlink:href="#path-1"></use>
            </mask>
            <g id="Mask" stroke="#3498DB" mask="url(#mask-2)" stroke-width="2" fill-opacity="0.01" fill="#00A0D2">
                <use mask="url(#mask-4)" xlink:href="#path-1"></use>
            </g>
            <path d="M15.2425,6.11717325 L15.2425,7.17515198 L13.285,7.17515198 L13.285,13.0395137 L12.0745,13.0395137 L12.0745,7.17515198 L10.108,7.17515198 L10.108,6.11717325 L15.2425,6.11717325 Z M17.1325,8.12781155 L17.1325,13.0395137 L16.021,13.0395137 L16.021,8.12781155 L17.1325,8.12781155 Z M17.299,6.69642857 C17.299,6.79855674 17.2795002,6.89430047 17.2405,6.98366261 C17.2014998,7.07302476 17.1497503,7.15121547 17.08525,7.21823708 C17.0207497,7.28525869 16.9450004,7.33871561 16.858,7.37860942 C16.7709996,7.41850324 16.6780005,7.43844985 16.579,7.43844985 C16.4829995,7.43844985 16.3922504,7.41850324 16.30675,7.37860942 C16.2212496,7.33871561 16.1470003,7.28525869 16.084,7.21823708 C16.0209997,7.15121547 15.9707502,7.07302476 15.93325,6.98366261 C15.8957498,6.89430047 15.877,6.79855674 15.877,6.69642857 C15.877,6.5911089 15.8957498,6.49217372 15.93325,6.39962006 C15.9707502,6.30706641 16.0209997,6.22727997 16.084,6.16025836 C16.1470003,6.09323675 16.2212496,6.03977983 16.30675,5.99988602 C16.3922504,5.9599922 16.4829995,5.94004559 16.579,5.94004559 C16.6780005,5.94004559 16.7709996,5.9599922 16.858,5.99988602 C16.9450004,6.03977983 17.0207497,6.09323675 17.08525,6.16025836 C17.1497503,6.22727997 17.2014998,6.30706641 17.2405,6.39962006 C17.2795002,6.49217372 17.299,6.5911089 17.299,6.69642857 L17.299,6.69642857 Z M19.9045,13.1161094 C19.505498,13.1161094 19.1980011,12.9956319 18.982,12.7546733 C18.7659989,12.5137146 18.658,12.1810052 18.658,11.756535 L18.658,9.01344985 L18.19,9.01344985 C18.1299997,9.01344985 18.0782502,8.99270537 18.03475,8.95121581 C17.9912498,8.90972624 17.9695,8.84749282 17.9695,8.76451368 L17.9695,8.29536474 L18.712,8.16610942 L18.946,6.82568389 C18.9580001,6.76185378 18.9857498,6.71238619 19.02925,6.67727964 C19.0727502,6.64217308 19.1274997,6.62462006 19.1935,6.62462006 L19.7695,6.62462006 L19.7695,8.17089666 L20.9845,8.17089666 L20.9845,9.01344985 L19.7695,9.01344985 L19.7695,11.675152 C19.7695,11.8283442 19.8054996,11.9480239 19.8775,12.0341945 C19.9495004,12.1203652 20.0454994,12.1634498 20.1655,12.1634498 C20.2345003,12.1634498 20.2922498,12.1546733 20.33875,12.1371201 C20.3852502,12.1195668 20.4257498,12.1012159 20.46025,12.0820669 C20.4947502,12.0629178 20.5254999,12.044567 20.5525,12.0270137 C20.5795001,12.0094604 20.6064999,12.0006839 20.6335,12.0006839 C20.6665002,12.0006839 20.6934999,12.0094604 20.7145,12.0270137 C20.7355001,12.044567 20.7579999,12.0708965 20.782,12.106003 L21.115,12.6804711 C20.9529992,12.8240889 20.767001,12.9325984 20.557,13.006003 C20.3469989,13.0794077 20.1295011,13.1161094 19.9045,13.1161094 L19.9045,13.1161094 Z M23.0545,5.92568389 L23.0545,13.0395137 L21.943,13.0395137 L21.943,5.92568389 L23.0545,5.92568389 Z M26.218,8.05121581 C26.5090015,8.05121581 26.7767488,8.1006834 27.02125,8.19962006 C27.2657512,8.29855673 27.4764991,8.44297018 27.6535,8.63286474 C27.8305009,8.82275931 27.9684995,9.0557357 28.0675,9.33180091 C28.1665005,9.60786612 28.216,9.92302254 28.216,10.2772796 C28.216,10.3666418 28.21225,10.4408432 28.20475,10.499886 C28.19725,10.5589289 28.1837501,10.605205 28.16425,10.6387158 C28.1447499,10.6722266 28.1185002,10.6961625 28.0855,10.7105243 C28.0524998,10.7248861 28.0105003,10.7320669 27.9595,10.7320669 L25.1065,10.7320669 C25.1395002,11.2363247 25.2669989,11.6065338 25.489,11.8427052 C25.7110011,12.0788766 26.0049982,12.1969605 26.371,12.1969605 C26.5510009,12.1969605 26.7062493,12.1746203 26.83675,12.1299392 C26.9672507,12.0852581 27.0812495,12.0357905 27.17875,11.981535 C27.2762505,11.9272794 27.3617496,11.8778118 27.43525,11.8331307 C27.5087504,11.7884496 27.5799997,11.7661094 27.649,11.7661094 C27.6940002,11.7661094 27.7329998,11.7756838 27.766,11.7948328 C27.7990002,11.8139819 27.8274999,11.8411092 27.8515,11.8762158 L28.1755,12.3070669 C28.0524994,12.4602591 27.9145008,12.5887153 27.7615,12.6924392 C27.6084992,12.7961631 27.4487508,12.879141 27.28225,12.9413754 C27.1157492,13.0036097 26.9462509,13.0474923 26.77375,13.0730243 C26.6012491,13.0985564 26.4340008,13.1113222 26.272,13.1113222 C25.9509984,13.1113222 25.6525014,13.0546738 25.3765,12.9413754 C25.1004986,12.8280769 24.860501,12.6605254 24.6565,12.4387158 C24.452499,12.2169062 24.2920006,11.9424408 24.175,11.6153116 C24.0579994,11.2881823 23.9995,10.9091967 23.9995,10.4783435 C23.9995,10.1432354 24.0504995,9.82807898 24.1525,9.53286474 C24.2545005,9.2376505 24.400749,8.98073818 24.59125,8.76212006 C24.781751,8.54350195 25.0142486,8.37036538 25.28875,8.24270517 C25.5632514,8.11504495 25.8729983,8.05121581 26.218,8.05121581 L26.218,8.05121581 Z M26.2405,8.89855623 C25.9164984,8.89855623 25.6630009,8.99589568 25.48,9.19057751 C25.2969991,9.38525933 25.1800003,9.6613204 25.129,10.018769 L27.217,10.018769 C27.217,9.86557674 27.1975002,9.72116329 27.1585,9.58552432 C27.1194998,9.44988534 27.0595004,9.33100355 26.9785,9.22887538 C26.8974996,9.12674721 26.7955006,9.04616291 26.6725,8.98712006 C26.5494994,8.92807721 26.4055008,8.89855623 26.2405,8.89855623 L26.2405,8.89855623 Z" id="Title" fill="#3498DB" mask="url(#mask-3)"></path>
            <g id="Rectangle-5" mask="url(#mask-3)" stroke="#3498DB" stroke-width="2" fill="#3498DB" fill-opacity="0.127858922">
                <use mask="url(#mask-6)" xlink:href="#path-5"></use>
            </g>
        </g>
    </g>
</svg>