<?xml version="1.0" encoding="UTF-8" standalone="no"?>
<svg width="70px" height="70px" viewBox="0 0 70 70" version="1.1" xmlns="http://www.w3.org/2000/svg" xmlns:xlink="http://www.w3.org/1999/xlink">
    <!-- Generator: Sketch 3.7.2 (28276) - http://www.bohemiancoding.com/sketch -->
    <title>product-box-wide</title>
    <desc>Created with Sketch.</desc>
    <defs>
        <rect id="path-1" x="0" y="0" width="70" height="70" rx="4"></rect>
        <mask id="mask-2" maskContentUnits="userSpaceOnUse" maskUnits="objectBoundingBox" x="0" y="0" width="70" height="70" fill="white">
            <use xlink:href="#path-1"></use>
        </mask>
        <mask id="mask-4" maskContentUnits="userSpaceOnUse" maskUnits="objectBoundingBox" x="0" y="0" width="70" height="70" fill="white">
            <use xlink:href="#path-1"></use>
        </mask>
        <rect id="path-5" x="10" y="-12.904879" width="50.7281105" height="55"></rect>
        <mask id="mask-6" maskContentUnits="userSpaceOnUse" maskUnits="objectBoundingBox" x="0" y="0" width="50.7281105" height="55" fill="white">
            <use xlink:href="#path-5"></use>
        </mask>
    </defs>
    <g id="Page-1" stroke="none" stroke-width="1" fill="none" fill-rule="evenodd">
        <g id="product-box-wide">
            <mask id="mask-3" fill="white">
                <use xlink:href="#path-1"></use>
            </mask>
            <g id="Mask" stroke="#3498DB" mask="url(#mask-2)" stroke-width="2" fill-opacity="0.01" fill="#00A0D2">
                <use mask="url(#mask-4)" xlink:href="#path-1"></use>
            </g>
            <g id="Rectangle-5" mask="url(#mask-3)" stroke="#3498DB" stroke-width="2" fill="#3498DB" fill-opacity="0.127858922">
                <use mask="url(#mask-6)" xlink:href="#path-5"></use>
            </g>
            <path d="M11.9556708,52.0571126 L11.9556708,54.5251309 L11.067,54.5251309 L11.067,47.9268655 L13.0147085,47.9268655 C13.4321863,47.9268655 13.7951717,47.9752124 14.1036755,48.0719076 C14.4121793,48.1686029 14.6677272,48.3059694 14.8703267,48.4840114 C15.0729263,48.6620535 15.2241062,48.8769285 15.3238711,49.1286431 C15.4236361,49.3803577 15.4735178,49.6612301 15.4735178,49.9712687 C15.4735178,50.2782377 15.419799,50.5591101 15.3123599,50.8138944 C15.2049207,51.0686787 15.0476015,51.2881582 14.8403974,51.4723396 C14.6331933,51.656521 14.3761107,51.8000268 14.0691417,51.9028614 C13.7621727,52.005696 13.4106985,52.0571126 13.0147085,52.0571126 L11.9556708,52.0571126 Z M11.9556708,51.3480178 L13.0147085,51.3480178 C13.2694927,51.3480178 13.4943441,51.3142517 13.6892695,51.2467185 C13.8841948,51.1791853 14.0476533,51.0847938 14.17965,50.963541 C14.3116466,50.8422883 14.41141,50.6972476 14.4789432,50.5284147 C14.5464764,50.3595817 14.5802425,50.1738683 14.5802425,49.9712687 C14.5802425,49.5507212 14.45055,49.2222693 14.1911612,48.9859032 C13.9317724,48.7495371 13.5396254,48.6313558 13.0147085,48.6313558 L11.9556708,48.6313558 L11.9556708,51.3480178 Z M16.4726968,54.5251309 L16.4726968,49.8607605 L16.942357,49.8607605 C17.031378,49.8607605 17.0927709,49.8776435 17.1265375,49.9114101 C17.1603041,49.9451767 17.1833264,50.0034999 17.1956052,50.0863815 L17.2508593,50.8138944 C17.4104832,50.4885073 17.6077078,50.2344942 17.8425391,50.0518477 C18.0773703,49.8692012 18.3528709,49.7778793 18.6690489,49.7778793 C18.7979759,49.7778793 18.9146224,49.7924601 19.0189918,49.8216221 C19.1233613,49.8507842 19.2200551,49.8914569 19.3090761,49.9436417 L19.2031723,50.5560417 C19.1816845,50.632784 19.134105,50.6711545 19.0604324,50.6711545 C19.0174568,50.6711545 18.9514594,50.6565737 18.8624384,50.6274117 C18.7734174,50.5982496 18.6490968,50.5836688 18.489473,50.5836688 C18.2039918,50.5836688 17.965327,50.6665492 17.7734714,50.8323124 C17.5816158,50.9980757 17.4212269,51.2390427 17.2922999,51.5552208 L17.2922999,54.5251309 L16.4726968,54.5251309 Z M22.0717831,49.7870883 C22.4125187,49.7870883 22.7202505,49.8438767 22.9949877,49.9574552 C23.269725,50.0710337 23.5030179,50.23219 23.6948735,50.4409289 C23.8867291,50.6496679 24.034072,50.9021461 24.1369067,51.1983711 C24.2397413,51.4945962 24.2911578,51.8253503 24.2911578,52.1906434 C24.2911578,52.5590062 24.2397413,52.8905277 24.1369067,53.185218 C24.034072,53.4799082 23.8867291,53.731619 23.6948735,53.9403579 C23.5030179,54.1490968 23.269725,54.3094857 22.9949877,54.4215294 C22.7202505,54.5335731 22.4125187,54.589594 22.0717831,54.589594 C21.7310476,54.589594 21.4233158,54.5335731 21.1485785,54.4215294 C20.8738413,54.3094857 20.6397809,54.1490968 20.4463905,53.9403579 C20.253,53.731619 20.1041223,53.4799082 19.9997528,53.185218 C19.8953834,52.8905277 19.8431994,52.5590062 19.8431994,52.1906434 C19.8431994,51.8253503 19.8953834,51.4945962 19.9997528,51.1983711 C20.1041223,50.9021461 20.253,50.6496679 20.4463905,50.4409289 C20.6397809,50.23219 20.8738413,50.0710337 21.1485785,49.9574552 C21.4233158,49.8438767 21.7310476,49.7870883 22.0717831,49.7870883 L22.0717831,49.7870883 Z M22.0717831,53.9495669 C22.5322366,53.9495669 22.8760367,53.7953173 23.1031938,53.4868135 C23.3303508,53.1783096 23.4439276,52.7477921 23.4439276,52.1952479 C23.4439276,51.6396341 23.3303508,51.2068143 23.1031938,50.8967756 C22.8760367,50.5867369 22.5322366,50.4317199 22.0717831,50.4317199 C21.8384867,50.4317199 21.6358902,50.4716253 21.4639876,50.5514372 C21.2920849,50.6312492 21.1485791,50.7463608 21.0334657,50.8967756 C20.9183524,51.0471904 20.8324023,51.2321365 20.7756131,51.4516193 C20.7188238,51.6711021 20.6904296,51.9189758 20.6904296,52.1952479 C20.6904296,52.47152 20.7188238,52.7186263 20.7756131,52.9365743 C20.8324023,53.1545223 20.9183524,53.3379335 21.0334657,53.4868135 C21.1485791,53.6356934 21.2920849,53.7500377 21.4639876,53.8298496 C21.6358902,53.9096615 21.8384867,53.9495669 22.0717831,53.9495669 L22.0717831,53.9495669 Z M28.5871673,54.5251309 C28.4705191,54.5251309 28.3968476,54.4683425 28.3661507,54.3547639 L28.2924785,53.788409 C28.0929487,54.0309145 27.8650276,54.2250695 27.6087085,54.3708797 C27.3523894,54.51669 27.058471,54.589594 26.7269445,54.589594 C26.4598815,54.589594 26.2173796,54.5381775 25.9994317,54.4353429 C25.7814837,54.3325083 25.5957702,54.1813283 25.4422857,53.9817985 C25.2888013,53.7822687 25.17062,53.5336275 25.0877383,53.2358676 C25.0048567,52.9381077 24.9634165,52.5958424 24.9634165,52.2090615 C24.9634165,51.8652562 25.0094612,51.5452458 25.1015519,51.2490208 C25.1936426,50.9527957 25.3264047,50.695713 25.4998421,50.477765 C25.6732796,50.2598171 25.8843176,50.0886844 26.1329625,49.964362 C26.3816074,49.8400395 26.6640146,49.7778793 26.9801927,49.7778793 C27.2656738,49.7778793 27.5097105,49.8262261 27.71231,49.9229214 C27.9149096,50.0196166 28.0960186,50.1554483 28.2556424,50.3304207 L28.2556424,47.742685 L29.0752455,47.742685 L29.0752455,54.5251309 L28.5871673,54.5251309 Z M26.9986107,53.9265444 C27.2656737,53.9265444 27.4997341,53.8651515 27.7007988,53.7423639 C27.9018635,53.6195763 28.0868095,53.4461414 28.2556424,53.2220541 L28.2556424,50.9658433 C28.1052276,50.7632438 27.9402343,50.6212727 27.7606574,50.5399259 C27.5810806,50.4585792 27.3823211,50.4179064 27.1643731,50.4179064 C26.7284772,50.4179064 26.393886,50.5729234 26.1605896,50.8829621 C25.9272932,51.1930008 25.8106467,51.6350295 25.8106467,52.2090615 C25.8106467,52.5129608 25.8367387,52.7731131 25.8889234,52.9895262 C25.9411081,53.2059393 26.0178492,53.3839787 26.119149,53.5236496 C26.2204487,53.6633205 26.3447693,53.7653861 26.4921144,53.8298496 C26.6394595,53.8943131 26.80829,53.9265444 26.9986107,53.9265444 L26.9986107,53.9265444 Z M31.1610894,49.8607605 L31.1610894,52.8352751 C31.1610894,53.1882894 31.2424349,53.4614877 31.4051285,53.6548782 C31.5678221,53.8482686 31.8133936,53.9449624 32.1418504,53.9449624 C32.3812862,53.9449624 32.606905,53.888174 32.8187136,53.7745955 C33.0305222,53.6610169 33.2254446,53.5029303 33.4034866,53.3003308 L33.4034866,49.8607605 L34.2230897,49.8607605 L34.2230897,54.5251309 L33.7350114,54.5251309 C33.6183632,54.5251309 33.5446918,54.4683425 33.5139949,54.3547639 L33.4495317,53.8528722 C33.2469322,54.0769595 33.0197785,54.2573011 32.768064,54.3939023 C32.5163494,54.5305035 32.2278029,54.5988031 31.9024158,54.5988031 C31.6476315,54.5988031 31.4227801,54.5565955 31.2278548,54.472179 C31.0329295,54.3877625 30.8694709,54.2688138 30.7374743,54.1153293 C30.6054776,53.9618448 30.5064816,53.7761314 30.4404833,53.5581834 C30.3744849,53.3402354 30.3414863,53.0992684 30.3414863,52.8352751 L30.3414863,49.8607605 L31.1610894,49.8607605 Z M38.7539293,50.6895726 C38.7293718,50.7233392 38.7048146,50.7494311 38.6802571,50.7678493 C38.6556996,50.7862674 38.6203987,50.7954764 38.5743533,50.7954764 C38.528308,50.7954764 38.4784263,50.7762911 38.4247067,50.73792 C38.3709871,50.6995488 38.3026875,50.6573412 38.2198059,50.6112959 C38.1369243,50.5652505 38.0363934,50.5230429 37.9182104,50.4846718 C37.8000273,50.4463007 37.6549867,50.4271154 37.483084,50.4271154 C37.255927,50.4271154 37.0548653,50.4677882 36.879893,50.549135 C36.7049207,50.6304818 36.5583452,50.7478956 36.4401621,50.9013801 C36.321979,51.0548646 36.2329594,51.2405781 36.1731004,51.458526 C36.1132415,51.676474 36.0833124,51.9205107 36.0833124,52.1906434 C36.0833124,52.4730549 36.1155437,52.7239983 36.1800072,52.9434811 C36.2444707,53.1629639 36.3350252,53.3471425 36.4516734,53.4960225 C36.5683216,53.6449025 36.7102926,53.7584793 36.8775907,53.8367564 C37.0448888,53.9150335 37.2329045,53.9541714 37.4416434,53.9541714 C37.6411733,53.9541714 37.8053992,53.9303817 37.9343262,53.8828015 C38.0632532,53.8352213 38.1706907,53.7822699 38.256642,53.7239458 C38.3425933,53.6656217 38.4131951,53.6126704 38.4684495,53.5650902 C38.523704,53.51751 38.5789575,53.4937202 38.634212,53.4937202 C38.7048148,53.4937202 38.7569988,53.5198122 38.7907654,53.5719969 L39.020991,53.8712902 C38.8183914,54.1199351 38.5651458,54.3018115 38.2612465,54.4169249 C37.9573472,54.5320382 37.6365694,54.589594 37.2989036,54.589594 C37.007283,54.589594 36.7363869,54.5358753 36.4862072,54.4284361 C36.2360275,54.320997 36.0188502,54.1652126 35.8346688,53.9610782 C35.6504874,53.7569438 35.5054467,53.5060004 35.3995424,53.2082405 C35.2936381,52.9104806 35.2406868,52.571285 35.2406868,52.1906434 C35.2406868,51.8437685 35.2890337,51.5229907 35.3857289,51.2283005 C35.4824241,50.9336102 35.6236278,50.6795972 35.809344,50.4662538 C35.9950602,50.2529103 36.2245161,50.0863821 36.4977185,49.9666642 C36.7709209,49.8469463 37.0840246,49.7870883 37.4370389,49.7870883 C37.762426,49.7870883 38.0509725,49.8400396 38.3026871,49.9459439 C38.5544017,50.0518482 38.7769509,50.2014934 38.9703413,50.3948838 L38.7539293,50.6895726 Z M41.2864107,54.5988031 C40.918048,54.5988031 40.6348733,54.49597 40.4368783,54.2903008 C40.2388833,54.0846316 40.1398873,53.7884109 40.1398873,53.40163 L40.1398873,50.5468327 L39.5781369,50.5468327 C39.5290218,50.5468327 39.4875816,50.5322519 39.4538151,50.5030899 C39.4200485,50.4739278 39.4031654,50.4286506 39.4031654,50.3672568 L39.4031654,50.0403364 L40.1675144,49.9436417 L40.3562994,48.5024295 C40.3624387,48.4563841 40.3823914,48.418781 40.416158,48.389619 C40.4499246,48.3604569 40.4928996,48.3458761 40.5450844,48.3458761 L40.9594904,48.3458761 L40.9594904,49.9528507 L42.2947988,49.9528507 L42.2947988,50.5468327 L40.9594904,50.5468327 L40.9594904,53.3463759 C40.9594904,53.542836 41.0070699,53.6886441 41.1022303,53.7838045 C41.1973907,53.8789649 41.3201764,53.9265444 41.4705912,53.9265444 C41.5565425,53.9265444 41.6309814,53.9150332 41.69391,53.8920105 C41.7568387,53.8689878 41.8113249,53.8436633 41.8573702,53.8160361 C41.9034156,53.7884089 41.9425535,53.7630843 41.9747853,53.7400616 C42.007017,53.717039 42.0354112,53.7055278 42.0599687,53.7055278 C42.1029444,53.7055278 42.1413149,53.7316198 42.1750815,53.7838045 L42.4145161,54.175188 C42.2733104,54.3071847 42.1029452,54.4107851 41.9034153,54.4859925 C41.7038855,54.5611999 41.4982193,54.5988031 41.2864107,54.5988031 L41.2864107,54.5988031 Z M46.5740646,53.6732962 L47.9231866,53.6732962 L47.9231866,49.7916928 C47.9231866,49.641278 47.927791,49.4831913 47.9370001,49.3174281 L46.9792617,50.1186131 C46.9393557,50.1523797 46.8986829,50.175402 46.8572421,50.1876808 C46.8158013,50.1999596 46.7751285,50.2060988 46.7352225,50.2060988 C46.6738287,50.2060988 46.6178077,50.1930529 46.5671579,50.1669605 C46.516508,50.1408681 46.4789048,50.1109391 46.4543473,50.0771725 L46.0951954,49.5844898 L48.1257851,47.8577978 L49.060501,47.8577978 L49.060501,53.6732962 L50.257674,53.6732962 L50.257674,54.5251309 L46.5740646,54.5251309 L46.5740646,53.6732962 Z M53.1170759,51.8683276 C52.8868491,51.8683276 52.6612303,51.8284222 52.4402126,51.7486103 C52.2191949,51.6687984 52.0219703,51.5483148 51.8485329,51.3871561 C51.6750954,51.2259974 51.536194,51.0264705 51.4318245,50.7885696 C51.3274551,50.5506686 51.2752711,50.2720984 51.2752711,49.9528507 C51.2752711,49.6550908 51.3305247,49.3757532 51.4410336,49.1148296 C51.5515424,48.8539059 51.7065594,48.6252175 51.9060893,48.4287573 C52.1056191,48.2322972 52.3450513,48.0772801 52.6243931,47.9637016 C52.9037349,47.8501231 53.2122341,47.7933347 53.5499,47.7933347 C53.8906355,47.7933347 54.1968325,47.8470534 54.4685001,47.9544926 C54.7401676,48.0619317 54.9719257,48.2123443 55.1637813,48.4057347 C55.3556369,48.5991252 55.5029799,48.8308833 55.6058145,49.101016 C55.7086491,49.3711487 55.7600656,49.6673694 55.7600656,49.9896868 C55.7600656,50.195356 55.7424152,50.3902784 55.7071137,50.5744598 C55.6718123,50.7586412 55.6211632,50.9359131 55.5551648,51.1062809 C55.4891665,51.2766487 55.4101232,51.4424094 55.3180325,51.6035682 C55.2259418,51.7647269 55.1231087,51.9266506 55.0095302,52.0893442 L53.4854368,54.2626737 C53.4332521,54.3363463 53.3557436,54.3985066 53.2529089,54.4491564 C53.1500743,54.4998063 53.0326605,54.5251309 52.9006638,54.5251309 L51.8554396,54.5251309 L53.9228654,51.9419998 C53.9750501,51.8775363 54.0241644,51.8146086 54.0702098,51.7532148 C54.1162551,51.691821 54.160765,51.6304281 54.2037406,51.5690343 C54.0502561,51.6672644 53.8814257,51.7417033 53.6972443,51.7923531 C53.5130629,51.843003 53.3196754,51.8683276 53.1170759,51.8683276 L53.1170759,51.8683276 Z M54.6687963,49.874574 C54.6687963,49.6934623 54.6411695,49.5315386 54.5859151,49.388798 C54.5306607,49.2460574 54.4523848,49.1255739 54.351085,49.0273438 C54.2497852,48.9291138 54.1293017,48.8539075 53.9896308,48.8017228 C53.8499599,48.749538 53.6972452,48.7234461 53.5314819,48.7234461 C53.3595793,48.7234461 53.2045623,48.7518403 53.0664262,48.8086295 C52.9282902,48.8654188 52.8108763,48.9444621 52.7141811,49.0457619 C52.6174858,49.1470616 52.543047,49.2675452 52.4908622,49.4072161 C52.4386775,49.5468869 52.4125855,49.6996017 52.4125855,49.865365 C52.4125855,50.2367974 52.5085119,50.5199721 52.7003675,50.7148974 C52.8922232,50.9098227 53.164654,51.0072839 53.5176684,51.0072839 C53.7018498,51.0072839 53.8653083,50.9781223 54.0080489,50.9197982 C54.1507895,50.8614741 54.271273,50.7816633 54.3695031,50.6803636 C54.4677331,50.5790638 54.542172,50.4593477 54.5928219,50.3212116 C54.6434718,50.1830756 54.6687963,50.0341979 54.6687963,49.874574 L54.6687963,49.874574 Z M58.1498072,54.5665715 C57.7906535,54.5174565 57.4537601,54.4192279 57.1391169,54.2718827 C56.8244737,54.1245376 56.5566472,53.9418938 56.3356296,53.7239458 L56.6855725,53.203636 C56.7162694,53.1575907 56.7569422,53.1199875 56.807592,53.0908255 C56.8582419,53.0616634 56.9111933,53.0470826 56.9664477,53.0470826 C57.0339809,53.0470826 57.1061175,53.0708723 57.1828597,53.1184525 C57.259602,53.1660327 57.3470868,53.2220537 57.4453169,53.2865172 C57.543547,53.3509807 57.655589,53.4154432 57.7814463,53.4799067 C57.9073036,53.5443702 58.0561813,53.5919497 58.2280839,53.6226466 L58.4030554,51.5598253 C58.1851074,51.4984315 57.9694649,51.4262949 57.7561215,51.3434133 C57.542778,51.2605316 57.3509253,51.1507919 57.1805575,51.0141907 C57.0101897,50.8775895 56.8728231,50.704922 56.7684537,50.4961831 C56.6640842,50.2874442 56.6119003,50.0265245 56.6119003,49.7134161 C56.6119003,49.4801197 56.6587124,49.2521986 56.7523379,49.0296461 C56.8459634,48.8070936 56.9817952,48.6083341 57.1598372,48.4333618 C57.3378792,48.2583895 57.5573587,48.1141162 57.8182824,48.0005377 C58.079206,47.8869592 58.3784963,47.8224967 58.7161622,47.8071482 L58.7668118,47.2269797 C58.7729512,47.1533072 58.8036476,47.0873098 58.858902,47.0289857 C58.9141564,46.9706616 58.9862931,46.9415 59.0753141,46.9415 L59.4943247,46.9415 L59.416048,47.8485888 C59.7414351,47.9007735 60.0223075,47.9928629 60.2586736,48.1248595 C60.4950397,48.2568562 60.7007059,48.4057339 60.8756782,48.5714972 L60.5994075,48.9905077 C60.5564318,49.0519015 60.5134568,49.0979462 60.4704811,49.1286431 C60.4275055,49.15934 60.3753215,49.1746882 60.3139277,49.1746882 C60.2678824,49.1746882 60.2133962,49.1601074 60.1504676,49.1309453 C60.0875389,49.1017833 60.0154023,49.0664824 59.9340555,49.0250416 C59.8527087,48.9836008 59.7629217,48.9413932 59.6646916,48.8984175 C59.5664615,48.8554418 59.4574892,48.8201409 59.3377713,48.7925137 L59.1766133,50.6987816 C59.397631,50.7663148 59.6163431,50.8407536 59.8327563,50.9221004 C60.0491694,51.0034472 60.2440918,51.1085825 60.4175293,51.2375095 C60.5909667,51.3664365 60.7314029,51.5268253 60.8388421,51.718681 C60.9462812,51.9105366 61,52.1507362 61,52.4392871 C61,52.7247682 60.9524205,52.9925946 60.8572601,53.2427744 C60.7620997,53.4929541 60.6231984,53.7139684 60.4405518,53.9058241 C60.2579053,54.0976797 60.0330539,54.2534641 59.7659908,54.373182 C59.4989278,54.4928999 59.1934983,54.5650365 58.849693,54.589594 L58.7944389,55.2664573 C58.7882995,55.3370601 58.757603,55.4022901 58.7023486,55.462149 C58.6470942,55.522008 58.5749576,55.551937 58.4859366,55.551937 L58.066926,55.551937 L58.1498072,54.5665715 Z M59.9225442,52.6142585 C59.9225442,52.4976103 59.9018242,52.3955446 59.8603833,52.3080585 C59.8189425,52.2205723 59.7606193,52.1430638 59.6854119,52.0755306 C59.6102045,52.0079974 59.5219522,51.9496742 59.4206525,51.9005592 C59.3193527,51.8514441 59.2088455,51.8069343 59.0891276,51.7670283 L58.9325742,53.6364601 C59.2579613,53.5934845 59.5043003,53.4837447 59.6715984,53.3072375 C59.8388965,53.1307304 59.9225442,52.8997397 59.9225442,52.6142585 L59.9225442,52.6142585 Z M57.6847515,49.6029078 C57.6847515,49.719556 57.7047042,49.8223891 57.7446102,49.9114101 C57.7845161,50.0004311 57.8405371,50.0794744 57.9126749,50.1485424 C57.9848126,50.2176105 58.0699952,50.2790033 58.1682253,50.3327229 C58.2664553,50.3864425 58.3738929,50.4347894 58.4905411,50.477765 L58.633281,48.7740957 C58.464448,48.7955835 58.3201747,48.8316518 58.2004568,48.8823017 C58.0807389,48.9329516 57.9825103,48.9951119 57.9057681,49.0687844 C57.8290258,49.142457 57.7730048,49.22457 57.7377034,49.3151258 C57.702402,49.4056817 57.6847515,49.501608 57.6847515,49.6029078 L57.6847515,49.6029078 Z" id="Product-19$" fill="#3498DB" mask="url(#mask-3)"></path>
        </g>
    </g>
</svg>