<?xml version="1.0" encoding="UTF-8" standalone="no"?>
<svg width="70px" height="71px" viewBox="0 0 70 71" version="1.1" xmlns="http://www.w3.org/2000/svg" xmlns:xlink="http://www.w3.org/1999/xlink">
    <!-- Generator: Sketch 3.7.2 (28276) - http://www.bohemiancoding.com/sketch -->
    <title>product-box-add-to-cart-button</title>
    <desc>Created with Sketch.</desc>
    <defs>
        <rect id="path-1" x="0" y="0" width="70" height="70" rx="4"></rect>
        <mask id="mask-2" maskContentUnits="userSpaceOnUse" maskUnits="objectBoundingBox" x="0" y="0" width="70" height="70" fill="white">
            <use xlink:href="#path-1"></use>
        </mask>
        <mask id="mask-4" maskContentUnits="userSpaceOnUse" maskUnits="objectBoundingBox" x="0" y="0" width="70" height="70" fill="white">
            <use xlink:href="#path-1"></use>
        </mask>
        <rect id="path-5" x="10" y="-21" width="50.7281105" height="45.1902419"></rect>
        <mask id="mask-6" maskContentUnits="userSpaceOnUse" maskUnits="objectBoundingBox" x="0" y="0" width="50.7281105" height="45.1902419" fill="white">
            <use xlink:href="#path-5"></use>
        </mask>
    </defs>
    <g id="Page-1" stroke="none" stroke-width="1" fill="none" fill-rule="evenodd">
        <g id="product-box-add-to-cart-button" transform="translate(0.000000, 0.912000)">
            <mask id="mask-3" fill="white">
                <use xlink:href="#path-1"></use>
            </mask>
            <g id="Mask" stroke="#3498DB" mask="url(#mask-2)" stroke-width="2" fill-opacity="0.01" fill="#00A0D2">
                <use mask="url(#mask-4)" xlink:href="#path-1"></use>
            </g>
            <g id="Rectangle-5" mask="url(#mask-3)" stroke="#3498DB" stroke-width="2" fill="#3498DB" fill-opacity="0.127858922">
                <use mask="url(#mask-6)" xlink:href="#path-5"></use>
            </g>
            <path d="M12.8973751,32.0764864 L12.8973751,34.4664551 L12.036808,34.4664551 L12.036808,28.0768559 L13.9229214,28.0768559 C14.3271967,28.0768559 14.6787029,28.1236738 14.9774505,28.2173111 C15.2761981,28.3109484 15.5236644,28.4439709 15.7198569,28.6163824 C15.9160493,28.7887939 16.0624483,28.9968737 16.1590582,29.240628 C16.2556681,29.4843822 16.3039723,29.7563722 16.3039723,30.0566061 C16.3039723,30.3538674 16.2519524,30.6258574 16.147911,30.8725842 C16.0438695,31.1193111 15.8915254,31.3318497 15.690874,31.5102065 C15.4902227,31.6885633 15.2412701,31.8275308 14.9440088,31.9271133 C14.6467475,32.0266959 14.3063884,32.0764864 13.9229214,32.0764864 L12.8973751,32.0764864 Z M12.8973751,31.3898163 L13.9229214,31.3898163 C14.1696483,31.3898163 14.3873889,31.357118 14.5761498,31.2917205 C14.7649107,31.2263231 14.9232,31.1349166 15.0510223,31.0174984 C15.1788447,30.9000802 15.2754531,30.7596263 15.3408506,30.5961326 C15.4062481,30.4326389 15.4389463,30.2527985 15.4389463,30.0566061 C15.4389463,29.6493581 15.3133553,29.3312933 15.0621696,29.1024022 C14.8109838,28.873511 14.4312382,28.7590671 13.9229214,28.7590671 L12.8973751,28.7590671 L12.8973751,31.3898163 Z M17.271553,34.4664551 L17.271553,29.9495926 L17.7263605,29.9495926 C17.8125662,29.9495926 17.8720176,29.9659417 17.9047163,29.9986404 C17.9374151,30.0313392 17.9597093,30.087818 17.9715998,30.1680785 L18.0251065,30.8725842 C18.1796824,30.5574873 18.3706699,30.3115073 18.5980748,30.1346368 C18.8254797,29.9577663 19.0922677,29.8693324 19.3984468,29.8693324 C19.5232965,29.8693324 19.6362541,29.8834521 19.737323,29.911692 C19.8383918,29.9399318 19.9320277,29.9793183 20.0182335,30.0298527 L19.9156788,30.622886 C19.8948705,30.6972013 19.8487957,30.7343584 19.777453,30.7343584 C19.7358365,30.7343584 19.6719262,30.7202387 19.5857205,30.6919989 C19.4995147,30.6637591 19.3791257,30.6496394 19.2245498,30.6496394 C18.9480968,30.6496394 18.7169796,30.7298987 18.5311913,30.8904198 C18.345403,31.0509409 18.1900864,31.2842875 18.0652366,31.5904666 L18.0652366,34.4664551 L17.271553,34.4664551 Z M22.6935716,29.8782502 C23.0235316,29.8782502 23.3215316,29.9332427 23.5875804,30.0432294 C23.8536293,30.1532161 24.0795445,30.3092759 24.2653328,30.5114136 C24.4511211,30.7135513 24.5938043,30.958045 24.6933869,31.2449021 C24.7929694,31.5317593 24.8427599,31.8520535 24.8427599,32.2057944 C24.8427599,32.5625079 24.7929694,32.8835453 24.6933869,33.1689161 C24.5938043,33.454287 24.4511211,33.6980376 24.2653328,33.9001752 C24.0795445,34.1023129 23.8536293,34.2576296 23.5875804,34.36613 C23.3215316,34.4746303 23.0235316,34.5288797 22.6935716,34.5288797 C22.3636116,34.5288797 22.0656116,34.4746303 21.7995628,34.36613 C21.5335139,34.2576296 21.3068556,34.1023129 21.119581,33.9001752 C20.9323064,33.6980376 20.7881368,33.454287 20.687068,33.1689161 C20.5859992,32.8835453 20.5354655,32.5625079 20.5354655,32.2057944 C20.5354655,31.8520535 20.5859992,31.5317593 20.687068,31.2449021 C20.7881368,30.958045 20.9323064,30.7135513 21.119581,30.5114136 C21.3068556,30.3092759 21.5335139,30.1532161 21.7995628,30.0432294 C22.0656116,29.9332427 22.3636116,29.8782502 22.6935716,29.8782502 L22.6935716,29.8782502 Z M22.6935716,33.909093 C23.1394635,33.909093 23.4723912,33.7597215 23.6923645,33.4609739 C23.9123379,33.1622263 24.0223229,32.7453236 24.0223229,32.2102533 C24.0223229,31.6722104 23.9123379,31.2530783 23.6923645,30.9528444 C23.4723912,30.6526105 23.1394635,30.5024958 22.6935716,30.5024958 C22.467653,30.5024958 22.2714635,30.5411392 22.1049972,30.6184271 C21.9385309,30.695715 21.7995633,30.8071863 21.6880904,30.9528444 C21.5766174,31.0985024 21.4933855,31.2775996 21.4383921,31.4901415 C21.3833988,31.7026833 21.3559025,31.9427182 21.3559025,32.2102533 C21.3559025,32.4777885 21.3833988,32.7170802 21.4383921,32.9281357 C21.4933855,33.1391912 21.5766174,33.3168022 21.6880904,33.4609739 C21.7995633,33.6051456 21.9385309,33.7158738 22.1049972,33.7931617 C22.2714635,33.8704496 22.467653,33.909093 22.6935716,33.909093 L22.6935716,33.909093 Z M29.0029107,34.4664551 C28.8899514,34.4664551 28.8186098,34.4114626 28.7888837,34.3014759 L28.7175413,33.7530316 C28.5243215,33.987868 28.3036083,34.175883 28.0553951,34.3170821 C27.807182,34.4582812 27.5225586,34.5288797 27.2015164,34.5288797 C26.9428991,34.5288797 26.7080662,34.4790892 26.4970107,34.3795066 C26.2859552,34.2799241 26.1061148,34.1335251 25.9574841,33.9403053 C25.8088535,33.7470855 25.6944096,33.5063074 25.6141491,33.217964 C25.5338885,32.9296206 25.4937589,32.5981792 25.4937589,32.22363 C25.4937589,31.8906974 25.5383474,31.5808071 25.6275258,31.29395 C25.7167041,31.0070929 25.8452677,30.7581403 26.0132203,30.5470848 C26.181173,30.3360293 26.385537,30.1703086 26.6263187,30.0499178 C26.8671003,29.9295269 27.1405766,29.8693324 27.4467557,29.8693324 C27.7232087,29.8693324 27.9595279,29.9161504 28.1557203,30.0097877 C28.3519128,30.103425 28.5272943,30.2349611 28.6818701,30.4044001 L28.6818701,27.8985 L29.4755538,27.8985 L29.4755538,34.4664551 L29.0029107,34.4664551 Z M27.4645913,33.8867985 C27.7232086,33.8867985 27.9498669,33.8273472 28.1445731,33.7084427 C28.3392792,33.5895381 28.5183764,33.421588 28.6818701,33.2045873 L28.6818701,31.0197278 C28.5362121,30.8235354 28.3764366,30.6860541 28.2025387,30.6072799 C28.0286409,30.5285056 27.8361671,30.4891191 27.6251116,30.4891191 C27.2030006,30.4891191 26.8789906,30.6392338 26.6530721,30.9394677 C26.4271535,31.2397016 26.3141959,31.6677514 26.3141959,32.22363 C26.3141959,32.5179187 26.3394627,32.7698438 26.3899971,32.979413 C26.4405316,33.1889822 26.5148458,33.3613912 26.612942,33.4966451 C26.7110382,33.6318989 26.8314272,33.7307368 26.9741126,33.7931617 C27.116798,33.8555866 27.2802893,33.8867985 27.4645913,33.8867985 L27.4645913,33.8867985 Z M31.4954341,29.9495926 L31.4954341,32.83004 C31.4954341,33.1718904 31.5742071,33.436449 31.7317556,33.6237236 C31.8893041,33.8109982 32.1271096,33.9046341 32.4451791,33.9046341 C32.6770429,33.9046341 32.8955267,33.8496416 33.100637,33.7396549 C33.3057473,33.6296683 33.4945053,33.476581 33.6669169,33.2803886 L33.6669169,29.9495926 L34.4606005,29.9495926 L34.4606005,34.4664551 L33.9879575,34.4664551 C33.8749982,34.4664551 33.8036565,34.4114626 33.7739304,34.3014759 L33.7115058,33.8154562 C33.5153134,34.0324569 33.2953434,34.2070953 33.0515891,34.3393766 C32.8078349,34.4716578 32.5284134,34.5377975 32.2133165,34.5377975 C31.9665896,34.5377975 31.748849,34.4969247 31.5600881,34.4151778 C31.3713272,34.333431 31.2130379,34.218244 31.0852156,34.0696133 C30.9573932,33.9209827 30.8615279,33.7411423 30.7976167,33.5300868 C30.7337055,33.3190313 30.7017504,33.0856847 30.7017504,32.83004 L30.7017504,29.9495926 L31.4954341,29.9495926 Z M38.8481551,30.752194 C38.8243742,30.7848928 38.8005936,30.8101596 38.7768127,30.8279953 C38.7530318,30.8458309 38.7188473,30.8547486 38.6742581,30.8547486 C38.6296689,30.8547486 38.5813647,30.8361701 38.5293439,30.7990124 C38.4773232,30.7618548 38.4111836,30.720982 38.330923,30.6763928 C38.2506625,30.6318036 38.1533109,30.5909308 38.0388653,30.5537731 C37.9244197,30.5166154 37.7839658,30.4980369 37.6174995,30.4980369 C37.3975262,30.4980369 37.202823,30.5374234 37.033384,30.6161977 C36.8639451,30.6949719 36.722005,30.8086726 36.6075594,30.9573033 C36.4931138,31.1059339 36.4069093,31.2857743 36.3489434,31.4968298 C36.2909774,31.7078853 36.2619949,31.9442045 36.2619949,32.2057944 C36.2619949,32.4792748 36.2932068,32.7222822 36.3556317,32.934824 C36.4180566,33.1473659 36.5057473,33.32572 36.6187066,33.4698917 C36.7316659,33.6140634 36.8691472,33.7240484 37.0311546,33.79985 C37.193162,33.8756517 37.3752318,33.9135519 37.5773695,33.9135519 C37.7705893,33.9135519 37.9296217,33.8905145 38.0544714,33.844439 C38.1793212,33.7983635 38.2833611,33.7470867 38.3665942,33.6906071 C38.4498274,33.6341274 38.5181964,33.5828506 38.5717035,33.5367751 C38.6252105,33.4906996 38.6787167,33.4676622 38.7322238,33.4676622 C38.8005938,33.4676622 38.8511275,33.4929291 38.8838262,33.5434635 L39.1067711,33.8332918 C38.9105786,34.0740734 38.6653418,34.2501981 38.3710531,34.3616711 C38.0767644,34.473144 37.7661311,34.5288797 37.4391437,34.5288797 C37.1567454,34.5288797 36.8944163,34.4768597 36.6521484,34.3728183 C36.4098804,34.2687769 36.1995712,34.117919 36.0212144,33.9202403 C35.8428577,33.7225615 35.7024038,33.4795541 35.5998487,33.1912106 C35.4972935,32.9028672 35.4460167,32.5743984 35.4460167,32.2057944 C35.4460167,31.8698892 35.4928347,31.5592558 35.586472,31.273885 C35.6801093,30.9885141 35.8168474,30.7425341 35.9966905,30.5359375 C36.1765336,30.3293409 36.3987331,30.1680791 36.6632956,30.0521472 C36.9278581,29.9362153 37.2310601,29.8782502 37.5729106,29.8782502 C37.8880075,29.8782502 38.1674289,29.929527 38.4111832,30.0320822 C38.6549374,30.1346373 38.8704486,30.27955 39.0577232,30.4668246 L38.8481551,30.752194 Z M41.3005484,34.5377975 C40.9438348,34.5377975 40.6696154,34.4382165 40.4778819,34.2390514 C40.2861484,34.0398863 40.190283,33.7530335 40.190283,33.3784843 L40.190283,30.6139682 L39.6462976,30.6139682 C39.5987358,30.6139682 39.5586061,30.5998485 39.5259074,30.5716087 C39.4932087,30.5433689 39.4768595,30.4995235 39.4768595,30.4400712 L39.4768595,30.1234896 L40.2170364,30.0298527 L40.3998512,28.634218 C40.4057964,28.5896288 40.4251181,28.5532148 40.4578169,28.524975 C40.4905156,28.4967352 40.5321316,28.4826155 40.582666,28.4826155 L40.9839667,28.4826155 L40.9839667,30.0387705 L42.2770468,30.0387705 L42.2770468,30.6139682 L40.9839667,30.6139682 L40.9839667,33.3249775 C40.9839667,33.5152247 41.0300415,33.6564217 41.1221925,33.7485727 C41.2143435,33.8407237 41.3332462,33.8867985 41.4789042,33.8867985 C41.5621374,33.8867985 41.6342222,33.8756514 41.6951607,33.8533568 C41.7560993,33.8310622 41.8088624,33.8065385 41.8534516,33.779785 C41.8980408,33.7530315 41.935941,33.7285078 41.9671535,33.7062132 C41.9983659,33.6839186 42.0258621,33.6727715 42.049643,33.6727715 C42.0912596,33.6727715 42.1284167,33.6980383 42.1611155,33.7485727 L42.3929781,34.127579 C42.2562379,34.2554013 42.0912604,34.3557255 41.8980406,34.4285545 C41.7048207,34.5013835 41.5056587,34.5377975 41.3005484,34.5377975 L41.3005484,34.5377975 Z M12.3712253,44.1807701 L13.6776821,44.1807701 L13.6776821,40.42192 C13.6776821,40.276262 13.6821409,40.1231747 13.6910588,39.9626536 L12.7636082,40.7385017 C12.7249642,40.7712004 12.6855777,40.7934947 12.6454474,40.8053851 C12.6053172,40.8172756 12.5659306,40.8232207 12.5272867,40.8232207 C12.4678344,40.8232207 12.413585,40.8105873 12.3645369,40.7853201 C12.3154888,40.7600529 12.2790749,40.7310703 12.255294,40.6983716 L11.9075,40.2212696 L13.8738735,38.5491833 L14.7790296,38.5491833 L14.7790296,44.1807701 L15.9383428,44.1807701 L15.9383428,45.005666 L12.3712253,45.005666 L12.3712253,44.1807701 Z M18.7073178,42.4328825 C18.4843718,42.4328825 18.2658881,42.3942391 18.0518599,42.3169512 C17.8378318,42.2396632 17.6468443,42.1229899 17.4788917,41.9669278 C17.3109391,41.8108656 17.1764303,41.6176486 17.0753615,41.3872712 C16.9742927,41.1568937 16.923759,40.8871331 16.923759,40.5779814 C16.923759,40.2896379 16.9772652,40.0191342 17.0842793,39.7664621 C17.1912934,39.51379 17.3414081,39.2923337 17.5346279,39.1020865 C17.7278477,38.9118393 17.959708,38.7617246 18.2302158,38.6517379 C18.5007236,38.5417512 18.7994667,38.4867587 19.1264541,38.4867587 C19.4564141,38.4867587 19.7529278,38.5387787 20.016004,38.6428201 C20.2790802,38.7468616 20.5035091,38.8925174 20.6892974,39.079792 C20.8750857,39.2670666 21.017769,39.4914955 21.1173515,39.7530854 C21.2169341,40.0146754 21.2667246,40.3015282 21.2667246,40.6136525 C21.2667246,40.8128176 21.2496323,41.0015757 21.2154473,41.1799325 C21.1812622,41.3582892 21.1322149,41.529955 21.0683037,41.694935 C21.0043925,41.8599151 20.9278489,42.0204337 20.8386705,42.1764959 C20.7494921,42.3325581 20.6499111,42.4893611 20.5399244,42.6469095 L19.0640295,44.7515089 C19.0134951,44.8228516 18.9384378,44.8830461 18.8388552,44.9320942 C18.7392727,44.9811423 18.625572,45.005666 18.4977496,45.005666 L17.48558,45.005666 L19.4876247,42.5042248 C19.5381591,42.4418 19.5857202,42.3808623 19.6303094,42.3214101 C19.6748986,42.2619578 19.7180009,42.2025064 19.7596174,42.1430542 C19.6109868,42.2381778 19.4474956,42.3102626 19.2691388,42.3593107 C19.090782,42.4083588 18.9035102,42.4328825 18.7073178,42.4328825 L18.7073178,42.4328825 Z M20.209966,40.5021801 C20.209966,40.326796 20.1832129,40.169993 20.1297059,40.0317665 C20.0761989,39.89354 20.0003984,39.7768667 19.9023021,39.6817431 C19.8042059,39.5866195 19.6875326,39.5137916 19.5522787,39.4632571 C19.4170249,39.4127227 19.2691396,39.3874559 19.1086185,39.3874559 C18.9421522,39.3874559 18.7920375,39.4149522 18.6582699,39.4699455 C18.5245023,39.5249388 18.4108016,39.6014825 18.3171643,39.6995787 C18.223527,39.7976749 18.1514422,39.9143482 18.1009078,40.0496021 C18.0503734,40.184856 18.0251065,40.3327412 18.0251065,40.4932623 C18.0251065,40.8529485 18.1179993,41.1271679 18.3037876,41.3159288 C18.4895759,41.5046897 18.7533913,41.5990688 19.0952418,41.5990688 C19.2735986,41.5990688 19.4318878,41.5708294 19.5701143,41.5143497 C19.7083408,41.4578701 19.8250141,41.3805833 19.9201377,41.2824871 C20.0152613,41.1843909 20.0873461,41.0684607 20.1363942,40.9346931 C20.1854423,40.8009255 20.209966,40.656756 20.209966,40.5021801 L20.209966,40.5021801 Z M23.5808921,45.0457961 C23.2330964,44.9982343 22.906857,44.9031121 22.6021642,44.7604267 C22.2974714,44.6177412 22.0381148,44.4408734 21.8240867,44.2298179 L22.1629629,43.7259626 C22.192689,43.6813734 22.2320755,43.6449594 22.2811236,43.6167196 C22.3301718,43.5884798 22.3814486,43.5743601 22.4349556,43.5743601 C22.5003531,43.5743601 22.5702084,43.5973975 22.6445237,43.643473 C22.7188391,43.6895485 22.8035573,43.7437979 22.8986809,43.8062227 C22.9938045,43.8686476 23.1023032,43.9310715 23.2241803,43.9934964 C23.3460575,44.0559213 23.490227,44.1019961 23.6566933,44.1317222 L23.8261314,42.1341364 C23.6150759,42.0746841 23.406253,42.0048288 23.1996564,41.9245682 C22.9930598,41.8443077 22.8072743,41.7380384 22.6422943,41.6057571 C22.4773143,41.4734758 22.3442919,41.3062689 22.243223,41.1041312 C22.1421542,40.9019935 22.0916205,40.6493252 22.0916205,40.3461187 C22.0916205,40.1202002 22.1369522,39.899487 22.2276169,39.6839725 C22.3182816,39.4684581 22.4498177,39.2759843 22.6222293,39.1065454 C22.7946408,38.9371065 23.0071794,38.7973958 23.2598515,38.6874091 C23.5125236,38.5774224 23.802349,38.5149985 24.1293364,38.5001354 L24.1783843,37.9383144 C24.1843295,37.8669717 24.2140552,37.8030615 24.2675622,37.7465818 C24.3210692,37.6901022 24.3909246,37.6618628 24.4771304,37.6618628 L24.88289,37.6618628 L24.8070887,38.5402655 C25.1221857,38.5907999 25.3941757,38.6799769 25.6230669,38.8077993 C25.8519581,38.9356216 26.0511201,39.0797912 26.2205591,39.2403123 L25.9530252,39.6460719 C25.9114087,39.7055242 25.8697927,39.7501127 25.8281761,39.7798388 C25.7865595,39.809565 25.7360259,39.8244278 25.6765736,39.8244278 C25.6319844,39.8244278 25.5792214,39.8103081 25.5182828,39.7820683 C25.4573442,39.7538285 25.3874889,39.7196439 25.3087146,39.6795136 C25.2299404,39.6393834 25.1429928,39.5985106 25.0478692,39.556894 C24.9527456,39.5152774 24.8472194,39.4810929 24.7312875,39.4543393 L24.5752261,41.3003227 C24.7892542,41.3657201 25.0010497,41.4378049 25.2106189,41.5165792 C25.4201881,41.5953534 25.6089462,41.6971639 25.7768988,41.8220136 C25.9448514,41.9468633 26.0808464,42.10218 26.1848879,42.2879683 C26.2889293,42.4737566 26.3409493,42.7063601 26.3409493,42.9857857 C26.3409493,43.2622387 26.2948745,43.5215953 26.2027235,43.7638632 C26.1105725,44.0061311 25.9760638,44.2201561 25.7991933,44.4059444 C25.6223228,44.5917327 25.4045822,44.7425905 25.1459649,44.8585224 C24.8873476,44.9744543 24.591577,45.0443096 24.2586444,45.0680905 L24.2051377,45.7235484 C24.1991924,45.7919185 24.1694667,45.8550856 24.1159597,45.9130515 C24.0624527,45.9710175 23.9925973,46 23.9063916,46 L23.5006319,46 L23.5808921,45.0457961 Z M25.2975674,43.1552238 C25.2975674,43.0422645 25.2775026,42.9434266 25.2373723,42.8587071 C25.197242,42.7739877 25.1407632,42.6989303 25.0679342,42.6335328 C24.9951052,42.5681354 24.9096439,42.5116566 24.8115476,42.4640948 C24.7134514,42.416533 24.606439,42.3734307 24.4905071,42.3347867 L24.3389046,44.1450989 C24.6540015,44.1034823 24.8925501,43.997213 25.0545575,43.8262878 C25.2165649,43.6553625 25.2975674,43.4316768 25.2975674,43.1552238 L25.2975674,43.1552238 Z M23.1305435,40.2391052 C23.1305435,40.3520645 23.1498652,40.4516455 23.1885092,40.5378513 C23.2271531,40.6240571 23.2814025,40.7006007 23.3512589,40.7674845 C23.4211153,40.8343683 23.5036041,40.8938196 23.5987277,40.9458404 C23.6938513,40.9978611 23.7978912,41.044679 23.9108505,41.0862956 L24.0490763,39.4365038 C23.8855826,39.4573121 23.7458719,39.4922397 23.62994,39.5412878 C23.5140081,39.590336 23.4188859,39.6505305 23.3445706,39.7218732 C23.2702552,39.7932159 23.2160059,39.8727321 23.1818208,39.9604241 C23.1476358,40.0481162 23.1305435,40.141009 23.1305435,40.2391052 L23.1305435,40.2391052 Z" id="Product-19$" fill="#3498DB" mask="url(#mask-3)"></path>
            <rect id="Rectangle-643" fill="#3498DB" mask="url(#mask-3)" x="11" y="50" width="38" height="13" rx="5"></rect>
            <path d="M17.604,54.336 L17.604,56.044 L19.232,56.044 L19.232,56.584 L17.604,56.584 L17.604,58.304 L17.02,58.304 L17.02,56.584 L15.4,56.584 L15.4,56.044 L17.02,56.044 L17.02,54.336 L17.604,54.336 Z M26.596,59 L25.996,59 C25.9266663,59 25.8706669,58.9826668 25.828,58.948 C25.7853331,58.9133332 25.7533334,58.8693336 25.732,58.816 L25.196,57.432 L22.624,57.432 L22.088,58.816 C22.0693332,58.8640002 22.0373336,58.9066665 21.992,58.944 C21.9466664,58.9813335 21.890667,59 21.824,59 L21.224,59 L23.516,53.268 L24.304,53.268 L26.596,59 Z M22.84,56.872 L24.98,56.872 L24.08,54.54 C24.021333,54.3959993 23.9640003,54.2160011 23.908,54 C23.8786665,54.1093339 23.8500001,54.2099995 23.822,54.302 C23.7939999,54.3940005 23.7666668,54.4746663 23.74,54.544 L22.84,56.872 Z M30.06,59 C29.9586662,59 29.8946668,58.9506672 29.868,58.852 L29.804,58.36 C29.6306658,58.5706677 29.4326678,58.7393327 29.21,58.866 C28.9873322,58.9926673 28.7320014,59.056 28.444,59.056 C28.2119988,59.056 28.0013343,59.0113338 27.812,58.922 C27.6226657,58.8326662 27.461334,58.7013342 27.328,58.528 C27.194666,58.3546658 27.0920004,58.138668 27.02,57.88 C26.9479996,57.621332 26.912,57.3240017 26.912,56.988 C26.912,56.6893318 26.9519996,56.4113346 27.032,56.154 C27.1120004,55.8966654 27.2273326,55.6733343 27.378,55.484 C27.5286674,55.2946657 27.7119989,55.1460005 27.928,55.038 C28.1440011,54.9299995 28.389332,54.876 28.664,54.876 C28.9120012,54.876 29.1239991,54.9179996 29.3,55.002 C29.4760009,55.0860004 29.6333326,55.2039992 29.772,55.356 L29.772,53.108 L30.484,53.108 L30.484,59 L30.06,59 Z M28.68,58.48 C28.9120012,58.48 29.1153325,58.4266672 29.29,58.32 C29.4646675,58.2133328 29.6253326,58.0626676 29.772,57.868 L29.772,55.908 C29.6413327,55.7319991 29.4980008,55.608667 29.342,55.538 C29.1859992,55.467333 29.0133343,55.432 28.824,55.432 C28.4453314,55.432 28.1546677,55.5666653 27.952,55.836 C27.7493323,56.1053347 27.648,56.4893308 27.648,56.988 C27.648,57.2520013 27.6706664,57.4779991 27.716,57.666 C27.7613336,57.8540009 27.8279996,58.0086661 27.916,58.13 C28.0040004,58.2513339 28.1119994,58.3399997 28.24,58.396 C28.3680006,58.4520003 28.5146658,58.48 28.68,58.48 L28.68,58.48 Z M34.532,59 C34.4306662,59 34.3666668,58.9506672 34.34,58.852 L34.276,58.36 C34.1026658,58.5706677 33.9046678,58.7393327 33.682,58.866 C33.4593322,58.9926673 33.2040014,59.056 32.916,59.056 C32.6839988,59.056 32.4733343,59.0113338 32.284,58.922 C32.0946657,58.8326662 31.933334,58.7013342 31.8,58.528 C31.666666,58.3546658 31.5640004,58.138668 31.492,57.88 C31.4199996,57.621332 31.384,57.3240017 31.384,56.988 C31.384,56.6893318 31.4239996,56.4113346 31.504,56.154 C31.5840004,55.8966654 31.6993326,55.6733343 31.85,55.484 C32.0006674,55.2946657 32.1839989,55.1460005 32.4,55.038 C32.6160011,54.9299995 32.861332,54.876 33.136,54.876 C33.3840012,54.876 33.5959991,54.9179996 33.772,55.002 C33.9480009,55.0860004 34.1053326,55.2039992 34.244,55.356 L34.244,53.108 L34.956,53.108 L34.956,59 L34.532,59 Z M33.152,58.48 C33.3840012,58.48 33.5873325,58.4266672 33.762,58.32 C33.9366675,58.2133328 34.0973326,58.0626676 34.244,57.868 L34.244,55.908 C34.1133327,55.7319991 33.9700008,55.608667 33.814,55.538 C33.6579992,55.467333 33.4853343,55.432 33.296,55.432 C32.9173314,55.432 32.6266677,55.5666653 32.424,55.836 C32.2213323,56.1053347 32.12,56.4893308 32.12,56.988 C32.12,57.2520013 32.1426664,57.4779991 32.188,57.666 C32.2333336,57.8540009 32.2999996,58.0086661 32.388,58.13 C32.4760004,58.2513339 32.5839994,58.3399997 32.712,58.396 C32.8400006,58.4520003 32.9866658,58.48 33.152,58.48 L33.152,58.48 Z" id="+-Add" fill="#FFFFFF" mask="url(#mask-3)"></path>
        </g>
    </g>
</svg>