<?xml version="1.0" encoding="UTF-8" standalone="no"?>
<svg width="70px" height="44px" viewBox="0 0 70 44" version="1.1" xmlns="http://www.w3.org/2000/svg" xmlns:xlink="http://www.w3.org/1999/xlink">
    <!-- Generator: Sketch 3.7.2 (28276) - http://www.bohemiancoding.com/sketch -->
    <title>product-page-title</title>
    <desc>Created with Sketch.</desc>
    <defs>
        <rect id="path-1" x="0" y="0" width="70" height="42.5531915" rx="4"></rect>
        <mask id="mask-2" maskContentUnits="userSpaceOnUse" maskUnits="objectBoundingBox" x="0" y="0" width="70" height="42.5531915" fill="white">
            <use xlink:href="#path-1"></use>
        </mask>
        <mask id="mask-4" maskContentUnits="userSpaceOnUse" maskUnits="objectBoundingBox" x="0" y="0" width="70" height="42.5531915" fill="white">
            <use xlink:href="#path-1"></use>
        </mask>
        <rect id="path-5" x="-2.85714286" y="11.4285714" width="34" height="42.5531915"></rect>
        <mask id="mask-6" maskContentUnits="userSpaceOnUse" maskUnits="objectBoundingBox" x="0" y="0" width="34" height="42.5531915" fill="white">
            <use xlink:href="#path-5"></use>
        </mask>
    </defs>
    <g id="Page-1" stroke="none" stroke-width="1" fill="none" fill-rule="evenodd">
        <g id="product-page-title" transform="translate(0.000000, 0.767750)">
            <mask id="mask-3" fill="white">
                <use xlink:href="#path-1"></use>
            </mask>
            <g id="Mask" stroke="#3498DB" mask="url(#mask-2)" stroke-width="2" fill-opacity="0.01" fill="#00A0D2">
                <use mask="url(#mask-4)" xlink:href="#path-1"></use>
            </g>
            <path d="M45.2425,23.2600304 L45.2425,24.3180091 L43.285,24.3180091 L43.285,30.1823708 L42.0745,30.1823708 L42.0745,24.3180091 L40.108,24.3180091 L40.108,23.2600304 L45.2425,23.2600304 Z M47.1325,25.2706687 L47.1325,30.1823708 L46.021,30.1823708 L46.021,25.2706687 L47.1325,25.2706687 Z M47.299,23.8392857 C47.299,23.9414139 47.2795002,24.0371576 47.2405,24.1265198 C47.2014998,24.2158819 47.1497503,24.2940726 47.08525,24.3610942 C47.0207497,24.4281158 46.9450004,24.4815727 46.858,24.5214666 C46.7709996,24.5613604 46.6780005,24.581307 46.579,24.581307 C46.4829995,24.581307 46.3922504,24.5613604 46.30675,24.5214666 C46.2212496,24.4815727 46.1470003,24.4281158 46.084,24.3610942 C46.0209997,24.2940726 45.9707502,24.2158819 45.93325,24.1265198 C45.8957498,24.0371576 45.877,23.9414139 45.877,23.8392857 C45.877,23.733966 45.8957498,23.6350309 45.93325,23.5424772 C45.9707502,23.4499235 46.0209997,23.3701371 46.084,23.3031155 C46.1470003,23.2360939 46.2212496,23.182637 46.30675,23.1427432 C46.3922504,23.1028493 46.4829995,23.0829027 46.579,23.0829027 C46.6780005,23.0829027 46.7709996,23.1028493 46.858,23.1427432 C46.9450004,23.182637 47.0207497,23.2360939 47.08525,23.3031155 C47.1497503,23.3701371 47.2014998,23.4499235 47.2405,23.5424772 C47.2795002,23.6350309 47.299,23.733966 47.299,23.8392857 L47.299,23.8392857 Z M49.9045,30.2589666 C49.505498,30.2589666 49.1980011,30.138489 48.982,29.8975304 C48.7659989,29.6565717 48.658,29.3238623 48.658,28.8993921 L48.658,26.156307 L48.19,26.156307 C48.1299997,26.156307 48.0782502,26.1355625 48.03475,26.0940729 C47.9912498,26.0525834 47.9695,25.99035 47.9695,25.9073708 L47.9695,25.4382219 L48.712,25.3089666 L48.946,23.968541 C48.9580001,23.9047109 48.9857498,23.8552433 49.02925,23.8201368 C49.0727502,23.7850302 49.1274997,23.7674772 49.1935,23.7674772 L49.7695,23.7674772 L49.7695,25.3137538 L50.9845,25.3137538 L50.9845,26.156307 L49.7695,26.156307 L49.7695,28.8180091 C49.7695,28.9712014 49.8054996,29.090881 49.8775,29.1770517 C49.9495004,29.2632223 50.0454994,29.306307 50.1655,29.306307 C50.2345003,29.306307 50.2922498,29.2975305 50.33875,29.2799772 C50.3852502,29.2624239 50.4257498,29.244073 50.46025,29.224924 C50.4947502,29.205775 50.5254999,29.1874241 50.5525,29.1698708 C50.5795001,29.1523175 50.6064999,29.143541 50.6335,29.143541 C50.6665002,29.143541 50.6934999,29.1523175 50.7145,29.1698708 C50.7355001,29.1874241 50.7579999,29.2137536 50.782,29.2488602 L51.115,29.8233283 C50.9529992,29.966946 50.767001,30.0754556 50.557,30.1488602 C50.3469989,30.2222648 50.1295011,30.2589666 49.9045,30.2589666 L49.9045,30.2589666 Z M53.0545,23.068541 L53.0545,30.1823708 L51.943,30.1823708 L51.943,23.068541 L53.0545,23.068541 Z M56.218,25.1940729 C56.5090015,25.1940729 56.7767488,25.2435405 57.02125,25.3424772 C57.2657512,25.4414139 57.4764991,25.5858273 57.6535,25.7757219 C57.8305009,25.9656165 57.9684995,26.1985928 58.0675,26.4746581 C58.1665005,26.7507233 58.216,27.0658797 58.216,27.4201368 C58.216,27.5094989 58.21225,27.5837003 58.20475,27.6427432 C58.19725,27.701786 58.1837501,27.7480621 58.16425,27.7815729 C58.1447499,27.8150838 58.1185002,27.8390197 58.0855,27.8533815 C58.0524998,27.8677432 58.0105003,27.874924 57.9595,27.874924 L55.1065,27.874924 C55.1395002,28.3791819 55.2669989,28.7493909 55.489,28.9855623 C55.7110011,29.2217337 56.0049982,29.3398176 56.371,29.3398176 C56.5510009,29.3398176 56.7062493,29.3174774 56.83675,29.2727964 C56.9672507,29.2281153 57.0812495,29.1786477 57.17875,29.1243921 C57.2762505,29.0701365 57.3617496,29.0206689 57.43525,28.9759878 C57.5087504,28.9313068 57.5799997,28.9089666 57.649,28.9089666 C57.6940002,28.9089666 57.7329998,28.9185409 57.766,28.93769 C57.7990002,28.956839 57.8274999,28.9839664 57.8515,29.0190729 L58.1755,29.449924 C58.0524994,29.6031163 57.9145008,29.7315724 57.7615,29.8352964 C57.6084992,29.9390203 57.4487508,30.0219982 57.28225,30.0842325 C57.1157492,30.1464669 56.9462509,30.1903494 56.77375,30.2158815 C56.6012491,30.2414135 56.4340008,30.2541793 56.272,30.2541793 C55.9509984,30.2541793 55.6525014,30.197531 55.3765,30.0842325 C55.1004986,29.9709341 54.860501,29.8033826 54.6565,29.5815729 C54.452499,29.3597633 54.2920006,29.085298 54.175,28.7581687 C54.0579994,28.4310394 53.9995,28.0520538 53.9995,27.6212006 C53.9995,27.2860925 54.0504995,26.9709361 54.1525,26.6757219 C54.2545005,26.3805076 54.400749,26.1235953 54.59125,25.9049772 C54.781751,25.6863591 55.0142486,25.5132225 55.28875,25.3855623 C55.5632514,25.2579021 55.8729983,25.1940729 56.218,25.1940729 L56.218,25.1940729 Z M56.2405,26.0414134 C55.9164984,26.0414134 55.6630009,26.1387528 55.48,26.3334347 C55.2969991,26.5281165 55.1800003,26.8041775 55.129,27.1616261 L57.217,27.1616261 C57.217,27.0084339 57.1975002,26.8640204 57.1585,26.7283815 C57.1194998,26.5927425 57.0595004,26.4738607 56.9785,26.3717325 C56.8974996,26.2696044 56.7955006,26.1890201 56.6725,26.1299772 C56.5494994,26.0709344 56.4055008,26.0414134 56.2405,26.0414134 L56.2405,26.0414134 Z" id="Title" fill="#3498DB" mask="url(#mask-3)"></path>
            <path d="M40.2573645,12.8288567 C40.3035842,12.8288567 40.3421,12.8309054 40.3729132,12.8350029 C40.4037263,12.8391004 40.4313293,12.8472953 40.455723,12.8595877 C40.4801168,12.8718802 40.5038682,12.8896357 40.5269781,12.9128549 C40.5500879,12.936074 40.5757651,12.9668047 40.6040105,13.0050479 L43.527392,16.9673022 C43.5171209,16.871694 43.5100597,16.778136 43.5062081,16.6866254 C43.5023564,16.5951148 43.5004306,16.5097516 43.5004306,16.4305335 L43.5004306,12.8288567 L44.4132652,12.8288567 L44.4132652,18.7537994 L43.8778896,18.7537994 C43.7957213,18.7537994 43.7276766,18.7401413 43.6737536,18.7128247 C43.6198307,18.6855081 43.5671923,18.6363389 43.5158371,18.5653157 L40.6040105,14.6194514 C40.6117138,14.7068646 40.6174912,14.7935935 40.6213428,14.8796408 C40.6251945,14.9656881 40.6271202,15.0442222 40.6271202,15.1152454 L40.6271202,18.7537994 L39.7142857,18.7537994 L39.7142857,12.8288567 L40.2573645,12.8288567 Z M50.4333511,18.7537994 L49.6322136,18.7537994 C49.542342,18.7537994 49.46852,18.7298977 49.4107453,18.6820937 C49.3529707,18.6342896 49.3112452,18.5748769 49.2855676,18.5038537 L48.8695924,17.2950998 L46.5624705,17.2950998 L46.1464953,18.5038537 C46.1259532,18.5666819 46.0855116,18.6240459 46.0251692,18.6759474 C45.9648268,18.727849 45.8910048,18.7537994 45.8037009,18.7537994 L44.9987118,18.7537994 L47.1864333,12.8288567 L48.2456295,12.8288567 L50.4333511,18.7537994 Z M46.8282325,16.5165804 L48.6038304,16.5165804 L47.9259449,14.5456969 C47.8951317,14.4582838 47.8611094,14.3551652 47.8238769,14.2363379 C47.7866443,14.1175107 47.7500543,13.9884416 47.7141056,13.8491269 C47.678157,13.9884416 47.6428508,14.1181936 47.608186,14.2383866 C47.5735212,14.3585797 47.5394989,14.4637471 47.506118,14.5538919 L46.8282325,16.5165804 Z M49.8093883,12.8288567 L50.6451903,12.8288567 C50.735062,12.8288567 50.8082421,12.8520755 50.8647328,12.8985137 C50.9212236,12.9449519 50.963591,13.0050476 50.9918364,13.0788024 L52.301388,16.6927716 C52.34504,16.810233 52.3867655,16.9393021 52.4265657,17.0799826 C52.466366,17.2206631 52.50424,17.3688535 52.5401886,17.5245582 C52.5992471,17.2104172 52.6724272,16.9331578 52.7597311,16.6927716 L54.0654311,13.0788024 C54.088541,13.0159742 54.1296245,12.9586102 54.188683,12.9067087 C54.2477415,12.8548071 54.3209216,12.8288567 54.4082255,12.8288567 L55.2440276,12.8288567 L52.9946801,18.7537994 L52.0587358,18.7537994 L49.8093883,12.8288567 Z" id="NAV" fill="#3498DB" mask="url(#mask-3)"></path>
            <g id="Rectangle-5" mask="url(#mask-3)" stroke="#3498DB" stroke-width="2" fill="#3498DB" fill-opacity="0.127858922">
                <use mask="url(#mask-6)" xlink:href="#path-5"></use>
            </g>
        </g>
    </g>
</svg>