<?xml version="1.0" encoding="UTF-8" standalone="no"?>
<svg width="70px" height="51px" viewBox="0 0 70 51" version="1.1" xmlns="http://www.w3.org/2000/svg" xmlns:xlink="http://www.w3.org/1999/xlink">
    <!-- Generator: Sketch 3.7.2 (28276) - http://www.bohemiancoding.com/sketch -->
    <title>product-title</title>
    <desc>Created with Sketch.</desc>
    <defs>
        <rect id="path-1" x="0" y="0" width="70" height="50" rx="4"></rect>
        <mask id="mask-2" maskContentUnits="userSpaceOnUse" maskUnits="objectBoundingBox" x="0" y="0" width="70" height="50" fill="white">
            <use xlink:href="#path-1"></use>
        </mask>
        <mask id="mask-4" maskContentUnits="userSpaceOnUse" maskUnits="objectBoundingBox" x="0" y="0" width="70" height="50" fill="white">
            <use xlink:href="#path-1"></use>
        </mask>
    </defs>
    <g id="Page-1" stroke="none" stroke-width="1" fill="none" fill-rule="evenodd">
        <g id="product-title" transform="translate(0.000000, -0.232250)">
            <g id="category-title" transform="translate(0.000000, 0.685125)">
                <mask id="mask-3" fill="white">
                    <use xlink:href="#path-1"></use>
                </mask>
                <g id="Mask" stroke="#3498DB" mask="url(#mask-2)" stroke-width="2" fill-opacity="0.01" fill="#00A0D2">
                    <use mask="url(#mask-4)" xlink:href="#path-1"></use>
                </g>
                <rect id="Rectangle-502" fill="#3498DB" opacity="0.2" mask="url(#mask-3)" x="-54" y="8" width="89" height="50"></rect>
                <path d="M40,11.1030097 L40,15.4294182 L40.5756426,15.4294182 L40.5756426,13.4479958 L42.8539753,13.4479958 L42.8539753,15.4294182 L43.4296179,15.4294182 L43.4296179,11.1030097 L42.8539753,11.1030097 L42.8539753,12.9632442 L40.5756426,12.9632442 L40.5756426,11.1030097 L40,11.1030097 Z M44.7081504,13.266214 C44.7081504,13.0480746 44.7364273,12.8329682 44.7929819,12.6208883 C44.8495366,12.4088084 44.9384068,12.2179394 45.0595953,12.0482754 C45.1807839,11.8786115 45.3363068,11.7422765 45.5261688,11.6392662 C45.7160308,11.536256 45.942246,11.4847516 46.2048211,11.4847516 C46.4673962,11.4847516 46.6936114,11.536256 46.8834734,11.6392662 C47.0733354,11.7422765 47.2288584,11.8786115 47.3500469,12.0482754 C47.4712354,12.2179394 47.5601057,12.4088084 47.6166603,12.6208883 C47.6732149,12.8329682 47.7014918,13.0480746 47.7014918,13.266214 C47.7014918,13.4843533 47.6732149,13.6994597 47.6166603,13.9115396 C47.5601057,14.1236195 47.4712354,14.3144886 47.3500469,14.4841525 C47.2288584,14.6538164 47.0733354,14.7901514 46.8834734,14.8931617 C46.6936114,14.9961719 46.4673962,15.0476763 46.2048211,15.0476763 C45.942246,15.0476763 45.7160308,14.9961719 45.5261688,14.8931617 C45.3363068,14.7901514 45.1807839,14.6538164 45.0595953,14.4841525 C44.9384068,14.3144886 44.8495366,14.1236195 44.7929819,13.9115396 C44.7364273,13.6994597 44.7081504,13.4843533 44.7081504,13.266214 L44.7081504,13.266214 Z M44.1325078,13.266214 C44.1325078,13.561106 44.175933,13.8448849 44.2627848,14.117559 C44.3496366,14.3902332 44.4799123,14.6315967 44.6536158,14.8416568 C44.8273194,15.0517169 45.0434357,15.2183486 45.3019712,15.341557 C45.5605067,15.4647653 45.8614536,15.5263685 46.2048211,15.5263685 C46.5481886,15.5263685 46.8491356,15.4647653 47.1076711,15.341557 C47.3662066,15.2183486 47.5823229,15.0517169 47.7560264,14.8416568 C47.9297299,14.6315967 48.0600056,14.3902332 48.1468574,14.117559 C48.2337092,13.8448849 48.2771344,13.561106 48.2771344,13.266214 C48.2771344,12.9713219 48.2337092,12.687543 48.1468574,12.4148689 C48.0600056,12.1421947 47.9297299,11.9008312 47.7560264,11.6907711 C47.5823229,11.480711 47.3662066,11.3130694 47.1076711,11.1878413 C46.8491356,11.0626131 46.5481886,11 46.2048211,11 C45.8614536,11 45.5605067,11.0626131 45.3019712,11.1878413 C45.0434357,11.3130694 44.8273194,11.480711 44.6536158,11.6907711 C44.4799123,11.9008312 44.3496366,12.1421947 44.2627848,12.4148689 C44.175933,12.687543 44.1325078,12.9713219 44.1325078,13.266214 L44.1325078,13.266214 Z M48.9921431,11.1030097 L48.9921431,15.4294182 L49.5374887,15.4294182 L49.5374887,11.8301372 L49.5496075,11.8301372 L50.9008527,15.4294182 L51.3916638,15.4294182 L52.742909,11.8301372 L52.7550278,11.8301372 L52.7550278,15.4294182 L53.3003734,15.4294182 L53.3003734,11.1030097 L52.512652,11.1030097 L51.1432286,14.7386471 L49.7798645,11.1030097 L48.9921431,11.1030097 Z M54.2577579,11.1030097 L54.2577579,15.4294182 L57.2632181,15.4294182 L57.2632181,14.9446666 L54.8334005,14.9446666 L54.8334005,13.4479958 L57.0814363,13.4479958 L57.0814363,12.9632442 L54.8334005,12.9632442 L54.8334005,11.5877614 L57.2450399,11.5877614 L57.2450399,11.1030097 L54.2577579,11.1030097 Z M60.8564397,11 L59.068918,15.5263685 L59.5051945,15.5263685 L61.2987756,11 L60.8564397,11 Z M63.3407919,11.1030097 L63.3407919,15.4294182 L63.8861375,15.4294182 L63.8861375,11.9573845 L63.8982563,11.9573845 L66.1584109,15.4294182 L66.7885881,15.4294182 L66.7885881,11.1030097 L66.2432424,11.1030097 L66.2432424,14.6113998 L66.2311237,14.6113998 L63.9527909,11.1030097 L63.3407919,11.1030097 Z M68.4670406,13.6418965 L69.2002275,11.6241177 L69.2123463,11.6241177 L69.9334144,13.6418965 L68.4670406,13.6418965 Z M68.8972577,11.1030097 L67.2127457,15.4294182 L67.8005071,15.4294182 L68.2852588,14.1266481 L70.1151962,14.1266481 L70.5878291,15.4294182 L71.2240656,15.4294182 L69.5334943,11.1030097 L68.8972577,11.1030097 Z M73.3509135,15.4294182 L74.89,11.1030097 L74.2901198,11.1030097 L73.0418843,14.8537756 L73.0297655,14.8537756 L71.7936488,11.1030097 L71.1755905,11.1030097 L72.6964988,15.4294182 L73.3509135,15.4294182 Z" id="HOME-/-NAV" fill="#3498DB" mask="url(#mask-3)"></path>
                <path d="M41.505,22.18 L41.505,28 L43.075,28 L43.075,22.18 L45.215,22.18 L45.215,20.86 L39.365,20.86 L39.365,22.18 L41.505,22.18 Z M47.345,22.03 L47.345,20.86 L45.925,20.86 L45.925,22.03 L47.345,22.03 Z M45.925,22.83 L45.925,28 L47.345,28 L47.345,22.83 L45.925,22.83 Z M50.265,22.83 L50.265,21.28 L48.845,21.28 L48.845,22.83 L47.985,22.83 L47.985,23.78 L48.845,23.78 L48.845,26.83 C48.845,27.0900013 48.8883329,27.2999992 48.975,27.46 C49.0616671,27.6200008 49.1799993,27.7433329 49.33,27.83 C49.4800008,27.9166671 49.6533324,27.9749998 49.85,28.005 C50.0466677,28.0350001 50.2549989,28.05 50.475,28.05 C50.6150007,28.05 50.7583326,28.0466667 50.905,28.04 C51.0516674,28.0333333 51.1849994,28.0200001 51.305,28 L51.305,26.9 C51.238333,26.9133334 51.1683337,26.9233333 51.095,26.93 C51.0216663,26.9366667 50.9450004,26.94 50.865,26.94 C50.6249988,26.94 50.4650004,26.9000004 50.385,26.82 C50.3049996,26.7399996 50.265,26.5800012 50.265,26.34 L50.265,23.78 L51.305,23.78 L51.305,22.83 L50.265,22.83 Z M52.025,20.86 L52.025,28 L53.445,28 L53.445,20.86 L52.025,20.86 Z M58.045,24.86 L55.735,24.86 C55.7416667,24.7599995 55.7633332,24.6466673 55.8,24.52 C55.8366669,24.3933327 55.8999996,24.2733339 55.99,24.16 C56.0800005,24.0466661 56.1999993,23.951667 56.35,23.875 C56.5000008,23.7983329 56.6883322,23.76 56.915,23.76 C57.2616684,23.76 57.5199992,23.8533324 57.69,24.04 C57.8600009,24.2266676 57.978333,24.4999982 58.045,24.86 L58.045,24.86 Z M55.735,25.76 L59.465,25.76 C59.4916668,25.359998 59.4583338,24.9766685 59.365,24.61 C59.2716662,24.2433315 59.1200011,23.9166681 58.91,23.63 C58.699999,23.3433319 58.4316683,23.1150008 58.105,22.945 C57.7783317,22.7749991 57.3950022,22.69 56.955,22.69 C56.5616647,22.69 56.203335,22.7599993 55.88,22.9 C55.5566651,23.0400007 55.2783345,23.2316654 55.045,23.475 C54.8116655,23.7183345 54.6316673,24.006665 54.505,24.34 C54.3783327,24.673335 54.315,25.0333314 54.315,25.42 C54.315,25.820002 54.3766661,26.186665 54.5,26.52 C54.623334,26.853335 54.7983322,27.1399988 55.025,27.38 C55.2516678,27.6200012 55.5283317,27.8049993 55.855,27.935 C56.1816683,28.0650006 56.5483313,28.13 56.955,28.13 C57.5416696,28.13 58.0416646,27.996668 58.455,27.73 C58.8683354,27.463332 59.174999,27.0200031 59.375,26.4 L58.125,26.4 C58.0783331,26.5600008 57.9516677,26.7116659 57.745,26.855 C57.5383323,26.998334 57.2916681,27.07 57.005,27.07 C56.604998,27.07 56.2983344,26.9666677 56.085,26.76 C55.8716656,26.5533323 55.7550001,26.2200023 55.735,25.76 L55.735,25.76 Z" id="Title" fill="#3498DB" mask="url(#mask-3)"></path>
            </g>
        </g>
    </g>
</svg>