<?xml version="1.0" encoding="UTF-8" standalone="no"?>
<svg width="70px" height="44px" viewBox="0 0 70 44" version="1.1" xmlns="http://www.w3.org/2000/svg" xmlns:xlink="http://www.w3.org/1999/xlink">
    <!-- Generator: Sketch 3.7.2 (28276) - http://www.bohemiancoding.com/sketch -->
    <title>product-page-title-center</title>
    <desc>Created with Sketch.</desc>
    <defs>
        <rect id="path-1" x="0" y="0" width="70" height="42.5531915" rx="4"></rect>
        <mask id="mask-2" maskContentUnits="userSpaceOnUse" maskUnits="objectBoundingBox" x="0" y="0" width="70" height="42.5531915" fill="white">
            <use xlink:href="#path-1"></use>
        </mask>
        <mask id="mask-4" maskContentUnits="userSpaceOnUse" maskUnits="objectBoundingBox" x="0" y="0" width="70" height="42.5531915" fill="white">
            <use xlink:href="#path-1"></use>
        </mask>
        <rect id="path-5" x="10.249461" y="17.1428571" width="50.7281105" height="45.1902419"></rect>
        <mask id="mask-6" maskContentUnits="userSpaceOnUse" maskUnits="objectBoundingBox" x="0" y="0" width="50.7281105" height="45.1902419" fill="white">
            <use xlink:href="#path-5"></use>
        </mask>
    </defs>
    <g id="Page-1" stroke="none" stroke-width="1" fill="none" fill-rule="evenodd">
        <g id="product-page-title-center" transform="translate(0.000000, 0.767750)">
            <mask id="mask-3" fill="white">
                <use xlink:href="#path-1"></use>
            </mask>
            <g id="Mask" stroke="#3498DB" mask="url(#mask-2)" stroke-width="2" fill-opacity="0.01" fill="#00A0D2">
                <use mask="url(#mask-4)" xlink:href="#path-1"></use>
            </g>
            <path d="M29.5282143,6.11717325 L29.5282143,7.17515198 L27.5707143,7.17515198 L27.5707143,13.0395137 L26.3602143,13.0395137 L26.3602143,7.17515198 L24.3937143,7.17515198 L24.3937143,6.11717325 L29.5282143,6.11717325 Z M31.4182143,8.12781155 L31.4182143,13.0395137 L30.3067143,13.0395137 L30.3067143,8.12781155 L31.4182143,8.12781155 Z M31.5847143,6.69642857 C31.5847143,6.79855674 31.5652145,6.89430047 31.5262143,6.98366261 C31.4872141,7.07302476 31.4354646,7.15121547 31.3709643,7.21823708 C31.306464,7.28525869 31.2307147,7.33871561 31.1437143,7.37860942 C31.0567139,7.41850324 30.9637148,7.43844985 30.8647143,7.43844985 C30.7687138,7.43844985 30.6779647,7.41850324 30.5924643,7.37860942 C30.5069639,7.33871561 30.4327146,7.28525869 30.3697143,7.21823708 C30.306714,7.15121547 30.2564645,7.07302476 30.2189643,6.98366261 C30.1814641,6.89430047 30.1627143,6.79855674 30.1627143,6.69642857 C30.1627143,6.5911089 30.1814641,6.49217372 30.2189643,6.39962006 C30.2564645,6.30706641 30.306714,6.22727997 30.3697143,6.16025836 C30.4327146,6.09323675 30.5069639,6.03977983 30.5924643,5.99988602 C30.6779647,5.9599922 30.7687138,5.94004559 30.8647143,5.94004559 C30.9637148,5.94004559 31.0567139,5.9599922 31.1437143,5.99988602 C31.2307147,6.03977983 31.306464,6.09323675 31.3709643,6.16025836 C31.4354646,6.22727997 31.4872141,6.30706641 31.5262143,6.39962006 C31.5652145,6.49217372 31.5847143,6.5911089 31.5847143,6.69642857 L31.5847143,6.69642857 Z M34.1902143,13.1161094 C33.7912123,13.1161094 33.4837154,12.9956319 33.2677143,12.7546733 C33.0517132,12.5137146 32.9437143,12.1810052 32.9437143,11.756535 L32.9437143,9.01344985 L32.4757143,9.01344985 C32.415714,9.01344985 32.3639645,8.99270537 32.3204643,8.95121581 C32.2769641,8.90972624 32.2552143,8.84749282 32.2552143,8.76451368 L32.2552143,8.29536474 L32.9977143,8.16610942 L33.2317143,6.82568389 C33.2437143,6.76185378 33.2714641,6.71238619 33.3149643,6.67727964 C33.3584645,6.64217308 33.413214,6.62462006 33.4792143,6.62462006 L34.0552143,6.62462006 L34.0552143,8.17089666 L35.2702143,8.17089666 L35.2702143,9.01344985 L34.0552143,9.01344985 L34.0552143,11.675152 C34.0552143,11.8283442 34.0912139,11.9480239 34.1632143,12.0341945 C34.2352146,12.1203652 34.3312137,12.1634498 34.4512143,12.1634498 C34.5202146,12.1634498 34.5779641,12.1546733 34.6244643,12.1371201 C34.6709645,12.1195668 34.7114641,12.1012159 34.7459643,12.0820669 C34.7804645,12.0629178 34.8112142,12.044567 34.8382143,12.0270137 C34.8652144,12.0094604 34.8922142,12.0006839 34.9192143,12.0006839 C34.9522145,12.0006839 34.9792142,12.0094604 35.0002143,12.0270137 C35.0212144,12.044567 35.0437142,12.0708965 35.0677143,12.106003 L35.4007143,12.6804711 C35.2387135,12.8240889 35.0527153,12.9325984 34.8427143,13.006003 C34.6327132,13.0794077 34.4152154,13.1161094 34.1902143,13.1161094 L34.1902143,13.1161094 Z M37.3402143,5.92568389 L37.3402143,13.0395137 L36.2287143,13.0395137 L36.2287143,5.92568389 L37.3402143,5.92568389 Z M40.5037143,8.05121581 C40.7947157,8.05121581 41.0624631,8.1006834 41.3069643,8.19962006 C41.5514655,8.29855673 41.7622134,8.44297018 41.9392143,8.63286474 C42.1162152,8.82275931 42.2542138,9.0557357 42.3532143,9.33180091 C42.4522148,9.60786612 42.5017143,9.92302254 42.5017143,10.2772796 C42.5017143,10.3666418 42.4979643,10.4408432 42.4904643,10.499886 C42.4829642,10.5589289 42.4694644,10.605205 42.4499643,10.6387158 C42.4304642,10.6722266 42.4042145,10.6961625 42.3712143,10.7105243 C42.3382141,10.7248861 42.2962145,10.7320669 42.2452143,10.7320669 L39.3922143,10.7320669 C39.4252145,11.2363247 39.5527132,11.6065338 39.7747143,11.8427052 C39.9967154,12.0788766 40.2907125,12.1969605 40.6567143,12.1969605 C40.8367152,12.1969605 40.9919636,12.1746203 41.1224643,12.1299392 C41.2529649,12.0852581 41.3669638,12.0357905 41.4644643,11.981535 C41.5619648,11.9272794 41.6474639,11.8778118 41.7209643,11.8331307 C41.7944647,11.7884496 41.8657139,11.7661094 41.9347143,11.7661094 C41.9797145,11.7661094 42.0187141,11.7756838 42.0517143,11.7948328 C42.0847145,11.8139819 42.1132142,11.8411092 42.1372143,11.8762158 L42.4612143,12.3070669 C42.3382137,12.4602591 42.2002151,12.5887153 42.0472143,12.6924392 C41.8942135,12.7961631 41.7344651,12.879141 41.5679643,12.9413754 C41.4014635,13.0036097 41.2319651,13.0474923 41.0594643,13.0730243 C40.8869634,13.0985564 40.7197151,13.1113222 40.5577143,13.1113222 C40.2367127,13.1113222 39.9382157,13.0546738 39.6622143,12.9413754 C39.3862129,12.8280769 39.1462153,12.6605254 38.9422143,12.4387158 C38.7382133,12.2169062 38.5777149,11.9424408 38.4607143,11.6153116 C38.3437137,11.2881823 38.2852143,10.9091967 38.2852143,10.4783435 C38.2852143,10.1432354 38.3362138,9.82807898 38.4382143,9.53286474 C38.5402148,9.2376505 38.6864633,8.98073818 38.8769643,8.76212006 C39.0674652,8.54350195 39.2999629,8.37036538 39.5744643,8.24270517 C39.8489657,8.11504495 40.1587126,8.05121581 40.5037143,8.05121581 L40.5037143,8.05121581 Z M40.5262143,8.89855623 C40.2022127,8.89855623 39.9487152,8.99589568 39.7657143,9.19057751 C39.5827134,9.38525933 39.4657145,9.6613204 39.4147143,10.018769 L41.5027143,10.018769 C41.5027143,9.86557674 41.4832145,9.72116329 41.4442143,9.58552432 C41.4052141,9.44988534 41.3452147,9.33100355 41.2642143,9.22887538 C41.1832139,9.12674721 41.0812149,9.04616291 40.9582143,8.98712006 C40.8352137,8.92807721 40.6912151,8.89855623 40.5262143,8.89855623 L40.5262143,8.89855623 Z" id="Title" fill="#3498DB" mask="url(#mask-3)"></path>
            <g id="Rectangle-5" mask="url(#mask-3)" stroke="#3498DB" stroke-width="2" fill="#3498DB" fill-opacity="0.127858922">
                <use mask="url(#mask-6)" xlink:href="#path-5"></use>
            </g>
        </g>
    </g>
</svg>