<?xml version="1.0" encoding="UTF-8" standalone="no"?>
<svg width="70px" height="50px" viewBox="0 0 70 50" version="1.1" xmlns="http://www.w3.org/2000/svg" xmlns:xlink="http://www.w3.org/1999/xlink">
    <!-- Generator: Sketch 3.7.2 (28276) - http://www.bohemiancoding.com/sketch -->
    <title>product-title-top</title>
    <desc>Created with Sketch.</desc>
    <defs>
        <rect id="path-1" x="0" y="0" width="70" height="50" rx="4"></rect>
        <mask id="mask-2" maskContentUnits="userSpaceOnUse" maskUnits="objectBoundingBox" x="0" y="0" width="70" height="50" fill="white">
            <use xlink:href="#path-1"></use>
        </mask>
        <mask id="mask-4" maskContentUnits="userSpaceOnUse" maskUnits="objectBoundingBox" x="0" y="0" width="70" height="50" fill="white">
            <use xlink:href="#path-1"></use>
        </mask>
    </defs>
    <g id="Page-1" stroke="none" stroke-width="1" fill="none" fill-rule="evenodd">
        <g id="product-title-top">
            <mask id="mask-3" fill="white">
                <use xlink:href="#path-1"></use>
            </mask>
            <g id="Mask" stroke="#3498DB" mask="url(#mask-2)" stroke-width="2" fill-opacity="0.01" fill="#00A0D2">
                <use mask="url(#mask-4)" xlink:href="#path-1"></use>
            </g>
            <rect id="Rectangle-502" fill="#3498DB" opacity="0.2" mask="url(#mask-3)" x="6" y="16" width="76" height="54"></rect>
            <path d="M6.11,6.73664119 L6.11,11.0630497 L6.68564258,11.0630497 L6.68564258,9.0816273 L8.96397534,9.0816273 L8.96397534,11.0630497 L9.53961792,11.0630497 L9.53961792,6.73664119 L8.96397534,6.73664119 L8.96397534,8.59687565 L6.68564258,8.59687565 L6.68564258,6.73664119 L6.11,6.73664119 Z M10.8181504,8.89984543 C10.8181504,8.6817061 10.8464273,8.46659971 10.9029819,8.2545198 C10.9595366,8.04243989 11.0484068,7.85157084 11.1695953,7.68190691 C11.2907839,7.51224299 11.4463068,7.37590795 11.6361688,7.27289771 C11.8260308,7.16988747 12.052246,7.11838312 12.3148211,7.11838312 C12.5773962,7.11838312 12.8036114,7.16988747 12.9934734,7.27289771 C13.1833354,7.37590795 13.3388584,7.51224299 13.4600469,7.68190691 C13.5812354,7.85157084 13.6701057,8.04243989 13.7266603,8.2545198 C13.7832149,8.46659971 13.8114918,8.6817061 13.8114918,8.89984543 C13.8114918,9.11798477 13.7832149,9.33309116 13.7266603,9.54517107 C13.6701057,9.75725097 13.5812354,9.94812003 13.4600469,10.117784 C13.3388584,10.2874479 13.1833354,10.4237829 12.9934734,10.5267932 C12.8036114,10.6298034 12.5773962,10.6813077 12.3148211,10.6813077 C12.052246,10.6813077 11.8260308,10.6298034 11.6361688,10.5267932 C11.4463068,10.4237829 11.2907839,10.2874479 11.1695953,10.117784 C11.0484068,9.94812003 10.9595366,9.75725097 10.9029819,9.54517107 C10.8464273,9.33309116 10.8181504,9.11798477 10.8181504,8.89984543 L10.8181504,8.89984543 Z M10.2425078,8.89984543 C10.2425078,9.19473749 10.285933,9.47851635 10.3727848,9.75119052 C10.4596366,10.0238647 10.5899123,10.2652282 10.7636158,10.4752883 C10.9373194,10.6853484 11.1534357,10.8519801 11.4119712,10.9751884 C11.6705067,11.0983968 11.9714536,11.16 12.3148211,11.16 C12.6581886,11.16 12.9591356,11.0983968 13.2176711,10.9751884 C13.4762066,10.8519801 13.6923229,10.6853484 13.8660264,10.4752883 C14.0397299,10.2652282 14.1700056,10.0238647 14.2568574,9.75119052 C14.3437092,9.47851635 14.3871344,9.19473749 14.3871344,8.89984543 C14.3871344,8.60495337 14.3437092,8.32117451 14.2568574,8.04850035 C14.1700056,7.77582618 14.0397299,7.53446267 13.8660264,7.32440257 C13.6923229,7.11434247 13.4762066,6.94670087 13.2176711,6.82147273 C12.9591356,6.6962446 12.6581886,6.63363147 12.3148211,6.63363147 C11.9714536,6.63363147 11.6705067,6.6962446 11.4119712,6.82147273 C11.1534357,6.94670087 10.9373194,7.11434247 10.7636158,7.32440257 C10.5899123,7.53446267 10.4596366,7.77582618 10.3727848,8.04850035 C10.285933,8.32117451 10.2425078,8.60495337 10.2425078,8.89984543 L10.2425078,8.89984543 Z M15.1021431,6.73664119 L15.1021431,11.0630497 L15.6474887,11.0630497 L15.6474887,7.46376867 L15.6596075,7.46376867 L17.0108527,11.0630497 L17.5016638,11.0630497 L18.852909,7.46376867 L18.8650278,7.46376867 L18.8650278,11.0630497 L19.4103734,11.0630497 L19.4103734,6.73664119 L18.622652,6.73664119 L17.2532286,10.3722786 L15.8898645,6.73664119 L15.1021431,6.73664119 Z M20.3677579,6.73664119 L20.3677579,11.0630497 L23.3732181,11.0630497 L23.3732181,10.578298 L20.9434005,10.578298 L20.9434005,9.0816273 L23.1914363,9.0816273 L23.1914363,8.59687565 L20.9434005,8.59687565 L20.9434005,7.22139284 L23.3550399,7.22139284 L23.3550399,6.73664119 L20.3677579,6.73664119 Z M26.9664397,6.63363147 L25.178918,11.16 L25.6151945,11.16 L27.4087756,6.63363147 L26.9664397,6.63363147 Z M29.4507919,6.73664119 L29.4507919,11.0630497 L29.9961375,11.0630497 L29.9961375,7.59101598 L30.0082563,7.59101598 L32.2684109,11.0630497 L32.8985881,11.0630497 L32.8985881,6.73664119 L32.3532424,6.73664119 L32.3532424,10.2450313 L32.3411237,10.2450313 L30.0627909,6.73664119 L29.4507919,6.73664119 Z M34.5770406,9.27552796 L35.3102275,7.25774922 L35.3223463,7.25774922 L36.0434144,9.27552796 L34.5770406,9.27552796 Z M35.0072577,6.73664119 L33.3227457,11.0630497 L33.9105071,11.0630497 L34.3952588,9.76027961 L36.2251962,9.76027961 L36.6978291,11.0630497 L37.3340656,11.0630497 L35.6434943,6.73664119 L35.0072577,6.73664119 Z M39.4609135,11.0630497 L41,6.73664119 L40.4001198,6.73664119 L39.1518843,10.4874071 L39.1397655,10.4874071 L37.9036488,6.73664119 L37.2855905,6.73664119 L38.8064988,11.0630497 L39.4609135,11.0630497 Z" id="HOME-/-NAV" fill="#3498DB" mask="url(#mask-3)"></path>
        </g>
    </g>
</svg>