<?xml version="1.0" encoding="UTF-8" standalone="no"?>
<svg width="70px" height="44px" viewBox="0 0 70 44" version="1.1" xmlns="http://www.w3.org/2000/svg" xmlns:xlink="http://www.w3.org/1999/xlink">
    <!-- Generator: Sketch 3.7.2 (28276) - http://www.bohemiancoding.com/sketch -->
    <title>product-page-title-featured</title>
    <desc>Created with Sketch.</desc>
    <defs>
        <rect id="path-1" x="0" y="0" width="70" height="42.5531915" rx="4"></rect>
        <mask id="mask-2" maskContentUnits="userSpaceOnUse" maskUnits="objectBoundingBox" x="0" y="0" width="70" height="42.5531915" fill="white">
            <use xlink:href="#path-1"></use>
        </mask>
        <mask id="mask-4" maskContentUnits="userSpaceOnUse" maskUnits="objectBoundingBox" x="0" y="0" width="70" height="42.5531915" fill="white">
            <use xlink:href="#path-1"></use>
        </mask>
        <rect id="path-5" x="10.249461" y="27.1428571" width="50.7281105" height="45.1902419"></rect>
        <mask id="mask-6" maskContentUnits="userSpaceOnUse" maskUnits="objectBoundingBox" x="0" y="0" width="50.7281105" height="45.1902419" fill="white">
            <use xlink:href="#path-5"></use>
        </mask>
    </defs>
    <g id="Page-1" stroke="none" stroke-width="1" fill="none" fill-rule="evenodd">
        <g id="product-page-title-featured" transform="translate(0.000000, 0.767750)">
            <mask id="mask-3" fill="white">
                <use xlink:href="#path-1"></use>
            </mask>
            <g id="Mask" stroke="#3498DB" mask="url(#mask-2)" stroke-width="2" fill-opacity="0.01" fill="#00A0D2">
                <use mask="url(#mask-4)" xlink:href="#path-1"></use>
            </g>
            <g id="Rectangle-5" mask="url(#mask-3)" stroke="#3498DB" stroke-width="2" fill="#3498DB" fill-opacity="0.127858922">
                <use mask="url(#mask-6)" xlink:href="#path-5"></use>
            </g>
            <rect id="Rectangle-5" fill="#3498DB" mask="url(#mask-3)" x="-4.03625332" y="-24.2857143" width="89.750539" height="45.1902419"></rect>
            <path d="M16.6335283,7.54574468 L16.6335283,8.6037234 L14.6808498,8.6037234 L14.6808498,14.4680851 L13.4733313,14.4680851 L13.4733313,8.6037234 L11.5116749,8.6037234 L11.5116749,7.54574468 L16.6335283,7.54574468 Z M18.5188732,9.55638298 L18.5188732,14.4680851 L17.4101108,14.4680851 L17.4101108,9.55638298 L18.5188732,9.55638298 Z M18.6849631,8.125 C18.6849631,8.22712817 18.6655113,8.32287189 18.6266071,8.41223404 C18.587703,8.50159619 18.536081,8.5797869 18.4717395,8.64680851 C18.4073981,8.71383012 18.3318354,8.76728703 18.2450493,8.80718085 C18.1582631,8.84707467 18.0654931,8.86702128 17.9667365,8.86702128 C17.8709724,8.86702128 17.7804469,8.84707467 17.695157,8.80718085 C17.6098672,8.76728703 17.5358008,8.71383012 17.4729557,8.64680851 C17.4101105,8.5797869 17.3599848,8.50159619 17.322577,8.41223404 C17.2851691,8.32287189 17.2664655,8.22712817 17.2664655,8.125 C17.2664655,8.01968032 17.2851691,7.92074514 17.322577,7.82819149 C17.3599848,7.73563784 17.4101105,7.6558514 17.4729557,7.58882979 C17.5358008,7.52180818 17.6098672,7.46835126 17.695157,7.42845745 C17.7804469,7.38856363 17.8709724,7.36861702 17.9667365,7.36861702 C18.0654931,7.36861702 18.1582631,7.38856363 18.2450493,7.42845745 C18.3318354,7.46835126 18.4073981,7.52180818 18.4717395,7.58882979 C18.536081,7.6558514 18.587703,7.73563784 18.6266071,7.82819149 C18.6655113,7.92074514 18.6849631,8.01968032 18.6849631,8.125 L18.6849631,8.125 Z M21.2840456,14.5446809 C20.8860263,14.5446809 20.5792868,14.4242033 20.3638177,14.1832447 C20.1483487,13.942286 20.0406158,13.6095766 20.0406158,13.1851064 L20.0406158,10.4420213 L19.5737685,10.4420213 C19.513916,10.4420213 19.4622939,10.4212768 19.4189009,10.3797872 C19.3755078,10.3382977 19.3538116,10.2760642 19.3538116,10.1930851 L19.3538116,9.72393617 L20.0944828,9.59468085 L20.3279064,8.25425532 C20.3398769,8.19042521 20.3675583,8.14095762 20.4109514,8.10585106 C20.4543444,8.07074451 20.508959,8.05319149 20.5747968,8.05319149 L21.1493781,8.05319149 L21.1493781,9.59946809 L22.3613855,9.59946809 L22.3613855,10.4420213 L21.1493781,10.4420213 L21.1493781,13.1037234 C21.1493781,13.2569157 21.185289,13.3765953 21.2571121,13.462766 C21.3289351,13.5489366 21.4246977,13.5920213 21.5444027,13.5920213 C21.6132331,13.5920213 21.6708403,13.5832448 21.717226,13.5656915 C21.7636117,13.5481382 21.8040115,13.5297873 21.8384267,13.5106383 C21.8728419,13.4914893 21.9035159,13.4731384 21.9304495,13.4555851 C21.9573831,13.4380318 21.9843164,13.4292553 22.01125,13.4292553 C22.0441689,13.4292553 22.0711021,13.4380318 22.0920505,13.4555851 C22.1129989,13.4731384 22.1354432,13.4994679 22.1593842,13.5345745 L22.491564,14.1090426 C22.3299622,14.2526603 22.1444222,14.3611698 21.9349384,14.4345745 C21.7254546,14.5079791 21.5084925,14.5446809 21.2840456,14.5446809 L21.2840456,14.5446809 Z M24.4262869,7.35425532 L24.4262869,14.4680851 L23.3175246,14.4680851 L23.3175246,7.35425532 L24.4262869,7.35425532 Z M27.5819951,9.47978723 C27.8722798,9.47978723 28.1393676,9.52925482 28.3832666,9.62819149 C28.6271656,9.72712815 28.8373944,9.8715416 29.0139594,10.0614362 C29.1905243,10.2513307 29.328183,10.4843071 29.4269397,10.7603723 C29.5256963,11.0364376 29.5750739,11.351594 29.5750739,11.7058511 C29.5750739,11.7952132 29.5713332,11.8694146 29.5638516,11.9284574 C29.55637,11.9875003 29.5429034,12.0337764 29.5234514,12.0672872 C29.5039993,12.100798 29.4778142,12.124734 29.4448953,12.1390957 C29.4119764,12.1534575 29.3700803,12.1606383 29.3192057,12.1606383 L26.4732328,12.1606383 C26.5061516,12.6648961 26.6333363,13.0351052 26.8547906,13.2712766 C27.0762449,13.507448 27.3695179,13.6255319 27.7346182,13.6255319 C27.9141758,13.6255319 28.0690418,13.6031917 28.1992211,13.5585106 C28.3294003,13.5138296 28.4431184,13.464362 28.5403787,13.4101064 C28.637639,13.3558508 28.7229276,13.3063832 28.7962469,13.2617021 C28.8695663,13.2170211 28.94064,13.1946809 29.0094704,13.1946809 C29.0543598,13.1946809 29.0932634,13.2042552 29.1261823,13.2234043 C29.1591011,13.2425533 29.1875307,13.2696807 29.2114717,13.3047872 L29.5346736,13.7356383 C29.411976,13.8888306 29.2743173,14.0172867 29.1216933,14.1210106 C28.9690694,14.2247346 28.8097145,14.3077125 28.6436238,14.3699468 C28.477533,14.4321812 28.3084522,14.4760637 28.1363762,14.5015957 C27.9643002,14.5271278 27.7974639,14.5398936 27.6358621,14.5398936 C27.3156511,14.5398936 27.0178893,14.4832452 26.7425677,14.3699468 C26.4672462,14.2566484 26.2278397,14.0890969 26.0243411,13.8672872 C25.8208426,13.6454776 25.6607395,13.3710123 25.5440271,13.043883 C25.4273147,12.7167537 25.3689594,12.3377681 25.3689594,11.9069149 C25.3689594,11.5718068 25.4198332,11.2566504 25.5215825,10.9614362 C25.6233318,10.6662219 25.7692201,10.4093096 25.9592518,10.1906915 C26.1492836,9.97207338 26.3812086,9.79893681 26.6550339,9.6712766 C26.9288591,9.54361638 27.2378431,9.47978723 27.5819951,9.47978723 L27.5819951,9.47978723 Z M27.6044397,10.3271277 C27.2812361,10.3271277 27.028363,10.4244671 26.8458128,10.6191489 C26.6632626,10.8138308 26.546552,11.0898918 26.4956773,11.4473404 L28.5785345,11.4473404 C28.5785345,11.2941482 28.5590827,11.1497347 28.5201786,11.0140957 C28.4812744,10.8784568 28.4214228,10.759575 28.3406219,10.6574468 C28.259821,10.5553186 28.1580733,10.4747343 28.0353756,10.4156915 C27.912678,10.3566486 27.7690341,10.3271277 27.6044397,10.3271277 L27.6044397,10.3271277 Z" id="Title" fill="#FFFFFF" mask="url(#mask-3)"></path>
        </g>
    </g>
</svg>