<?xml version="1.0" encoding="UTF-8" standalone="no"?>
<svg width="100px" height="72px" viewBox="0 0 100 72" version="1.1" xmlns="http://www.w3.org/2000/svg" xmlns:xlink="http://www.w3.org/1999/xlink">
    <!-- Generator: Sketch 3.8.1 (29687) - http://www.bohemiancoding.com/sketch -->
    <title>search-icon-fill</title>
    <desc>Created with Sketch.</desc>
    <defs>
        <rect id="path-1" x="0" y="0" width="100" height="71.4285714" rx="4"></rect>
        <mask id="mask-2" maskContentUnits="userSpaceOnUse" maskUnits="objectBoundingBox" x="0" y="0" width="100" height="71.4285714" fill="white">
            <use xlink:href="#path-1"></use>
        </mask>
        <mask id="mask-4" maskContentUnits="userSpaceOnUse" maskUnits="objectBoundingBox" x="0" y="0" width="100" height="71.4285714" fill="white">
            <use xlink:href="#path-1"></use>
        </mask>
    </defs>
    <g id="Page-1" stroke="none" stroke-width="1" fill="none" fill-rule="evenodd">
        <g id="search-icon-fill">
            <mask id="mask-3" fill="white">
                <use xlink:href="#path-1"></use>
            </mask>
            <g id="Mask" stroke="#3498DB" mask="url(#mask-2)" stroke-width="2" fill-opacity="0.01" fill="#00A0D2">
                <use mask="url(#mask-4)" xlink:href="#path-1"></use>
            </g>
            <rect id="Rectangle-166-Copy-4" fill="#3498DB" mask="url(#mask-3)" x="24.3075435" y="8.28125" width="52.9293346" height="53.4462226" rx="26.4646673"></rect>
            <path d="M62.8810821,44.9411233 L58.0025406,40.0625818 C59.33996,38.1476403 60.1302534,35.8223542 60.1302534,33.3096267 C60.1302534,26.7812634 54.8363013,21.489 48.3096267,21.489 C41.7829521,21.489 36.489,26.7812634 36.489,33.3096267 C36.489,39.8379899 41.7812634,45.1302534 48.3096267,45.1302534 C50.8223542,45.1302534 53.149329,44.33996 55.0642705,43.0025406 L59.942812,47.8810821 C60.7533693,48.6916393 62.0705248,48.6916393 62.8810821,47.8810821 C63.6916393,47.0705248 63.6916393,45.7550579 62.8810821,44.9411233 L62.8810821,44.9411233 Z M48.307938,41.7546201 C43.6455451,41.7546201 39.8646332,37.9753969 39.8646332,33.3113153 C39.8646332,28.6472338 43.6455451,24.8680106 48.307938,24.8680106 C52.9720196,24.8680106 56.7512428,28.6472338 56.7512428,33.3113153 C56.7529315,37.9753969 52.9737082,41.7546201 48.307938,41.7546201 L48.307938,41.7546201 Z" id="Shape" fill="#FFFFFF" mask="url(#mask-3)"></path>
        </g>
    </g>
</svg>