<?xml version="1.0" encoding="UTF-8" standalone="no"?>
<svg width="100px" height="72px" viewBox="0 0 100 72" version="1.1" xmlns="http://www.w3.org/2000/svg" xmlns:xlink="http://www.w3.org/1999/xlink">
    <!-- Generator: Sketch 3.8.1 (29687) - http://www.bohemiancoding.com/sketch -->
    <title>search-icon-outline-round</title>
    <desc>Created with Sketch.</desc>
    <defs>
        <rect id="path-1" x="0" y="0" width="100" height="71.4285714" rx="4"></rect>
        <mask id="mask-2" maskContentUnits="userSpaceOnUse" maskUnits="objectBoundingBox" x="0" y="0" width="100" height="71.4285714" fill="white">
            <use xlink:href="#path-1"></use>
        </mask>
        <mask id="mask-4" maskContentUnits="userSpaceOnUse" maskUnits="objectBoundingBox" x="0" y="0" width="100" height="71.4285714" fill="white">
            <use xlink:href="#path-1"></use>
        </mask>
        <rect id="path-5" x="23.3075435" y="8.28125" width="52.9293346" height="53.4462226" rx="8"></rect>
        <mask id="mask-6" maskContentUnits="userSpaceOnUse" maskUnits="objectBoundingBox" x="0" y="0" width="52.9293346" height="53.4462226" fill="white">
            <use xlink:href="#path-5"></use>
        </mask>
    </defs>
    <g id="Page-1" stroke="none" stroke-width="1" fill="none" fill-rule="evenodd">
        <g id="search-icon-outline-round">
            <mask id="mask-3" fill="white">
                <use xlink:href="#path-1"></use>
            </mask>
            <g id="Mask" stroke="#3498DB" mask="url(#mask-2)" stroke-width="2" fill-opacity="0.01" fill="#00A0D2">
                <use mask="url(#mask-4)" xlink:href="#path-1"></use>
            </g>
            <g id="Rectangle-166-Copy-4" mask="url(#mask-3)" stroke="#3498DB" stroke-width="2" fill="#3498DB" fill-opacity="0.127858922">
                <use mask="url(#mask-6)" xlink:href="#path-5"></use>
            </g>
            <path d="M64.258,45.776 L58.48,39.998 C60.064,37.73 61,34.976 61,32 C61,24.268 54.73,18 47,18 C39.27,18 33,24.268 33,32 C33,39.732 39.268,46 47,46 C49.976,46 52.732,45.064 55,43.48 L60.778,49.258 C61.738,50.218 63.298,50.218 64.258,49.258 C65.218,48.298 65.218,46.74 64.258,45.776 L64.258,45.776 Z M46.998,42.002 C41.476,42.002 36.998,37.526 36.998,32.002 C36.998,26.478 41.476,22.002 46.998,22.002 C52.522,22.002 56.998,26.478 56.998,32.002 C57,37.526 52.524,42.002 46.998,42.002 L46.998,42.002 Z" id="Shape" fill="#3498DB" mask="url(#mask-3)"></path>
        </g>
    </g>
</svg>