<?xml version="1.0" encoding="UTF-8" standalone="no"?>
<svg width="100px" height="72px" viewBox="0 0 100 72" version="1.1" xmlns="http://www.w3.org/2000/svg" xmlns:xlink="http://www.w3.org/1999/xlink">
    <!-- Generator: Sketch 3.8.1 (29687) - http://www.bohemiancoding.com/sketch -->
    <title>search-icon-outline</title>
    <desc>Created with Sketch.</desc>
    <defs>
        <rect id="path-1" x="0" y="0" width="100" height="71.4285714" rx="4"></rect>
        <mask id="mask-2" maskContentUnits="userSpaceOnUse" maskUnits="objectBoundingBox" x="0" y="0" width="100" height="71.4285714" fill="white">
            <use xlink:href="#path-1"></use>
        </mask>
        <mask id="mask-4" maskContentUnits="userSpaceOnUse" maskUnits="objectBoundingBox" x="0" y="0" width="100" height="71.4285714" fill="white">
            <use xlink:href="#path-1"></use>
        </mask>
        <rect id="path-5" x="23.3075435" y="8.28125" width="52.9293346" height="53.4462226" rx="26.4646673"></rect>
        <mask id="mask-6" maskContentUnits="userSpaceOnUse" maskUnits="objectBoundingBox" x="0" y="0" width="52.9293346" height="53.4462226" fill="white">
            <use xlink:href="#path-5"></use>
        </mask>
    </defs>
    <g id="Page-1" stroke="none" stroke-width="1" fill="none" fill-rule="evenodd">
        <g id="search-icon-outline">
            <mask id="mask-3" fill="white">
                <use xlink:href="#path-1"></use>
            </mask>
            <g id="Mask" stroke="#3498DB" mask="url(#mask-2)" stroke-width="2" fill-opacity="0.01" fill="#00A0D2">
                <use mask="url(#mask-4)" xlink:href="#path-1"></use>
            </g>
            <g id="Rectangle-166-Copy-4" mask="url(#mask-3)" stroke="#3498DB" stroke-width="2" fill="#3498DB" fill-opacity="0.127858922">
                <use mask="url(#mask-6)" xlink:href="#path-5"></use>
            </g>
            <path d="M65.258,46.776 L59.48,40.998 C61.064,38.73 62,35.976 62,33 C62,25.268 55.73,19 48,19 C40.27,19 34,25.268 34,33 C34,40.732 40.268,47 48,47 C50.976,47 53.732,46.064 56,44.48 L61.778,50.258 C62.738,51.218 64.298,51.218 65.258,50.258 C66.218,49.298 66.218,47.74 65.258,46.776 L65.258,46.776 Z M47.998,43.002 C42.476,43.002 37.998,38.526 37.998,33.002 C37.998,27.478 42.476,23.002 47.998,23.002 C53.522,23.002 57.998,27.478 57.998,33.002 C58,38.526 53.524,43.002 47.998,43.002 L47.998,43.002 Z" id="Shape" fill="#3498DB" mask="url(#mask-3)"></path>
        </g>
    </g>
</svg>