<?xml version="1.0" encoding="UTF-8" standalone="no"?>
<svg width="70px" height="51px" viewBox="0 0 70 51" version="1.1" xmlns="http://www.w3.org/2000/svg" xmlns:xlink="http://www.w3.org/1999/xlink">
    <!-- Generator: Sketch 3.8.1 (29687) - http://www.bohemiancoding.com/sketch -->
    <title>text-light</title>
    <desc>Created with Sketch.</desc>
    <defs>
        <rect id="path-1" x="0" y="0" width="70" height="50" rx="4"></rect>
        <mask id="mask-2" maskContentUnits="userSpaceOnUse" maskUnits="objectBoundingBox" x="0" y="0" width="70" height="50" fill="white">
            <use xlink:href="#path-1"></use>
        </mask>
    </defs>
    <g id="Page-1" stroke="none" stroke-width="1" fill="none" fill-rule="evenodd">
        <g id="text-light">
            <g id="Rectangle-5-Copy-+-Triangle-1-+-Triangle-1-Copy-Copy-Copy-Copy" transform="translate(0.000000, 0.796000)">
                <use id="Rectangle-5-Copy" stroke="#3498DB" mask="url(#mask-2)" stroke-width="2" fill-opacity="0.01" fill="#00A0D2" xlink:href="#path-1"></use>
                <rect id="Rectangle-5-Copy" fill="#3498DB" x="0" y="0" width="70" height="50" rx="4"></rect>
            </g>
            <path d="M17.824,27.92 L20.728,19.928 L20.776,19.928 L23.632,27.92 L17.824,27.92 Z M19.528,17.864 L12.856,35 L15.184,35 L17.104,29.84 L24.352,29.84 L26.224,35 L28.744,35 L22.048,17.864 L19.528,17.864 Z M30.16,17.864 L30.16,35 L32.2,35 L32.2,33.344 L32.248,33.344 C32.4720011,33.7120018 32.7479984,34.0199988 33.076,34.268 C33.4040016,34.5160012 33.7519982,34.7119993 34.12,34.856 C34.4880018,35.0000007 34.8599981,35.1039997 35.236,35.168 C35.6120019,35.2320003 35.9519985,35.264 36.256,35.264 C37.2000047,35.264 38.0279964,35.0960017 38.74,34.76 C39.4520036,34.4239983 40.0439976,33.9640029 40.516,33.38 C40.9880024,32.7959971 41.3399988,32.1120039 41.572,31.328 C41.8040012,30.5439961 41.92,29.7120044 41.92,28.832 C41.92,27.9519956 41.8000012,27.1200039 41.56,26.336 C41.3199988,25.5519961 40.9640024,24.860003 40.492,24.26 C40.0199976,23.659997 39.4280036,23.1840018 38.716,22.832 C38.0039964,22.4799982 37.1680048,22.304 36.208,22.304 C35.3439957,22.304 34.5520036,22.4599984 33.832,22.772 C33.1119964,23.0840016 32.5840017,23.5839966 32.248,24.272 L32.2,24.272 L32.2,17.864 L30.16,17.864 Z M39.76,28.688 C39.76,29.296003 39.6960006,29.8879971 39.568,30.464 C39.4399994,31.0400029 39.2320014,31.5519978 38.944,32 C38.6559986,32.4480022 38.2760024,32.8079986 37.804,33.08 C37.3319976,33.3520014 36.7440035,33.488 36.04,33.488 C35.3359965,33.488 34.7360025,33.3560013 34.24,33.092 C33.7439975,32.8279987 33.3400016,32.4800022 33.028,32.048 C32.7159984,31.6159978 32.4880007,31.1160028 32.344,30.548 C32.1999993,29.9799972 32.128,29.392003 32.128,28.784 C32.128,28.2079971 32.1959993,27.6400028 32.332,27.08 C32.4680007,26.5199972 32.6879985,26.0200022 32.992,25.58 C33.2960015,25.1399978 33.6879976,24.7840014 34.168,24.512 C34.6480024,24.2399986 35.2319966,24.104 35.92,24.104 C36.5760033,24.104 37.1479976,24.2319987 37.636,24.488 C38.1240024,24.7440013 38.5239984,25.0879978 38.836,25.52 C39.1480016,25.9520022 39.3799992,26.4439972 39.532,26.996 C39.6840008,27.5480028 39.76,28.1119971 39.76,28.688 L39.76,28.688 Z M52.744,26.576 L54.856,26.576 C54.7759996,25.8399963 54.5840015,25.2040027 54.28,24.668 C53.9759985,24.1319973 53.5880024,23.6880018 53.116,23.336 C52.6439976,22.9839982 52.1000031,22.7240008 51.484,22.556 C50.8679969,22.3879992 50.2080035,22.304 49.504,22.304 C48.5279951,22.304 47.6720037,22.4759983 46.936,22.82 C46.1999963,23.1640017 45.5880024,23.635997 45.1,24.236 C44.6119976,24.836003 44.2480012,25.539996 44.008,26.348 C43.7679988,27.156004 43.648,28.0239954 43.648,28.952 C43.648,29.8800046 43.7719988,30.7319961 44.02,31.508 C44.2680012,32.2840039 44.6359976,32.9519972 45.124,33.512 C45.6120024,34.0720028 46.2199964,34.5039985 46.948,34.808 C47.6760036,35.1120015 48.5119953,35.264 49.456,35.264 C51.0400079,35.264 52.2919954,34.8480042 53.212,34.016 C54.1320046,33.1839958 54.7039989,32.0000077 54.928,30.464 L52.84,30.464 C52.7119994,31.4240048 52.3640028,32.1679974 51.796,32.696 C51.2279972,33.2240026 50.440005,33.488 49.432,33.488 C48.7919968,33.488 48.2400023,33.3600013 47.776,33.104 C47.3119977,32.8479987 46.9360014,32.5080021 46.648,32.084 C46.3599986,31.6599979 46.1480007,31.1760027 46.012,30.632 C45.8759993,30.0879973 45.808,29.5280029 45.808,28.952 C45.808,28.3279969 45.8719994,27.7240029 46,27.14 C46.1280006,26.5559971 46.3399985,26.0400022 46.636,25.592 C46.9320015,25.1439978 47.3279975,24.7840014 47.824,24.512 C48.3200025,24.2399986 48.9359963,24.104 49.672,24.104 C50.5360043,24.104 51.2239974,24.3199978 51.736,24.752 C52.2480026,25.1840022 52.5839992,25.7919961 52.744,26.576 L52.744,26.576 Z" id="Abc-Copy" fill="#FFFFFF"></path>
        </g>
    </g>
</svg>