<?xml version="1.0" encoding="UTF-8" standalone="no"?>
<svg width="70px" height="51px" viewBox="0 0 70 51" version="1.1" xmlns="http://www.w3.org/2000/svg" xmlns:xlink="http://www.w3.org/1999/xlink">
    <!-- Generator: Sketch 3.8.1 (29687) - http://www.bohemiancoding.com/sketch -->
    <title>text-dark</title>
    <desc>Created with Sketch.</desc>
    <defs>
        <rect id="path-1" x="0" y="0" width="70" height="50" rx="4"></rect>
        <mask id="mask-2" maskContentUnits="userSpaceOnUse" maskUnits="objectBoundingBox" x="0" y="0" width="70" height="50" fill="white">
            <use xlink:href="#path-1"></use>
        </mask>
    </defs>
    <g id="Page-1" stroke="none" stroke-width="1" fill="none" fill-rule="evenodd">
        <g id="text-dark">
            <g id="Rectangle-5-Copy-+-Triangle-1-+-Triangle-1-Copy-Copy-Copy" transform="translate(0.000000, 0.796000)" stroke="#3498DB" stroke-width="2" fill="#00A0D2" fill-opacity="0.01">
                <use id="Rectangle-5-Copy" mask="url(#mask-2)" xlink:href="#path-1"></use>
            </g>
            <path d="M18.824,27.92 L21.728,19.928 L21.776,19.928 L24.632,27.92 L18.824,27.92 Z M20.528,17.864 L13.856,35 L16.184,35 L18.104,29.84 L25.352,29.84 L27.224,35 L29.744,35 L23.048,17.864 L20.528,17.864 Z M31.16,17.864 L31.16,35 L33.2,35 L33.2,33.344 L33.248,33.344 C33.4720011,33.7120018 33.7479984,34.0199988 34.076,34.268 C34.4040016,34.5160012 34.7519982,34.7119993 35.12,34.856 C35.4880018,35.0000007 35.8599981,35.1039997 36.236,35.168 C36.6120019,35.2320003 36.9519985,35.264 37.256,35.264 C38.2000047,35.264 39.0279964,35.0960017 39.74,34.76 C40.4520036,34.4239983 41.0439976,33.9640029 41.516,33.38 C41.9880024,32.7959971 42.3399988,32.1120039 42.572,31.328 C42.8040012,30.5439961 42.92,29.7120044 42.92,28.832 C42.92,27.9519956 42.8000012,27.1200039 42.56,26.336 C42.3199988,25.5519961 41.9640024,24.860003 41.492,24.26 C41.0199976,23.659997 40.4280036,23.1840018 39.716,22.832 C39.0039964,22.4799982 38.1680048,22.304 37.208,22.304 C36.3439957,22.304 35.5520036,22.4599984 34.832,22.772 C34.1119964,23.0840016 33.5840017,23.5839966 33.248,24.272 L33.2,24.272 L33.2,17.864 L31.16,17.864 Z M40.76,28.688 C40.76,29.296003 40.6960006,29.8879971 40.568,30.464 C40.4399994,31.0400029 40.2320014,31.5519978 39.944,32 C39.6559986,32.4480022 39.2760024,32.8079986 38.804,33.08 C38.3319976,33.3520014 37.7440035,33.488 37.04,33.488 C36.3359965,33.488 35.7360025,33.3560013 35.24,33.092 C34.7439975,32.8279987 34.3400016,32.4800022 34.028,32.048 C33.7159984,31.6159978 33.4880007,31.1160028 33.344,30.548 C33.1999993,29.9799972 33.128,29.392003 33.128,28.784 C33.128,28.2079971 33.1959993,27.6400028 33.332,27.08 C33.4680007,26.5199972 33.6879985,26.0200022 33.992,25.58 C34.2960015,25.1399978 34.6879976,24.7840014 35.168,24.512 C35.6480024,24.2399986 36.2319966,24.104 36.92,24.104 C37.5760033,24.104 38.1479976,24.2319987 38.636,24.488 C39.1240024,24.7440013 39.5239984,25.0879978 39.836,25.52 C40.1480016,25.9520022 40.3799992,26.4439972 40.532,26.996 C40.6840008,27.5480028 40.76,28.1119971 40.76,28.688 L40.76,28.688 Z M53.744,26.576 L55.856,26.576 C55.7759996,25.8399963 55.5840015,25.2040027 55.28,24.668 C54.9759985,24.1319973 54.5880024,23.6880018 54.116,23.336 C53.6439976,22.9839982 53.1000031,22.7240008 52.484,22.556 C51.8679969,22.3879992 51.2080035,22.304 50.504,22.304 C49.5279951,22.304 48.6720037,22.4759983 47.936,22.82 C47.1999963,23.1640017 46.5880024,23.635997 46.1,24.236 C45.6119976,24.836003 45.2480012,25.539996 45.008,26.348 C44.7679988,27.156004 44.648,28.0239954 44.648,28.952 C44.648,29.8800046 44.7719988,30.7319961 45.02,31.508 C45.2680012,32.2840039 45.6359976,32.9519972 46.124,33.512 C46.6120024,34.0720028 47.2199964,34.5039985 47.948,34.808 C48.6760036,35.1120015 49.5119953,35.264 50.456,35.264 C52.0400079,35.264 53.2919954,34.8480042 54.212,34.016 C55.1320046,33.1839958 55.7039989,32.0000077 55.928,30.464 L53.84,30.464 C53.7119994,31.4240048 53.3640028,32.1679974 52.796,32.696 C52.2279972,33.2240026 51.440005,33.488 50.432,33.488 C49.7919968,33.488 49.2400023,33.3600013 48.776,33.104 C48.3119977,32.8479987 47.9360014,32.5080021 47.648,32.084 C47.3599986,31.6599979 47.1480007,31.1760027 47.012,30.632 C46.8759993,30.0879973 46.808,29.5280029 46.808,28.952 C46.808,28.3279969 46.8719994,27.7240029 47,27.14 C47.1280006,26.5559971 47.3399985,26.0400022 47.636,25.592 C47.9320015,25.1439978 48.3279975,24.7840014 48.824,24.512 C49.3200025,24.2399986 49.9359963,24.104 50.672,24.104 C51.5360043,24.104 52.2239974,24.3199978 52.736,24.752 C53.2480026,25.1840022 53.5839992,25.7919961 53.744,26.576 L53.744,26.576 Z" id="Abc" fill="#3498DB"></path>
        </g>
    </g>
</svg>