<?xml version="1.0" encoding="UTF-8" standalone="no"?>
<svg width="100px" height="70px" viewBox="0 0 100 70" version="1.1" xmlns="http://www.w3.org/2000/svg" xmlns:xlink="http://www.w3.org/1999/xlink">
    <!-- Generator: Sketch 3.8.1 (29687) - http://www.bohemiancoding.com/sketch -->
    <title>box-left-dark</title>
    <desc>Created with Sketch.</desc>
    <defs>
        <linearGradient x1="0%" y1="0%" x2="106.265625%" y2="109.895844%" id="linearGradient-1">
            <stop stop-color="#C8EAF4" stop-opacity="0.208021966" offset="0%"></stop>
            <stop stop-color="#3DD0FF" offset="100%"></stop>
        </linearGradient>
        <rect id="path-2" x="0" y="0" width="99.9428898" height="70"></rect>
        <rect id="path-4" x="0" y="0" width="34" height="48"></rect>
        <filter x="-50%" y="-50%" width="200%" height="200%" filterUnits="objectBoundingBox" id="filter-5">
            <feOffset dx="0" dy="2" in="SourceAlpha" result="shadowOffsetOuter1"></feOffset>
            <feGaussianBlur stdDeviation="2" in="shadowOffsetOuter1" result="shadowBlurOuter1"></feGaussianBlur>
            <feColorMatrix values="0 0 0 0 0   0 0 0 0 0   0 0 0 0 0  0 0 0 0.14696558 0" type="matrix" in="shadowBlurOuter1"></feColorMatrix>
        </filter>
    </defs>
    <g id="Section-Presets" stroke="none" stroke-width="1" fill="none" fill-rule="evenodd">
        <g id="box-left-dark">
            <mask id="mask-3" fill="white">
                <use xlink:href="#path-2"></use>
            </mask>
            <use id="BG" fill="#00A0D2" xlink:href="#path-2"></use>
            <path d="M58.2164119,47.3544812 C58.2164119,47.3544812 63.9364256,41.7396632 65.1823366,34.1885876 C68.5354481,34.1885876 70.6064876,26.1608443 67.2533761,23.3369984 C67.3947327,20.3652212 71.5631105,0 50.4483703,0 C29.3336301,0 33.5020079,20.3652212 33.6433646,23.3369984 C30.2902531,26.1608443 32.3612925,34.1885876 35.714404,34.1885876 C36.960315,41.7396632 42.6836161,47.3544812 42.6836161,47.3544812 C42.6836161,47.3544812 42.637593,52.6635744 40.6914734,52.9692993 C34.4191825,53.9587959 11,64.1989353 11,75.4285714 L89.8967407,75.4285714 C89.8967407,64.1989353 66.4775581,53.9587959 60.2085546,52.9692993 C58.262435,52.6635744 58.2164119,47.3544812 58.2164119,47.3544812 Z" id="Shape-Copy-6" fill="#FFFFFF" opacity="0.191231343" mask="url(#mask-3)"></path>
            <rect id="Rectangle-3" fill="#FFFFFF" opacity="0.506996269" mask="url(#mask-3)" x="61" y="41" width="17.9078776" height="5"></rect>
            <rect id="Rectangle-3" fill="#FFFFFF" opacity="0.506996269" mask="url(#mask-3)" x="61" y="23" width="26.4354384" height="5"></rect>
            <rect id="Rectangle-3" fill="#FFFFFF" opacity="0.506996269" mask="url(#mask-3)" x="61" y="32" width="17.9078776" height="5"></rect>
            <g id="Group" mask="url(#mask-3)">
                <g transform="translate(14.000000, 10.000000)">
                    <g id="Rectangle-2" fill="none">
                        <use fill="black" fill-opacity="1" filter="url(#filter-5)" xlink:href="#path-4"></use>
                        <use fill="#FFFFFF" fill-rule="evenodd" xlink:href="#path-4"></use>
                    </g>
                    <rect id="Rectangle-3" fill-opacity="0.532382246" fill="#00A0D2" fill-rule="evenodd" opacity="0.333430504" x="7" y="11" width="21" height="5"></rect>
                    <rect id="Rectangle-3" fill-opacity="0.532382246" fill="#00A0D2" fill-rule="evenodd" opacity="0.333430504" x="7" y="21" width="21" height="5"></rect>
                    <rect id="Rectangle-3" fill-opacity="0.532382246" fill="#00A0D2" fill-rule="evenodd" opacity="0.333430504" x="7" y="31" width="21" height="5"></rect>
                </g>
            </g>
        </g>
    </g>
</svg>