<?xml version="1.0" encoding="UTF-8" standalone="no"?>
<svg width="100px" height="70px" viewBox="0 0 100 70" version="1.1" xmlns="http://www.w3.org/2000/svg" xmlns:xlink="http://www.w3.org/1999/xlink">
    <!-- Generator: Sketch 3.8.1 (29687) - http://www.bohemiancoding.com/sketch -->
    <title>image-bottom</title>
    <desc>Created with Sketch.</desc>
    <defs>
        <linearGradient x1="0%" y1="0%" x2="106.265625%" y2="109.895844%" id="linearGradient-1">
            <stop stop-color="#C8EAF4" stop-opacity="0.208021966" offset="0%"></stop>
            <stop stop-color="#3DD0FF" offset="100%"></stop>
        </linearGradient>
        <rect id="path-2" x="0" y="0" width="99.9428898" height="70"></rect>
        <mask id="mask-3" maskContentUnits="userSpaceOnUse" maskUnits="objectBoundingBox" x="0" y="0" width="99.9428898" height="70" fill="white">
            <use xlink:href="#path-2"></use>
        </mask>
        <mask id="mask-5" maskContentUnits="userSpaceOnUse" maskUnits="objectBoundingBox" x="0" y="0" width="99.9428898" height="70" fill="white">
            <use xlink:href="#path-2"></use>
        </mask>
    </defs>
    <g id="Section-Presets" stroke="none" stroke-width="1" fill="none" fill-rule="evenodd">
        <g id="image-bottom">
            <mask id="mask-4" fill="white">
                <use xlink:href="#path-2"></use>
            </mask>
            <g id="BG" stroke="#00A0D2" mask="url(#mask-3)" stroke-width="2" fill-opacity="0.15" fill="url(#linearGradient-1)">
                <use mask="url(#mask-5)" xlink:href="#path-2"></use>
            </g>
            <path d="M41.2164119,47.3544812 C41.2164119,47.3544812 46.9364256,41.7396632 48.1823366,34.1885876 C51.5354481,34.1885876 53.6064876,26.1608443 50.2533761,23.3369984 C50.3947327,20.3652212 54.5631105,0 33.4483703,0 C12.3336301,0 16.5020079,20.3652212 16.6433646,23.3369984 C13.2902531,26.1608443 15.3612925,34.1885876 18.714404,34.1885876 C19.960315,41.7396632 25.6836161,47.3544812 25.6836161,47.3544812 C25.6836161,47.3544812 25.637593,52.6635744 23.6914734,52.9692993 C17.4191825,53.9587959 -6,64.1989353 -6,75.4285714 L72.8967407,75.4285714 C72.8967407,64.1989353 49.4775581,53.9587959 43.2085546,52.9692993 C41.262435,52.6635744 41.2164119,47.3544812 41.2164119,47.3544812 Z" id="Shape-Copy-6" fill="#00A0D2" opacity="0.1015625" mask="url(#mask-4)"></path>
            <rect id="Rectangle-2" fill="#00A0D2" mask="url(#mask-4)" x="11" y="40.7142857" width="78.8967407" height="38.2857143"></rect>
            <rect id="Rectangle-3" fill="#00A0D2" mask="url(#mask-4)" x="32" y="16" width="31" height="5"></rect>
            <rect id="Rectangle-3" fill-opacity="0.532382246" fill="#00A0D2" opacity="0.333430504" mask="url(#mask-4)" x="36" y="25" width="21" height="5"></rect>
        </g>
    </g>
</svg>