<?xml version="1.0" encoding="UTF-8" standalone="no"?>
<svg width="100px" height="68px" viewBox="0 0 100 68" version="1.1" xmlns="http://www.w3.org/2000/svg" xmlns:xlink="http://www.w3.org/1999/xlink">
    <!-- Generator: Sketch 3.8.1 (29687) - http://www.bohemiancoding.com/sketch -->
    <title>block</title>
    <desc>Created with Sketch.</desc>
    <defs>
        <rect id="path-1" x="0" y="0" width="100" height="68"></rect>
    </defs>
    <g id="Elements" stroke="none" stroke-width="1" fill="none" fill-rule="evenodd">
        <g id="block">
            <mask id="mask-2" fill="white">
                <use xlink:href="#path-1"></use>
            </mask>
            <use id="BG" fill="#FFFFFF" xlink:href="#path-1"></use>
            <path d="M66.8641075,32.2834425 L59.2888392,39.8561168 C55.1076352,44.0399148 48.3246946,44.0399148 44.1434906,39.8561168 C43.4845424,39.1997626 42.9694332,38.4597324 42.5169973,37.6961893 L46.0366591,34.1765274 C46.2040111,34.0078367 46.410607,33.9111073 46.6079986,33.7973917 C46.8511609,34.6289633 47.2760674,35.4160194 47.9298277,36.069696 C50.0177939,38.159001 53.4158746,38.1564071 55.502502,36.069696 L63.0751763,28.4970217 C65.1644814,26.4077167 65.1644814,23.0109748 63.0751763,20.9230086 C60.9884653,18.8350424 57.5918071,18.8350424 55.502502,20.9230086 L52.8091402,23.6189643 C50.6244446,22.7678124 48.2697195,22.5390424 45.9777513,22.8750013 L51.7160812,17.1366714 C55.8998792,12.9542123 62.6802258,12.9542123 66.8640238,17.1366714 C71.0453115,21.3192979 71.0453115,28.1009834 66.8641075,32.2834425 L66.8641075,32.2834425 Z M46.8381075,44.7355131 L44.1434906,47.4314688 C42.0555243,49.5181799 38.6574436,49.5181799 36.5694774,47.4314688 C34.4815112,45.3421638 34.4815112,41.9454219 36.5694774,39.8562005 L44.1434906,32.2835262 C46.2327956,30.1942212 49.6281987,30.1942212 51.7161649,32.2835262 C52.3685863,32.9359477 52.7934928,33.7230037 53.0393328,34.5532366 C53.2380632,34.4381822 53.4420652,34.3440467 53.6094171,34.1766948 L57.129079,30.6583717 C56.6793207,29.8922346 56.1615339,29.1547984 55.5025857,28.4971891 C51.3213817,24.3147299 44.5384411,24.3147299 40.3558983,28.4971891 L32.7832239,36.0698634 C28.6007648,40.2536613 28.6007648,47.034008 32.7832239,51.217806 C36.9656831,55.39901 43.7473686,55.39901 47.9299114,51.217806 L53.6695801,45.4781372 C51.3762731,45.815435 49.021548,45.5853261 46.8381075,44.7355131 L46.8381075,44.7355131 Z" id="Shape" fill="#00A0D2" mask="url(#mask-2)"></path>
        </g>
    </g>
</svg>