<?xml version="1.0" encoding="UTF-8" standalone="no"?>
<svg width="100px" height="68px" viewBox="0 0 100 68" version="1.1" xmlns="http://www.w3.org/2000/svg" xmlns:xlink="http://www.w3.org/1999/xlink">
    <!-- Generator: Sketch 3.8.1 (29687) - http://www.bohemiancoding.com/sketch -->
    <title>blog_posts</title>
    <desc>Created with Sketch.</desc>
    <defs>
        <rect id="path-1" x="0" y="0" width="100" height="68"></rect>
        <linearGradient x1="0%" y1="0%" x2="106.265625%" y2="109.895844%" id="linearGradient-3">
            <stop stop-color="#C8EAF4" stop-opacity="0.208021966" offset="0%"></stop>
            <stop stop-color="#3DD0FF" offset="100%"></stop>
        </linearGradient>
        <rect id="path-4" x="0" y="0" width="40" height="48"></rect>
        <mask id="mask-5" maskContentUnits="userSpaceOnUse" maskUnits="objectBoundingBox" x="0" y="0" width="40" height="48" fill="white">
            <use xlink:href="#path-4"></use>
        </mask>
        <mask id="mask-7" maskContentUnits="userSpaceOnUse" maskUnits="objectBoundingBox" x="0" y="0" width="40" height="48" fill="white">
            <use xlink:href="#path-4"></use>
        </mask>
    </defs>
    <g id="Elements" stroke="none" stroke-width="1" fill="none" fill-rule="evenodd">
        <g id="blog_posts">
            <mask id="mask-2" fill="white">
                <use xlink:href="#path-1"></use>
            </mask>
            <use id="BG" fill="#FFFFFF" xlink:href="#path-1"></use>
            <g id="image" mask="url(#mask-2)">
                <g transform="translate(12.000000, 10.000000)">
                    <mask id="mask-6" fill="white">
                        <use xlink:href="#path-4"></use>
                    </mask>
                    <g id="Mask" stroke="#00A0D2" mask="url(#mask-5)" stroke-width="2" fill-opacity="0.15" fill="url(#linearGradient-3)" fill-rule="evenodd">
                        <use mask="url(#mask-7)" xlink:href="#path-4"></use>
                    </g>
                    <path d="M24.3183147,33.7873964 C24.3183147,33.7873964 27.3302616,30.8497536 27.9863121,26.8990713 C29.7519362,26.8990713 30.8424687,22.698999 29.0768446,21.221578 C29.1512778,19.66676 31.3461909,9.01178536 20.2279523,9.01178536 C9.10971384,9.01178536 11.3046269,19.66676 11.37906,21.221578 C9.61343599,22.698999 10.7039685,26.8990713 12.4695925,26.8990713 C13.125643,30.8497536 16.139321,33.7873964 16.139321,33.7873964 C16.139321,33.7873964 16.1150869,36.5650855 15.0903326,36.7250391 C11.787577,37.2427384 -0.544095312,42.6003246 -0.544095312,48.4756101 L41,48.4756101 C41,42.6003246 28.6683277,37.2427384 25.3673031,36.7250391 C24.3425488,36.5650855 24.3183147,33.7873964 24.3183147,33.7873964 Z" id="Shape-Copy-6" stroke="none" fill="#00A0D2" fill-rule="evenodd" opacity="0.141965951" mask="url(#mask-6)"></path>
                </g>
            </g>
            <g id="date-box" mask="url(#mask-2)" fill="#00A0D2">
                <g transform="translate(12.000000, 21.000000)" id="Rectangle-494">
                    <rect x="0" y="0" width="11" height="11"></rect>
                </g>
            </g>
            <g id="headline" opacity="0.6" mask="url(#mask-2)" fill="#00A0D2">
                <g transform="translate(61.000000, 21.000000)">
                    <rect id="Rectangle-167-Copy-16" x="1.20833333" y="0" width="27" height="3"></rect>
                    <rect id="Rectangle-167-Copy-17" x="1.20833333" y="4.90909091" width="20" height="3"></rect>
                    <rect id="Rectangle-167-Copy-8" fill-opacity="0.532382246" opacity="0.333430504" x="0.965060165" y="18.4558694" width="16" height="3"></rect>
                    <rect id="Rectangle-167-Copy-7" fill-opacity="0.532382246" opacity="0.333430504" x="0.965060165" y="13.4232657" width="19" height="3"></rect>
                </g>
            </g>
        </g>
    </g>
</svg>