<?xml version="1.0" encoding="UTF-8" standalone="no"?>
<svg width="103px" height="70px" viewBox="0 0 103 70" version="1.1" xmlns="http://www.w3.org/2000/svg" xmlns:xlink="http://www.w3.org/1999/xlink">
    <!-- Generator: Sketch 3.8.1 (29687) - http://www.bohemiancoding.com/sketch -->
    <title>button-link</title>
    <desc>Created with Sketch.</desc>
    <defs>
        <rect id="path-1" x="0" y="0" width="102.941176" height="70"></rect>
    </defs>
    <g id="Presets-Button" stroke="none" stroke-width="1" fill="none" fill-rule="evenodd">
        <g id="button-link">
            <mask id="mask-2" fill="white">
                <use xlink:href="#path-1"></use>
            </mask>
            <use id="BG" fill="#FFFFFF" xlink:href="#path-1"></use>
            <g id="Rectangle-166-Copy-+-Shape-Copy-18" mask="url(#mask-2)" fill="#00A0D2">
                <g transform="translate(29.000000, 29.000000)" id="CALL-TO-ACTION">
                    <path d="M0.0276875,9 L0.0276875,0.53634375 L2.72684375,0.53634375 C3.24659635,0.53634375 3.69448249,0.587530738 4.07051563,0.68990625 C4.44654876,0.792281762 4.75563941,0.937967805 4.99779688,1.12696875 C5.23995434,1.3159697 5.41910879,1.54729551 5.53526563,1.82095313 C5.65142246,2.09461074 5.7095,2.40271704 5.7095,2.74528125 C5.7095,2.95396979 5.67701595,3.15478029 5.61204688,3.34771875 C5.5470778,3.54065721 5.44864128,3.71981167 5.31673438,3.8851875 C5.18482747,4.05056333 5.01945412,4.1982181 4.82060938,4.32815625 C4.62176463,4.4580944 4.38847009,4.56440584 4.12071875,4.64709375 C4.73890934,4.76915686 5.20549843,4.99162339 5.5205,5.3145 C5.83550158,5.63737661 5.993,6.06262236 5.993,6.59025 C5.993,6.94856429 5.92704753,7.27537352 5.79514063,7.5706875 C5.66323372,7.86600148 5.47029814,8.11996769 5.21632813,8.33259375 C4.96235811,8.54521981 4.65129872,8.70960879 4.28314063,8.82576563 C3.91498253,8.94192246 3.49465861,9 3.02215625,9 L0.0276875,9 Z M1.1735,5.14321875 L1.1735,8.0904375 L3.0044375,8.0904375 C3.33125163,8.0904375 3.6117957,8.05303162 3.84607813,7.97821875 C4.08036055,7.90340588 4.27329612,7.7980788 4.42489063,7.66223438 C4.57648513,7.52638995 4.6877184,7.36495406 4.75859375,7.17792188 C4.8294691,6.99088969 4.86490625,6.78515737 4.86490625,6.56071875 C4.86490625,6.12365406 4.71036092,5.77814189 4.40126563,5.52417188 C4.09217033,5.27020186 3.62459688,5.14321875 2.99853125,5.14321875 L1.1735,5.14321875 Z M1.1735,4.32815625 L2.6855,4.32815625 C3.00837661,4.32815625 3.28793632,4.2927191 3.5241875,4.22184375 C3.76043868,4.1509684 3.95632735,4.05253188 4.11185938,3.92653125 C4.2673914,3.80053062 4.38256213,3.64795402 4.457375,3.46879688 C4.53218787,3.28963973 4.56959375,3.09375106 4.56959375,2.881125 C4.56959375,2.38499752 4.41997025,2.02078241 4.12071875,1.78846875 C3.82146725,1.55615509 3.3568469,1.44 2.72684375,1.44 L1.1735,1.44 L1.1735,4.32815625 Z M10.9601563,8.0904375 C11.3105955,8.0904375 11.6236236,8.03137559 11.89925,7.91325 C12.1748764,7.79512441 12.4081709,7.62975106 12.5991406,7.417125 C12.7901103,7.20449894 12.9357964,6.95053273 13.0362031,6.65521875 C13.1366099,6.35990477 13.1868125,6.03506427 13.1868125,5.6806875 L13.1868125,0.53634375 L14.3267188,0.53634375 L14.3267188,5.6806875 C14.3267188,6.16893994 14.2489539,6.62174791 14.0934219,7.039125 C13.9378898,7.45650209 13.7154233,7.8177641 13.4260156,8.12292188 C13.1366079,8.42807965 12.7832208,8.66728038 12.3658438,8.84053125 C11.9484667,9.01378212 11.4799088,9.10040625 10.9601563,9.10040625 C10.4404037,9.10040625 9.97184584,9.01378212 9.55446875,8.84053125 C9.13709166,8.66728038 8.78272021,8.42807965 8.49134375,8.12292188 C8.19996729,7.8177641 7.9765164,7.45650209 7.82098438,7.039125 C7.66545235,6.62174791 7.5876875,6.16893994 7.5876875,5.6806875 L7.5876875,0.53634375 L8.72759375,0.53634375 L8.72759375,5.67478125 C8.72759375,6.02915802 8.77779637,6.35399852 8.87820313,6.6493125 C8.97860988,6.94462648 9.12429592,7.19859269 9.31526563,7.41121875 C9.50623533,7.62384481 9.74051424,7.79020252 10.0181094,7.91029688 C10.2957045,8.03039123 10.609717,8.0904375 10.9601563,8.0904375 L10.9601563,8.0904375 Z M22.058,0.53634375 L22.058,1.4990625 L19.3234063,1.4990625 L19.3234063,9 L18.1775938,9 L18.1775938,1.4990625 L15.4311875,1.4990625 L15.4311875,0.53634375 L22.058,0.53634375 Z M29.027375,0.53634375 L29.027375,1.4990625 L26.2927813,1.4990625 L26.2927813,9 L25.1469688,9 L25.1469688,1.4990625 L22.4005625,1.4990625 L22.4005625,0.53634375 L29.027375,0.53634375 Z M37.5146563,4.771125 C37.5146563,5.40506567 37.414251,5.98682548 37.2134375,6.51642188 C37.012624,7.04601827 36.7291268,7.50177934 36.3629375,7.88371875 C35.9967482,8.26565816 35.5567369,8.56195207 35.0428906,8.77260938 C34.5290443,8.98326668 33.9610656,9.08859375 33.3389375,9.08859375 C32.7168094,9.08859375 32.1498151,8.98326668 31.6379375,8.77260938 C31.1260599,8.56195207 30.6870331,8.26565816 30.3208438,7.88371875 C29.9546544,7.50177934 29.6711573,7.04601827 29.4703438,6.51642188 C29.2695302,5.98682548 29.169125,5.40506567 29.169125,4.771125 C29.169125,4.13718433 29.2695302,3.55542452 29.4703438,3.02582813 C29.6711573,2.49623173 29.9546544,2.03948629 30.3208438,1.65557813 C30.6870331,1.27166996 31.1260599,0.973407313 31.6379375,0.76078125 C32.1498151,0.548155187 32.7168094,0.44184375 33.3389375,0.44184375 C33.9610656,0.44184375 34.5290443,0.548155187 35.0428906,0.76078125 C35.5567369,0.973407313 35.9967482,1.27166996 36.3629375,1.65557813 C36.7291268,2.03948629 37.012624,2.49623173 37.2134375,3.02582813 C37.414251,3.55542452 37.5146563,4.13718433 37.5146563,4.771125 L37.5146563,4.771125 Z M36.3393125,4.771125 C36.3393125,4.2513724 36.2684382,3.78478332 36.1266875,3.37134375 C35.9849368,2.95790418 35.7841263,2.60845455 35.52425,2.32298438 C35.2643737,2.0375142 34.9493769,1.81800077 34.57925,1.6644375 C34.2091231,1.51087423 33.7956898,1.43409375 33.3389375,1.43409375 C32.8861227,1.43409375 32.4746581,1.51087423 32.1045313,1.6644375 C31.7344044,1.81800077 31.4184232,2.0375142 31.1565781,2.32298438 C30.8947331,2.60845455 30.6929382,2.95790418 30.5511875,3.37134375 C30.4094368,3.78478332 30.3385625,4.2513724 30.3385625,4.771125 C30.3385625,5.2908776 30.4094368,5.75648232 30.5511875,6.16795313 C30.6929382,6.57942393 30.8947331,6.9278892 31.1565781,7.21335938 C31.4184232,7.49882955 31.7344044,7.71735862 32.1045313,7.86895313 C32.4746581,8.02054763 32.8861227,8.09634375 33.3389375,8.09634375 C33.7956898,8.09634375 34.2091231,8.02054763 34.57925,7.86895313 C34.9493769,7.71735862 35.2643737,7.49882955 35.52425,7.21335938 C35.7841263,6.9278892 35.9849368,6.57942393 36.1266875,6.16795313 C36.2684382,5.75648232 36.3393125,5.2908776 36.3393125,4.771125 L36.3393125,4.771125 Z M39.6704375,0.53634375 C39.772813,0.53634375 39.8486091,0.549140497 39.8978281,0.574734375 C39.9470471,0.600328253 40.0031559,0.652499606 40.0661563,0.73125 L44.9683438,7.11 C44.9565312,7.00762449 44.9486563,6.90820361 44.9447188,6.81173438 C44.9407812,6.71526514 44.9388125,6.62175045 44.9388125,6.5311875 L44.9388125,0.53634375 L45.942875,0.53634375 L45.942875,9 L45.3640625,9 C45.2734995,9 45.1977034,8.98425016 45.1366719,8.95275 C45.0756403,8.92124984 45.015594,8.86809412 44.9565313,8.79328125 L40.06025,2.4204375 C40.068125,2.51887549 40.0740312,2.61534328 40.0779688,2.70984375 C40.0819063,2.80434422 40.083875,2.89096836 40.083875,2.96971875 L40.083875,9 L39.0798125,9 L39.0798125,0.53634375 L39.6704375,0.53634375 Z"></path>
                </g>
            </g>
        </g>
    </g>
</svg>