<?xml version="1.0" encoding="UTF-8" standalone="no"?>
<svg width="103px" height="70px" viewBox="0 0 103 70" version="1.1" xmlns="http://www.w3.org/2000/svg" xmlns:xlink="http://www.w3.org/1999/xlink">
    <!-- Generator: Sketch 3.8.1 (29687) - http://www.bohemiancoding.com/sketch -->
    <title>button-underline</title>
    <desc>Created with Sketch.</desc>
    <defs>
        <rect id="path-1" x="0" y="0" width="102.941176" height="70"></rect>
    </defs>
    <g id="Presets-Button" stroke="none" stroke-width="1" fill="none" fill-rule="evenodd">
        <g id="button-underline">
            <mask id="mask-2" fill="white">
                <use xlink:href="#path-1"></use>
            </mask>
            <use id="BG" fill="#FFFFFF" xlink:href="#path-1"></use>
            <g id="Rectangle-166-Copy-+-Shape-Copy-18" mask="url(#mask-2)" fill="#00A0D2">
                <g transform="translate(27.000000, 29.000000)">
                    <path d="M2.0276875,9 L2.0276875,0.53634375 L4.72684375,0.53634375 C5.24659635,0.53634375 5.69448249,0.587530738 6.07051563,0.68990625 C6.44654876,0.792281762 6.75563941,0.937967805 6.99779688,1.12696875 C7.23995434,1.31596969 7.41910879,1.54729551 7.53526563,1.82095312 C7.65142246,2.09461074 7.7095,2.40271704 7.7095,2.74528125 C7.7095,2.95396979 7.67701595,3.15478029 7.61204688,3.34771875 C7.5470778,3.54065721 7.44864128,3.71981167 7.31673438,3.8851875 C7.18482747,4.05056333 7.01945412,4.1982181 6.82060938,4.32815625 C6.62176463,4.4580944 6.38847009,4.56440584 6.12071875,4.64709375 C6.73890934,4.76915686 7.20549843,4.99162339 7.5205,5.3145 C7.83550158,5.63737661 7.993,6.06262236 7.993,6.59025 C7.993,6.94856429 7.92704753,7.27537352 7.79514063,7.5706875 C7.66323372,7.86600148 7.47029814,8.11996769 7.21632813,8.33259375 C6.96235811,8.54521981 6.65129872,8.70960879 6.28314063,8.82576562 C5.91498253,8.94192246 5.49465861,9 5.02215625,9 L2.0276875,9 Z M3.1735,5.14321875 L3.1735,8.0904375 L5.0044375,8.0904375 C5.33125163,8.0904375 5.6117957,8.05303162 5.84607813,7.97821875 C6.08036055,7.90340588 6.27329612,7.7980788 6.42489063,7.66223437 C6.57648513,7.52638995 6.6877184,7.36495406 6.75859375,7.17792187 C6.8294691,6.99088969 6.86490625,6.78515737 6.86490625,6.56071875 C6.86490625,6.12365406 6.71036092,5.77814189 6.40126563,5.52417187 C6.09217033,5.27020186 5.62459688,5.14321875 4.99853125,5.14321875 L3.1735,5.14321875 Z M3.1735,4.32815625 L4.6855,4.32815625 C5.00837661,4.32815625 5.28793632,4.2927191 5.5241875,4.22184375 C5.76043868,4.1509684 5.95632735,4.05253188 6.11185938,3.92653125 C6.2673914,3.80053062 6.38256213,3.64795402 6.457375,3.46879687 C6.53218787,3.28963973 6.56959375,3.09375106 6.56959375,2.881125 C6.56959375,2.38499752 6.41997025,2.02078241 6.12071875,1.78846875 C5.82146725,1.55615509 5.3568469,1.44 4.72684375,1.44 L3.1735,1.44 L3.1735,4.32815625 Z M12.9601563,8.0904375 C13.3105955,8.0904375 13.6236236,8.03137559 13.89925,7.91325 C14.1748764,7.79512441 14.4081709,7.62975106 14.5991406,7.417125 C14.7901103,7.20449894 14.9357964,6.95053273 15.0362031,6.65521875 C15.1366099,6.35990477 15.1868125,6.03506427 15.1868125,5.6806875 L15.1868125,0.53634375 L16.3267188,0.53634375 L16.3267188,5.6806875 C16.3267188,6.16893994 16.2489539,6.62174791 16.0934219,7.039125 C15.9378898,7.45650209 15.7154233,7.8177641 15.4260156,8.12292187 C15.1366079,8.42807965 14.7832208,8.66728038 14.3658438,8.84053125 C13.9484667,9.01378212 13.4799088,9.10040625 12.9601563,9.10040625 C12.4404037,9.10040625 11.9718458,9.01378212 11.5544688,8.84053125 C11.1370917,8.66728038 10.7827202,8.42807965 10.4913438,8.12292187 C10.1999673,7.8177641 9.9765164,7.45650209 9.82098438,7.039125 C9.66545235,6.62174791 9.5876875,6.16893994 9.5876875,5.6806875 L9.5876875,0.53634375 L10.7275938,0.53634375 L10.7275938,5.67478125 C10.7275938,6.02915802 10.7777964,6.35399852 10.8782031,6.6493125 C10.9786099,6.94462648 11.1242959,7.19859269 11.3152656,7.41121875 C11.5062353,7.62384481 11.7405142,7.79020252 12.0181094,7.91029687 C12.2957045,8.03039123 12.609717,8.0904375 12.9601563,8.0904375 L12.9601563,8.0904375 Z M24.058,0.53634375 L24.058,1.4990625 L21.3234063,1.4990625 L21.3234063,9 L20.1775938,9 L20.1775938,1.4990625 L17.4311875,1.4990625 L17.4311875,0.53634375 L24.058,0.53634375 Z M31.027375,0.53634375 L31.027375,1.4990625 L28.2927813,1.4990625 L28.2927813,9 L27.1469688,9 L27.1469688,1.4990625 L24.4005625,1.4990625 L24.4005625,0.53634375 L31.027375,0.53634375 Z M39.5146563,4.771125 C39.5146563,5.40506567 39.414251,5.98682548 39.2134375,6.51642187 C39.012624,7.04601827 38.7291268,7.50177934 38.3629375,7.88371875 C37.9967482,8.26565816 37.5567369,8.56195207 37.0428906,8.77260937 C36.5290443,8.98326668 35.9610656,9.08859375 35.3389375,9.08859375 C34.7168094,9.08859375 34.1498151,8.98326668 33.6379375,8.77260937 C33.1260599,8.56195207 32.6870331,8.26565816 32.3208438,7.88371875 C31.9546544,7.50177934 31.6711573,7.04601827 31.4703438,6.51642187 C31.2695302,5.98682548 31.169125,5.40506567 31.169125,4.771125 C31.169125,4.13718433 31.2695302,3.55542452 31.4703438,3.02582812 C31.6711573,2.49623173 31.9546544,2.03948629 32.3208438,1.65557812 C32.6870331,1.27166996 33.1260599,0.973407313 33.6379375,0.76078125 C34.1498151,0.548155187 34.7168094,0.44184375 35.3389375,0.44184375 C35.9610656,0.44184375 36.5290443,0.548155187 37.0428906,0.76078125 C37.5567369,0.973407313 37.9967482,1.27166996 38.3629375,1.65557812 C38.7291268,2.03948629 39.012624,2.49623173 39.2134375,3.02582812 C39.414251,3.55542452 39.5146563,4.13718433 39.5146563,4.771125 L39.5146563,4.771125 Z M38.3393125,4.771125 C38.3393125,4.2513724 38.2684382,3.78478332 38.1266875,3.37134375 C37.9849368,2.95790418 37.7841263,2.60845455 37.52425,2.32298437 C37.2643737,2.0375142 36.9493769,1.81800077 36.57925,1.6644375 C36.2091231,1.51087423 35.7956898,1.43409375 35.3389375,1.43409375 C34.8861227,1.43409375 34.4746581,1.51087423 34.1045313,1.6644375 C33.7344044,1.81800077 33.4184232,2.0375142 33.1565781,2.32298437 C32.8947331,2.60845455 32.6929382,2.95790418 32.5511875,3.37134375 C32.4094368,3.78478332 32.3385625,4.2513724 32.3385625,4.771125 C32.3385625,5.2908776 32.4094368,5.75648232 32.5511875,6.16795312 C32.6929382,6.57942393 32.8947331,6.9278892 33.1565781,7.21335937 C33.4184232,7.49882955 33.7344044,7.71735862 34.1045313,7.86895312 C34.4746581,8.02054763 34.8861227,8.09634375 35.3389375,8.09634375 C35.7956898,8.09634375 36.2091231,8.02054763 36.57925,7.86895312 C36.9493769,7.71735862 37.2643737,7.49882955 37.52425,7.21335937 C37.7841263,6.9278892 37.9849368,6.57942393 38.1266875,6.16795312 C38.2684382,5.75648232 38.3393125,5.2908776 38.3393125,4.771125 L38.3393125,4.771125 Z M41.6704375,0.53634375 C41.772813,0.53634375 41.8486091,0.549140497 41.8978281,0.574734375 C41.9470471,0.600328253 42.0031559,0.652499606 42.0661563,0.73125 L46.9683438,7.11 C46.9565312,7.00762449 46.9486563,6.90820361 46.9447188,6.81173437 C46.9407812,6.71526514 46.9388125,6.62175045 46.9388125,6.5311875 L46.9388125,0.53634375 L47.942875,0.53634375 L47.942875,9 L47.3640625,9 C47.2734995,9 47.1977034,8.98425016 47.1366719,8.95275 C47.0756403,8.92124984 47.015594,8.86809412 46.9565313,8.79328125 L42.06025,2.4204375 C42.068125,2.51887549 42.0740312,2.61534328 42.0779688,2.70984375 C42.0819063,2.80434422 42.083875,2.89096836 42.083875,2.96971875 L42.083875,9 L41.0798125,9 L41.0798125,0.53634375 L41.6704375,0.53634375 Z" id="CALL-TO-ACTION"></path>
                    <polygon id="Line" points="48.5 15 1.40435264 15 0.404352635 15 0.404352635 18 1.40435264 18 48.5 18 49.5 18 49.5 15"></polygon>
                </g>
            </g>
        </g>
    </g>
</svg>