<?xml version="1.0" encoding="UTF-8" standalone="no"?>
<svg width="103px" height="70px" viewBox="0 0 103 70" version="1.1" xmlns="http://www.w3.org/2000/svg" xmlns:xlink="http://www.w3.org/1999/xlink">
    <!-- Generator: Sketch 3.8.1 (29687) - http://www.bohemiancoding.com/sketch -->
    <title>button-call-to-action-large</title>
    <desc>Created with Sketch.</desc>
    <defs>
        <rect id="path-1" x="0" y="0" width="102.941176" height="70"></rect>
        <linearGradient x1="41.669172%" y1="100%" x2="41.669172%" y2="-25.7272907%" id="linearGradient-3">
            <stop stop-color="#00A0D2" offset="0%"></stop>
            <stop stop-color="#3DD0FF" offset="100%"></stop>
        </linearGradient>
        <filter x="-50%" y="-50%" width="200%" height="200%" filterUnits="objectBoundingBox" id="filter-4">
            <feMorphology radius="0.5" operator="dilate" in="SourceAlpha" result="shadowSpreadOuter1"></feMorphology>
            <feOffset dx="0" dy="2" in="shadowSpreadOuter1" result="shadowOffsetOuter1"></feOffset>
            <feGaussianBlur stdDeviation="2" in="shadowOffsetOuter1" result="shadowBlurOuter1"></feGaussianBlur>
            <feComposite in="shadowBlurOuter1" in2="SourceAlpha" operator="out" result="shadowBlurOuter1"></feComposite>
            <feColorMatrix values="0 0 0 0 0   0 0 0 0 0   0 0 0 0 0  0 0 0 0.5 0" type="matrix" in="shadowBlurOuter1" result="shadowMatrixOuter1"></feColorMatrix>
            <feMerge>
                <feMergeNode in="shadowMatrixOuter1"></feMergeNode>
                <feMergeNode in="SourceGraphic"></feMergeNode>
            </feMerge>
        </filter>
        <rect id="path-5" x="0.224472234" y="0.20703125" width="111.551056" height="38.5210998" rx="3"></rect>
        <filter x="-50%" y="-50%" width="200%" height="200%" filterUnits="objectBoundingBox" id="filter-6">
            <feMorphology radius="0.5" operator="dilate" in="SourceAlpha" result="shadowSpreadOuter1"></feMorphology>
            <feOffset dx="0" dy="2" in="shadowSpreadOuter1" result="shadowOffsetOuter1"></feOffset>
            <feGaussianBlur stdDeviation="2" in="shadowOffsetOuter1" result="shadowBlurOuter1"></feGaussianBlur>
            <feComposite in="shadowBlurOuter1" in2="SourceAlpha" operator="out" result="shadowBlurOuter1"></feComposite>
            <feColorMatrix values="0 0 0 0 0   0 0 0 0 0   0 0 0 0 0  0 0 0 0.5 0" type="matrix" in="shadowBlurOuter1"></feColorMatrix>
        </filter>
    </defs>
    <g id="Presets-Button" stroke="none" stroke-width="1" fill="none" fill-rule="evenodd">
        <g id="button-call-to-action-large">
            <mask id="mask-2" fill="white">
                <use xlink:href="#path-1"></use>
            </mask>
            <use id="BG" fill="#FFFFFF" xlink:href="#path-1"></use>
            <g id="Rectangle-166-Copy-+-Shape-Copy-18" filter="url(#filter-4)" mask="url(#mask-2)">
                <g transform="translate(13.000000, 15.000000)">
                    <g id="Rectangle-166-Copy" fill="none">
                        <use fill="black" fill-opacity="1" filter="url(#filter-6)" xlink:href="#path-5"></use>
                        <use stroke="#00A0D2" stroke-width="1" fill="url(#linearGradient-3)" fill-rule="evenodd" xlink:href="#path-5"></use>
                    </g>
                    <path d="M23.1463371,24.5194408 L23.1463371,12.4152127 L27.0065131,12.4152127 C27.749833,12.4152127 28.3903736,12.4884174 28.9281543,12.6348289 C29.465935,12.7812404 29.9079785,12.9895921 30.2542979,13.2598902 C30.6006174,13.5301883 30.8568337,13.861017 31.0229544,14.2523862 C31.1890752,14.6437554 31.2721343,15.0843911 31.2721343,15.5743064 C31.2721343,15.8727606 31.2256775,16.1599481 31.1327625,16.4358775 C31.0398475,16.7118068 30.8990693,16.9680231 30.7104238,17.204534 C30.5217782,17.4410448 30.2852709,17.6522121 30.0008947,17.8380421 C29.7165185,18.023872 29.3828743,18.1759124 28.9999519,18.2941679 C29.8840521,18.4687354 30.5513406,18.7868941 31.0018375,19.2486534 C31.4523344,19.7104127 31.6775795,20.3185744 31.6775795,21.0731567 C31.6775795,21.585597 31.5832581,22.0529805 31.3946125,22.4753213 C31.2059669,22.8976622 30.9300417,23.2608698 30.5668286,23.5649553 C30.2036155,23.8690407 29.7587565,24.1041402 29.2322382,24.2702609 C28.70572,24.4363817 28.1045972,24.5194408 27.4288518,24.5194408 L23.1463371,24.5194408 Z M24.7850114,19.003697 L24.7850114,23.2186375 L27.4035115,23.2186375 C27.870902,23.2186375 28.2721198,23.1651418 28.6071769,23.0581488 C28.942234,22.9511558 29.2181592,22.8005231 29.4349608,22.6062463 C29.6517624,22.4119695 29.8108418,22.1810933 29.9122036,21.9136108 C30.0135654,21.6461283 30.0642455,21.3519019 30.0642455,21.0309229 C30.0642455,20.4058584 29.8432238,19.911727 29.4011737,19.5485139 C28.9591236,19.1853008 28.2904273,19.003697 27.3950647,19.003697 L24.7850114,19.003697 Z M24.7850114,17.8380421 L26.9473857,17.8380421 C27.409145,17.8380421 27.808955,17.7873619 28.1468277,17.6860001 C28.4847003,17.5846383 28.7648489,17.4438601 28.9872817,17.2636614 C29.2097146,17.0834626 29.374425,16.8652565 29.4814181,16.6090363 C29.5884111,16.3528162 29.6419068,16.0726677 29.6419068,15.7685823 C29.6419068,15.0590496 29.427924,14.5381704 28.9999519,14.205929 C28.5719799,13.8736875 27.9075069,13.7075693 27.0065131,13.7075693 L24.7850114,13.7075693 L24.7850114,17.8380421 Z M38.7813169,23.2186375 C39.2824947,23.2186375 39.7301693,23.1341706 40.1243541,22.9652343 C40.5185389,22.7962979 40.8521832,22.5597906 41.1252969,22.2557052 C41.3984106,21.9516198 41.6067623,21.5884121 41.7503582,21.1660713 C41.8939541,20.7437304 41.965751,20.2791625 41.965751,19.7723534 L41.965751,12.4152127 L43.5959785,12.4152127 L43.5959785,19.7723534 C43.5959785,20.4706236 43.4847637,21.1182032 43.2623309,21.7151116 C43.039898,22.31202 42.7217394,22.8286759 42.3078454,23.2650948 C41.8939513,23.7015136 41.3885577,24.0436046 40.7916493,24.2913779 C40.1947409,24.5391512 39.5246368,24.663036 38.7813169,24.663036 C38.0379971,24.663036 37.367893,24.5391512 36.7709846,24.2913779 C36.1740762,24.0436046 35.6672748,23.7015136 35.2505651,23.2650948 C34.8338555,22.8286759 34.5142891,22.31202 34.2918562,21.7151116 C34.0694234,21.1182032 33.9582086,20.4706236 33.9582086,19.7723534 L33.9582086,12.4152127 L35.5884361,12.4152127 L35.5884361,19.7639067 C35.5884361,20.2707157 35.660233,20.7352836 35.8038289,21.1576245 C35.9474248,21.5799653 36.1557765,21.943173 36.4288902,22.2472584 C36.7020039,22.5513438 37.037056,22.7892589 37.4340564,22.9610109 C37.8310568,23.1327628 38.2801391,23.2186375 38.7813169,23.2186375 L38.7813169,23.2186375 Z M54.6528065,12.4152127 L54.6528065,13.792037 L50.7419498,13.792037 L50.7419498,24.5194408 L49.1032755,24.5194408 L49.1032755,13.792037 L45.1755253,13.792037 L45.1755253,12.4152127 L54.6528065,12.4152127 Z M64.6200006,12.4152127 L64.6200006,13.792037 L60.7091439,13.792037 L60.7091439,24.5194408 L59.0704696,24.5194408 L59.0704696,13.792037 L55.1427194,13.792037 L55.1427194,12.4152127 L64.6200006,12.4152127 Z M76.7580157,18.4715501 C76.7580157,19.3781752 76.614422,20.2101741 76.3272302,20.9675721 C76.0400384,21.72497 75.6345973,22.3767729 75.1108947,22.9230004 C74.587192,23.4692279 73.9579136,23.8929702 73.2230405,24.19424 C72.4881675,24.4955098 71.6758774,24.6461424 70.786146,24.6461424 C69.8964147,24.6461424 69.0855324,24.4955098 68.3534749,24.19424 C67.6214175,23.8929702 66.9935468,23.4692279 66.4698442,22.9230004 C65.9461416,22.3767729 65.5407004,21.72497 65.2535087,20.9675721 C64.9663169,20.2101741 64.8227231,19.3781752 64.8227231,18.4715501 C64.8227231,17.5649251 64.9663169,16.7329262 65.2535087,15.9755282 C65.5407004,15.2181303 65.9461416,14.5649196 66.4698442,14.0158765 C66.9935468,13.4668334 67.6214175,13.0402756 68.3534749,12.7361902 C69.0855324,12.4321048 69.8964147,12.2800643 70.786146,12.2800643 C71.6758774,12.2800643 72.4881675,12.4321048 73.2230405,12.7361902 C73.9579136,13.0402756 74.587192,13.4668334 75.1108947,14.0158765 C75.6345973,14.5649196 76.0400384,15.2181303 76.3272302,15.9755282 C76.614422,16.7329262 76.7580157,17.5649251 76.7580157,18.4715501 L76.7580157,18.4715501 Z M75.0771076,18.4715501 C75.0771076,17.7282303 74.9757473,17.0609417 74.7730237,16.4696646 C74.5703001,15.8783874 74.2831126,15.3786249 73.9114527,14.9703621 C73.5397927,14.5620992 73.0893026,14.2481639 72.5599687,14.0285467 C72.0306349,13.8089295 71.4393665,13.6991225 70.786146,13.6991225 C70.1385567,13.6991225 69.550104,13.8089295 69.0207701,14.0285467 C68.4914363,14.2481639 68.0395384,14.5620992 67.6650628,14.9703621 C67.2905873,15.3786249 67.001992,15.8783874 66.7992684,16.4696646 C66.5965448,17.0609417 66.4951845,17.7282303 66.4951845,18.4715501 C66.4951845,19.21487 66.5965448,19.8807508 66.7992684,20.4692124 C67.001992,21.0576739 67.2905873,21.5560286 67.6650628,21.9642915 C68.0395384,22.3725543 68.4914363,22.6850818 69.0207701,22.9018834 C69.550104,23.1186851 70.1385567,23.2270843 70.786146,23.2270843 C71.4393665,23.2270843 72.0306349,23.1186851 72.5599687,22.9018834 C73.0893026,22.6850818 73.5397927,22.3725543 73.9114527,21.9642915 C74.2831126,21.5560286 74.5703001,21.0576739 74.7730237,20.4692124 C74.9757473,19.8807508 75.0771076,19.21487 75.0771076,18.4715501 L75.0771076,18.4715501 Z M79.8410885,12.4152127 C79.9874999,12.4152127 80.0958991,12.4335139 80.1662893,12.4701168 C80.2366794,12.5067196 80.316923,12.5813321 80.4070224,12.6939563 L87.4178453,21.8164729 C87.4009517,21.6700614 87.3896894,21.5278755 87.3840582,21.3899108 C87.378427,21.2519461 87.3756114,21.1182068 87.3756114,20.988689 L87.3756114,12.4152127 L88.8115631,12.4152127 L88.8115631,24.5194408 L87.9837792,24.5194408 C87.8542613,24.5194408 87.7458622,24.4969163 87.6585784,24.4518666 C87.5712946,24.4068169 87.4854199,24.3307967 87.4009518,24.2238037 L80.3985756,15.1097338 C80.409838,15.2505141 80.4182847,15.3884767 80.4239159,15.5236258 C80.4295471,15.6587749 80.4323627,15.7826597 80.4323627,15.8952839 L80.4323627,24.5194408 L78.996411,24.5194408 L78.996411,12.4152127 L79.8410885,12.4152127 Z" id="CALL-TO-ACTION" fill="#FFFFFF" fill-rule="evenodd"></path>
                </g>
            </g>
        </g>
    </g>
</svg>