<?xml version="1.0" encoding="UTF-8" standalone="no"?>
<svg width="100px" height="68px" viewBox="0 0 100 68" version="1.1" xmlns="http://www.w3.org/2000/svg" xmlns:xlink="http://www.w3.org/1999/xlink">
    <!-- Generator: Sketch 3.8.1 (29687) - http://www.bohemiancoding.com/sketch -->
    <title>button</title>
    <desc>Created with Sketch.</desc>
    <defs>
        <rect id="path-1" x="0" y="0" width="100" height="68"></rect>
        <linearGradient x1="0%" y1="0%" x2="106.265625%" y2="109.895844%" id="linearGradient-3">
            <stop stop-color="#C8EAF4" stop-opacity="0.208021966" offset="0%"></stop>
            <stop stop-color="#3DD0FF" offset="100%"></stop>
        </linearGradient>
        <rect id="path-4" x="0" y="-2.13162821e-14" width="65" height="22.9447679" rx="3"></rect>
        <mask id="mask-5" maskContentUnits="userSpaceOnUse" maskUnits="objectBoundingBox" x="0" y="0" width="65" height="22.9447679" fill="white">
            <use xlink:href="#path-4"></use>
        </mask>
    </defs>
    <g id="Elements" stroke="none" stroke-width="1" fill="none" fill-rule="evenodd">
        <g id="button">
            <mask id="mask-2" fill="white">
                <use xlink:href="#path-1"></use>
            </mask>
            <use id="BG" fill="#FFFFFF" xlink:href="#path-1"></use>
            <g id="Rectangle-166-Copy-+-Shape-Copy-18" mask="url(#mask-2)">
                <g transform="translate(17.000000, 21.000000)">
                    <use id="Rectangle-166-Copy" stroke="#00A0D2" mask="url(#mask-5)" stroke-width="2" fill-opacity="0.15" fill="url(#linearGradient-3)" xlink:href="#path-4"></use>
                    <path d="M52,22.1205776 C52,20.7725725 51.8739267,19.4532484 51.5652041,18.1769456 C51.3391445,17.2974261 50.683058,16.6042879 49.826102,16.6042879 C49.3091323,16.6042879 48.8391598,16.8528712 48.5217551,17.2501025 L48.5217551,17.0823189 C48.5217551,16.0259185 47.7435083,15.17024 46.7826122,15.17024 C45.8217162,15.17024 45.0434694,16.0258737 45.0434694,17.0823189 L45.0434694,16.1263018 C45.0434694,15.0699014 44.2652226,14.2142229 43.3043266,14.2142229 C42.3434305,14.2142229 41.5651837,15.0698566 41.5651837,16.1263018 L41.5652245,9.91207893 C41.5652245,8.85567851 40.7869777,8 39.8260816,8 C38.8651856,8 38.0869388,8.8556337 38.0869388,9.91207893 L38.0869388,20.8160869 C38.0869388,21.3461917 37.6956347,21.772104 37.2173878,21.772104 C37.1347655,21.772104 37.0565047,21.7577635 36.9782439,21.7338776 L34.5217102,20.6344558 C34.2869686,20.5048985 34.0217785,20.428401 33.7391428,20.428401 C32.7782875,20.428401 32,21.2840347 32,22.3404799 C32,23.1340014 32.443478,23.8175493 33.0695645,24.109154 C35.8913153,25.7104927 38.1521561,27.6751384 39.7347774,30.9447679 L49.6700288,30.9447679 C51.1695794,28.2774386 52,25.179402 52,22.1205776 Z" id="Shape-Copy-18" stroke="none" fill="#00A0D2"></path>
                </g>
            </g>
        </g>
    </g>
</svg>