<?xml version="1.0" encoding="UTF-8" standalone="no"?>
<svg width="103px" height="70px" viewBox="0 0 103 70" version="1.1" xmlns="http://www.w3.org/2000/svg" xmlns:xlink="http://www.w3.org/1999/xlink">
    <!-- Generator: Sketch 3.8.1 (29687) - http://www.bohemiancoding.com/sketch -->
    <title>button-outline-circle</title>
    <desc>Created with Sketch.</desc>
    <defs>
        <rect id="path-1" x="0" y="0" width="102.941176" height="70"></rect>
        <linearGradient x1="0%" y1="0%" x2="106.265625%" y2="109.895844%" id="linearGradient-3">
            <stop stop-color="#C8EAF4" stop-opacity="0.208021966" offset="0%"></stop>
            <stop stop-color="#3DD0FF" offset="100%"></stop>
        </linearGradient>
        <linearGradient x1="0%" y1="0%" x2="106.265625%" y2="109.895844%" id="linearGradient-4">
            <stop stop-color="#00A0D2" offset="0%"></stop>
            <stop stop-color="#3DD0FF" offset="100%"></stop>
        </linearGradient>
    </defs>
    <g id="Presets-Button" stroke="none" stroke-width="1" fill="none" fill-rule="evenodd">
        <g id="button-outline-circle">
            <mask id="mask-2" fill="white">
                <use xlink:href="#path-1"></use>
            </mask>
            <use id="BG" fill="#FFFFFF" xlink:href="#path-1"></use>
            <g id="Rectangle-166-Copy-+-Shape-Copy-18" mask="url(#mask-2)">
                <g transform="translate(12.000000, 20.000000)">
                    <path d="M1.5,14.4675811 C1.5,7.30240416 7.30280484,1.5 14.4752864,1.5 L65.5247136,1.5 C72.691405,1.5 78.5,7.30478669 78.5,14.4675811 C78.5,21.6327581 72.6971952,27.4351623 65.5247136,27.4351623 L14.4752864,27.4351623 C7.30859503,27.4351623 1.5,21.6303756 1.5,14.4675811 L1.5,14.4675811 Z M0.5,14.4675811 C0.5,22.1828072 6.75645705,28.4351623 14.4752864,28.4351623 L65.5247136,28.4351623 C73.2494645,28.4351623 79.5,22.1850583 79.5,14.4675811 C79.5,6.75235507 73.243543,0.5 65.5247136,0.5 L14.4752864,0.5 C6.75053555,0.5 0.5,6.75010395 0.5,14.4675811 L0.5,14.4675811 Z" id="Rectangle-166-Copy" fill="url(#linearGradient-4)"></path>
                    <path d="M18.0276875,19 L18.0276875,10.5363438 L20.7268438,10.5363438 C21.2465963,10.5363438 21.6944825,10.5875307 22.0705156,10.6899063 C22.4465488,10.7922818 22.7556394,10.9379678 22.9977969,11.1269688 C23.2399543,11.3159697 23.4191088,11.5472955 23.5352656,11.8209531 C23.6514225,12.0946107 23.7095,12.402717 23.7095,12.7452813 C23.7095,12.9539698 23.6770159,13.1547803 23.6120469,13.3477188 C23.5470778,13.5406572 23.4486413,13.7198117 23.3167344,13.8851875 C23.1848275,14.0505633 23.0194541,14.1982181 22.8206094,14.3281563 C22.6217646,14.4580944 22.3884701,14.5644058 22.1207188,14.6470938 C22.7389093,14.7691569 23.2054984,14.9916234 23.5205,15.3145 C23.8355016,15.6373766 23.993,16.0626224 23.993,16.59025 C23.993,16.9485643 23.9270475,17.2753735 23.7951406,17.5706875 C23.6632337,17.8660015 23.4702981,18.1199677 23.2163281,18.3325938 C22.9623581,18.5452198 22.6512987,18.7096088 22.2831406,18.8257656 C21.9149825,18.9419225 21.4946586,19 21.0221563,19 L18.0276875,19 Z M19.1735,15.1432188 L19.1735,18.0904375 L21.0044375,18.0904375 C21.3312516,18.0904375 21.6117957,18.0530316 21.8460781,17.9782188 C22.0803605,17.9034059 22.2732961,17.7980788 22.4248906,17.6622344 C22.5764851,17.5263899 22.6877184,17.3649541 22.7585937,17.1779219 C22.8294691,16.9908897 22.8649063,16.7851574 22.8649063,16.5607188 C22.8649063,16.1236541 22.7103609,15.7781419 22.4012656,15.5241719 C22.0921703,15.2702019 21.6245969,15.1432188 20.9985312,15.1432188 L19.1735,15.1432188 Z M19.1735,14.3281563 L20.6855,14.3281563 C21.0083766,14.3281563 21.2879363,14.2927191 21.5241875,14.2218438 C21.7604387,14.1509684 21.9563273,14.0525319 22.1118594,13.9265313 C22.2673914,13.8005306 22.3825621,13.647954 22.457375,13.4687969 C22.5321879,13.2896397 22.5695937,13.0937511 22.5695937,12.881125 C22.5695937,12.3849975 22.4199702,12.0207824 22.1207188,11.7884688 C21.8214673,11.5561551 21.3568469,11.44 20.7268438,11.44 L19.1735,11.44 L19.1735,14.3281563 Z M28.9601563,18.0904375 C29.3105955,18.0904375 29.6236236,18.0313756 29.89925,17.91325 C30.1748764,17.7951244 30.4081709,17.6297511 30.5991406,17.417125 C30.7901103,17.2044989 30.9357964,16.9505327 31.0362031,16.6552188 C31.1366099,16.3599048 31.1868125,16.0350643 31.1868125,15.6806875 L31.1868125,10.5363438 L32.3267187,10.5363438 L32.3267187,15.6806875 C32.3267187,16.1689399 32.2489539,16.6217479 32.0934219,17.039125 C31.9378898,17.4565021 31.7154233,17.8177641 31.4260156,18.1229219 C31.1366079,18.4280797 30.7832208,18.6672804 30.3658437,18.8405313 C29.9484667,19.0137821 29.4799088,19.1004063 28.9601563,19.1004063 C28.4404037,19.1004063 27.9718458,19.0137821 27.5544687,18.8405313 C27.1370917,18.6672804 26.7827202,18.4280797 26.4913437,18.1229219 C26.1999673,17.8177641 25.9765164,17.4565021 25.8209844,17.039125 C25.6654523,16.6217479 25.5876875,16.1689399 25.5876875,15.6806875 L25.5876875,10.5363438 L26.7275938,10.5363438 L26.7275938,15.6747813 C26.7275938,16.029158 26.7777964,16.3539985 26.8782031,16.6493125 C26.9786099,16.9446265 27.1242959,17.1985927 27.3152656,17.4112188 C27.5062353,17.6238448 27.7405142,17.7902025 28.0181094,17.9102969 C28.2957045,18.0303912 28.609717,18.0904375 28.9601563,18.0904375 L28.9601563,18.0904375 Z M40.058,10.5363438 L40.058,11.4990625 L37.3234062,11.4990625 L37.3234062,19 L36.1775937,19 L36.1775937,11.4990625 L33.4311875,11.4990625 L33.4311875,10.5363438 L40.058,10.5363438 Z M47.027375,10.5363438 L47.027375,11.4990625 L44.2927812,11.4990625 L44.2927812,19 L43.1469687,19 L43.1469687,11.4990625 L40.4005625,11.4990625 L40.4005625,10.5363438 L47.027375,10.5363438 Z M55.5146563,14.771125 C55.5146563,15.4050657 55.414251,15.9868255 55.2134375,16.5164219 C55.012624,17.0460183 54.7291268,17.5017793 54.3629375,17.8837188 C53.9967482,18.2656582 53.5567369,18.5619521 53.0428906,18.7726094 C52.5290443,18.9832667 51.9610656,19.0885938 51.3389375,19.0885938 C50.7168094,19.0885938 50.1498151,18.9832667 49.6379375,18.7726094 C49.1260599,18.5619521 48.6870331,18.2656582 48.3208438,17.8837188 C47.9546544,17.5017793 47.6711573,17.0460183 47.4703437,16.5164219 C47.2695302,15.9868255 47.169125,15.4050657 47.169125,14.771125 C47.169125,14.1371843 47.2695302,13.5554245 47.4703437,13.0258281 C47.6711573,12.4962317 47.9546544,12.0394863 48.3208438,11.6555781 C48.6870331,11.27167 49.1260599,10.9734073 49.6379375,10.7607813 C50.1498151,10.5481552 50.7168094,10.4418438 51.3389375,10.4418438 C51.9610656,10.4418438 52.5290443,10.5481552 53.0428906,10.7607813 C53.5567369,10.9734073 53.9967482,11.27167 54.3629375,11.6555781 C54.7291268,12.0394863 55.012624,12.4962317 55.2134375,13.0258281 C55.414251,13.5554245 55.5146563,14.1371843 55.5146563,14.771125 L55.5146563,14.771125 Z M54.3393125,14.771125 C54.3393125,14.2513724 54.2684382,13.7847833 54.1266875,13.3713438 C53.9849368,12.9579042 53.7841263,12.6084546 53.52425,12.3229844 C53.2643737,12.0375142 52.9493769,11.8180008 52.57925,11.6644375 C52.2091231,11.5108742 51.7956898,11.4340938 51.3389375,11.4340938 C50.8861227,11.4340938 50.4746581,11.5108742 50.1045313,11.6644375 C49.7344044,11.8180008 49.4184232,12.0375142 49.1565781,12.3229844 C48.8947331,12.6084546 48.6929382,12.9579042 48.5511875,13.3713438 C48.4094368,13.7847833 48.3385625,14.2513724 48.3385625,14.771125 C48.3385625,15.2908776 48.4094368,15.7564823 48.5511875,16.1679531 C48.6929382,16.5794239 48.8947331,16.9278892 49.1565781,17.2133594 C49.4184232,17.4988296 49.7344044,17.7173586 50.1045313,17.8689531 C50.4746581,18.0205476 50.8861227,18.0963438 51.3389375,18.0963438 C51.7956898,18.0963438 52.2091231,18.0205476 52.57925,17.8689531 C52.9493769,17.7173586 53.2643737,17.4988296 53.52425,17.2133594 C53.7841263,16.9278892 53.9849368,16.5794239 54.1266875,16.1679531 C54.2684382,15.7564823 54.3393125,15.2908776 54.3393125,14.771125 L54.3393125,14.771125 Z M57.6704375,10.5363438 C57.772813,10.5363438 57.8486091,10.5491405 57.8978281,10.5747344 C57.9470471,10.6003283 58.0031559,10.6524996 58.0661563,10.73125 L62.9683438,17.11 C62.9565312,17.0076245 62.9486563,16.9082036 62.9447188,16.8117344 C62.9407812,16.7152651 62.9388125,16.6217505 62.9388125,16.5311875 L62.9388125,10.5363438 L63.942875,10.5363438 L63.942875,19 L63.3640625,19 C63.2734995,19 63.1977034,18.9842502 63.1366719,18.95275 C63.0756403,18.9212498 63.015594,18.8680941 62.9565313,18.7932813 L58.06025,12.4204375 C58.068125,12.5188755 58.0740312,12.6153433 58.0779688,12.7098438 C58.0819063,12.8043442 58.083875,12.8909684 58.083875,12.9697188 L58.083875,19 L57.0798125,19 L57.0798125,10.5363438 L57.6704375,10.5363438 Z" id="BUTTON" fill="#00A0D2"></path>
                </g>
            </g>
        </g>
    </g>
</svg>