<?xml version="1.0" encoding="UTF-8" standalone="no"?>
<svg width="100px" height="68px" viewBox="0 0 100 68" version="1.1" xmlns="http://www.w3.org/2000/svg" xmlns:xlink="http://www.w3.org/1999/xlink">
    <!-- Generator: Sketch 3.6.1 (26313) - http://www.bohemiancoding.com/sketch -->
    <title>cateogires</title>
    <desc>Created with Sketch.</desc>
    <defs>
        <rect id="path-1" x="0" y="0" width="100" height="68"></rect>
        <linearGradient x1="0%" y1="0%" x2="106.265625%" y2="109.895844%" id="linearGradient-3">
            <stop stop-color="#C8EAF4" stop-opacity="0.208021966" offset="0%"></stop>
            <stop stop-color="#3DD0FF" offset="100%"></stop>
        </linearGradient>
        <rect id="path-4" x="0" y="0" width="31.464638" height="45.3333333"></rect>
        <linearGradient x1="0%" y1="0%" x2="106.265625%" y2="109.895844%" id="linearGradient-6">
            <stop stop-color="#00A0D2" offset="0%"></stop>
            <stop stop-color="#3DD0FF" offset="100%"></stop>
        </linearGradient>
        <rect id="path-7" x="0" y="0" width="31.464638" height="45.3333333"></rect>
        <rect id="path-9" x="0" y="0" width="31.464638" height="45.3333333"></rect>
    </defs>
    <g id="Elements" stroke="none" stroke-width="1" fill="none" fill-rule="evenodd">
        <g id="cateogires">
            <mask id="mask-2" fill="white">
                <use xlink:href="#path-1"></use>
            </mask>
            <use id="BG" fill="#FFFFFF" xlink:href="#path-1"></use>
            <g id="category" mask="url(#mask-2)">
                <g transform="translate(17.000000, 12.000000)">
                    <g id="image">
                        <mask id="mask-5" fill="white">
                            <use xlink:href="#path-4"></use>
                        </mask>
                        <use id="Mask-Copy" stroke="#B7E3F1" fill-opacity="0.15" fill="url(#linearGradient-3)" xlink:href="#path-4"></use>
                        <path d="M30.0671291,28.6289759 C30.0671291,28.6289759 33.3049827,25.5538661 34.0102394,21.4183116 C35.9082915,21.4183116 37.0806178,17.0216969 35.1825657,15.47514 C35.2625816,13.8475643 37.6221209,2.69399006 25.669975,2.69399006 C13.7178292,2.69399006 16.0773685,13.8475643 16.1573844,15.47514 C14.2593323,17.0216969 15.4316586,21.4183116 17.3297107,21.4183116 C18.0349673,25.5538661 21.2746818,28.6289759 21.2746818,28.6289759 C21.2746818,28.6289759 21.2486301,31.536647 20.1470155,31.7040856 C16.5965416,32.2460107 3.33995007,37.8543051 3.33995007,44.0045246 L48,44.0045246 C48,37.8543051 34.7434085,32.2460107 31.1947954,31.7040856 C30.0931808,31.536647 30.0671291,28.6289759 30.0671291,28.6289759 Z" id="Shape-Copy-6" fill="#00A0D2" opacity="0.0827891791" mask="url(#mask-5)"></path>
                    </g>
                    <g id="Group-3" transform="translate(1.000000, 25.000000)">
                        <rect id="Rectangle-103" fill="#FFFFFF" x="0" y="0.103861686" width="29" height="11.8961383"></rect>
                        <rect id="Rectangle-167-Copy" fill="url(#linearGradient-6)" opacity="0.138118004" x="3" y="3" width="23" height="2"></rect>
                        <rect id="Rectangle-167-Copy-2" fill="url(#linearGradient-6)" opacity="0.138118004" x="3" y="7" width="17" height="2"></rect>
                    </g>
                </g>
            </g>
            <g id="category" mask="url(#mask-2)">
                <g transform="translate(54.000000, 12.000000)">
                    <g id="image">
                        <mask id="mask-8" fill="white">
                            <use xlink:href="#path-7"></use>
                        </mask>
                        <use id="Mask-Copy" stroke="#B7E3F1" fill-opacity="0.15" fill="url(#linearGradient-3)" xlink:href="#path-7"></use>
                        <path d="M30.0671291,28.6289759 C30.0671291,28.6289759 33.3049827,25.5538661 34.0102394,21.4183116 C35.9082915,21.4183116 37.0806178,17.0216969 35.1825657,15.47514 C35.2625816,13.8475643 37.6221209,2.69399006 25.669975,2.69399006 C13.7178292,2.69399006 16.0773685,13.8475643 16.1573844,15.47514 C14.2593323,17.0216969 15.4316586,21.4183116 17.3297107,21.4183116 C18.0349673,25.5538661 21.2746818,28.6289759 21.2746818,28.6289759 C21.2746818,28.6289759 21.2486301,31.536647 20.1470155,31.7040856 C16.5965416,32.2460107 3.33995007,37.8543051 3.33995007,44.0045246 L48,44.0045246 C48,37.8543051 34.7434085,32.2460107 31.1947954,31.7040856 C30.0931808,31.536647 30.0671291,28.6289759 30.0671291,28.6289759 Z" id="Shape-Copy-6" fill="#00A0D2" opacity="0.0827891791" mask="url(#mask-8)"></path>
                    </g>
                    <g id="Group-3" transform="translate(1.000000, 25.000000)">
                        <rect id="Rectangle-103" fill="#FFFFFF" x="0" y="0.103861686" width="29" height="11.8961383"></rect>
                        <rect id="Rectangle-167-Copy" fill="url(#linearGradient-6)" opacity="0.138118004" x="3" y="3" width="23" height="2"></rect>
                        <rect id="Rectangle-167-Copy-2" fill="url(#linearGradient-6)" opacity="0.138118004" x="3" y="7" width="17" height="2"></rect>
                    </g>
                </g>
            </g>
            <g id="category" mask="url(#mask-2)">
                <g transform="translate(90.000000, 12.000000)">
                    <g id="image">
                        <mask id="mask-10" fill="white">
                            <use xlink:href="#path-9"></use>
                        </mask>
                        <use id="Mask-Copy" stroke="#B7E3F1" fill-opacity="0.15" fill="url(#linearGradient-3)" xlink:href="#path-9"></use>
                        <path d="M30.0671291,28.6289759 C30.0671291,28.6289759 33.3049827,25.5538661 34.0102394,21.4183116 C35.9082915,21.4183116 37.0806178,17.0216969 35.1825657,15.47514 C35.2625816,13.8475643 37.6221209,2.69399006 25.669975,2.69399006 C13.7178292,2.69399006 16.0773685,13.8475643 16.1573844,15.47514 C14.2593323,17.0216969 15.4316586,21.4183116 17.3297107,21.4183116 C18.0349673,25.5538661 21.2746818,28.6289759 21.2746818,28.6289759 C21.2746818,28.6289759 21.2486301,31.536647 20.1470155,31.7040856 C16.5965416,32.2460107 3.33995007,37.8543051 3.33995007,44.0045246 L48,44.0045246 C48,37.8543051 34.7434085,32.2460107 31.1947954,31.7040856 C30.0931808,31.536647 30.0671291,28.6289759 30.0671291,28.6289759 Z" id="Shape-Copy-6" fill="#00A0D2" opacity="0.0827891791" mask="url(#mask-10)"></path>
                    </g>
                    <g id="Group-3" transform="translate(1.000000, 25.000000)">
                        <rect id="Rectangle-103" fill="#FFFFFF" x="0" y="0.103861686" width="29" height="11.8961383"></rect>
                        <rect id="Rectangle-167-Copy" fill="url(#linearGradient-6)" opacity="0.138118004" x="3" y="3" width="23" height="2"></rect>
                        <rect id="Rectangle-167-Copy-2" fill="url(#linearGradient-6)" opacity="0.138118004" x="3" y="7" width="17" height="2"></rect>
                    </g>
                </g>
            </g>
            <path d="M5.7495419,15.1464089 L4.175,15.1464089 C4.27379528,16.443097 4.68749431,17.4588207 5.4161095,18.1936106 C6.14472469,18.9284005 7.12648805,19.3575361 8.36142905,19.4810302 L8.36142905,21 L9.38025028,21 L9.38025028,19.4810302 C9.97302196,19.4316325 10.5163878,19.3081403 11.0103642,19.1105497 C11.5043406,18.9129592 11.9303889,18.6443635 12.2885218,18.3047547 C12.6466547,17.965146 12.9275995,17.5607089 13.1313648,17.0914313 C13.3351301,16.6221537 13.4370112,16.0849624 13.4370112,15.4798413 C13.4370112,14.9117685 13.3289555,14.4239741 13.1128408,14.0164436 C12.8967261,13.608913 12.6343051,13.2693094 12.3255698,12.9976223 C12.0168346,12.7259353 11.6957547,12.5129112 11.3623207,12.3585436 C11.0288866,12.204176 10.7386798,12.0961202 10.4916916,12.0343732 L9.38025028,11.7379888 L9.38025028,7.18107933 C10.516396,7.3910193 11.2079526,8.10727433 11.4549408,9.32986592 L13.0294827,9.32986592 C12.7824945,8.24311784 12.3626208,7.39102134 11.7698492,6.77355084 C11.1770775,6.15608034 10.3805525,5.7856036 9.38025028,5.6621095 L9.38025028,4.421 L8.36142905,4.421 L8.36142905,5.64358547 C7.83040442,5.6806337 7.33334813,5.79795134 6.87024525,5.9955419 C6.40714238,6.19313246 6.00579257,6.4617281 5.6661838,6.80133687 C5.32657502,7.14094565 5.05797939,7.54229545 4.86038883,8.00539832 C4.66279827,8.4685012 4.56400447,8.97790672 4.56400447,9.53363017 C4.56400447,10.0770042 4.63809982,10.5401001 4.78629274,10.9229318 C4.93448566,11.3057636 5.16603362,11.6299307 5.48094358,11.895443 C5.79585353,12.1609553 6.19102872,12.389416 6.66648101,12.5808318 C7.14193329,12.7722477 7.70691032,12.9482242 8.36142905,13.1087665 L8.36142905,18.0176324 C7.62046445,17.8941383 7.00609052,17.5915823 6.51828883,17.1099553 C6.03048713,16.6283283 5.77424072,15.9738194 5.7495419,15.1464089 L5.7495419,15.1464089 Z M9.38025028,18.0176324 L9.38025028,13.3681028 C9.71368435,13.4668981 10.0285896,13.5749538 10.3249754,13.6922732 C10.6213613,13.8095926 10.8745204,13.954696 11.0844603,14.1275877 C11.2944003,14.3004794 11.4611148,14.507329 11.5846089,14.7481425 C11.708103,14.988956 11.7698492,15.2884247 11.7698492,15.6465575 C11.7698492,16.0417387 11.7111903,16.3844296 11.5938709,16.6746408 C11.4765516,16.9648519 11.309837,17.2056618 11.0937223,17.3970777 C10.8776077,17.5884935 10.6244486,17.7335969 10.3342374,17.8323922 C10.0440263,17.9311875 9.72603376,17.9929336 9.38025028,18.0176324 L9.38025028,18.0176324 Z M8.36142905,7.12550726 L8.36142905,11.4601285 C8.0526938,11.3736826 7.76866163,11.2748888 7.50932402,11.1637441 C7.24998641,11.0525994 7.02461306,10.9198453 6.83319721,10.7654777 C6.64178135,10.61111 6.49359066,10.419697 6.38862067,10.191233 C6.28365069,9.96276888 6.23116648,9.68799863 6.23116648,9.36691397 C6.23116648,8.6629976 6.43801599,8.12889363 6.85172123,7.76458603 C7.26542646,7.40027844 7.76865737,7.18725431 8.36142905,7.12550726 L8.36142905,7.12550726 Z" id="$" fill="url(#linearGradient-6)" opacity="0.138118004" mask="url(#mask-2)"></path>
        </g>
    </g>
</svg>