<?xml version="1.0" encoding="UTF-8" standalone="no"?>
<svg width="100px" height="68px" viewBox="0 0 100 68" version="1.1" xmlns="http://www.w3.org/2000/svg" xmlns:xlink="http://www.w3.org/1999/xlink">
    <!-- Generator: Sketch 3.8.1 (29687) - http://www.bohemiancoding.com/sketch -->
    <title>countdown</title>
    <desc>Created with Sketch.</desc>
    <defs>
        <rect id="path-1" x="0" y="0" width="100" height="68"></rect>
        <linearGradient x1="0%" y1="0%" x2="106.265625%" y2="109.895844%" id="linearGradient-3">
            <stop stop-color="#C8EAF4" stop-opacity="0.208021966" offset="0%"></stop>
            <stop stop-color="#3DD0FF" offset="100%"></stop>
        </linearGradient>
        <rect id="path-4" x="11" y="12" width="35" height="43.5392481" rx="6"></rect>
        <mask id="mask-5" maskContentUnits="userSpaceOnUse" maskUnits="objectBoundingBox" x="0" y="0" width="35" height="43.5392481" fill="white">
            <use xlink:href="#path-4"></use>
        </mask>
        <rect id="path-6" x="50" y="12" width="35" height="43.5392481" rx="6"></rect>
        <mask id="mask-7" maskContentUnits="userSpaceOnUse" maskUnits="objectBoundingBox" x="0" y="0" width="35" height="43.5392481" fill="white">
            <use xlink:href="#path-6"></use>
        </mask>
        <rect id="path-8" x="89" y="12" width="35" height="43.5392481" rx="6"></rect>
        <mask id="mask-9" maskContentUnits="userSpaceOnUse" maskUnits="objectBoundingBox" x="0" y="0" width="35" height="43.5392481" fill="white">
            <use xlink:href="#path-8"></use>
        </mask>
    </defs>
    <g id="Elements" stroke="none" stroke-width="1" fill="none" fill-rule="evenodd">
        <g id="countdown">
            <mask id="mask-2" fill="white">
                <use xlink:href="#path-1"></use>
            </mask>
            <use id="BG" fill="#FFFFFF" xlink:href="#path-1"></use>
            <g id="Rectangle-486-Copy-5" mask="url(#mask-2)" stroke="#00A0D2" stroke-width="2" fill="url(#linearGradient-3)" fill-opacity="0.15">
                <use mask="url(#mask-5)" xlink:href="#path-4"></use>
            </g>
            <g id="Rectangle-486-Copy-5" mask="url(#mask-2)" stroke="#00A0D2" stroke-width="2" fill="url(#linearGradient-3)" fill-opacity="0.15">
                <use mask="url(#mask-7)" xlink:href="#path-6"></use>
            </g>
            <g id="Rectangle-486-Copy-5" mask="url(#mask-2)" stroke="#00A0D2" stroke-width="2" fill="url(#linearGradient-3)" fill-opacity="0.15">
                <use mask="url(#mask-9)" xlink:href="#path-8"></use>
            </g>
            <path d="M23.5,37 L23.5,22.82 L22.2,22.82 C22.1066662,23.353336 21.9333346,23.7933316 21.68,24.14 C21.4266654,24.4866684 21.1166685,24.759999 20.75,24.96 C20.3833315,25.160001 19.9733356,25.2966663 19.52,25.37 C19.0666644,25.4433337 18.6000024,25.48 18.12,25.48 L18.12,26.84 L21.8,26.84 L21.8,37 L23.5,37 Z M30.14,30.02 C30.14,29.6733316 30.1433333,29.2900021 30.15,28.87 C30.1566667,28.4499979 30.1899997,28.0300021 30.25,27.61 C30.3100003,27.1899979 30.3966661,26.780002 30.51,26.38 C30.6233339,25.979998 30.7899989,25.6300015 31.01,25.33 C31.2300011,25.0299985 31.506665,24.7866676 31.84,24.6 C32.173335,24.4133324 32.5799976,24.32 33.06,24.32 C33.5400024,24.32 33.946665,24.4133324 34.28,24.6 C34.613335,24.7866676 34.8899989,25.0299985 35.11,25.33 C35.3300011,25.6300015 35.4966661,25.979998 35.61,26.38 C35.7233339,26.780002 35.8099997,27.1899979 35.87,27.61 C35.9300003,28.0300021 35.9633333,28.4499979 35.97,28.87 C35.9766667,29.2900021 35.98,29.6733316 35.98,30.02 C35.98,30.553336 35.9633335,31.1499967 35.93,31.81 C35.8966665,32.4700033 35.7900009,33.0899971 35.61,33.67 C35.4299991,34.2500029 35.140002,34.739998 34.74,35.14 C34.339998,35.540002 33.7800036,35.74 33.06,35.74 C32.3399964,35.74 31.780002,35.540002 31.38,35.14 C30.979998,34.739998 30.6900009,34.2500029 30.51,33.67 C30.3299991,33.0899971 30.2233335,32.4700033 30.19,31.81 C30.1566665,31.1499967 30.14,30.553336 30.14,30.02 L30.14,30.02 Z M28.34,30.04 C28.34,30.5600026 28.3533332,31.0999972 28.38,31.66 C28.4066668,32.2200028 28.4733328,32.766664 28.58,33.3 C28.6866672,33.833336 28.839999,34.3366643 29.04,34.81 C29.240001,35.2833357 29.5133316,35.6999982 29.86,36.06 C30.2066684,36.4200018 30.6433307,36.7033323 31.17,36.91 C31.6966693,37.1166677 32.326663,37.22 33.06,37.22 C33.8066704,37.22 34.4399974,37.1166677 34.96,36.91 C35.4800026,36.7033323 35.9133316,36.4200018 36.26,36.06 C36.6066684,35.6999982 36.879999,35.2833357 37.08,34.81 C37.280001,34.3366643 37.4333328,33.833336 37.54,33.3 C37.6466672,32.766664 37.7133332,32.2200028 37.74,31.66 C37.7666668,31.0999972 37.78,30.5600026 37.78,30.04 C37.78,29.5199974 37.7666668,28.9800028 37.74,28.42 C37.7133332,27.8599972 37.6466672,27.313336 37.54,26.78 C37.4333328,26.246664 37.280001,25.7400024 37.08,25.26 C36.879999,24.7799976 36.6066684,24.3600018 36.26,24 C35.9133316,23.6399982 35.4766693,23.3533344 34.95,23.14 C34.4233307,22.9266656 33.793337,22.82 33.06,22.82 C32.326663,22.82 31.6966693,22.9266656 31.17,23.14 C30.6433307,23.3533344 30.2066684,23.6399982 29.86,24 C29.5133316,24.3600018 29.240001,24.7799976 29.04,25.26 C28.839999,25.7400024 28.6866672,26.246664 28.58,26.78 C28.4733328,27.313336 28.4066668,27.8599972 28.38,28.42 C28.3533332,28.9800028 28.34,29.5199974 28.34,30.04 L28.34,30.04 Z M19.443,45.1999998 L19.443,41.3219998 L20.563,41.3219998 C20.8710015,41.3219998 21.129999,41.365166 21.34,41.4514998 C21.5500011,41.5378335 21.7214993,41.6638323 21.8545,41.8294998 C21.9875007,41.9951672 22.0831664,42.1958319 22.1415,42.4314998 C22.1998336,42.6671676 22.229,42.9343316 22.229,43.2329998 C22.229,43.5410013 22.1975003,43.8034987 22.1345,44.0204998 C22.0714997,44.2375008 21.9910005,44.4183324 21.893,44.5629998 C21.7949995,44.7076671 21.6841673,44.8219993 21.5605,44.9059998 C21.4368327,44.9900002 21.3120006,45.0541662 21.186,45.0984998 C21.0599994,45.1428333 20.9410006,45.170833 20.829,45.1824998 C20.7169994,45.1941665 20.623667,45.1999998 20.549,45.1999998 L19.443,45.1999998 Z M18.778,40.7619998 L18.778,45.7599998 L20.493,45.7599998 C20.9083354,45.7599998 21.2676652,45.701667 21.571,45.5849998 C21.8743349,45.4683325 22.123999,45.2991675 22.32,45.0774998 C22.516001,44.855832 22.6606662,44.5828347 22.754,44.2584998 C22.8473338,43.9341648 22.894,43.5620019 22.894,43.1419998 C22.894,42.3393291 22.6863354,41.7420017 22.271,41.3499998 C21.8556646,40.9579978 21.2630039,40.7619998 20.493,40.7619998 L18.778,40.7619998 Z M24.567,43.6949998 L25.414,41.3639998 L25.428,41.3639998 L26.261,43.6949998 L24.567,43.6949998 Z M25.064,40.7619998 L23.118,45.7599998 L23.797,45.7599998 L24.357,44.2549998 L26.471,44.2549998 L27.017,45.7599998 L27.752,45.7599998 L25.799,40.7619998 L25.064,40.7619998 Z M30.307,43.7159998 L32.218,40.7619998 L31.462,40.7619998 L29.999,43.1419998 L28.501,40.7619998 L27.71,40.7619998 L29.642,43.7159998 L29.642,45.7599998 L30.307,45.7599998 L30.307,43.7159998 Z M35.669,42.2249998 L36.299,42.2249998 C36.2896666,41.949665 36.2371671,41.7128341 36.1415,41.5144998 C36.0458329,41.3161654 35.9151675,41.1516671 35.7495,41.0209998 C35.5838325,40.8903324 35.3913344,40.7946667 35.172,40.7339998 C34.9526656,40.6733328 34.714668,40.6429998 34.458,40.6429998 C34.2293322,40.6429998 34.0065011,40.6721661 33.7895,40.7304998 C33.5724989,40.7888334 33.3788342,40.8774992 33.2085,40.9964998 C33.0381658,41.1155003 32.9016672,41.2671655 32.799,41.4514998 C32.6963328,41.635834 32.645,41.8539985 32.645,42.1059998 C32.645,42.3346676 32.6904995,42.5248323 32.7815,42.6764998 C32.8725005,42.8281672 32.9938326,42.9518326 33.1455,43.0474998 C33.2971674,43.1431669 33.4686657,43.2201661 33.66,43.2784998 C33.8513343,43.3368334 34.0461657,43.3881662 34.2445,43.4324998 C34.4428343,43.4768333 34.6376657,43.5199995 34.829,43.5619998 C35.0203343,43.604 35.1918326,43.6588327 35.3435,43.7264998 C35.4951674,43.7941668 35.6164995,43.8816659 35.7075,43.9889998 C35.7985005,44.0963336 35.844,44.2363322 35.844,44.4089998 C35.844,44.5910007 35.806667,44.7403325 35.732,44.8569998 C35.657333,44.973667 35.5593339,45.0658327 35.438,45.1334998 C35.3166661,45.2011668 35.1801674,45.2489996 35.0285,45.2769998 C34.8768326,45.3049999 34.7263341,45.3189998 34.577,45.3189998 C34.3903324,45.3189998 34.2083342,45.2956667 34.031,45.2489998 C33.8536658,45.2023329 33.6985007,45.1300002 33.5655,45.0319998 C33.4324993,44.9339993 33.3251671,44.8091672 33.2435,44.6574998 C33.1618329,44.5058323 33.121,44.3250008 33.121,44.1149998 L32.491,44.1149998 C32.491,44.4183346 32.5458328,44.680832 32.6555,44.9024998 C32.7651672,45.1241675 32.9144991,45.3061657 33.1035,45.4484998 C33.2925009,45.5908338 33.5118321,45.6969994 33.7615,45.7669998 C34.0111679,45.8370001 34.2759986,45.8719998 34.556,45.8719998 C34.7846678,45.8719998 35.0144988,45.8451667 35.2455,45.7914998 C35.4765012,45.7378328 35.6853324,45.6515003 35.872,45.5324998 C36.0586676,45.4134992 36.2114994,45.2595007 36.3305,45.0704998 C36.4495006,44.8814988 36.509,44.6540011 36.509,44.3879998 C36.509,44.1406652 36.4635005,43.9353339 36.3725,43.7719998 C36.2814995,43.6086656 36.1601674,43.4733336 36.0085,43.3659998 C35.8568326,43.2586659 35.6853343,43.1735001 35.494,43.1104998 C35.3026657,43.0474994 35.1078343,42.9926667 34.9095,42.9459998 C34.7111657,42.8993329 34.5163343,42.8561666 34.325,42.8164998 C34.1336657,42.7768329 33.9621674,42.7266667 33.8105,42.6659998 C33.6588326,42.6053328 33.5375005,42.5271669 33.4465,42.4314998 C33.3554995,42.3358326 33.31,42.2110005 33.31,42.0569998 C33.31,41.8936656 33.3414997,41.757167 33.4045,41.6474998 C33.4675003,41.5378325 33.5514995,41.4503334 33.6565,41.3849998 C33.7615005,41.3196661 33.881666,41.2729999 34.017,41.2449998 C34.152334,41.2169996 34.2899993,41.2029998 34.43,41.2029998 C34.7753351,41.2029998 35.0588322,41.2834989 35.2805,41.4444998 C35.5021678,41.6055006 35.6316665,41.8656646 35.669,42.2249998 L35.669,42.2249998 Z" id="10" fill="#00A0D2" mask="url(#mask-2)"></path>
            <path d="M62.5,37 L62.5,22.82 L61.2,22.82 C61.1066662,23.353336 60.9333346,23.7933316 60.68,24.14 C60.4266654,24.4866684 60.1166685,24.759999 59.75,24.96 C59.3833315,25.160001 58.9733356,25.2966663 58.52,25.37 C58.0666644,25.4433337 57.6000024,25.48 57.12,25.48 L57.12,26.84 L60.8,26.84 L60.8,37 L62.5,37 Z M69.18,33.58 L67.48,33.58 C67.5866672,34.8066728 68.0333294,35.719997 68.82,36.32 C69.6066706,36.920003 70.5933274,37.22 71.78,37.22 C73.5000086,37.22 74.7499961,36.5633399 75.53,35.25 C76.3100039,33.9366601 76.7,32.0533456 76.7,29.6 C76.7,28.2533266 76.5700013,27.1433377 76.31,26.27 C76.0499987,25.3966623 75.7000022,24.7066692 75.26,24.2 C74.8199978,23.6933308 74.3066696,23.3366677 73.72,23.13 C73.1333304,22.9233323 72.50667,22.82 71.84,22.82 C71.1599966,22.82 70.5333362,22.9333322 69.96,23.16 C69.3866638,23.3866678 68.8933354,23.7033313 68.48,24.11 C68.0666646,24.5166687 67.7466678,25.0033305 67.52,25.57 C67.2933322,26.1366695 67.18,26.7599966 67.18,27.44 C67.18,28.1333368 67.2766657,28.7733304 67.47,29.36 C67.6633343,29.9466696 67.9499981,30.4466646 68.33,30.86 C68.7100019,31.2733354 69.1799972,31.5966655 69.74,31.83 C70.3000028,32.0633345 70.9399964,32.18 71.66,32.18 C72.3533368,32.18 72.9933304,32.0033351 73.58,31.65 C74.1666696,31.2966649 74.6199984,30.820003 74.94,30.22 L74.98,30.26 C74.9266664,32.1133426 74.6400026,33.4899955 74.12,34.39 C73.5999974,35.2900045 72.8200052,35.74 71.78,35.74 C71.0999966,35.74 70.5133358,35.5533352 70.02,35.18 C69.5266642,34.8066648 69.246667,34.2733368 69.18,33.58 L69.18,33.58 Z M74.68,27.56 C74.68,27.9733354 74.613334,28.3699981 74.48,28.75 C74.346666,29.1300019 74.1533346,29.4633319 73.9,29.75 C73.6466654,30.0366681 73.3400018,30.2633325 72.98,30.43 C72.6199982,30.5966675 72.2200022,30.68 71.78,30.68 C71.3666646,30.68 70.9900017,30.5966675 70.65,30.43 C70.3099983,30.2633325 70.0166679,30.0400014 69.77,29.76 C69.5233321,29.4799986 69.3300007,29.1600018 69.19,28.8 C69.0499993,28.4399982 68.98,28.0666686 68.98,27.68 C68.98,27.2399978 69.0299995,26.820002 69.13,26.42 C69.2300005,26.019998 69.3899989,25.6633349 69.61,25.35 C69.8300011,25.0366651 70.1166649,24.7866676 70.47,24.6 C70.8233351,24.4133324 71.2533308,24.32 71.76,24.32 C72.2400024,24.32 72.6599982,24.4066658 73.02,24.58 C73.3800018,24.7533342 73.6833321,24.9899985 73.93,25.29 C74.1766679,25.5900015 74.3633327,25.9333314 74.49,26.32 C74.6166673,26.7066686 74.68,27.1199978 74.68,27.56 L74.68,27.56 Z M60.578,40.7619998 L60.578,45.7599998 L61.208,45.7599998 L61.208,41.6019998 L61.222,41.6019998 L62.783,45.7599998 L63.35,45.7599998 L64.911,41.6019998 L64.925,41.6019998 L64.925,45.7599998 L65.555,45.7599998 L65.555,40.7619998 L64.645,40.7619998 L63.063,44.9619998 L61.488,40.7619998 L60.578,40.7619998 Z M66.689,40.7619998 L66.689,45.7599998 L67.354,45.7599998 L67.354,40.7619998 L66.689,40.7619998 Z M68.467,40.7619998 L68.467,45.7599998 L69.097,45.7599998 L69.097,41.7489998 L69.111,41.7489998 L71.722,45.7599998 L72.45,45.7599998 L72.45,40.7619998 L71.82,40.7619998 L71.82,44.8149998 L71.806,44.8149998 L69.174,40.7619998 L68.467,40.7619998 Z" id="19" fill="#00A0D2" mask="url(#mask-2)"></path>
        </g>
    </g>
</svg>