<?xml version="1.0" encoding="UTF-8" standalone="no"?>
<svg width="100px" height="68px" viewBox="0 0 100 68" version="1.1" xmlns="http://www.w3.org/2000/svg" xmlns:xlink="http://www.w3.org/1999/xlink">
    <!-- Generator: Sketch 3.8.1 (29687) - http://www.bohemiancoding.com/sketch -->
    <title>gap</title>
    <desc>Created with Sketch.</desc>
    <defs>
        <rect id="path-1" x="0" y="0" width="100" height="68"></rect>
    </defs>
    <g id="Elements" stroke="none" stroke-width="1" fill="none" fill-rule="evenodd">
        <g id="gap">
            <mask id="mask-2" fill="white">
                <use xlink:href="#path-1"></use>
            </mask>
            <use id="bg" fill="#FFFFFF" xlink:href="#path-1"></use>
            <path d="M65.6447817,44.5237584 C65.6447817,44.7557177 65.5347129,44.9611817 65.3145752,45.1401502 L49.9645836,57.6194606 C49.7444459,57.7984292 49.491718,57.8879135 49.2063999,57.8879135 C48.9210818,57.8879135 48.6683539,57.7984292 48.4482162,57.6194606 L33.0982246,45.1401502 C32.8780869,44.9611817 32.768018,44.7557177 32.768018,44.5237584 C32.768018,44.2917991 32.8780869,44.0863352 33.0982246,43.9073666 L34.7455677,42.5681015 C34.9657054,42.3891329 35.2184333,42.2996486 35.5037514,42.2996486 C35.7890695,42.2996486 36.0417974,42.3891329 36.2619351,42.5681015 L49.2082446,53.0932548 L62.1545541,42.5681015 C62.3746918,42.3891329 62.6274197,42.2996486 62.9127378,42.2996486 C63.1980559,42.2996486 63.4507838,42.3891329 63.6709215,42.5681015 L65.3182647,43.9073666 C65.5384023,44.0863352 65.6484712,44.2917991 65.6484712,44.5237584 L65.6447817,44.5237584 Z" id="Shape" fill="#00A0D2" mask="url(#mask-2)"></path>
            <path d="M32.7478983,22.9522112 L48.0978899,10.4729008 C48.3180276,10.2939322 48.5707555,10.2044479 48.8560736,10.2044479 C49.1413917,10.2044479 49.3941196,10.2939322 49.6142573,10.4729008 L64.964249,22.9522112 C65.1843866,23.1311798 65.2944555,23.3366437 65.2944555,23.568603 C65.2944555,23.8005623 65.1843866,24.0060263 64.964249,24.1849948 L63.3169058,25.5242599 C63.0967681,25.7032285 62.8440402,25.7927128 62.5587221,25.7927128 C62.273404,25.7927128 62.0206761,25.7032285 61.8005384,25.5242599 L48.8542289,14.9991066 L35.9079194,25.5242599 C35.6877817,25.7032285 35.4350538,25.7927128 35.1497357,25.7927128 C34.8644176,25.7927128 34.6116897,25.7032285 34.391552,25.5242599 L32.7442088,24.1849948 C32.5240712,24.0060263 32.4140023,23.8005623 32.4140023,23.568603 C32.4176918,23.3366437 32.5277606,23.1311798 32.7478983,22.9522112" id="Shape" fill="#00A0D2" mask="url(#mask-2)"></path>
            <polygon id="Line" fill-opacity="0.532382246" fill="#00A0D2" opacity="0.333430504" mask="url(#mask-2)" points="0.205882353 32 -3 32 -3 36 0.205882353 36 102.794118 36 106 36 106 32 102.794118 32"></polygon>
        </g>
    </g>
</svg>