<?xml version="1.0" encoding="UTF-8" standalone="no"?>
<svg width="100px" height="68px" viewBox="0 0 100 68" version="1.1" xmlns="http://www.w3.org/2000/svg" xmlns:xlink="http://www.w3.org/1999/xlink">
    <!-- Generator: Sketch 3.8.1 (29687) - http://www.bohemiancoding.com/sketch -->
    <title>instagram_feed</title>
    <desc>Created with Sketch.</desc>
    <defs>
        <rect id="path-1" x="0" y="0" width="100" height="68"></rect>
        <linearGradient x1="0%" y1="0%" x2="106.265625%" y2="109.895844%" id="linearGradient-3">
            <stop stop-color="#C8EAF4" stop-opacity="0.208021966" offset="0%"></stop>
            <stop stop-color="#3DD0FF" offset="100%"></stop>
        </linearGradient>
        <rect id="path-4" x="15" y="12" width="72" height="43.5392481"></rect>
        <mask id="mask-5" maskContentUnits="userSpaceOnUse" maskUnits="objectBoundingBox" x="0" y="0" width="72" height="43.5392481" fill="white">
            <use xlink:href="#path-4"></use>
        </mask>
        <mask id="mask-7" maskContentUnits="userSpaceOnUse" maskUnits="objectBoundingBox" x="0" y="0" width="72" height="43.5392481" fill="white">
            <use xlink:href="#path-4"></use>
        </mask>
    </defs>
    <g id="Elements" stroke="none" stroke-width="1" fill="none" fill-rule="evenodd">
        <g id="instagram_feed">
            <mask id="mask-2" fill="white">
                <use xlink:href="#path-1"></use>
            </mask>
            <use id="BG" fill="#FFFFFF" xlink:href="#path-1"></use>
            <mask id="mask-6" fill="white">
                <use xlink:href="#path-4"></use>
            </mask>
            <g id="Rectangle-486-Copy" stroke="#00A0D2" mask="url(#mask-5)" stroke-width="2" fill-opacity="0.15" fill="url(#linearGradient-3)">
                <use mask="url(#mask-7)" xlink:href="#path-4"></use>
            </g>
            <path d="M60.8493485,20 L44.1506515,20 C41.8679104,20 40,21.8679104 40,24.1506515 L40,40.8493485 C40,43.1320896 41.8679104,45 44.1506515,45 L60.8493485,45 C63.1320896,45 65,43.1320896 65,40.8493485 L65,24.1506515 C65,21.8679104 63.1320896,20 60.8493485,20 L60.8493485,20 Z M48.0028749,30.9371582 L56.9963439,30.9371582 C57.166651,31.4269867 57.2596169,31.9527515 57.2596169,32.4996094 C57.2596169,35.1245274 55.1237461,37.2603981 52.4988282,37.2603981 C49.8739102,37.2603981 47.7380394,35.1245274 47.7380394,32.4996094 C47.7380394,31.9527515 47.8310053,31.4269867 48.0020937,30.9371582 L48.0028749,30.9371582 Z M61.8743164,30.9387207 L61.8743164,40.3118653 C61.8743164,41.1712134 61.1712134,41.8743164 60.3118653,41.8743164 L44.6873535,41.8743164 C43.8280054,41.8743164 43.1249023,41.1712134 43.1249023,40.3118653 L43.1249023,30.9371582 L45.568576,30.9371582 C45.4552983,31.4402675 45.3951439,31.9629074 45.3951439,32.4996094 C45.3951439,36.4166745 48.5817631,39.6040749 52.4996094,39.6040749 C56.4174557,39.6040749 59.6040749,36.4174557 59.6040749,32.4996094 C59.6040749,31.9629074 59.5439205,31.4402675 59.4306428,30.9371582 L61.8743164,30.9387207 L61.8743164,30.9387207 Z M61.8743164,25.4685791 C61.8743164,25.8982532 61.5227649,26.2498047 61.0930908,26.2498047 L59.5306397,26.2498047 C59.1009656,26.2498047 58.7494141,25.8982532 58.7494141,25.4685791 L58.7494141,23.9061279 C58.7494141,23.4764539 59.1009656,23.1249023 59.5306397,23.1249023 L61.0930908,23.1249023 C61.5227649,23.1249023 61.8743164,23.4764539 61.8743164,23.9061279 L61.8743164,25.4685791 L61.8743164,25.4685791 Z" id="Shape" fill="#00A0D2" mask="url(#mask-6)"></path>
            <path d="M70.1818164,39.0739005 C70.1818164,39.0739005 73.5048066,35.8328878 74.2286074,31.4742191 C76.1765672,31.4742191 77.3797188,26.8404059 75.431759,25.2104119 C75.5138789,23.4950281 77.9354603,11.7397158 65.6690429,11.7397158 C53.4026255,11.7397158 55.8242069,23.4950281 55.9063268,25.2104119 C53.958367,26.8404059 55.1615186,31.4742191 57.1094784,31.4742191 C57.8332792,35.8328878 61.1581792,39.0739005 61.1581792,39.0739005 C61.1581792,39.0739005 61.1314425,42.1384411 60.0008619,42.3149131 C56.3570312,42.8860752 42.7518689,48.7969385 42.7518689,55.2789638 L88.5862169,55.2789638 C88.5862169,48.7969385 74.9810546,42.8860752 71.3391337,42.3149131 C70.2085531,42.1384411 70.1818164,39.0739005 70.1818164,39.0739005 Z" id="Shape-Copy-6" fill="#00A0D2" opacity="0.141965951" mask="url(#mask-6)"></path>
        </g>
    </g>
</svg>