<?xml version="1.0" encoding="UTF-8" standalone="no"?>
<svg width="100px" height="68px" viewBox="0 0 100 68" version="1.1" xmlns="http://www.w3.org/2000/svg" xmlns:xlink="http://www.w3.org/1999/xlink">
    <!-- Generator: Sketch 3.8.1 (29687) - http://www.bohemiancoding.com/sketch -->
    <title>logo</title>
    <desc>Created with Sketch.</desc>
    <defs>
        <rect id="path-1" x="0" y="0" width="100" height="68"></rect>
        <linearGradient x1="0%" y1="0%" x2="106.265625%" y2="109.895844%" id="linearGradient-3">
            <stop stop-color="#C8EAF4" stop-opacity="0.208021966" offset="0%"></stop>
            <stop stop-color="#3DD0FF" offset="100%"></stop>
        </linearGradient>
        <rect id="path-4" x="0" y="0.525113558" width="29.8925781" height="29.8925781" rx="14.9462891"></rect>
        <mask id="mask-5" maskContentUnits="userSpaceOnUse" maskUnits="objectBoundingBox" x="0" y="0" width="29.8925781" height="29.8925781" fill="white">
            <use xlink:href="#path-4"></use>
        </mask>
        <mask id="mask-7" maskContentUnits="userSpaceOnUse" maskUnits="objectBoundingBox" x="0" y="0" width="29.8925781" height="29.8925781" fill="white">
            <use xlink:href="#path-4"></use>
        </mask>
    </defs>
    <g id="Elements" stroke="none" stroke-width="1" fill="none" fill-rule="evenodd">
        <g id="logo">
            <mask id="mask-2" fill="white">
                <use xlink:href="#path-1"></use>
            </mask>
            <use id="BG" fill="#FFFFFF" xlink:href="#path-1"></use>
            <path d="M47.6090663,34.305308 L49.7187137,28.4994188 L49.7535839,28.4994188 L51.8283611,34.305308 L47.6090663,34.305308 Z M48.8469585,27 L44,39.4486633 L45.691205,39.4486633 L47.0860132,35.7001162 L52.3514142,35.7001162 L53.7113522,39.4486633 L55.542038,39.4486633 L50.6776443,27 L48.8469585,27 Z M62.6381248,33.3289423 L64.1724138,33.3289423 C64.1142965,32.7942631 63.9748171,32.3322375 63.7539713,31.9428516 C63.5331256,31.5534657 63.2512609,31.2309195 62.9083688,30.9752034 C62.5654768,30.7194873 62.1702851,30.5306089 61.7227819,30.4085626 C61.2752787,30.2865162 60.7958181,30.225494 60.2843859,30.225494 C59.5753548,30.225494 58.9535091,30.3504443 58.4188299,30.6003487 C57.8841508,30.8502531 57.4395601,31.19314 57.0850446,31.6290198 C56.730529,32.0648995 56.4660993,32.5763241 56.2917474,33.1633088 C56.1173955,33.7502935 56.0302208,34.3808568 56.0302208,35.0550174 C56.0302208,35.7291781 56.1203013,36.3481181 56.3004649,36.9118559 C56.4806286,37.4755937 56.7479641,37.9608658 57.1024797,38.3676869 C57.4569952,38.774508 57.89868,39.0883367 58.4275475,39.3091825 C58.9564149,39.5300282 59.5637316,39.6404494 60.2495157,39.6404494 C61.4002382,39.6404494 62.3097603,39.338244 62.9781093,38.7338241 C63.6464582,38.1294042 64.0619907,37.2692811 64.2247191,36.1534289 L62.7078652,36.1534289 C62.6148775,36.8508365 62.362071,37.3913193 61.9494382,37.7748935 C61.5368054,38.1584676 60.9643586,38.3502518 60.2320806,38.3502518 C59.7671422,38.3502518 59.3661388,38.2572656 59.0290585,38.0712902 C58.6919782,37.8853148 58.418831,37.63832 58.2096087,37.3302983 C58.0003864,37.0222766 57.8463779,36.6706723 57.7475785,36.2754746 C57.648779,35.880277 57.5993801,35.473462 57.5993801,35.0550174 C57.5993801,34.6017025 57.6458732,34.1629235 57.7388609,33.7386672 C57.8318486,33.3144109 57.9858571,32.9395599 58.2008911,32.6141031 C58.4159251,32.2886462 58.7036015,32.0271223 59.0639287,31.8295234 C59.424256,31.6319246 59.8717525,31.5331267 60.4064316,31.5331267 C61.0340985,31.5331267 61.5338997,31.690041 61.9058504,32.0038745 C62.2778012,32.3177079 62.5218902,32.7593927 62.6381248,33.3289423 L62.6381248,33.3289423 Z M65.8810539,30.4347152 L65.8810539,39.4486633 L67.3630376,39.4486633 L67.3630376,33.8345602 C67.3630376,33.6602083 67.4066249,33.4422717 67.4938009,33.1807439 C67.5809768,32.919216 67.7204562,32.6664096 67.9122433,32.4223169 C68.1040304,32.1782243 68.353931,31.9690051 68.6619527,31.7946532 C68.9699744,31.6203013 69.3390137,31.5331267 69.7690818,31.5331267 C70.1061621,31.5331267 70.3822151,31.5825257 70.5972491,31.6813251 C70.8122831,31.7801245 70.9837266,31.9196039 71.1115847,32.0997675 C71.2394427,32.2799312 71.3295232,32.4920561 71.3818287,32.7361488 C71.4341343,32.9802414 71.4602867,33.247577 71.4602867,33.5381635 L71.4602867,39.4486633 L72.9422704,39.4486633 L72.9422704,33.8345602 C72.9422704,33.1371527 73.1514896,32.5792349 73.5699341,32.1607904 C73.9883787,31.7423458 74.5637313,31.5331267 75.2960093,31.5331267 C75.6563366,31.5331267 75.9498245,31.5854315 76.176482,31.6900426 C76.4031395,31.7946538 76.5803946,31.937039 76.7082526,32.1172026 C76.8361107,32.2973663 76.9232853,32.5094912 76.9697792,32.7535839 C77.016273,32.9976765 77.0395196,33.2592005 77.0395196,33.5381635 L77.0395196,39.4486633 L78.5215033,39.4486633 L78.5215033,32.8407594 C78.5215033,32.375821 78.4488578,31.9777235 78.3035645,31.6464549 C78.1582713,31.3151863 77.9548638,31.0449449 77.6933359,30.8357226 C77.4318081,30.6265003 77.1179794,30.4724918 76.7518404,30.3736924 C76.3857014,30.274893 75.9759806,30.225494 75.5226656,30.225494 C74.9298692,30.225494 74.3864806,30.3591618 73.8924835,30.6265014 C73.3984865,30.8938409 73.000389,31.2715977 72.698179,31.759783 C72.5122036,31.201857 72.1925633,30.8066652 71.7392484,30.574196 C71.2859334,30.3417269 70.7803205,30.225494 70.2223944,30.225494 C68.9554373,30.225494 67.9848929,30.7369186 67.3107323,31.759783 L67.2758621,31.759783 L67.2758621,30.4347152 L65.8810539,30.4347152 Z M87.0123983,34.0786517 L81.8341728,34.0786517 C81.8574197,33.7299479 81.9329711,33.4015901 82.0608291,33.0935684 C82.1886872,32.7855467 82.3630365,32.5153053 82.5838822,32.2828361 C82.804728,32.0503669 83.0691577,31.8673002 83.3771794,31.7336304 C83.6852011,31.5999606 84.0309938,31.5331267 84.414568,31.5331267 C84.7865187,31.5331267 85.1264998,31.5999606 85.4345215,31.7336304 C85.7425432,31.8673002 86.0098788,32.0474611 86.2365362,32.2741186 C86.4631937,32.500776 86.6433546,32.7710174 86.7770244,33.0848508 C86.9106942,33.3986843 86.9891514,33.7299479 87.0123983,34.0786517 L87.0123983,34.0786517 Z M88.4420767,36.5893065 L86.9775281,36.5893065 C86.84967,37.1821029 86.5852403,37.6237878 86.1842309,37.9143743 C85.7832216,38.2049608 85.2688912,38.3502518 84.6412243,38.3502518 C84.153039,38.3502518 83.7287891,38.2688888 83.3684618,38.1061604 C83.0081346,37.943432 82.7117408,37.7254954 82.4792716,37.4523441 C82.2468024,37.1791927 82.0782648,36.865364 81.9736536,36.5108485 C81.8690425,36.156333 81.8225493,35.781482 81.8341728,35.3862844 L88.5815575,35.3862844 C88.6048045,34.8399818 88.5554055,34.2646291 88.4333592,33.6602092 C88.3113128,33.0557893 88.0904704,32.4978716 87.7708253,31.9864394 C87.4511801,31.4750071 87.0269302,31.053663 86.4980628,30.7223944 C85.9691953,30.3911258 85.3037622,30.225494 84.5017435,30.225494 C83.8857001,30.225494 83.319065,30.3417269 82.801821,30.574196 C82.284577,30.8066652 81.8370805,31.1321172 81.4593181,31.5505618 C81.0815556,31.9690064 80.7880677,32.462996 80.5788454,33.0325455 C80.3696231,33.6020951 80.2650136,34.2297525 80.2650136,34.9155366 C80.2882605,35.6013207 80.3899642,36.2347898 80.5701279,36.8159628 C80.7502915,37.3971358 81.0205329,37.8969371 81.3808601,38.3153816 C81.7411874,38.7338262 82.1857781,39.0592782 82.7146455,39.2917474 C83.2435129,39.5242166 83.8682645,39.6404494 84.588919,39.6404494 C85.6117835,39.6404494 86.4602833,39.3847372 87.134444,38.8733049 C87.8086047,38.3618727 88.2444779,37.6005475 88.4420767,36.5893065 L88.4420767,36.5893065 Z" id="Acme" fill="#00A0D2" mask="url(#mask-2)"></path>
            <g id="headline" mask="url(#mask-2)">
                <g transform="translate(12.000000, 19.000000)">
                    <mask id="mask-6" fill="white">
                        <use xlink:href="#path-4"></use>
                    </mask>
                    <g id="Rectangle-494" stroke="#00A0D2" mask="url(#mask-5)" stroke-width="2" fill-opacity="0.15" fill="url(#linearGradient-3)" fill-rule="evenodd">
                        <use mask="url(#mask-7)" xlink:href="#path-4"></use>
                    </g>
                    <path d="M16.624168,20.7989013 C16.624168,20.7989013 18.4545256,19.0022055 18.8532069,16.5859232 C19.9261752,16.5859232 20.5888908,14.017111 19.5159226,13.1135034 C19.5611556,12.1625591 20.8950024,5.64585499 14.1384583,5.64585499 C7.38191429,5.64585499 8.71576107,12.1625591 8.76099404,13.1135034 C7.68802582,14.017111 8.35074149,16.5859232 9.42370971,16.5859232 C9.82239104,19.0022055 11.6538005,20.7989013 11.6538005,20.7989013 C11.6538005,20.7989013 11.6390735,22.4977677 11.0163312,22.5955972 C9.00924944,22.912228 1.51530273,26.1889888 1.51530273,29.7823804 L26.7616139,29.7823804 C26.7616139,26.1889888 19.2676672,22.912228 17.2616374,22.5955972 C16.6388951,22.4977677 16.624168,20.7989013 16.624168,20.7989013 Z" id="Oval-7" stroke="none" fill="#00A0D2" fill-rule="evenodd" mask="url(#mask-6)"></path>
                </g>
            </g>
        </g>
    </g>
</svg>