<?xml version="1.0" encoding="UTF-8" standalone="no"?>
<svg width="100px" height="68px" viewBox="0 0 100 68" version="1.1" xmlns="http://www.w3.org/2000/svg" xmlns:xlink="http://www.w3.org/1999/xlink">
    <!-- Generator: Sketch 3.8.1 (29687) - http://www.bohemiancoding.com/sketch -->
    <title>page_title</title>
    <desc>Created with Sketch.</desc>
    <defs>
        <rect id="path-1" x="0" y="0" width="100" height="68"></rect>
        <linearGradient x1="0%" y1="0%" x2="106.265625%" y2="109.895844%" id="linearGradient-3">
            <stop stop-color="#C8EAF4" stop-opacity="0.208021966" offset="0%"></stop>
            <stop stop-color="#3DD0FF" offset="100%"></stop>
        </linearGradient>
        <rect id="path-4" x="9" y="12" width="84" height="43.5392481"></rect>
        <mask id="mask-5" maskContentUnits="userSpaceOnUse" maskUnits="objectBoundingBox" x="0" y="0" width="84" height="43.5392481" fill="white">
            <use xlink:href="#path-4"></use>
        </mask>
        <mask id="mask-7" maskContentUnits="userSpaceOnUse" maskUnits="objectBoundingBox" x="0" y="0" width="84" height="43.5392481" fill="white">
            <use xlink:href="#path-4"></use>
        </mask>
        <linearGradient x1="0%" y1="0%" x2="106.265625%" y2="109.895844%" id="linearGradient-8">
            <stop stop-color="#00A0D2" offset="0%"></stop>
            <stop stop-color="#3DD0FF" offset="100%"></stop>
        </linearGradient>
    </defs>
    <g id="Elements" stroke="none" stroke-width="1" fill="none" fill-rule="evenodd">
        <g id="page_title">
            <mask id="mask-2" fill="white">
                <use xlink:href="#path-1"></use>
            </mask>
            <use id="BG" fill="#FFFFFF" xlink:href="#path-1"></use>
            <mask id="mask-6" fill="white">
                <use xlink:href="#path-4"></use>
            </mask>
            <g id="Rectangle-486-Copy" stroke="#00A0D2" mask="url(#mask-5)" stroke-width="2" fill-opacity="0.15" fill="url(#linearGradient-3)">
                <use mask="url(#mask-7)" xlink:href="#path-4"></use>
            </g>
            <path d="M71.4299475,39.3341847 C71.4299475,39.3341847 74.7529377,36.0931721 75.4767384,31.7345034 C77.4246982,31.7345034 78.6278499,27.1006902 76.6798901,25.4706961 C76.7620099,23.7553123 79.1835913,12 66.917174,12 C54.6507566,12 57.072338,23.7553123 57.1544579,25.4706961 C55.2064981,27.1006902 56.4096497,31.7345034 58.3576095,31.7345034 C59.0814102,36.0931721 62.4063102,39.3341847 62.4063102,39.3341847 C62.4063102,39.3341847 62.3795735,42.3987254 61.2489929,42.5751974 C57.6051623,43.1463595 44,49.0572227 44,55.5392481 L89.8343479,55.5392481 C89.8343479,49.0572227 76.2291857,43.1463595 72.5872648,42.5751974 C71.4566842,42.3987254 71.4299475,39.3341847 71.4299475,39.3341847 Z" id="Shape-Copy-6" fill-opacity="0.5" fill="url(#linearGradient-8)" opacity="0.282532649" mask="url(#mask-6)"></path>
            <path d="M34.844904,27.7548006 L34.844904,35.4918759 L36.9320532,35.4918759 L36.9320532,27.7548006 L39.7769572,27.7548006 L39.7769572,26 L32,26 L32,27.7548006 L34.844904,27.7548006 Z M40.8670606,26 L40.8670606,35.4918759 L42.9542097,35.4918759 L42.9542097,26 L40.8670606,26 Z M46.8892171,27.7548006 L46.8892171,35.4918759 L48.9763663,35.4918759 L48.9763663,27.7548006 L51.8212703,27.7548006 L51.8212703,26 L44.0443131,26 L44.0443131,27.7548006 L46.8892171,27.7548006 Z M52.9113737,26 L52.9113737,35.4918759 L59.6248154,35.4918759 L59.6248154,33.7370753 L54.9985229,33.7370753 L54.9985229,26 L52.9113737,26 Z M60.7946824,26 L60.7946824,35.4918759 L68,35.4918759 L68,33.7370753 L62.8818316,33.7370753 L62.8818316,31.4106352 L67.4815362,31.4106352 L67.4815362,29.788774 L62.8818316,29.788774 L62.8818316,27.7548006 L67.8936484,27.7548006 L67.8936484,26 L60.7946824,26 Z" id="TITLE" fill="#00A0D2" mask="url(#mask-6)"></path>
            <rect id="Rectangle-139" fill="#00A0D2" mask="url(#mask-6)" x="42" y="40" width="15" height="2"></rect>
        </g>
    </g>
</svg>