<?xml version="1.0" encoding="UTF-8" standalone="no"?>
<svg width="100px" height="68px" viewBox="0 0 100 68" version="1.1" xmlns="http://www.w3.org/2000/svg" xmlns:xlink="http://www.w3.org/1999/xlink">
    <!-- Generator: Sketch 3.8.1 (29687) - http://www.bohemiancoding.com/sketch -->
    <title>price_table</title>
    <desc>Created with Sketch.</desc>
    <defs>
        <rect id="path-1" x="0" y="0" width="100" height="68"></rect>
        <linearGradient x1="0%" y1="0%" x2="106.265625%" y2="109.895844%" id="linearGradient-3">
            <stop stop-color="#C8EAF4" stop-opacity="0.208021966" offset="0%"></stop>
            <stop stop-color="#3DD0FF" offset="100%"></stop>
        </linearGradient>
        <rect id="path-4" x="37.1827895" y="12" width="25.5133272" height="43.5392481"></rect>
        <mask id="mask-5" maskContentUnits="userSpaceOnUse" maskUnits="objectBoundingBox" x="0" y="0" width="25.5133272" height="43.5392481" fill="white">
            <use xlink:href="#path-4"></use>
        </mask>
        <rect id="path-6" x="64.9733456" y="16.269624" width="22.9055607" height="35"></rect>
        <mask id="mask-7" maskContentUnits="userSpaceOnUse" maskUnits="objectBoundingBox" x="0" y="0" width="22.9055607" height="35" fill="white">
            <use xlink:href="#path-6"></use>
        </mask>
        <rect id="path-8" x="11" y="15.269624" width="22.9055607" height="37"></rect>
        <mask id="mask-9" maskContentUnits="userSpaceOnUse" maskUnits="objectBoundingBox" x="0" y="0" width="22.9055607" height="37" fill="white">
            <use xlink:href="#path-8"></use>
        </mask>
    </defs>
    <g id="Elements" stroke="none" stroke-width="1" fill="none" fill-rule="evenodd">
        <g id="price_table">
            <mask id="mask-2" fill="white">
                <use xlink:href="#path-1"></use>
            </mask>
            <use id="BG" fill="#FFFFFF" xlink:href="#path-1"></use>
            <rect id="Rectangle-486-Copy" fill="#00A0D2" opacity="0.141965951" mask="url(#mask-2)" x="14.9650602" y="35.5247296" width="15.366" height="2.47527037"></rect>
            <rect id="Rectangle-486-Copy" fill="#00A0D2" opacity="0.141965951" mask="url(#mask-2)" x="14.9650602" y="39.5247296" width="15.366" height="2.47527037"></rect>
            <rect id="Rectangle-486-Copy" fill="#00A0D2" opacity="0.141965951" mask="url(#mask-2)" x="14.9650602" y="43.5247296" width="15.366" height="2.47527037"></rect>
            <rect id="Rectangle-486-Copy" fill="#00A0D2" opacity="0.141965951" mask="url(#mask-2)" x="41.9650602" y="32.5247296" width="15.366" height="2.47527037"></rect>
            <rect id="Rectangle-486-Copy" fill="#00A0D2" opacity="0.141965951" mask="url(#mask-2)" x="41.9650602" y="36.5247296" width="15.366" height="2.47527037"></rect>
            <rect id="Rectangle-486-Copy" fill="#00A0D2" opacity="0.141965951" mask="url(#mask-2)" x="41.9650602" y="40.5247296" width="15.366" height="2.47527037"></rect>
            <rect id="Rectangle-486-Copy" fill="#00A0D2" opacity="0.141965951" mask="url(#mask-2)" x="68.9650602" y="35.5247296" width="15.366" height="2.47527037"></rect>
            <rect id="Rectangle-486-Copy" fill="#00A0D2" opacity="0.141965951" mask="url(#mask-2)" x="68.9650602" y="39.5247296" width="15.366" height="2.47527037"></rect>
            <rect id="Rectangle-486-Copy" fill="#00A0D2" opacity="0.141965951" mask="url(#mask-2)" x="68.9650602" y="43.5247296" width="15.366" height="2.47527037"></rect>
            <g id="Rectangle-486-Copy" mask="url(#mask-2)" stroke="#00A0D2" stroke-width="2" fill="url(#linearGradient-3)" fill-opacity="0.15">
                <use mask="url(#mask-5)" xlink:href="#path-4"></use>
            </g>
            <g id="Rectangle-486-Copy" mask="url(#mask-2)" stroke="#00A0D2" stroke-width="2" fill="url(#linearGradient-3)" fill-opacity="0.15">
                <use mask="url(#mask-7)" xlink:href="#path-6"></use>
            </g>
            <g id="Path" mask="url(#mask-2)" stroke="#00A0D2" stroke-width="2" fill="url(#linearGradient-3)" fill-opacity="0.15">
                <use mask="url(#mask-9)" xlink:href="#path-8"></use>
            </g>
            <path d="M43.586,22.69 L44.946,22.69 C44.946,22.5033324 44.9643332,22.315001 45.001,22.125 C45.0376669,21.9349991 45.0993329,21.7616675 45.186,21.605 C45.2726671,21.4483326 45.387666,21.3216672 45.531,21.225 C45.6743341,21.1283329 45.8493323,21.08 46.056,21.08 C46.3626682,21.08 46.6143324,21.1749991 46.811,21.365 C47.0076677,21.555001 47.106,21.8199983 47.106,22.16 C47.106,22.3733344 47.0576672,22.5633325 46.961,22.73 C46.8643329,22.8966675 46.7443341,23.046666 46.601,23.18 C46.457666,23.313334 46.2993342,23.4349995 46.126,23.545 C45.9526658,23.6550006 45.7893341,23.7633328 45.636,23.87 C45.3359985,24.0766677 45.0510014,24.279999 44.781,24.48 C44.5109987,24.680001 44.276001,24.8983322 44.076,25.135 C43.875999,25.3716679 43.7176673,25.6399985 43.601,25.94 C43.4843328,26.2400015 43.426,26.5933313 43.426,27 L48.566,27 L48.566,25.78 L45.256,25.78 C45.4293342,25.5399988 45.6293322,25.3300009 45.856,25.15 C46.0826678,24.9699991 46.3159988,24.8016675 46.556,24.645 C46.7960012,24.4883326 47.0343322,24.3300008 47.271,24.17 C47.5076679,24.0099992 47.7193324,23.8316677 47.906,23.635 C48.0926676,23.4383324 48.2426661,23.2133346 48.356,22.96 C48.4693339,22.7066654 48.526,22.4033351 48.526,22.05 C48.526,21.7099983 48.4610007,21.4033347 48.331,21.13 C48.2009994,20.8566653 48.0260011,20.6266676 47.806,20.44 C47.5859989,20.2533324 47.3310015,20.1100005 47.041,20.01 C46.7509986,19.9099995 46.4460016,19.86 46.126,19.86 C45.7059979,19.86 45.334335,19.931666 45.011,20.075 C44.6876651,20.2183341 44.4193344,20.4183321 44.206,20.675 C43.9926656,20.931668 43.8326672,21.231665 43.726,21.575 C43.6193328,21.9183351 43.5726666,22.289998 43.586,22.69 L43.586,22.69 Z M50.406,23.47 C50.406,23.3499994 50.4076667,23.2050009 50.411,23.035 C50.4143334,22.8649992 50.4259999,22.6900009 50.446,22.51 C50.4660001,22.3299991 50.4993331,22.1516676 50.546,21.975 C50.5926669,21.7983325 50.6576663,21.6400007 50.741,21.5 C50.8243338,21.3599993 50.9309994,21.2466671 51.061,21.16 C51.1910007,21.0733329 51.3526657,21.03 51.546,21.03 C51.7393343,21.03 51.902666,21.0733329 52.036,21.16 C52.169334,21.2466671 52.2793329,21.3599993 52.366,21.5 C52.4526671,21.6400007 52.5176665,21.7983325 52.561,21.975 C52.6043336,22.1516676 52.6376666,22.3299991 52.661,22.51 C52.6843335,22.6900009 52.6976667,22.8649992 52.701,23.035 C52.7043334,23.2050009 52.706,23.3499994 52.706,23.47 C52.706,23.670001 52.6993334,23.9116653 52.686,24.195 C52.6726666,24.4783348 52.6310004,24.7516654 52.561,25.015 C52.4909997,25.2783347 52.3776675,25.5033324 52.221,25.69 C52.0643326,25.8766676 51.8393348,25.97 51.546,25.97 C51.2593319,25.97 51.0393341,25.8766676 50.886,25.69 C50.7326659,25.5033324 50.6210004,25.2783347 50.551,25.015 C50.4809997,24.7516654 50.4393334,24.4783348 50.426,24.195 C50.4126666,23.9116653 50.406,23.670001 50.406,23.47 L50.406,23.47 Z M48.986,23.47 C48.986,24.1700035 49.0543327,24.7549977 49.191,25.225 C49.3276674,25.6950024 49.5126655,26.0699986 49.746,26.35 C49.9793345,26.6300014 50.2509985,26.8299994 50.561,26.95 C50.8710016,27.0700006 51.1993316,27.13 51.546,27.13 C51.8993351,27.13 52.2309985,27.0700006 52.541,26.95 C52.8510016,26.8299994 53.1243322,26.6300014 53.361,26.35 C53.5976679,26.0699986 53.7843327,25.6950024 53.921,25.225 C54.0576674,24.7549977 54.126,24.1700035 54.126,23.47 C54.126,22.7899966 54.0576674,22.2183357 53.921,21.755 C53.7843327,21.2916644 53.5976679,20.9200014 53.361,20.64 C53.1243322,20.3599986 52.8510016,20.1600006 52.541,20.04 C52.2309985,19.9199994 51.8993351,19.86 51.546,19.86 C51.1993316,19.86 50.8710016,19.9199994 50.561,20.04 C50.2509985,20.1600006 49.9793345,20.3599986 49.746,20.64 C49.5126655,20.9200014 49.3276674,21.2916644 49.191,21.755 C49.0543327,22.2183357 48.986,22.7899966 48.986,23.47 L48.986,23.47 Z M55.464,25.144 L54.336,25.144 C54.3893336,25.7733365 54.5839983,26.250665 54.92,26.576 C55.2560017,26.901335 55.7226637,27.0853331 56.32,27.128 L56.32,27.808 L56.792,27.808 L56.792,27.128 C57.192002,27.1013332 57.5199987,27.021334 57.776,26.888 C58.0320013,26.754666 58.2359992,26.6026675 58.388,26.432 C58.5400008,26.2613325 58.645333,26.0866676 58.704,25.908 C58.762667,25.7293324 58.792,25.5813339 58.792,25.464 C58.792,25.330666 58.7826668,25.1786675 58.764,25.008 C58.7453332,24.8373325 58.6853338,24.6666675 58.584,24.496 C58.4826662,24.3253325 58.3253344,24.1613341 58.112,24.004 C57.8986656,23.8466659 57.5946686,23.7146672 57.2,23.608 C57.125333,23.5866666 57.054667,23.5680001 56.988,23.552 C56.921333,23.5359999 56.8560003,23.5200001 56.792,23.504 L56.792,22.088 C56.9733342,22.088 57.1279994,22.1626659 57.256,22.312 C57.3840006,22.4613341 57.4506666,22.6426656 57.456,22.856 L58.592,22.856 C58.5759999,22.5786653 58.5173338,22.3386677 58.416,22.136 C58.3146662,21.9333323 58.1840008,21.7640007 58.024,21.628 C57.8639992,21.4919993 57.6786677,21.3853337 57.468,21.308 C57.2573323,21.2306663 57.0320012,21.1786668 56.792,21.152 L56.792,20.536 L56.32,20.536 L56.32,21.152 C56.0799988,21.1680001 55.8480011,21.2146663 55.624,21.292 C55.3999989,21.3693337 55.2026675,21.478666 55.032,21.62 C54.8613325,21.761334 54.7240005,21.935999 54.62,22.144 C54.5159995,22.352001 54.464,22.5919986 54.464,22.864 C54.464,23.130668 54.5093329,23.3533324 54.6,23.532 C54.6906671,23.7106676 54.8119992,23.8599994 54.964,23.98 C55.1160008,24.1000006 55.287999,24.1959996 55.48,24.268 C55.672001,24.3400004 55.8666657,24.4026664 56.064,24.456 C56.1173336,24.4666667 56.1666664,24.4786666 56.212,24.492 C56.2573336,24.5053334 56.2933332,24.5173333 56.32,24.528 L56.32,26.2 C56.0746654,26.1519998 55.8693342,26.0400009 55.704,25.864 C55.5386658,25.6879991 55.4586666,25.4480015 55.464,25.144 L55.464,25.144 Z M56.792,26.2 L56.792,24.664 C57.1066682,24.7493338 57.3293327,24.8439995 57.46,24.948 C57.5906673,25.0520005 57.656,25.207999 57.656,25.416 C57.656,25.5440006 57.6293336,25.6546662 57.576,25.748 C57.5226664,25.8413338 57.4546671,25.9199997 57.372,25.984 C57.2893329,26.0480003 57.1960005,26.0973332 57.092,26.132 C56.9879995,26.1666668 56.8880005,26.1893333 56.792,26.2 L56.792,26.2 Z M56.32,22.088 L56.32,23.392 C56.0639987,23.333333 55.8800006,23.2560005 55.768,23.16 C55.6559994,23.0639995 55.6,22.9280009 55.6,22.752 C55.6,22.6399994 55.6199998,22.5426671 55.66,22.46 C55.7000002,22.3773329 55.7546663,22.3080003 55.824,22.252 C55.8933337,22.1959997 55.9706662,22.1546668 56.056,22.128 C56.1413338,22.1013332 56.2293329,22.088 56.32,22.088 L56.32,22.088 Z" id="20$" fill="#00A0D2" mask="url(#mask-2)"></path>
            <path d="M71.4693456,27.83 L71.4693456,28.83 C71.6426798,28.83 71.8243446,28.835 72.0143456,28.845 C72.2043465,28.8550001 72.3793448,28.8916664 72.5393456,28.955 C72.6993464,29.0183337 72.8310117,29.1199993 72.9343456,29.26 C73.0376794,29.4000007 73.0893456,29.603332 73.0893456,29.87 C73.0893456,30.2100017 72.9793467,30.4783324 72.7593456,30.675 C72.5393445,30.8716677 72.2693472,30.97 71.9493456,30.97 C71.7426779,30.97 71.5643463,30.9333337 71.4143456,30.86 C71.2643448,30.7866663 71.1393461,30.688334 71.0393456,30.565 C70.9393451,30.4416661 70.8626792,30.2950009 70.8093456,30.125 C70.756012,29.9549992 70.7260123,29.7766676 70.7193456,29.59 L69.3693456,29.59 C69.3626789,29.9966687 69.4210116,30.3566651 69.5443456,30.67 C69.6676795,30.9833349 69.8426778,31.2483323 70.0693456,31.465 C70.2960134,31.6816678 70.5710106,31.8466661 70.8943456,31.96 C71.2176805,32.0733339 71.5760103,32.13 71.9693456,32.13 C72.3093473,32.13 72.6360107,32.0800005 72.9493456,31.98 C73.2626805,31.8799995 73.5393444,31.7333343 73.7793456,31.54 C74.0193468,31.3466657 74.2110115,31.1066681 74.3543456,30.82 C74.4976796,30.5333319 74.5693456,30.2066685 74.5693456,29.84 C74.5693456,29.439998 74.4593467,29.0966681 74.2393456,28.81 C74.0193445,28.5233319 73.7160142,28.3366671 73.3293456,28.25 L73.3293456,28.23 C73.6560139,28.1366662 73.9010114,27.9600013 74.0643456,27.7 C74.2276797,27.4399987 74.3093456,27.1400017 74.3093456,26.8 C74.3093456,26.4866651 74.2393463,26.2100012 74.0993456,25.97 C73.9593449,25.7299988 73.77768,25.5266675 73.5543456,25.36 C73.3310111,25.1933325 73.079347,25.0683338 72.7993456,24.985 C72.5193442,24.9016663 72.239347,24.86 71.9593456,24.86 C71.5993438,24.86 71.2726804,24.9183328 70.9793456,25.035 C70.6860108,25.1516673 70.4343466,25.3166656 70.2243456,25.53 C70.0143445,25.7433344 69.8510128,25.9983319 69.7343456,26.295 C69.6176783,26.5916682 69.552679,26.9199982 69.5393456,27.28 L70.8893456,27.28 C70.8826789,26.9199982 70.9710113,26.6216679 71.1543456,26.385 C71.3376798,26.1483322 71.6093438,26.03 71.9693456,26.03 C72.2293469,26.03 72.4593446,26.1099992 72.6593456,26.27 C72.8593466,26.4300008 72.9593456,26.6599985 72.9593456,26.96 C72.9593456,27.160001 72.9110127,27.3199994 72.8143456,27.44 C72.7176784,27.5600006 72.5943463,27.6516664 72.4443456,27.715 C72.2943448,27.7783337 72.1326798,27.8166666 71.9593456,27.83 C71.7860114,27.8433334 71.6226797,27.8433334 71.4693456,27.83 L71.4693456,27.83 Z M77.4493456,28.63 C77.2693447,28.63 77.1110129,28.5916671 76.9743456,28.515 C76.8376782,28.438333 76.7260127,28.338334 76.6393456,28.215 C76.5526785,28.0916661 76.4876791,27.9516675 76.4443456,27.795 C76.401012,27.6383326 76.3793456,27.4766675 76.3793456,27.31 C76.3793456,27.1499992 76.4026787,26.9933341 76.4493456,26.84 C76.4960125,26.6866659 76.5660118,26.5500006 76.6593456,26.43 C76.7526794,26.3099994 76.8660116,26.2133337 76.9993456,26.14 C77.1326796,26.0666663 77.2826781,26.03 77.4493456,26.03 C77.6293465,26.03 77.7893449,26.0666663 77.9293456,26.14 C78.0693463,26.2133337 78.1876784,26.3116661 78.2843456,26.435 C78.3810127,26.558334 78.4543453,26.6983326 78.5043456,26.855 C78.5543458,27.0116675 78.5793456,27.1699992 78.5793456,27.33 C78.5793456,27.5033342 78.5560125,27.6683326 78.5093456,27.825 C78.4626787,27.9816675 78.3926794,28.1199994 78.2993456,28.24 C78.2060118,28.3600006 78.0893463,28.4549997 77.9493456,28.525 C77.8093449,28.5950004 77.6426799,28.63 77.4493456,28.63 L77.4493456,28.63 Z M76.4293456,30.2 L75.0793456,30.2 C75.1193458,30.5066682 75.2026783,30.7799988 75.3293456,31.02 C75.4560129,31.2600012 75.6193446,31.4633325 75.8193456,31.63 C76.0193466,31.7966675 76.2493443,31.9216663 76.5093456,32.005 C76.7693469,32.0883338 77.0493441,32.13 77.3493456,32.13 C77.8493481,32.13 78.2726772,32.0216678 78.6193456,31.805 C78.966014,31.5883323 79.2493445,31.3050018 79.4693456,30.955 C79.6893467,30.6049983 79.8493451,30.2133355 79.9493456,29.78 C80.0493461,29.3466645 80.0993456,28.9133355 80.0993456,28.48 C80.0993456,28.0399978 80.059346,27.6033355 79.9793456,27.17 C79.8993452,26.7366645 79.7560133,26.3483351 79.5493456,26.005 C79.3426779,25.661665 79.0676806,25.3850011 78.7243456,25.175 C78.3810105,24.964999 77.9426816,24.86 77.4093456,24.86 C77.0426771,24.86 76.7093471,24.926666 76.4093456,25.06 C76.1093441,25.193334 75.8510133,25.3749989 75.6343456,25.605 C75.4176778,25.8350012 75.2510128,26.1049985 75.1343456,26.415 C75.0176783,26.7250016 74.9593456,27.0599982 74.9593456,27.42 C74.9593456,27.7000014 75.0026785,27.9766653 75.0893456,28.25 C75.1760127,28.5233347 75.312678,28.7666656 75.4993456,28.98 C75.6993466,29.2000011 75.9426775,29.3749994 76.2293456,29.505 C76.5160137,29.6350007 76.8093441,29.7 77.1093456,29.7 C77.4493473,29.7 77.7493443,29.6400006 78.0093456,29.52 C78.2693469,29.3999994 78.4960113,29.2000014 78.6893456,28.92 L78.7093456,28.94 C78.6960122,29.1333343 78.6676791,29.3533321 78.6243456,29.6 C78.581012,29.8466679 78.5093461,30.0783323 78.4093456,30.295 C78.3093451,30.5116678 78.1760131,30.6949993 78.0093456,30.845 C77.8426781,30.9950008 77.6293469,31.07 77.3693456,31.07 C77.1226777,31.07 76.9160131,30.9833342 76.7493456,30.81 C76.5826781,30.6366658 76.4760125,30.4333345 76.4293456,30.2 L76.4293456,30.2 Z M81.4373456,30.144 L80.3093456,30.144 C80.3626792,30.7733365 80.5573439,31.250665 80.8933456,31.576 C81.2293473,31.901335 81.6960093,32.0853331 82.2933456,32.128 L82.2933456,32.808 L82.7653456,32.808 L82.7653456,32.128 C83.1653476,32.1013332 83.4933443,32.021334 83.7493456,31.888 C84.0053469,31.754666 84.2093448,31.6026675 84.3613456,31.432 C84.5133463,31.2613325 84.6186786,31.0866676 84.6773456,30.908 C84.7360125,30.7293324 84.7653456,30.5813339 84.7653456,30.464 C84.7653456,30.330666 84.7560123,30.1786675 84.7373456,30.008 C84.7186788,29.8373325 84.6586794,29.6666675 84.5573456,29.496 C84.4560117,29.3253325 84.29868,29.1613341 84.0853456,29.004 C83.8720112,28.8466659 83.5680142,28.7146672 83.1733456,28.608 C83.0986785,28.5866666 83.0280126,28.5680001 82.9613456,28.552 C82.8946786,28.5359999 82.8293459,28.5200001 82.7653456,28.504 L82.7653456,27.088 C82.9466798,27.088 83.1013449,27.1626659 83.2293456,27.312 C83.3573462,27.4613341 83.4240122,27.6426656 83.4293456,27.856 L84.5653456,27.856 C84.5493455,27.5786653 84.4906794,27.3386677 84.3893456,27.136 C84.2880117,26.9333323 84.1573464,26.7640007 83.9973456,26.628 C83.8373448,26.4919993 83.6520133,26.3853337 83.4413456,26.308 C83.2306779,26.2306663 83.0053468,26.1786668 82.7653456,26.152 L82.7653456,25.536 L82.2933456,25.536 L82.2933456,26.152 C82.0533444,26.1680001 81.8213467,26.2146663 81.5973456,26.292 C81.3733445,26.3693337 81.1760131,26.478666 81.0053456,26.62 C80.8346781,26.761334 80.6973461,26.935999 80.5933456,27.144 C80.4893451,27.352001 80.4373456,27.5919986 80.4373456,27.864 C80.4373456,28.130668 80.4826785,28.3533324 80.5733456,28.532 C80.6640127,28.7106676 80.7853448,28.8599994 80.9373456,28.98 C81.0893463,29.1000006 81.2613446,29.1959996 81.4533456,29.268 C81.6453465,29.3400004 81.8400113,29.4026664 82.0373456,29.456 C82.0906792,29.4666667 82.140012,29.4786666 82.1853456,29.492 C82.2306791,29.5053334 82.2666788,29.5173333 82.2933456,29.528 L82.2933456,31.2 C82.048011,31.1519998 81.8426797,31.0400009 81.6773456,30.864 C81.5120114,30.6879991 81.4320122,30.4480015 81.4373456,30.144 L81.4373456,30.144 Z M82.7653456,31.2 L82.7653456,29.664 C83.0800138,29.7493338 83.3026783,29.8439995 83.4333456,29.948 C83.5640129,30.0520005 83.6293456,30.207999 83.6293456,30.416 C83.6293456,30.5440006 83.6026792,30.6546662 83.5493456,30.748 C83.496012,30.8413338 83.4280127,30.9199997 83.3453456,30.984 C83.2626785,31.0480003 83.1693461,31.0973332 83.0653456,31.132 C82.9613451,31.1666668 82.8613461,31.1893333 82.7653456,31.2 L82.7653456,31.2 Z M82.2933456,27.088 L82.2933456,28.392 C82.0373443,28.333333 81.8533461,28.2560005 81.7413456,28.16 C81.629345,28.0639995 81.5733456,27.9280009 81.5733456,27.752 C81.5733456,27.6399994 81.5933454,27.5426671 81.6333456,27.46 C81.6733458,27.3773329 81.7280119,27.3080003 81.7973456,27.252 C81.8666793,27.1959997 81.9440118,27.1546668 82.0293456,27.128 C82.1146793,27.1013332 82.2026785,27.088 82.2933456,27.088 L82.2933456,27.088 Z" id="39$" fill="#00A0D2" mask="url(#mask-2)"></path>
            <path d="M20.1015607,27.63 C19.9215598,27.63 19.763228,27.5916671 19.6265607,27.515 C19.4898933,27.438333 19.3782278,27.338334 19.2915607,27.215 C19.2048936,27.0916661 19.1398942,26.9516675 19.0965607,26.795 C19.0532271,26.6383326 19.0315607,26.4766675 19.0315607,26.31 C19.0315607,26.1499992 19.0548938,25.9933341 19.1015607,25.84 C19.1482276,25.6866659 19.2182269,25.5500006 19.3115607,25.43 C19.4048945,25.3099994 19.5182267,25.2133337 19.6515607,25.14 C19.7848947,25.0666663 19.9348932,25.03 20.1015607,25.03 C20.2815616,25.03 20.44156,25.0666663 20.5815607,25.14 C20.7215614,25.2133337 20.8398935,25.3116661 20.9365607,25.435 C21.0332278,25.558334 21.1065604,25.6983326 21.1565607,25.855 C21.2065609,26.0116675 21.2315607,26.1699992 21.2315607,26.33 C21.2315607,26.5033342 21.2082276,26.6683326 21.1615607,26.825 C21.1148938,26.9816675 21.0448945,27.1199994 20.9515607,27.24 C20.8582269,27.3600006 20.7415614,27.4549997 20.6015607,27.525 C20.46156,27.5950004 20.294895,27.63 20.1015607,27.63 L20.1015607,27.63 Z M19.0815607,29.2 L17.7315607,29.2 C17.7715609,29.5066682 17.8548934,29.7799988 17.9815607,30.02 C18.108228,30.2600012 18.2715597,30.4633325 18.4715607,30.63 C18.6715617,30.7966675 18.9015594,30.9216663 19.1615607,31.005 C19.421562,31.0883338 19.7015592,31.13 20.0015607,31.13 C20.5015632,31.13 20.9248923,31.0216678 21.2715607,30.805 C21.6182291,30.5883323 21.9015596,30.3050018 22.1215607,29.955 C22.3415618,29.6049983 22.5015602,29.2133355 22.6015607,28.78 C22.7015612,28.3466645 22.7515607,27.9133355 22.7515607,27.48 C22.7515607,27.0399978 22.7115611,26.6033355 22.6315607,26.17 C22.5515603,25.7366645 22.4082284,25.3483351 22.2015607,25.005 C21.994893,24.661665 21.7198957,24.3850011 21.3765607,24.175 C21.0332256,23.964999 20.5948967,23.86 20.0615607,23.86 C19.6948922,23.86 19.3615622,23.926666 19.0615607,24.06 C18.7615592,24.193334 18.5032284,24.3749989 18.2865607,24.605 C18.0698929,24.8350012 17.9032279,25.1049985 17.7865607,25.415 C17.6698934,25.7250016 17.6115607,26.0599982 17.6115607,26.42 C17.6115607,26.7000014 17.6548936,26.9766653 17.7415607,27.25 C17.8282278,27.5233347 17.9648931,27.7666656 18.1515607,27.98 C18.3515617,28.2000011 18.5948926,28.3749994 18.8815607,28.505 C19.1682288,28.6350007 19.4615592,28.7 19.7615607,28.7 C20.1015624,28.7 20.4015594,28.6400006 20.6615607,28.52 C20.921562,28.3999994 21.1482264,28.2000014 21.3415607,27.92 L21.3615607,27.94 C21.3482273,28.1333343 21.3198942,28.3533321 21.2765607,28.6 C21.2332271,28.8466679 21.1615612,29.0783323 21.0615607,29.295 C20.9615602,29.5116678 20.8282282,29.6949993 20.6615607,29.845 C20.4948932,29.9950008 20.281562,30.07 20.0215607,30.07 C19.7748928,30.07 19.5682282,29.9833342 19.4015607,29.81 C19.2348932,29.6366658 19.1282276,29.4333345 19.0815607,29.2 L19.0815607,29.2 Z M24.0895607,29.144 L22.9615607,29.144 C23.0148943,29.7733365 23.209559,30.250665 23.5455607,30.576 C23.8815623,30.901335 24.3482243,31.0853331 24.9455607,31.128 L24.9455607,31.808 L25.4175607,31.808 L25.4175607,31.128 C25.8175627,31.1013332 26.1455594,31.021334 26.4015607,30.888 C26.6575619,30.754666 26.8615599,30.6026675 27.0135607,30.432 C27.1655614,30.2613325 27.2708937,30.0866676 27.3295607,29.908 C27.3882276,29.7293324 27.4175607,29.5813339 27.4175607,29.464 C27.4175607,29.330666 27.4082274,29.1786675 27.3895607,29.008 C27.3708939,28.8373325 27.3108945,28.6666675 27.2095607,28.496 C27.1082268,28.3253325 26.9508951,28.1613341 26.7375607,28.004 C26.5242263,27.8466659 26.2202293,27.7146672 25.8255607,27.608 C25.7508936,27.5866666 25.6802277,27.5680001 25.6135607,27.552 C25.5468937,27.5359999 25.481561,27.5200001 25.4175607,27.504 L25.4175607,26.088 C25.5988949,26.088 25.75356,26.1626659 25.8815607,26.312 C26.0095613,26.4613341 26.0762273,26.6426656 26.0815607,26.856 L27.2175607,26.856 C27.2015606,26.5786653 27.1428945,26.3386677 27.0415607,26.136 C26.9402268,25.9333323 26.8095615,25.7640007 26.6495607,25.628 C26.4895599,25.4919993 26.3042284,25.3853337 26.0935607,25.308 C25.8828929,25.2306663 25.6575619,25.1786668 25.4175607,25.152 L25.4175607,24.536 L24.9455607,24.536 L24.9455607,25.152 C24.7055595,25.1680001 24.4735618,25.2146663 24.2495607,25.292 C24.0255595,25.3693337 23.8282282,25.478666 23.6575607,25.62 C23.4868931,25.761334 23.3495612,25.935999 23.2455607,26.144 C23.1415601,26.352001 23.0895607,26.5919986 23.0895607,26.864 C23.0895607,27.130668 23.1348935,27.3533324 23.2255607,27.532 C23.3162278,27.7106676 23.4375599,27.8599994 23.5895607,27.98 C23.7415614,28.1000006 23.9135597,28.1959996 24.1055607,28.268 C24.2975616,28.3400004 24.4922263,28.4026664 24.6895607,28.456 C24.7428943,28.4666667 24.7922271,28.4786666 24.8375607,28.492 C24.8828942,28.5053334 24.9188939,28.5173333 24.9455607,28.528 L24.9455607,30.2 C24.7002261,30.1519998 24.4948948,30.0400009 24.3295607,29.864 C24.1642265,29.6879991 24.0842273,29.4480015 24.0895607,29.144 L24.0895607,29.144 Z M25.4175607,30.2 L25.4175607,28.664 C25.7322289,28.7493338 25.9548933,28.8439995 26.0855607,28.948 C26.216228,29.0520005 26.2815607,29.207999 26.2815607,29.416 C26.2815607,29.5440006 26.2548943,29.6546662 26.2015607,29.748 C26.1482271,29.8413338 26.0802277,29.9199997 25.9975607,29.984 C25.9148936,30.0480003 25.8215612,30.0973332 25.7175607,30.132 C25.6135601,30.1666668 25.5135611,30.1893333 25.4175607,30.2 L25.4175607,30.2 Z M24.9455607,26.088 L24.9455607,27.392 C24.6895594,27.333333 24.5055612,27.2560005 24.3935607,27.16 C24.2815601,27.0639995 24.2255607,26.9280009 24.2255607,26.752 C24.2255607,26.6399994 24.2455605,26.5426671 24.2855607,26.46 C24.3255609,26.3773329 24.380227,26.3080003 24.4495607,26.252 C24.5188943,26.1959997 24.5962269,26.1546668 24.6815607,26.128 C24.7668944,26.1013332 24.8548935,26.088 24.9455607,26.088 L24.9455607,26.088 Z" id="9$" fill="#00A0D2" mask="url(#mask-2)"></path>
        </g>
    </g>
</svg>