<?xml version="1.0" encoding="UTF-8" standalone="no"?>
<svg width="100px" height="68px" viewBox="0 0 100 68" version="1.1" xmlns="http://www.w3.org/2000/svg" xmlns:xlink="http://www.w3.org/1999/xlink">
    <!-- Generator: Sketch 3.8.1 (29687) - http://www.bohemiancoding.com/sketch -->
    <title>products</title>
    <desc>Created with Sketch.</desc>
    <defs>
        <rect id="path-1" x="0" y="0" width="100" height="68"></rect>
        <linearGradient x1="0%" y1="0%" x2="106.265625%" y2="109.895844%" id="linearGradient-3">
            <stop stop-color="#C8EAF4" stop-opacity="0.208021966" offset="0%"></stop>
            <stop stop-color="#3DD0FF" offset="100%"></stop>
        </linearGradient>
        <rect id="path-4" x="0" y="0" width="31.464638" height="45"></rect>
        <mask id="mask-5" maskContentUnits="userSpaceOnUse" maskUnits="objectBoundingBox" x="0" y="0" width="31.464638" height="45" fill="white">
            <use xlink:href="#path-4"></use>
        </mask>
        <mask id="mask-7" maskContentUnits="userSpaceOnUse" maskUnits="objectBoundingBox" x="0" y="0" width="31.464638" height="45" fill="white">
            <use xlink:href="#path-4"></use>
        </mask>
        <rect id="path-8" x="0" y="0.0646517229" width="31.464638" height="31.7045455"></rect>
        <rect id="path-10" x="0" y="0" width="31.464638" height="45"></rect>
        <mask id="mask-11" maskContentUnits="userSpaceOnUse" maskUnits="objectBoundingBox" x="0" y="0" width="31.464638" height="45" fill="white">
            <use xlink:href="#path-10"></use>
        </mask>
        <mask id="mask-13" maskContentUnits="userSpaceOnUse" maskUnits="objectBoundingBox" x="0" y="0" width="31.464638" height="45" fill="white">
            <use xlink:href="#path-10"></use>
        </mask>
        <rect id="path-14" x="0" y="0.0646517229" width="31.464638" height="31.7045455"></rect>
        <rect id="path-16" x="0" y="0" width="31.464638" height="45"></rect>
        <mask id="mask-17" maskContentUnits="userSpaceOnUse" maskUnits="objectBoundingBox" x="0" y="0" width="31.464638" height="45" fill="white">
            <use xlink:href="#path-16"></use>
        </mask>
        <mask id="mask-19" maskContentUnits="userSpaceOnUse" maskUnits="objectBoundingBox" x="0" y="0" width="31.464638" height="45" fill="white">
            <use xlink:href="#path-16"></use>
        </mask>
        <rect id="path-20" x="0" y="0.0646517229" width="31.464638" height="31.7045455"></rect>
    </defs>
    <g id="Elements" stroke="none" stroke-width="1" fill="none" fill-rule="evenodd">
        <g id="products">
            <mask id="mask-2" fill="white">
                <use xlink:href="#path-1"></use>
            </mask>
            <use id="BG" fill="#FFFFFF" xlink:href="#path-1"></use>
            <g id="image-+-text-small-+-image" mask="url(#mask-2)">
                <g transform="translate(52.000000, 12.000000)">
                    <g id="image">
                        <mask id="mask-6" fill="white">
                            <use xlink:href="#path-4"></use>
                        </mask>
                        <g id="Mask-Copy" stroke="#00A0D2" mask="url(#mask-5)" stroke-width="2" fill-opacity="0.15" fill="url(#linearGradient-3)">
                            <use mask="url(#mask-7)" xlink:href="#path-4"></use>
                        </g>
                        <mask id="mask-9" fill="white">
                            <use xlink:href="#path-8"></use>
                        </mask>
                        <use id="Mask-Copy" fill="#00A0D2" opacity="0.141965951" xlink:href="#path-8"></use>
                        <path d="M17.9421421,24.0016972 C17.9421421,24.0016972 19.5899744,22.4481972 19.9488987,20.3589761 C20.9148693,20.3589761 21.5114983,18.1378713 20.5455276,17.3565736 C20.5862499,16.5343464 21.787084,10.8997255 15.7043102,10.8997255 C9.62153645,10.8997255 10.8223705,16.5343464 10.8630928,17.3565736 C9.89712218,18.1378713 10.4937511,20.3589761 11.4597217,20.3589761 C11.8186461,22.4481972 13.4674253,24.0016972 13.4674253,24.0016972 C13.4674253,24.0016972 13.4541669,25.4706096 12.8935251,25.5551972 C11.0865919,25.8289697 4.33995007,28.6621972 4.33995007,31.7691972 L27.0686704,31.7691972 C27.0686704,28.6621972 20.3220286,25.8289697 18.5160423,25.5551972 C17.9554006,25.4706096 17.9421421,24.0016972 17.9421421,24.0016972 Z" id="Shape-Copy-6" fill="#00A0D2" opacity="0.141965951" mask="url(#mask-9)"></path>
                    </g>
                    <g id="text-small" opacity="0.6" transform="translate(10.089790, 35.357726)">
                        <rect id="Rectangle-166" fill="#00A0D2" x="0.672652658" y="0.684627161" width="10.0897899" height="3.63523736" rx="1.81761868"></rect>
                    </g>
                </g>
            </g>
            <g id="image-+-text-small-+-image" mask="url(#mask-2)">
                <g transform="translate(17.000000, 12.000000)">
                    <g id="image">
                        <mask id="mask-12" fill="white">
                            <use xlink:href="#path-10"></use>
                        </mask>
                        <g id="Mask-Copy" stroke="#00A0D2" mask="url(#mask-11)" stroke-width="2" fill-opacity="0.15" fill="url(#linearGradient-3)">
                            <use mask="url(#mask-13)" xlink:href="#path-10"></use>
                        </g>
                        <mask id="mask-15" fill="white">
                            <use xlink:href="#path-14"></use>
                        </mask>
                        <use id="Mask-Copy" fill="#00A0D2" opacity="0.141965951" xlink:href="#path-14"></use>
                        <path d="M17.9421421,24.0016972 C17.9421421,24.0016972 19.5899744,22.4481972 19.9488987,20.3589761 C20.9148693,20.3589761 21.5114983,18.1378713 20.5455276,17.3565736 C20.5862499,16.5343464 21.787084,10.8997255 15.7043102,10.8997255 C9.62153645,10.8997255 10.8223705,16.5343464 10.8630928,17.3565736 C9.89712218,18.1378713 10.4937511,20.3589761 11.4597217,20.3589761 C11.8186461,22.4481972 13.4674253,24.0016972 13.4674253,24.0016972 C13.4674253,24.0016972 13.4541669,25.4706096 12.8935251,25.5551972 C11.0865919,25.8289697 4.33995007,28.6621972 4.33995007,31.7691972 L27.0686704,31.7691972 C27.0686704,28.6621972 20.3220286,25.8289697 18.5160423,25.5551972 C17.9554006,25.4706096 17.9421421,24.0016972 17.9421421,24.0016972 Z" id="Shape-Copy-6" fill="#00A0D2" opacity="0.141965951" mask="url(#mask-15)"></path>
                    </g>
                    <g id="text-small" opacity="0.6" transform="translate(10.089790, 35.357726)">
                        <rect id="Rectangle-166" fill="#00A0D2" x="0.672652658" y="0.684627161" width="10.0897899" height="3.63523736" rx="1.81761868"></rect>
                    </g>
                </g>
            </g>
            <g id="image-+-text-small-+-image" mask="url(#mask-2)">
                <g transform="translate(87.000000, 12.000000)">
                    <g id="image">
                        <mask id="mask-18" fill="white">
                            <use xlink:href="#path-16"></use>
                        </mask>
                        <g id="Mask-Copy" stroke="#00A0D2" mask="url(#mask-17)" stroke-width="2" fill-opacity="0.15" fill="url(#linearGradient-3)">
                            <use mask="url(#mask-19)" xlink:href="#path-16"></use>
                        </g>
                        <mask id="mask-21" fill="white">
                            <use xlink:href="#path-20"></use>
                        </mask>
                        <use id="Mask-Copy" fill="#00A0D2" opacity="0.141965951" xlink:href="#path-20"></use>
                        <path d="M17.9421421,24.0016972 C17.9421421,24.0016972 19.5899744,22.4481972 19.9488987,20.3589761 C20.9148693,20.3589761 21.5114983,18.1378713 20.5455276,17.3565736 C20.5862499,16.5343464 21.787084,10.8997255 15.7043102,10.8997255 C9.62153645,10.8997255 10.8223705,16.5343464 10.8630928,17.3565736 C9.89712218,18.1378713 10.4937511,20.3589761 11.4597217,20.3589761 C11.8186461,22.4481972 13.4674253,24.0016972 13.4674253,24.0016972 C13.4674253,24.0016972 13.4541669,25.4706096 12.8935251,25.5551972 C11.0865919,25.8289697 4.33995007,28.6621972 4.33995007,31.7691972 L27.0686704,31.7691972 C27.0686704,28.6621972 20.3220286,25.8289697 18.5160423,25.5551972 C17.9554006,25.4706096 17.9421421,24.0016972 17.9421421,24.0016972 Z" id="Shape-Copy-6" fill="#00A0D2" opacity="0.141965951" mask="url(#mask-21)"></path>
                    </g>
                    <g id="text-small" opacity="0.6" transform="translate(10.089790, 35.357726)">
                        <rect id="Rectangle-166" fill="#00A0D2" x="0.672652658" y="0.684627161" width="10.0897899" height="3.63523736" rx="1.81761868"></rect>
                    </g>
                </g>
            </g>
            <path d="M5.7495419,15.1464089 L4.175,15.1464089 C4.27379528,16.443097 4.68749431,17.4588207 5.4161095,18.1936106 C6.14472469,18.9284005 7.12648805,19.3575361 8.36142905,19.4810302 L8.36142905,21 L9.38025028,21 L9.38025028,19.4810302 C9.97302196,19.4316325 10.5163878,19.3081403 11.0103642,19.1105497 C11.5043406,18.9129592 11.9303889,18.6443635 12.2885218,18.3047547 C12.6466547,17.965146 12.9275995,17.5607089 13.1313648,17.0914313 C13.3351301,16.6221537 13.4370112,16.0849624 13.4370112,15.4798413 C13.4370112,14.9117685 13.3289555,14.4239741 13.1128408,14.0164436 C12.8967261,13.608913 12.6343051,13.2693094 12.3255698,12.9976223 C12.0168346,12.7259353 11.6957547,12.5129112 11.3623207,12.3585436 C11.0288866,12.204176 10.7386798,12.0961202 10.4916916,12.0343732 L9.38025028,11.7379888 L9.38025028,7.18107933 C10.516396,7.3910193 11.2079526,8.10727433 11.4549408,9.32986592 L13.0294827,9.32986592 C12.7824945,8.24311784 12.3626208,7.39102134 11.7698492,6.77355084 C11.1770775,6.15608034 10.3805525,5.7856036 9.38025028,5.6621095 L9.38025028,4.421 L8.36142905,4.421 L8.36142905,5.64358547 C7.83040442,5.6806337 7.33334813,5.79795134 6.87024525,5.9955419 C6.40714238,6.19313246 6.00579257,6.4617281 5.6661838,6.80133687 C5.32657502,7.14094565 5.05797939,7.54229545 4.86038883,8.00539832 C4.66279827,8.4685012 4.56400447,8.97790672 4.56400447,9.53363017 C4.56400447,10.0770042 4.63809982,10.5401001 4.78629274,10.9229318 C4.93448566,11.3057636 5.16603362,11.6299307 5.48094358,11.895443 C5.79585353,12.1609553 6.19102872,12.389416 6.66648101,12.5808318 C7.14193329,12.7722477 7.70691032,12.9482242 8.36142905,13.1087665 L8.36142905,18.0176324 C7.62046445,17.8941383 7.00609052,17.5915823 6.51828883,17.1099553 C6.03048713,16.6283283 5.77424072,15.9738194 5.7495419,15.1464089 L5.7495419,15.1464089 Z M9.38025028,18.0176324 L9.38025028,13.3681028 C9.71368435,13.4668981 10.0285896,13.5749538 10.3249754,13.6922732 C10.6213613,13.8095926 10.8745204,13.954696 11.0844603,14.1275877 C11.2944003,14.3004794 11.4611148,14.507329 11.5846089,14.7481425 C11.708103,14.988956 11.7698492,15.2884247 11.7698492,15.6465575 C11.7698492,16.0417387 11.7111903,16.3844296 11.5938709,16.6746408 C11.4765516,16.9648519 11.309837,17.2056618 11.0937223,17.3970777 C10.8776077,17.5884935 10.6244486,17.7335969 10.3342374,17.8323922 C10.0440263,17.9311875 9.72603376,17.9929336 9.38025028,18.0176324 L9.38025028,18.0176324 Z M8.36142905,7.12550726 L8.36142905,11.4601285 C8.0526938,11.3736826 7.76866163,11.2748888 7.50932402,11.1637441 C7.24998641,11.0525994 7.02461306,10.9198453 6.83319721,10.7654777 C6.64178135,10.61111 6.49359066,10.419697 6.38862067,10.191233 C6.28365069,9.96276888 6.23116648,9.68799863 6.23116648,9.36691397 C6.23116648,8.6629976 6.43801599,8.12889363 6.85172123,7.76458603 C7.26542646,7.40027844 7.76865737,7.18725431 8.36142905,7.12550726 L8.36142905,7.12550726 Z" id="$" fill-opacity="0.532382246" fill="#00A0D2" opacity="0.333430504" mask="url(#mask-2)"></path>
        </g>
    </g>
</svg>