<?xml version="1.0" encoding="UTF-8" standalone="no"?>
<svg width="100px" height="68px" viewBox="0 0 100 68" version="1.1" xmlns="http://www.w3.org/2000/svg" xmlns:xlink="http://www.w3.org/1999/xlink">
    <!-- Generator: Sketch 3.8.1 (29687) - http://www.bohemiancoding.com/sketch -->
    <title>product</title>
    <desc>Created with Sketch.</desc>
    <defs>
        <rect id="path-1" x="0" y="0" width="100" height="68"></rect>
        <linearGradient x1="0%" y1="0%" x2="106.265625%" y2="109.895844%" id="linearGradient-3">
            <stop stop-color="#C8EAF4" stop-opacity="0.208021966" offset="0%"></stop>
            <stop stop-color="#3DD0FF" offset="100%"></stop>
        </linearGradient>
        <rect id="path-4" x="0" y="0" width="49.1634969" height="60.9565217"></rect>
        <mask id="mask-5" maskContentUnits="userSpaceOnUse" maskUnits="objectBoundingBox" x="0" y="0" width="49.1634969" height="60.9565217" fill="white">
            <use xlink:href="#path-4"></use>
        </mask>
        <mask id="mask-7" maskContentUnits="userSpaceOnUse" maskUnits="objectBoundingBox" x="0" y="0" width="49.1634969" height="60.9565217" fill="white">
            <use xlink:href="#path-4"></use>
        </mask>
        <rect id="path-8" x="0" y="-3.55271368e-15" width="49.1634969" height="40.0940384"></rect>
    </defs>
    <g id="Elements" stroke="none" stroke-width="1" fill="none" fill-rule="evenodd">
        <g id="product">
            <mask id="mask-2" fill="white">
                <use xlink:href="#path-1"></use>
            </mask>
            <use id="BG" fill="#FFFFFF" xlink:href="#path-1"></use>
            <path d="M5.7495419,14.1464089 L4.175,14.1464089 C4.27379528,15.443097 4.68749431,16.4588207 5.4161095,17.1936106 C6.14472469,17.9284005 7.12648805,18.3575361 8.36142905,18.4810302 L8.36142905,20 L9.38025028,20 L9.38025028,18.4810302 C9.97302196,18.4316325 10.5163878,18.3081403 11.0103642,18.1105497 C11.5043406,17.9129592 11.9303889,17.6443635 12.2885218,17.3047547 C12.6466547,16.965146 12.9275995,16.5607089 13.1313648,16.0914313 C13.3351301,15.6221537 13.4370112,15.0849624 13.4370112,14.4798413 C13.4370112,13.9117685 13.3289555,13.4239741 13.1128408,13.0164436 C12.8967261,12.608913 12.6343051,12.2693094 12.3255698,11.9976223 C12.0168346,11.7259353 11.6957547,11.5129112 11.3623207,11.3585436 C11.0288866,11.204176 10.7386798,11.0961202 10.4916916,11.0343732 L9.38025028,10.7379888 L9.38025028,6.18107933 C10.516396,6.3910193 11.2079526,7.10727433 11.4549408,8.32986592 L13.0294827,8.32986592 C12.7824945,7.24311784 12.3626208,6.39102134 11.7698492,5.77355084 C11.1770775,5.15608034 10.3805525,4.7856036 9.38025028,4.6621095 L9.38025028,3.421 L8.36142905,3.421 L8.36142905,4.64358547 C7.83040442,4.6806337 7.33334813,4.79795134 6.87024525,4.9955419 C6.40714238,5.19313246 6.00579257,5.4617281 5.6661838,5.80133687 C5.32657502,6.14094565 5.05797939,6.54229545 4.86038883,7.00539832 C4.66279827,7.4685012 4.56400447,7.97790672 4.56400447,8.53363017 C4.56400447,9.07700421 4.63809982,9.54010013 4.78629274,9.92293184 C4.93448566,10.3057636 5.16603362,10.6299307 5.48094358,10.895443 C5.79585353,11.1609553 6.19102872,11.389416 6.66648101,11.5808318 C7.14193329,11.7722477 7.70691032,11.9482242 8.36142905,12.1087665 L8.36142905,17.0176324 C7.62046445,16.8941383 7.00609052,16.5915823 6.51828883,16.1099553 C6.03048713,15.6283283 5.77424072,14.9738194 5.7495419,14.1464089 L5.7495419,14.1464089 Z M9.38025028,17.0176324 L9.38025028,12.3681028 C9.71368435,12.4668981 10.0285896,12.5749538 10.3249754,12.6922732 C10.6213613,12.8095926 10.8745204,12.954696 11.0844603,13.1275877 C11.2944003,13.3004794 11.4611148,13.507329 11.5846089,13.7481425 C11.708103,13.988956 11.7698492,14.2884247 11.7698492,14.6465575 C11.7698492,15.0417387 11.7111903,15.3844296 11.5938709,15.6746408 C11.4765516,15.9648519 11.309837,16.2056618 11.0937223,16.3970777 C10.8776077,16.5884935 10.6244486,16.7335969 10.3342374,16.8323922 C10.0440263,16.9311875 9.72603376,16.9929336 9.38025028,17.0176324 L9.38025028,17.0176324 Z M8.36142905,6.12550726 L8.36142905,10.4601285 C8.0526938,10.3736826 7.76866163,10.2748888 7.50932402,10.1637441 C7.24998641,10.0525994 7.02461306,9.91984528 6.83319721,9.76547765 C6.64178135,9.61111003 6.49359066,9.41969705 6.38862067,9.19123296 C6.28365069,8.96276888 6.23116648,8.68799863 6.23116648,8.36691397 C6.23116648,7.6629976 6.43801599,7.12889363 6.85172123,6.76458603 C7.26542646,6.40027844 7.76865737,6.18725431 8.36142905,6.12550726 L8.36142905,6.12550726 Z" id="$" fill-opacity="0.532382246" fill="#00A0D2" opacity="0.333430504" mask="url(#mask-2)"></path>
            <g id="product-large" mask="url(#mask-2)">
                <g transform="translate(25.000000, 0.000000)">
                    <g id="image">
                        <mask id="mask-6" fill="white">
                            <use xlink:href="#path-4"></use>
                        </mask>
                        <g id="Mask-Copy" stroke="#00A0D2" mask="url(#mask-5)" stroke-width="2" fill-opacity="0.15" fill="url(#linearGradient-3)">
                            <use mask="url(#mask-7)" xlink:href="#path-4"></use>
                        </g>
                        <mask id="mask-9" fill="white">
                            <use xlink:href="#path-8"></use>
                        </mask>
                        <use id="Mask-Copy" fill="#00A0D2" opacity="0.141965951" xlink:href="#path-8"></use>
                        <path d="M28.0345971,27.8461544 C28.0345971,27.8461544 30.6093349,25.3965775 31.1701543,22.1022696 C32.6794834,22.1022696 33.611716,18.6000058 32.1023869,17.3680465 C32.1660155,16.0715492 34.0423187,7.18681357 24.5379847,7.18681357 C15.0336507,7.18681357 16.9099539,16.0715492 16.9735825,17.3680465 C15.4642534,18.6000058 16.3964861,22.1022696 17.9058152,22.1022696 C18.4666345,25.3965775 21.0428521,27.8461544 21.0428521,27.8461544 C21.0428521,27.8461544 21.0221358,30.1623526 20.146133,30.2957312 C17.3227998,30.7274189 6.78117198,35.1948848 6.78117198,40.0940384 L42.2947975,40.0940384 C42.2947975,35.1948848 31.7531696,30.7274189 28.9313161,30.2957312 C28.0553134,30.1623526 28.0345971,27.8461544 28.0345971,27.8461544 Z" id="Shape-Copy-6" fill="#00A0D2" opacity="0.141965951" mask="url(#mask-9)"></path>
                    </g>
                    <g id="text-small" opacity="0.6" transform="translate(16.765297, 46.342528)">
                        <rect id="Rectangle-166" fill="#00A0D2" x="0.0510197785" y="0.0715903388" width="15.7652967" height="5.68993674" rx="2.84496837"></rect>
                    </g>
                </g>
            </g>
        </g>
    </g>
</svg>