<?xml version="1.0" encoding="UTF-8" standalone="no"?>
<svg width="100px" height="68px" viewBox="0 0 100 68" version="1.1" xmlns="http://www.w3.org/2000/svg" xmlns:xlink="http://www.w3.org/1999/xlink">
    <!-- Generator: Sketch 3.8.1 (29687) - http://www.bohemiancoding.com/sketch -->
    <title>row-image-right</title>
    <desc>Created with Sketch.</desc>
    <defs>
        <rect id="path-1" x="0" y="0" width="100" height="68"></rect>
        <linearGradient x1="0%" y1="0%" x2="106.265625%" y2="109.895844%" id="linearGradient-3">
            <stop stop-color="#C8EAF4" stop-opacity="0.208021966" offset="0%"></stop>
            <stop stop-color="#3DD0FF" offset="100%"></stop>
        </linearGradient>
        <rect id="path-4" x="12" y="13" width="36.016129" height="43"></rect>
        <mask id="mask-5" maskContentUnits="userSpaceOnUse" maskUnits="objectBoundingBox" x="0" y="0" width="36.016129" height="43" fill="white">
            <use xlink:href="#path-4"></use>
        </mask>
        <rect id="path-6" x="52" y="13" width="36.016129" height="43"></rect>
        <mask id="mask-7" maskContentUnits="userSpaceOnUse" maskUnits="objectBoundingBox" x="0" y="0" width="36.016129" height="43" fill="white">
            <use xlink:href="#path-6"></use>
        </mask>
    </defs>
    <g id="Row-Presets" stroke="none" stroke-width="1" fill="none" fill-rule="evenodd">
        <g id="row-image-right">
            <mask id="mask-2" fill="white">
                <use xlink:href="#path-1"></use>
            </mask>
            <use id="BG" fill="#FFFFFF" xlink:href="#path-1"></use>
            <g id="Rectangle-486-Copy" mask="url(#mask-2)" stroke="#00A0D2" stroke-width="2" fill="url(#linearGradient-3)" fill-opacity="0.15">
                <use mask="url(#mask-5)" xlink:href="#path-4"></use>
            </g>
            <g id="Rectangle-486-Copy" mask="url(#mask-2)" stroke="#00A0D2" stroke-width="2" fill="url(#linearGradient-3)" fill-opacity="0.15">
                <use mask="url(#mask-7)" xlink:href="#path-6"></use>
            </g>
            <path d="M74.5445,42.4408312 C74.5445,42.4408312 77.1545,39.946743 77.723,36.5925741 C79.253,36.5925741 80.198,33.0266706 78.668,31.7723254 C78.7325,30.4522693 80.6345,21.406089 71,21.406089 C61.3655,21.406089 63.2675,30.4522693 63.332,31.7723254 C61.802,33.0266706 62.747,36.5925741 64.277,36.5925741 C64.8455,39.946743 67.457,42.4408312 67.457,42.4408312 C67.457,42.4408312 67.436,44.7991171 66.548,44.9349193 C63.686,45.3744512 53,49.9230956 53,54.9112718 L89,54.9112718 C89,49.9230956 78.314,45.3744512 75.4535,44.9349193 C74.5655,44.7991171 74.5445,42.4408312 74.5445,42.4408312 Z" id="Shape-Copy-6" fill="#00A0D2" opacity="0.141965951" mask="url(#mask-2)"></path>
        </g>
    </g>
</svg>