<?xml version="1.0" encoding="UTF-8" standalone="no"?>
<svg width="100px" height="68px" viewBox="0 0 100 68" version="1.1" xmlns="http://www.w3.org/2000/svg" xmlns:xlink="http://www.w3.org/1999/xlink">
    <!-- Generator: Sketch 3.8.1 (29687) - http://www.bohemiancoding.com/sketch -->
    <title>row-3-col-dashed</title>
    <desc>Created with Sketch.</desc>
    <defs>
        <rect id="path-1" x="0" y="0" width="100" height="68"></rect>
        <linearGradient x1="0%" y1="0%" x2="106.265625%" y2="109.895844%" id="linearGradient-3">
            <stop stop-color="#00A0D2" offset="0%"></stop>
            <stop stop-color="#3DD0FF" offset="100%"></stop>
        </linearGradient>
    </defs>
    <g id="Row-Presets" stroke="none" stroke-width="1" fill="none" fill-rule="evenodd">
        <g id="row-3-col-dashed">
            <mask id="mask-2" fill="white">
                <use xlink:href="#path-1"></use>
            </mask>
            <use id="BG" fill="#FFFFFF" xlink:href="#path-1"></use>
            <rect id="Rectangle-486-Copy" fill-opacity="0.15" fill="url(#linearGradient-3)" mask="url(#mask-2)" x="12" y="10" width="23" height="22"></rect>
            <rect id="Rectangle-486-Copy" fill-opacity="0.15" fill="url(#linearGradient-3)" mask="url(#mask-2)" x="39" y="10" width="23" height="22"></rect>
            <rect id="Rectangle-486-Copy" fill-opacity="0.15" fill="url(#linearGradient-3)" mask="url(#mask-2)" x="66" y="10" width="23" height="22"></rect>
            <rect id="Rectangle-486-Copy" fill-opacity="0.15" fill="url(#linearGradient-3)" mask="url(#mask-2)" x="12" y="37" width="23" height="22"></rect>
            <rect id="Rectangle-486-Copy" fill-opacity="0.15" fill="url(#linearGradient-3)" mask="url(#mask-2)" x="39" y="37" width="23" height="22"></rect>
            <rect id="Rectangle-486-Copy" fill-opacity="0.15" fill="url(#linearGradient-3)" mask="url(#mask-2)" x="66" y="37" width="23" height="22"></rect>
            <path d="M87.5,34 L86.5,34 C86.2238576,34 86,34.2238576 86,34.5 C86,34.7761424 86.2238576,35 86.5,35 L87.5,35 C87.7761424,35 88,34.7761424 88,34.5 C88,34.2238576 87.7761424,34 87.5,34 L87.5,34 Z M84.5,34 L83.5,34 C83.2238576,34 83,34.2238576 83,34.5 C83,34.7761424 83.2238576,35 83.5,35 L84.5,35 C84.7761424,35 85,34.7761424 85,34.5 C85,34.2238576 84.7761424,34 84.5,34 L84.5,34 Z M81.5,34 L80.5,34 C80.2238576,34 80,34.2238576 80,34.5 C80,34.7761424 80.2238576,35 80.5,35 L81.5,35 C81.7761424,35 82,34.7761424 82,34.5 C82,34.2238576 81.7761424,34 81.5,34 L81.5,34 Z M78.5,34 L77.5,34 C77.2238576,34 77,34.2238576 77,34.5 C77,34.7761424 77.2238576,35 77.5,35 L78.5,35 C78.7761424,35 79,34.7761424 79,34.5 C79,34.2238576 78.7761424,34 78.5,34 L78.5,34 Z M75.5,34 L74.5,34 C74.2238576,34 74,34.2238576 74,34.5 C74,34.7761424 74.2238576,35 74.5,35 L75.5,35 C75.7761424,35 76,34.7761424 76,34.5 C76,34.2238576 75.7761424,34 75.5,34 L75.5,34 Z M72.5,34 L71.5,34 C71.2238576,34 71,34.2238576 71,34.5 C71,34.7761424 71.2238576,35 71.5,35 L72.5,35 C72.7761424,35 73,34.7761424 73,34.5 C73,34.2238576 72.7761424,34 72.5,34 L72.5,34 Z M69.5,34 L68.5,34 C68.2238576,34 68,34.2238576 68,34.5 C68,34.7761424 68.2238576,35 68.5,35 L69.5,35 C69.7761424,35 70,34.7761424 70,34.5 C70,34.2238576 69.7761424,34 69.5,34 L69.5,34 Z M66.5,34 L65.5,34 C65.2238576,34 65,34.2238576 65,34.5 C65,34.7761424 65.2238576,35 65.5,35 L66.5,35 C66.7761424,35 67,34.7761424 67,34.5 C67,34.2238576 66.7761424,34 66.5,34 L66.5,34 Z M63.5,34 L62.5,34 C62.2238576,34 62,34.2238576 62,34.5 C62,34.7761424 62.2238576,35 62.5,35 L63.5,35 C63.7761424,35 64,34.7761424 64,34.5 C64,34.2238576 63.7761424,34 63.5,34 L63.5,34 Z M60.5,34 L59.5,34 C59.2238576,34 59,34.2238576 59,34.5 C59,34.7761424 59.2238576,35 59.5,35 L60.5,35 C60.7761424,35 61,34.7761424 61,34.5 C61,34.2238576 60.7761424,34 60.5,34 L60.5,34 Z M57.5,34 L56.5,34 C56.2238576,34 56,34.2238576 56,34.5 C56,34.7761424 56.2238576,35 56.5,35 L57.5,35 C57.7761424,35 58,34.7761424 58,34.5 C58,34.2238576 57.7761424,34 57.5,34 L57.5,34 Z M54.5,34 L53.5,34 C53.2238576,34 53,34.2238576 53,34.5 C53,34.7761424 53.2238576,35 53.5,35 L54.5,35 C54.7761424,35 55,34.7761424 55,34.5 C55,34.2238576 54.7761424,34 54.5,34 L54.5,34 Z M51.5,34 L50.5,34 C50.2238576,34 50,34.2238576 50,34.5 C50,34.7761424 50.2238576,35 50.5,35 L51.5,35 C51.7761424,35 52,34.7761424 52,34.5 C52,34.2238576 51.7761424,34 51.5,34 L51.5,34 Z M48.5,34 L47.5,34 C47.2238576,34 47,34.2238576 47,34.5 C47,34.7761424 47.2238576,35 47.5,35 L48.5,35 C48.7761424,35 49,34.7761424 49,34.5 C49,34.2238576 48.7761424,34 48.5,34 L48.5,34 Z M45.5,34 L44.5,34 C44.2238576,34 44,34.2238576 44,34.5 C44,34.7761424 44.2238576,35 44.5,35 L45.5,35 C45.7761424,35 46,34.7761424 46,34.5 C46,34.2238576 45.7761424,34 45.5,34 L45.5,34 Z M42.5,34 L41.5,34 C41.2238576,34 41,34.2238576 41,34.5 C41,34.7761424 41.2238576,35 41.5,35 L42.5,35 C42.7761424,35 43,34.7761424 43,34.5 C43,34.2238576 42.7761424,34 42.5,34 L42.5,34 Z M39.5,34 L38.5,34 C38.2238576,34 38,34.2238576 38,34.5 C38,34.7761424 38.2238576,35 38.5,35 L39.5,35 C39.7761424,35 40,34.7761424 40,34.5 C40,34.2238576 39.7761424,34 39.5,34 L39.5,34 Z M36.5,34 L35.5,34 C35.2238576,34 35,34.2238576 35,34.5 C35,34.7761424 35.2238576,35 35.5,35 L36.5,35 C36.7761424,35 37,34.7761424 37,34.5 C37,34.2238576 36.7761424,34 36.5,34 L36.5,34 Z M33.5,34 L32.5,34 C32.2238576,34 32,34.2238576 32,34.5 C32,34.7761424 32.2238576,35 32.5,35 L33.5,35 C33.7761424,35 34,34.7761424 34,34.5 C34,34.2238576 33.7761424,34 33.5,34 L33.5,34 Z M30.5,34 L29.5,34 C29.2238576,34 29,34.2238576 29,34.5 C29,34.7761424 29.2238576,35 29.5,35 L30.5,35 C30.7761424,35 31,34.7761424 31,34.5 C31,34.2238576 30.7761424,34 30.5,34 L30.5,34 Z M27.5,34 L26.5,34 C26.2238576,34 26,34.2238576 26,34.5 C26,34.7761424 26.2238576,35 26.5,35 L27.5,35 C27.7761424,35 28,34.7761424 28,34.5 C28,34.2238576 27.7761424,34 27.5,34 L27.5,34 Z M24.5,34 L23.5,34 C23.2238576,34 23,34.2238576 23,34.5 C23,34.7761424 23.2238576,35 23.5,35 L24.5,35 C24.7761424,35 25,34.7761424 25,34.5 C25,34.2238576 24.7761424,34 24.5,34 L24.5,34 Z M21.5,34 L20.5,34 C20.2238576,34 20,34.2238576 20,34.5 C20,34.7761424 20.2238576,35 20.5,35 L21.5,35 C21.7761424,35 22,34.7761424 22,34.5 C22,34.2238576 21.7761424,34 21.5,34 L21.5,34 Z M18.5,34 L17.5,34 C17.2238576,34 17,34.2238576 17,34.5 C17,34.7761424 17.2238576,35 17.5,35 L18.5,35 C18.7761424,35 19,34.7761424 19,34.5 C19,34.2238576 18.7761424,34 18.5,34 L18.5,34 Z M15.5,34 L14.5,34 C14.2238576,34 14,34.2238576 14,34.5 C14,34.7761424 14.2238576,35 14.5,35 L15.5,35 C15.7761424,35 16,34.7761424 16,34.5 C16,34.2238576 15.7761424,34 15.5,34 L15.5,34 Z" id="Line" fill="#00A0D2" mask="url(#mask-2)"></path>
            <path d="M37,10.5 L37,11.5 C37,11.7761424 37.2238576,12 37.5,12 C37.7761424,12 38,11.7761424 38,11.5 L38,10.5 C38,10.2238576 37.7761424,10 37.5,10 C37.2238576,10 37,10.2238576 37,10.5 L37,10.5 Z M37,13.5 L37,14.5 C37,14.7761424 37.2238576,15 37.5,15 C37.7761424,15 38,14.7761424 38,14.5 L38,13.5 C38,13.2238576 37.7761424,13 37.5,13 C37.2238576,13 37,13.2238576 37,13.5 L37,13.5 Z M37,16.5 L37,17.5 C37,17.7761424 37.2238576,18 37.5,18 C37.7761424,18 38,17.7761424 38,17.5 L38,16.5 C38,16.2238576 37.7761424,16 37.5,16 C37.2238576,16 37,16.2238576 37,16.5 L37,16.5 Z M37,19.5 L37,20.5 C37,20.7761424 37.2238576,21 37.5,21 C37.7761424,21 38,20.7761424 38,20.5 L38,19.5 C38,19.2238576 37.7761424,19 37.5,19 C37.2238576,19 37,19.2238576 37,19.5 L37,19.5 Z M37,22.5 L37,23.5 C37,23.7761424 37.2238576,24 37.5,24 C37.7761424,24 38,23.7761424 38,23.5 L38,22.5 C38,22.2238576 37.7761424,22 37.5,22 C37.2238576,22 37,22.2238576 37,22.5 L37,22.5 Z M37,25.5 L37,26.5 C37,26.7761424 37.2238576,27 37.5,27 C37.7761424,27 38,26.7761424 38,26.5 L38,25.5 C38,25.2238576 37.7761424,25 37.5,25 C37.2238576,25 37,25.2238576 37,25.5 L37,25.5 Z M37,28.5 L37,29.5 C37,29.7761424 37.2238576,30 37.5,30 C37.7761424,30 38,29.7761424 38,29.5 L38,28.5 C38,28.2238576 37.7761424,28 37.5,28 C37.2238576,28 37,28.2238576 37,28.5 L37,28.5 Z M37,31.5 L37,32.5 C37,32.7761424 37.2238576,33 37.5,33 C37.7761424,33 38,32.7761424 38,32.5 L38,31.5 C38,31.2238576 37.7761424,31 37.5,31 C37.2238576,31 37,31.2238576 37,31.5 L37,31.5 Z M37,34.5 L37,35.5 C37,35.7761424 37.2238576,36 37.5,36 C37.7761424,36 38,35.7761424 38,35.5 L38,34.5 C38,34.2238576 37.7761424,34 37.5,34 C37.2238576,34 37,34.2238576 37,34.5 L37,34.5 Z M37,37.5 L37,38.5 C37,38.7761424 37.2238576,39 37.5,39 C37.7761424,39 38,38.7761424 38,38.5 L38,37.5 C38,37.2238576 37.7761424,37 37.5,37 C37.2238576,37 37,37.2238576 37,37.5 L37,37.5 Z M37,40.5 L37,41.5 C37,41.7761424 37.2238576,42 37.5,42 C37.7761424,42 38,41.7761424 38,41.5 L38,40.5 C38,40.2238576 37.7761424,40 37.5,40 C37.2238576,40 37,40.2238576 37,40.5 L37,40.5 Z M37,43.5 L37,44.5 C37,44.7761424 37.2238576,45 37.5,45 C37.7761424,45 38,44.7761424 38,44.5 L38,43.5 C38,43.2238576 37.7761424,43 37.5,43 C37.2238576,43 37,43.2238576 37,43.5 L37,43.5 Z M37,46.5 L37,47.5 C37,47.7761424 37.2238576,48 37.5,48 C37.7761424,48 38,47.7761424 38,47.5 L38,46.5 C38,46.2238576 37.7761424,46 37.5,46 C37.2238576,46 37,46.2238576 37,46.5 L37,46.5 Z M37,49.5 L37,50.5 C37,50.7761424 37.2238576,51 37.5,51 C37.7761424,51 38,50.7761424 38,50.5 L38,49.5 C38,49.2238576 37.7761424,49 37.5,49 C37.2238576,49 37,49.2238576 37,49.5 L37,49.5 Z M37,52.5 L37,53.5 C37,53.7761424 37.2238576,54 37.5,54 C37.7761424,54 38,53.7761424 38,53.5 L38,52.5 C38,52.2238576 37.7761424,52 37.5,52 C37.2238576,52 37,52.2238576 37,52.5 L37,52.5 Z M37,55.5 L37,56.5 C37,56.7761424 37.2238576,57 37.5,57 C37.7761424,57 38,56.7761424 38,56.5 L38,55.5 C38,55.2238576 37.7761424,55 37.5,55 C37.2238576,55 37,55.2238576 37,55.5 L37,55.5 Z" id="Line" fill="#00A0D2" mask="url(#mask-2)"></path>
            <path d="M63,10.5 L63,11.5 C63,11.7761424 63.2238576,12 63.5,12 C63.7761424,12 64,11.7761424 64,11.5 L64,10.5 C64,10.2238576 63.7761424,10 63.5,10 C63.2238576,10 63,10.2238576 63,10.5 L63,10.5 Z M63,13.5 L63,14.5 C63,14.7761424 63.2238576,15 63.5,15 C63.7761424,15 64,14.7761424 64,14.5 L64,13.5 C64,13.2238576 63.7761424,13 63.5,13 C63.2238576,13 63,13.2238576 63,13.5 L63,13.5 Z M63,16.5 L63,17.5 C63,17.7761424 63.2238576,18 63.5,18 C63.7761424,18 64,17.7761424 64,17.5 L64,16.5 C64,16.2238576 63.7761424,16 63.5,16 C63.2238576,16 63,16.2238576 63,16.5 L63,16.5 Z M63,19.5 L63,20.5 C63,20.7761424 63.2238576,21 63.5,21 C63.7761424,21 64,20.7761424 64,20.5 L64,19.5 C64,19.2238576 63.7761424,19 63.5,19 C63.2238576,19 63,19.2238576 63,19.5 L63,19.5 Z M63,22.5 L63,23.5 C63,23.7761424 63.2238576,24 63.5,24 C63.7761424,24 64,23.7761424 64,23.5 L64,22.5 C64,22.2238576 63.7761424,22 63.5,22 C63.2238576,22 63,22.2238576 63,22.5 L63,22.5 Z M63,25.5 L63,26.5 C63,26.7761424 63.2238576,27 63.5,27 C63.7761424,27 64,26.7761424 64,26.5 L64,25.5 C64,25.2238576 63.7761424,25 63.5,25 C63.2238576,25 63,25.2238576 63,25.5 L63,25.5 Z M63,28.5 L63,29.5 C63,29.7761424 63.2238576,30 63.5,30 C63.7761424,30 64,29.7761424 64,29.5 L64,28.5 C64,28.2238576 63.7761424,28 63.5,28 C63.2238576,28 63,28.2238576 63,28.5 L63,28.5 Z M63,31.5 L63,32.5 C63,32.7761424 63.2238576,33 63.5,33 C63.7761424,33 64,32.7761424 64,32.5 L64,31.5 C64,31.2238576 63.7761424,31 63.5,31 C63.2238576,31 63,31.2238576 63,31.5 L63,31.5 Z M63,34.5 L63,35.5 C63,35.7761424 63.2238576,36 63.5,36 C63.7761424,36 64,35.7761424 64,35.5 L64,34.5 C64,34.2238576 63.7761424,34 63.5,34 C63.2238576,34 63,34.2238576 63,34.5 L63,34.5 Z M63,37.5 L63,38.5 C63,38.7761424 63.2238576,39 63.5,39 C63.7761424,39 64,38.7761424 64,38.5 L64,37.5 C64,37.2238576 63.7761424,37 63.5,37 C63.2238576,37 63,37.2238576 63,37.5 L63,37.5 Z M63,40.5 L63,41.5 C63,41.7761424 63.2238576,42 63.5,42 C63.7761424,42 64,41.7761424 64,41.5 L64,40.5 C64,40.2238576 63.7761424,40 63.5,40 C63.2238576,40 63,40.2238576 63,40.5 L63,40.5 Z M63,43.5 L63,44.5 C63,44.7761424 63.2238576,45 63.5,45 C63.7761424,45 64,44.7761424 64,44.5 L64,43.5 C64,43.2238576 63.7761424,43 63.5,43 C63.2238576,43 63,43.2238576 63,43.5 L63,43.5 Z M63,46.5 L63,47.5 C63,47.7761424 63.2238576,48 63.5,48 C63.7761424,48 64,47.7761424 64,47.5 L64,46.5 C64,46.2238576 63.7761424,46 63.5,46 C63.2238576,46 63,46.2238576 63,46.5 L63,46.5 Z M63,49.5 L63,50.5 C63,50.7761424 63.2238576,51 63.5,51 C63.7761424,51 64,50.7761424 64,50.5 L64,49.5 C64,49.2238576 63.7761424,49 63.5,49 C63.2238576,49 63,49.2238576 63,49.5 L63,49.5 Z M63,52.5 L63,53.5 C63,53.7761424 63.2238576,54 63.5,54 C63.7761424,54 64,53.7761424 64,53.5 L64,52.5 C64,52.2238576 63.7761424,52 63.5,52 C63.2238576,52 63,52.2238576 63,52.5 L63,52.5 Z M63,55.5 L63,56.5 C63,56.7761424 63.2238576,57 63.5,57 C63.7761424,57 64,56.7761424 64,56.5 L64,55.5 C64,55.2238576 63.7761424,55 63.5,55 C63.2238576,55 63,55.2238576 63,55.5 L63,55.5 Z" id="Line" fill="#00A0D2" mask="url(#mask-2)"></path>
        </g>
    </g>
</svg>