<?xml version="1.0" encoding="UTF-8" standalone="no"?>
<svg width="100px" height="68px" viewBox="0 0 100 68" version="1.1" xmlns="http://www.w3.org/2000/svg" xmlns:xlink="http://www.w3.org/1999/xlink">
    <!-- Generator: Sketch 3.8.1 (29687) - http://www.bohemiancoding.com/sketch -->
    <title>scroll_to</title>
    <desc>Created with Sketch.</desc>
    <defs>
        <rect id="path-1" x="0" y="0" width="100" height="68"></rect>
    </defs>
    <g id="Elements" stroke="none" stroke-width="1" fill="none" fill-rule="evenodd">
        <g id="scroll_to">
            <mask id="mask-2" fill="white">
                <use xlink:href="#path-1"></use>
            </mask>
            <use id="BG" fill="#FFFFFF" xlink:href="#path-1"></use>
            <circle id="Oval-1" fill="#00A0D2" mask="url(#mask-2)" cx="77" cy="32.1328125" r="5"></circle>
            <path d="M14.5,25 L13,25 L13,43 L14.5,43 L62.5,43 L64,43 L64,37.2954102 C64,35.5533854 67.4541016,34.4690755 67.4541016,32.7270508 C67.4541016,31.8513997 64,30.3180339 64,29.4423828 L64,25 L62.5,25 L14.5,25 Z" id="Line" fill="#00A0D2" mask="url(#mask-2)"></path>
            <ellipse id="Oval-1" fill-opacity="0.532382246" fill="#00A0D2" opacity="0.333430504" mask="url(#mask-2)" cx="77" cy="17.0796875" rx="5" ry="5"></ellipse>
            <path d="M77,51.6976563 C79.7614237,51.6976563 82,49.45908 82,46.6976563 C82,43.9362325 79.7614237,41.6976563 77,41.6976563 C74.2385763,41.6976563 72,43.9362325 72,46.6976563 C72,49.45908 74.2385763,51.6976563 77,51.6976563 Z" id="Oval-1" fill-opacity="0.532382246" fill="#00A0D2" opacity="0.333430504" mask="url(#mask-2)"></path>
            <path d="M24.91,31.95 L25.81,31.95 C25.7966666,31.5566647 25.7216673,31.2183348 25.585,30.935 C25.4483326,30.6516652 25.2616679,30.4166676 25.025,30.23 C24.7883322,30.0433324 24.5133349,29.9066671 24.2,29.82 C23.8866651,29.7333329 23.5466685,29.69 23.18,29.69 C22.8533317,29.69 22.5350016,29.7316662 22.225,29.815 C21.9149985,29.8983338 21.6383345,30.0249991 21.395,30.195 C21.1516654,30.3650009 20.9566674,30.5816653 20.81,30.845 C20.6633326,31.1083346 20.59,31.4199982 20.59,31.78 C20.59,32.1066683 20.6549993,32.3783322 20.785,32.595 C20.9150006,32.8116677 21.0883323,32.9883326 21.305,33.125 C21.5216678,33.2616674 21.7666653,33.3716662 22.04,33.455 C22.3133347,33.5383337 22.5916653,33.6116663 22.875,33.675 C23.1583347,33.7383336 23.4366653,33.7999997 23.71,33.86 C23.9833347,33.9200003 24.2283322,33.9983328 24.445,34.095 C24.6616677,34.1916672 24.8349994,34.3166659 24.965,34.47 C25.0950007,34.6233341 25.16,34.8233321 25.16,35.07 C25.16,35.3300013 25.1066672,35.5433325 25,35.71 C24.8933328,35.8766675 24.7533342,36.0083328 24.58,36.105 C24.4066658,36.2016672 24.2116678,36.2699998 23.995,36.31 C23.7783323,36.3500002 23.5633344,36.37 23.35,36.37 C23.083332,36.37 22.8233346,36.336667 22.57,36.27 C22.3166654,36.203333 22.095001,36.1000007 21.905,35.96 C21.714999,35.8199993 21.5616672,35.6416678 21.445,35.425 C21.3283327,35.2083323 21.27,34.9500015 21.27,34.65 L20.37,34.65 C20.37,35.0833355 20.4483326,35.4583317 20.605,35.775 C20.7616675,36.0916682 20.9749987,36.3516656 21.245,36.555 C21.5150014,36.7583344 21.8283316,36.9099995 22.185,37.01 C22.5416685,37.1100005 22.919998,37.16 23.32,37.16 C23.6466683,37.16 23.9749983,37.1216671 24.305,37.045 C24.6350016,36.9683329 24.933332,36.8450009 25.2,36.675 C25.466668,36.5049992 25.6849992,36.2850014 25.855,36.015 C26.0250008,35.7449986 26.11,35.4200019 26.11,35.04 C26.11,34.6866649 26.0450006,34.3933345 25.915,34.16 C25.7849993,33.9266655 25.6116678,33.7333341 25.395,33.58 C25.1783323,33.4266659 24.9333347,33.3050004 24.66,33.215 C24.3866653,33.1249995 24.1083348,33.046667 23.825,32.98 C23.5416652,32.913333 23.2633347,32.8516669 22.99,32.795 C22.7166653,32.7383331 22.4716677,32.6666671 22.255,32.58 C22.0383322,32.4933329 21.8650007,32.3816674 21.735,32.245 C21.6049994,32.1083326 21.54,31.9300011 21.54,31.71 C21.54,31.4766655 21.5849995,31.2816674 21.675,31.125 C21.7650005,30.9683326 21.8849992,30.8433338 22.035,30.75 C22.1850008,30.6566662 22.3566657,30.5900002 22.55,30.55 C22.7433343,30.5099998 22.939999,30.49 23.14,30.49 C23.6333358,30.49 24.0383317,30.6049989 24.355,30.835 C24.6716683,31.0650011 24.8566664,31.4366641 24.91,31.95 L24.91,31.95 Z M30.63,33.49 L31.51,33.49 C31.4766665,33.1833318 31.3966673,32.9183344 31.27,32.695 C31.1433327,32.4716656 30.9816676,32.2866674 30.785,32.14 C30.5883324,31.9933326 30.3616679,31.8850004 30.105,31.815 C29.8483321,31.7449996 29.5733348,31.71 29.28,31.71 C28.8733313,31.71 28.5166682,31.781666 28.21,31.925 C27.9033318,32.068334 27.6483343,32.2649988 27.445,32.515 C27.2416656,32.7650012 27.0900005,33.0583317 26.99,33.395 C26.8899995,33.7316683 26.84,34.0933314 26.84,34.48 C26.84,34.8666686 26.8916661,35.221665 26.995,35.545 C27.0983338,35.8683349 27.2516657,36.1466655 27.455,36.38 C27.6583343,36.6133345 27.9116652,36.7933327 28.215,36.92 C28.5183349,37.0466673 28.8666647,37.11 29.26,37.11 C29.9200033,37.11 30.4416648,36.9366684 30.825,36.59 C31.2083353,36.2433316 31.4466662,35.7500032 31.54,35.11 L30.67,35.11 C30.6166664,35.510002 30.4716678,35.8199989 30.235,36.04 C29.9983322,36.2600011 29.6700021,36.37 29.25,36.37 C28.983332,36.37 28.7533343,36.3166672 28.56,36.21 C28.3666657,36.1033328 28.2100006,35.9616676 28.09,35.785 C27.9699994,35.6083325 27.881667,35.4066678 27.825,35.18 C27.768333,34.9533322 27.74,34.7200012 27.74,34.48 C27.74,34.2199987 27.7666664,33.9683346 27.82,33.725 C27.8733336,33.4816655 27.961666,33.2666676 28.085,33.08 C28.2083339,32.8933324 28.3733323,32.7433339 28.58,32.63 C28.7866677,32.5166661 29.0433318,32.46 29.35,32.46 C29.7100018,32.46 29.9966656,32.5499991 30.21,32.73 C30.4233344,32.9100009 30.563333,33.1633317 30.63,33.49 L30.63,33.49 Z M32.46,31.83 L32.46,37 L33.31,37 L33.31,34.7 C33.31,34.366665 33.343333,34.071668 33.41,33.815 C33.476667,33.558332 33.5833326,33.3400009 33.73,33.16 C33.8766674,32.9799991 34.0699988,32.8433338 34.31,32.75 C34.5500012,32.6566662 34.8399983,32.61 35.18,32.61 L35.18,31.71 C34.7199977,31.6966666 34.3400015,31.789999 34.04,31.99 C33.7399985,32.190001 33.4866677,32.4999979 33.28,32.92 L33.26,32.92 L33.26,31.83 L32.46,31.83 Z M36.44,34.42 C36.44,34.1066651 36.4816662,33.8283346 36.565,33.585 C36.6483338,33.3416655 36.7633326,33.1366675 36.91,32.97 C37.0566674,32.8033325 37.2283324,32.6766671 37.425,32.59 C37.6216677,32.5033329 37.8299989,32.46 38.05,32.46 C38.2700011,32.46 38.4783324,32.5033329 38.675,32.59 C38.8716677,32.6766671 39.0433326,32.8033325 39.19,32.97 C39.3366674,33.1366675 39.4516663,33.3416655 39.535,33.585 C39.6183338,33.8283346 39.66,34.1066651 39.66,34.42 C39.66,34.7333349 39.6183338,35.0116655 39.535,35.255 C39.4516663,35.4983345 39.3366674,35.7016659 39.19,35.865 C39.0433326,36.0283341 38.8716677,36.1533329 38.675,36.24 C38.4783324,36.3266671 38.2700011,36.37 38.05,36.37 C37.8299989,36.37 37.6216677,36.3266671 37.425,36.24 C37.2283324,36.1533329 37.0566674,36.0283341 36.91,35.865 C36.7633326,35.7016659 36.6483338,35.4983345 36.565,35.255 C36.4816662,35.0116655 36.44,34.7333349 36.44,34.42 L36.44,34.42 Z M35.54,34.42 C35.54,34.8000019 35.5933328,35.1533317 35.7,35.48 C35.8066672,35.8066683 35.9666656,36.0916655 36.18,36.335 C36.3933344,36.5783346 36.6566651,36.7683327 36.97,36.905 C37.2833349,37.0416674 37.6433313,37.11 38.05,37.11 C38.4633354,37.11 38.8249985,37.0416674 39.135,36.905 C39.4450016,36.7683327 39.7066656,36.5783346 39.92,36.335 C40.1333344,36.0916655 40.2933328,35.8066683 40.4,35.48 C40.5066672,35.1533317 40.56,34.8000019 40.56,34.42 C40.56,34.0399981 40.5066672,33.6850017 40.4,33.355 C40.2933328,33.0249984 40.1333344,32.7383345 39.92,32.495 C39.7066656,32.2516655 39.4450016,32.0600007 39.135,31.92 C38.8249985,31.7799993 38.4633354,31.71 38.05,31.71 C37.6433313,31.71 37.2833349,31.7799993 36.97,31.92 C36.6566651,32.0600007 36.3933344,32.2516655 36.18,32.495 C35.9666656,32.7383345 35.8066672,33.0249984 35.7,33.355 C35.5933328,33.6850017 35.54,34.0399981 35.54,34.42 L35.54,34.42 Z M41.61,29.86 L41.61,37 L42.46,37 L42.46,29.86 L41.61,29.86 Z M43.83,29.86 L43.83,37 L44.68,37 L44.68,29.86 L43.83,29.86 Z M49.96,31.83 L49.96,30.28 L49.11,30.28 L49.11,31.83 L48.23,31.83 L48.23,32.58 L49.11,32.58 L49.11,35.87 C49.11,36.1100012 49.1333331,36.3033326 49.18,36.45 C49.2266669,36.5966674 49.2983329,36.7099996 49.395,36.79 C49.4916672,36.8700004 49.6183325,36.9249998 49.775,36.955 C49.9316674,36.9850002 50.1199989,37 50.34,37 L50.99,37 L50.99,36.25 L50.6,36.25 C50.466666,36.25 50.3583338,36.2450001 50.275,36.235 C50.1916662,36.2249999 50.1266669,36.2033335 50.08,36.17 C50.0333331,36.1366665 50.0016667,36.0900003 49.985,36.03 C49.9683333,35.9699997 49.96,35.8900005 49.96,35.79 L49.96,32.58 L50.99,32.58 L50.99,31.83 L49.96,31.83 Z M52.55,34.42 C52.55,34.1066651 52.5916663,33.8283346 52.675,33.585 C52.7583337,33.3416655 52.8733326,33.1366675 53.02,32.97 C53.1666674,32.8033325 53.3383324,32.6766671 53.535,32.59 C53.7316676,32.5033329 53.9399989,32.46 54.16,32.46 C54.3800011,32.46 54.5883324,32.5033329 54.785,32.59 C54.9816676,32.6766671 55.1533326,32.8033325 55.3,32.97 C55.4466674,33.1366675 55.5616663,33.3416655 55.645,33.585 C55.7283337,33.8283346 55.77,34.1066651 55.77,34.42 C55.77,34.7333349 55.7283337,35.0116655 55.645,35.255 C55.5616663,35.4983345 55.4466674,35.7016659 55.3,35.865 C55.1533326,36.0283341 54.9816676,36.1533329 54.785,36.24 C54.5883324,36.3266671 54.3800011,36.37 54.16,36.37 C53.9399989,36.37 53.7316676,36.3266671 53.535,36.24 C53.3383324,36.1533329 53.1666674,36.0283341 53.02,35.865 C52.8733326,35.7016659 52.7583337,35.4983345 52.675,35.255 C52.5916663,35.0116655 52.55,34.7333349 52.55,34.42 L52.55,34.42 Z M51.65,34.42 C51.65,34.8000019 51.7033328,35.1533317 51.81,35.48 C51.9166672,35.8066683 52.0766656,36.0916655 52.29,36.335 C52.5033344,36.5783346 52.7666651,36.7683327 53.08,36.905 C53.3933349,37.0416674 53.7533313,37.11 54.16,37.11 C54.5733354,37.11 54.9349984,37.0416674 55.245,36.905 C55.5550015,36.7683327 55.8166656,36.5783346 56.03,36.335 C56.2433344,36.0916655 56.4033328,35.8066683 56.51,35.48 C56.6166672,35.1533317 56.67,34.8000019 56.67,34.42 C56.67,34.0399981 56.6166672,33.6850017 56.51,33.355 C56.4033328,33.0249984 56.2433344,32.7383345 56.03,32.495 C55.8166656,32.2516655 55.5550015,32.0600007 55.245,31.92 C54.9349984,31.7799993 54.5733354,31.71 54.16,31.71 C53.7533313,31.71 53.3933349,31.7799993 53.08,31.92 C52.7666651,32.0600007 52.5033344,32.2516655 52.29,32.495 C52.0766656,32.7383345 51.9166672,33.0249984 51.81,33.355 C51.7033328,33.6850017 51.65,34.0399981 51.65,34.42 L51.65,34.42 Z" id="Scroll-to" fill="#FFFFFF" opacity="0.760436101" mask="url(#mask-2)"></path>
        </g>
    </g>
</svg>