<?xml version="1.0" encoding="UTF-8" standalone="no"?>
<svg width="100px" height="68px" viewBox="0 0 100 68" version="1.1" xmlns="http://www.w3.org/2000/svg" xmlns:xlink="http://www.w3.org/1999/xlink">
    <!-- Generator: Sketch 3.8.1 (29687) - http://www.bohemiancoding.com/sketch -->
    <title>search</title>
    <desc>Created with Sketch.</desc>
    <defs>
        <rect id="path-1" x="0" y="0" width="100" height="68"></rect>
        <linearGradient x1="0%" y1="0%" x2="106.265625%" y2="109.895844%" id="linearGradient-3">
            <stop stop-color="#C8EAF4" stop-opacity="0.208021966" offset="0%"></stop>
            <stop stop-color="#3DD0FF" offset="100%"></stop>
        </linearGradient>
        <rect id="path-4" x="0" y="2.13162821e-14" width="52" height="22.9447679"></rect>
        <mask id="mask-5" maskContentUnits="userSpaceOnUse" maskUnits="objectBoundingBox" x="0" y="0" width="52" height="22.9447679" fill="white">
            <use xlink:href="#path-4"></use>
        </mask>
    </defs>
    <g id="Elements" stroke="none" stroke-width="1" fill="none" fill-rule="evenodd">
        <g id="search">
            <mask id="mask-2" fill="white">
                <use xlink:href="#path-1"></use>
            </mask>
            <use id="BG" fill="#FFFFFF" xlink:href="#path-1"></use>
            <g id="Rectangle-166-Copy-+-Shape-Copy-18" mask="url(#mask-2)">
                <g transform="translate(17.000000, 21.000000)">
                    <use id="Rectangle-166-Copy" stroke="#00A0D2" mask="url(#mask-5)" stroke-width="2" fill-opacity="0.15" fill="url(#linearGradient-3)" xlink:href="#path-4"></use>
                    <rect id="Rectangle-166-Copy" stroke="none" fill="#00A0D2" x="49" y="2.13162821e-14" width="20" height="22.9447679"></rect>
                    <path d="M64.7298142,16.4231659 L62.5615736,14.2549253 C63.1559822,13.4038401 63.5072237,12.3703796 63.5072237,11.2536119 C63.5072237,8.35211708 61.1543561,6 58.2536119,6 C55.3528676,6 53,8.35211708 53,11.2536119 C53,14.1551066 55.3521171,16.5072237 58.2536119,16.5072237 C59.3703796,16.5072237 60.4045907,16.1559822 61.2556758,15.5615736 L63.4239164,17.7298142 C63.7841641,18.0900619 64.3695666,18.0900619 64.7298142,17.7298142 C65.0900619,17.3695666 65.0900619,16.7849146 64.7298142,16.4231659 L64.7298142,16.4231659 Z M58.2528613,15.0069423 C56.1806867,15.0069423 54.5002814,13.3272875 54.5002814,11.2543624 C54.5002814,9.18143724 56.1806867,7.50178248 58.2528613,7.50178248 C60.3257865,7.50178248 62.0054412,9.18143724 62.0054412,11.2543624 C62.0061918,13.3272875 60.326537,15.0069423 58.2528613,15.0069423 L58.2528613,15.0069423 Z" id="Shape" stroke="none" fill="#FFFFFF"></path>
                    <path d="M29,22.1205776 C29,20.7725725 28.8739267,19.4532484 28.5652041,18.1769456 C28.3391445,17.2974261 27.683058,16.6042879 26.826102,16.6042879 C26.3091323,16.6042879 25.8391598,16.8528712 25.5217551,17.2501025 L25.5217551,17.0823189 C25.5217551,16.0259185 24.7435083,15.17024 23.7826122,15.17024 C22.8217162,15.17024 22.0434694,16.0258737 22.0434694,17.0823189 L22.0434694,16.1263018 C22.0434694,15.0699014 21.2652226,14.2142229 20.3043266,14.2142229 C19.3434305,14.2142229 18.5651837,15.0698566 18.5651837,16.1263018 L18.5652245,9.91207893 C18.5652245,8.85567851 17.7869777,8 16.8260816,8 C15.8651856,8 15.0869388,8.8556337 15.0869388,9.91207893 L15.0869388,20.8160869 C15.0869388,21.3461917 14.6956347,21.772104 14.2173878,21.772104 C14.1347655,21.772104 14.0565047,21.7577635 13.9782439,21.7338776 L11.5217102,20.6344558 C11.2869686,20.5048985 11.0217785,20.428401 10.7391428,20.428401 C9.77828751,20.428401 9,21.2840347 9,22.3404799 C9,23.1340014 9.44347796,23.8175493 10.0695645,24.109154 C12.8913153,25.7104927 15.1521561,27.6751384 16.7347774,30.9447679 L26.6700288,30.9447679 C28.1695794,28.2774386 29,25.179402 29,22.1205776 Z" id="Shape-Copy-18" stroke="none" fill="#00A0D2"></path>
                </g>
            </g>
        </g>
    </g>
</svg>