<?xml version="1.0" encoding="UTF-8" standalone="no"?>
<svg width="100px" height="68px" viewBox="0 0 100 68" version="1.1" xmlns="http://www.w3.org/2000/svg" xmlns:xlink="http://www.w3.org/1999/xlink">
    <!-- Generator: Sketch 3.8.1 (29687) - http://www.bohemiancoding.com/sketch -->
    <title>section</title>
    <desc>Created with Sketch.</desc>
    <defs>
        <rect id="path-1" x="0" y="0" width="100" height="68"></rect>
        <linearGradient x1="0%" y1="0%" x2="33.1163488%" y2="7.93698705%" id="linearGradient-3">
            <stop stop-color="#97C3D1" stop-opacity="0.208021966" offset="0%"></stop>
            <stop stop-color="#3DD0FF" offset="100%"></stop>
        </linearGradient>
        <rect id="path-4" x="7.72046172" y="5.49544863" width="83" height="57"></rect>
        <mask id="mask-5" maskContentUnits="userSpaceOnUse" maskUnits="objectBoundingBox" x="0" y="0" width="83" height="57" fill="white">
            <use xlink:href="#path-4"></use>
        </mask>
        <mask id="mask-7" maskContentUnits="userSpaceOnUse" maskUnits="objectBoundingBox" x="0" y="0" width="83" height="57" fill="white">
            <use xlink:href="#path-4"></use>
        </mask>
        <rect id="path-8" x="15.9036217" y="18.0285419" width="19.9352555" height="32.9589345"></rect>
        <mask id="mask-9" maskContentUnits="userSpaceOnUse" maskUnits="objectBoundingBox" x="0" y="0" width="19.9352555" height="32.9589345" fill="white">
            <use xlink:href="#path-8"></use>
        </mask>
        <rect id="path-10" x="40.2139584" y="18.0285419" width="19.9352555" height="32.9589345"></rect>
        <mask id="mask-11" maskContentUnits="userSpaceOnUse" maskUnits="objectBoundingBox" x="0" y="0" width="19.9352555" height="32.9589345" fill="white">
            <use xlink:href="#path-10"></use>
        </mask>
        <rect id="path-12" x="63.8996931" y="18.0285419" width="19.9352555" height="32.9589345"></rect>
        <mask id="mask-13" maskContentUnits="userSpaceOnUse" maskUnits="objectBoundingBox" x="0" y="0" width="19.9352555" height="32.9589345" fill="white">
            <use xlink:href="#path-12"></use>
        </mask>
    </defs>
    <g id="Elements" stroke="none" stroke-width="1" fill="none" fill-rule="evenodd">
        <g id="section">
            <mask id="mask-2" fill="white">
                <use xlink:href="#path-1"></use>
            </mask>
            <use id="BG" fill="#FFFFFF" xlink:href="#path-1"></use>
            <mask id="mask-6" fill="white">
                <use xlink:href="#path-4"></use>
            </mask>
            <g id="Rectangle-486-Copy-4" stroke="#00A0D2" mask="url(#mask-5)" stroke-width="2" fill-opacity="0.15" fill="url(#linearGradient-3)">
                <use mask="url(#mask-7)" xlink:href="#path-4"></use>
            </g>
            <path d="M60.7389551,41.992407 C60.7389551,41.992407 65.2648585,37.713154 66.2506731,31.9582102 C68.9037888,31.9582102 70.542478,25.8399808 67.8893622,23.6878272 C68.0012093,21.4229299 71.2993963,5.90186889 54.5925703,5.90186889 C37.8857442,5.90186889 41.1839312,21.4229299 41.2957783,23.6878272 C38.6426625,25.8399808 40.2813517,31.9582102 42.9344674,31.9582102 C43.920282,37.713154 48.4487865,41.992407 48.4487865,41.992407 C48.4487865,41.992407 48.4123712,46.0386562 46.8725236,46.27166 C41.9096364,47.0257906 23.3794435,54.8301659 23.3794435,63.3886719 L85.805697,63.3886719 C85.805697,54.8301659 67.2755041,47.0257906 62.315218,46.27166 C60.7753704,46.0386562 60.7389551,41.992407 60.7389551,41.992407 Z" id="Shape-Copy-6" fill="#00A0D2" opacity="0.141965951" mask="url(#mask-6)"></path>
            <g id="Rectangle-486-Copy-2" opacity="0.301131063" mask="url(#mask-6)" stroke="#00A0D2" stroke-width="2" fill="#FFFFFF" fill-opacity="0.0336574389">
                <use mask="url(#mask-9)" xlink:href="#path-8"></use>
            </g>
            <g id="Rectangle-486-Copy-3" opacity="0.301131063" mask="url(#mask-6)" stroke="#00A0D2" stroke-width="2" fill="#FFFFFF" fill-opacity="0.0336574389">
                <use mask="url(#mask-11)" xlink:href="#path-10"></use>
            </g>
            <g id="Rectangle-486-Copy-4" opacity="0.301131063" mask="url(#mask-6)" stroke="#00A0D2" stroke-width="2" fill="#FFFFFF" fill-opacity="0.0336574389">
                <use mask="url(#mask-13)" xlink:href="#path-12"></use>
            </g>
        </g>
    </g>
</svg>