<?xml version="1.0" encoding="UTF-8" standalone="no"?>
<svg width="100px" height="68px" viewBox="0 0 100 68" version="1.1" xmlns="http://www.w3.org/2000/svg" xmlns:xlink="http://www.w3.org/1999/xlink">
    <!-- Generator: Sketch 3.8.1 (29687) - http://www.bohemiancoding.com/sketch -->
    <title>team_member</title>
    <desc>Created with Sketch.</desc>
    <defs>
        <rect id="path-1" x="0" y="0" width="100" height="68"></rect>
        <linearGradient x1="0%" y1="0%" x2="106.265625%" y2="109.895844%" id="linearGradient-3">
            <stop stop-color="#C8EAF4" stop-opacity="0.208021966" offset="0%"></stop>
            <stop stop-color="#3DD0FF" offset="100%"></stop>
        </linearGradient>
        <circle id="path-4" cx="19.5" cy="19.5" r="19.5"></circle>
        <mask id="mask-5" maskContentUnits="userSpaceOnUse" maskUnits="objectBoundingBox" x="0" y="0" width="39" height="39" fill="white">
            <use xlink:href="#path-4"></use>
        </mask>
        <mask id="mask-7" maskContentUnits="userSpaceOnUse" maskUnits="objectBoundingBox" x="0" y="0" width="39" height="39" fill="white">
            <use xlink:href="#path-4"></use>
        </mask>
    </defs>
    <g id="Elements" stroke="none" stroke-width="1" fill="none" fill-rule="evenodd">
        <g id="team_member">
            <mask id="mask-2" fill="white">
                <use xlink:href="#path-1"></use>
            </mask>
            <use id="bg" fill="#FFFFFF" xlink:href="#path-1"></use>
            <g id="text" mask="url(#mask-2)" fill-opacity="0.532382246" fill="#00A0D2" opacity="0.333430504">
                <g transform="translate(39.000000, 50.000000)">
                    <rect id="Rectangle-167-Copy" x="0" y="0" width="23" height="2"></rect>
                    <rect id="Rectangle-167-Copy-2" x="3" y="4" width="17" height="2"></rect>
                </g>
            </g>
            <g id="image" mask="url(#mask-2)">
                <g transform="translate(31.000000, 7.000000)">
                    <mask id="mask-6" fill="white">
                        <use xlink:href="#path-4"></use>
                    </mask>
                    <g id="Oval-7" stroke="#00A0D2" mask="url(#mask-5)" stroke-width="2" fill-opacity="0.15" fill="url(#linearGradient-3)" fill-rule="evenodd">
                        <use mask="url(#mask-7)" xlink:href="#path-4"></use>
                    </g>
                    <path d="M23.6811972,28.9555139 C23.6811972,28.9555139 26.7600306,25.9333028 27.43065,21.8688889 C29.2354833,21.8688889 30.3502333,17.5479056 28.5454,16.0279528 C28.6214861,14.428375 30.8651417,3.46666667 19.5,3.46666667 C8.13485833,3.46666667 10.3785139,14.428375 10.4546,16.0279528 C8.64976667,17.5479056 9.76451667,21.8688889 11.56935,21.8688889 C12.2399694,25.9333028 15.3205722,28.9555139 15.3205722,28.9555139 C15.3205722,28.9555139 15.2958,31.8131667 14.2482889,31.977725 C10.8721889,32.5103278 -1.73333333,38.0221472 -1.73333333,44.0665694 L40.7333333,44.0665694 C40.7333333,38.0221472 28.1278111,32.5103278 24.7534806,31.977725 C23.7059694,31.8131667 23.6811972,28.9555139 23.6811972,28.9555139 Z" id="Oval-7" stroke="none" fill="#00A0D2" fill-rule="evenodd" mask="url(#mask-6)"></path>
                </g>
            </g>
        </g>
    </g>
</svg>