<?xml version="1.0" encoding="UTF-8" standalone="no"?>
<svg width="100px" height="68px" viewBox="0 0 100 68" version="1.1" xmlns="http://www.w3.org/2000/svg" xmlns:xlink="http://www.w3.org/1999/xlink">
    <!-- Generator: Sketch 3.8.1 (29687) - http://www.bohemiancoding.com/sketch -->
    <title>testimonials</title>
    <desc>Created with Sketch.</desc>
    <defs>
        <rect id="path-1" x="0" y="0" width="100" height="68"></rect>
        <linearGradient x1="0%" y1="0%" x2="106.265625%" y2="109.895844%" id="linearGradient-3">
            <stop stop-color="#C8EAF4" stop-opacity="0.208021966" offset="0%"></stop>
            <stop stop-color="#3DD0FF" offset="100%"></stop>
        </linearGradient>
        <rect id="path-4" x="0" y="0" width="23.3501953" height="23.3501953" rx="11.6750977"></rect>
        <mask id="mask-5" maskContentUnits="userSpaceOnUse" maskUnits="objectBoundingBox" x="0" y="0" width="23.3501953" height="23.3501953" fill="white">
            <use xlink:href="#path-4"></use>
        </mask>
        <mask id="mask-7" maskContentUnits="userSpaceOnUse" maskUnits="objectBoundingBox" x="0" y="0" width="23.3501953" height="23.3501953" fill="white">
            <use xlink:href="#path-4"></use>
        </mask>
    </defs>
    <g id="Elements" stroke="none" stroke-width="1" fill="none" fill-rule="evenodd">
        <g id="testimonials">
            <mask id="mask-2" fill="white">
                <use xlink:href="#path-1"></use>
            </mask>
            <use id="BG" fill="#FFFFFF" xlink:href="#path-1"></use>
            <g id="headline" mask="url(#mask-2)">
                <g transform="translate(11.083008, 13.689859)">
                    <mask id="mask-6" fill="white">
                        <use xlink:href="#path-4"></use>
                    </mask>
                    <g id="Rectangle-494" stroke="#00A0D2" mask="url(#mask-5)" stroke-width="2" fill-opacity="0.15" fill="url(#linearGradient-3)" fill-rule="evenodd">
                        <use mask="url(#mask-7)" xlink:href="#path-4"></use>
                    </g>
                    <path d="M12.9857508,15.8366034 C12.9857508,15.8366034 14.4155106,14.433138 14.7269353,12.5456908 C15.5650704,12.5456908 16.082742,10.5390968 15.244607,9.83325565 C15.2799401,9.09043791 16.321857,4 11.0440713,4 C5.76628553,4 6.80820244,9.09043791 6.84353558,9.83325565 C6.00540053,10.5390968 6.52307218,12.5456908 7.36120723,12.5456908 C7.67263193,14.433138 9.10321343,15.8366034 9.10321343,15.8366034 C9.10321343,15.8366034 9.09170961,17.1636506 8.6052626,17.2400688 C7.03745703,17.4874008 1.18365885,20.0469995 1.18365885,22.8539302 L20.9044837,22.8539302 C20.9044837,20.0469995 15.0506855,17.4874008 13.4837016,17.2400688 C12.9972546,17.1636506 12.9857508,15.8366034 12.9857508,15.8366034 Z" id="Oval-7" stroke="none" fill="#00A0D2" fill-rule="evenodd" mask="url(#mask-6)"></path>
                </g>
            </g>
            <g id="headline" opacity="0.6" mask="url(#mask-2)" fill="#00A0D2">
                <g transform="translate(39.000000, 16.000000)">
                    <rect id="Rectangle-167-Copy-8" fill-opacity="0.532382246" opacity="0.333430504" x="1.57681031" y="29.3319376" width="30.47165" height="4.14693781"></rect>
                    <rect id="Rectangle-167-Copy-7" fill-opacity="0.532382246" opacity="0.333430504" x="1.57681031" y="20.2345858" width="36.0884095" height="4.14693781"></rect>
                    <polygon id="Shape" points="9.66433185 5.26142111 7.45968424 0.794155796 5.25503664 5.26142111 0.324902344 5.97757485 3.89229329 9.45488918 3.04994311 14.3649569 7.45968424 12.0465987 11.8694254 14.3649569 11.0270752 9.45488918 14.5944661 5.97757485"></polygon>
                    <polygon id="Shape" points="27.8255949 5.26142111 25.6209473 0.794155796 23.4162997 5.26142111 18.4861654 5.97757485 22.0535563 9.45488918 21.2112061 14.3649569 25.6209473 12.0465987 30.0306884 14.3649569 29.1883382 9.45488918 32.7557292 5.97757485"></polygon>
                    <polygon id="Shape" points="45.9868579 5.26142111 43.7822103 0.794155796 41.5775627 5.26142111 36.6474284 5.97757485 40.2148193 9.45488918 39.3724691 14.3649569 43.7822103 12.0465987 48.1919514 14.3649569 47.3496012 9.45488918 50.9169922 5.97757485"></polygon>
                </g>
            </g>
        </g>
    </g>
</svg>