<?xml version="1.0" encoding="UTF-8" standalone="no"?>
<svg width="100px" height="68px" viewBox="0 0 100 68" version="1.1" xmlns="http://www.w3.org/2000/svg" xmlns:xlink="http://www.w3.org/1999/xlink">
    <!-- Generator: Sketch 3.8.1 (29687) - http://www.bohemiancoding.com/sketch -->
    <title>text</title>
    <desc>Created with Sketch.</desc>
    <defs>
        <rect id="path-1" x="0" y="0" width="100" height="68"></rect>
    </defs>
    <g id="Elements" stroke="none" stroke-width="1" fill="none" fill-rule="evenodd">
        <g id="text">
            <mask id="mask-2" fill="white">
                <use xlink:href="#path-1"></use>
            </mask>
            <use id="bg" fill="#FFFFFF" xlink:href="#path-1"></use>
            <path d="M40.4904104,19.237 L40.4904104,21.036862 L35.463266,21.036862 L35.463266,35.0603264 L33.3568599,35.0603264 L33.3568599,21.036862 L28.308,21.036862 L28.308,19.237 L40.4904104,19.237 Z M44.4752096,23.6980076 C45.1339172,23.6980076 45.7419458,23.8102678 46.2993138,24.0347916 C46.8566818,24.2593154 47.3380378,24.5832137 47.7433963,25.0064962 C48.1487548,25.4297787 48.4654364,25.9524328 48.6934506,26.5744741 C48.9214648,27.1965154 49.0354701,27.905043 49.0354701,28.700078 C49.0354701,29.0092583 49.0028972,29.2153754 48.9377503,29.3184355 C48.8726034,29.4214956 48.7495499,29.4730248 48.5685863,29.4730248 L41.2504539,29.4730248 C41.2649309,30.1797227 41.3590306,30.7943933 41.5327557,31.3170552 C41.7064808,31.8397171 41.9453492,32.2758756 42.2493681,32.6255438 C42.553387,32.975212 42.9153088,33.236539 43.3351444,33.4095328 C43.75498,33.5825265 44.2254784,33.6690221 44.7466536,33.6690221 C45.2316362,33.6690221 45.6496559,33.6119718 46.0007253,33.4978696 C46.3517947,33.3837673 46.6539995,33.2604651 46.9073485,33.1279593 C47.1606976,32.9954534 47.3724219,32.8721512 47.5425277,32.758049 C47.7126335,32.6439467 47.8592118,32.5868965 47.9822671,32.5868965 C48.1415151,32.5868965 48.2645685,32.6494677 48.3514311,32.7746121 L48.8943192,33.4923485 C48.6554472,33.7868059 48.369529,34.042612 48.0365559,34.2597743 C47.7035828,34.4769367 47.3470898,34.6554488 46.9670662,34.7953161 C46.5870426,34.9351834 46.1943574,35.0400822 45.7889989,35.1100159 C45.3836404,35.1799495 44.9819072,35.2149158 44.5837872,35.2149158 C43.82374,35.2149158 43.1234212,35.0842523 42.48281,34.8229213 C41.8421988,34.5615904 41.2884584,34.1788015 40.8215722,33.6745431 C40.354686,33.1702848 39.9909546,32.5464125 39.730367,31.8029075 C39.4697794,31.0594025 39.3394875,30.2054888 39.3394875,29.2411408 C39.3394875,28.4608286 39.4571121,27.7320574 39.6923648,27.0548054 C39.9276175,26.3775533 40.2660144,25.7904876 40.7075657,25.2935908 C41.1491169,24.7966939 41.6883805,24.4065436 42.3253724,24.1231284 C42.9623644,23.8397131 43.6789696,23.6980076 44.4752096,23.6980076 L44.4752096,23.6980076 Z M44.5186406,25.1445224 C43.5848683,25.1445224 42.850167,25.4187318 42.3145147,25.9671587 C41.7788623,26.5155857 41.4458942,27.2756425 41.3156004,28.247352 L47.298228,28.247352 C47.298228,27.790943 47.2367013,27.3731878 47.113646,26.9940738 C46.9905908,26.6149599 46.8096299,26.287381 46.5707579,26.0113271 C46.3318859,25.7352733 46.0405388,25.5217949 45.6967079,25.3708854 C45.352877,25.219976 44.9601919,25.1445224 44.5186406,25.1445224 L44.5186406,25.1445224 Z M53.4220065,29.3294776 L49.7195092,23.8746812 L51.5761868,23.8746812 C51.7354347,23.8746812 51.8512497,23.9004458 51.9236352,23.9519758 C51.9960206,24.0035059 52.0611666,24.0771191 52.1190749,24.1728178 L54.8118002,28.368815 C54.8769471,28.1626949 54.9710468,27.9565778 55.0941021,27.7504576 L57.4610945,24.2169862 C57.5334799,24.1139261 57.6058643,24.0311112 57.6782497,23.968539 C57.7506352,23.9059668 57.8411156,23.8746812 57.9496938,23.8746812 L59.730367,23.8746812 L56.0278697,29.2190566 L59.8823757,35.0603264 L58.0256982,35.0603264 C57.8664502,35.0603264 57.7415871,35.0179988 57.6511053,34.9333423 C57.5606235,34.8486858 57.4864295,34.7548289 57.4285212,34.6517688 L54.6597915,30.2680559 C54.6091217,30.4815375 54.5331181,30.672932 54.4317785,30.842245 L51.8693464,34.6517688 C51.7969609,34.7548289 51.7191477,34.8486858 51.6359045,34.9333423 C51.5526612,35.0179988 51.4386558,35.0603264 51.2938849,35.0603264 L49.5675005,35.0603264 L53.4220065,29.3294776 Z M65.1266754,35.237 C64.2580499,35.237 63.5903042,34.9903956 63.123418,34.4971794 C62.6565319,34.0039633 62.4230923,33.2935954 62.4230923,32.3660545 L62.4230923,25.5199538 L61.0984452,25.5199538 C60.9826284,25.5199538 60.8849096,25.4849875 60.8052856,25.4150538 C60.7256616,25.3451202 60.6858502,25.2365406 60.6858502,25.0893119 L60.6858502,24.305323 L62.4882389,24.0734389 L62.9334072,20.6172622 C62.9478843,20.5068407 62.9949341,20.4166645 63.0745581,20.3467308 C63.1541821,20.2767972 63.2555202,20.2418309 63.3785755,20.2418309 L64.3557742,20.2418309 L64.3557742,24.0955231 L67.5045255,24.0955231 L67.5045255,25.5199538 L64.3557742,25.5199538 L64.3557742,32.2335493 C64.3557742,32.7046812 64.4679699,33.0543442 64.6923648,33.2825487 C64.9167597,33.5107532 65.2062972,33.6248537 65.5609859,33.6248537 C65.7636651,33.6248537 65.9391972,33.5972487 66.0875874,33.542038 C66.2359776,33.4868272 66.3644598,33.4260963 66.473038,33.3598433 C66.5816162,33.2935904 66.6739062,33.2328595 66.749911,33.1776487 C66.8259157,33.122438 66.8928712,33.094833 66.9507796,33.094833 C67.0521192,33.094833 67.1425997,33.1574043 67.2222237,33.2825487 L67.7868274,34.221127 C67.4538543,34.5376687 67.0521211,34.7861134 66.5816156,34.9664686 C66.1111102,35.1468238 65.626135,35.237 65.1266754,35.237 L65.1266754,35.237 Z" id="Text" fill="#00A0D2" mask="url(#mask-2)"></path>
            <path d="M19.2202896,48.1572098 L22.9795656,48.1572098 L22.9795656,49.1522153 L18.044,49.1522153 L18.044,40.4047125 L19.2202896,40.4047125 L19.2202896,48.1572098 Z M26.3750407,42.8708613 C26.8237308,42.8708613 27.2289605,42.9461472 27.5907421,43.0967214 C27.9525237,43.2472956 28.2597303,43.460945 28.512371,43.7376759 C28.7650118,44.0144069 28.959037,44.3491242 29.0944525,44.741838 C29.2298679,45.1345517 29.2975747,45.5730416 29.2975747,46.0573208 C29.2975747,46.5456695 29.2298679,46.9851767 29.0944525,47.3758557 C28.959037,47.7665347 28.7650118,48.1002347 28.512371,48.3769656 C28.2597303,48.6536965 27.9525237,48.8663285 27.5907421,49.0148679 C27.2289605,49.1634073 26.8237308,49.2376759 26.3750407,49.2376759 C25.9263507,49.2376759 25.521121,49.1634073 25.1593394,49.0148679 C24.7975578,48.8663285 24.4893406,48.6536965 24.2346787,48.3769656 C23.9800168,48.1002347 23.7839705,47.7665347 23.6465339,47.3758557 C23.5090974,46.9851767 23.4403801,46.5456695 23.4403801,46.0573208 C23.4403801,45.5730416 23.5090974,45.1345517 23.6465339,44.741838 C23.7839705,44.3491242 23.9800168,44.0144069 24.2346787,43.7376759 C24.4893406,43.460945 24.7975578,43.2472956 25.1593394,43.0967214 C25.521121,42.9461472 25.9263507,42.8708613 26.3750407,42.8708613 L26.3750407,42.8708613 Z M26.3750407,48.3891743 C26.9813786,48.3891743 27.4341041,48.1846813 27.7332308,47.7756892 C28.0323575,47.3666972 28.1819186,46.7959482 28.1819186,46.0634251 C28.1819186,45.3268324 28.0323575,44.7530313 27.7332308,44.3420044 C27.4341041,43.9309776 26.9813786,43.7254673 26.3750407,43.7254673 C26.0678295,43.7254673 25.8010449,43.7783709 25.5746787,43.8841798 C25.3483126,43.9899887 25.1593401,44.1425954 25.0077557,44.3420044 C24.8561712,44.5414135 24.7429898,44.7866016 24.6682081,45.077576 C24.5934265,45.3685505 24.5560362,45.6971635 24.5560362,46.0634251 C24.5560362,46.4296866 24.5934265,46.7572823 24.6682081,47.046222 C24.7429898,47.3351616 24.8561712,47.578315 25.0077557,47.7756892 C25.1593401,47.9730635 25.3483126,48.1246528 25.5746787,48.2304617 C25.8010449,48.3362706 26.0678295,48.3891743 26.3750407,48.3891743 L26.3750407,48.3891743 Z M30.6315113,49.1522153 L30.6315113,42.9685305 L31.2499729,42.9685305 C31.3671982,42.9685305 31.448042,42.9909128 31.4925068,43.0356781 C31.5369716,43.0804434 31.567288,43.1577642 31.583457,43.2676426 L31.6562172,44.2321265 C31.8664143,43.8007518 32.1261252,43.4639997 32.4353575,43.2218602 C32.7445898,42.9797206 33.1073765,42.8586526 33.5237285,42.8586526 C33.6935031,42.8586526 33.8471064,42.8779828 33.984543,42.9166437 C34.1219796,42.9553047 34.2493086,43.0092257 34.3665339,43.0784084 L34.2270769,43.8902841 C34.1987812,43.9920234 34.1361272,44.0428923 34.0391131,44.0428923 C33.9825216,44.0428923 33.8956145,44.0235622 33.7783891,43.9849012 C33.6611638,43.9462403 33.497455,43.9269101 33.2872579,43.9269101 C32.9113284,43.9269101 32.597048,44.0367869 32.3444072,44.2565438 C32.0917665,44.4763008 31.8805619,44.7957574 31.7107873,45.2149234 L31.7107873,49.1522153 L30.6315113,49.1522153 Z M37.9499729,42.8708613 C38.3178178,42.8708613 38.6573619,42.9329213 38.9686154,43.0570433 C39.2798688,43.1811653 39.5486746,43.3602238 39.7750407,43.5942242 C40.0014069,43.8282246 40.1782528,44.11716 40.3055837,44.4610388 C40.4329147,44.8049177 40.4965792,45.1966082 40.4965792,45.6361221 C40.4965792,45.8070441 40.4783893,45.9209905 40.442009,45.9779645 C40.4056288,46.0349385 40.3369115,46.0634251 40.2358552,46.0634251 L36.1491584,46.0634251 C36.1572429,46.4541041 36.2097914,46.7939083 36.3068054,47.0828479 C36.4038195,47.3717876 36.5372118,47.6129062 36.7069864,47.8062109 C36.876761,47.9995156 37.0788706,48.1439832 37.3133213,48.2396182 C37.5477719,48.3352532 37.8105144,48.3830699 38.1015566,48.3830699 C38.3723875,48.3830699 38.6058241,48.3515312 38.8018733,48.2884528 C38.9979225,48.2253745 39.1666841,48.1572101 39.3081629,48.0839578 C39.4496417,48.0107055 39.5678758,47.9425412 39.6628688,47.8794628 C39.7578617,47.8163844 39.8397161,47.7848457 39.9084344,47.7848457 C39.9973639,47.7848457 40.0660812,47.8194366 40.1145882,47.8886193 L40.4177557,48.2854007 C40.2843613,48.4481836 40.1246947,48.5895991 39.9387511,48.7096515 C39.7528075,48.8297039 39.5537296,48.9283896 39.3415113,49.0057114 C39.1292931,49.0830333 38.9100041,49.1410239 38.683638,49.1796848 C38.4572719,49.2183457 38.2329302,49.2376759 38.0106063,49.2376759 C37.5861698,49.2376759 37.1950878,49.1654421 36.8373484,49.0209723 C36.4796091,48.8765024 36.1703814,48.6648878 35.9096561,48.3861221 C35.6489308,48.1073564 35.4458107,47.7624652 35.3002896,47.3514384 C35.1547685,46.9404116 35.082009,46.4683482 35.082009,45.9352342 C35.082009,45.5038595 35.1476947,45.1009778 35.2790679,44.7265771 C35.4104411,44.3521764 35.5994135,44.0276329 35.845991,43.7529367 C36.0925684,43.4782406 36.3937116,43.2625565 36.7494299,43.1058779 C37.1051481,42.9491994 37.5053251,42.8708613 37.9499729,42.8708613 L37.9499729,42.8708613 Z M37.9742262,43.6705283 C37.4527757,43.6705283 37.0424932,43.8221176 36.7433665,44.1253008 C36.4442398,44.4284839 36.258299,44.848661 36.1855385,45.3858446 L39.5264434,45.3858446 C39.5264434,45.1335311 39.4920848,44.9025863 39.4233665,44.6930033 C39.3546482,44.4834203 39.2535934,44.3023271 39.1201991,44.1497181 C38.9868048,43.9971091 38.8241065,43.8790933 38.6320995,43.795667 C38.4400926,43.7122408 38.2208036,43.6705283 37.9742262,43.6705283 L37.9742262,43.6705283 Z M41.8729593,49.1522153 L41.8729593,42.9685305 L42.5156742,42.9685305 C42.6692798,42.9685305 42.7662924,43.0438165 42.8067149,43.1943907 L42.8855385,43.8292408 C43.1119046,43.5484403 43.3655521,43.3185129 43.6464887,43.1394517 C43.9274252,42.9603905 44.2538322,42.8708613 44.6257195,42.8708613 C45.0420715,42.8708613 45.3785839,42.9868423 45.635267,43.218808 C45.89195,43.4507736 46.0768803,43.764126 46.1900633,44.1588746 C46.2749507,43.9350481 46.3871215,43.7417463 46.5265792,43.5789634 C46.6660369,43.4161805 46.8226718,43.2818866 46.9964887,43.1760777 C47.1703055,43.0702688 47.3552358,42.9929481 47.5512851,42.9441132 C47.7473343,42.8952783 47.9464123,42.8708613 48.1485249,42.8708613 C48.4719051,42.8708613 48.7599113,42.9227475 49.012552,43.0265216 C49.2651928,43.1302957 49.479429,43.2818851 49.655267,43.4812941 C49.831105,43.6807032 49.9655078,43.9258913 50.0584796,44.2168657 C50.1514514,44.5078402 50.1979367,44.8405227 50.1979367,45.2149234 L50.1979367,49.1522153 L49.1186606,49.1522153 L49.1186606,45.2149234 C49.1186606,44.7306443 49.0135636,44.3633708 48.8033665,44.1130921 C48.5931694,43.8628134 48.2879839,43.7376759 47.8878009,43.7376759 C47.7099418,43.7376759 47.5411803,43.7692146 47.3815113,43.832293 C47.2218423,43.8953714 47.0813762,43.9879528 46.9601086,44.11004 C46.838841,44.2321271 46.742839,44.3857512 46.6720995,44.5709168 C46.6013601,44.7560823 46.565991,44.9707491 46.565991,45.2149234 L46.565991,49.1522153 L45.4867149,49.1522153 L45.4867149,45.2149234 C45.4867149,44.7184355 45.3876812,44.34811 45.1896109,44.1039356 C44.9915405,43.8597613 44.7025238,43.7376759 44.322552,43.7376759 C44.0557634,43.7376759 43.8081791,43.8099097 43.5797919,43.9543796 C43.3514046,44.0988494 43.1422212,44.2952033 42.9522353,44.5434473 L42.9522353,49.1522153 L41.8729593,49.1522153 Z M55.3699729,42.9685305 L55.3699729,49.1522153 L54.2906968,49.1522153 L54.2906968,42.9685305 L55.3699729,42.9685305 Z M55.6125068,41.0273541 C55.6125068,41.1331629 55.5912853,41.2318486 55.5488416,41.323414 C55.506398,41.4149794 55.4498073,41.4963696 55.3790679,41.5675871 C55.3083285,41.6388046 55.2264741,41.6947604 55.1335023,41.7354562 C55.0405305,41.7761519 54.9414968,41.7964994 54.8363982,41.7964994 C54.7312996,41.7964994 54.6332765,41.7761519 54.5423258,41.7354562 C54.4513751,41.6947604 54.3705313,41.6388046 54.2997919,41.5675871 C54.2290524,41.4963696 54.1734723,41.4149794 54.1330498,41.323414 C54.0926272,41.2318486 54.0724163,41.1331629 54.0724163,41.0273541 C54.0724163,40.9215452 54.0926272,40.8208247 54.1330498,40.7251898 C54.1734723,40.6295548 54.2290524,40.5461298 54.2997919,40.4749123 C54.3705313,40.4036948 54.4513751,40.347739 54.5423258,40.3070433 C54.6332765,40.2663476 54.7312996,40.246 54.8363982,40.246 C54.9414968,40.246 55.0405305,40.2663476 55.1335023,40.3070433 C55.2264741,40.347739 55.3083285,40.4036948 55.3790679,40.4749123 C55.4498073,40.5461298 55.506398,40.6295548 55.5488416,40.7251898 C55.5912853,40.8208247 55.6125068,40.9215452 55.6125068,41.0273541 L55.6125068,41.0273541 Z M57.2738643,51.246 L57.2738643,42.9685305 L57.9165792,42.9685305 C58.0701848,42.9685305 58.1671974,43.0438165 58.2076199,43.1943907 L58.2985701,43.9269101 C58.5613165,43.6054139 58.8614493,43.3469999 59.1989774,43.1516604 C59.5365055,42.9563209 59.9255664,42.8586526 60.3661719,42.8586526 C60.7178479,42.8586526 61.0371811,42.9268169 61.324181,43.0631476 C61.6111809,43.1994783 61.8557335,43.4009191 62.0578462,43.6674761 C62.2599588,43.9340331 62.4155832,44.264681 62.524724,44.6594295 C62.6338648,45.0541781 62.6884344,45.5079286 62.6884344,46.0206948 C62.6884344,46.4764869 62.6278015,46.9007335 62.5065339,47.2934473 C62.3852664,47.686161 62.2114521,48.0259653 61.985086,48.3128701 C61.7587198,48.599775 61.4808191,48.8256329 61.1513756,48.9904506 C60.821932,49.1552683 60.4510609,49.2376759 60.0387511,49.2376759 C59.6587794,49.2376759 59.3343935,49.1745985 59.0655837,49.0484417 C58.7967739,48.922285 58.5592951,48.7432265 58.3531403,48.5112608 L58.3531403,51.246 L57.2738643,51.246 Z M60.0084344,43.7376759 C59.6567584,43.7376759 59.3485413,43.8190661 59.0837738,43.9818491 C58.8190062,44.144632 58.5754642,44.3745594 58.3531403,44.6716382 L58.3531403,47.6627592 C58.5512106,47.931351 58.7684785,48.1205832 59.0049502,48.2304617 C59.241422,48.3403402 59.505175,48.3952786 59.7962172,48.3952786 C60.3661748,48.3952786 60.8047526,48.1897682 61.1119638,47.7787414 C61.419175,47.3677146 61.5727783,46.7817049 61.5727783,46.0206948 C61.5727783,45.6178071 61.5374091,45.2718986 61.4666697,44.9829589 C61.3959303,44.6940193 61.2938649,44.4569702 61.1604706,44.2718047 C61.0270763,44.0866391 60.8633675,43.9513278 60.6693394,43.8658668 C60.4753112,43.7804058 60.2550118,43.7376759 60.0084344,43.7376759 L60.0084344,43.7376759 Z M67.484543,43.9879534 C67.436036,44.077484 67.3612554,44.1222486 67.2601991,44.1222486 C67.1995653,44.1222486 67.130848,44.0998663 67.0540452,44.055101 C66.9772425,44.0103357 66.8832615,43.9604842 66.7720995,43.905545 C66.6609376,43.8506057 66.5285558,43.7997368 66.3749502,43.7529367 C66.2213446,43.7061367 66.039446,43.682737 65.8292489,43.682737 C65.6473475,43.682737 65.4836387,43.7061367 65.3381176,43.7529367 C65.1925966,43.7997368 65.0682992,43.8638316 64.9652217,43.9452231 C64.8621443,44.0266145 64.7833215,44.1212307 64.7287511,44.2290744 C64.6741807,44.336918 64.6468959,44.4539165 64.6468959,44.5800733 C64.6468959,44.7387866 64.6923706,44.8710457 64.7833213,44.9768546 C64.8742719,45.0826635 64.9945272,45.1742275 65.1440905,45.2515494 C65.2936538,45.3288713 65.4634259,45.3970356 65.6534118,45.4560444 C65.8433976,45.5150532 66.0384334,45.5781306 66.2385249,45.6452786 C66.4386164,45.7124265 66.6336521,45.7866951 66.823638,45.8680866 C67.0136239,45.949478 67.1833959,46.0512158 67.3329593,46.173303 C67.4825226,46.2953902 67.6027778,46.4449447 67.6937285,46.6219711 C67.7846792,46.7989976 67.8301538,47.0116295 67.8301538,47.2598735 C67.8301538,47.5447436 67.7796264,47.8082444 67.6785701,48.050384 C67.5775138,48.2925236 67.4279527,48.5021034 67.2298824,48.6791299 C67.031812,48.8561563 66.7892805,48.995537 66.5022805,49.0972764 C66.2152806,49.1990157 65.8838209,49.2498846 65.5078914,49.2498846 C65.0794126,49.2498846 64.6913622,49.1796855 64.3437285,49.0392852 C63.9960948,48.898885 63.7010148,48.7188091 63.4584796,48.4990522 L63.7131403,48.0839578 C63.7454783,48.0310534 63.7838791,47.9903583 63.8283439,47.9618713 C63.8728087,47.9333842 63.9314205,47.919141 64.004181,47.919141 C64.0769415,47.919141 64.1537432,47.9476275 64.2345882,48.0046016 C64.3154333,48.0615756 64.4134564,48.124653 64.5286606,48.1938357 C64.6438648,48.2630185 64.7833204,48.3260959 64.9470317,48.3830699 C65.1107429,48.4400439 65.3158841,48.4685305 65.5624615,48.4685305 C65.7726587,48.4685305 65.9565784,48.4410613 66.1142262,48.3861221 C66.2718741,48.3311829 66.4032453,48.2569143 66.5083439,48.1633141 C66.6134425,48.0697139 66.6912546,47.9618719 66.7417828,47.8397847 C66.792311,47.7176975 66.8175747,47.5874731 66.8175747,47.4491077 C66.8175747,47.2781856 66.7721,47.1367701 66.6811493,47.0248568 C66.5901986,46.9129436 66.4699434,46.8173101 66.3203801,46.7379534 C66.1708167,46.6585967 66.0000341,46.589415 65.8080271,46.5304062 C65.6160202,46.4713974 65.4199739,46.4093374 65.2198824,46.3442242 C65.0197909,46.279111 64.8237445,46.2048424 64.6317376,46.1214162 C64.4397306,46.03799 64.268948,45.9332 64.1193846,45.8070433 C63.9698213,45.6808865 63.8495661,45.5252277 63.7586154,45.3400622 C63.6676647,45.1548966 63.62219,44.9300561 63.62219,44.6655339 C63.62219,44.4294986 63.6706963,44.2026234 63.7677104,43.9849012 C63.8647245,43.7671791 64.0062012,43.575912 64.1921448,43.4110943 C64.3780884,43.2462766 64.6064723,43.1150349 64.8773032,43.0173651 C65.1481341,42.9196954 65.4573618,42.8708613 65.8049955,42.8708613 C66.2092207,42.8708613 66.5720074,42.9349561 66.8933665,43.0631476 C67.2147256,43.1913392 67.4926263,43.3673455 67.7270769,43.591172 L67.484543,43.9879534 Z M70.164543,42.9685305 L70.164543,46.9119267 C70.164543,47.3799276 70.2716611,47.7421141 70.4859005,47.9984972 C70.7001398,48.2548803 71.0235152,48.3830699 71.4560362,48.3830699 C71.7713319,48.3830699 72.068433,48.307784 72.3473484,48.1572098 C72.6262638,48.0066356 72.882943,47.7970557 73.1173937,47.5284639 L73.1173937,42.9685305 L74.1966697,42.9685305 L74.1966697,49.1522153 L73.5539548,49.1522153 C73.4003492,49.1522153 73.3033366,49.0769294 73.262914,48.9263552 L73.1780271,48.2609834 C72.9112385,48.5580622 72.6121163,48.797146 72.2806516,48.978242 C71.9491869,49.1593379 71.5692208,49.2498846 71.1407421,49.2498846 C70.8052351,49.2498846 70.5091446,49.1939288 70.2524615,49.0820155 C69.9957785,48.9701023 69.7805318,48.8124087 69.6067149,48.6089301 C69.4328981,48.4054514 69.3025374,48.159246 69.215629,47.8703063 C69.1287205,47.5813667 69.085267,47.26191 69.085267,46.9119267 L69.085267,42.9685305 L70.164543,42.9685305 Z M75.9732308,49.1522153 L75.9732308,42.9685305 L76.6159457,42.9685305 C76.7695513,42.9685305 76.8665639,43.0438165 76.9069864,43.1943907 L76.98581,43.8292408 C77.2121761,43.5484403 77.4658236,43.3185129 77.7467602,43.1394517 C78.0276967,42.9603905 78.3541037,42.8708613 78.725991,42.8708613 C79.142343,42.8708613 79.4788554,42.9868423 79.7355385,43.218808 C79.9922215,43.4507736 80.1771518,43.764126 80.2903348,44.1588746 C80.3752221,43.9350481 80.487393,43.7417463 80.6268507,43.5789634 C80.7663084,43.4161805 80.9229433,43.2818866 81.0967602,43.1760777 C81.270577,43.0702688 81.4555073,42.9929481 81.6515566,42.9441132 C81.8476058,42.8952783 82.0466838,42.8708613 82.2487964,42.8708613 C82.5721766,42.8708613 82.8601827,42.9227475 83.1128235,43.0265216 C83.3654643,43.1302957 83.5797005,43.2818851 83.7555385,43.4812941 C83.9313764,43.6807032 84.0657793,43.9258913 84.1587511,44.2168657 C84.2517229,44.5078402 84.2982081,44.8405227 84.2982081,45.2149234 L84.2982081,49.1522153 L83.2189321,49.1522153 L83.2189321,45.2149234 C83.2189321,44.7306443 83.1138351,44.3633708 82.903638,44.1130921 C82.6934409,43.8628134 82.3882554,43.7376759 81.9880724,43.7376759 C81.8102133,43.7376759 81.6414518,43.7692146 81.4817828,43.832293 C81.3221138,43.8953714 81.1816477,43.9879528 81.0603801,44.11004 C80.9391125,44.2321271 80.8431105,44.3857512 80.772371,44.5709168 C80.7016316,44.7560823 80.6662624,44.9707491 80.6662624,45.2149234 L80.6662624,49.1522153 L79.5869864,49.1522153 L79.5869864,45.2149234 C79.5869864,44.7184355 79.4879527,44.34811 79.2898824,44.1039356 C79.091812,43.8597613 78.8027953,43.7376759 78.4228235,43.7376759 C78.1560349,43.7376759 77.9084506,43.8099097 77.6800633,43.9543796 C77.4516761,44.0988494 77.2424927,44.2952033 77.0525068,44.5434473 L77.0525068,49.1522153 L75.9732308,49.1522153 Z" id="Lorem-ipsum" fill-opacity="0.532382246" fill="#00A0D2" opacity="0.333430504" mask="url(#mask-2)"></path>
        </g>
    </g>
</svg>