<?xml version="1.0" encoding="UTF-8" standalone="no"?>
<svg width="100px" height="68px" viewBox="0 0 100 68" version="1.1" xmlns="http://www.w3.org/2000/svg" xmlns:xlink="http://www.w3.org/1999/xlink">
    <!-- Generator: Sketch 3.8.1 (29687) - http://www.bohemiancoding.com/sketch -->
    <title>ux_banner</title>
    <desc>Created with Sketch.</desc>
    <defs>
        <rect id="path-1" x="0" y="0" width="100" height="68"></rect>
        <linearGradient x1="0%" y1="0%" x2="106.265625%" y2="109.895844%" id="linearGradient-3">
            <stop stop-color="#C8EAF4" stop-opacity="0.208021966" offset="0%"></stop>
            <stop stop-color="#3DD0FF" offset="100%"></stop>
        </linearGradient>
        <rect id="path-4" x="8" y="5" width="83" height="57"></rect>
        <mask id="mask-5" maskContentUnits="userSpaceOnUse" maskUnits="objectBoundingBox" x="0" y="0" width="83" height="57" fill="white">
            <use xlink:href="#path-4"></use>
        </mask>
        <mask id="mask-7" maskContentUnits="userSpaceOnUse" maskUnits="objectBoundingBox" x="0" y="0" width="83" height="57" fill="white">
            <use xlink:href="#path-4"></use>
        </mask>
    </defs>
    <g id="Elements" stroke="none" stroke-width="1" fill="none" fill-rule="evenodd">
        <g id="ux_banner">
            <mask id="mask-2" fill="white">
                <use xlink:href="#path-1"></use>
            </mask>
            <use id="bg" fill="#FFFFFF" xlink:href="#path-1"></use>
            <mask id="mask-6" fill="white">
                <use xlink:href="#path-4"></use>
            </mask>
            <g id="Rectangle-486-Copy-4" stroke="#00A0D2" mask="url(#mask-5)" stroke-width="2" fill-opacity="0.15" fill="url(#linearGradient-3)">
                <use mask="url(#mask-7)" xlink:href="#path-4"></use>
            </g>
            <path d="M79.2164119,40.3544812 C79.2164119,40.3544812 84.9364256,34.7396632 86.1823366,27.1885876 C89.5354481,27.1885876 91.6064876,19.1608443 88.2533761,16.3369984 C88.3947327,13.3652212 92.5631105,-7 71.4483703,-7 C50.3336301,-7 54.5020079,13.3652212 54.6433646,16.3369984 C51.2902531,19.1608443 53.3612925,27.1885876 56.714404,27.1885876 C57.960315,34.7396632 63.6836161,40.3544812 63.6836161,40.3544812 C63.6836161,40.3544812 63.637593,45.6635744 61.6914734,45.9692993 C55.4191825,46.9587959 32,57.1989353 32,68.4285714 L110.896741,68.4285714 C110.896741,57.1989353 87.4775581,46.9587959 81.2085546,45.9692993 C79.262435,45.6635744 79.2164119,40.3544812 79.2164119,40.3544812 Z" id="Shape-Copy-6" fill="#00A0D2" opacity="0.141965951" mask="url(#mask-6)"></path>
            <g id="text" mask="url(#mask-6)" fill="#00A0D2">
                <g transform="translate(21.000000, 19.000000)">
                    <rect id="Rectangle-166" x="3" y="21" width="20" height="7.05992857" rx="3"></rect>
                    <rect id="Rectangle-167" fill-opacity="0.532382246" opacity="0.333430504" x="0" y="0" width="27" height="6"></rect>
                    <rect id="Rectangle-167-Copy" fill-opacity="0.532382246" opacity="0.333430504" x="2" y="9" width="23" height="2"></rect>
                    <rect id="Rectangle-167-Copy-2" fill-opacity="0.532382246" opacity="0.333430504" x="5" y="13" width="17" height="2"></rect>
                </g>
            </g>
        </g>
    </g>
</svg>