<?xml version="1.0" encoding="UTF-8" standalone="no"?>
<svg width="100px" height="68px" viewBox="0 0 100 68" version="1.1" xmlns="http://www.w3.org/2000/svg" xmlns:xlink="http://www.w3.org/1999/xlink">
    <!-- Generator: Sketch 3.8.1 (29687) - http://www.bohemiancoding.com/sketch -->
    <title>woo_products</title>
    <desc>Created with Sketch.</desc>
    <defs>
        <rect id="path-1" x="0" y="0" width="100" height="68"></rect>
    </defs>
    <g id="Elements" stroke="none" stroke-width="1" fill="none" fill-rule="evenodd">
        <g id="woo_products">
            <mask id="mask-2" fill="white">
                <use xlink:href="#path-1"></use>
            </mask>
            <use id="BG" fill="#FFFFFF" xlink:href="#path-1"></use>
            <g id="woocommerce" opacity="0.762418377" mask="url(#mask-2)">
                <g transform="translate(19.000000, 16.000000)" id="Group">
                    <g>
                        <path d="M5.84685882,0 L57.1275726,0 C60.3728614,0 63,2.65139576 63,5.92664931 L63,25.682147 C63,28.9574005 60.3728614,31.6087964 57.1275726,31.6087964 L38.7376029,31.6087964 L41.2617164,37.8473746 L30.1607684,31.6087964 L5.87261509,31.6087964 C2.62732631,31.6087964 0.000187778996,28.9574005 0.000187778996,25.682147 L0.000187778996,5.92664931 C-0.0255684811,2.67738982 2.60157004,0 5.84685882,0 L5.84685882,0 L5.84685882,0 Z" id="Shape" fill="#9B5C8F"></path>
                        <path d="M3.58760376,5.40185982 C3.94614033,4.91078165 4.48394522,4.65231946 5.20101838,4.60062702 C6.50711595,4.49724216 7.24979888,5.1175514 7.42906717,6.46155482 C8.2229696,11.8634146 9.09370131,16.4381955 10.0156525,20.1858972 L15.6241891,9.40802381 C16.1363842,8.42586749 16.7766281,7.90894308 17.5449208,7.85725066 C18.6717501,7.77971198 19.3632135,8.50340614 19.6449208,10.0283331 C20.2851647,13.4658802 21.1046769,16.386503 22.0778476,18.8677401 C22.7437013,12.3028003 23.8705306,7.57294224 25.4583354,4.65231946 C25.8424819,3.92862533 26.4058965,3.56677825 27.1485794,3.51508581 C27.7376038,3.46339337 28.2754087,3.64431691 28.7619939,4.03201019 C29.2485793,4.4197035 29.5046768,4.91078165 29.5558965,5.50524471 C29.5815063,5.97047665 29.5046768,6.35816993 29.2997988,6.74586322 C28.3010185,8.606791 27.4815061,11.7341835 26.8156525,16.0763484 C26.1754086,20.2892821 25.9449209,23.571752 26.0985793,25.923758 C26.1497988,26.5699134 26.0473598,27.1385303 25.7912624,27.6296083 C25.4839452,28.1982251 25.0229695,28.5083799 24.4339452,28.5600723 C23.7680916,28.6117647 23.0766281,28.3016102 22.4107745,27.6037621 C20.0290672,25.1483714 18.1339452,21.4782082 16.7510184,16.5932728 C15.0863842,19.9015888 13.857116,22.3828259 13.0632135,24.0369839 C11.5522379,26.9576066 10.2717501,28.4566875 9.19614034,28.5342261 C8.50467693,28.5859185 7.91565252,27.9914554 7.4034574,26.7508369 C6.09735984,23.3649822 4.68882326,16.8258887 3.17784765,7.13355651 C3.07540862,6.46155482 3.22906717,5.86709176 3.58760376,5.40185982 L3.58760376,5.40185982 Z M58.6229697,9.45971625 C57.7010183,7.83140443 56.3437013,6.84924811 54.5254086,6.46155482 C54.0388232,6.35816993 53.5778477,6.30647749 53.1424818,6.30647749 C50.6839452,6.30647749 48.6863843,7.59878847 47.124189,10.1834104 C45.7924817,12.380339 45.1266281,14.8098836 45.1266281,17.4720442 C45.1266281,19.4622031 45.5363843,21.1680536 46.3558964,22.5895956 C47.2778477,24.2179074 48.6351648,25.2000639 50.4534575,25.587757 C50.9400429,25.6911418 51.4010183,25.7428342 51.8363843,25.7428342 C54.3205306,25.7428342 56.3180915,24.4505234 57.8546768,21.8659015 C59.1863843,19.6431266 59.852238,17.213582 59.852238,14.5514214 C59.8778477,12.5354163 59.4424818,10.8554121 58.6229697,9.45971625 L58.6229697,9.45971625 Z M55.3961404,16.619119 C55.0376037,18.3249694 54.3973598,19.5914342 53.449799,20.4443594 C52.7071159,21.1163611 52.0156525,21.4006695 51.3754086,21.2714385 C50.7607744,21.1422074 50.2485793,20.5994367 49.8644331,19.5914342 C49.5571159,18.7902014 49.4034574,17.9889686 49.4034574,17.2394282 C49.4034574,16.5932728 49.4546769,15.9471173 49.5827256,15.3526542 C49.8132136,14.2929592 50.2485793,13.2591105 50.9400429,12.2769541 C51.7851648,11.0104894 52.6815061,10.493565 53.6034575,10.6744886 C54.2180916,10.8037196 54.7302868,11.3464902 55.114433,12.3544928 C55.4217502,13.1557256 55.5754087,13.9569584 55.5754087,14.7064987 C55.5754087,15.3785005 55.5241892,16.0246559 55.3961404,16.619119 L55.3961404,16.619119 Z M42.5912622,9.45971625 C41.6693111,7.83140443 40.2863843,6.84924811 38.4937014,6.46155482 C38.0071159,6.35816993 37.5461403,6.30647749 37.1107746,6.30647749 C34.652238,6.30647749 32.6546768,7.59878847 31.0924818,10.1834104 C29.7607745,12.380339 29.0949209,14.8098836 29.0949209,17.4720442 C29.0949209,19.4622031 29.5046768,21.1680536 30.3241892,22.5895956 C31.2461403,24.2179074 32.6034573,25.2000639 34.42175,25.587757 C34.9083354,25.6911418 35.3693111,25.7428342 35.8046768,25.7428342 C38.2888232,25.7428342 40.2863843,24.4505234 41.8229696,21.8659015 C43.1546769,19.6431266 43.8205305,17.213582 43.8205305,14.5514214 C43.8205305,12.5354163 43.4107746,10.8554121 42.5912622,9.45971625 L42.5912622,9.45971625 Z M39.3388232,16.619119 C38.9802868,18.3249694 38.3400429,19.5914342 37.3924818,20.4443594 C36.6497989,21.1163611 35.9583355,21.4006695 35.3180916,21.2714385 C34.7034575,21.1422074 34.1912623,20.5994367 33.8071159,19.5914342 C33.4997989,18.7902014 33.3461404,17.9889686 33.3461404,17.2394282 C33.3461404,16.5932728 33.3973599,15.9471173 33.5254087,15.3526542 C33.7558964,14.2929592 34.1912623,13.2591105 34.8827257,12.2769541 C35.7278476,11.0104894 36.6241892,10.493565 37.5461403,10.6744886 C38.1607744,10.8037196 38.6729696,11.3464902 39.057116,12.3544928 C39.364433,13.1557256 39.5180915,13.9569584 39.5180915,14.7064987 C39.5437012,15.3785005 39.466872,16.0246559 39.3388232,16.619119 L39.3388232,16.619119 L39.3388232,16.619119 L39.3388232,16.619119 Z" id="Shape" fill="#FFFFFF"></path>
                    </g>
                </g>
            </g>
        </g>
    </g>
</svg>