<?xml version="1.0" encoding="UTF-8" standalone="no"?>
<svg width="100px" height="71px" viewBox="0 0 100 71" version="1.1" xmlns="http://www.w3.org/2000/svg" xmlns:xlink="http://www.w3.org/1999/xlink">
    <!-- Generator: Sketch 3.8.1 (29687) - http://www.bohemiancoding.com/sketch -->
    <title>box-left</title>
    <desc>Created with Sketch.</desc>
    <defs>
        <linearGradient x1="0%" y1="0%" x2="106.265625%" y2="109.895844%" id="linearGradient-1">
            <stop stop-color="#C8EAF4" stop-opacity="0.208021966" offset="0%"></stop>
            <stop stop-color="#3DD0FF" offset="100%"></stop>
        </linearGradient>
        <rect id="path-2" x="0" y="0" width="100" height="70.04"></rect>
        <mask id="mask-3" maskContentUnits="userSpaceOnUse" maskUnits="objectBoundingBox" x="0" y="0" width="100" height="70.04" fill="white">
            <use xlink:href="#path-2"></use>
        </mask>
        <mask id="mask-5" maskContentUnits="userSpaceOnUse" maskUnits="objectBoundingBox" x="0" y="0" width="100" height="70.04" fill="white">
            <use xlink:href="#path-2"></use>
        </mask>
        <rect id="path-6" x="10" y="9" width="46" height="51"></rect>
        <filter x="-50%" y="-50%" width="200%" height="200%" filterUnits="objectBoundingBox" id="filter-7">
            <feOffset dx="0" dy="2" in="SourceAlpha" result="shadowOffsetOuter1"></feOffset>
            <feGaussianBlur stdDeviation="1.5" in="shadowOffsetOuter1" result="shadowBlurOuter1"></feGaussianBlur>
            <feColorMatrix values="0 0 0 0 0   0 0 0 0 0   0 0 0 0 0  0 0 0 0.186679121 0" type="matrix" in="shadowBlurOuter1"></feColorMatrix>
        </filter>
    </defs>
    <g id="Banner-Presets" stroke="none" stroke-width="1" fill="none" fill-rule="evenodd">
        <g id="box-left">
            <mask id="mask-4" fill="white">
                <use xlink:href="#path-2"></use>
            </mask>
            <g id="BG" stroke="#00A0D2" mask="url(#mask-3)" stroke-width="2" fill-opacity="0.15" fill="url(#linearGradient-1)">
                <use mask="url(#mask-5)" xlink:href="#path-2"></use>
            </g>
            <path d="M81.7063774,47.8283343 C81.7063774,47.8283343 86.7588801,42.8687512 87.8593965,36.1988669 C90.8212084,36.1988669 92.6505629,29.1079406 89.6887509,26.6136304 C89.8136116,23.9886519 93.4955504,6 74.8448464,6 C56.1941424,6 59.8760811,23.9886519 60.0009418,26.6136304 C57.0391299,29.1079406 58.8684843,36.1988669 61.8302963,36.1988669 C62.9308126,42.8687512 67.9862191,47.8283343 67.9862191,47.8283343 C67.9862191,47.8283343 67.9455668,52.5178699 66.2265544,52.7879175 C60.6862238,53.6619424 40,62.7070837 40,72.62625 L109.689693,72.62625 C109.689693,62.7070837 89.0034689,53.6619424 83.4660421,52.7879175 C81.7470297,52.5178699 81.7063774,47.8283343 81.7063774,47.8283343 Z" id="Shape-Copy-6" fill-opacity="0.532382246" fill="#00A0D2" opacity="0.333430504" mask="url(#mask-4)"></path>
            <g id="Rectangle-93" mask="url(#mask-4)">
                <use fill="black" fill-opacity="1" filter="url(#filter-7)" xlink:href="#path-6"></use>
                <use fill="#FFFFFF" fill-rule="evenodd" xlink:href="#path-6"></use>
            </g>
            <g id="Group" mask="url(#mask-4)" fill="#00A0D2">
                <g transform="translate(17.000000, 24.000000)" id="Rectangle-7">
                    <rect opacity="0.485366138" x="0" y="19" width="15" height="5"></rect>
                    <rect x="0" y="9" width="32" height="4"></rect>
                    <rect x="0" y="0" width="22" height="4"></rect>
                </g>
            </g>
        </g>
    </g>
</svg>