<?xml version="1.0" encoding="UTF-8" standalone="no"?>
<svg width="100px" height="71px" viewBox="0 0 100 71" version="1.1" xmlns="http://www.w3.org/2000/svg" xmlns:xlink="http://www.w3.org/1999/xlink">
    <!-- Generator: Sketch 3.8.1 (29687) - http://www.bohemiancoding.com/sketch -->
    <title>circle-right</title>
    <desc>Created with Sketch.</desc>
    <defs>
        <rect id="path-1" x="0" y="0" width="100" height="70.04"></rect>
    </defs>
    <g id="Banner-Presets" stroke="none" stroke-width="1" fill="none" fill-rule="evenodd">
        <g id="circle-right">
            <mask id="mask-2" fill="white">
                <use xlink:href="#path-1"></use>
            </mask>
            <use id="BG" fill="#00A0D2" xlink:href="#path-1"></use>
            <path d="M49.7063774,47.8283343 C49.7063774,47.8283343 54.7588801,42.8687512 55.8593965,36.1988669 C58.8212084,36.1988669 60.6505629,29.1079406 57.6887509,26.6136304 C57.8136116,23.9886519 61.4955504,6 42.8448464,6 C24.1941424,6 27.8760811,23.9886519 28.0009418,26.6136304 C25.0391299,29.1079406 26.8684843,36.1988669 29.8302963,36.1988669 C30.9308126,42.8687512 35.9862191,47.8283343 35.9862191,47.8283343 C35.9862191,47.8283343 35.9455668,52.5178699 34.2265544,52.7879175 C28.6862238,53.6619424 8,62.7070837 8,72.62625 L77.6896927,72.62625 C77.6896927,62.7070837 57.0034689,53.6619424 51.4660421,52.7879175 C49.7470297,52.5178699 49.7063774,47.8283343 49.7063774,47.8283343 Z" id="Shape-Copy-6" fill="#FFFFFF" opacity="0.151061101" mask="url(#mask-2)"></path>
            <path d="M72,57 C84.1502645,57 94,47.1502645 94,35 C94,22.8497355 84.1502645,13 72,13 C59.8497355,13 50,22.8497355 50,35 C50,47.1502645 59.8497355,57 72,57 Z" id="Oval-4" fill="#000000" opacity="0.608558769" mask="url(#mask-2)"></path>
            <g id="Group" mask="url(#mask-2)" fill="#FFFFFF">
                <g transform="translate(56.000000, 23.000000)" id="Rectangle-7">
                    <rect opacity="0.425139925" x="9" y="19" width="15" height="5"></rect>
                    <rect x="0" y="9" width="32" height="4"></rect>
                    <rect x="5" y="0" width="22" height="4"></rect>
                </g>
            </g>
        </g>
    </g>
</svg>