<?xml version="1.0" encoding="UTF-8" standalone="no"?>
<svg width="100px" height="70px" viewBox="0 0 100 70" version="1.1" xmlns="http://www.w3.org/2000/svg" xmlns:xlink="http://www.w3.org/1999/xlink">
    <!-- Generator: Sketch 3.8.1 (29687) - http://www.bohemiancoding.com/sketch -->
    <title>huge-sale</title>
    <desc>Created with Sketch.</desc>
    <defs>
        <rect id="path-1" x="0" y="0" width="99.9428898" height="70"></rect>
    </defs>
    <g id="Banner-Presets" stroke="none" stroke-width="1" fill="none" fill-rule="evenodd">
        <g id="huge-sale">
            <mask id="mask-2" fill="white">
                <use xlink:href="#path-1"></use>
            </mask>
            <use id="BG" fill="#00A0D2" xlink:href="#path-1"></use>
            <path d="M59.7063774,47.8283343 C59.7063774,47.8283343 64.7588801,42.8687512 65.8593965,36.1988669 C68.8212084,36.1988669 70.6505629,29.1079406 67.6887509,26.6136304 C67.8136116,23.9886519 71.4955504,6 52.8448464,6 C34.1941424,6 37.8760811,23.9886519 38.0009418,26.6136304 C35.0391299,29.1079406 36.8684843,36.1988669 39.8302963,36.1988669 C40.9308126,42.8687512 45.9862191,47.8283343 45.9862191,47.8283343 C45.9862191,47.8283343 45.9455668,52.5178699 44.2265544,52.7879175 C38.6862238,53.6619424 18,62.7070837 18,72.62625 L87.6896927,72.62625 C87.6896927,62.7070837 67.0034689,53.6619424 61.4660421,52.7879175 C59.7470297,52.5178699 59.7063774,47.8283343 59.7063774,47.8283343 Z" id="Shape-Copy-6" fill="#FFFFFF" opacity="0.151061101" mask="url(#mask-2)"></path>
            <g id="Group" mask="url(#mask-2)" stroke="#FFFFFF">
                <g transform="translate(24.000000, 48.000000)" id="Rectangle-7">
                    <rect x="0.875" y="0.56" width="15.125" height="5.44"></rect>
                    <rect x="20.875" y="0.56" width="15.125" height="5.44"></rect>
                    <rect x="40.875" y="0.56" width="15.125" height="5.44"></rect>
                </g>
            </g>
            <path d="M20,30.0473301 L20,21.151699 L21.7961165,21.151699 L21.7961165,24.6529126 L25.315534,24.6529126 L25.315534,21.151699 L27.1116505,21.151699 L27.1116505,30.0473301 L25.315534,30.0473301 L25.315534,26.157767 L21.7961165,26.157767 L21.7961165,30.0473301 L20,30.0473301 Z M28.3349515,21.151699 L30.131068,21.151699 L30.131068,25.9696602 C30.131068,26.7342271 30.1533169,27.2297723 30.1978155,27.4563107 C30.2746768,27.8203902 30.4577251,28.1126607 30.746966,28.3331311 C31.036207,28.5536014 31.4316318,28.663835 31.9332524,28.663835 C32.4429637,28.663835 32.8272641,28.5596693 33.0861651,28.351335 C33.345066,28.1430006 33.5008088,27.8871374 33.5533981,27.5837379 C33.6059873,27.2803383 33.6322816,26.7767026 33.6322816,26.0728155 L33.6322816,21.151699 L35.4283981,21.151699 L35.4283981,25.8240291 C35.4283981,26.8919956 35.3798549,27.6464379 35.282767,28.0873786 C35.1856791,28.5283194 35.0066761,28.9004839 34.7457524,29.2038835 C34.4848288,29.5072831 34.1359245,29.7489878 33.6990291,29.9290049 C33.2621337,30.1090219 32.6917511,30.1990291 31.9878641,30.1990291 C31.1383453,30.1990291 30.4941365,30.1009314 30.0552184,29.904733 C29.6163004,29.7085346 29.2694188,29.4536828 29.0145631,29.1401699 C28.7597075,28.826657 28.5918289,28.4979791 28.5109223,28.1541262 C28.3936078,27.6444149 28.3349515,26.8919953 28.3349515,25.8968447 L28.3349515,21.151699 Z M40.8385922,26.776699 L40.8385922,25.2779126 L44.7099515,25.2779126 L44.7099515,28.821602 C44.333736,29.1856814 43.7886363,29.5062689 43.0746359,29.7833738 C42.3606356,30.0604787 41.6375441,30.1990291 40.9053398,30.1990291 C39.9749144,30.1990291 39.1638384,30.003845 38.4720874,29.6134709 C37.7803363,29.2230968 37.2605195,28.6648499 36.9126214,27.9387136 C36.5647232,27.2125773 36.3907767,26.4227389 36.3907767,25.5691748 C36.3907767,24.6427947 36.5849495,23.8195829 36.973301,23.0995146 C37.3616524,22.3794462 37.9300124,21.8272673 38.6783981,21.4429612 C39.2487893,21.1476522 39.9587336,21 40.8082524,21 C41.9126269,21 42.7752801,21.2315915 43.3962379,21.6947816 C44.0171957,22.1579716 44.4166658,22.7981351 44.5946602,23.6152913 L42.8106796,23.9490291 C42.6852745,23.5121337 42.4496377,23.1672747 42.1037621,22.9144417 C41.7578866,22.6616088 41.3260544,22.5351942 40.8082524,22.5351942 C40.0234589,22.5351942 39.3994764,22.7839781 38.9362864,23.2815534 C38.4730964,23.7791287 38.2415049,24.5173899 38.2415049,25.4963592 C38.2415049,26.5521898 38.4761303,27.3440508 38.9453884,27.871966 C39.4146464,28.3998813 40.0295269,28.663835 40.7900485,28.663835 C41.166264,28.663835 41.5434852,28.5900088 41.9217233,28.4423544 C42.2999614,28.2946999 42.6245941,28.1156969 42.8956311,27.9053398 L42.8956311,26.776699 L40.8385922,26.776699 Z M45.7451456,30.0473301 L45.7451456,21.151699 L52.3410194,21.151699 L52.3410194,22.6565534 L47.5412621,22.6565534 L47.5412621,24.6286408 L52.0072816,24.6286408 L52.0072816,26.1274272 L47.5412621,26.1274272 L47.5412621,28.5485437 L52.5109223,28.5485437 L52.5109223,30.0473301 L45.7451456,30.0473301 Z M55.7888349,27.1529126 L57.5364078,26.9830097 C57.6415863,27.5695822 57.8549741,28.0004032 58.1765777,28.2754854 C58.4981812,28.5505677 58.9320361,28.6881068 59.4781553,28.6881068 C60.0566372,28.6881068 60.4925147,28.5657375 60.785801,28.3209952 C61.0790872,28.0762528 61.2257282,27.7900502 61.2257282,27.4623786 C61.2257282,27.2520216 61.1640378,27.0730185 61.0406553,26.9253641 C60.9172728,26.7777096 60.7018624,26.6492724 60.3944175,26.5400485 C60.1840604,26.4672327 59.7046963,26.3377841 58.9563107,26.151699 C57.9935227,25.9130247 57.3179631,25.6197428 56.9296116,25.2718447 C56.3834924,24.78236 56.1104369,24.1856831 56.1104369,23.4817961 C56.1104369,23.0287194 56.2388741,22.6049777 56.4957524,22.2105583 C56.7526307,21.8161388 57.1227727,21.5157777 57.6061893,21.309466 C58.089606,21.1031543 58.6731357,21 59.3567961,21 C60.4733066,21 61.3137108,21.2447387 61.878034,21.7342233 C62.4423572,22.223708 62.738673,22.8770186 62.7669903,23.6941748 L60.9708738,23.7730583 C60.8940126,23.3159362 60.7291679,22.9872583 60.476335,22.7870146 C60.223502,22.5867708 59.8442582,22.4866505 59.3385922,22.4866505 C58.816745,22.4866505 58.408173,22.5938501 58.1128641,22.8082524 C57.9227337,22.9457936 57.8276699,23.1298532 57.8276699,23.3604369 C57.8276699,23.5707939 57.9166658,23.7508083 58.0946602,23.9004854 C58.3211985,24.0906158 58.8713549,24.2888339 59.7451456,24.4951456 C60.6189364,24.7014573 61.2651678,24.9148452 61.6838592,25.1353155 C62.1025506,25.3557859 62.4302173,25.6571583 62.6668689,26.0394418 C62.9035206,26.4217252 63.0218447,26.8940101 63.0218447,27.4563107 C63.0218447,27.966022 62.8802603,28.4433635 62.5970874,28.8883495 C62.3139144,29.3333356 61.913433,29.6640361 61.3956311,29.8804612 C60.8778291,30.0968862 60.232609,30.2050971 59.4599515,30.2050971 C58.3353504,30.2050971 57.4716859,29.9451887 56.868932,29.4253641 C56.2661782,28.9055395 55.9061494,28.1480632 55.7888349,27.1529126 L55.7888349,27.1529126 Z M71.9332524,30.0473301 L69.9793689,30.0473301 L69.2026699,28.026699 L65.6468447,28.026699 L64.9126214,30.0473301 L63.0072815,30.0473301 L66.4720874,21.151699 L68.3713592,21.151699 L71.9332524,30.0473301 Z M68.6262136,26.5279126 L67.4004854,23.2269418 L66.1990291,26.5279126 L68.6262136,26.5279126 Z M72.3131068,30.0473301 L72.3131068,21.2245146 L74.1092233,21.2245146 L74.1092233,28.5485437 L78.5752427,28.5485437 L78.5752427,30.0473301 L72.3131068,30.0473301 Z M79.2342233,30.0473301 L79.2342233,21.151699 L85.8300971,21.151699 L85.8300971,22.6565534 L81.0303398,22.6565534 L81.0303398,24.6286408 L85.4963592,24.6286408 L85.4963592,26.1274272 L81.0303398,26.1274272 L81.0303398,28.5485437 L86,28.5485437 L86,30.0473301 L79.2342233,30.0473301 Z" id="HUGE-SALE" fill="#FFFFFF" mask="url(#mask-2)"></path>
            <path d="M25.5472659,33.9801482 L26.6620175,33.9801482 L26.6620175,36.9703938 C26.6620175,37.4449188 26.6758262,37.7524767 26.703444,37.8930766 C26.7511476,38.1190409 26.8647557,38.3004373 27.0442718,38.4372712 C27.2237878,38.5741051 27.4692065,38.6425211 27.780535,38.6425211 C28.096885,38.6425211 28.3353993,38.5778712 28.496085,38.4485694 C28.6567707,38.3192676 28.7534317,38.1604673 28.786071,37.9721637 C28.8187103,37.7838602 28.8350297,37.471281 28.8350297,37.0344167 L28.8350297,33.9801482 L29.9497812,33.9801482 L29.9497812,36.8800085 C29.9497812,37.5428371 29.9196531,38.0110783 29.859396,38.2847461 C29.7991388,38.5584139 29.6880414,38.7893962 29.5261003,38.9776997 C29.3641593,39.1660033 29.1476134,39.3160162 28.8764563,39.427743 C28.6052991,39.5394698 28.2512938,39.5953323 27.8144295,39.5953323 C27.2871795,39.5953323 26.8873543,39.5344484 26.6149418,39.4126788 C26.3425293,39.2909092 26.1272388,39.1327365 25.9690638,38.9381562 C25.8108888,38.7435758 25.7066957,38.5395834 25.6564815,38.3261727 C25.5836708,38.0098227 25.5472659,37.5428369 25.5472659,36.9252012 L25.5472659,33.9801482 Z M30.7391458,39.501181 L30.7391458,33.9801482 L32.5280207,33.9801482 C33.2059135,33.9801482 33.6477926,34.0077656 33.8536711,34.0630013 C34.1700211,34.1458549 34.4348975,34.325996 34.6483082,34.6034299 C34.8617189,34.8808638 34.9684226,35.2392629 34.9684226,35.6786378 C34.9684226,36.0175842 34.9069111,36.302546 34.7838861,36.5335317 C34.6608611,36.7645174 34.5045715,36.9459138 34.3150125,37.0777263 C34.1254536,37.2095388 33.9327592,37.2967848 33.7369235,37.3394669 C33.4707878,37.3921919 33.085399,37.418554 32.5807454,37.418554 L31.8538973,37.418554 L31.8538973,39.501181 L30.7391458,39.501181 Z M31.8538973,34.9141292 L31.8538973,36.480807 L32.4639978,36.480807 C32.9033728,36.480807 33.1971219,36.4519342 33.345254,36.3941878 C33.4933862,36.3364414 33.609505,36.246057 33.6936139,36.123032 C33.7777228,36.000007 33.8197766,35.8568985 33.8197766,35.693702 C33.8197766,35.4928449 33.7607758,35.3271403 33.6427722,35.1965831 C33.5247686,35.066026 33.3753834,34.984429 33.1946119,34.9517897 C33.0615441,34.9266826 32.7941571,34.9141292 32.3924428,34.9141292 L31.8538973,34.9141292 Z M38.358623,39.501181 L38.358623,34.9141292 L36.7203902,34.9141292 L36.7203902,33.9801482 L41.1078412,33.9801482 L41.1078412,34.9141292 L39.4733745,34.9141292 L39.4733745,39.501181 L38.358623,39.501181 Z M41.0762064,36.7745591 C41.0762064,36.2121591 41.160314,35.7401519 41.3285319,35.3585234 C41.4540676,35.0773234 41.6254213,34.8250004 41.842598,34.6015468 C42.0597748,34.3780933 42.2976614,34.2123886 42.556265,34.1044279 C42.9002328,33.9588065 43.2969197,33.8859969 43.7463375,33.8859969 C44.5598089,33.8859969 45.2107018,34.1383199 45.6990357,34.6429734 C46.1873696,35.147627 46.4315329,35.849361 46.4315329,36.7481967 C46.4315329,37.6395002 46.1892526,38.3368406 45.7046848,38.8402388 C45.220117,39.343637 44.5723624,39.5953323 43.7614017,39.5953323 C42.9403982,39.5953323 42.2876223,39.3448924 41.8030545,38.8440049 C41.3184867,38.3431174 41.0762064,37.653309 41.0762064,36.7745591 L41.0762064,36.7745591 Z M42.2248524,36.7368986 C42.2248524,37.3620664 42.3692163,37.8359566 42.6579484,38.1585833 C42.9466805,38.4812101 43.3132393,38.6425211 43.7576357,38.6425211 C44.2020321,38.6425211 44.5667079,38.4824654 44.8516739,38.1623494 C45.13664,37.8422333 45.2791209,37.3620665 45.2791209,36.7218343 C45.2791209,36.0891344 45.140406,35.6171272 44.8629721,35.3057986 C44.5855382,34.9944701 44.2170964,34.8388081 43.7576357,34.8388081 C43.298175,34.8388081 42.9278502,34.9963531 42.6466502,35.3114477 C42.3654502,35.6265423 42.2248524,36.1016879 42.2248524,36.7368986 L42.2248524,36.7368986 Z M48.439592,35.0384089 L48.439592,34.0554692 L52.0587684,34.0554692 L52.0587684,34.8237439 C51.7599934,35.1174975 51.4562015,35.5392911 51.1473837,36.0891375 C50.8385659,36.6389839 50.6031899,37.2233439 50.4412489,37.8422349 C50.2793078,38.461126 50.1995938,39.0141025 50.2021045,39.501181 L49.1815043,39.501181 C49.1990793,38.7379239 49.3566243,37.9596142 49.6541439,37.1662285 C49.9516635,36.3728429 50.3489781,35.6635767 50.8460995,35.0384089 L48.439592,35.0384089 Z M54.1323568,33.9575519 C54.6671389,33.9575519 55.0851666,34.1483633 55.3864523,34.5299918 C55.7454844,34.9819204 55.9249978,35.7313573 55.9249978,36.7783251 C55.9249978,37.8227822 55.7442291,38.5734745 55.3826862,39.0304245 C55.0839112,39.4070316 54.6671389,39.5953323 54.1323568,39.5953323 C53.595064,39.5953323 53.1619723,39.3888292 52.8330687,38.9758167 C52.5041652,38.5628042 52.3397159,37.8265484 52.3397159,36.767027 C52.3397159,35.7275913 52.5204846,34.9794097 52.8820274,34.5224597 C53.1808024,34.1458526 53.5975747,33.9575519 54.1323568,33.9575519 L54.1323568,33.9575519 Z M54.1323568,34.8350421 C54.0043104,34.8350421 53.8900746,34.8758406 53.7896461,34.9574388 C53.6892175,35.039037 53.6113865,35.1852839 53.5561508,35.3961839 C53.4833401,35.6698517 53.4469353,36.1305609 53.4469353,36.7783251 C53.4469353,37.4260894 53.4795741,37.8711068 53.5448526,38.1133907 C53.6101312,38.3556746 53.6923559,38.5169856 53.7915291,38.5973284 C53.8907023,38.6776713 54.0043104,38.7178421 54.1323568,38.7178421 C54.2604032,38.7178421 54.374639,38.6770436 54.4750676,38.5954454 C54.5754962,38.5138472 54.6533271,38.3676003 54.7085628,38.1567003 C54.7813735,37.8855432 54.8177784,37.4260894 54.8177784,36.7783251 C54.8177784,36.1305609 54.7851396,35.6855435 54.719861,35.4432596 C54.6545824,35.2009756 54.5723578,35.039037 54.4731846,34.9574388 C54.3740114,34.8758406 54.2604032,34.8350421 54.1323568,34.8350421 L54.1323568,34.8350421 Z M56.2549039,35.3434592 C56.2549039,34.8488485 56.3634907,34.4822897 56.5806675,34.2437719 C56.7978443,34.005254 57.0922211,33.8859969 57.4638068,33.8859969 C57.847946,33.8859969 58.1485995,34.0046263 58.3657763,34.2418888 C58.5829531,34.4791513 58.6915398,34.8463378 58.6915398,35.3434592 C58.6915398,35.8380699 58.5829531,36.2046286 58.3657763,36.4431465 C58.1485995,36.6816643 57.8542227,36.8009214 57.482637,36.8009214 C57.0984978,36.8009214 56.7978443,36.682292 56.5806675,36.4450295 C56.3634907,36.207767 56.2549039,35.8405806 56.2549039,35.3434592 L56.2549039,35.3434592 Z M57.0796694,35.3359271 C57.0796694,35.6949592 57.1210956,35.9359841 57.2039491,36.0590091 C57.266717,36.1493948 57.3533353,36.194587 57.4638068,36.194587 C57.5767889,36.194587 57.6646626,36.1493948 57.7274304,36.0590091 C57.8077733,35.9359841 57.8479441,35.6949592 57.8479441,35.3359271 C57.8479441,34.9768949 57.8077733,34.7371253 57.7274304,34.6166111 C57.6646626,34.5237146 57.5767889,34.4772671 57.4638068,34.4772671 C57.3533353,34.4772671 57.266717,34.5224593 57.2039491,34.612845 C57.1210956,34.73587 57.0796694,34.9768949 57.0796694,35.3359271 L57.0796694,35.3359271 Z M58.269742,39.71208 L57.4864031,39.71208 L60.42769,33.8859969 L61.1884326,33.8859969 L58.269742,39.71208 Z M59.9795298,38.2621498 C59.9795298,37.7675391 60.0881165,37.4009803 60.3052933,37.1624625 C60.5224701,36.9239446 60.8193576,36.8046875 61.1959647,36.8046875 C61.5750825,36.8046875 61.8732254,36.9239446 62.0904021,37.1624625 C62.3075789,37.4009803 62.4161657,37.7675391 62.4161657,38.2621498 C62.4161657,38.7592712 62.3075789,39.1270853 62.0904021,39.3656031 C61.8732254,39.604121 61.5788486,39.7233781 61.2072629,39.7233781 C60.8231236,39.7233781 60.5224701,39.604121 60.3052933,39.3656031 C60.0881165,39.1270853 59.9795298,38.7592712 59.9795298,38.2621498 L59.9795298,38.2621498 Z M60.8042953,38.2583837 C60.8042953,38.6174159 60.8457214,38.8571855 60.928575,38.9776997 C60.9913428,39.0705962 61.0779612,39.1170437 61.1884326,39.1170437 C61.3014147,39.1170437 61.3880331,39.0718515 61.4482902,38.9814658 C61.5311438,38.8584408 61.5725699,38.6174159 61.5725699,38.2583837 C61.5725699,37.8993516 61.5323991,37.6583267 61.4520563,37.5353017 C61.3892884,37.444916 61.3014147,37.3997238 61.1884326,37.3997238 C61.0754505,37.3997238 60.9888321,37.444916 60.928575,37.5353017 C60.8457214,37.6583267 60.8042953,37.8993516 60.8042953,38.2583837 L60.8042953,38.2583837 Z M64.4844816,36.7745591 C64.4844816,36.2121591 64.5685893,35.7401519 64.7368071,35.3585234 C64.8623429,35.0773234 65.0336965,34.8250004 65.2508733,34.6015468 C65.4680501,34.3780933 65.7059367,34.2123886 65.9645402,34.1044279 C66.3085081,33.9588065 66.705195,33.8859969 67.1546128,33.8859969 C67.9680842,33.8859969 68.6189771,34.1383199 69.107311,34.6429734 C69.5956449,35.147627 69.8398082,35.849361 69.8398082,36.7481967 C69.8398082,37.6395002 69.5975279,38.3368406 69.11296,38.8402388 C68.6283922,39.343637 67.9806377,39.5953323 67.169677,39.5953323 C66.3486735,39.5953323 65.6958976,39.3448924 65.2113297,38.8440049 C64.7267619,38.3431174 64.4844816,37.653309 64.4844816,36.7745591 L64.4844816,36.7745591 Z M65.6331276,36.7368986 C65.6331276,37.3620664 65.7774915,37.8359566 66.0662236,38.1585833 C66.3549558,38.4812101 66.7215145,38.6425211 67.1659109,38.6425211 C67.6103074,38.6425211 67.9749831,38.4824654 68.2599492,38.1623494 C68.5449152,37.8422333 68.6873961,37.3620665 68.6873961,36.7218343 C68.6873961,36.0891344 68.5486812,35.6171272 68.2712473,35.3057986 C67.9938134,34.9944701 67.6253716,34.8388081 67.1659109,34.8388081 C66.7064503,34.8388081 66.3361255,34.9963531 66.0549255,35.3114477 C65.7737255,35.6265423 65.6331276,36.1016879 65.6331276,36.7368986 L65.6331276,36.7368986 Z M70.3316546,39.501181 L70.3316546,33.9801482 L74.1165373,33.9801482 L74.1165373,34.9141292 L71.4464061,34.9141292 L71.4464061,36.2209494 L73.7512302,36.2209494 L73.7512302,37.1549304 L71.4464061,37.1549304 L71.4464061,39.501181 L70.3316546,39.501181 Z M74.6573424,39.501181 L74.6573424,33.9801482 L78.442225,33.9801482 L78.442225,34.9141292 L75.7720939,34.9141292 L75.7720939,36.2209494 L78.0769179,36.2209494 L78.0769179,37.1549304 L75.7720939,37.1549304 L75.7720939,39.501181 L74.6573424,39.501181 Z" id="UP-TO-70%-OFF" fill="#FFFFFF" mask="url(#mask-2)"></path>
        </g>
    </g>
</svg>