<?xml version="1.0" encoding="UTF-8" standalone="no"?>
<svg width="245px" height="40px" viewBox="0 0 245 40" version="1.1" xmlns="http://www.w3.org/2000/svg" xmlns:xlink="http://www.w3.org/1999/xlink">
    <!-- Generator: Sketch 3.8.1 (29687) - http://www.bohemiancoding.com/sketch -->
    <title>header-super-simple-dark</title>
    <desc>Created with Sketch.</desc>
    <defs>
        <rect id="path-1" x="0" y="0" width="245" height="39.516129" rx="4"></rect>
        <mask id="mask-2" maskContentUnits="userSpaceOnUse" maskUnits="objectBoundingBox" x="0" y="0" width="245" height="39.516129" fill="white">
            <use xlink:href="#path-1"></use>
        </mask>
        <mask id="mask-4" maskContentUnits="userSpaceOnUse" maskUnits="objectBoundingBox" x="0" y="0" width="245" height="39.516129" fill="white">
            <use xlink:href="#path-1"></use>
        </mask>
    </defs>
    <g id="Header-Presets" stroke="none" stroke-width="1" fill="none" fill-rule="evenodd">
        <g id="header-super-simple-dark">
            <mask id="mask-3" fill="white">
                <use xlink:href="#path-1"></use>
            </mask>
            <g id="Mask" stroke="#3498DB" mask="url(#mask-2)" stroke-width="2" fill-opacity="0.127858922" fill="#3498DB">
                <use mask="url(#mask-4)" xlink:href="#path-1"></use>
            </g>
            <path d="M220,15 L232,15 L232,17.1508232 L220,17.1508232 L220,15 Z M220,19.2520156 L232,19.2520156 L232,21.4028388 L220,21.4028388 L220,19.2520156 Z M220,23.5040313 L232,23.5040313 L232,25.6548544 L220,25.6548544 L220,23.5040313 Z" id="Shape-Copy-13" fill="#3498DB" mask="url(#mask-3)"></path>
            <path d="M11.4083333,14.4741935 L11.4083333,23.8790323 L18.0602151,23.8790323 L18.0602151,22.1403226 L13.4763441,22.1403226 L13.4763441,14.4741935 L11.4083333,14.4741935 Z M20.6814516,20.4806452 C20.6814516,20.2084216 20.7077954,19.9405927 20.7604839,19.6771505 C20.8131723,19.4137084 20.9031804,19.1810046 21.0305108,18.9790323 C21.1578411,18.7770599 21.3268807,18.612411 21.5376344,18.4850806 C21.7483882,18.3577503 22.0118264,18.294086 22.327957,18.294086 C22.6440876,18.294086 22.9097211,18.3577503 23.1248656,18.4850806 C23.34001,18.612411 23.5112449,18.7770599 23.6385753,18.9790323 C23.7659057,19.1810046 23.8559137,19.4137084 23.9086022,19.6771505 C23.9612906,19.9405927 23.9876344,20.2084216 23.9876344,20.4806452 C23.9876344,20.7528687 23.9612906,21.0185023 23.9086022,21.2775538 C23.8559137,21.5366052 23.7659057,21.769309 23.6385753,21.975672 C23.5112449,22.1820351 23.34001,22.346684 23.1248656,22.4696237 C22.9097211,22.5925633 22.6440876,22.6540323 22.327957,22.6540323 C22.0118264,22.6540323 21.7483882,22.5925633 21.5376344,22.4696237 C21.3268807,22.346684 21.1578411,22.1820351 21.0305108,21.975672 C20.9031804,21.769309 20.8131723,21.5366052 20.7604839,21.2775538 C20.7077954,21.0185023 20.6814516,20.7528687 20.6814516,20.4806452 L20.6814516,20.4806452 Z M18.8110215,20.4806452 C18.8110215,21.0250923 18.8944436,21.5168437 19.0612903,21.955914 C19.228137,22.3949843 19.4652314,22.7703837 19.7725806,23.0821237 C20.0799299,23.3938636 20.4487434,23.6331533 20.8790323,23.8 C21.3093211,23.9668467 21.7922912,24.0502688 22.327957,24.0502688 C22.8636227,24.0502688 23.3487881,23.9668467 23.7834677,23.8 C24.2181473,23.6331533 24.5891562,23.3938636 24.8965054,23.0821237 C25.2038546,22.7703837 25.440949,22.3949843 25.6077957,21.955914 C25.7746424,21.5168437 25.8580645,21.0250923 25.8580645,20.4806452 C25.8580645,19.936198 25.7746424,19.4422513 25.6077957,18.9987903 C25.440949,18.5553293 25.2038546,18.1777345 24.8965054,17.8659946 C24.5891562,17.5542547 24.2181473,17.3127697 23.7834677,17.1415323 C23.3487881,16.9702948 22.8636227,16.8846774 22.327957,16.8846774 C21.7922912,16.8846774 21.3093211,16.9702948 20.8790323,17.1415323 C20.4487434,17.3127697 20.0799299,17.5542547 19.7725806,17.8659946 C19.4652314,18.1777345 19.228137,18.5553293 19.0612903,18.9987903 C18.8944436,19.4422513 18.8110215,19.936198 18.8110215,20.4806452 L18.8110215,20.4806452 Z M30.2443548,22.272043 C29.9545684,22.272043 29.7130834,22.2105741 29.5198925,22.0876344 C29.3267015,21.9646947 29.1708339,21.8066318 29.0522849,21.6134409 C28.933736,21.4202499 28.8503139,21.2029134 28.8020161,20.9614247 C28.7537184,20.7199361 28.7295699,20.4762557 28.7295699,20.2303763 C28.7295699,19.9757156 28.758109,19.7320352 28.8151882,19.499328 C28.8722673,19.2666207 28.9644707,19.0602608 29.0918011,18.8802419 C29.2191315,18.7002231 29.3771944,18.5575274 29.5659946,18.4521505 C29.7547949,18.3467737 29.9809127,18.294086 30.2443548,18.294086 C30.551704,18.294086 30.806361,18.3511643 31.0083333,18.4653226 C31.2103057,18.5794809 31.3727592,18.7331532 31.4956989,18.9263441 C31.6186386,19.119535 31.7064513,19.3412622 31.7591398,19.5915323 C31.8118282,19.8418023 31.838172,20.1074359 31.838172,20.3884409 C31.838172,20.6343202 31.8052423,20.8692193 31.7393817,21.0931452 C31.6735212,21.317071 31.5747318,21.516845 31.4430108,21.6924731 C31.3112897,21.8681012 31.1444455,22.0086016 30.9424731,22.1139785 C30.7405008,22.2193554 30.507797,22.272043 30.2443548,22.272043 L30.2443548,22.272043 Z M33.6163978,23.4443548 L33.6163978,17.069086 L31.838172,17.069086 L31.838172,17.977957 L31.811828,17.977957 C31.5835114,17.5827937 31.3003153,17.3017929 30.9622312,17.1349462 C30.6241471,16.9680995 30.231185,16.8846774 29.7833333,16.8846774 C29.3091374,16.8846774 28.8898316,16.9768808 28.5254032,17.1612903 C28.1609749,17.3456998 27.8558256,17.5937708 27.6099462,17.9055108 C27.3640669,18.2172507 27.1774648,18.5772829 27.0501344,18.9856183 C26.922804,19.3939537 26.8591398,19.8176501 26.8591398,20.2567204 C26.8591398,20.7221349 26.9140227,21.163394 27.0237903,21.5805108 C27.1335579,21.9976275 27.3069881,22.3620504 27.544086,22.6737903 C27.781184,22.9855302 28.0841379,23.2314059 28.452957,23.4114247 C28.821776,23.5914436 29.2608397,23.6814516 29.7701613,23.6814516 C30.1828874,23.6814516 30.5758494,23.5958342 30.9490591,23.4245968 C31.3222689,23.2533594 31.6098556,22.9877258 31.811828,22.6276882 L31.838172,22.6276882 L31.838172,23.5233871 C31.8469534,24.0063644 31.7306016,24.4059124 31.4891129,24.722043 C31.2476242,25.0381736 30.8634435,25.1962366 30.3365591,25.1962366 C30.0028657,25.1962366 29.708693,25.1281817 29.4540323,24.9920699 C29.1993715,24.8559581 29.0281366,24.6122777 28.9403226,24.2610215 L27.0830645,24.2610215 C27.1094087,24.6474034 27.2169793,24.9788965 27.4057796,25.2555108 C27.5945798,25.532125 27.8316742,25.7582428 28.1170699,25.933871 C28.4024656,26.1094991 28.7185915,26.2390229 29.065457,26.3224462 C29.4123225,26.4058696 29.7525969,26.4475806 30.0862903,26.4475806 C30.8678354,26.4475806 31.4913059,26.3422054 31.9567204,26.1314516 C32.4221349,25.9206979 32.7777765,25.6638456 33.0236559,25.3608871 C33.2695353,25.0579286 33.4297935,24.7308261 33.5044355,24.3795699 C33.5790774,24.0283137 33.6163978,23.7165784 33.6163978,23.4443548 L33.6163978,23.4443548 Z M36.7776882,20.4806452 C36.7776882,20.2084216 36.804032,19.9405927 36.8567204,19.6771505 C36.9094089,19.4137084 36.9994169,19.1810046 37.1267473,18.9790323 C37.2540777,18.7770599 37.4231172,18.612411 37.633871,18.4850806 C37.8446247,18.3577503 38.1080629,18.294086 38.4241935,18.294086 C38.7403242,18.294086 39.0059577,18.3577503 39.2211022,18.4850806 C39.4362466,18.612411 39.6074814,18.7770599 39.7348118,18.9790323 C39.8621422,19.1810046 39.9521503,19.4137084 40.0048387,19.6771505 C40.0575271,19.9405927 40.083871,20.2084216 40.083871,20.4806452 C40.083871,20.7528687 40.0575271,21.0185023 40.0048387,21.2775538 C39.9521503,21.5366052 39.8621422,21.769309 39.7348118,21.975672 C39.6074814,22.1820351 39.4362466,22.346684 39.2211022,22.4696237 C39.0059577,22.5925633 38.7403242,22.6540323 38.4241935,22.6540323 C38.1080629,22.6540323 37.8446247,22.5925633 37.633871,22.4696237 C37.4231172,22.346684 37.2540777,22.1820351 37.1267473,21.975672 C36.9994169,21.769309 36.9094089,21.5366052 36.8567204,21.2775538 C36.804032,21.0185023 36.7776882,20.7528687 36.7776882,20.4806452 L36.7776882,20.4806452 Z M34.9072581,20.4806452 C34.9072581,21.0250923 34.9906802,21.5168437 35.1575269,21.955914 C35.3243736,22.3949843 35.561468,22.7703837 35.8688172,23.0821237 C36.1761664,23.3938636 36.5449799,23.6331533 36.9752688,23.8 C37.4055577,23.9668467 37.8885278,24.0502688 38.4241935,24.0502688 C38.9598593,24.0502688 39.4450247,23.9668467 39.8797043,23.8 C40.3143839,23.6331533 40.6853927,23.3938636 40.9927419,23.0821237 C41.3000911,22.7703837 41.5371855,22.3949843 41.7040323,21.955914 C41.870879,21.5168437 41.9543011,21.0250923 41.9543011,20.4806452 C41.9543011,19.936198 41.870879,19.4422513 41.7040323,18.9987903 C41.5371855,18.5553293 41.3000911,18.1777345 40.9927419,17.8659946 C40.6853927,17.5542547 40.3143839,17.3127697 39.8797043,17.1415323 C39.4450247,16.9702948 38.9598593,16.8846774 38.4241935,16.8846774 C37.8885278,16.8846774 37.4055577,16.9702948 36.9752688,17.1415323 C36.5449799,17.3127697 36.1761664,17.5542547 35.8688172,17.8659946 C35.561468,18.1777345 35.3243736,18.5553293 35.1575269,18.9987903 C34.9906802,19.4422513 34.9072581,19.936198 34.9072581,20.4806452 L34.9072581,20.4806452 Z" id="Logo" fill="#3498DB" mask="url(#mask-3)"></path>
        </g>
    </g>
</svg>