<?xml version="1.0" encoding="UTF-8" standalone="no"?>
<svg width="247px" height="47px" viewBox="0 0 247 47" version="1.1" xmlns="http://www.w3.org/2000/svg" xmlns:xlink="http://www.w3.org/1999/xlink">
    <!-- Generator: Sketch 3.6.1 (26313) - http://www.bohemiancoding.com/sketch -->
    <title>header-default-icons</title>
    <desc>Created with Sketch.</desc>
    <defs>
        <rect id="path-1" x="0" y="0" width="245" height="45" rx="4"></rect>
        <rect id="path-3" x="0" y="0" width="15.1003453" height="13.109622" rx="1"></rect>
        <rect id="path-5" x="3.02956989" y="-5.57278743" width="9.06020716" height="6.05059479" rx="1"></rect>
    </defs>
    <g id="Page-3" stroke="none" stroke-width="1" fill="none" fill-rule="evenodd">
        <g id="header-default-icons" transform="translate(1.000000, 1.000000)">
            <mask id="mask-2" fill="white">
                <use xlink:href="#path-1"></use>
            </mask>
            <use id="Mask" stroke="#9BD6E8" fill="#FFFFFF" xlink:href="#path-1"></use>
            <rect id="nav-bg" fill-opacity="0.499235734" fill="#9BD6E8" mask="url(#mask-2)" x="-9" y="-16" width="254" height="24"></rect>
            <g id="left" mask="url(#mask-2)">
                <g transform="translate(55.615591, 22.806452)">
                    <text id="HOME---LINK" fill="none" font-family="HelveticaNeue-Bold, Helvetica Neue" font-size="6.58602151" font-weight="bold">
                        <tspan x="15.612164" y="6" fill="#9BD6E8">HOME   LINK</tspan>
                    </text>
                    <path d="M8.3690543,7.43677945 L6.82204567,5.88977082 C7.24614772,5.28253379 7.49675348,4.54517454 7.49675348,3.74837674 C7.49675348,1.67820181 5.81801618,0 3.74837674,0 C1.6787373,0 0,1.67820181 0,3.74837674 C0,5.81855167 1.67820181,7.49675348 3.74837674,7.49675348 C4.54517454,7.49675348 5.28306927,7.24614772 5.89030631,6.82204567 L7.43731493,8.3690543 C7.69434648,8.62608584 8.11202275,8.62608584 8.3690543,8.3690543 C8.62608584,8.11202275 8.62608584,7.69488197 8.3690543,7.43677945 L8.3690543,7.43677945 Z M3.74784126,6.42632418 C2.26937437,6.42632418 1.0704293,5.22791459 1.0704293,3.74891222 C1.0704293,2.26990986 2.26937437,1.07150027 3.74784126,1.07150027 C5.22684362,1.07150027 6.42525322,2.26990986 6.42525322,3.74891222 C6.4257887,5.22791459 5.22737911,6.42632418 3.74784126,6.42632418 L3.74784126,6.42632418 Z" id="Shape" fill="#9BD6E8" fill-rule="evenodd"></path>
                </g>
            </g>
            <g id="logo" mask="url(#mask-2)" fill="#86C5D9">
                <g transform="translate(11.172043, 19.830645)" id="Logo">
                    <path d="M0.408333333,0.474193548 L0.408333333,9.87903226 L7.06021505,9.87903226 L7.06021505,8.14032258 L2.47634409,8.14032258 L2.47634409,0.474193548 L0.408333333,0.474193548 Z M9.68145161,6.48064516 C9.68145161,6.20842158 9.70779544,5.94059272 9.76048387,5.67715054 C9.81317231,5.41370836 9.90318037,5.18100459 10.0305108,4.97903226 C10.1578411,4.77705992 10.3268807,4.61241103 10.5376344,4.48508065 C10.7483882,4.35775026 11.0118264,4.29408602 11.327957,4.29408602 C11.6440876,4.29408602 11.9097211,4.35775026 12.1248656,4.48508065 C12.34001,4.61241103 12.5112449,4.77705992 12.6385753,4.97903226 C12.7659057,5.18100459 12.8559137,5.41370836 12.9086022,5.67715054 C12.9612906,5.94059272 12.9876344,6.20842158 12.9876344,6.48064516 C12.9876344,6.75286874 12.9612906,7.01850229 12.9086022,7.27755376 C12.8559137,7.53660524 12.7659057,7.769309 12.6385753,7.97567204 C12.5112449,8.18203508 12.34001,8.34668397 12.1248656,8.46962366 C11.9097211,8.59256334 11.6440876,8.65403226 11.327957,8.65403226 C11.0118264,8.65403226 10.7483882,8.59256334 10.5376344,8.46962366 C10.3268807,8.34668397 10.1578411,8.18203508 10.0305108,7.97567204 C9.90318037,7.769309 9.81317231,7.53660524 9.76048387,7.27755376 C9.70779544,7.01850229 9.68145161,6.75286874 9.68145161,6.48064516 L9.68145161,6.48064516 Z M7.81102151,6.48064516 C7.81102151,7.02509233 7.89444361,7.51684368 8.06129032,7.95591398 C8.22813703,8.39498427 8.46523144,8.77038375 8.77258065,9.08212366 C9.07992985,9.39386357 9.44874337,9.63315329 9.87903226,9.8 C10.3093211,9.96684671 10.7922912,10.0502688 11.327957,10.0502688 C11.8636228,10.0502688 12.3487881,9.96684671 12.7834677,9.8 C13.2181473,9.63315329 13.5891562,9.39386357 13.8965054,9.08212366 C14.2038546,8.77038375 14.440949,8.39498427 14.6077957,7.95591398 C14.7746424,7.51684368 14.8580645,7.02509233 14.8580645,6.48064516 C14.8580645,5.93619799 14.7746424,5.44225132 14.6077957,4.99879032 C14.440949,4.55532932 14.2038546,4.17773453 13.8965054,3.86599462 C13.5891562,3.55425471 13.2181473,3.31276967 12.7834677,3.14153226 C12.3487881,2.97029484 11.8636228,2.88467742 11.327957,2.88467742 C10.7922912,2.88467742 10.3093211,2.97029484 9.87903226,3.14153226 C9.44874337,3.31276967 9.07992985,3.55425471 8.77258065,3.86599462 C8.46523144,4.17773453 8.22813703,4.55532932 8.06129032,4.99879032 C7.89444361,5.44225132 7.81102151,5.93619799 7.81102151,6.48064516 L7.81102151,6.48064516 Z M19.2443548,8.27204301 C18.9545684,8.27204301 18.7130834,8.21057409 18.5198925,8.08763441 C18.3267015,7.96469473 18.1708339,7.80663179 18.0522849,7.61344086 C17.933736,7.42024993 17.8503139,7.20291339 17.8020161,6.96142473 C17.7537184,6.71993607 17.7295699,6.47625571 17.7295699,6.23037634 C17.7295699,5.97571557 17.758109,5.73203521 17.8151882,5.49932796 C17.8722673,5.2666207 17.9644707,5.06026076 18.0918011,4.88024194 C18.2191315,4.70022311 18.3771944,4.55752741 18.5659946,4.45215054 C18.7547949,4.34677367 18.9809127,4.29408602 19.2443548,4.29408602 C19.551704,4.29408602 19.806361,4.3511643 20.0083333,4.46532258 C20.2103057,4.57948086 20.3727592,4.73315316 20.4956989,4.92634409 C20.6186386,5.11953502 20.7064513,5.34126219 20.7591398,5.59153226 C20.8118282,5.84180233 20.838172,6.10743587 20.838172,6.38844086 C20.838172,6.63432023 20.8052423,6.86921931 20.7393817,7.09314516 C20.6735212,7.31707101 20.5747318,7.516845 20.4430108,7.69247312 C20.3112897,7.86810124 20.1444455,8.00860162 19.9424731,8.11397849 C19.7405008,8.21935537 19.507797,8.27204301 19.2443548,8.27204301 L19.2443548,8.27204301 Z M22.6163978,9.44435484 L22.6163978,3.06908602 L20.838172,3.06908602 L20.838172,3.97795699 L20.811828,3.97795699 C20.5835114,3.58279372 20.3003153,3.30179295 19.9622312,3.13494624 C19.6241471,2.96809952 19.231185,2.88467742 18.7833333,2.88467742 C18.3091374,2.88467742 17.8898316,2.9768808 17.5254032,3.16129032 C17.1609749,3.34569985 16.8558256,3.59377084 16.6099462,3.90551075 C16.3640669,4.21725066 16.1774648,4.5772829 16.0501344,4.98561828 C15.922804,5.39395365 15.8591398,5.81765013 15.8591398,6.25672043 C15.8591398,6.72213494 15.9140227,7.16339397 16.0237903,7.58051075 C16.1335579,7.99762753 16.3069881,8.36205041 16.544086,8.67379032 C16.781184,8.98553023 17.0841379,9.23140591 17.452957,9.41142473 C17.821776,9.59144355 18.2608397,9.68145161 18.7701613,9.68145161 C19.1828874,9.68145161 19.5758494,9.59583419 19.9490591,9.42459677 C20.3222689,9.25335936 20.6098556,8.98772581 20.811828,8.62768817 L20.838172,8.62768817 L20.838172,9.5233871 C20.8469534,10.0063644 20.7306016,10.4059124 20.4891129,10.722043 C20.2476242,11.0381736 19.8634435,11.1962366 19.3365591,11.1962366 C19.0028657,11.1962366 18.708693,11.1281817 18.4540323,10.9920699 C18.1993715,10.8559581 18.0281366,10.6122777 17.9403226,10.2610215 L16.0830645,10.2610215 C16.1094087,10.6474034 16.2169793,10.9788965 16.4057796,11.2555108 C16.5945798,11.532125 16.8316742,11.7582428 17.1170699,11.933871 C17.4024656,12.1094991 17.7185915,12.2390229 18.065457,12.3224462 C18.4123225,12.4058696 18.7525969,12.4475806 19.0862903,12.4475806 C19.8678354,12.4475806 20.4913059,12.3422054 20.9567204,12.1314516 C21.4221349,11.9206979 21.7777765,11.6638456 22.0236559,11.3608871 C22.2695353,11.0579286 22.4297935,10.7308261 22.5044355,10.3795699 C22.5790774,10.0283137 22.6163978,9.71657842 22.6163978,9.44435484 L22.6163978,9.44435484 Z M25.7776882,6.48064516 C25.7776882,6.20842158 25.804032,5.94059272 25.8567204,5.67715054 C25.9094089,5.41370836 25.9994169,5.18100459 26.1267473,4.97903226 C26.2540777,4.77705992 26.4231172,4.61241103 26.633871,4.48508065 C26.8446247,4.35775026 27.1080629,4.29408602 27.4241935,4.29408602 C27.7403242,4.29408602 28.0059577,4.35775026 28.2211022,4.48508065 C28.4362466,4.61241103 28.6074814,4.77705992 28.7348118,4.97903226 C28.8621422,5.18100459 28.9521503,5.41370836 29.0048387,5.67715054 C29.0575271,5.94059272 29.083871,6.20842158 29.083871,6.48064516 C29.083871,6.75286874 29.0575271,7.01850229 29.0048387,7.27755376 C28.9521503,7.53660524 28.8621422,7.769309 28.7348118,7.97567204 C28.6074814,8.18203508 28.4362466,8.34668397 28.2211022,8.46962366 C28.0059577,8.59256334 27.7403242,8.65403226 27.4241935,8.65403226 C27.1080629,8.65403226 26.8446247,8.59256334 26.633871,8.46962366 C26.4231172,8.34668397 26.2540777,8.18203508 26.1267473,7.97567204 C25.9994169,7.769309 25.9094089,7.53660524 25.8567204,7.27755376 C25.804032,7.01850229 25.7776882,6.75286874 25.7776882,6.48064516 L25.7776882,6.48064516 Z M23.9072581,6.48064516 C23.9072581,7.02509233 23.9906802,7.51684368 24.1575269,7.95591398 C24.3243736,8.39498427 24.561468,8.77038375 24.8688172,9.08212366 C25.1761664,9.39386357 25.5449799,9.63315329 25.9752688,9.8 C26.4055577,9.96684671 26.8885278,10.0502688 27.4241935,10.0502688 C27.9598593,10.0502688 28.4450247,9.96684671 28.8797043,9.8 C29.3143839,9.63315329 29.6853927,9.39386357 29.9927419,9.08212366 C30.3000911,8.77038375 30.5371855,8.39498427 30.7040323,7.95591398 C30.870879,7.51684368 30.9543011,7.02509233 30.9543011,6.48064516 C30.9543011,5.93619799 30.870879,5.44225132 30.7040323,4.99879032 C30.5371855,4.55532932 30.3000911,4.17773453 29.9927419,3.86599462 C29.6853927,3.55425471 29.3143839,3.31276967 28.8797043,3.14153226 C28.4450247,2.97029484 27.9598593,2.88467742 27.4241935,2.88467742 C26.8885278,2.88467742 26.4055577,2.97029484 25.9752688,3.14153226 C25.5449799,3.31276967 25.1761664,3.55425471 24.8688172,3.86599462 C24.561468,4.17773453 24.3243736,4.55532932 24.1575269,4.99879032 C23.9906802,5.44225132 23.9072581,5.93619799 23.9072581,6.48064516 L23.9072581,6.48064516 Z"></path>
                </g>
            </g>
            <g id="right" mask="url(#mask-2)">
                <g transform="translate(217.233871, 16.172043)">
                    <text id="CART" font-family="HelveticaNeue-Bold, Helvetica Neue" font-size="6.58602151" font-weight="bold">
                        <tspan x="0.414583333" y="21" fill="#9BD6E8">CART</tspan>
                    </text>
                    <g id="cart" stroke-width="1" fill-rule="evenodd" transform="translate(2.177419, 0.000000)">
                        <mask id="mask-4" fill="white">
                            <use xlink:href="#path-3"></use>
                        </mask>
                        <use id="Mask" stroke="#9BD6E8" fill-opacity="0.1" fill="#9CD6E8" xlink:href="#path-3"></use>
                        <path d="M6.85674369,5.68989675 L6.85674369,6.34332855 C6.97000577,6.34332855 7.08871136,6.34659568 7.21286402,6.35313003 C7.33701669,6.35966438 7.45136611,6.38362331 7.55591572,6.42500753 C7.66046533,6.46639175 7.74649966,6.53282332 7.81402128,6.62430423 C7.8815429,6.71578514 7.91530321,6.84864827 7.91530321,7.02289763 C7.91530321,7.24506555 7.84342643,7.42040133 7.69967071,7.54891023 C7.555915,7.67741912 7.37949018,7.74167261 7.17039096,7.74167261 C7.03534771,7.74167261 6.9188202,7.71771368 6.82080494,7.66979511 C6.72278968,7.62187654 6.64111152,7.55762305 6.57576802,7.47703273 C6.51042451,7.3964424 6.46032857,7.3006067 6.4254787,7.18952274 C6.39062883,7.07843877 6.37102607,6.96191127 6.36666984,6.83993672 L5.48453691,6.83993672 C5.48018067,7.10566698 5.51829715,7.34090008 5.59888747,7.54564307 C5.6794778,7.75038606 5.79382722,7.92354375 5.94193917,8.06512135 C6.09005112,8.20669895 6.26974307,8.31451412 6.48102041,8.38857009 C6.69229774,8.46262607 6.9264418,8.4996535 7.18345959,8.4996535 C7.40562752,8.4996535 7.61907977,8.46698223 7.82382276,8.40163873 C8.02856575,8.33629522 8.20934674,8.24045952 8.36617115,8.11412874 C8.52299557,7.98779796 8.64823541,7.83097589 8.74189444,7.64365784 C8.83555346,7.45633979 8.88238228,7.24288753 8.88238228,7.00329467 C8.88238228,6.74192065 8.8105055,6.51757797 8.66674978,6.33025992 C8.52299407,6.14294186 8.3247884,6.02096915 8.07212684,5.96433811 L8.07212684,5.95126947 C8.2855823,5.8902822 8.44567149,5.77484374 8.55239922,5.60495062 C8.65912694,5.4350575 8.71249001,5.23902992 8.71249001,5.016862 C8.71249001,4.81211901 8.66675024,4.63133802 8.57526933,4.4745136 C8.48378842,4.31768918 8.36508283,4.18482605 8.219149,4.0759202 C8.07321517,3.96701436 7.90876981,3.8853362 7.72580799,3.83088328 C7.54284617,3.77643035 7.35988709,3.7492043 7.17692527,3.7492043 C6.94168865,3.7492043 6.7282364,3.78732077 6.53656211,3.86355487 C6.34488782,3.93978896 6.18044246,4.04760413 6.0432211,4.18700361 C5.90599973,4.32640309 5.79927361,4.49302653 5.72303952,4.68687894 C5.64680542,4.88073134 5.60433278,5.09527264 5.59562031,5.33050926 L6.47775325,5.33050926 C6.47339701,5.09527264 6.53111624,4.9003341 6.65091267,4.7456878 C6.7707091,4.5910415 6.94822297,4.51371951 7.18345959,4.51371951 C7.35335271,4.51371951 7.50364052,4.56599353 7.63432753,4.67054314 C7.76501455,4.77509275 7.83035708,4.92538056 7.83035708,5.12141108 C7.83035708,5.2520981 7.79877485,5.35664614 7.73560946,5.43505835 C7.67244407,5.51347056 7.59185496,5.57336787 7.4938397,5.61475209 C7.39582444,5.65613632 7.29018735,5.68118428 7.17692527,5.68989675 C7.0636632,5.69860922 6.95693707,5.69860922 6.85674369,5.68989675 L6.85674369,5.68989675 Z" id="3" fill="#9BD6E8" mask="url(#mask-4)"></path>
                        <mask id="mask-6" fill="white">
                            <use xlink:href="#path-5"></use>
                        </mask>
                        <use id="Mask" xlink:href="#path-5"></use>
                    </g>
                </g>
            </g>
        </g>
    </g>
</svg>