<?xml version="1.0" encoding="UTF-8" standalone="no"?>
<svg width="245px" height="39px" viewBox="0 0 245 39" version="1.1" xmlns="http://www.w3.org/2000/svg" xmlns:xlink="http://www.w3.org/1999/xlink">
    <!-- Generator: Sketch 3.8.1 (29687) - http://www.bohemiancoding.com/sketch -->
    <title>header-simple-signup</title>
    <desc>Created with Sketch.</desc>
    <defs>
        <rect id="path-1" x="0" y="0" width="245" height="39" rx="4"></rect>
        <mask id="mask-2" maskContentUnits="userSpaceOnUse" maskUnits="objectBoundingBox" x="0" y="0" width="245" height="39" fill="white">
            <use xlink:href="#path-1"></use>
        </mask>
        <mask id="mask-4" maskContentUnits="userSpaceOnUse" maskUnits="objectBoundingBox" x="0" y="0" width="245" height="39" fill="white">
            <use xlink:href="#path-1"></use>
        </mask>
        <rect id="path-5" x="166" y="14" width="24" height="13"></rect>
        <mask id="mask-6" maskContentUnits="userSpaceOnUse" maskUnits="objectBoundingBox" x="0" y="0" width="24" height="13" fill="white">
            <use xlink:href="#path-5"></use>
        </mask>
    </defs>
    <g id="Header-Presets" stroke="none" stroke-width="1" fill="none" fill-rule="evenodd">
        <g id="header-simple-signup">
            <mask id="mask-3" fill="white">
                <use xlink:href="#path-1"></use>
            </mask>
            <g id="Mask" stroke="#3498DB" mask="url(#mask-2)" stroke-width="2" fill-opacity="0.01" fill="#00A0D2">
                <use mask="url(#mask-4)" xlink:href="#path-1"></use>
            </g>
            <path d="M52.6775538,18.2975806 L52.6775538,23 L53.7115591,23 L53.7115591,20.9715054 L55.6149194,20.9715054 L55.6149194,23 L56.6489247,23 L56.6489247,18.2975806 L55.6149194,18.2975806 L55.6149194,20.1021505 L53.7115591,20.1021505 L53.7115591,18.2975806 L52.6775538,18.2975806 Z M58.3876344,20.6685484 C58.3876344,20.4621853 58.4106853,20.2624114 58.4567876,20.0692204 C58.50289,19.8760295 58.5764332,19.703697 58.6774194,19.5522177 C58.7784055,19.4007385 58.9101246,19.279996 59.0725806,19.1899866 C59.2350367,19.0999771 59.4326153,19.0549731 59.6653226,19.0549731 C59.8980298,19.0549731 60.0956085,19.0999771 60.2580645,19.1899866 C60.4205205,19.279996 60.5522396,19.4007385 60.6532258,19.5522177 C60.754212,19.703697 60.8277551,19.8760295 60.8738575,20.0692204 C60.9199599,20.2624114 60.9430108,20.4621853 60.9430108,20.6685484 C60.9430108,20.86613 60.9199599,21.0582204 60.8738575,21.2448253 C60.8277551,21.4314301 60.754212,21.599372 60.6532258,21.7486559 C60.5522396,21.8979398 60.4205205,22.0175847 60.2580645,22.1075941 C60.0956085,22.1976035 59.8980298,22.2426075 59.6653226,22.2426075 C59.4326153,22.2426075 59.2350367,22.1976035 59.0725806,22.1075941 C58.9101246,22.0175847 58.7784055,21.8979398 58.6774194,21.7486559 C58.5764332,21.599372 58.50289,21.4314301 58.4567876,21.2448253 C58.4106853,21.0582204 58.3876344,20.86613 58.3876344,20.6685484 L58.3876344,20.6685484 Z M57.353629,20.6685484 C57.353629,21.0110232 57.4063167,21.3304421 57.5116935,21.6268145 C57.6170704,21.923187 57.7685474,22.1811369 57.966129,22.400672 C58.1637107,22.6202072 58.4062934,22.7925397 58.6938844,22.9176747 C58.9814755,23.0428098 59.3052849,23.1053763 59.6653226,23.1053763 C60.0297509,23.1053763 60.3546581,23.0428098 60.6400538,22.9176747 C60.9254495,22.7925397 61.1669345,22.6202072 61.3645161,22.400672 C61.5620978,22.1811369 61.7135747,21.923187 61.8189516,21.6268145 C61.9243285,21.3304421 61.9770161,21.0110232 61.9770161,20.6685484 C61.9770161,20.3172922 61.9243285,19.9912873 61.8189516,19.6905242 C61.7135747,19.389761 61.5620978,19.1274205 61.3645161,18.9034946 C61.1669345,18.6795688 60.9254495,18.5039433 60.6400538,18.3766129 C60.3546581,18.2492825 60.0297509,18.1856183 59.6653226,18.1856183 C59.3052849,18.1856183 58.9814755,18.2492825 58.6938844,18.3766129 C58.4062934,18.5039433 58.1637107,18.6795688 57.966129,18.9034946 C57.7685474,19.1274205 57.6170704,19.389761 57.5116935,19.6905242 C57.4063167,19.9912873 57.353629,20.3172922 57.353629,20.6685484 L57.353629,20.6685484 Z M62.6817204,18.2975806 L62.6817204,23 L63.6498656,23 L63.6498656,19.7004032 L63.6630376,19.7004032 L64.8155914,23 L65.6125,23 L66.7650538,19.6674731 L66.7782258,19.6674731 L66.7782258,23 L67.746371,23 L67.746371,18.2975806 L66.2908602,18.2975806 L65.2502688,21.5313172 L65.2370968,21.5313172 L64.1372312,18.2975806 L62.6817204,18.2975806 Z M68.6552419,18.2975806 L68.6552419,23 L72.2248656,23 L72.2248656,22.1306452 L69.6892473,22.1306452 L69.6892473,20.9780914 L71.9680108,20.9780914 L71.9680108,20.1745968 L69.6892473,20.1745968 L69.6892473,19.1669355 L72.1721774,19.1669355 L72.1721774,18.2975806 L68.6552419,18.2975806 Z M80.2466398,18.2975806 L80.2466398,23 L83.5725806,23 L83.5725806,22.1306452 L81.2806452,22.1306452 L81.2806452,18.2975806 L80.2466398,18.2975806 Z M84.1521505,18.2975806 L84.1521505,23 L85.1861559,23 L85.1861559,18.2975806 L84.1521505,18.2975806 Z M86.0950269,18.2975806 L86.0950269,23 L87.063172,23 L87.063172,19.8518817 L87.0763441,19.8518817 L89.0323925,23 L90.0663978,23 L90.0663978,18.2975806 L89.0982527,18.2975806 L89.0982527,21.4522849 L89.0850806,21.4522849 L87.1224462,18.2975806 L86.0950269,18.2975806 Z M90.9752688,18.2975806 L90.9752688,23 L92.0092742,23 L92.0092742,21.4852151 L92.6020161,20.8858871 L94.0180108,23 L95.315457,23 L93.3001344,20.1548387 L95.1376344,18.2975806 L93.8467742,18.2975806 L92.0092742,20.247043 L92.0092742,18.2975806 L90.9752688,18.2975806 Z M103.054019,18.297596 L103.054019,23 L106.379949,23 L106.379949,22.130648 L104.088021,22.130648 L104.088021,18.297596 L103.054019,18.297596 Z M106.959517,18.297596 L106.959517,23 L107.993519,23 L107.993519,18.297596 L106.959517,18.297596 Z M108.902387,18.297596 L108.902387,23 L109.870529,23 L109.870529,19.851892 L109.883701,19.851892 L111.839743,23 L112.873745,23 L112.873745,18.297596 L111.905603,18.297596 L111.905603,21.45229 L111.892431,21.45229 L109.929803,18.297596 L108.902387,18.297596 Z M113.782613,18.297596 L113.782613,23 L114.816615,23 L114.816615,21.48522 L115.409355,20.885894 L116.825345,23 L118.122787,23 L116.107471,20.154848 L117.944965,18.297596 L116.654109,18.297596 L114.816615,20.247052 L114.816615,18.297596 L113.782613,18.297596 Z M124.030429,18.297596 L124.030429,23 L127.356359,23 L127.356359,22.130648 L125.064431,22.130648 L125.064431,18.297596 L124.030429,18.297596 Z M127.935927,18.297596 L127.935927,23 L128.969929,23 L128.969929,18.297596 L127.935927,18.297596 Z M129.878797,18.297596 L129.878797,23 L130.846939,23 L130.846939,19.851892 L130.860111,19.851892 L132.816153,23 L133.850155,23 L133.850155,18.297596 L132.882013,18.297596 L132.882013,21.45229 L132.868841,21.45229 L130.906213,18.297596 L129.878797,18.297596 Z M134.759023,18.297596 L134.759023,23 L135.793025,23 L135.793025,21.48522 L136.385765,20.885894 L137.801755,23 L139.099197,23 L137.083881,20.154848 L138.921375,18.297596 L137.630519,18.297596 L135.793025,20.247052 L135.793025,18.297596 L134.759023,18.297596 Z" id="HOME----LINK----LINK" fill="#3498DB" mask="url(#mask-3)"></path>
            <rect id="Rectangle-47" fill="#3498DB" mask="url(#mask-3)" x="197" y="14" width="32" height="13"></rect>
            <path d="M203.15914,21.4391129 L202.158065,21.4391129 C202.153674,21.7288993 202.206361,21.9791656 202.316129,22.1899194 C202.425897,22.4006731 202.574081,22.5741033 202.760685,22.7102151 C202.94729,22.8463268 203.162432,22.9462138 203.406116,23.009879 C203.6498,23.0735442 203.901164,23.1053763 204.160215,23.1053763 C204.480736,23.1053763 204.762835,23.0680559 205.006519,22.993414 C205.250203,22.918772 205.454367,22.8144944 205.619019,22.680578 C205.78367,22.5466615 205.907706,22.3875009 205.991129,22.2030914 C206.074552,22.0186819 206.116263,21.8189079 206.116263,21.6037634 C206.116263,21.3403213 206.060283,21.1240824 205.94832,20.9550403 C205.836357,20.7859983 205.70354,20.6509862 205.549866,20.55 C205.396191,20.4490138 205.241421,20.3754707 205.085551,20.3293683 C204.929681,20.2832659 204.807841,20.2514338 204.720027,20.233871 C204.42585,20.159229 204.187658,20.0977601 204.005444,20.0494624 C203.823229,20.0011646 203.680534,19.9528676 203.577352,19.9045699 C203.474171,19.8562722 203.405018,19.8035845 203.369892,19.7465054 C203.334767,19.6894262 203.317204,19.6147854 203.317204,19.5225806 C203.317204,19.4215945 203.339157,19.3381724 203.383065,19.2723118 C203.426972,19.2064513 203.482952,19.1515683 203.551008,19.1076613 C203.619064,19.0637543 203.694802,19.0330198 203.778226,19.015457 C203.861649,18.9978942 203.945071,18.9891129 204.028495,18.9891129 C204.155825,18.9891129 204.273275,19.0000895 204.380847,19.022043 C204.488419,19.0439965 204.583915,19.0813169 204.667339,19.1340054 C204.750762,19.1866938 204.817719,19.2591393 204.868212,19.3513441 C204.918705,19.4435488 204.948342,19.5599007 204.957124,19.7004032 L205.958199,19.7004032 C205.958199,19.4281796 205.906609,19.1965735 205.803427,19.005578 C205.700246,18.8145824 205.560843,18.6576171 205.385215,18.5346774 C205.209587,18.4117377 205.008715,18.3228273 204.782594,18.2679435 C204.556473,18.2130598 204.320476,18.1856183 204.074597,18.1856183 C203.863843,18.1856183 203.653092,18.2141574 203.442339,18.2712366 C203.231585,18.3283157 203.042788,18.4161284 202.875941,18.5346774 C202.709094,18.6532264 202.574082,18.8014104 202.470901,18.9792339 C202.367719,19.1570573 202.316129,19.3667103 202.316129,19.6081989 C202.316129,19.8233434 202.356742,20.0066525 202.43797,20.1581317 C202.519198,20.309611 202.625671,20.4358418 202.757392,20.536828 C202.889114,20.6378141 203.038395,20.7201386 203.205242,20.7838038 C203.372089,20.847469 203.543323,20.9012543 203.718952,20.9451613 C203.890189,20.993459 204.059229,21.0373654 204.226075,21.0768817 C204.392922,21.116398 204.542204,21.1624997 204.673925,21.2151882 C204.805646,21.2678766 204.912119,21.3337362 204.993347,21.4127688 C205.074575,21.4918015 205.115188,21.5949814 205.115188,21.7223118 C205.115188,21.8408608 205.084454,21.9385525 205.022984,22.0153898 C204.961514,22.0922271 204.884678,22.1525983 204.792473,22.1965054 C204.700268,22.2404124 204.601479,22.2700492 204.496102,22.2854167 C204.390725,22.3007841 204.291936,22.3084677 204.199731,22.3084677 C204.063619,22.3084677 203.9319,22.2920029 203.80457,22.2590726 C203.67724,22.2261423 203.566376,22.17565 203.471976,22.1075941 C203.377576,22.0395382 203.301837,21.9506278 203.244758,21.8408602 C203.187679,21.7310926 203.15914,21.5971782 203.15914,21.4391129 L203.15914,21.4391129 Z M207.591532,19.0681452 L207.591532,18.2975806 L206.656317,18.2975806 L206.656317,19.0681452 L207.591532,19.0681452 Z M206.656317,19.5950269 L206.656317,23 L207.591532,23 L207.591532,19.5950269 L206.656317,19.5950269 Z M209.916398,22.1965054 C209.771505,22.1965054 209.650762,22.1657709 209.554167,22.1043011 C209.457571,22.0428312 209.379637,21.9637998 209.320363,21.8672043 C209.261088,21.7706088 209.219377,21.6619406 209.195228,21.5411962 C209.17108,21.4204519 209.159005,21.2986117 209.159005,21.175672 C209.159005,21.0483417 209.173275,20.9265015 209.201815,20.8101478 C209.230354,20.6937942 209.276456,20.5906142 209.340121,20.5006048 C209.403786,20.4105954 209.482818,20.3392476 209.577218,20.2865591 C209.671618,20.2338707 209.784677,20.2075269 209.916398,20.2075269 C210.070072,20.2075269 210.197401,20.236066 210.298387,20.2931452 C210.399373,20.3502243 210.4806,20.4270604 210.54207,20.5236559 C210.60354,20.6202514 210.647446,20.731115 210.67379,20.85625 C210.700135,20.981385 210.713306,21.1142018 210.713306,21.2547043 C210.713306,21.377644 210.696842,21.4950935 210.663911,21.6070565 C210.630981,21.7190194 210.581586,21.8189064 210.515726,21.9067204 C210.449865,21.9945345 210.366443,22.0647847 210.265457,22.1174731 C210.164471,22.1701616 210.048119,22.1965054 209.916398,22.1965054 L209.916398,22.1965054 Z M211.602419,22.7826613 L211.602419,19.5950269 L210.713306,19.5950269 L210.713306,20.0494624 L210.700134,20.0494624 C210.585976,19.8518807 210.444378,19.7113803 210.275336,19.627957 C210.106294,19.5445336 209.909813,19.5028226 209.685887,19.5028226 C209.448789,19.5028226 209.239136,19.5489243 209.056922,19.641129 C208.874708,19.7333338 208.722133,19.8573693 208.599194,20.0132392 C208.476254,20.1691092 208.382953,20.3491253 208.319288,20.553293 C208.255622,20.7574607 208.22379,20.9693089 208.22379,21.1888441 C208.22379,21.4215513 208.251232,21.6421809 208.306116,21.8507392 C208.360999,22.0592976 208.447714,22.2415091 208.566263,22.397379 C208.684812,22.553249 208.836289,22.6761868 209.020699,22.7661962 C209.205108,22.8562056 209.42464,22.9012097 209.679301,22.9012097 C209.885664,22.9012097 210.082145,22.858401 210.26875,22.7727823 C210.455355,22.6871636 210.599148,22.5543468 210.700134,22.374328 L210.713306,22.374328 L210.713306,22.8221774 C210.717697,23.0636661 210.659521,23.2634401 210.538777,23.4215054 C210.418033,23.5795707 210.225942,23.6586022 209.9625,23.6586022 C209.795653,23.6586022 209.648567,23.6245747 209.521237,23.5565188 C209.393906,23.4884629 209.308289,23.3666227 209.264382,23.1909946 L208.335753,23.1909946 C208.348925,23.3841856 208.40271,23.5499321 208.49711,23.6882392 C208.59151,23.8265464 208.710058,23.9396053 208.852755,24.0274194 C208.995453,24.1152334 209.153516,24.1799953 209.326949,24.221707 C209.500382,24.2634187 209.670519,24.2842742 209.837366,24.2842742 C210.228138,24.2842742 210.539873,24.2315865 210.772581,24.1262097 C211.005288,24.0208328 211.183109,23.8924067 211.306048,23.7409274 C211.428988,23.5894482 211.509117,23.4258969 211.546438,23.2502688 C211.583759,23.0746407 211.602419,22.9187731 211.602419,22.7826613 L211.602419,22.7826613 Z M212.353226,19.5950269 L212.353226,23 L213.288441,23 L213.288441,21.2151882 C213.288441,20.8683226 213.345519,20.619154 213.459677,20.4676747 C213.573836,20.3161955 213.758242,20.240457 214.012903,20.240457 C214.236829,20.240457 214.392697,20.3096095 214.480511,20.4479167 C214.568325,20.5862238 214.612231,20.7958767 214.612231,21.0768817 L214.612231,23 L215.547446,23 L215.547446,20.9056452 C215.547446,20.6948914 215.528786,20.502801 215.491465,20.3293683 C215.454144,20.1559355 215.389382,20.0088492 215.297177,19.8881048 C215.204973,19.7673605 215.078742,19.6729618 214.918481,19.6049059 C214.758221,19.53685 214.552958,19.5028226 214.302688,19.5028226 C214.105107,19.5028226 213.911919,19.5478266 213.723118,19.637836 C213.534318,19.7278454 213.380646,19.8716388 213.262097,20.0692204 L213.242339,20.0692204 L213.242339,19.5950269 L212.353226,19.5950269 Z M221.283871,23 L221.283871,19.5950269 L220.348656,19.5950269 L220.348656,21.3798387 C220.348656,21.7267042 220.291578,21.9758729 220.177419,22.1273522 C220.063261,22.2788314 219.878854,22.3545699 219.624194,22.3545699 C219.400268,22.3545699 219.2444,22.2854174 219.156586,22.1471102 C219.068772,22.0088031 219.024866,21.7991502 219.024866,21.5181452 L219.024866,19.5950269 L218.089651,19.5950269 L218.089651,21.6893817 C218.089651,21.9001355 218.108311,22.0922258 218.145632,22.2656586 C218.182953,22.4390914 218.247715,22.5861777 218.339919,22.706922 C218.432124,22.8276664 218.558355,22.9209674 218.718616,22.986828 C218.878876,23.0526885 219.084139,23.0856183 219.334409,23.0856183 C219.53199,23.0856183 219.725178,23.0417119 219.913978,22.9538978 C220.102779,22.8660838 220.256451,22.7233881 220.375,22.5258065 L220.394758,22.5258065 L220.394758,23 L221.283871,23 Z M223.714113,22.3875 C223.564829,22.3875 223.437501,22.3567655 223.332124,22.2952957 C223.226747,22.2338259 223.142227,22.1536967 223.078562,22.0549059 C223.014897,21.9561151 222.968795,21.8408609 222.940255,21.7091398 C222.911716,21.5774187 222.897446,21.4435043 222.897446,21.3073925 C222.897446,21.16689 222.910618,21.0307802 222.936962,20.8990591 C222.963307,20.7673381 223.008311,20.6509862 223.071976,20.55 C223.135641,20.4490138 223.219063,20.3666894 223.322245,20.3030242 C223.425426,20.239359 223.553852,20.2075269 223.707527,20.2075269 C223.856811,20.2075269 223.983042,20.239359 224.086223,20.3030242 C224.189405,20.3666894 224.273924,20.4501115 224.339785,20.553293 C224.405645,20.6564745 224.452845,20.7739241 224.481384,20.9056452 C224.509924,21.0373662 224.524194,21.1712807 224.524194,21.3073925 C224.524194,21.4435043 224.511022,21.5774187 224.484677,21.7091398 C224.458333,21.8408609 224.413329,21.9561151 224.349664,22.0549059 C224.285999,22.1536967 224.202577,22.2338259 224.099395,22.2952957 C223.996214,22.3567655 223.867788,22.3875 223.714113,22.3875 L223.714113,22.3875 Z M221.995161,19.5950269 L221.995161,24.1920699 L222.930376,24.1920699 L222.930376,22.5784946 L222.943548,22.5784946 C223.057707,22.7453413 223.203695,22.8715722 223.381519,22.9571909 C223.559342,23.0428096 223.753628,23.0856183 223.964382,23.0856183 C224.214652,23.0856183 224.433086,23.0373213 224.619691,22.9407258 C224.806296,22.8441303 224.962163,22.7146065 225.087298,22.5521505 C225.212433,22.3896945 225.305734,22.2030925 225.367204,21.9923387 C225.428674,21.781585 225.459409,21.5620531 225.459409,21.3337366 C225.459409,21.0922479 225.428674,20.8606418 225.367204,20.6389113 C225.305734,20.4171808 225.211336,20.2228951 225.084005,20.0560484 C224.956675,19.8892017 224.796417,19.7552872 224.603226,19.6543011 C224.410035,19.5533149 224.179526,19.5028226 223.911694,19.5028226 C223.70094,19.5028226 223.507752,19.5445336 223.332124,19.627957 C223.156496,19.7113803 223.011605,19.8452948 222.897446,20.0297043 L222.884274,20.0297043 L222.884274,19.5950269 L221.995161,19.5950269 Z" id="Sign-up" fill="#FFFFFF" mask="url(#mask-3)"></path>
            <g id="Rectangle-47" mask="url(#mask-3)" stroke="#3498DB" stroke-width="2" fill="#00A0D2" fill-opacity="0.01">
                <use mask="url(#mask-6)" xlink:href="#path-5"></use>
            </g>
            <path d="M174.207392,21.5181452 L174.207392,18.2975806 L173.173387,18.2975806 L173.173387,21.472043 C173.173387,21.5554664 173.170094,21.6421814 173.163508,21.7321909 C173.156922,21.8222003 173.137164,21.9056224 173.104234,21.9824597 C173.071304,22.059297 173.017518,22.1218636 172.942876,22.1701613 C172.868234,22.218459 172.762859,22.2426075 172.626747,22.2426075 C172.503808,22.2426075 172.403921,22.2228497 172.327083,22.1833333 C172.250246,22.143817 172.189875,22.0900317 172.145968,22.0219758 C172.102061,21.9539199 172.071326,21.8715955 172.053763,21.775 C172.036201,21.6784045 172.027419,21.5730292 172.027419,21.458871 L172.027419,21.2481183 L171.092204,21.2481183 L171.092204,21.6564516 C171.092204,21.9155031 171.136111,22.1361326 171.223925,22.3183468 C171.311739,22.5005609 171.428091,22.6498426 171.572984,22.7661962 C171.717877,22.8825499 171.882526,22.9681673 172.066935,23.0230511 C172.251345,23.0779349 172.442338,23.1053763 172.639919,23.1053763 C172.991176,23.1053763 173.269981,23.051591 173.476344,22.9440188 C173.682707,22.8364466 173.84077,22.7025322 173.950538,22.5422715 C174.060305,22.3820108 174.130555,22.2096783 174.16129,22.0252688 C174.192025,21.8408593 174.207392,21.6718198 174.207392,21.5181452 L174.207392,21.5181452 Z M175.847312,21.3008065 C175.847312,21.1646947 175.860484,21.0307802 175.886828,20.8990591 C175.913172,20.7673381 175.958176,20.6509862 176.021841,20.55 C176.085507,20.4490138 176.170026,20.3666894 176.275403,20.3030242 C176.38078,20.239359 176.512499,20.2075269 176.670565,20.2075269 C176.82863,20.2075269 176.961447,20.239359 177.069019,20.3030242 C177.176591,20.3666894 177.262208,20.4490138 177.325874,20.55 C177.389539,20.6509862 177.434543,20.7673381 177.460887,20.8990591 C177.487231,21.0307802 177.500403,21.1646947 177.500403,21.3008065 C177.500403,21.4369182 177.487231,21.569735 177.460887,21.6992608 C177.434543,21.8287865 177.389539,21.9451384 177.325874,22.0483199 C177.262208,22.1515014 177.176591,22.2338259 177.069019,22.2952957 C176.961447,22.3567655 176.82863,22.3875 176.670565,22.3875 C176.512499,22.3875 176.38078,22.3567655 176.275403,22.2952957 C176.170026,22.2338259 176.085507,22.1515014 176.021841,22.0483199 C175.958176,21.9451384 175.913172,21.8287865 175.886828,21.6992608 C175.860484,21.569735 175.847312,21.4369182 175.847312,21.3008065 L175.847312,21.3008065 Z M174.912097,21.3008065 C174.912097,21.57303 174.953808,21.8189057 175.037231,22.0384409 C175.120655,22.257976 175.239202,22.4456757 175.392876,22.6015457 C175.546551,22.7574157 175.730958,22.8770605 175.946102,22.9604839 C176.161247,23.0439072 176.402732,23.0856183 176.670565,23.0856183 C176.938397,23.0856183 177.18098,23.0439072 177.39832,22.9604839 C177.61566,22.8770605 177.801164,22.7574157 177.954839,22.6015457 C178.108513,22.4456757 178.227061,22.257976 178.310484,22.0384409 C178.393907,21.8189057 178.435618,21.57303 178.435618,21.3008065 C178.435618,21.0285829 178.393907,20.7816095 178.310484,20.559879 C178.227061,20.3381485 178.108513,20.1493511 177.954839,19.9934812 C177.801164,19.8376112 177.61566,19.7168687 177.39832,19.63125 C177.18098,19.5456313 176.938397,19.5028226 176.670565,19.5028226 C176.402732,19.5028226 176.161247,19.5456313 175.946102,19.63125 C175.730958,19.7168687 175.546551,19.8376112 175.392876,19.9934812 C175.239202,20.1493511 175.120655,20.3381485 175.037231,20.559879 C174.953808,20.7816095 174.912097,21.0285829 174.912097,21.3008065 L174.912097,21.3008065 Z M180.003091,19.0681452 L180.003091,18.2975806 L179.067876,18.2975806 L179.067876,19.0681452 L180.003091,19.0681452 Z M179.067876,19.5950269 L179.067876,23 L180.003091,23 L180.003091,19.5950269 L179.067876,19.5950269 Z M180.740726,19.5950269 L180.740726,23 L181.675941,23 L181.675941,21.2151882 C181.675941,20.8683226 181.733019,20.619154 181.847177,20.4676747 C181.961336,20.3161955 182.145742,20.240457 182.400403,20.240457 C182.624329,20.240457 182.780197,20.3096095 182.868011,20.4479167 C182.955825,20.5862238 182.999731,20.7958767 182.999731,21.0768817 L182.999731,23 L183.934946,23 L183.934946,20.9056452 C183.934946,20.6948914 183.916286,20.502801 183.878965,20.3293683 C183.841644,20.1559355 183.776882,20.0088492 183.684677,19.8881048 C183.592473,19.7673605 183.466242,19.6729618 183.305981,19.6049059 C183.145721,19.53685 182.940458,19.5028226 182.690188,19.5028226 C182.492607,19.5028226 182.299419,19.5478266 182.110618,19.637836 C181.921818,19.7278454 181.768146,19.8716388 181.649597,20.0692204 L181.629839,20.0692204 L181.629839,19.5950269 L180.740726,19.5950269 Z" id="Join" fill="#3498DB" mask="url(#mask-3)"></path>
            <path d="M11.4083333,14.4741935 L11.4083333,23.8790323 L18.0602151,23.8790323 L18.0602151,22.1403226 L13.4763441,22.1403226 L13.4763441,14.4741935 L11.4083333,14.4741935 Z M20.6814516,20.4806452 C20.6814516,20.2084216 20.7077954,19.9405927 20.7604839,19.6771505 C20.8131723,19.4137084 20.9031804,19.1810046 21.0305108,18.9790323 C21.1578411,18.7770599 21.3268807,18.612411 21.5376344,18.4850806 C21.7483882,18.3577503 22.0118264,18.294086 22.327957,18.294086 C22.6440876,18.294086 22.9097211,18.3577503 23.1248656,18.4850806 C23.34001,18.612411 23.5112449,18.7770599 23.6385753,18.9790323 C23.7659057,19.1810046 23.8559137,19.4137084 23.9086022,19.6771505 C23.9612906,19.9405927 23.9876344,20.2084216 23.9876344,20.4806452 C23.9876344,20.7528687 23.9612906,21.0185023 23.9086022,21.2775538 C23.8559137,21.5366052 23.7659057,21.769309 23.6385753,21.975672 C23.5112449,22.1820351 23.34001,22.346684 23.1248656,22.4696237 C22.9097211,22.5925633 22.6440876,22.6540323 22.327957,22.6540323 C22.0118264,22.6540323 21.7483882,22.5925633 21.5376344,22.4696237 C21.3268807,22.346684 21.1578411,22.1820351 21.0305108,21.975672 C20.9031804,21.769309 20.8131723,21.5366052 20.7604839,21.2775538 C20.7077954,21.0185023 20.6814516,20.7528687 20.6814516,20.4806452 L20.6814516,20.4806452 Z M18.8110215,20.4806452 C18.8110215,21.0250923 18.8944436,21.5168437 19.0612903,21.955914 C19.228137,22.3949843 19.4652314,22.7703837 19.7725806,23.0821237 C20.0799299,23.3938636 20.4487434,23.6331533 20.8790323,23.8 C21.3093211,23.9668467 21.7922912,24.0502688 22.327957,24.0502688 C22.8636227,24.0502688 23.3487881,23.9668467 23.7834677,23.8 C24.2181473,23.6331533 24.5891562,23.3938636 24.8965054,23.0821237 C25.2038546,22.7703837 25.440949,22.3949843 25.6077957,21.955914 C25.7746424,21.5168437 25.8580645,21.0250923 25.8580645,20.4806452 C25.8580645,19.936198 25.7746424,19.4422513 25.6077957,18.9987903 C25.440949,18.5553293 25.2038546,18.1777345 24.8965054,17.8659946 C24.5891562,17.5542547 24.2181473,17.3127697 23.7834677,17.1415323 C23.3487881,16.9702948 22.8636227,16.8846774 22.327957,16.8846774 C21.7922912,16.8846774 21.3093211,16.9702948 20.8790323,17.1415323 C20.4487434,17.3127697 20.0799299,17.5542547 19.7725806,17.8659946 C19.4652314,18.1777345 19.228137,18.5553293 19.0612903,18.9987903 C18.8944436,19.4422513 18.8110215,19.936198 18.8110215,20.4806452 L18.8110215,20.4806452 Z M30.2443548,22.272043 C29.9545684,22.272043 29.7130834,22.2105741 29.5198925,22.0876344 C29.3267015,21.9646947 29.1708339,21.8066318 29.0522849,21.6134409 C28.933736,21.4202499 28.8503139,21.2029134 28.8020161,20.9614247 C28.7537184,20.7199361 28.7295699,20.4762557 28.7295699,20.2303763 C28.7295699,19.9757156 28.758109,19.7320352 28.8151882,19.499328 C28.8722673,19.2666207 28.9644707,19.0602608 29.0918011,18.8802419 C29.2191315,18.7002231 29.3771944,18.5575274 29.5659946,18.4521505 C29.7547949,18.3467737 29.9809127,18.294086 30.2443548,18.294086 C30.551704,18.294086 30.806361,18.3511643 31.0083333,18.4653226 C31.2103057,18.5794809 31.3727592,18.7331532 31.4956989,18.9263441 C31.6186386,19.119535 31.7064513,19.3412622 31.7591398,19.5915323 C31.8118282,19.8418023 31.838172,20.1074359 31.838172,20.3884409 C31.838172,20.6343202 31.8052423,20.8692193 31.7393817,21.0931452 C31.6735212,21.317071 31.5747318,21.516845 31.4430108,21.6924731 C31.3112897,21.8681012 31.1444455,22.0086016 30.9424731,22.1139785 C30.7405008,22.2193554 30.507797,22.272043 30.2443548,22.272043 L30.2443548,22.272043 Z M33.6163978,23.4443548 L33.6163978,17.069086 L31.838172,17.069086 L31.838172,17.977957 L31.811828,17.977957 C31.5835114,17.5827937 31.3003153,17.3017929 30.9622312,17.1349462 C30.6241471,16.9680995 30.231185,16.8846774 29.7833333,16.8846774 C29.3091374,16.8846774 28.8898316,16.9768808 28.5254032,17.1612903 C28.1609749,17.3456998 27.8558256,17.5937708 27.6099462,17.9055108 C27.3640669,18.2172507 27.1774648,18.5772829 27.0501344,18.9856183 C26.922804,19.3939537 26.8591398,19.8176501 26.8591398,20.2567204 C26.8591398,20.7221349 26.9140227,21.163394 27.0237903,21.5805108 C27.1335579,21.9976275 27.3069881,22.3620504 27.544086,22.6737903 C27.781184,22.9855302 28.0841379,23.2314059 28.452957,23.4114247 C28.821776,23.5914436 29.2608397,23.6814516 29.7701613,23.6814516 C30.1828874,23.6814516 30.5758494,23.5958342 30.9490591,23.4245968 C31.3222689,23.2533594 31.6098556,22.9877258 31.811828,22.6276882 L31.838172,22.6276882 L31.838172,23.5233871 C31.8469534,24.0063644 31.7306016,24.4059124 31.4891129,24.722043 C31.2476242,25.0381736 30.8634435,25.1962366 30.3365591,25.1962366 C30.0028657,25.1962366 29.708693,25.1281817 29.4540323,24.9920699 C29.1993715,24.8559581 29.0281366,24.6122777 28.9403226,24.2610215 L27.0830645,24.2610215 C27.1094087,24.6474034 27.2169793,24.9788965 27.4057796,25.2555108 C27.5945798,25.532125 27.8316742,25.7582428 28.1170699,25.933871 C28.4024656,26.1094991 28.7185915,26.2390229 29.065457,26.3224462 C29.4123225,26.4058696 29.7525969,26.4475806 30.0862903,26.4475806 C30.8678354,26.4475806 31.4913059,26.3422054 31.9567204,26.1314516 C32.4221349,25.9206979 32.7777765,25.6638456 33.0236559,25.3608871 C33.2695353,25.0579286 33.4297935,24.7308261 33.5044355,24.3795699 C33.5790774,24.0283137 33.6163978,23.7165784 33.6163978,23.4443548 L33.6163978,23.4443548 Z M36.7776882,20.4806452 C36.7776882,20.2084216 36.804032,19.9405927 36.8567204,19.6771505 C36.9094089,19.4137084 36.9994169,19.1810046 37.1267473,18.9790323 C37.2540777,18.7770599 37.4231172,18.612411 37.633871,18.4850806 C37.8446247,18.3577503 38.1080629,18.294086 38.4241935,18.294086 C38.7403242,18.294086 39.0059577,18.3577503 39.2211022,18.4850806 C39.4362466,18.612411 39.6074814,18.7770599 39.7348118,18.9790323 C39.8621422,19.1810046 39.9521503,19.4137084 40.0048387,19.6771505 C40.0575271,19.9405927 40.083871,20.2084216 40.083871,20.4806452 C40.083871,20.7528687 40.0575271,21.0185023 40.0048387,21.2775538 C39.9521503,21.5366052 39.8621422,21.769309 39.7348118,21.975672 C39.6074814,22.1820351 39.4362466,22.346684 39.2211022,22.4696237 C39.0059577,22.5925633 38.7403242,22.6540323 38.4241935,22.6540323 C38.1080629,22.6540323 37.8446247,22.5925633 37.633871,22.4696237 C37.4231172,22.346684 37.2540777,22.1820351 37.1267473,21.975672 C36.9994169,21.769309 36.9094089,21.5366052 36.8567204,21.2775538 C36.804032,21.0185023 36.7776882,20.7528687 36.7776882,20.4806452 L36.7776882,20.4806452 Z M34.9072581,20.4806452 C34.9072581,21.0250923 34.9906802,21.5168437 35.1575269,21.955914 C35.3243736,22.3949843 35.561468,22.7703837 35.8688172,23.0821237 C36.1761664,23.3938636 36.5449799,23.6331533 36.9752688,23.8 C37.4055577,23.9668467 37.8885278,24.0502688 38.4241935,24.0502688 C38.9598593,24.0502688 39.4450247,23.9668467 39.8797043,23.8 C40.3143839,23.6331533 40.6853927,23.3938636 40.9927419,23.0821237 C41.3000911,22.7703837 41.5371855,22.3949843 41.7040323,21.955914 C41.870879,21.5168437 41.9543011,21.0250923 41.9543011,20.4806452 C41.9543011,19.936198 41.870879,19.4422513 41.7040323,18.9987903 C41.5371855,18.5553293 41.3000911,18.1777345 40.9927419,17.8659946 C40.6853927,17.5542547 40.3143839,17.3127697 39.8797043,17.1415323 C39.4450247,16.9702948 38.9598593,16.8846774 38.4241935,16.8846774 C37.8885278,16.8846774 37.4055577,16.9702948 36.9752688,17.1415323 C36.5449799,17.3127697 36.1761664,17.5542547 35.8688172,17.8659946 C35.561468,18.1777345 35.3243736,18.5553293 35.1575269,18.9987903 C34.9906802,19.4422513 34.9072581,19.936198 34.9072581,20.4806452 L34.9072581,20.4806452 Z" id="Logo" fill="#3498DB" mask="url(#mask-3)"></path>
        </g>
    </g>
</svg>