<?xml version="1.0" encoding="UTF-8" standalone="no"?>
<svg width="245px" height="51px" viewBox="0 0 245 51" version="1.1" xmlns="http://www.w3.org/2000/svg" xmlns:xlink="http://www.w3.org/1999/xlink">
    <!-- Generator: Sketch 3.8.1 (29687) - http://www.bohemiancoding.com/sketch -->
    <title>header-cart-top</title>
    <desc>Created with Sketch.</desc>
    <defs>
        <rect id="path-1" x="0" y="0" width="245" height="51" rx="4"></rect>
        <mask id="mask-2" maskContentUnits="userSpaceOnUse" maskUnits="objectBoundingBox" x="0" y="0" width="245" height="51" fill="white">
            <use xlink:href="#path-1"></use>
        </mask>
        <mask id="mask-4" maskContentUnits="userSpaceOnUse" maskUnits="objectBoundingBox" x="0" y="0" width="245" height="51" fill="white">
            <use xlink:href="#path-1"></use>
        </mask>
        <rect id="path-5" x="157" y="25" width="81" height="13" rx="2"></rect>
        <mask id="mask-6" maskContentUnits="userSpaceOnUse" maskUnits="objectBoundingBox" x="0" y="0" width="81" height="13" fill="white">
            <use xlink:href="#path-5"></use>
        </mask>
    </defs>
    <g id="Header-Presets" stroke="none" stroke-width="1" fill="none" fill-rule="evenodd">
        <g id="header-cart-top">
            <mask id="mask-3" fill="white">
                <use xlink:href="#path-1"></use>
            </mask>
            <g id="Mask" stroke="#3498DB" mask="url(#mask-2)" stroke-width="2" fill-opacity="0.01" fill="#00A0D2">
                <use mask="url(#mask-4)" xlink:href="#path-1"></use>
            </g>
            <rect id="nav-bg" fill="#3498DB" mask="url(#mask-3)" x="-9" y="-15" width="254" height="30"></rect>
            <g id="nav-bg" mask="url(#mask-3)" stroke="#3498DB" stroke-width="2" fill="#00A0D2" fill-opacity="0.01">
                <use mask="url(#mask-6)" xlink:href="#path-5"></use>
            </g>
            <path d="M10.5803763,26.3048387 L10.5803763,35.7096774 L17.2322581,35.7096774 L17.2322581,33.9709677 L12.6483871,33.9709677 L12.6483871,26.3048387 L10.5803763,26.3048387 Z M19.8534946,32.3112903 C19.8534946,32.0390667 19.8798384,31.7712379 19.9325269,31.5077957 C19.9852153,31.2443535 20.0752234,31.0116498 20.2025538,30.8096774 C20.3298841,30.6077051 20.4989237,30.4430562 20.7096774,30.3157258 C20.9204312,30.1883954 21.1838694,30.1247312 21.5,30.1247312 C21.8161306,30.1247312 22.0817642,30.1883954 22.2969086,30.3157258 C22.512053,30.4430562 22.6832879,30.6077051 22.8106183,30.8096774 C22.9379487,31.0116498 23.0279567,31.2443535 23.0806452,31.5077957 C23.1333336,31.7712379 23.1596774,32.0390667 23.1596774,32.3112903 C23.1596774,32.5835139 23.1333336,32.8491475 23.0806452,33.1081989 C23.0279567,33.3672504 22.9379487,33.5999542 22.8106183,33.8063172 C22.6832879,34.0126802 22.512053,34.1773291 22.2969086,34.3002688 C22.0817642,34.4232085 21.8161306,34.4846774 21.5,34.4846774 C21.1838694,34.4846774 20.9204312,34.4232085 20.7096774,34.3002688 C20.4989237,34.1773291 20.3298841,34.0126802 20.2025538,33.8063172 C20.0752234,33.5999542 19.9852153,33.3672504 19.9325269,33.1081989 C19.8798384,32.8491475 19.8534946,32.5835139 19.8534946,32.3112903 L19.8534946,32.3112903 Z M17.9830645,32.3112903 C17.9830645,32.8557375 18.0664866,33.3474888 18.2333333,33.7865591 C18.40018,34.2256294 18.6372744,34.6010289 18.9446237,34.9127688 C19.2519729,35.2245087 19.6207864,35.4637984 20.0510753,35.6306452 C20.4813642,35.7974919 20.9643342,35.880914 21.5,35.880914 C22.0356658,35.880914 22.5208312,35.7974919 22.9555108,35.6306452 C23.3901903,35.4637984 23.7611992,35.2245087 24.0685484,34.9127688 C24.3758976,34.6010289 24.612992,34.2256294 24.7798387,33.7865591 C24.9466854,33.3474888 25.0301075,32.8557375 25.0301075,32.3112903 C25.0301075,31.7668432 24.9466854,31.2728965 24.7798387,30.8294355 C24.612992,30.3859745 24.3758976,30.0083797 24.0685484,29.6966398 C23.7611992,29.3848999 23.3901903,29.1434148 22.9555108,28.9721774 C22.5208312,28.80094 22.0356658,28.7153226 21.5,28.7153226 C20.9643342,28.7153226 20.4813642,28.80094 20.0510753,28.9721774 C19.6207864,29.1434148 19.2519729,29.3848999 18.9446237,29.6966398 C18.6372744,30.0083797 18.40018,30.3859745 18.2333333,30.8294355 C18.0664866,31.2728965 17.9830645,31.7668432 17.9830645,32.3112903 L17.9830645,32.3112903 Z M29.4163978,34.1026882 C29.1266115,34.1026882 28.8851264,34.0412193 28.6919355,33.9182796 C28.4987446,33.7953399 28.3428769,33.637277 28.224328,33.444086 C28.105779,33.2508951 28.0223569,33.0335586 27.9740591,32.7920699 C27.9257614,32.5505812 27.9016129,32.3069009 27.9016129,32.0610215 C27.9016129,31.8063607 27.930152,31.5626804 27.9872312,31.3299731 C28.0443103,31.0972659 28.1365137,30.8909059 28.2638441,30.7108871 C28.3911745,30.5308683 28.5492374,30.3881726 28.7380376,30.2827957 C28.9268379,30.1774188 29.1529557,30.1247312 29.4163978,30.1247312 C29.7237471,30.1247312 29.978404,30.1818095 30.1803763,30.2959677 C30.3823487,30.410126 30.5448023,30.5637983 30.6677419,30.7569892 C30.7906816,30.9501802 30.8784944,31.1719074 30.9311828,31.4221774 C30.9838712,31.6724475 31.0102151,31.938081 31.0102151,32.219086 C31.0102151,32.4649654 30.9772853,32.6998645 30.9114247,32.9237903 C30.8455642,33.1477162 30.7467749,33.3474902 30.6150538,33.5231183 C30.4833327,33.6987464 30.3164885,33.8392468 30.1145161,33.9446237 C29.9125438,34.0500005 29.67984,34.1026882 29.4163978,34.1026882 L29.4163978,34.1026882 Z M32.7884409,35.275 L32.7884409,28.8997312 L31.0102151,28.8997312 L31.0102151,29.8086022 L30.983871,29.8086022 C30.7555544,29.4134389 30.4723583,29.1324381 30.1342742,28.9655914 C29.7961901,28.7987447 29.403228,28.7153226 28.9553763,28.7153226 C28.4811804,28.7153226 28.0618746,28.807526 27.6974462,28.9919355 C27.3330179,29.176345 27.0278686,29.424416 26.7819892,29.7361559 C26.5361099,30.0478958 26.3495078,30.4079281 26.2221774,30.8162634 C26.094847,31.2245988 26.0311828,31.6482953 26.0311828,32.0873656 C26.0311828,32.5527801 26.0860658,32.9940391 26.1958333,33.4111559 C26.3056009,33.8282727 26.4790311,34.1926956 26.716129,34.5044355 C26.953227,34.8161754 27.256181,35.0620511 27.625,35.2420699 C27.993819,35.4220887 28.4328828,35.5120968 28.9422043,35.5120968 C29.3549304,35.5120968 29.7478924,35.4264794 30.1211022,35.2552419 C30.4943119,35.0840045 30.7818986,34.818371 30.983871,34.4583333 L31.0102151,34.4583333 L31.0102151,35.3540323 C31.0189965,35.8370096 30.9026446,36.2365576 30.6611559,36.5526882 C30.4196673,36.8688188 30.0354865,37.0268817 29.5086022,37.0268817 C29.1749087,37.0268817 28.880736,36.9588268 28.6260753,36.8227151 C28.3714145,36.6866033 28.2001797,36.4429229 28.1123656,36.0916667 L26.2551075,36.0916667 C26.2814517,36.4780485 26.3890224,36.8095416 26.5778226,37.0861559 C26.7666228,37.3627702 27.0037172,37.588888 27.2891129,37.7645161 C27.5745086,37.9401442 27.8906345,38.069668 28.2375,38.1530914 C28.5843655,38.2365148 28.9246399,38.2782258 29.2583333,38.2782258 C30.0398785,38.2782258 30.6633489,38.1728505 31.1287634,37.9620968 C31.594178,37.751343 31.9498196,37.4944908 32.1956989,37.1915323 C32.4415783,36.8885738 32.6018365,36.5614713 32.6764785,36.2102151 C32.7511204,35.8589588 32.7884409,35.5472236 32.7884409,35.275 L32.7884409,35.275 Z M35.9497312,32.3112903 C35.9497312,32.0390667 35.976075,31.7712379 36.0287634,31.5077957 C36.0814519,31.2443535 36.1714599,31.0116498 36.2987903,30.8096774 C36.4261207,30.6077051 36.5951602,30.4430562 36.805914,30.3157258 C37.0166677,30.1883954 37.2801059,30.1247312 37.5962366,30.1247312 C37.9123672,30.1247312 38.1780007,30.1883954 38.3931452,30.3157258 C38.6082896,30.4430562 38.7795245,30.6077051 38.9068548,30.8096774 C39.0341852,31.0116498 39.1241933,31.2443535 39.1768817,31.5077957 C39.2295702,31.7712379 39.255914,32.0390667 39.255914,32.3112903 C39.255914,32.5835139 39.2295702,32.8491475 39.1768817,33.1081989 C39.1241933,33.3672504 39.0341852,33.5999542 38.9068548,33.8063172 C38.7795245,34.0126802 38.6082896,34.1773291 38.3931452,34.3002688 C38.1780007,34.4232085 37.9123672,34.4846774 37.5962366,34.4846774 C37.2801059,34.4846774 37.0166677,34.4232085 36.805914,34.3002688 C36.5951602,34.1773291 36.4261207,34.0126802 36.2987903,33.8063172 C36.1714599,33.5999542 36.0814519,33.3672504 36.0287634,33.1081989 C35.976075,32.8491475 35.9497312,32.5835139 35.9497312,32.3112903 L35.9497312,32.3112903 Z M34.0793011,32.3112903 C34.0793011,32.8557375 34.1627232,33.3474888 34.3295699,33.7865591 C34.4964166,34.2256294 34.733511,34.6010289 35.0408602,34.9127688 C35.3482094,35.2245087 35.7170229,35.4637984 36.1473118,35.6306452 C36.5776007,35.7974919 37.0605708,35.880914 37.5962366,35.880914 C38.1319023,35.880914 38.6170677,35.7974919 39.0517473,35.6306452 C39.4864269,35.4637984 39.8574357,35.2245087 40.1647849,34.9127688 C40.4721342,34.6010289 40.7092286,34.2256294 40.8760753,33.7865591 C41.042922,33.3474888 41.1263441,32.8557375 41.1263441,32.3112903 C41.1263441,31.7668432 41.042922,31.2728965 40.8760753,30.8294355 C40.7092286,30.3859745 40.4721342,30.0083797 40.1647849,29.6966398 C39.8574357,29.3848999 39.4864269,29.1434148 39.0517473,28.9721774 C38.6170677,28.80094 38.1319023,28.7153226 37.5962366,28.7153226 C37.0605708,28.7153226 36.5776007,28.80094 36.1473118,28.9721774 C35.7170229,29.1434148 35.3482094,29.3848999 35.0408602,29.6966398 C34.733511,30.0083797 34.4964166,30.3859745 34.3295699,30.8294355 C34.1627232,31.2728965 34.0793011,31.7668432 34.0793011,32.3112903 L34.0793011,32.3112903 Z" id="Logo" fill="#3498DB" mask="url(#mask-3)"></path>
            <path d="M232.187717,33.5945849 L230.95011,32.3569779 C231.289391,31.8711883 231.489876,31.2813009 231.489876,30.6438627 C231.489876,28.9877227 230.146886,27.6451613 228.491175,27.6451613 C226.835463,27.6451613 225.492473,28.9877227 225.492473,30.6438627 C225.492473,32.3000026 226.835035,33.6425641 228.491175,33.6425641 C229.128613,33.6425641 229.718929,33.4420795 230.204718,33.1027978 L231.442325,34.3404047 C231.64795,34.54603 231.982091,34.54603 232.187717,34.3404047 C232.393342,34.1347795 232.393342,33.8010669 232.187717,33.5945849 L232.187717,33.5945849 Z M228.490746,32.7862206 C227.307973,32.7862206 226.348817,31.827493 226.348817,30.6442911 C226.348817,29.4610892 227.307973,28.5023615 228.490746,28.5023615 C229.673948,28.5023615 230.632676,29.4610892 230.632676,30.6442911 C230.633104,31.827493 229.674376,32.7862206 228.490746,32.7862206 L228.490746,32.7862206 Z" id="Shape" fill="#3498DB" mask="url(#mask-3)"></path>
            <path d="M214.237836,6.05026882 L215.238911,6.05026882 C215.208176,5.77804523 215.133536,5.53656019 215.014987,5.32580645 C214.896438,5.11505271 214.746058,4.93832957 214.563844,4.79563172 C214.38163,4.65293387 214.17527,4.54426561 213.944758,4.46962366 C213.714246,4.39498171 213.469468,4.35766129 213.210417,4.35766129 C212.850379,4.35766129 212.52657,4.42132553 212.238978,4.54865591 C211.951387,4.6759863 211.708805,4.85161178 211.511223,5.07553763 C211.313641,5.29946349 211.162165,5.56180405 211.056788,5.8625672 C210.951411,6.16333036 210.898723,6.48933516 210.898723,6.8405914 C210.898723,7.18306623 210.951411,7.50248508 211.056788,7.79885753 C211.162165,8.09522998 211.313641,8.35317991 211.511223,8.57271505 C211.708805,8.7922502 211.951387,8.96458271 212.238978,9.08971774 C212.52657,9.21485278 212.850379,9.27741935 213.210417,9.27741935 C213.500203,9.27741935 213.765837,9.23351298 214.007325,9.14569892 C214.248814,9.05788487 214.459565,8.93055639 214.639583,8.76370968 C214.819602,8.59686297 214.964493,8.39489366 215.074261,8.1577957 C215.184028,7.92069774 215.252083,7.65506419 215.278427,7.3608871 L214.277352,7.3608871 C214.237836,7.67701771 214.129168,7.93167466 213.951344,8.12486559 C213.773521,8.31805652 213.526547,8.41465054 213.210417,8.41465054 C212.977709,8.41465054 212.780131,8.36964651 212.617675,8.2796371 C212.455219,8.18962769 212.3235,8.06998283 212.222513,7.92069892 C212.121527,7.77141502 212.047984,7.60347316 212.001882,7.41686828 C211.955779,7.2302634 211.932728,7.03817303 211.932728,6.8405914 C211.932728,6.63422836 211.955779,6.43445437 212.001882,6.24126344 C212.047984,6.04807251 212.121527,5.87574 212.222513,5.72426075 C212.3235,5.5727815 212.455219,5.45203898 212.617675,5.36202957 C212.780131,5.27202016 212.977709,5.22701613 213.210417,5.22701613 C213.337747,5.22701613 213.459587,5.24787166 213.575941,5.28958333 C213.692294,5.33129501 213.796572,5.38947095 213.888777,5.4641129 C213.980982,5.53875485 214.057818,5.62546994 214.119288,5.72426075 C214.180757,5.82305157 214.220273,5.93171984 214.237836,6.05026882 L214.237836,6.05026882 Z M217.168616,7.35430108 L217.781116,5.62876344 L217.794288,5.62876344 L218.38703,7.35430108 L217.168616,7.35430108 Z M217.267406,4.46962366 L215.48918,9.17204301 L216.529772,9.17204301 L216.898589,8.12486559 L218.657056,8.12486559 L219.012702,9.17204301 L220.086223,9.17204301 L218.327755,4.46962366 L217.267406,4.46962366 Z M221.528562,6.5969086 L221.528562,5.27311828 L222.661358,5.27311828 C222.898455,5.27311828 223.076276,5.32470827 223.194825,5.42788978 C223.313374,5.5310713 223.372648,5.69681785 223.372648,5.92513441 C223.372648,6.16223237 223.313374,6.33346722 223.194825,6.43884409 C223.076276,6.54422096 222.898455,6.5969086 222.661358,6.5969086 L221.528562,6.5969086 Z M220.494556,4.46962366 L220.494556,9.17204301 L221.528562,9.17204301 L221.528562,7.33454301 L222.562567,7.33454301 C222.821619,7.33454301 223.008221,7.39162129 223.122379,7.50577957 C223.236537,7.61993785 223.311178,7.79995397 223.346304,8.04583333 C223.372648,8.23463356 223.392406,8.43221223 223.405578,8.63857527 C223.41875,8.84493831 223.453875,9.02275911 223.510954,9.17204301 L224.54496,9.17204301 C224.496662,9.10618247 224.460439,9.02605334 224.43629,8.93165323 C224.412141,8.83725311 224.394579,8.73736612 224.383602,8.63198925 C224.372625,8.52661238 224.364942,8.4234324 224.360551,8.32244624 C224.35616,8.22146007 224.35177,8.13364733 224.347379,8.05900538 C224.338598,7.9404564 224.322133,7.82190919 224.297984,7.70336022 C224.273835,7.58481124 224.235417,7.47614297 224.182728,7.37735215 C224.13004,7.27856133 224.061985,7.19294391 223.978562,7.12049731 C223.895138,7.04805071 223.789763,6.99426541 223.662433,6.95913978 L223.662433,6.94596774 C223.925875,6.84059087 224.11577,6.68691857 224.232124,6.48494624 C224.348477,6.2829739 224.406653,6.04368418 224.406653,5.76706989 C224.406653,5.58705107 224.374821,5.4191092 224.311156,5.26323925 C224.247491,5.10736929 224.155287,4.97016188 224.034543,4.8516129 C223.913799,4.73306392 223.768908,4.63976289 223.599866,4.57170699 C223.430824,4.50365109 223.240928,4.46962366 223.030175,4.46962366 L220.494556,4.46962366 Z M226.290255,5.33897849 L226.290255,9.17204301 L227.324261,9.17204301 L227.324261,5.33897849 L228.733669,5.33897849 L228.733669,4.46962366 L224.880847,4.46962366 L224.880847,5.33897849 L226.290255,5.33897849 Z" id="CART" fill="#FFFFFF" mask="url(#mask-3)"></path>
            <path d="M179.735758,7.6220306 L180.23375,6.21908548 L180.244459,6.21908548 L180.726387,7.6220306 L179.735758,7.6220306 Z M179.816079,5.27664907 L178.370296,9.09994224 L179.216347,9.09994224 L179.516213,8.24853662 L180.945932,8.24853662 L181.235088,9.09994224 L182.107913,9.09994224 L180.678194,5.27664907 L179.816079,5.27664907 Z M184.98877,6.56178963 L185.802692,6.56178963 C185.777703,6.34045876 185.717016,6.14411981 185.62063,5.97276687 C185.524244,5.80141394 185.401979,5.65772952 185.25383,5.54170931 C185.105681,5.4256891 184.9379,5.33733657 184.750483,5.27664907 C184.563066,5.21596157 184.36405,5.18561828 184.153428,5.18561828 C183.8607,5.18561828 183.597428,5.23738037 183.363602,5.3409061 C183.129777,5.44443183 182.932545,5.58722379 182.771902,5.76928628 C182.611259,5.95134877 182.488101,6.16464428 182.402424,6.40917919 C182.316748,6.6537141 182.27391,6.91877169 182.27391,7.20435991 C182.27391,7.48280843 182.316748,7.74251132 182.402424,7.98347638 C182.488101,8.22444144 182.611259,8.43416714 182.771902,8.61265978 C182.932545,8.79115242 183.129777,8.93126703 183.363602,9.03300784 C183.597428,9.13474864 183.8607,9.18561828 184.153428,9.18561828 C184.389039,9.18561828 184.605011,9.14992029 184.801353,9.07852323 C184.997695,9.00712618 185.169046,8.903602 185.315409,8.7679476 C185.461773,8.63229319 185.579577,8.46808243 185.668823,8.27531038 C185.758069,8.08253833 185.813401,7.86656548 185.83482,7.62738535 L185.020898,7.62738535 C184.988769,7.88441475 184.900417,8.0914631 184.755838,8.24853662 C184.611259,8.40561014 184.410458,8.48414572 184.153428,8.48414572 C183.964226,8.48414572 183.803585,8.44755528 183.671501,8.3743733 C183.539416,8.30119132 183.432322,8.20391429 183.350215,8.0825393 C183.268109,7.9611643 183.208315,7.82461948 183.170831,7.67290074 C183.133348,7.521182 183.114606,7.36500329 183.114606,7.20435991 C183.114606,7.03657683 183.133348,6.87415097 183.170831,6.71707745 C183.208315,6.56000393 183.268109,6.41988931 183.350215,6.29672939 C183.432322,6.17356947 183.539416,6.07539999 183.671501,6.00221801 C183.803585,5.92903603 183.964226,5.89244559 184.153428,5.89244559 C184.256954,5.89244559 184.356016,5.90940213 184.450617,5.94331574 C184.545218,5.97722934 184.630001,6.02452918 184.704968,6.08521667 C184.779935,6.14590417 184.842406,6.2164077 184.892384,6.29672939 C184.942362,6.37705108 184.97449,6.46540361 184.98877,6.56178963 L184.98877,6.56178963 Z M188.956641,6.56178963 L189.770563,6.56178963 C189.745574,6.34045876 189.684888,6.14411981 189.588502,5.97276687 C189.492116,5.80141394 189.36985,5.65772952 189.221701,5.54170931 C189.073552,5.4256891 188.905772,5.33733657 188.718355,5.27664907 C188.530937,5.21596157 188.331921,5.18561828 188.1213,5.18561828 C187.828572,5.18561828 187.565299,5.23738037 187.331474,5.3409061 C187.097648,5.44443183 186.900417,5.58722379 186.739774,5.76928628 C186.57913,5.95134877 186.455972,6.16464428 186.370296,6.40917919 C186.284619,6.6537141 186.241782,6.91877169 186.241782,7.20435991 C186.241782,7.48280843 186.284619,7.74251132 186.370296,7.98347638 C186.455972,8.22444144 186.57913,8.43416714 186.739774,8.61265978 C186.900417,8.79115242 187.097648,8.93126703 187.331474,9.03300784 C187.565299,9.13474864 187.828572,9.18561828 188.1213,9.18561828 C188.35691,9.18561828 188.572883,9.14992029 188.769225,9.07852323 C188.965567,9.00712618 189.136917,8.903602 189.283281,8.7679476 C189.429645,8.63229319 189.547448,8.46808243 189.636695,8.27531038 C189.725941,8.08253833 189.781273,7.86656548 189.802692,7.62738535 L188.98877,7.62738535 C188.956641,7.88441475 188.868288,8.0914631 188.723709,8.24853662 C188.57913,8.40561014 188.378329,8.48414572 188.1213,8.48414572 C187.932098,8.48414572 187.771457,8.44755528 187.639372,8.3743733 C187.507287,8.30119132 187.400193,8.20391429 187.318087,8.0825393 C187.23598,7.9611643 187.176186,7.82461948 187.138703,7.67290074 C187.101219,7.521182 187.082478,7.36500329 187.082478,7.20435991 C187.082478,7.03657683 187.101219,6.87415097 187.138703,6.71707745 C187.176186,6.56000393 187.23598,6.41988931 187.318087,6.29672939 C187.400193,6.17356947 187.507287,6.07539999 187.639372,6.00221801 C187.771457,5.92903603 187.932098,5.89244559 188.1213,5.89244559 C188.224825,5.89244559 188.323887,5.90940213 188.418488,5.94331574 C188.51309,5.97722934 188.597872,6.02452918 188.672839,6.08521667 C188.747806,6.14590417 188.810278,6.2164077 188.860256,6.29672939 C188.910233,6.37705108 188.942362,6.46540361 188.956641,6.56178963 L188.956641,6.56178963 Z M191.050349,7.20435991 C191.050349,7.03657683 191.069091,6.87415097 191.106574,6.71707745 C191.144058,6.56000393 191.203852,6.41988931 191.285958,6.29672939 C191.368065,6.17356947 191.475159,6.07539999 191.607243,6.00221801 C191.739328,5.92903603 191.899969,5.89244559 192.089171,5.89244559 C192.278373,5.89244559 192.439014,5.92903603 192.571099,6.00221801 C192.703183,6.07539999 192.810277,6.17356947 192.892384,6.29672939 C192.974491,6.41988931 193.034285,6.56000393 193.071768,6.71707745 C193.109252,6.87415097 193.127993,7.03657683 193.127993,7.20435991 C193.127993,7.36500329 193.109252,7.521182 193.071768,7.67290074 C193.034285,7.82461948 192.974491,7.9611643 192.892384,8.0825393 C192.810277,8.20391429 192.703183,8.30119132 192.571099,8.3743733 C192.439014,8.44755528 192.278373,8.48414572 192.089171,8.48414572 C191.899969,8.48414572 191.739328,8.44755528 191.607243,8.3743733 C191.475159,8.30119132 191.368065,8.20391429 191.285958,8.0825393 C191.203852,7.9611643 191.144058,7.82461948 191.106574,7.67290074 C191.069091,7.521182 191.050349,7.36500329 191.050349,7.20435991 L191.050349,7.20435991 Z M190.209653,7.20435991 C190.209653,7.48280843 190.252491,7.74251132 190.338167,7.98347638 C190.423844,8.22444144 190.547002,8.43416714 190.707645,8.61265978 C190.868288,8.79115242 191.06552,8.93126703 191.299345,9.03300784 C191.533171,9.13474864 191.796443,9.18561828 192.089171,9.18561828 C192.385469,9.18561828 192.649634,9.13474864 192.881675,9.03300784 C193.113715,8.93126703 193.310054,8.79115242 193.470697,8.61265978 C193.631341,8.43416714 193.754499,8.22444144 193.840175,7.98347638 C193.925852,7.74251132 193.968689,7.48280843 193.968689,7.20435991 C193.968689,6.91877169 193.925852,6.6537141 193.840175,6.40917919 C193.754499,6.16464428 193.631341,5.95134877 193.470697,5.76928628 C193.310054,5.58722379 193.113715,5.44443183 192.881675,5.3409061 C192.649634,5.23738037 192.385469,5.18561828 192.089171,5.18561828 C191.796443,5.18561828 191.533171,5.23738037 191.299345,5.3409061 C191.06552,5.44443183 190.868288,5.58722379 190.707645,5.76928628 C190.547002,5.95134877 190.423844,6.16464428 190.338167,6.40917919 C190.252491,6.6537141 190.209653,6.91877169 190.209653,7.20435991 L190.209653,7.20435991 Z M197.786628,7.65415911 L197.786628,5.27664907 L196.945932,5.27664907 L196.945932,7.65415911 C196.945932,7.93974733 196.888815,8.14947303 196.77458,8.28334251 C196.660344,8.41721199 196.453296,8.48414572 196.153428,8.48414572 C195.982075,8.48414572 195.84553,8.46004958 195.74379,8.41185657 C195.642049,8.36366355 195.562621,8.30119207 195.505503,8.22444023 C195.448386,8.1476884 195.410903,8.05933587 195.393053,7.95937999 C195.375204,7.85942412 195.36628,7.75768484 195.36628,7.65415911 L195.36628,5.27664907 L194.525584,5.27664907 L194.525584,7.65415911 C194.525584,8.17535761 194.667483,8.56089592 194.951286,8.81078562 C195.23509,9.06067531 195.6358,9.18561828 196.153428,9.18561828 C196.663917,9.18561828 197.063735,9.05978286 197.352893,8.80810824 C197.642051,8.55643362 197.786628,8.17178776 197.786628,7.65415911 L197.786628,7.65415911 Z M198.509519,5.27664907 L198.509519,9.09994224 L199.296668,9.09994224 L199.296668,6.54037062 L199.307377,6.54037062 L200.897739,9.09994224 L201.738435,9.09994224 L201.738435,5.27664907 L200.951286,5.27664907 L200.951286,7.84157544 L200.940577,7.84157544 L199.344861,5.27664907 L198.509519,5.27664907 Z M203.323442,5.98347638 L203.323442,9.09994224 L204.164138,9.09994224 L204.164138,5.98347638 L205.310055,5.98347638 L205.310055,5.27664907 L202.177525,5.27664907 L202.177525,5.98347638 L203.323442,5.98347638 Z" id="ACCOUNT" fill="#FFFFFF" mask="url(#mask-3)"></path>
            <path d="M53.4544355,29.2975806 L53.4544355,34 L54.4884409,34 L54.4884409,31.9715054 L56.3918011,31.9715054 L56.3918011,34 L57.4258065,34 L57.4258065,29.2975806 L56.3918011,29.2975806 L56.3918011,31.1021505 L54.4884409,31.1021505 L54.4884409,29.2975806 L53.4544355,29.2975806 Z M59.1645161,31.6685484 C59.1645161,31.4621853 59.187567,31.2624114 59.2336694,31.0692204 C59.2797717,30.8760295 59.3533149,30.703697 59.4543011,30.5522177 C59.5552872,30.4007385 59.6870064,30.279996 59.8494624,30.1899866 C60.0119184,30.0999771 60.209497,30.0549731 60.4422043,30.0549731 C60.6749116,30.0549731 60.8724902,30.0999771 61.0349462,30.1899866 C61.1974022,30.279996 61.3291214,30.4007385 61.4301075,30.5522177 C61.5310937,30.703697 61.6046369,30.8760295 61.6507392,31.0692204 C61.6968416,31.2624114 61.7198925,31.4621853 61.7198925,31.6685484 C61.7198925,31.86613 61.6968416,32.0582204 61.6507392,32.2448253 C61.6046369,32.4314301 61.5310937,32.599372 61.4301075,32.7486559 C61.3291214,32.8979398 61.1974022,33.0175847 61.0349462,33.1075941 C60.8724902,33.1976035 60.6749116,33.2426075 60.4422043,33.2426075 C60.209497,33.2426075 60.0119184,33.1976035 59.8494624,33.1075941 C59.6870064,33.0175847 59.5552872,32.8979398 59.4543011,32.7486559 C59.3533149,32.599372 59.2797717,32.4314301 59.2336694,32.2448253 C59.187567,32.0582204 59.1645161,31.86613 59.1645161,31.6685484 L59.1645161,31.6685484 Z M58.1305108,31.6685484 C58.1305108,32.0110232 58.1831984,32.3304421 58.2885753,32.6268145 C58.3939521,32.923187 58.5454291,33.1811369 58.7430108,33.400672 C58.9405924,33.6202072 59.1831751,33.7925397 59.4707661,33.9176747 C59.7583572,34.0428098 60.0821667,34.1053763 60.4422043,34.1053763 C60.8066326,34.1053763 61.1315398,34.0428098 61.4169355,33.9176747 C61.7023312,33.7925397 61.9438162,33.6202072 62.1413978,33.400672 C62.3389795,33.1811369 62.4904565,32.923187 62.5958333,32.6268145 C62.7012102,32.3304421 62.7538978,32.0110232 62.7538978,31.6685484 C62.7538978,31.3172922 62.7012102,30.9912873 62.5958333,30.6905242 C62.4904565,30.389761 62.3389795,30.1274205 62.1413978,29.9034946 C61.9438162,29.6795688 61.7023312,29.5039433 61.4169355,29.3766129 C61.1315398,29.2492825 60.8066326,29.1856183 60.4422043,29.1856183 C60.0821667,29.1856183 59.7583572,29.2492825 59.4707661,29.3766129 C59.1831751,29.5039433 58.9405924,29.6795688 58.7430108,29.9034946 C58.5454291,30.1274205 58.3939521,30.389761 58.2885753,30.6905242 C58.1831984,30.9912873 58.1305108,31.3172922 58.1305108,31.6685484 L58.1305108,31.6685484 Z M63.4586022,29.2975806 L63.4586022,34 L64.4267473,34 L64.4267473,30.7004032 L64.4399194,30.7004032 L65.5924731,34 L66.3893817,34 L67.5419355,30.6674731 L67.5551075,30.6674731 L67.5551075,34 L68.5232527,34 L68.5232527,29.2975806 L67.0677419,29.2975806 L66.0271505,32.5313172 L66.0139785,32.5313172 L64.9141129,29.2975806 L63.4586022,29.2975806 Z M69.4321237,29.2975806 L69.4321237,34 L73.0017473,34 L73.0017473,33.1306452 L70.466129,33.1306452 L70.466129,31.9780914 L72.7448925,31.9780914 L72.7448925,31.1745968 L70.466129,31.1745968 L70.466129,30.1669355 L72.9490591,30.1669355 L72.9490591,29.2975806 L69.4321237,29.2975806 Z M79.1926075,29.2975806 L79.1926075,34 L82.5185484,34 L82.5185484,33.1306452 L80.2266129,33.1306452 L80.2266129,29.2975806 L79.1926075,29.2975806 Z M83.0981183,29.2975806 L83.0981183,34 L84.1321237,34 L84.1321237,29.2975806 L83.0981183,29.2975806 Z M85.0409946,29.2975806 L85.0409946,34 L86.0091398,34 L86.0091398,30.8518817 L86.0223118,30.8518817 L87.9783602,34 L89.0123656,34 L89.0123656,29.2975806 L88.0442204,29.2975806 L88.0442204,32.4522849 L88.0310484,32.4522849 L86.068414,29.2975806 L85.0409946,29.2975806 Z M89.9212366,29.2975806 L89.9212366,34 L90.9552419,34 L90.9552419,32.4852151 L91.5479839,31.8858871 L92.9639785,34 L94.2614247,34 L92.2461022,31.1548387 L94.0836022,29.2975806 L92.7927419,29.2975806 L90.9552419,31.247043 L90.9552419,29.2975806 L89.9212366,29.2975806 Z M96.803629,34 L96.803629,29.3897849 L96.0594086,29.3897849 C96.0330644,29.5654131 95.9781814,29.7124994 95.8947581,29.8310484 C95.8113347,29.9495974 95.7092524,30.0450937 95.5885081,30.1175403 C95.4677637,30.1899869 95.331654,30.2404792 95.1801747,30.2690188 C95.0286955,30.2975584 94.8717302,30.3096326 94.7092742,30.3052419 L94.7092742,31.0099462 L95.868414,31.0099462 L95.868414,34 L96.803629,34 Z M105.661828,29.2975806 L105.661828,34 L108.987769,34 L108.987769,33.1306452 L106.695833,33.1306452 L106.695833,29.2975806 L105.661828,29.2975806 Z M109.567339,29.2975806 L109.567339,34 L110.601344,34 L110.601344,29.2975806 L109.567339,29.2975806 Z M111.510215,29.2975806 L111.510215,34 L112.47836,34 L112.47836,30.8518817 L112.491532,30.8518817 L114.447581,34 L115.481586,34 L115.481586,29.2975806 L114.513441,29.2975806 L114.513441,32.4522849 L114.500269,32.4522849 L112.537634,29.2975806 L111.510215,29.2975806 Z M116.390457,29.2975806 L116.390457,34 L117.424462,34 L117.424462,32.4852151 L118.017204,31.8858871 L119.433199,34 L120.730645,34 L118.715323,31.1548387 L120.552823,29.2975806 L119.261962,29.2975806 L117.424462,31.247043 L117.424462,29.2975806 L116.390457,29.2975806 Z M120.934812,31.1614247 L121.830511,31.1614247 C121.830511,31.038485 121.842585,30.9144496 121.866734,30.7893145 C121.890883,30.6641795 121.931496,30.5500229 121.988575,30.4468414 C122.045654,30.3436599 122.121393,30.2602378 122.215793,30.1965726 C122.310193,30.1329074 122.425447,30.1010753 122.561559,30.1010753 C122.763531,30.1010753 122.929278,30.1636418 123.058804,30.2887769 C123.18833,30.4139119 123.253091,30.5884397 123.253091,30.8123656 C123.253091,30.9528681 123.221259,31.0780012 123.157594,31.1877688 C123.093929,31.2975364 123.014897,31.3963257 122.920497,31.4841398 C122.826097,31.5719538 122.72182,31.652083 122.607661,31.7245296 C122.493503,31.7969762 122.385932,31.868324 122.284946,31.9385753 C122.087365,32.0746871 121.899665,32.2086015 121.721841,32.3403226 C121.544018,32.4720437 121.389248,32.615837 121.257527,32.771707 C121.125806,32.9275769 121.021528,33.1043001 120.944691,33.3018817 C120.867854,33.4994634 120.829435,33.7321671 120.829435,34 L124.214651,34 L124.214651,33.1965054 L122.034677,33.1965054 C122.148836,33.0384401 122.280555,32.900135 122.429839,32.781586 C122.579123,32.663037 122.732795,32.5521735 122.89086,32.4489919 C123.048926,32.3458104 123.205891,32.2415328 123.361761,32.1361559 C123.517631,32.030779 123.657033,31.9133295 123.779973,31.7838038 C123.902913,31.654278 124.001702,31.506094 124.076344,31.3392473 C124.150986,31.1724006 124.188306,30.9726266 124.188306,30.7399194 C124.188306,30.5159935 124.145498,30.3140242 124.059879,30.1340054 C123.97426,29.9539866 123.859006,29.8025096 123.714113,29.6795699 C123.56922,29.5566302 123.401278,29.4622315 123.210282,29.396371 C123.019287,29.3305104 122.818415,29.2975806 122.607661,29.2975806 C122.331047,29.2975806 122.086269,29.34478 121.87332,29.4391801 C121.660371,29.5335802 121.483648,29.6652993 121.343145,29.8343414 C121.202643,30.0033835 121.097267,30.2009621 121.027016,30.4270833 C120.956765,30.6532045 120.92603,30.8979826 120.934812,31.1614247 L120.934812,31.1614247 Z M130.300134,29.2975806 L130.300134,34 L133.869758,34 L133.869758,33.1306452 L131.33414,33.1306452 L131.33414,31.9780914 L133.612903,31.9780914 L133.612903,31.1745968 L131.33414,31.1745968 L131.33414,30.1669355 L133.81707,30.1669355 L133.81707,29.2975806 L130.300134,29.2975806 Z M135.608468,30.1669355 L135.608468,34 L136.642473,34 L136.642473,30.1669355 L138.051882,30.1669355 L138.051882,29.2975806 L134.199059,29.2975806 L134.199059,30.1669355 L135.608468,30.1669355 Z M141.726882,30.8782258 L142.727957,30.8782258 C142.697222,30.6060022 142.622581,30.3645172 142.504032,30.1537634 C142.385483,29.9430097 142.235104,29.7662866 142.05289,29.6235887 C141.870676,29.4808909 141.664316,29.3722226 141.433804,29.2975806 C141.203292,29.2229387 140.958514,29.1856183 140.699462,29.1856183 C140.339425,29.1856183 140.015615,29.2492825 139.728024,29.3766129 C139.440433,29.5039433 139.19785,29.6795688 139.000269,29.9034946 C138.802687,30.1274205 138.65121,30.389761 138.545833,30.6905242 C138.440456,30.9912873 138.387769,31.3172922 138.387769,31.6685484 C138.387769,32.0110232 138.440456,32.3304421 138.545833,32.6268145 C138.65121,32.923187 138.802687,33.1811369 139.000269,33.400672 C139.19785,33.6202072 139.440433,33.7925397 139.728024,33.9176747 C140.015615,34.0428098 140.339425,34.1053763 140.699462,34.1053763 C140.989249,34.1053763 141.254882,34.06147 141.496371,33.9736559 C141.73786,33.8858419 141.94861,33.7585134 142.128629,33.5916667 C142.308648,33.42482 142.453539,33.2228506 142.563306,32.9857527 C142.673074,32.7486547 142.741129,32.4830212 142.767473,32.1888441 L141.766398,32.1888441 C141.726882,32.5049747 141.618213,32.7596317 141.44039,32.9528226 C141.262566,33.1460135 141.015593,33.2426075 140.699462,33.2426075 C140.466755,33.2426075 140.269176,33.1976035 140.10672,33.1075941 C139.944264,33.0175847 139.812545,32.8979398 139.711559,32.7486559 C139.610573,32.599372 139.53703,32.4314301 139.490927,32.2448253 C139.444825,32.0582204 139.421774,31.86613 139.421774,31.6685484 C139.421774,31.4621853 139.444825,31.2624114 139.490927,31.0692204 C139.53703,30.8760295 139.610573,30.703697 139.711559,30.5522177 C139.812545,30.4007385 139.944264,30.279996 140.10672,30.1899866 C140.269176,30.0999771 140.466755,30.0549731 140.699462,30.0549731 C140.826793,30.0549731 140.948633,30.0758286 141.064987,30.1175403 C141.18134,30.159252 141.285618,30.2174279 141.377823,30.2920699 C141.470027,30.3667118 141.546863,30.4534269 141.608333,30.5522177 C141.669803,30.6510086 141.709319,30.7596768 141.726882,30.8782258 L141.726882,30.8782258 Z" id="HOME---LINK1----LINK" fill="#3498DB" mask="url(#mask-3)"></path>
            <path d="M234.268034,6.86193976 L234.268034,7.51537156 C234.381296,7.51537156 234.500002,7.51863869 234.624154,7.52517304 C234.748307,7.53170739 234.862656,7.55566632 234.967206,7.59705054 C235.071756,7.63843476 235.15779,7.70486633 235.225312,7.79634724 C235.292833,7.88782815 235.326594,8.02069129 235.326594,8.19494064 C235.326594,8.41710856 235.254717,8.59244434 235.110961,8.72095324 C234.967205,8.84946213 234.790781,8.91371562 234.581681,8.91371562 C234.446638,8.91371562 234.330111,8.88975669 234.232095,8.84183812 C234.13408,8.79391955 234.052402,8.72966606 233.987058,8.64907574 C233.921715,8.56848541 233.871619,8.47264971 233.836769,8.36156575 C233.801919,8.25048179 233.782316,8.13395428 233.77796,8.01197973 L232.895827,8.01197973 C232.891471,8.27770999 232.929587,8.51294309 233.010178,8.71768608 C233.090768,8.92242907 233.205118,9.09558676 233.353229,9.23716436 C233.501341,9.37874196 233.681033,9.48655713 233.892311,9.5606131 C234.103588,9.63466908 234.337732,9.67169651 234.59475,9.67169651 C234.816918,9.67169651 235.03037,9.63902525 235.235113,9.57368174 C235.439856,9.50833823 235.620637,9.41250253 235.777461,9.28617175 C235.934286,9.15984097 236.059526,9.0030189 236.153185,8.81570085 C236.246844,8.6283828 236.293673,8.41493054 236.293673,8.17533768 C236.293673,7.91396366 236.221796,7.68962098 236.07804,7.50230293 C235.934284,7.31498487 235.736079,7.19301216 235.483417,7.13638112 L235.483417,7.12331248 C235.696873,7.06232521 235.856962,6.94688675 235.96369,6.77699363 C236.070417,6.60710051 236.12378,6.41107293 236.12378,6.18890501 C236.12378,5.98416202 236.078041,5.80338103 235.98656,5.64655661 C235.895079,5.4897322 235.776373,5.35686906 235.630439,5.24796321 C235.484505,5.13905737 235.32006,5.05737921 235.137098,5.00292629 C234.954136,4.94847336 234.771177,4.92124731 234.588216,4.92124731 C234.352979,4.92124731 234.139527,4.95936379 233.947852,5.03559788 C233.756178,5.11183197 233.591733,5.21964714 233.454511,5.35904662 C233.31729,5.4984461 233.210564,5.66506954 233.13433,5.85892195 C233.058096,6.05277435 233.015623,6.26731565 233.006911,6.50255227 L233.889044,6.50255227 C233.884687,6.26731565 233.942407,6.07237711 234.062203,5.91773081 C234.181999,5.76308451 234.359513,5.68576252 234.59475,5.68576252 C234.764643,5.68576252 234.914931,5.73803654 235.045618,5.84258615 C235.176305,5.94713576 235.241647,6.09742357 235.241647,6.2934541 C235.241647,6.42414111 235.210065,6.52868915 235.1469,6.60710136 C235.083734,6.68551357 235.003145,6.74541088 234.90513,6.78679511 C234.807115,6.82817933 234.701478,6.85322729 234.588216,6.86193976 C234.474954,6.87065223 234.368227,6.87065223 234.268034,6.86193976 L234.268034,6.86193976 Z" id="3" fill="#9BD6E8" mask="url(#mask-3)"></path>
        </g>
    </g>
</svg>