<?xml version="1.0" encoding="UTF-8" standalone="no"?>
<svg width="245px" height="39px" viewBox="0 0 245 39" version="1.1" xmlns="http://www.w3.org/2000/svg" xmlns:xlink="http://www.w3.org/1999/xlink">
    <!-- Generator: Sketch 3.8.1 (29687) - http://www.bohemiancoding.com/sketch -->
    <title>header-simple-center</title>
    <desc>Created with Sketch.</desc>
    <defs>
        <rect id="path-1" x="0" y="0" width="245" height="39" rx="4"></rect>
        <mask id="mask-2" maskContentUnits="userSpaceOnUse" maskUnits="objectBoundingBox" x="0" y="0" width="245" height="39" fill="white">
            <use xlink:href="#path-1"></use>
        </mask>
        <mask id="mask-4" maskContentUnits="userSpaceOnUse" maskUnits="objectBoundingBox" x="0" y="0" width="245" height="39" fill="white">
            <use xlink:href="#path-1"></use>
        </mask>
    </defs>
    <g id="Header-Presets" stroke="none" stroke-width="1" fill="none" fill-rule="evenodd">
        <g id="header-simple-center">
            <mask id="mask-3" fill="white">
                <use xlink:href="#path-1"></use>
            </mask>
            <g id="Mask" stroke="#3498DB" mask="url(#mask-2)" stroke-width="2" fill-opacity="0.127858922" fill="#3498DB">
                <use mask="url(#mask-4)" xlink:href="#path-1"></use>
            </g>
            <path d="M11,14 L23,14 L23,16.1508232 L11,16.1508232 L11,14 Z M11,18.2520156 L23,18.2520156 L23,20.4028388 L11,20.4028388 L11,18.2520156 Z M11,22.5040313 L23,22.5040313 L23,24.6548544 L11,24.6548544 L11,22.5040313 Z" id="Shape-Copy-13" fill="#3498DB" mask="url(#mask-3)"></path>
            <path d="M234.369054,23.4367795 L232.822046,21.8897708 C233.246148,21.2825338 233.496753,20.5451745 233.496753,19.7483767 C233.496753,17.6782018 231.818016,16 229.748377,16 C227.678737,16 226,17.6782018 226,19.7483767 C226,21.8185517 227.678202,23.4967535 229.748377,23.4967535 C230.545175,23.4967535 231.283069,23.2461477 231.890306,22.8220457 L233.437315,24.3690543 C233.694346,24.6260858 234.112023,24.6260858 234.369054,24.3690543 C234.626086,24.1120227 234.626086,23.694882 234.369054,23.4367795 L234.369054,23.4367795 Z M229.747841,22.4263242 C228.269374,22.4263242 227.070429,21.2279146 227.070429,19.7489122 C227.070429,18.2699099 228.269374,17.0715003 229.747841,17.0715003 C231.226844,17.0715003 232.425253,18.2699099 232.425253,19.7489122 C232.425789,21.2279146 231.227379,22.4263242 229.747841,22.4263242 L229.747841,22.4263242 Z" id="Shape" fill="#3498DB" mask="url(#mask-3)"></path>
            <path d="M102.408333,14.4741935 L102.408333,23.8790323 L109.060215,23.8790323 L109.060215,22.1403226 L104.476344,22.1403226 L104.476344,14.4741935 L102.408333,14.4741935 Z M111.681452,20.4806452 C111.681452,20.2084216 111.707795,19.9405927 111.760484,19.6771505 C111.813172,19.4137084 111.90318,19.1810046 112.030511,18.9790323 C112.157841,18.7770599 112.326881,18.612411 112.537634,18.4850806 C112.748388,18.3577503 113.011826,18.294086 113.327957,18.294086 C113.644088,18.294086 113.909721,18.3577503 114.124866,18.4850806 C114.34001,18.612411 114.511245,18.7770599 114.638575,18.9790323 C114.765906,19.1810046 114.855914,19.4137084 114.908602,19.6771505 C114.961291,19.9405927 114.987634,20.2084216 114.987634,20.4806452 C114.987634,20.7528687 114.961291,21.0185023 114.908602,21.2775538 C114.855914,21.5366052 114.765906,21.769309 114.638575,21.975672 C114.511245,22.1820351 114.34001,22.346684 114.124866,22.4696237 C113.909721,22.5925633 113.644088,22.6540323 113.327957,22.6540323 C113.011826,22.6540323 112.748388,22.5925633 112.537634,22.4696237 C112.326881,22.346684 112.157841,22.1820351 112.030511,21.975672 C111.90318,21.769309 111.813172,21.5366052 111.760484,21.2775538 C111.707795,21.0185023 111.681452,20.7528687 111.681452,20.4806452 L111.681452,20.4806452 Z M109.811022,20.4806452 C109.811022,21.0250923 109.894444,21.5168437 110.06129,21.955914 C110.228137,22.3949843 110.465231,22.7703837 110.772581,23.0821237 C111.07993,23.3938636 111.448743,23.6331533 111.879032,23.8 C112.309321,23.9668467 112.792291,24.0502688 113.327957,24.0502688 C113.863623,24.0502688 114.348788,23.9668467 114.783468,23.8 C115.218147,23.6331533 115.589156,23.3938636 115.896505,23.0821237 C116.203855,22.7703837 116.440949,22.3949843 116.607796,21.955914 C116.774642,21.5168437 116.858065,21.0250923 116.858065,20.4806452 C116.858065,19.936198 116.774642,19.4422513 116.607796,18.9987903 C116.440949,18.5553293 116.203855,18.1777345 115.896505,17.8659946 C115.589156,17.5542547 115.218147,17.3127697 114.783468,17.1415323 C114.348788,16.9702948 113.863623,16.8846774 113.327957,16.8846774 C112.792291,16.8846774 112.309321,16.9702948 111.879032,17.1415323 C111.448743,17.3127697 111.07993,17.5542547 110.772581,17.8659946 C110.465231,18.1777345 110.228137,18.5553293 110.06129,18.9987903 C109.894444,19.4422513 109.811022,19.936198 109.811022,20.4806452 L109.811022,20.4806452 Z M121.244355,22.272043 C120.954568,22.272043 120.713083,22.2105741 120.519892,22.0876344 C120.326702,21.9646947 120.170834,21.8066318 120.052285,21.6134409 C119.933736,21.4202499 119.850314,21.2029134 119.802016,20.9614247 C119.753718,20.7199361 119.72957,20.4762557 119.72957,20.2303763 C119.72957,19.9757156 119.758109,19.7320352 119.815188,19.499328 C119.872267,19.2666207 119.964471,19.0602608 120.091801,18.8802419 C120.219131,18.7002231 120.377194,18.5575274 120.565995,18.4521505 C120.754795,18.3467737 120.980913,18.294086 121.244355,18.294086 C121.551704,18.294086 121.806361,18.3511643 122.008333,18.4653226 C122.210306,18.5794809 122.372759,18.7331532 122.495699,18.9263441 C122.618639,19.119535 122.706451,19.3412622 122.75914,19.5915323 C122.811828,19.8418023 122.838172,20.1074359 122.838172,20.3884409 C122.838172,20.6343202 122.805242,20.8692193 122.739382,21.0931452 C122.673521,21.317071 122.574732,21.516845 122.443011,21.6924731 C122.31129,21.8681012 122.144445,22.0086016 121.942473,22.1139785 C121.740501,22.2193554 121.507797,22.272043 121.244355,22.272043 L121.244355,22.272043 Z M124.616398,23.4443548 L124.616398,17.069086 L122.838172,17.069086 L122.838172,17.977957 L122.811828,17.977957 C122.583511,17.5827937 122.300315,17.3017929 121.962231,17.1349462 C121.624147,16.9680995 121.231185,16.8846774 120.783333,16.8846774 C120.309137,16.8846774 119.889832,16.9768808 119.525403,17.1612903 C119.160975,17.3456998 118.855826,17.5937708 118.609946,17.9055108 C118.364067,18.2172507 118.177465,18.5772829 118.050134,18.9856183 C117.922804,19.3939537 117.85914,19.8176501 117.85914,20.2567204 C117.85914,20.7221349 117.914023,21.163394 118.02379,21.5805108 C118.133558,21.9976275 118.306988,22.3620504 118.544086,22.6737903 C118.781184,22.9855302 119.084138,23.2314059 119.452957,23.4114247 C119.821776,23.5914436 120.26084,23.6814516 120.770161,23.6814516 C121.182887,23.6814516 121.575849,23.5958342 121.949059,23.4245968 C122.322269,23.2533594 122.609856,22.9877258 122.811828,22.6276882 L122.838172,22.6276882 L122.838172,23.5233871 C122.846953,24.0063644 122.730602,24.4059124 122.489113,24.722043 C122.247624,25.0381736 121.863443,25.1962366 121.336559,25.1962366 C121.002866,25.1962366 120.708693,25.1281817 120.454032,24.9920699 C120.199371,24.8559581 120.028137,24.6122777 119.940323,24.2610215 L118.083065,24.2610215 C118.109409,24.6474034 118.216979,24.9788965 118.40578,25.2555108 C118.59458,25.532125 118.831674,25.7582428 119.11707,25.933871 C119.402466,26.1094991 119.718591,26.2390229 120.065457,26.3224462 C120.412323,26.4058696 120.752597,26.4475806 121.08629,26.4475806 C121.867835,26.4475806 122.491306,26.3422054 122.95672,26.1314516 C123.422135,25.9206979 123.777777,25.6638456 124.023656,25.3608871 C124.269535,25.0579286 124.429794,24.7308261 124.504435,24.3795699 C124.579077,24.0283137 124.616398,23.7165784 124.616398,23.4443548 L124.616398,23.4443548 Z M127.777688,20.4806452 C127.777688,20.2084216 127.804032,19.9405927 127.85672,19.6771505 C127.909409,19.4137084 127.999417,19.1810046 128.126747,18.9790323 C128.254078,18.7770599 128.423117,18.612411 128.633871,18.4850806 C128.844625,18.3577503 129.108063,18.294086 129.424194,18.294086 C129.740324,18.294086 130.005958,18.3577503 130.221102,18.4850806 C130.436247,18.612411 130.607481,18.7770599 130.734812,18.9790323 C130.862142,19.1810046 130.95215,19.4137084 131.004839,19.6771505 C131.057527,19.9405927 131.083871,20.2084216 131.083871,20.4806452 C131.083871,20.7528687 131.057527,21.0185023 131.004839,21.2775538 C130.95215,21.5366052 130.862142,21.769309 130.734812,21.975672 C130.607481,22.1820351 130.436247,22.346684 130.221102,22.4696237 C130.005958,22.5925633 129.740324,22.6540323 129.424194,22.6540323 C129.108063,22.6540323 128.844625,22.5925633 128.633871,22.4696237 C128.423117,22.346684 128.254078,22.1820351 128.126747,21.975672 C127.999417,21.769309 127.909409,21.5366052 127.85672,21.2775538 C127.804032,21.0185023 127.777688,20.7528687 127.777688,20.4806452 L127.777688,20.4806452 Z M125.907258,20.4806452 C125.907258,21.0250923 125.99068,21.5168437 126.157527,21.955914 C126.324374,22.3949843 126.561468,22.7703837 126.868817,23.0821237 C127.176166,23.3938636 127.54498,23.6331533 127.975269,23.8 C128.405558,23.9668467 128.888528,24.0502688 129.424194,24.0502688 C129.959859,24.0502688 130.445025,23.9668467 130.879704,23.8 C131.314384,23.6331533 131.685393,23.3938636 131.992742,23.0821237 C132.300091,22.7703837 132.537186,22.3949843 132.704032,21.955914 C132.870879,21.5168437 132.954301,21.0250923 132.954301,20.4806452 C132.954301,19.936198 132.870879,19.4422513 132.704032,18.9987903 C132.537186,18.5553293 132.300091,18.1777345 131.992742,17.8659946 C131.685393,17.5542547 131.314384,17.3127697 130.879704,17.1415323 C130.445025,16.9702948 129.959859,16.8846774 129.424194,16.8846774 C128.888528,16.8846774 128.405558,16.9702948 127.975269,17.1415323 C127.54498,17.3127697 127.176166,17.5542547 126.868817,17.8659946 C126.561468,18.1777345 126.324374,18.5553293 126.157527,18.9987903 C125.99068,19.4422513 125.907258,19.936198 125.907258,20.4806452 L125.907258,20.4806452 Z" id="Logo" fill="#3498DB" mask="url(#mask-3)"></path>
        </g>
    </g>
</svg>