<?xml version="1.0" encoding="UTF-8" standalone="no"?>
<svg width="245px" height="39px" viewBox="0 0 245 39" version="1.1" xmlns="http://www.w3.org/2000/svg" xmlns:xlink="http://www.w3.org/1999/xlink">
    <!-- Generator: Sketch 3.8.1 (29687) - http://www.bohemiancoding.com/sketch -->
    <title>header-simple-right-buttons</title>
    <desc>Created with Sketch.</desc>
    <defs>
        <rect id="path-1" x="0" y="0" width="245" height="39" rx="4"></rect>
        <mask id="mask-2" maskContentUnits="userSpaceOnUse" maskUnits="objectBoundingBox" x="0" y="0" width="245" height="39" fill="white">
            <use xlink:href="#path-1"></use>
        </mask>
        <mask id="mask-4" maskContentUnits="userSpaceOnUse" maskUnits="objectBoundingBox" x="0" y="0" width="245" height="39" fill="white">
            <use xlink:href="#path-1"></use>
        </mask>
    </defs>
    <g id="Header-Presets" stroke="none" stroke-width="1" fill="none" fill-rule="evenodd">
        <g id="header-simple-right-buttons">
            <mask id="mask-3" fill="white">
                <use xlink:href="#path-1"></use>
            </mask>
            <g id="Mask" stroke="#3498DB" mask="url(#mask-2)" stroke-width="2" fill-opacity="0.01" fill="#00A0D2">
                <use mask="url(#mask-4)" xlink:href="#path-1"></use>
            </g>
            <path d="M80.6775538,18.2975806 L80.6775538,23 L81.7115591,23 L81.7115591,20.9715054 L83.6149194,20.9715054 L83.6149194,23 L84.6489247,23 L84.6489247,18.2975806 L83.6149194,18.2975806 L83.6149194,20.1021505 L81.7115591,20.1021505 L81.7115591,18.2975806 L80.6775538,18.2975806 Z M86.3876344,20.6685484 C86.3876344,20.4621853 86.4106853,20.2624114 86.4567876,20.0692204 C86.50289,19.8760295 86.5764332,19.703697 86.6774194,19.5522177 C86.7784055,19.4007385 86.9101246,19.279996 87.0725806,19.1899866 C87.2350367,19.0999771 87.4326153,19.0549731 87.6653226,19.0549731 C87.8980298,19.0549731 88.0956085,19.0999771 88.2580645,19.1899866 C88.4205205,19.279996 88.5522396,19.4007385 88.6532258,19.5522177 C88.754212,19.703697 88.8277551,19.8760295 88.8738575,20.0692204 C88.9199599,20.2624114 88.9430108,20.4621853 88.9430108,20.6685484 C88.9430108,20.86613 88.9199599,21.0582204 88.8738575,21.2448253 C88.8277551,21.4314301 88.754212,21.599372 88.6532258,21.7486559 C88.5522396,21.8979398 88.4205205,22.0175847 88.2580645,22.1075941 C88.0956085,22.1976035 87.8980298,22.2426075 87.6653226,22.2426075 C87.4326153,22.2426075 87.2350367,22.1976035 87.0725806,22.1075941 C86.9101246,22.0175847 86.7784055,21.8979398 86.6774194,21.7486559 C86.5764332,21.599372 86.50289,21.4314301 86.4567876,21.2448253 C86.4106853,21.0582204 86.3876344,20.86613 86.3876344,20.6685484 L86.3876344,20.6685484 Z M85.353629,20.6685484 C85.353629,21.0110232 85.4063167,21.3304421 85.5116935,21.6268145 C85.6170704,21.923187 85.7685474,22.1811369 85.966129,22.400672 C86.1637107,22.6202072 86.4062934,22.7925397 86.6938844,22.9176747 C86.9814755,23.0428098 87.3052849,23.1053763 87.6653226,23.1053763 C88.0297509,23.1053763 88.3546581,23.0428098 88.6400538,22.9176747 C88.9254495,22.7925397 89.1669345,22.6202072 89.3645161,22.400672 C89.5620978,22.1811369 89.7135747,21.923187 89.8189516,21.6268145 C89.9243285,21.3304421 89.9770161,21.0110232 89.9770161,20.6685484 C89.9770161,20.3172922 89.9243285,19.9912873 89.8189516,19.6905242 C89.7135747,19.389761 89.5620978,19.1274205 89.3645161,18.9034946 C89.1669345,18.6795688 88.9254495,18.5039433 88.6400538,18.3766129 C88.3546581,18.2492825 88.0297509,18.1856183 87.6653226,18.1856183 C87.3052849,18.1856183 86.9814755,18.2492825 86.6938844,18.3766129 C86.4062934,18.5039433 86.1637107,18.6795688 85.966129,18.9034946 C85.7685474,19.1274205 85.6170704,19.389761 85.5116935,19.6905242 C85.4063167,19.9912873 85.353629,20.3172922 85.353629,20.6685484 L85.353629,20.6685484 Z M90.6817204,18.2975806 L90.6817204,23 L91.6498656,23 L91.6498656,19.7004032 L91.6630376,19.7004032 L92.8155914,23 L93.6125,23 L94.7650538,19.6674731 L94.7782258,19.6674731 L94.7782258,23 L95.746371,23 L95.746371,18.2975806 L94.2908602,18.2975806 L93.2502688,21.5313172 L93.2370968,21.5313172 L92.1372312,18.2975806 L90.6817204,18.2975806 Z M96.6552419,18.2975806 L96.6552419,23 L100.224866,23 L100.224866,22.1306452 L97.6892473,22.1306452 L97.6892473,20.9780914 L99.9680108,20.9780914 L99.9680108,20.1745968 L97.6892473,20.1745968 L97.6892473,19.1669355 L100.172177,19.1669355 L100.172177,18.2975806 L96.6552419,18.2975806 Z M108.24664,18.2975806 L108.24664,23 L111.572581,23 L111.572581,22.1306452 L109.280645,22.1306452 L109.280645,18.2975806 L108.24664,18.2975806 Z M112.152151,18.2975806 L112.152151,23 L113.186156,23 L113.186156,18.2975806 L112.152151,18.2975806 Z M114.095027,18.2975806 L114.095027,23 L115.063172,23 L115.063172,19.8518817 L115.076344,19.8518817 L117.032392,23 L118.066398,23 L118.066398,18.2975806 L117.098253,18.2975806 L117.098253,21.4522849 L117.085081,21.4522849 L115.122446,18.2975806 L114.095027,18.2975806 Z M118.975269,18.2975806 L118.975269,23 L120.009274,23 L120.009274,21.4852151 L120.602016,20.8858871 L122.018011,23 L123.315457,23 L121.300134,20.1548387 L123.137634,18.2975806 L121.846774,18.2975806 L120.009274,20.247043 L120.009274,18.2975806 L118.975269,18.2975806 Z M131.054019,18.297596 L131.054019,23 L134.379949,23 L134.379949,22.130648 L132.088021,22.130648 L132.088021,18.297596 L131.054019,18.297596 Z M134.959517,18.297596 L134.959517,23 L135.993519,23 L135.993519,18.297596 L134.959517,18.297596 Z M136.902387,18.297596 L136.902387,23 L137.870529,23 L137.870529,19.851892 L137.883701,19.851892 L139.839743,23 L140.873745,23 L140.873745,18.297596 L139.905603,18.297596 L139.905603,21.45229 L139.892431,21.45229 L137.929803,18.297596 L136.902387,18.297596 Z M141.782613,18.297596 L141.782613,23 L142.816615,23 L142.816615,21.48522 L143.409355,20.885894 L144.825345,23 L146.122787,23 L144.107471,20.154848 L145.944965,18.297596 L144.654109,18.297596 L142.816615,20.247052 L142.816615,18.297596 L141.782613,18.297596 Z M152.030429,18.297596 L152.030429,23 L155.356359,23 L155.356359,22.130648 L153.064431,22.130648 L153.064431,18.297596 L152.030429,18.297596 Z M155.935927,18.297596 L155.935927,23 L156.969929,23 L156.969929,18.297596 L155.935927,18.297596 Z M157.878797,18.297596 L157.878797,23 L158.846939,23 L158.846939,19.851892 L158.860111,19.851892 L160.816153,23 L161.850155,23 L161.850155,18.297596 L160.882013,18.297596 L160.882013,21.45229 L160.868841,21.45229 L158.906213,18.297596 L157.878797,18.297596 Z M162.759023,18.297596 L162.759023,23 L163.793025,23 L163.793025,21.48522 L164.385765,20.885894 L165.801755,23 L167.099197,23 L165.083881,20.154848 L166.921375,18.297596 L165.630519,18.297596 L163.793025,20.247052 L163.793025,18.297596 L162.759023,18.297596 Z M174.837747,18.297596 L174.837747,23 L178.163677,23 L178.163677,22.130648 L175.871749,22.130648 L175.871749,18.297596 L174.837747,18.297596 Z M178.743245,18.297596 L178.743245,23 L179.777247,23 L179.777247,18.297596 L178.743245,18.297596 Z M180.686115,18.297596 L180.686115,23 L181.654257,23 L181.654257,19.851892 L181.667429,19.851892 L183.623471,23 L184.657473,23 L184.657473,18.297596 L183.689331,18.297596 L183.689331,21.45229 L183.676159,21.45229 L181.713531,18.297596 L180.686115,18.297596 Z M185.566341,18.297596 L185.566341,23 L186.600343,23 L186.600343,21.48522 L187.193083,20.885894 L188.609073,23 L189.906515,23 L187.891199,20.154848 L189.728693,18.297596 L188.437837,18.297596 L186.600343,20.247052 L186.600343,18.297596 L185.566341,18.297596 Z" id="HOME----LINK----LINK" fill="#3498DB" mask="url(#mask-3)"></path>
            <rect id="Rectangle-47" fill="#3498DB" mask="url(#mask-3)" x="200" y="14" width="32" height="13"></rect>
            <text id="BUY" mask="url(#mask-3)" font-family="HelveticaNeue-Bold, Helvetica Neue" font-size="6.58602151" font-weight="bold" fill="#FFFFFF">
                <tspan x="209" y="23">BUY</tspan>
            </text>
            <path d="M14.4083333,14.4741935 L14.4083333,23.8790323 L21.0602151,23.8790323 L21.0602151,22.1403226 L16.4763441,22.1403226 L16.4763441,14.4741935 L14.4083333,14.4741935 Z M23.6814516,20.4806452 C23.6814516,20.2084216 23.7077954,19.9405927 23.7604839,19.6771505 C23.8131723,19.4137084 23.9031804,19.1810046 24.0305108,18.9790323 C24.1578411,18.7770599 24.3268807,18.612411 24.5376344,18.4850806 C24.7483882,18.3577503 25.0118264,18.294086 25.327957,18.294086 C25.6440876,18.294086 25.9097211,18.3577503 26.1248656,18.4850806 C26.34001,18.612411 26.5112449,18.7770599 26.6385753,18.9790323 C26.7659057,19.1810046 26.8559137,19.4137084 26.9086022,19.6771505 C26.9612906,19.9405927 26.9876344,20.2084216 26.9876344,20.4806452 C26.9876344,20.7528687 26.9612906,21.0185023 26.9086022,21.2775538 C26.8559137,21.5366052 26.7659057,21.769309 26.6385753,21.975672 C26.5112449,22.1820351 26.34001,22.346684 26.1248656,22.4696237 C25.9097211,22.5925633 25.6440876,22.6540323 25.327957,22.6540323 C25.0118264,22.6540323 24.7483882,22.5925633 24.5376344,22.4696237 C24.3268807,22.346684 24.1578411,22.1820351 24.0305108,21.975672 C23.9031804,21.769309 23.8131723,21.5366052 23.7604839,21.2775538 C23.7077954,21.0185023 23.6814516,20.7528687 23.6814516,20.4806452 L23.6814516,20.4806452 Z M21.8110215,20.4806452 C21.8110215,21.0250923 21.8944436,21.5168437 22.0612903,21.955914 C22.228137,22.3949843 22.4652314,22.7703837 22.7725806,23.0821237 C23.0799299,23.3938636 23.4487434,23.6331533 23.8790323,23.8 C24.3093211,23.9668467 24.7922912,24.0502688 25.327957,24.0502688 C25.8636227,24.0502688 26.3487881,23.9668467 26.7834677,23.8 C27.2181473,23.6331533 27.5891562,23.3938636 27.8965054,23.0821237 C28.2038546,22.7703837 28.440949,22.3949843 28.6077957,21.955914 C28.7746424,21.5168437 28.8580645,21.0250923 28.8580645,20.4806452 C28.8580645,19.936198 28.7746424,19.4422513 28.6077957,18.9987903 C28.440949,18.5553293 28.2038546,18.1777345 27.8965054,17.8659946 C27.5891562,17.5542547 27.2181473,17.3127697 26.7834677,17.1415323 C26.3487881,16.9702948 25.8636227,16.8846774 25.327957,16.8846774 C24.7922912,16.8846774 24.3093211,16.9702948 23.8790323,17.1415323 C23.4487434,17.3127697 23.0799299,17.5542547 22.7725806,17.8659946 C22.4652314,18.1777345 22.228137,18.5553293 22.0612903,18.9987903 C21.8944436,19.4422513 21.8110215,19.936198 21.8110215,20.4806452 L21.8110215,20.4806452 Z M33.2443548,22.272043 C32.9545684,22.272043 32.7130834,22.2105741 32.5198925,22.0876344 C32.3267015,21.9646947 32.1708339,21.8066318 32.0522849,21.6134409 C31.933736,21.4202499 31.8503139,21.2029134 31.8020161,20.9614247 C31.7537184,20.7199361 31.7295699,20.4762557 31.7295699,20.2303763 C31.7295699,19.9757156 31.758109,19.7320352 31.8151882,19.499328 C31.8722673,19.2666207 31.9644707,19.0602608 32.0918011,18.8802419 C32.2191315,18.7002231 32.3771944,18.5575274 32.5659946,18.4521505 C32.7547949,18.3467737 32.9809127,18.294086 33.2443548,18.294086 C33.551704,18.294086 33.806361,18.3511643 34.0083333,18.4653226 C34.2103057,18.5794809 34.3727592,18.7331532 34.4956989,18.9263441 C34.6186386,19.119535 34.7064513,19.3412622 34.7591398,19.5915323 C34.8118282,19.8418023 34.838172,20.1074359 34.838172,20.3884409 C34.838172,20.6343202 34.8052423,20.8692193 34.7393817,21.0931452 C34.6735212,21.317071 34.5747318,21.516845 34.4430108,21.6924731 C34.3112897,21.8681012 34.1444455,22.0086016 33.9424731,22.1139785 C33.7405008,22.2193554 33.507797,22.272043 33.2443548,22.272043 L33.2443548,22.272043 Z M36.6163978,23.4443548 L36.6163978,17.069086 L34.838172,17.069086 L34.838172,17.977957 L34.811828,17.977957 C34.5835114,17.5827937 34.3003153,17.3017929 33.9622312,17.1349462 C33.6241471,16.9680995 33.231185,16.8846774 32.7833333,16.8846774 C32.3091374,16.8846774 31.8898316,16.9768808 31.5254032,17.1612903 C31.1609749,17.3456998 30.8558256,17.5937708 30.6099462,17.9055108 C30.3640669,18.2172507 30.1774648,18.5772829 30.0501344,18.9856183 C29.922804,19.3939537 29.8591398,19.8176501 29.8591398,20.2567204 C29.8591398,20.7221349 29.9140227,21.163394 30.0237903,21.5805108 C30.1335579,21.9976275 30.3069881,22.3620504 30.544086,22.6737903 C30.781184,22.9855302 31.0841379,23.2314059 31.452957,23.4114247 C31.821776,23.5914436 32.2608397,23.6814516 32.7701613,23.6814516 C33.1828874,23.6814516 33.5758494,23.5958342 33.9490591,23.4245968 C34.3222689,23.2533594 34.6098556,22.9877258 34.811828,22.6276882 L34.838172,22.6276882 L34.838172,23.5233871 C34.8469534,24.0063644 34.7306016,24.4059124 34.4891129,24.722043 C34.2476242,25.0381736 33.8634435,25.1962366 33.3365591,25.1962366 C33.0028657,25.1962366 32.708693,25.1281817 32.4540323,24.9920699 C32.1993715,24.8559581 32.0281366,24.6122777 31.9403226,24.2610215 L30.0830645,24.2610215 C30.1094087,24.6474034 30.2169793,24.9788965 30.4057796,25.2555108 C30.5945798,25.532125 30.8316742,25.7582428 31.1170699,25.933871 C31.4024656,26.1094991 31.7185915,26.2390229 32.065457,26.3224462 C32.4123225,26.4058696 32.7525969,26.4475806 33.0862903,26.4475806 C33.8678354,26.4475806 34.4913059,26.3422054 34.9567204,26.1314516 C35.4221349,25.9206979 35.7777765,25.6638456 36.0236559,25.3608871 C36.2695353,25.0579286 36.4297935,24.7308261 36.5044355,24.3795699 C36.5790774,24.0283137 36.6163978,23.7165784 36.6163978,23.4443548 L36.6163978,23.4443548 Z M39.7776882,20.4806452 C39.7776882,20.2084216 39.804032,19.9405927 39.8567204,19.6771505 C39.9094089,19.4137084 39.9994169,19.1810046 40.1267473,18.9790323 C40.2540777,18.7770599 40.4231172,18.612411 40.633871,18.4850806 C40.8446247,18.3577503 41.1080629,18.294086 41.4241935,18.294086 C41.7403242,18.294086 42.0059577,18.3577503 42.2211022,18.4850806 C42.4362466,18.612411 42.6074814,18.7770599 42.7348118,18.9790323 C42.8621422,19.1810046 42.9521503,19.4137084 43.0048387,19.6771505 C43.0575271,19.9405927 43.083871,20.2084216 43.083871,20.4806452 C43.083871,20.7528687 43.0575271,21.0185023 43.0048387,21.2775538 C42.9521503,21.5366052 42.8621422,21.769309 42.7348118,21.975672 C42.6074814,22.1820351 42.4362466,22.346684 42.2211022,22.4696237 C42.0059577,22.5925633 41.7403242,22.6540323 41.4241935,22.6540323 C41.1080629,22.6540323 40.8446247,22.5925633 40.633871,22.4696237 C40.4231172,22.346684 40.2540777,22.1820351 40.1267473,21.975672 C39.9994169,21.769309 39.9094089,21.5366052 39.8567204,21.2775538 C39.804032,21.0185023 39.7776882,20.7528687 39.7776882,20.4806452 L39.7776882,20.4806452 Z M37.9072581,20.4806452 C37.9072581,21.0250923 37.9906802,21.5168437 38.1575269,21.955914 C38.3243736,22.3949843 38.561468,22.7703837 38.8688172,23.0821237 C39.1761664,23.3938636 39.5449799,23.6331533 39.9752688,23.8 C40.4055577,23.9668467 40.8885278,24.0502688 41.4241935,24.0502688 C41.9598593,24.0502688 42.4450247,23.9668467 42.8797043,23.8 C43.3143839,23.6331533 43.6853927,23.3938636 43.9927419,23.0821237 C44.3000911,22.7703837 44.5371855,22.3949843 44.7040323,21.955914 C44.870879,21.5168437 44.9543011,21.0250923 44.9543011,20.4806452 C44.9543011,19.936198 44.870879,19.4422513 44.7040323,18.9987903 C44.5371855,18.5553293 44.3000911,18.1777345 43.9927419,17.8659946 C43.6853927,17.5542547 43.3143839,17.3127697 42.8797043,17.1415323 C42.4450247,16.9702948 41.9598593,16.8846774 41.4241935,16.8846774 C40.8885278,16.8846774 40.4055577,16.9702948 39.9752688,17.1415323 C39.5449799,17.3127697 39.1761664,17.5542547 38.8688172,17.8659946 C38.561468,18.1777345 38.3243736,18.5553293 38.1575269,18.9987903 C37.9906802,19.4422513 37.9072581,19.936198 37.9072581,20.4806452 L37.9072581,20.4806452 Z" id="Logo" fill="#3498DB" mask="url(#mask-3)"></path>
        </g>
    </g>
</svg>