<?xml version="1.0" encoding="UTF-8" standalone="no"?>
<svg width="245px" height="40px" viewBox="0 0 245 40" version="1.1" xmlns="http://www.w3.org/2000/svg" xmlns:xlink="http://www.w3.org/1999/xlink">
    <!-- Generator: Sketch 3.8.1 (29687) - http://www.bohemiancoding.com/sketch -->
    <title>header-default-center</title>
    <desc>Created with Sketch.</desc>
    <defs>
        <rect id="path-1" x="0" y="0" width="245" height="39.516129" rx="4"></rect>
        <mask id="mask-2" maskContentUnits="userSpaceOnUse" maskUnits="objectBoundingBox" x="0" y="0" width="245" height="39.516129" fill="white">
            <use xlink:href="#path-1"></use>
        </mask>
        <mask id="mask-4" maskContentUnits="userSpaceOnUse" maskUnits="objectBoundingBox" x="0" y="0" width="245" height="39.516129" fill="white">
            <use xlink:href="#path-1"></use>
        </mask>
        <rect id="path-5" x="0" y="0" width="15.1003453" height="13.109622" rx="1"></rect>
        <mask id="mask-6" maskContentUnits="userSpaceOnUse" maskUnits="objectBoundingBox" x="0" y="0" width="15.1003453" height="13.109622" fill="white">
            <use xlink:href="#path-5"></use>
        </mask>
        <mask id="mask-8" maskContentUnits="userSpaceOnUse" maskUnits="objectBoundingBox" x="0" y="0" width="15.1003453" height="13.109622" fill="white">
            <use xlink:href="#path-5"></use>
        </mask>
        <rect id="path-9" x="3.02956989" y="-5.57278743" width="9.06020716" height="6.05059479" rx="1"></rect>
        <path d="M7.27096774,2.53308519 C9.27879004,2.53308519 10.9064516,1.17216415 10.9064516,-0.506617039 C10.9064516,-2.18539823 9.27879004,-3.54631927 7.27096774,-3.54631927 C5.26314544,-3.54631927 3.63548387,-2.18539823 3.63548387,-0.506617039 C3.63548387,1.17216415 5.26314544,2.53308519 7.27096774,2.53308519 Z" id="path-11"></path>
        <mask id="mask-12" maskContentUnits="userSpaceOnUse" maskUnits="objectBoundingBox" x="0" y="0" width="7.27096774" height="6.07940447" fill="white">
            <use xlink:href="#path-11"></use>
        </mask>
    </defs>
    <g id="Header-Presets" stroke="none" stroke-width="1" fill="none" fill-rule="evenodd">
        <g id="header-default-center">
            <mask id="mask-3" fill="white">
                <use xlink:href="#path-1"></use>
            </mask>
            <g id="Mask" stroke="#3498DB" mask="url(#mask-2)" stroke-width="2" fill-opacity="0.01" fill="#00A0D2">
                <use mask="url(#mask-4)" xlink:href="#path-1"></use>
            </g>
            <rect id="nav-bg" fill="#3498DB" mask="url(#mask-3)" x="-9" y="-18" width="254" height="24"></rect>
            <g id="left" mask="url(#mask-3)" fill="#3498DB">
                <g transform="translate(16.000000, 17.000000)">
                    <path d="M15.0665995,1.29758065 L15.0665995,6 L16.1006048,6 L16.1006048,3.97150538 L18.0039651,3.97150538 L18.0039651,6 L19.0379704,6 L19.0379704,1.29758065 L18.0039651,1.29758065 L18.0039651,3.10215054 L16.1006048,3.10215054 L16.1006048,1.29758065 L15.0665995,1.29758065 Z M20.7766801,3.66854839 C20.7766801,3.46218535 20.799731,3.26241136 20.8458333,3.06922043 C20.8919357,2.8760295 20.9654789,2.70369699 21.0664651,2.55221774 C21.1674512,2.40073849 21.2991703,2.27999597 21.4616263,2.18998656 C21.6240824,2.09997715 21.821661,2.05497312 22.0543683,2.05497312 C22.2870755,2.05497312 22.4846542,2.09997715 22.6471102,2.18998656 C22.8095662,2.27999597 22.9412853,2.40073849 23.0422715,2.55221774 C23.1432577,2.70369699 23.2168008,2.8760295 23.2629032,3.06922043 C23.3090056,3.26241136 23.3320565,3.46218535 23.3320565,3.66854839 C23.3320565,3.86613002 23.3090056,4.05822039 23.2629032,4.24482527 C23.2168008,4.43143014 23.1432577,4.59937201 23.0422715,4.74865591 C22.9412853,4.89793981 22.8095662,5.01758468 22.6471102,5.10759409 C22.4846542,5.1976035 22.2870755,5.24260753 22.0543683,5.24260753 C21.821661,5.24260753 21.6240824,5.1976035 21.4616263,5.10759409 C21.2991703,5.01758468 21.1674512,4.89793981 21.0664651,4.74865591 C20.9654789,4.59937201 20.8919357,4.43143014 20.8458333,4.24482527 C20.799731,4.05822039 20.7766801,3.86613002 20.7766801,3.66854839 L20.7766801,3.66854839 Z M19.7426747,3.66854839 C19.7426747,4.01102322 19.7953624,4.33044207 19.9007392,4.62681452 C20.0061161,4.92318697 20.1575931,5.1811369 20.3551747,5.40067204 C20.5527564,5.62020719 20.7953391,5.7925397 21.0829301,5.91767473 C21.3705212,6.04280977 21.6943306,6.10537634 22.0543683,6.10537634 C22.4187966,6.10537634 22.7437038,6.04280977 23.0290995,5.91767473 C23.3144952,5.7925397 23.5559802,5.62020719 23.7535618,5.40067204 C23.9511435,5.1811369 24.1026204,4.92318697 24.2079973,4.62681452 C24.3133742,4.33044207 24.3660618,4.01102322 24.3660618,3.66854839 C24.3660618,3.31729215 24.3133742,2.99128735 24.2079973,2.69052419 C24.1026204,2.38976104 23.9511435,2.12742047 23.7535618,1.90349462 C23.5559802,1.67956877 23.3144952,1.50394329 23.0290995,1.3766129 C22.7437038,1.24928252 22.4187966,1.18561828 22.0543683,1.18561828 C21.6943306,1.18561828 21.3705212,1.24928252 21.0829301,1.3766129 C20.7953391,1.50394329 20.5527564,1.67956877 20.3551747,1.90349462 C20.1575931,2.12742047 20.0061161,2.38976104 19.9007392,2.69052419 C19.7953624,2.99128735 19.7426747,3.31729215 19.7426747,3.66854839 L19.7426747,3.66854839 Z M25.0707661,1.29758065 L25.0707661,6 L26.0389113,6 L26.0389113,2.70040323 L26.0520833,2.70040323 L27.2046371,6 L28.0015457,6 L29.1540995,2.66747312 L29.1672715,2.66747312 L29.1672715,6 L30.1354167,6 L30.1354167,1.29758065 L28.6799059,1.29758065 L27.6393145,4.5313172 L27.6261425,4.5313172 L26.5262769,1.29758065 L25.0707661,1.29758065 Z M31.0442876,1.29758065 L31.0442876,6 L34.6139113,6 L34.6139113,5.13064516 L32.078293,5.13064516 L32.078293,3.9780914 L34.3570565,3.9780914 L34.3570565,3.17459677 L32.078293,3.17459677 L32.078293,2.16693548 L34.5612231,2.16693548 L34.5612231,1.29758065 L31.0442876,1.29758065 Z M40.8047715,1.29758065 L40.8047715,6 L44.1307124,6 L44.1307124,5.13064516 L41.8387769,5.13064516 L41.8387769,1.29758065 L40.8047715,1.29758065 Z M44.7102823,1.29758065 L44.7102823,6 L45.7442876,6 L45.7442876,1.29758065 L44.7102823,1.29758065 Z M46.6531586,1.29758065 L46.6531586,6 L47.6213038,6 L47.6213038,2.85188172 L47.6344758,2.85188172 L49.5905242,6 L50.6245296,6 L50.6245296,1.29758065 L49.6563844,1.29758065 L49.6563844,4.45228495 L49.6432124,4.45228495 L47.680578,1.29758065 L46.6531586,1.29758065 Z M51.5334005,1.29758065 L51.5334005,6 L52.5674059,6 L52.5674059,4.48521505 L53.1601478,3.8858871 L54.5761425,6 L55.8735887,6 L53.8582661,3.15483871 L55.6957661,1.29758065 L54.4049059,1.29758065 L52.5674059,3.24704301 L52.5674059,1.29758065 L51.5334005,1.29758065 Z" id="HOME---LINK"></path>
                    <path d="M8.3690543,7.43677945 L6.82204567,5.88977082 C7.24614772,5.28253379 7.49675348,4.54517454 7.49675348,3.74837674 C7.49675348,1.67820181 5.81801618,0 3.74837674,0 C1.6787373,0 0,1.67820181 0,3.74837674 C0,5.81855167 1.67820181,7.49675348 3.74837674,7.49675348 C4.54517454,7.49675348 5.28306927,7.24614772 5.89030631,6.82204567 L7.43731493,8.3690543 C7.69434648,8.62608584 8.11202275,8.62608584 8.3690543,8.3690543 C8.62608584,8.11202275 8.62608584,7.69488197 8.3690543,7.43677945 L8.3690543,7.43677945 Z M3.74784126,6.42632418 C2.26937437,6.42632418 1.0704293,5.22791459 1.0704293,3.74891222 C1.0704293,2.26990986 2.26937437,1.07150027 3.74784126,1.07150027 C5.22684362,1.07150027 6.42525322,2.26990986 6.42525322,3.74891222 C6.4257887,5.22791459 5.22737911,6.42632418 3.74784126,6.42632418 L3.74784126,6.42632418 Z" id="Shape"></path>
                </g>
            </g>
            <g id="logo" mask="url(#mask-3)" fill="#3498DB">
                <g transform="translate(105.000000, 15.000000)" id="Logo">
                    <path d="M0.408333333,0.474193548 L0.408333333,9.87903226 L7.06021505,9.87903226 L7.06021505,8.14032258 L2.47634409,8.14032258 L2.47634409,0.474193548 L0.408333333,0.474193548 Z M9.68145161,6.48064516 C9.68145161,6.20842158 9.70779544,5.94059272 9.76048387,5.67715054 C9.81317231,5.41370836 9.90318037,5.18100459 10.0305108,4.97903226 C10.1578411,4.77705992 10.3268807,4.61241103 10.5376344,4.48508065 C10.7483882,4.35775026 11.0118264,4.29408602 11.327957,4.29408602 C11.6440876,4.29408602 11.9097211,4.35775026 12.1248656,4.48508065 C12.34001,4.61241103 12.5112449,4.77705992 12.6385753,4.97903226 C12.7659057,5.18100459 12.8559137,5.41370836 12.9086022,5.67715054 C12.9612906,5.94059272 12.9876344,6.20842158 12.9876344,6.48064516 C12.9876344,6.75286874 12.9612906,7.01850229 12.9086022,7.27755376 C12.8559137,7.53660524 12.7659057,7.769309 12.6385753,7.97567204 C12.5112449,8.18203508 12.34001,8.34668397 12.1248656,8.46962366 C11.9097211,8.59256334 11.6440876,8.65403226 11.327957,8.65403226 C11.0118264,8.65403226 10.7483882,8.59256334 10.5376344,8.46962366 C10.3268807,8.34668397 10.1578411,8.18203508 10.0305108,7.97567204 C9.90318037,7.769309 9.81317231,7.53660524 9.76048387,7.27755376 C9.70779544,7.01850229 9.68145161,6.75286874 9.68145161,6.48064516 L9.68145161,6.48064516 Z M7.81102151,6.48064516 C7.81102151,7.02509233 7.89444361,7.51684368 8.06129032,7.95591398 C8.22813703,8.39498427 8.46523144,8.77038375 8.77258065,9.08212366 C9.07992985,9.39386357 9.44874337,9.63315329 9.87903226,9.8 C10.3093211,9.96684671 10.7922912,10.0502688 11.327957,10.0502688 C11.8636227,10.0502688 12.3487881,9.96684671 12.7834677,9.8 C13.2181473,9.63315329 13.5891562,9.39386357 13.8965054,9.08212366 C14.2038546,8.77038375 14.440949,8.39498427 14.6077957,7.95591398 C14.7746424,7.51684368 14.8580645,7.02509233 14.8580645,6.48064516 C14.8580645,5.93619799 14.7746424,5.44225132 14.6077957,4.99879032 C14.440949,4.55532932 14.2038546,4.17773453 13.8965054,3.86599462 C13.5891562,3.55425471 13.2181473,3.31276967 12.7834677,3.14153226 C12.3487881,2.97029484 11.8636227,2.88467742 11.327957,2.88467742 C10.7922912,2.88467742 10.3093211,2.97029484 9.87903226,3.14153226 C9.44874337,3.31276967 9.07992985,3.55425471 8.77258065,3.86599462 C8.46523144,4.17773453 8.22813703,4.55532932 8.06129032,4.99879032 C7.89444361,5.44225132 7.81102151,5.93619799 7.81102151,6.48064516 L7.81102151,6.48064516 Z M19.2443548,8.27204301 C18.9545684,8.27204301 18.7130834,8.21057409 18.5198925,8.08763441 C18.3267015,7.96469473 18.1708339,7.80663179 18.0522849,7.61344086 C17.933736,7.42024993 17.8503139,7.20291339 17.8020161,6.96142473 C17.7537184,6.71993607 17.7295699,6.47625571 17.7295699,6.23037634 C17.7295699,5.97571557 17.758109,5.73203521 17.8151882,5.49932796 C17.8722673,5.2666207 17.9644707,5.06026076 18.0918011,4.88024194 C18.2191315,4.70022311 18.3771944,4.55752741 18.5659946,4.45215054 C18.7547949,4.34677367 18.9809127,4.29408602 19.2443548,4.29408602 C19.551704,4.29408602 19.806361,4.3511643 20.0083333,4.46532258 C20.2103057,4.57948086 20.3727592,4.73315316 20.4956989,4.92634409 C20.6186386,5.11953502 20.7064513,5.34126219 20.7591398,5.59153226 C20.8118282,5.84180233 20.838172,6.10743587 20.838172,6.38844086 C20.838172,6.63432023 20.8052423,6.86921931 20.7393817,7.09314516 C20.6735212,7.31707101 20.5747318,7.516845 20.4430108,7.69247312 C20.3112897,7.86810124 20.1444455,8.00860162 19.9424731,8.11397849 C19.7405008,8.21935537 19.507797,8.27204301 19.2443548,8.27204301 L19.2443548,8.27204301 Z M22.6163978,9.44435484 L22.6163978,3.06908602 L20.838172,3.06908602 L20.838172,3.97795699 L20.811828,3.97795699 C20.5835114,3.58279372 20.3003153,3.30179295 19.9622312,3.13494624 C19.6241471,2.96809952 19.231185,2.88467742 18.7833333,2.88467742 C18.3091374,2.88467742 17.8898316,2.9768808 17.5254032,3.16129032 C17.1609749,3.34569985 16.8558256,3.59377084 16.6099462,3.90551075 C16.3640669,4.21725066 16.1774648,4.5772829 16.0501344,4.98561828 C15.922804,5.39395365 15.8591398,5.81765013 15.8591398,6.25672043 C15.8591398,6.72213494 15.9140227,7.16339397 16.0237903,7.58051075 C16.1335579,7.99762753 16.3069881,8.36205041 16.544086,8.67379032 C16.781184,8.98553023 17.0841379,9.23140591 17.452957,9.41142473 C17.821776,9.59144355 18.2608397,9.68145161 18.7701613,9.68145161 C19.1828874,9.68145161 19.5758494,9.59583419 19.9490591,9.42459677 C20.3222689,9.25335936 20.6098556,8.98772581 20.811828,8.62768817 L20.838172,8.62768817 L20.838172,9.5233871 C20.8469534,10.0063644 20.7306016,10.4059124 20.4891129,10.722043 C20.2476242,11.0381736 19.8634435,11.1962366 19.3365591,11.1962366 C19.0028657,11.1962366 18.708693,11.1281817 18.4540323,10.9920699 C18.1993715,10.8559581 18.0281366,10.6122777 17.9403226,10.2610215 L16.0830645,10.2610215 C16.1094087,10.6474034 16.2169793,10.9788965 16.4057796,11.2555108 C16.5945798,11.532125 16.8316742,11.7582428 17.1170699,11.933871 C17.4024656,12.1094991 17.7185915,12.2390229 18.065457,12.3224462 C18.4123225,12.4058696 18.7525969,12.4475806 19.0862903,12.4475806 C19.8678354,12.4475806 20.4913059,12.3422054 20.9567204,12.1314516 C21.4221349,11.9206979 21.7777765,11.6638456 22.0236559,11.3608871 C22.2695353,11.0579286 22.4297935,10.7308261 22.5044355,10.3795699 C22.5790774,10.0283137 22.6163978,9.71657842 22.6163978,9.44435484 L22.6163978,9.44435484 Z M25.7776882,6.48064516 C25.7776882,6.20842158 25.804032,5.94059272 25.8567204,5.67715054 C25.9094089,5.41370836 25.9994169,5.18100459 26.1267473,4.97903226 C26.2540777,4.77705992 26.4231172,4.61241103 26.633871,4.48508065 C26.8446247,4.35775026 27.1080629,4.29408602 27.4241935,4.29408602 C27.7403242,4.29408602 28.0059577,4.35775026 28.2211022,4.48508065 C28.4362466,4.61241103 28.6074814,4.77705992 28.7348118,4.97903226 C28.8621422,5.18100459 28.9521503,5.41370836 29.0048387,5.67715054 C29.0575271,5.94059272 29.083871,6.20842158 29.083871,6.48064516 C29.083871,6.75286874 29.0575271,7.01850229 29.0048387,7.27755376 C28.9521503,7.53660524 28.8621422,7.769309 28.7348118,7.97567204 C28.6074814,8.18203508 28.4362466,8.34668397 28.2211022,8.46962366 C28.0059577,8.59256334 27.7403242,8.65403226 27.4241935,8.65403226 C27.1080629,8.65403226 26.8446247,8.59256334 26.633871,8.46962366 C26.4231172,8.34668397 26.2540777,8.18203508 26.1267473,7.97567204 C25.9994169,7.769309 25.9094089,7.53660524 25.8567204,7.27755376 C25.804032,7.01850229 25.7776882,6.75286874 25.7776882,6.48064516 L25.7776882,6.48064516 Z M23.9072581,6.48064516 C23.9072581,7.02509233 23.9906802,7.51684368 24.1575269,7.95591398 C24.3243736,8.39498427 24.561468,8.77038375 24.8688172,9.08212366 C25.1761664,9.39386357 25.5449799,9.63315329 25.9752688,9.8 C26.4055577,9.96684671 26.8885278,10.0502688 27.4241935,10.0502688 C27.9598593,10.0502688 28.4450247,9.96684671 28.8797043,9.8 C29.3143839,9.63315329 29.6853927,9.39386357 29.9927419,9.08212366 C30.3000911,8.77038375 30.5371855,8.39498427 30.7040323,7.95591398 C30.870879,7.51684368 30.9543011,7.02509233 30.9543011,6.48064516 C30.9543011,5.93619799 30.870879,5.44225132 30.7040323,4.99879032 C30.5371855,4.55532932 30.3000911,4.17773453 29.9927419,3.86599462 C29.6853927,3.55425471 29.3143839,3.31276967 28.8797043,3.14153226 C28.4450247,2.97029484 27.9598593,2.88467742 27.4241935,2.88467742 C26.8885278,2.88467742 26.4055577,2.97029484 25.9752688,3.14153226 C25.5449799,3.31276967 25.1761664,3.55425471 24.8688172,3.86599462 C24.561468,4.17773453 24.3243736,4.55532932 24.1575269,4.99879032 C23.9906802,5.44225132 23.9072581,5.93619799 23.9072581,6.48064516 L23.9072581,6.48064516 Z"></path>
                </g>
            </g>
            <g id="right" mask="url(#mask-3)">
                <g transform="translate(150.233871, 14.172043)">
                    <path d="M1.86384409,6.81666667 L2.47634409,5.09112903 L2.48951613,5.09112903 L3.08225806,6.81666667 L1.86384409,6.81666667 Z M1.96263441,3.93198925 L0.184408602,8.6344086 L1.225,8.6344086 L1.5938172,7.58723118 L3.35228495,7.58723118 L3.70793011,8.6344086 L4.78145161,8.6344086 L3.02298387,3.93198925 L1.96263441,3.93198925 Z M8.32473118,5.51263441 L9.32580645,5.51263441 C9.29507153,5.24041083 9.2204307,4.99892578 9.10188172,4.78817204 C8.98333274,4.5774183 8.83295342,4.40069516 8.65073925,4.25799731 C8.46852507,4.11529947 8.26216513,4.0066312 8.03165323,3.93198925 C7.80114132,3.8573473 7.5563633,3.82002688 7.29731183,3.82002688 C6.93727419,3.82002688 6.6134647,3.88369112 6.32587366,4.01102151 C6.03828261,4.13835189 5.79569991,4.31397737 5.59811828,4.53790323 C5.40053665,4.76182908 5.24905967,5.02416964 5.1436828,5.3249328 C5.03830592,5.62569595 4.98561828,5.95170075 4.98561828,6.30295699 C4.98561828,6.64543182 5.03830592,6.96485067 5.1436828,7.26122312 C5.24905967,7.55759557 5.40053665,7.8155455 5.59811828,8.03508065 C5.79569991,8.25461579 6.03828261,8.4269483 6.32587366,8.55208333 C6.6134647,8.67721837 6.93727419,8.73978495 7.29731183,8.73978495 C7.58709822,8.73978495 7.85273177,8.69587858 8.09422043,8.60806452 C8.33570909,8.52025046 8.54645967,8.39292198 8.72647849,8.22607527 C8.90649732,8.05922856 9.05138834,7.85725925 9.16115591,7.62016129 C9.27092349,7.38306333 9.33897836,7.11742979 9.36532258,6.82325269 L8.36424731,6.82325269 C8.32473099,7.1393833 8.21606272,7.39404025 8.03823925,7.58723118 C7.86041578,7.78042211 7.61344244,7.87701613 7.29731183,7.87701613 C7.06460457,7.87701613 6.8670259,7.8320121 6.70456989,7.74200269 C6.54211388,7.65199328 6.41039477,7.53234842 6.3094086,7.38306452 C6.20842243,7.23378062 6.13487926,7.06583875 6.08877688,6.87923387 C6.0426745,6.692629 6.01962366,6.50053862 6.01962366,6.30295699 C6.01962366,6.09659395 6.0426745,5.89681996 6.08877688,5.70362903 C6.13487926,5.5104381 6.20842243,5.3381056 6.3094086,5.18662634 C6.41039477,5.03514709 6.54211388,4.91440457 6.70456989,4.82439516 C6.8670259,4.73438575 7.06460457,4.68938172 7.29731183,4.68938172 C7.42464221,4.68938172 7.54648239,4.71023725 7.66283602,4.75194892 C7.77918965,4.7936606 7.88346728,4.85183654 7.97567204,4.92647849 C8.06787681,5.00112044 8.14471295,5.08783553 8.2061828,5.18662634 C8.26765264,5.28541716 8.30716837,5.39408543 8.32473118,5.51263441 L8.32473118,5.51263441 Z M13.2049731,5.51263441 L14.2060484,5.51263441 C14.1753135,5.24041083 14.1006726,4.99892578 13.9821237,4.78817204 C13.8635747,4.5774183 13.7131954,4.40069516 13.5309812,4.25799731 C13.348767,4.11529947 13.1424071,4.0066312 12.9118952,3.93198925 C12.6813833,3.8573473 12.4366052,3.82002688 12.1775538,3.82002688 C11.8175161,3.82002688 11.4937066,3.88369112 11.2061156,4.01102151 C10.9185245,4.13835189 10.6759418,4.31397737 10.4783602,4.53790323 C10.2807786,4.76182908 10.1293016,5.02416964 10.0239247,5.3249328 C9.91854786,5.62569595 9.86586022,5.95170075 9.86586022,6.30295699 C9.86586022,6.64543182 9.91854786,6.96485067 10.0239247,7.26122312 C10.1293016,7.55759557 10.2807786,7.8155455 10.4783602,8.03508065 C10.6759418,8.25461579 10.9185245,8.4269483 11.2061156,8.55208333 C11.4937066,8.67721837 11.8175161,8.73978495 12.1775538,8.73978495 C12.4673402,8.73978495 12.7329737,8.69587858 12.9744624,8.60806452 C13.215951,8.52025046 13.4267016,8.39292198 13.6067204,8.22607527 C13.7867393,8.05922856 13.9316303,7.85725925 14.0413978,7.62016129 C14.1511654,7.38306333 14.2192203,7.11742979 14.2455645,6.82325269 L13.2444892,6.82325269 C13.2049729,7.1393833 13.0963047,7.39404025 12.9184812,7.58723118 C12.7406577,7.78042211 12.4936844,7.87701613 12.1775538,7.87701613 C11.9448465,7.87701613 11.7472678,7.8320121 11.5848118,7.74200269 C11.4223558,7.65199328 11.2906367,7.53234842 11.1896505,7.38306452 C11.0886644,7.23378062 11.0151212,7.06583875 10.9690188,6.87923387 C10.9229164,6.692629 10.8998656,6.50053862 10.8998656,6.30295699 C10.8998656,6.09659395 10.9229164,5.89681996 10.9690188,5.70362903 C11.0151212,5.5104381 11.0886644,5.3381056 11.1896505,5.18662634 C11.2906367,5.03514709 11.4223558,4.91440457 11.5848118,4.82439516 C11.7472678,4.73438575 11.9448465,4.68938172 12.1775538,4.68938172 C12.3048841,4.68938172 12.4267243,4.71023725 12.543078,4.75194892 C12.6594316,4.7936606 12.7637092,4.85183654 12.855914,4.92647849 C12.9481187,5.00112044 13.0249549,5.08783553 13.0864247,5.18662634 C13.1478946,5.28541716 13.1874103,5.39408543 13.2049731,5.51263441 L13.2049731,5.51263441 Z M15.7801075,6.30295699 C15.7801075,6.09659395 15.8031584,5.89681996 15.8492608,5.70362903 C15.8953631,5.5104381 15.9689063,5.3381056 16.0698925,5.18662634 C16.1708786,5.03514709 16.3025978,4.91440457 16.4650538,4.82439516 C16.6275098,4.73438575 16.8250884,4.68938172 17.0577957,4.68938172 C17.290503,4.68938172 17.4880816,4.73438575 17.6505376,4.82439516 C17.8129936,4.91440457 17.9447128,5.03514709 18.0456989,5.18662634 C18.1466851,5.3381056 18.2202283,5.5104381 18.2663306,5.70362903 C18.312433,5.89681996 18.3354839,6.09659395 18.3354839,6.30295699 C18.3354839,6.50053862 18.312433,6.692629 18.2663306,6.87923387 C18.2202283,7.06583875 18.1466851,7.23378062 18.0456989,7.38306452 C17.9447128,7.53234842 17.8129936,7.65199328 17.6505376,7.74200269 C17.4880816,7.8320121 17.290503,7.87701613 17.0577957,7.87701613 C16.8250884,7.87701613 16.6275098,7.8320121 16.4650538,7.74200269 C16.3025978,7.65199328 16.1708786,7.53234842 16.0698925,7.38306452 C15.9689063,7.23378062 15.8953631,7.06583875 15.8492608,6.87923387 C15.8031584,6.692629 15.7801075,6.50053862 15.7801075,6.30295699 L15.7801075,6.30295699 Z M14.7461022,6.30295699 C14.7461022,6.64543182 14.7987898,6.96485067 14.9041667,7.26122312 C15.0095435,7.55759557 15.1610205,7.8155455 15.3586022,8.03508065 C15.5561838,8.25461579 15.7987665,8.4269483 16.0863575,8.55208333 C16.3739486,8.67721837 16.6977581,8.73978495 17.0577957,8.73978495 C17.422224,8.73978495 17.7471312,8.67721837 18.0325269,8.55208333 C18.3179226,8.4269483 18.5594076,8.25461579 18.7569892,8.03508065 C18.9545709,7.8155455 19.1060479,7.55759557 19.2114247,7.26122312 C19.3168016,6.96485067 19.3694892,6.64543182 19.3694892,6.30295699 C19.3694892,5.95170075 19.3168016,5.62569595 19.2114247,5.3249328 C19.1060479,5.02416964 18.9545709,4.76182908 18.7569892,4.53790323 C18.5594076,4.31397737 18.3179226,4.13835189 18.0325269,4.01102151 C17.7471312,3.88369112 17.422224,3.82002688 17.0577957,3.82002688 C16.6977581,3.82002688 16.3739486,3.88369112 16.0863575,4.01102151 C15.7987665,4.13835189 15.5561838,4.31397737 15.3586022,4.53790323 C15.1610205,4.76182908 15.0095435,5.02416964 14.9041667,5.3249328 C14.7987898,5.62569595 14.7461022,5.95170075 14.7461022,6.30295699 L14.7461022,6.30295699 Z M24.0653226,6.8561828 L24.0653226,3.93198925 L23.0313172,3.93198925 L23.0313172,6.8561828 C23.0313172,7.20743903 22.961067,7.46538896 22.8205645,7.63004032 C22.680062,7.79469168 22.4254051,7.87701613 22.056586,7.87701613 C21.8458323,7.87701613 21.6778904,7.84737933 21.5527554,7.78810484 C21.4276203,7.72883035 21.3299287,7.6519942 21.2596774,7.55759409 C21.1894262,7.46319397 21.1433245,7.3545257 21.121371,7.23158602 C21.0994175,7.10864634 21.0884409,6.98351318 21.0884409,6.8561828 L21.0884409,3.93198925 L20.0544355,3.93198925 L20.0544355,6.8561828 C20.0544355,7.49722543 20.2289633,7.97141423 20.5780242,8.27876344 C20.9270851,8.58611265 21.4199341,8.73978495 22.056586,8.73978495 C22.6844565,8.73978495 23.1762079,8.58501499 23.5318548,8.27547043 C23.8875018,7.96592587 24.0653226,7.49283472 24.0653226,6.8561828 L24.0653226,6.8561828 Z M24.9544355,3.93198925 L24.9544355,8.6344086 L25.9225806,8.6344086 L25.9225806,5.48629032 L25.9357527,5.48629032 L27.8918011,8.6344086 L28.9258065,8.6344086 L28.9258065,3.93198925 L27.9576613,3.93198925 L27.9576613,7.08669355 L27.9444892,7.08669355 L25.9818548,3.93198925 L24.9544355,3.93198925 Z M30.8752688,4.80134409 L30.8752688,8.6344086 L31.9092742,8.6344086 L31.9092742,4.80134409 L33.3186828,4.80134409 L33.3186828,3.93198925 L29.4658602,3.93198925 L29.4658602,4.80134409 L30.8752688,4.80134409 Z M37.4481183,3.4577957 L37.4481183,10.0372312 L38.1528226,10.0372312 L38.1528226,3.4577957 L37.4481183,3.4577957 Z M45.7860215,5.51263441 L46.7870968,5.51263441 C46.7563619,5.24041083 46.681721,4.99892578 46.563172,4.78817204 C46.4446231,4.5774183 46.2942437,4.40069516 46.1120296,4.25799731 C45.9298154,4.11529947 45.7234555,4.0066312 45.4929435,3.93198925 C45.2624316,3.8573473 45.0176536,3.82002688 44.7586022,3.82002688 C44.3985645,3.82002688 44.074755,3.88369112 43.787164,4.01102151 C43.4995729,4.13835189 43.2569902,4.31397737 43.0594086,4.53790323 C42.861827,4.76182908 42.71035,5.02416964 42.6049731,5.3249328 C42.4995962,5.62569595 42.4469086,5.95170075 42.4469086,6.30295699 C42.4469086,6.64543182 42.4995962,6.96485067 42.6049731,7.26122312 C42.71035,7.55759557 42.861827,7.8155455 43.0594086,8.03508065 C43.2569902,8.25461579 43.4995729,8.4269483 43.787164,8.55208333 C44.074755,8.67721837 44.3985645,8.73978495 44.7586022,8.73978495 C45.0483885,8.73978495 45.3140221,8.69587858 45.5555108,8.60806452 C45.7969994,8.52025046 46.00775,8.39292198 46.1877688,8.22607527 C46.3677876,8.05922856 46.5126787,7.85725925 46.6224462,7.62016129 C46.7322138,7.38306333 46.8002687,7.11742979 46.8266129,6.82325269 L45.8255376,6.82325269 C45.7860213,7.1393833 45.677353,7.39404025 45.4995296,7.58723118 C45.3217061,7.78042211 45.0747328,7.87701613 44.7586022,7.87701613 C44.5258949,7.87701613 44.3283162,7.8320121 44.1658602,7.74200269 C44.0034042,7.65199328 43.8716851,7.53234842 43.7706989,7.38306452 C43.6697128,7.23378062 43.5961696,7.06583875 43.5500672,6.87923387 C43.5039648,6.692629 43.480914,6.50053862 43.480914,6.30295699 C43.480914,6.09659395 43.5039648,5.89681996 43.5500672,5.70362903 C43.5961696,5.5104381 43.6697128,5.3381056 43.7706989,5.18662634 C43.8716851,5.03514709 44.0034042,4.91440457 44.1658602,4.82439516 C44.3283162,4.73438575 44.5258949,4.68938172 44.7586022,4.68938172 C44.8859325,4.68938172 45.0077727,4.71023725 45.1241263,4.75194892 C45.24048,4.7936606 45.3447576,4.85183654 45.4369624,4.92647849 C45.5291671,5.00112044 45.6060033,5.08783553 45.6674731,5.18662634 C45.728943,5.28541716 45.7684587,5.39408543 45.7860215,5.51263441 L45.7860215,5.51263441 Z M48.7168011,6.81666667 L49.3293011,5.09112903 L49.3424731,5.09112903 L49.9352151,6.81666667 L48.7168011,6.81666667 Z M48.8155914,3.93198925 L47.0373656,8.6344086 L48.077957,8.6344086 L48.4467742,7.58723118 L50.2052419,7.58723118 L50.5608871,8.6344086 L51.6344086,8.6344086 L49.8759409,3.93198925 L48.8155914,3.93198925 Z M53.0767473,6.05927419 L53.0767473,4.73548387 L54.209543,4.73548387 C54.446641,4.73548387 54.6244618,4.78707386 54.7430108,4.89025538 C54.8615597,4.9934369 54.9208333,5.15918345 54.9208333,5.3875 C54.9208333,5.62459796 54.8615597,5.79583281 54.7430108,5.90120968 C54.6244618,6.00658655 54.446641,6.05927419 54.209543,6.05927419 L53.0767473,6.05927419 Z M52.0427419,3.93198925 L52.0427419,8.6344086 L53.0767473,8.6344086 L53.0767473,6.7969086 L54.1107527,6.7969086 C54.3698042,6.7969086 54.5564062,6.85398688 54.6705645,6.96814516 C54.7847228,7.08230344 54.8593636,7.26231956 54.8944892,7.50819892 C54.9208335,7.69699915 54.9405913,7.89457782 54.9537634,8.10094086 C54.9669355,8.3073039 55.0020606,8.4851247 55.0591398,8.6344086 L56.0931452,8.6344086 C56.0448474,8.56854806 56.0086247,8.48841893 55.9844758,8.39401882 C55.9603269,8.2996187 55.9427644,8.19973171 55.9317876,8.09435484 C55.9208109,7.98897797 55.9131273,7.885798 55.9087366,7.78481183 C55.9043459,7.68382566 55.8999552,7.59601292 55.8955645,7.52137097 C55.8867831,7.40282199 55.8703182,7.28427479 55.8461694,7.16572581 C55.8220205,7.04717683 55.7836024,6.93850856 55.730914,6.83971774 C55.6782255,6.74092693 55.6101707,6.6553095 55.5267473,6.5828629 C55.443324,6.5104163 55.3379487,6.456631 55.2106183,6.42150538 L55.2106183,6.40833333 C55.4740605,6.30295646 55.6639555,6.14928416 55.7803091,5.94731183 C55.8966628,5.74533949 55.9548387,5.50604977 55.9548387,5.22943548 C55.9548387,5.04941666 55.9230066,4.88147479 55.8593414,4.72560484 C55.7956762,4.56973488 55.7034728,4.43252747 55.5827285,4.31397849 C55.4619842,4.19542951 55.3170931,4.10212848 55.1480511,4.03407258 C54.979009,3.96601668 54.789114,3.93198925 54.5783602,3.93198925 L52.0427419,3.93198925 Z M57.8384409,4.80134409 L57.8384409,8.6344086 L58.8724462,8.6344086 L58.8724462,4.80134409 L60.2818548,4.80134409 L60.2818548,3.93198925 L56.4290323,3.93198925 L56.4290323,4.80134409 L57.8384409,4.80134409 Z" id="ACCOUNT--|--CART" fill="#3498DB"></path>
                    <g id="cart" stroke-width="1" fill="none" transform="translate(67.177419, 0.000000)">
                        <mask id="mask-7" fill="white">
                            <use xlink:href="#path-5"></use>
                        </mask>
                        <g id="Mask" stroke="#3498DB" mask="url(#mask-6)" stroke-width="2" fill-opacity="0.01" fill="#00A0D2">
                            <use mask="url(#mask-8)" xlink:href="#path-5"></use>
                        </g>
                        <path d="M6.85674369,5.68989675 L6.85674369,6.34332855 C6.97000577,6.34332855 7.08871136,6.34659568 7.21286402,6.35313003 C7.33701669,6.35966438 7.45136611,6.38362331 7.55591572,6.42500753 C7.66046533,6.46639175 7.74649966,6.53282332 7.81402128,6.62430423 C7.8815429,6.71578514 7.91530321,6.84864827 7.91530321,7.02289763 C7.91530321,7.24506555 7.84342643,7.42040133 7.69967071,7.54891023 C7.555915,7.67741912 7.37949018,7.74167261 7.17039096,7.74167261 C7.03534771,7.74167261 6.9188202,7.71771368 6.82080494,7.66979511 C6.72278968,7.62187654 6.64111152,7.55762305 6.57576802,7.47703273 C6.51042451,7.3964424 6.46032857,7.3006067 6.4254787,7.18952274 C6.39062883,7.07843877 6.37102607,6.96191127 6.36666984,6.83993672 L5.48453691,6.83993672 C5.48018067,7.10566698 5.51829715,7.34090008 5.59888747,7.54564307 C5.6794778,7.75038606 5.79382722,7.92354375 5.94193917,8.06512135 C6.09005112,8.20669895 6.26974307,8.31451412 6.48102041,8.38857009 C6.69229774,8.46262607 6.9264418,8.4996535 7.18345959,8.4996535 C7.40562752,8.4996535 7.61907977,8.46698223 7.82382276,8.40163873 C8.02856575,8.33629522 8.20934674,8.24045952 8.36617115,8.11412874 C8.52299557,7.98779796 8.64823541,7.83097589 8.74189444,7.64365784 C8.83555346,7.45633979 8.88238228,7.24288753 8.88238228,7.00329467 C8.88238228,6.74192065 8.8105055,6.51757797 8.66674978,6.33025992 C8.52299407,6.14294186 8.3247884,6.02096915 8.07212684,5.96433811 L8.07212684,5.95126947 C8.2855823,5.8902822 8.44567149,5.77484374 8.55239922,5.60495062 C8.65912694,5.4350575 8.71249001,5.23902992 8.71249001,5.016862 C8.71249001,4.81211901 8.66675024,4.63133802 8.57526933,4.4745136 C8.48378842,4.31768918 8.36508283,4.18482605 8.219149,4.0759202 C8.07321517,3.96701436 7.90876981,3.8853362 7.72580799,3.83088328 C7.54284617,3.77643035 7.35988709,3.7492043 7.17692527,3.7492043 C6.94168865,3.7492043 6.7282364,3.78732077 6.53656211,3.86355487 C6.34488782,3.93978896 6.18044246,4.04760413 6.0432211,4.18700361 C5.90599973,4.32640309 5.79927361,4.49302653 5.72303952,4.68687894 C5.64680542,4.88073134 5.60433278,5.09527264 5.59562031,5.33050926 L6.47775325,5.33050926 C6.47339701,5.09527264 6.53111624,4.9003341 6.65091267,4.7456878 C6.7707091,4.5910415 6.94822297,4.51371951 7.18345959,4.51371951 C7.35335271,4.51371951 7.50364052,4.56599353 7.63432753,4.67054314 C7.76501455,4.77509275 7.83035708,4.92538056 7.83035708,5.12141108 C7.83035708,5.2520981 7.79877485,5.35664614 7.73560946,5.43505835 C7.67244407,5.51347056 7.59185496,5.57336787 7.4938397,5.61475209 C7.39582444,5.65613632 7.29018735,5.68118428 7.17692527,5.68989675 C7.0636632,5.69860922 6.95693707,5.69860922 6.85674369,5.68989675 L6.85674369,5.68989675 Z" id="3" fill="#3498DB" mask="url(#mask-7)"></path>
                        <mask id="mask-10" fill="white">
                            <use xlink:href="#path-9"></use>
                        </mask>
                        <g id="Mask"></g>
                        <g id="Oval-9" mask="url(#mask-10)" stroke="#3498DB" stroke-width="2" fill="#00A0D2" fill-opacity="0.01">
                            <use mask="url(#mask-12)" xlink:href="#path-11"></use>
                        </g>
                    </g>
                </g>
            </g>
        </g>
    </g>
</svg>