<?xml version="1.0" encoding="UTF-8" standalone="no"?>
<svg width="245px" height="62px" viewBox="0 0 245 62" version="1.1" xmlns="http://www.w3.org/2000/svg" xmlns:xlink="http://www.w3.org/1999/xlink">
    <!-- Generator: Sketch 3.8.1 (29687) - http://www.bohemiancoding.com/sketch -->
    <title>header-wide-center-plain</title>
    <desc>Created with Sketch.</desc>
    <defs>
        <rect id="path-1" x="0" y="0" width="245" height="62" rx="4"></rect>
    </defs>
    <g id="Header-Presets" stroke="none" stroke-width="1" fill="none" fill-rule="evenodd">
        <g id="header-wide-center-plain">
            <mask id="mask-2" fill="white">
                <use xlink:href="#path-1"></use>
            </mask>
            <use id="Mask" fill="#3498DB" xlink:href="#path-1"></use>
            <rect id="nav-bg" fill="#000000" opacity="0.108617071" mask="url(#mask-2)" x="-9" y="45" width="254" height="24"></rect>
            <g id="left" mask="url(#mask-2)" font-size="6.58602151" font-family="HelveticaNeue-Bold, Helvetica Neue" font-weight="bold">
                <g transform="translate(40.000000, 50.000000)" id="HOME----LINK----LINK">
                    <text>
                        <tspan x="0.22311828" y="6" fill="#FFFFFF">HOME    LINK  </tspan>
                        <tspan x="46.9377688" y="6" font-size="6.586" fill="#FFFFFF">  LINK   LINK    LINK    LINK   LINK</tspan>
                    </text>
                </g>
            </g>
            <g id="logo" mask="url(#mask-2)" fill="#FFFFFF">
                <g transform="translate(104.688172, 16.415323)" id="Logo">
                    <path d="M0.497244624,0.577445369 L0.497244624,12.0301119 L8.59751994,12.0301119 L8.59751994,9.91281217 L3.01554804,9.91281217 L3.01554804,0.577445369 L0.497244624,0.577445369 Z M11.7895096,7.89175338 C11.7895096,7.56025531 11.8215896,7.23410887 11.8857505,6.91330428 C11.9499114,6.5924997 12.059518,6.30912656 12.2145736,6.06317638 C12.3696291,5.8172262 12.5754757,5.61672634 12.8321193,5.46167079 C13.088763,5.30661524 13.4095628,5.22908862 13.7945283,5.22908862 C14.1794938,5.22908862 14.5029669,5.30661524 14.7649573,5.46167079 C15.0269477,5.61672634 15.2354676,5.8172262 15.3905231,6.06317638 C15.5455787,6.30912656 15.6551852,6.5924997 15.7193462,6.91330428 C15.7835071,7.23410887 15.8155871,7.56025531 15.8155871,7.89175338 C15.8155871,8.22325146 15.7835071,8.54672456 15.7193462,8.86218241 C15.6551852,9.17764025 15.5455787,9.46101338 15.3905231,9.71231031 C15.2354676,9.96360724 15.0269477,10.1641071 14.7649573,10.3138159 C14.5029669,10.4635247 14.1794938,10.538378 13.7945283,10.538378 C13.4095628,10.538378 13.088763,10.4635247 12.8321193,10.3138159 C12.5754757,10.1641071 12.3696291,9.96360724 12.2145736,9.71231031 C12.059518,9.46101338 11.9499114,9.17764025 11.8857505,8.86218241 C11.8215896,8.54672456 11.7895096,8.22325146 11.7895096,7.89175338 L11.7895096,7.89175338 Z M9.51180845,7.89175338 C9.51180845,8.55474953 9.61339504,9.15357578 9.81657128,9.68825009 C10.0197475,10.2229244 10.3084673,10.6800641 10.6827393,11.0596828 C11.0570114,11.4393016 11.506131,11.7306947 12.0301119,11.933871 C12.5540927,12.1370472 13.1422256,12.2386338 13.7945283,12.2386338 C14.4468309,12.2386338 15.0376372,12.1370472 15.5669648,11.933871 C16.0962923,11.7306947 16.5480853,11.4393016 16.9223574,11.0596828 C17.2966294,10.6800641 17.5853492,10.2229244 17.7885254,9.68825009 C17.9917016,9.15357578 18.0932882,8.55474953 18.0932882,7.89175338 C18.0932882,7.22875724 17.9917016,6.62725766 17.7885254,6.0872366 C17.5853492,5.54721555 17.2966294,5.08740254 16.9223574,4.70778378 C16.5480853,4.32816501 16.0962923,4.03409855 15.5669648,3.82557557 C15.0376372,3.61705259 14.4468309,3.51279266 13.7945283,3.51279266 C13.1422256,3.51279266 12.5540927,3.61705259 12.0301119,3.82557557 C11.506131,4.03409855 11.0570114,4.32816501 10.6827393,4.70778378 C10.3084673,5.08740254 10.0197475,5.54721555 9.81657128,6.0872366 C9.61339504,6.62725766 9.51180845,7.22875724 9.51180845,7.89175338 L9.51180845,7.89175338 Z M23.4346579,10.0732137 C23.0817729,10.0732137 22.7877064,9.99836039 22.5524497,9.84865158 C22.317193,9.69894277 22.1273865,9.50646291 21.9830244,9.27120621 C21.8386623,9.03594951 21.7370758,8.7712897 21.6782616,8.47721883 C21.6194474,8.18314795 21.5900408,7.88640816 21.5900408,7.58699055 C21.5900408,7.27687945 21.6247941,6.98013966 21.6943017,6.69676227 C21.7638094,6.41338489 21.8760893,6.16209173 22.0311449,5.94287526 C22.1862004,5.72365879 22.3786803,5.54989225 22.6085902,5.42157041 C22.8385002,5.29324858 23.1138533,5.22908862 23.4346579,5.22908862 C23.8089299,5.22908862 24.1190364,5.29859524 24.3649866,5.43761056 C24.6109367,5.57662588 24.8087633,5.76375909 24.9584721,5.99901578 C25.1081809,6.23427248 25.2151141,6.50427896 25.2792751,6.80904331 C25.343436,7.11380767 25.375516,7.43728078 25.375516,7.77947234 C25.375516,8.07888995 25.335416,8.36493642 25.2552148,8.63762032 C25.1750137,8.91030422 25.0547138,9.15357738 24.8943115,9.3674471 C24.7339092,9.58131683 24.530736,9.75241004 24.2847858,9.88073188 C24.0388356,10.0090537 23.7554625,10.0732137 23.4346579,10.0732137 L23.4346579,10.0732137 Z M27.5409361,11.5007869 L27.5409361,3.73735475 L25.375516,3.73735475 L25.375516,4.84412504 L25.3434357,4.84412504 C25.065405,4.36291816 24.7205453,4.02073174 24.308846,3.8175555 C23.8971468,3.61437926 23.4186205,3.51279266 22.8732527,3.51279266 C22.2958044,3.51279266 21.7851981,3.62507259 21.3414184,3.8496358 C20.8976388,4.07419901 20.5260457,4.37628546 20.2266281,4.75590422 C19.9272105,5.13552298 19.6999773,5.57394934 19.5449217,6.07119645 C19.3898662,6.56844356 19.3123396,7.08439653 19.3123396,7.61907085 C19.3123396,8.18582562 19.3791729,8.72316524 19.5128414,9.23110584 C19.64651,9.73904643 19.8577032,10.1828195 20.1464273,10.5624382 C20.4351515,10.942057 20.8040712,11.2414701 21.2531976,11.4606866 C21.702324,11.679903 22.2369903,11.7895096 22.8572125,11.7895096 C23.3598064,11.7895096 23.8383327,11.6852497 24.2928059,11.4767267 C24.7472791,11.2682037 25.0974855,10.9447306 25.3434357,10.5062977 L25.375516,10.5062977 L25.375516,11.5970278 C25.3862094,12.1851696 25.2445229,12.6717159 24.950452,13.0566814 C24.6563811,13.4416469 24.1885481,13.6341268 23.546939,13.6341268 C23.1405865,13.6341268 22.7823601,13.5512535 22.472249,13.3855045 C22.1621379,13.2197554 21.953618,12.9230156 21.8466831,12.4952762 L19.5850221,12.4952762 C19.6171026,12.9657896 19.7480958,13.3694626 19.9780058,13.7063074 C20.2079157,14.0431523 20.4966355,14.3185054 20.8441738,14.5323751 C21.1917121,14.7462449 21.5766719,14.9039714 21.9990646,15.0055595 C22.4214573,15.1071476 22.8358236,15.1579409 23.2421761,15.1579409 C24.1938964,15.1579409 24.9531225,15.029621 25.5198773,14.7729774 C26.0866321,14.5163337 26.5197118,14.2035539 26.8191294,13.8346286 C27.118547,13.4657034 27.3137002,13.067377 27.4045948,12.6396375 C27.4954895,12.2118981 27.5409361,11.832285 27.5409361,11.5007869 L27.5409361,11.5007869 Z M31.3905719,7.89175338 C31.3905719,7.56025531 31.4226519,7.23410887 31.4868128,6.91330428 C31.5509737,6.5924997 31.6605803,6.30912656 31.8156358,6.06317638 C31.9706914,5.8172262 32.1765379,5.61672634 32.4331816,5.46167079 C32.6898253,5.30661524 33.010625,5.22908862 33.3955905,5.22908862 C33.780556,5.22908862 34.1040291,5.30661524 34.3660196,5.46167079 C34.62801,5.61672634 34.8365298,5.8172262 34.9915854,6.06317638 C35.1466409,6.30912656 35.2562475,6.5924997 35.3204084,6.91330428 C35.3845693,7.23410887 35.4166493,7.56025531 35.4166493,7.89175338 C35.4166493,8.22325146 35.3845693,8.54672456 35.3204084,8.86218241 C35.2562475,9.17764025 35.1466409,9.46101338 34.9915854,9.71231031 C34.8365298,9.96360724 34.62801,10.1641071 34.3660196,10.3138159 C34.1040291,10.4635247 33.780556,10.538378 33.3955905,10.538378 C33.010625,10.538378 32.6898253,10.4635247 32.4331816,10.3138159 C32.1765379,10.1641071 31.9706914,9.96360724 31.8156358,9.71231031 C31.6605803,9.46101338 31.5509737,9.17764025 31.4868128,8.86218241 C31.4226519,8.54672456 31.3905719,8.22325146 31.3905719,7.89175338 L31.3905719,7.89175338 Z M29.1128707,7.89175338 C29.1128707,8.55474953 29.2144573,9.15357578 29.4176335,9.68825009 C29.6208098,10.2229244 29.9095296,10.6800641 30.2838016,11.0596828 C30.6580736,11.4393016 31.1071933,11.7306947 31.6311741,11.933871 C32.1551549,12.1370472 32.7432879,12.2386338 33.3955905,12.2386338 C34.0478932,12.2386338 34.6386994,12.1370472 35.168027,11.933871 C35.6973546,11.7306947 36.1491476,11.4393016 36.5234196,11.0596828 C36.8976916,10.6800641 37.1864114,10.2229244 37.3895877,9.68825009 C37.5927639,9.15357578 37.6943505,8.55474953 37.6943505,7.89175338 C37.6943505,7.22875724 37.5927639,6.62725766 37.3895877,6.0872366 C37.1864114,5.54721555 36.8976916,5.08740254 36.5234196,4.70778378 C36.1491476,4.32816501 35.6973546,4.03409855 35.168027,3.82557557 C34.6386994,3.61705259 34.0478932,3.51279266 33.3955905,3.51279266 C32.7432879,3.51279266 32.1551549,3.61705259 31.6311741,3.82557557 C31.1071933,4.03409855 30.6580736,4.32816501 30.2838016,4.70778378 C29.9095296,5.08740254 29.6208098,5.54721555 29.4176335,6.0872366 C29.2144573,6.62725766 29.1128707,7.22875724 29.1128707,7.89175338 L29.1128707,7.89175338 Z"></path>
                </g>
            </g>
        </g>
    </g>
</svg>